<svg width="801" height="800" viewBox="0 0 801 800" fill="none" xmlns="http://www.w3.org/2000/svg">
<path fillRule="evenodd" clipRule="evenodd" d="M400.619 552.163C436.59 585.308 484.895 605.412 537.438 605.412C650.282 605.412 741.614 513.374 741.614 400.174C741.614 286.63 650.282 194.588 537.438 194.588C484.895 194.588 436.59 214.688 400.619 247.837C359.36 285.567 333.263 339.874 333.263 400.174C333.267 460.474 359.36 514.785 400.619 552.163Z" fill="#E9B040"/>
<path fillRule="evenodd" clipRule="evenodd" d="M714.47 514.428C714.47 510.901 717.292 508.083 720.816 508.083C724.692 508.083 727.511 510.905 727.511 514.428C727.511 518.313 724.688 521.131 720.816 521.131C717.292 521.131 714.47 518.313 714.47 514.428ZM720.816 519.724C723.638 519.724 726.099 517.251 726.099 514.433C726.099 511.614 723.634 509.498 720.816 509.498C718.342 509.498 715.881 511.614 715.881 514.433C715.881 517.251 718.347 519.724 720.816 519.724ZM720.11 517.608H718.699V511.61H721.165C721.522 511.61 722.227 511.61 722.576 511.967C723.281 512.316 723.281 512.673 723.281 513.378C723.281 514.084 722.933 514.789 722.227 514.789L723.638 517.612H721.87L721.165 515.138H720.11V517.608V514.08H721.522C721.87 514.08 721.87 513.723 721.87 513.374C721.87 513.017 721.87 513.017 721.522 512.669H720.11V517.608Z" fill="#E9B040"/>
<path fillRule="evenodd" clipRule="evenodd" d="M466.563 378.314C465.858 370.91 464.446 363.859 463.035 356.451H338.202C339.613 349.046 341.73 341.995 343.842 334.939H457.042C454.585 327.516 451.761 320.219 448.58 313.076H352.662C356.19 305.606 360.073 298.31 364.299 291.212H436.594C431.942 283.68 426.758 276.492 421.08 269.7H379.817C386.2 261.906 393.154 254.598 400.623 247.837C364.303 215.041 316.342 194.588 263.446 194.588C150.956 194.588 59.271 286.63 59.271 400.174C59.271 513.374 150.956 605.412 263.446 605.412C316.342 605.412 364.299 585.308 400.623 552.163C407.977 545.52 414.816 538.328 421.08 530.648H379.817C374.173 523.597 369.238 516.545 364.299 508.784H436.594C441.139 501.811 445.148 494.502 448.584 486.92H352.662C349.487 479.869 346.316 472.817 343.842 465.405H457.042C459.508 458.353 461.276 450.953 463.031 443.541C464.442 436.49 465.853 429.09 466.559 421.677C467.274 414.528 467.628 407.347 467.621 400.162C467.621 392.77 467.269 385.366 466.563 378.314Z" fill="#CC2131"/>
<path fillRule="evenodd" clipRule="evenodd" d="M714.47 447.783C714.47 443.906 717.292 441.088 720.816 441.088C724.692 441.088 727.511 443.911 727.511 447.783C727.511 451.311 724.688 454.486 720.816 454.486C717.292 454.486 714.47 451.306 714.47 447.783ZM720.816 452.718C723.638 452.718 726.099 450.601 726.099 447.783C726.099 444.965 723.634 442.848 720.816 442.848C718.342 442.848 715.881 444.965 715.881 447.783C715.881 450.601 718.347 452.718 720.816 452.718ZM720.11 450.601H718.699V444.961H722.576C723.281 445.318 723.281 446.023 723.281 446.729C723.281 447.077 722.933 447.783 722.227 448.14L723.638 450.605H721.87L721.165 448.488H720.11V450.601V447.43H720.816C721.165 447.43 721.522 447.43 721.522 447.073C721.87 447.073 721.87 446.725 721.87 446.368C721.87 446.368 721.87 446.019 721.522 446.019C721.522 445.662 721.165 446.019 720.816 446.019H720.11V450.601Z" fill="white"/>
<path fillRule="evenodd" clipRule="evenodd" d="M331.15 459.42C324.452 461.18 319.513 462.242 314.578 462.242C303.999 462.242 297.649 455.54 297.649 443.549C297.649 441.084 298.002 438.615 298.355 435.792L299.766 427.687L300.824 420.984L310.345 363.153H331.503L329.034 375.849H342.435L339.26 397.008H325.859L320.218 431.563C319.866 433.331 319.866 434.385 319.866 435.091C319.866 439.677 321.982 441.437 327.27 441.437C329.739 441.437 331.852 441.088 333.969 440.731L331.15 459.42ZM399.564 458.715C391.807 460.831 384.756 461.885 376.995 461.885C353.014 461.885 339.26 449.19 339.26 424.159C339.26 394.887 355.484 373.728 378.049 373.728C396.032 373.728 407.67 385.719 407.67 404.404C407.67 410.758 406.964 416.751 405.205 425.213H361.124C360.771 426.624 360.771 427.33 360.771 428.035C360.771 437.909 367.47 442.844 380.166 442.844C388.275 442.844 395.327 441.084 403.088 437.56L399.564 458.715ZM386.516 408.288V404.055C386.516 397.003 382.635 393.123 375.937 393.123C368.881 393.123 363.946 398.41 361.83 408.284L386.516 408.288ZM161.884 460.474H140.02L152.716 380.431L124.153 460.474H108.992L107.228 380.784L93.8266 460.474H72.3154L89.5932 356.451H121.684L122.389 420.635L143.9 356.451H179.166L161.884 460.474ZM215.136 422.748C213.02 422.391 212.314 422.391 210.903 422.391C198.207 422.391 191.861 427.326 191.861 435.087C191.861 440.379 195.036 443.906 199.971 443.906C210.55 443.906 214.779 435.087 215.136 422.748ZM232.767 460.474H213.725L214.078 451.663C209.139 458.358 202.441 461.885 190.803 461.885C180.224 461.885 171.056 452.369 171.056 438.615C171.056 434.738 171.761 431.215 172.82 427.687C176.343 414.634 189.392 406.528 209.492 406.172C211.961 406.172 215.838 406.172 219.366 406.528C220.067 403.706 220.067 402.644 220.067 400.884C220.067 395.24 215.485 393.476 205.259 393.476C198.913 393.476 191.857 394.534 186.923 396.298L183.748 397.003L182.336 397.352L185.511 378.31C195.738 375.135 203.142 373.728 211.256 373.728C230.298 373.728 240.524 382.544 240.524 398.763C240.524 402.997 240.877 406.172 239.466 415.34L234.531 445.666L233.825 450.958L233.473 455.191L233.12 458.013L232.767 460.474ZM506.062 376.551C512.408 376.551 518.052 378.315 525.809 382.191L529.685 359.621C527.569 358.563 526.863 358.563 524.045 357.505L515.234 355.035C512.412 354.33 508.888 353.977 505.003 353.977C494.067 353.977 487.721 354.33 481.027 358.21C477.499 360.68 472.913 363.855 467.974 369.495L465.152 368.79L442.582 384.656L443.645 375.841H420.366L406.62 460.47H428.841L436.946 414.987C436.946 414.987 440.126 408.633 441.532 406.524C445.766 401.233 449.289 401.233 453.871 401.233H455.639C454.899 406.607 454.544 412.027 454.577 417.452C454.577 444.956 470.091 462.238 494.071 462.238C500.069 462.238 505.364 461.533 513.47 459.416L517.355 435.44C510.303 439.316 503.953 441.08 498.662 441.08C485.617 441.08 477.852 431.206 477.852 415.692C477.844 392.77 489.485 376.551 506.062 376.551ZM693.304 356.451L688.373 386.072C683.081 377.962 676.731 374.081 668.269 374.081C656.627 374.081 645.699 380.78 638.997 393.476V393.127L624.894 384.66L626.305 375.845H602.677L589.276 460.474H611.14L618.548 414.991C618.548 414.991 624.188 408.637 625.599 406.528C629.127 402.295 632.651 401.585 635.473 401.237C633.008 408.288 631.597 416.751 631.597 426.276C631.597 447.434 642.524 461.537 658.744 461.537C666.858 461.537 673.204 458.715 679.197 452.012L678.142 460.474H698.952L715.877 356.451H693.304ZM666.156 440.379C658.748 440.379 654.872 434.738 654.872 423.802C654.872 407.226 661.923 395.24 672.145 395.24C679.902 395.24 683.787 401.237 683.787 411.816C683.787 428.741 676.735 440.379 666.156 440.379ZM564.249 422.748C562.133 422.391 561.427 422.391 560.016 422.391C547.312 422.391 540.966 427.326 540.966 435.087C540.966 440.379 544.145 443.906 549.08 443.906C559.659 443.906 563.892 435.087 564.249 422.748ZM581.88 460.474H562.481L563.187 451.663C558.252 458.358 551.545 461.885 539.916 461.885C528.98 461.885 519.463 452.717 519.463 438.615C519.463 418.519 534.62 406.176 558.601 406.176C561.074 406.176 564.947 406.176 568.126 406.533C568.831 403.71 569.188 402.648 569.188 400.888C569.188 395.244 564.602 393.48 554.023 393.48C548.026 393.48 540.621 394.538 535.687 396.302L532.865 397.008L531.453 397.356L534.624 378.315C544.855 375.14 552.263 373.733 560.369 373.733C579.41 373.733 589.284 382.548 589.284 398.767C589.284 403.001 589.99 406.176 588.23 415.344L583.644 445.67L582.938 450.962L582.233 455.195L581.884 458.017V460.474H581.88ZM278.96 393.828C283.193 393.828 289.186 394.181 295.536 395.24L298.711 375.492C292.361 374.787 283.899 373.728 278.96 373.728C254.278 373.728 246.168 387.13 246.168 402.644C246.168 412.874 250.75 420.274 262.741 425.915C271.556 430.148 272.967 430.849 272.967 434.734C272.967 440.017 268.385 443.197 259.918 443.197C253.22 443.197 246.87 442.134 239.818 439.669L237.349 459.059L237.698 459.416L241.931 460.122C243.342 460.47 245.106 460.827 247.575 461.176C252.863 461.533 257.449 461.881 260.271 461.881C284.957 461.881 295.184 452.365 295.184 433.672C295.184 422.038 289.539 414.987 278.607 410.052C269.086 405.815 268.028 405.117 268.028 401.233C268.028 397.356 272.261 393.828 278.96 393.828Z" fill="#1B3771"/>
<path fillRule="evenodd" clipRule="evenodd" d="M535.682 352.923L531.798 375.492C524.041 371.612 518.396 369.852 512.051 369.852C495.474 369.852 483.841 386.071 483.841 408.994C483.841 424.864 491.598 434.381 504.65 434.381C509.934 434.381 516.284 432.621 523.335 429.098L519.459 452.717C511.345 454.834 506.057 455.896 500.06 455.896C476.084 455.896 461.271 438.615 461.271 410.762C461.271 373.732 481.724 347.635 510.992 347.635C514.869 347.635 518.392 347.988 521.214 348.694L530.034 350.81C532.86 351.869 533.566 352.221 535.682 352.923ZM464.446 368.441H462.33C454.93 368.441 450.696 371.969 443.993 382.191L446.11 369.142H426.006L412.26 453.776H434.481C442.587 401.938 444.703 393.123 455.282 393.123H456.693C458.81 382.896 461.628 375.488 465.156 368.789L464.446 368.441ZM336.795 452.717C330.802 454.834 325.863 455.54 320.928 455.54C309.643 455.54 303.293 449.194 303.293 436.855C303.293 434.738 303.646 431.92 303.999 429.446L305.41 420.984L306.468 414.289L315.989 356.451H337.853L335.384 369.146H346.668L343.846 389.952H332.561L326.568 425.217C326.216 426.628 326.216 427.691 326.216 428.745C326.216 432.978 328.332 434.742 333.62 434.742C336.089 434.742 338.202 434.742 339.613 434.037L336.795 452.717ZM251.809 395.945C251.809 406.528 256.743 413.928 268.381 419.573C277.549 423.806 278.96 425.213 278.96 428.741C278.96 434.033 275.079 436.498 266.264 436.498C259.565 436.498 253.568 435.444 246.517 433.327L243.342 452.717L244.4 453.074L248.281 453.78C249.688 454.128 251.456 454.485 254.274 454.485C259.209 455.191 263.442 455.191 266.264 455.191C289.535 455.191 300.471 446.371 300.471 426.981C300.471 415.339 295.889 408.637 284.957 403.353C275.436 399.12 274.378 398.066 274.378 394.185C274.378 389.603 278.259 387.487 285.31 387.487C289.543 387.487 295.536 387.839 301.181 388.545L304.352 369.151C298.711 368.092 289.896 367.387 284.957 367.387C260.271 367.382 251.456 380.431 251.809 395.945ZM704.597 453.78H683.787L684.849 445.666C678.852 452.012 672.502 454.834 664.388 454.834C648.169 454.834 637.589 441.088 637.589 419.93C637.589 391.716 654.166 367.735 673.556 367.735C682.376 367.735 688.722 371.616 694.723 379.373L699.658 349.752H721.522L704.597 453.78ZM672.149 434.033C682.38 434.033 689.431 422.042 689.431 405.466C689.431 394.534 685.547 388.889 677.79 388.889C667.916 388.889 660.516 400.527 660.516 417.103C660.516 428.392 664.392 434.033 672.149 434.033ZM404.499 452.012C396.738 454.485 389.686 455.54 381.577 455.54C356.891 455.54 344.195 442.495 344.195 417.456C344.195 388.541 360.418 367.03 382.635 367.03C400.971 367.03 412.605 379.02 412.605 397.709C412.605 404.059 411.899 410.056 409.782 418.867H366.063C365.71 419.93 365.71 420.635 365.71 421.341C365.71 431.214 372.413 436.149 385.105 436.149C393.214 436.149 400.266 434.738 408.027 430.858L404.499 452.012ZM392.156 401.585V397.356C392.156 390.305 388.275 386.424 381.577 386.424C374.525 386.424 369.586 391.716 367.47 401.585H392.156ZM167.528 453.78H145.664L158.36 373.728L129.797 453.78H114.632L112.868 374.434L99.4709 453.78H79.0181L96.2959 349.752H128.033L129.092 414.285L150.246 349.752H184.806L167.528 453.78ZM222.188 416.045C220.071 416.045 219.013 415.696 217.249 415.696C204.906 415.696 198.56 420.278 198.56 428.741C198.56 434.033 201.382 437.203 206.317 437.203C215.485 437.203 221.835 428.741 222.188 416.045ZM238.407 453.78H220.067L220.42 444.96C214.775 452.012 207.371 455.191 197.145 455.191C185.154 455.191 177.045 446.023 177.045 432.269C177.045 411.467 191.147 399.477 215.834 399.477C218.303 399.477 221.478 399.83 225.002 400.178C225.707 397.36 225.707 396.302 225.707 394.891C225.707 389.251 221.827 387.134 211.6 387.134C205.254 387.134 198.199 387.839 193.264 389.251L190.089 390.309L187.972 390.662L191.147 371.62C202.079 368.445 209.484 367.387 217.597 367.387C236.639 367.387 246.866 375.849 246.866 392.069C246.866 396.302 246.513 399.477 245.102 408.998L240.163 438.976L239.457 444.259L239.104 448.492L238.752 451.671L238.407 453.78ZM571.301 416.045C568.827 416.045 567.773 415.696 566.366 415.696C553.67 415.696 547.316 420.278 547.316 428.741C547.316 434.033 550.495 437.203 555.43 437.203C564.249 437.203 570.944 428.741 571.301 416.045ZM587.52 453.78H569.184L569.533 444.96C563.892 452.012 556.488 455.191 546.262 455.191C534.271 455.191 526.157 446.023 526.157 432.269C526.157 411.467 540.26 399.477 564.946 399.477C567.42 399.477 570.595 399.83 573.766 400.178C574.471 397.36 574.828 396.302 574.828 394.891C574.828 389.251 570.944 387.134 560.725 387.134C554.371 387.134 546.971 387.839 542.032 389.251L539.21 390.309L537.094 390.662L540.264 371.62C551.201 368.445 558.601 367.387 566.714 367.387C585.756 367.387 595.63 375.849 595.63 392.069C595.63 396.302 595.63 399.477 593.87 408.998L589.284 438.976L588.578 444.259L587.873 448.492L587.524 451.671L587.52 453.78ZM646.762 368.441H644.645C637.245 368.441 633.012 371.969 626.309 382.191L628.426 369.142H608.321L594.92 453.776H616.784C624.898 401.938 627.015 393.123 637.594 393.123H639.005C641.121 382.896 643.94 375.488 647.467 368.789L646.762 368.441Z" fill="white"/>
</svg>
