<svg width="801" height="800" viewBox="0 0 801 800" fill="none" xmlns="http://www.w3.org/2000/svg">
<path fillRule="evenodd" clipRule="evenodd" d="M35.6274 455.813H765.01L765.039 344.074H35.6565L35.6274 455.813Z" fill="#2858A1"/>
<path fillRule="evenodd" clipRule="evenodd" d="M269.436 396.862L270.827 379.476C271.038 376.907 270.723 370.084 264.497 370.084H236.628L218.346 419.954H240.139L253.379 383.884L250.59 419.954H269.959L293.716 384.511L280.754 419.954H302.689L320.967 370.084H287.005L269.436 396.862ZM392.336 370.545C377.776 373.537 358.033 384.286 358.249 403.901C358.369 415.223 371.974 421.49 387.579 421.063C396.324 420.822 404.654 419.211 405.72 419.033L411.506 403.918C403.836 405.138 396.486 406.989 390.709 404.669C380.3 400.485 386.708 389.624 394.066 386.241C398.116 384.336 402.548 383.382 407.024 383.452C409.223 383.498 414.594 383.589 416.681 388.358L423.953 370.835C411.431 367.727 398.86 369.204 392.336 370.545ZM605.314 419.954H629.373L647.639 370.084H623.575L605.314 419.954ZM316.538 419.954H340.598L358.863 370.084H334.829L316.538 419.954ZM463.717 388.047H451.623L458.201 370.084H435.267L417.043 419.959H439.894L446.132 403.058H458.247L452.017 419.959H474.919L493.226 370.084H470.345L463.717 388.047ZM592.693 370.084H569.314L551.023 419.959H597.997L604.069 403.39H580.507L592.693 370.084ZM694.388 404.308C694.558 400.859 695.243 387.25 695.662 379.406C695.841 376.181 695.143 373.716 693.595 372.076C692.447 370.885 690.89 370.173 689.237 370.084H661.297L643.032 419.959H663.323L676.272 384.639L674.744 419.959H708.773L727.043 370.084H706.93L694.388 404.308ZM488.515 419.959H539.224L544.142 406.495H516.148L518.203 400.958H544.321L548.807 388.682H522.689L524.689 383.145H552.107L556.933 370.088H506.789L488.515 419.959Z" fill="white"/>
<path fillRule="evenodd" clipRule="evenodd" d="M206.911 455.896C209.082 448.314 204.807 441.972 198.905 439.407C199.163 435.24 197.523 431.086 194.083 427.994C195.66 424.64 197.39 414.746 190.156 408.549C193.024 396.294 180.714 389.404 174.053 388.781C170.833 386.495 166.18 384.976 160.531 384.374C164.64 378.173 163.59 369.723 158.581 365.183C158.863 358.418 154.281 352.064 147.396 349.669C145.121 344.016 132.579 344.925 131.122 350.154C123.888 352.765 119.535 360.933 120.286 368.121C115.841 372.873 116.04 381.112 120.141 386.362C116.297 386.271 110.918 387.308 107.096 388.852H107.092L106.918 388.802C103.818 387.277 100.338 386.695 96.9111 387.13C95.4649 386.299 93.9237 385.645 92.3209 385.183C91.0061 383.216 89.253 381.581 87.1994 380.406C86.3818 376.999 83.4558 374.243 80.8203 372.923C81.0818 370.371 80.0857 367.187 79.2432 365.714C77.7159 363.037 78.0894 359.049 78.5418 358.48C80.2808 356.293 78.7742 354.288 77.9898 353.52C74.0055 349.594 70.0668 351.665 68.913 353.483C65.1155 346.697 60.7701 344.888 58.1803 345.78C54.8061 343.12 49.4065 344.763 49.4937 348.017C47.2774 349.573 45.7584 350.312 49.2239 356.658C48.535 369.902 49.9917 373.844 58.67 380.966C55.9723 383.56 54.528 389.454 57.1427 393.708C56.4538 400.062 59.8197 406.155 64.0489 409.388C65.2483 418.523 74.0595 423.922 79.845 425.13C83.7256 430.803 89.4198 433.634 94.8982 434.182C95.2178 436.726 96.1848 439.191 97.7744 441.536C96.355 446.716 96.4837 451.534 98.1479 455.888H206.911V455.896Z" fill="black"/>
<path fillRule="evenodd" clipRule="evenodd" d="M185.409 435.73C184.761 440.013 182.213 443.711 180.37 445.757C180.723 447.281 181.001 451.281 181.001 451.543C191.003 450.68 200.097 439.557 191.261 431.053C190.011 432.825 187.181 435.045 185.409 435.73Z" fill="white"/>
<path fillRule="evenodd" clipRule="evenodd" d="M197.228 443.242C194.792 449.708 188.255 453.261 180.851 454.186C180.739 454.749 180.708 455.325 180.76 455.896H202.852C204.384 451.302 203.105 445.877 197.228 443.242ZM111.964 427.877C108.287 431.679 103.78 433.015 99.646 433.497C100.941 444.794 120.825 455.718 143.656 455.494C181.15 455.12 185.558 432.704 180.731 424.076C169.239 436.116 130.877 442.843 111.964 427.877Z" fill="white"/>
<path fillRule="evenodd" clipRule="evenodd" d="M118.302 408.512C118.978 415.709 115.845 422.702 114.359 425.163C117.737 427.845 124.98 432.97 141.249 433.228C165.657 433.626 191.617 421.656 177.05 401.722C170.521 409.741 139.676 416.925 118.302 408.512ZM86.8756 385.262C85.4022 395.787 70.9383 403.706 61.6167 396.862C64.854 411.463 79.7246 411.754 85.9376 405.752C91.6567 400.22 92.1465 393.173 89.3367 388.275C88.7085 387.128 87.8742 386.107 86.8756 385.262Z" fill="white"/>
<path fillRule="evenodd" clipRule="evenodd" d="M93.649 390.172C96.6248 404.885 81.9161 416.406 68.9629 410.749C72.0756 419.677 87.4277 427.363 97.8326 415.667C106.399 406.039 97.7288 390.981 93.649 390.172Z" fill="white"/>
<path fillRule="evenodd" clipRule="evenodd" d="M101.091 391.724C111.645 411.252 99.3847 424.69 85.809 424.881C93.4705 432.933 113.479 432.373 114.753 413.696C115.608 401.17 110.105 394.111 101.091 391.724ZM177.191 449.227C173.526 452.087 169.023 454.315 164.014 455.892H176.602C177.378 453.51 177.506 451.203 177.191 449.227ZM122.726 455.897C114.662 453.552 107.328 449.8 101.821 444.649C101.111 448.966 101.696 452.697 103.22 455.897H122.726ZM79.0274 376.754C77.6412 378.074 77.8155 381.639 77.8861 382.403C78.0562 384.196 75.3543 385.163 74.9559 384.66C74.0179 383.478 76.2716 382.274 75.3294 379.589C74.4288 377.02 77.1929 375.721 77.1929 371.894C77.1929 369.674 75.3087 365.926 75.0472 365.224C74.1881 362.925 74.2462 358.455 75.483 356.268C74.5492 355.401 73.0592 354.131 71.6523 356.305C69.7639 359.223 70.4404 362.859 71.7809 365.681C71.5983 365.768 69.8801 365.71 68.9089 368.806C68.6566 369.155 68.3964 369.498 68.1286 369.835L67.4936 369.856C67.0412 367.632 67.8008 366.245 68.3777 364.93C68.2075 364.419 67.5393 362.203 67.4023 358.733C65.6135 354.197 62.2352 349.694 59.9068 349.432C61.8948 352.321 65.5056 359.211 65.8875 360.144C66.676 362.079 64.9702 362.419 64.9702 362.419C62.314 356.729 59.305 351.761 57.0307 349.47C55.4909 347.922 53.7851 347.424 53.2207 348.416C53.9096 348.644 54.7563 349.47 55.4079 350.275C57.84 353.284 62.8121 363.539 62.8121 363.539C62.8121 363.539 62.4219 364.05 61.9488 363.971C61.1478 363.847 60.1227 362.357 58.9149 359.572C57.6117 357.023 55.1755 353.396 53.8515 351.877C52.7558 350.619 51.8096 351.043 51.1206 351.591C51.8262 352.856 52.5898 354.326 52.9343 355.492C54.748 355.002 57.0639 356.986 57.3295 358.767C57.5951 360.543 58.2135 365.399 59.3299 367.067C58.9149 367.291 57.8607 368.072 57.8607 368.072C56.6405 366.557 55.769 361.049 55.5781 359.07C55.5324 358.58 54.9348 357.567 53.7561 357.252C53.1667 357.094 53.0588 357.472 53.0381 357.891C52.5317 368.96 53.1999 371.757 62.9864 379.435C63.6255 379.937 64.7254 381.344 65.4475 382.814C66.1697 384.283 67.4065 386.051 69.7556 385.752L70.6852 386.715C68.5686 388.425 65.4392 387.371 64.6963 386.408C64.107 385.636 62.4966 383.245 62.4966 383.245C55.6735 390.496 64.7918 400.324 75.5826 395.422C86.112 390.637 85.3732 379.352 79.0274 376.754ZM178.174 394.526C178.859 395.846 178.801 397.821 178.473 398.161C183.578 401.619 184.504 408.633 184.661 411.542C189.671 401.652 182.155 395.754 178.174 394.526ZM187.998 412.148C187.612 413.372 186.38 416.477 182.885 420.615C184.956 423.117 186.127 426.662 186.23 430.671C195.784 424.935 189.542 413.132 187.998 412.148ZM156.713 388.288C155.244 389.898 153.219 390.425 152.729 390.463C151.986 390.521 151.513 389.952 152.326 389.529C153.854 388.732 155.352 387.412 153.712 384.573C154.792 384.399 158.502 383.046 158.809 376.621C159.054 371.521 156.34 368.366 154.074 366.901C154.074 366.901 153.19 365.942 154.302 365.793C154.866 359.622 150.708 354.388 142.967 352.794L143.021 352.143C143.32 352.114 143.49 351.794 143.436 351.487C143.167 349.96 137.568 349.329 135.347 351.396C134.874 351.836 136.447 352.296 136.879 352.313C137.447 352.334 137.842 353.093 137.045 353.081C132.612 353.002 124.37 356.928 124.693 367.673C124.963 367.665 127.271 366.98 128.192 367.242C128.815 367.42 128.603 368.184 128.084 368.221C120.771 368.785 117.737 381.664 127.852 386.233C127.852 386.233 128.371 386.524 127.719 386.939C126.511 387.707 125.598 389.255 127.416 390.297C128.068 390.67 128.578 391.152 128.275 391.757C127.972 392.359 126.947 392.326 125.951 391.828C120.929 389.309 115.036 390.645 110.474 392.123C113.853 395.036 116.331 399.768 117.538 404.657C124.469 407.803 132.147 409.002 139.726 409.023C160.054 409.073 174.153 403.175 175.249 397.074C176.149 391.982 166.844 388.861 156.713 388.288Z" fill="white"/>
<path fillRule="evenodd" clipRule="evenodd" d="M63.0196 368.565C61.8119 368.565 60.5128 368.91 60.546 369.184C60.6041 369.636 62.1273 369.379 63.5633 370.047C64.4556 370.682 65.9705 371.695 66.178 371.475C66.481 371.163 65.8501 369.794 65.5721 369.196C64.7088 369.271 63.8704 368.615 63.0196 368.565ZM149.62 376.825C149.284 376.921 148.977 377.101 148.728 377.347C141.668 376.069 139.46 377.991 135.675 377.895C135.725 377.414 135.563 376.754 134.941 376.82C134.716 376.845 134.422 377.36 134.314 377.526C133.326 378.999 132.94 379.817 133.322 380.161C133.733 380.527 134.235 379.941 134.758 379.34C135.381 379.265 136.817 379.311 138.186 380.236C139.365 381.029 141.784 384.096 144.316 383.017C146.076 382.195 147.761 379.157 149.052 379.153C149.678 379.149 150.45 379.252 150.583 379.178C150.874 379.012 150.289 376.667 149.62 376.825ZM144.158 381.606C142.013 382.714 140.71 379.9 138.614 378.979C140.548 378.476 144.432 378.095 147.412 378.638C146.711 379.19 144.764 381.294 144.158 381.606ZM149.728 359.808C149.388 359.502 148.988 359.27 148.554 359.127C148.12 358.983 147.66 358.931 147.205 358.974C144.71 359.256 142.984 362.514 143.27 366.391C143.445 368.777 144.366 370.906 145.731 372.077C146.508 372.741 147.379 373.052 148.251 372.977C150.753 372.757 152.488 369.491 152.206 365.527C152.032 363.095 151.106 360.958 149.728 359.808Z" fill="black"/>
<path fillRule="evenodd" clipRule="evenodd" d="M148.927 360.929C148.717 360.733 148.469 360.583 148.198 360.489C147.927 360.394 147.64 360.358 147.354 360.381C145.628 360.576 144.358 363.282 144.578 366.287C144.598 366.561 144.631 366.83 144.673 367.096C144.685 367.137 144.706 367.162 144.723 367.162C144.748 367.162 144.773 367.121 144.781 367.059C144.964 365.008 146.03 363.41 147.379 363.332C148.919 363.24 150.234 365.183 150.326 367.673C150.355 368.503 150.243 369.283 150.027 369.96C150.023 369.993 150.027 370.018 150.043 370.022C150.052 370.026 150.064 370.022 150.077 370.005C150.687 368.897 151.015 367.316 150.894 365.623C150.753 363.622 149.998 361.821 148.927 360.929Z" fill="white"/>
<path fillRule="evenodd" clipRule="evenodd" d="M138.776 360.194C138.416 359.854 137.989 359.593 137.522 359.428C137.055 359.262 136.559 359.197 136.065 359.235C133.426 359.476 131.463 362.759 131.604 366.706C131.691 369.092 132.55 371.25 133.903 372.479C134.259 372.827 134.683 373.099 135.149 373.276C135.614 373.454 136.111 373.535 136.609 373.512C139.257 373.338 141.224 370.039 141.091 366.009C141.013 363.581 140.145 361.406 138.776 360.194Z" fill="black"/>
<path fillRule="evenodd" clipRule="evenodd" d="M136.182 360.646C134.31 360.821 132.816 363.568 132.928 366.648C132.978 368.046 133.372 369.196 133.828 370.051C133.866 370.101 133.903 370.126 133.924 370.113C133.94 370.109 133.945 370.084 133.945 370.047C133.784 369.504 133.689 368.944 133.662 368.378C133.554 365.934 134.704 363.908 136.24 363.85C137.771 363.792 139.103 365.747 139.216 368.221C139.232 368.644 139.216 369.055 139.162 369.441C139.162 369.466 139.17 369.482 139.178 369.487C139.195 369.491 139.211 369.474 139.224 369.445C139.602 368.466 139.805 367.283 139.763 366.05C139.697 364.058 138.991 362.232 137.925 361.29C137.695 361.067 137.421 360.896 137.121 360.785C136.821 360.674 136.501 360.627 136.182 360.646Z" fill="white"/>
<path fillRule="evenodd" clipRule="evenodd" d="M119.198 455.925L119.178 455.896H98.1521C96.4878 451.543 96.355 446.724 97.7786 441.545C96.189 439.2 95.222 436.734 94.9024 434.19C89.4198 433.642 83.7256 430.816 79.8492 425.138C74.0636 423.931 65.2483 418.531 64.053 409.396C59.8238 406.163 56.4579 400.07 57.1469 393.716C54.5363 389.462 55.9765 383.569 58.6742 380.975C49.9917 373.853 48.5391 369.91 49.2281 356.666C45.7625 350.32 47.2857 349.586 49.4978 348.029C49.4522 346.27 51.0085 344.983 52.98 344.589L52.6936 344.107H35.6565L35.6274 455.925H119.198ZM201.537 440.881H621.703L624.305 433.771H198.063C198.739 435.581 199.022 437.49 198.905 439.407C199.827 439.81 200.711 440.304 201.537 440.881Z" fill="#FFF22D"/>
</svg>
