<svg width="801" height="800" viewBox="0 0 801 800" fill="none" xmlns="http://www.w3.org/2000/svg">
<g clipPath="url(#clip0_1_194)">
<path d="M800.222 391.87V377.801H782.751V355.929L782.162 356.11L765.752 361.131L765.429 361.229V377.802H739.528V368.569C739.528 364.27 740.489 360.981 742.383 358.787C744.265 356.619 746.955 355.517 750.388 355.517C752.855 355.517 755.409 356.098 757.98 357.244L758.625 357.532V342.715L758.321 342.604C755.923 341.742 752.661 341.308 748.618 341.308C743.522 341.308 738.892 342.417 734.853 344.614C730.813 346.815 727.635 349.957 725.408 353.952C723.189 357.942 722.063 362.551 722.063 367.651V377.801H709.898V391.87H722.063V451.141H739.528V391.87H765.429V429.536C765.429 445.048 772.746 452.91 787.176 452.91C789.548 452.91 792.043 452.632 794.592 452.088C797.186 451.529 798.953 450.971 799.993 450.375L800.223 450.239V436.04L799.512 436.509C798.564 437.141 797.384 437.657 796 438.041C794.61 438.432 793.45 438.627 792.55 438.627C789.17 438.627 786.669 437.717 785.117 435.919C783.548 434.105 782.751 430.933 782.751 426.495V391.87H800.222ZM670.897 438.63C664.558 438.63 659.561 436.528 656.039 432.388C652.495 428.226 650.7 422.294 650.7 414.756C650.7 406.979 652.495 400.893 656.04 396.658C659.565 392.451 664.514 390.316 670.755 390.316C676.81 390.316 681.631 392.355 685.084 396.38C688.554 400.426 690.316 406.464 690.316 414.331C690.316 422.295 688.659 428.413 685.394 432.505C682.15 436.567 677.273 438.63 670.897 438.63ZM671.673 376.034C659.58 376.034 649.975 379.578 643.126 386.567C636.281 393.556 632.811 403.229 632.811 415.319C632.811 426.802 636.199 436.038 642.88 442.767C649.562 449.498 658.655 452.908 669.905 452.908C681.628 452.908 691.042 449.315 697.888 442.229C704.733 435.151 708.201 425.57 708.201 413.763C708.201 402.1 704.947 392.795 698.526 386.111C692.102 379.424 683.066 376.034 671.673 376.034ZM604.654 376.034C596.427 376.034 589.622 378.138 584.424 382.287C579.194 386.461 576.541 391.934 576.541 398.558C576.541 402.001 577.114 405.059 578.241 407.654C579.375 410.256 581.129 412.548 583.46 414.471C585.773 416.378 589.344 418.376 594.075 420.409C598.053 422.046 601.019 423.431 602.904 424.522C604.746 425.591 606.053 426.666 606.791 427.713C607.508 428.738 607.872 430.14 607.872 431.871C607.872 436.798 604.182 439.195 596.59 439.195C593.773 439.195 590.561 438.607 587.042 437.448C583.548 436.306 580.251 434.634 577.265 432.491L576.54 431.971V448.785L576.806 448.909C579.277 450.049 582.393 451.011 586.065 451.768C589.73 452.526 593.06 452.911 595.953 452.911C604.88 452.911 612.068 450.797 617.314 446.623C622.592 442.421 625.267 436.818 625.267 429.965C625.267 425.022 623.827 420.782 620.989 417.363C618.169 413.972 613.276 410.859 606.451 408.107C601.014 405.925 597.531 404.113 596.094 402.722C594.708 401.379 594.005 399.479 594.005 397.073C594.005 394.94 594.873 393.231 596.655 391.848C598.452 390.457 600.952 389.75 604.088 389.75C606.998 389.75 609.975 390.209 612.936 391.11C615.894 392.011 618.493 393.217 620.662 394.693L621.376 395.181V379.231L621.102 379.113C619.1 378.255 616.461 377.521 613.256 376.925C610.065 376.333 607.171 376.034 604.654 376.034ZM531.013 438.63C524.676 438.63 519.676 436.528 516.155 432.388C512.611 428.226 510.818 422.295 510.818 414.756C510.818 406.979 512.613 400.893 516.159 396.658C519.68 392.451 524.629 390.316 530.873 390.316C536.926 390.316 541.747 392.355 545.201 396.38C548.671 400.426 550.432 406.464 550.432 414.331C550.432 422.295 548.775 428.413 545.509 432.505C542.266 436.567 537.391 438.63 531.013 438.63ZM531.792 376.034C519.695 376.034 510.089 379.578 503.244 386.567C496.399 393.556 492.927 403.229 492.927 415.319C492.927 426.806 496.317 436.038 502.998 442.767C509.68 449.498 518.772 452.908 530.022 452.908C541.744 452.908 551.16 449.315 558.006 442.229C564.85 435.151 568.319 425.57 568.319 413.763C568.319 402.1 565.064 392.795 558.641 386.111C552.216 379.424 543.182 376.034 531.792 376.034ZM466.417 390.502V377.801H449.165V451.14H466.417V413.624C466.417 407.245 467.863 402.004 470.717 398.046C473.535 394.135 477.29 392.153 481.874 392.153C483.428 392.153 485.173 392.409 487.062 392.916C488.931 393.419 490.286 393.967 491.084 394.542L491.81 395.068V377.676L491.53 377.556C489.924 376.873 487.651 376.529 484.775 376.529C480.44 376.529 476.56 377.922 473.237 380.664C470.32 383.075 468.212 386.38 466.6 390.502H466.417ZM418.271 376.034C410.357 376.034 403.297 377.731 397.293 381.077C391.276 384.43 386.622 389.217 383.456 395.305C380.304 401.377 378.704 408.471 378.704 416.381C378.704 423.311 380.256 429.67 383.323 435.274C386.391 440.888 390.734 445.28 396.232 448.326C401.722 451.368 408.067 452.91 415.092 452.91C423.291 452.91 430.29 451.271 435.903 448.039L436.129 447.909V432.104L435.404 432.633C432.862 434.485 430.021 435.963 426.964 437.028C423.915 438.092 421.135 438.63 418.698 438.63C411.928 438.63 406.494 436.512 402.55 432.336C398.597 428.154 396.592 422.283 396.592 414.895C396.592 407.46 398.683 401.438 402.802 396.994C406.909 392.564 412.353 390.316 418.982 390.316C424.653 390.316 430.178 392.236 435.406 396.028L436.129 396.554V379.9L435.896 379.769C433.928 378.668 431.245 377.758 427.915 377.069C424.598 376.381 421.354 376.034 418.271 376.034ZM366.823 377.802H349.571V451.14H366.823V377.802ZM358.373 346.559C355.534 346.559 353.057 347.526 351.023 349.441C348.98 351.362 347.944 353.78 347.944 356.634C347.944 359.444 348.967 361.818 350.991 363.688C353.002 365.552 355.486 366.497 358.374 366.497C361.261 366.497 363.755 365.552 365.789 363.691C367.837 361.818 368.876 359.444 368.876 356.634C368.876 353.88 367.865 351.487 365.874 349.519C363.884 347.554 361.36 346.559 358.373 346.559ZM315.33 372.391V451.14H332.936V348.804H308.568L277.596 424.816L247.539 348.804H222.18V451.139H238.725V372.383H239.293L271.032 451.14H283.518L314.762 372.391H315.33Z" fill="#706D6E"/>
<path d="M81.3774 395.763H0.22168V314.607H81.3774V395.763Z" fill="#F1511B"/>
<path d="M170.982 395.763H89.8281V314.607H170.982V395.763Z" fill="#80CC28"/>
<path d="M81.3751 485.4H0.22168V404.245H81.3751V485.4Z" fill="#00ADEF"/>
<path d="M170.982 485.4H89.8281V404.245H170.982V485.4Z" fill="#FBBC09"/>
</g>
<defs>
<clipPath id="clip0_1_194">
<rect width="800" height="800" fill="white" transform="translate(0.22168)"/>
</clipPath>
</defs>
</svg>
