<svg width="801" height="800" viewBox="0 0 801 800" fill="none" xmlns="http://www.w3.org/2000/svg">
<g clip-path="url(#clip0_1_200)">
<path fill-rule="evenodd" clip-rule="evenodd" d="M744.974 380.411C744.255 380.555 743.533 382.141 743.533 383.005C743.39 388.774 743.246 404.058 743.246 414.439C743.246 414.728 743.677 415.305 744.11 415.305C746.273 415.449 751.463 415.592 755.933 415.592C762.133 415.592 765.738 414.728 767.758 413.864C772.948 411.267 775.399 405.644 775.399 399.442C775.399 385.458 765.594 380.122 751.03 380.122C750.021 379.978 747.14 379.978 744.974 380.411ZM782.177 444.864C782.177 430.589 771.651 422.658 752.618 422.658C751.752 422.658 745.696 422.514 744.254 422.802C743.821 422.947 743.246 423.236 743.246 423.669C743.246 433.905 743.101 450.2 743.533 456.544C743.821 459.283 745.841 463.177 748.293 464.33C750.887 465.772 756.799 466.06 760.837 466.06C772.227 466.06 782.177 459.716 782.177 444.864ZM715.562 372.482C717.002 372.482 721.327 372.913 732.43 372.913C742.957 372.913 751.319 372.625 761.557 372.625C774.101 372.625 791.404 377.094 791.404 395.839C791.404 405.067 784.915 412.422 776.408 416.027C775.977 416.171 775.977 416.458 776.408 416.602C788.519 419.632 799.191 427.128 799.191 441.258C799.191 455.102 790.54 463.897 777.994 469.377C770.352 472.692 760.837 473.846 751.176 473.846C743.821 473.846 724.068 472.982 713.11 473.271C711.957 472.836 714.119 467.646 715.127 466.782C717.724 466.636 719.741 466.492 722.482 465.627C726.376 464.619 726.807 463.464 727.383 457.553C727.673 452.507 727.673 434.625 727.673 421.938C727.673 404.491 727.818 392.667 727.673 386.9C727.529 382.432 725.943 380.988 722.771 380.122C720.318 379.691 716.282 379.113 712.965 378.682C712.243 377.96 714.694 373.057 715.562 372.482ZM632.362 462.167C635.824 464.905 642.601 466.058 648.657 466.058C656.443 466.058 664.229 464.619 671.727 457.839C679.369 450.921 684.704 440.25 684.704 423.236C684.704 406.941 678.504 393.675 665.815 385.891C658.605 381.419 649.377 379.547 638.707 379.547C635.535 379.547 632.507 379.691 630.633 380.555C630.199 380.844 629.191 382.141 629.191 382.861C628.902 385.746 628.902 407.95 628.902 420.928C628.902 434.338 628.902 453.083 629.191 455.246C629.191 457.41 630.199 460.725 632.363 462.167H632.362ZM599.63 372.48C602.371 372.48 612.896 372.913 617.943 372.913C627.029 372.913 633.516 372.482 650.674 372.482C665.093 372.482 677.205 376.374 685.857 383.727C696.382 392.811 701.863 405.357 701.863 420.639C701.863 442.413 691.913 454.958 681.963 462.167C672.016 469.521 659.038 473.846 640.582 473.846C630.777 473.846 613.907 473.558 599.919 473.413H599.776C599.055 472.116 600.929 467.069 602.082 466.925C605.832 466.492 606.841 466.347 608.716 465.628C611.743 464.474 612.321 462.888 612.754 457.553C613.185 447.603 613.041 435.636 613.041 422.082C613.041 412.422 613.185 393.532 612.896 387.475C612.465 382.43 610.302 381.132 605.976 380.266C603.813 379.835 600.929 379.257 596.893 378.825C596.315 377.814 598.91 373.344 599.63 372.48Z" fill="#8E714E"/>
<path fill-rule="evenodd" clip-rule="evenodd" d="M425.162 467.789C421.557 467.357 418.962 466.782 415.79 465.339C415.357 465.05 414.635 463.61 414.635 463.032C414.348 457.985 414.348 443.566 414.348 433.907C414.348 426.119 413.051 419.342 409.734 414.585C405.84 409.103 400.218 405.933 393.007 405.933C386.663 405.933 378.156 410.258 371.09 416.314C370.946 416.458 369.793 417.469 369.937 415.882C369.937 414.296 370.226 411.124 370.37 408.96C370.515 406.941 369.36 405.933 369.36 405.933C364.746 408.239 351.77 411.267 347.01 411.699C343.551 412.422 342.685 415.738 346.291 416.891H346.435C350.326 418.044 352.923 419.342 354.94 420.641C356.382 421.794 356.238 423.38 356.238 424.678C356.382 435.491 356.382 452.074 355.951 461.158C355.807 464.763 354.798 466.06 352.201 466.636L352.49 466.492C350.471 466.925 348.885 467.357 346.434 467.646C345.568 468.511 345.568 473.125 346.434 474.135C348.02 474.135 356.382 473.702 363.306 473.702C372.821 473.702 377.724 474.135 380.174 474.135C381.184 472.982 381.473 468.655 380.896 467.646C378.156 467.502 376.137 467.214 374.263 466.636C371.668 466.058 370.946 464.763 370.801 461.735C370.515 454.091 370.515 437.942 370.515 426.985C370.515 423.957 371.379 422.514 372.243 421.649C375.56 418.766 380.896 416.747 385.654 416.747C390.268 416.747 393.295 418.189 395.602 420.064C398.774 422.658 399.784 426.408 400.216 429.147C400.937 435.347 400.649 447.603 400.649 458.274C400.649 464.041 400.216 465.483 398.056 466.203C397.045 466.636 394.449 467.214 391.421 467.5C390.412 468.511 390.701 472.982 391.421 473.991C395.602 473.991 400.506 473.558 407.715 473.558C416.654 473.558 422.423 473.991 424.73 473.991C425.449 473.125 425.738 468.944 425.162 467.789ZM465.102 412.711C457.462 412.711 452.702 418.622 452.702 427.849C452.702 437.222 456.884 448.036 468.707 448.036C470.726 448.036 474.476 447.171 476.204 445.152C478.945 442.558 480.82 437.366 480.82 431.886C480.82 419.919 474.907 412.711 465.102 412.711ZM464.093 476.441C461.21 476.441 459.19 477.307 457.893 478.028C451.837 481.919 449.098 485.669 449.098 490.141C449.098 494.321 450.684 497.636 454.145 500.521C458.326 504.125 464.093 505.857 471.446 505.857C486.154 505.857 492.643 497.925 492.643 490.141C492.643 484.66 489.902 481.055 484.281 479.038C480.243 477.307 472.89 476.441 464.093 476.441ZM465.102 513.932C456.307 513.932 449.962 512.057 444.484 507.875C439.148 503.838 436.841 497.782 436.841 493.6C436.841 492.447 437.131 489.274 439.726 486.391C441.31 484.66 444.773 481.344 452.991 475.721C453.279 475.577 453.423 475.433 453.423 475.142C453.423 474.855 453.134 474.566 452.846 474.424C446.07 471.828 444.051 467.646 443.473 465.339V465.05C443.331 464.185 443.041 463.321 444.34 462.455C445.349 461.735 446.791 460.869 448.376 459.861C450.827 458.417 453.423 456.832 455.009 455.533C455.298 455.246 455.298 454.958 455.298 454.669C455.298 454.38 455.009 454.091 454.72 453.949C444.629 450.632 439.582 443.133 439.582 431.886C439.582 424.533 442.898 417.9 448.809 413.719C452.846 410.547 462.94 406.653 469.573 406.653H470.006C476.782 406.797 480.531 408.239 485.865 410.114C488.749 411.124 491.49 411.555 495.24 411.555C500.862 411.555 503.313 409.825 505.331 407.808C505.476 408.096 505.765 408.817 505.909 410.691C506.052 412.566 505.476 415.305 504.034 417.324C502.88 418.91 500.285 420.064 497.69 420.064H496.968C494.373 419.775 493.218 419.486 493.218 419.486L492.643 419.775C492.499 420.064 492.643 420.352 492.787 420.785L492.932 421.074C493.22 422.371 493.796 426.263 493.796 427.274C493.796 439.097 489.038 444.286 483.991 448.18C479.088 451.785 473.466 454.091 467.121 454.669C466.977 454.669 466.402 454.669 465.102 454.813C464.382 454.813 463.373 454.958 463.227 454.958H463.084C461.931 455.246 459.048 456.688 459.048 459.138C459.048 461.3 460.345 463.897 466.545 464.33C467.841 464.474 469.138 464.474 470.582 464.619C478.801 465.194 489.038 465.916 493.796 467.502C500.429 469.952 504.61 475.864 504.61 482.93C504.61 493.602 496.97 503.55 484.281 509.749C478.081 512.489 471.879 513.932 465.102 513.932ZM547.29 413.432C544.263 413.432 541.523 414.15 539.504 415.592C533.882 419.053 530.998 425.975 530.998 436.067C530.998 454.958 540.513 468.224 554.068 468.224C558.105 468.224 561.277 467.069 564.016 464.763C568.198 461.3 570.362 454.38 570.362 444.719C570.362 425.975 560.988 413.43 547.291 413.43L547.29 413.432ZM549.887 475.144C525.374 475.144 516.579 457.121 516.579 440.25C516.579 428.427 521.337 419.342 530.852 412.853C537.63 408.672 545.706 406.366 552.915 406.366C571.659 406.366 584.78 419.775 584.78 439.097C584.78 452.217 579.59 462.599 569.64 468.944C564.882 472.116 556.663 475.144 549.885 475.144H549.887ZM292.94 413.43C289.912 413.43 287.173 414.15 285.152 415.592C279.531 419.053 276.646 425.975 276.646 436.067C276.646 454.958 286.162 468.224 299.716 468.224C303.754 468.224 306.926 467.069 309.666 464.763C313.846 461.3 316.01 454.38 316.01 444.719C316.01 425.975 306.782 413.43 292.94 413.43ZM295.535 475.144C271.023 475.144 262.227 457.121 262.227 440.25C262.227 428.427 266.985 419.342 276.501 412.853C283.279 408.672 291.354 406.366 298.563 406.366C317.309 406.366 330.429 419.775 330.429 439.097C330.429 452.217 325.238 462.599 315.288 468.944C310.674 472.116 302.456 475.144 295.535 475.144ZM130.726 473.702C130.437 473.271 130.148 471.972 130.293 470.386C130.293 469.232 130.582 468.511 130.726 468.224C133.754 467.789 135.34 467.357 137.07 466.925C139.954 466.203 141.107 464.619 141.251 461.014C141.685 452.363 141.685 435.924 141.54 424.533V424.244C141.54 422.947 141.54 421.36 139.954 420.207C137.646 418.766 134.907 417.469 131.302 416.457C130.006 416.027 129.14 415.305 129.284 414.441C129.284 413.575 130.149 412.566 132.024 412.277C136.782 411.844 149.181 408.817 154.084 406.653C154.373 406.941 154.806 407.808 154.806 408.961L154.662 410.546C154.516 412.133 154.373 414.008 154.373 415.882C154.373 416.458 154.951 416.891 155.526 416.891C155.815 416.891 156.104 416.747 156.391 416.602C165.62 409.392 173.982 406.797 178.307 406.797C185.374 406.797 190.854 410.114 195.035 417.035C195.323 417.469 195.612 417.613 196.045 417.613C196.332 417.613 196.763 417.469 196.909 417.18C205.416 410.691 213.924 406.797 219.546 406.797C232.956 406.797 240.887 416.747 240.887 433.617C240.887 438.375 240.887 444.575 240.743 450.2C240.743 455.246 240.599 459.86 240.599 463.177C240.599 463.896 241.607 466.203 243.193 466.636C245.212 467.646 247.952 468.078 251.557 468.655H251.701C251.99 469.664 251.413 473.413 250.837 474.135C249.971 474.135 248.673 474.135 247.232 473.991C243.582 473.8 239.928 473.704 236.273 473.702C227.334 473.702 222.72 473.846 218.248 474.135C217.962 472.982 217.816 469.521 218.248 468.655C220.845 468.224 222.141 467.789 223.729 467.358C226.613 466.492 227.334 465.194 227.479 461.446C227.479 458.707 228.054 435.347 227.188 429.724C226.324 423.957 221.998 417.18 212.481 417.18C208.876 417.18 203.254 418.622 197.774 422.802C197.487 423.091 197.196 423.811 197.196 424.244V424.389C197.774 427.416 197.774 430.878 197.774 436.213V445.585C197.774 452.074 197.629 458.13 197.774 462.742C197.774 465.916 199.649 466.636 201.235 467.214C202.101 467.357 202.676 467.502 203.398 467.646C204.695 467.935 205.993 468.224 208.012 468.655C208.301 469.233 208.301 471.107 207.868 472.692C207.723 473.558 207.434 473.989 207.29 474.135C202.388 473.991 197.341 473.846 189.988 473.846C187.826 473.846 184.076 473.991 180.904 473.991C178.307 473.991 175.857 474.135 174.416 474.135C174.271 473.846 173.982 472.838 173.982 471.25C173.982 469.953 174.271 468.944 174.56 468.655C175.281 468.511 175.857 468.367 176.579 468.367C178.307 468.078 179.751 467.789 181.191 467.502C183.645 466.782 184.509 465.483 184.652 462.311C185.085 455.102 185.518 434.483 184.509 429.291C182.779 420.928 178.021 416.747 170.377 416.747C165.909 416.747 160.284 418.91 155.671 422.372C154.949 422.947 154.373 424.388 154.373 425.686V434.194C154.373 444.575 154.373 457.553 154.516 463.177C154.662 464.905 155.237 466.925 158.554 467.646C159.276 467.789 160.429 468.078 161.871 468.224L164.465 468.655C164.756 469.521 164.61 472.982 164.034 474.135C162.591 474.135 160.862 473.991 158.841 473.991C155.815 473.846 151.921 473.702 147.596 473.702C142.549 473.702 138.945 473.846 136.06 473.991C134.041 473.702 132.456 473.702 130.726 473.702Z" fill="#442D22"/>
<path fill-rule="evenodd" clip-rule="evenodd" d="M54.8809 508.308L48.97 506.287C48.97 506.287 49.6918 476.153 38.8762 473.991C31.6684 465.627 40.0325 119.283 65.9856 472.836C65.9856 472.836 57.045 477.305 55.459 484.948C53.7278 492.447 54.8809 508.308 54.8809 508.308Z" fill="white"/>
<path fill-rule="evenodd" clip-rule="evenodd" d="M54.8809 508.308L48.97 506.287C48.97 506.287 49.6918 476.153 38.8762 473.991C31.6684 465.627 40.0325 119.283 65.9856 472.836C65.9856 472.836 57.045 477.305 55.459 484.948C53.7278 492.447 54.8809 508.308 54.8809 508.308Z" fill="#A6A385"/>
<path fill-rule="evenodd" clip-rule="evenodd" d="M58.0541 479.181C58.0541 479.181 109.82 445.152 97.7057 374.353C86.0275 322.88 58.4869 306.01 55.4588 299.521C52.1432 294.906 48.9697 286.833 48.9697 286.833L51.1338 430.011C51.1338 430.156 46.6635 473.846 58.0557 479.183" fill="white"/>
<path fill-rule="evenodd" clip-rule="evenodd" d="M58.0541 479.181C58.0541 479.181 109.82 445.152 97.7057 374.353C86.0275 322.88 58.4869 306.01 55.4588 299.521C52.1432 294.906 48.9697 286.833 48.9697 286.833L51.1338 430.011C51.1338 430.156 46.6635 473.846 58.0557 479.183" fill="#499D4A"/>
<path fill-rule="evenodd" clip-rule="evenodd" d="M45.9432 481.055C45.9432 481.055 -2.65052 447.891 0.233858 389.495C2.97292 331.099 37.2901 302.405 43.9229 297.214C48.2495 292.6 48.3932 290.869 48.6823 286.255C51.7104 292.744 51.1339 383.295 51.5651 393.964C52.862 435.058 49.2589 473.27 45.9432 481.055Z" fill="white"/>
<path fill-rule="evenodd" clip-rule="evenodd" d="M45.9432 481.055C45.9432 481.055 -2.65052 447.891 0.233858 389.495C2.97292 331.099 37.2901 302.405 43.9229 297.214C48.2495 292.6 48.3932 290.869 48.6823 286.255C51.7104 292.744 51.1339 383.295 51.5651 393.964C52.862 435.058 49.2589 473.27 45.9432 481.055Z" fill="#58AA50"/>
</g>
<defs>
<clipPath id="clip0_1_200">
<rect width="800" height="800" fill="white" transform="translate(0.110352)"/>
</clipPath>
</defs>
</svg>
