<svg width="800" height="800" viewBox="0 0 800 800" fill="none" xmlns="http://www.w3.org/2000/svg">
<path fillRule="evenodd" clipRule="evenodd" d="M35.2939 292.851H184.855V507.149H35.2939V292.851ZM56.8507 485.576H163.224V314.433H56.8507V485.576Z" fill="#F7D730"/>
<path fillRule="evenodd" clipRule="evenodd" d="M284.201 388.997H274.95C262.798 371.832 250.746 354.774 238.71 335.495H238.622V388.997H228.396V314.399H237.655C249.808 331.445 261.844 348.382 273.767 367.561H273.979V314.399H284.206L284.201 388.997ZM308.51 359.472C311.477 349.665 314.466 340.609 317.134 329.096H317.35C320.33 340.609 322.999 349.669 325.767 359.472H308.51ZM313.399 314.399L287.625 388.997H298.707L305.19 368.636H327.688L333.545 388.997H347.834L324.061 314.399H313.399ZM359.866 388.997V324.406H340.252V314.399H392.251V324.406H372.653V388.997H359.866ZM396.397 314.399H409.097V388.997H396.397V314.399ZM448.525 379.605C435.19 379.605 430.504 364.901 430.504 350.619C430.504 336.878 435.829 323.767 448.525 323.767C461.204 323.767 466.513 336.878 466.513 350.619C466.513 364.901 461.835 379.605 448.525 379.605ZM448.525 390.259C468.019 390.259 480.163 372.898 480.163 350.615C480.163 329.735 466.758 313.113 448.525 313.113C430.309 313.113 416.846 329.735 416.846 350.615C416.85 372.902 429.014 390.259 448.525 390.259ZM543.779 388.997H534.516C522.355 371.832 510.311 354.774 498.283 335.495H498.18V388.997H487.966V314.399H497.229C509.365 331.445 521.409 348.382 533.325 367.561H533.545V314.399H543.783V388.997H543.779ZM568.075 359.472C571.068 349.665 574.035 340.609 576.716 329.096H576.928C579.912 340.609 582.568 349.669 585.332 359.472H568.075ZM572.989 314.399L547.203 388.997H558.293L564.776 368.636H587.271L593.131 388.997H607.404L583.635 314.399H572.989ZM611.118 314.399H623.822V378.974H649.065V388.997H611.118V314.399ZM276.341 451.393V482.18C269.513 484.857 262.371 486.762 255.145 486.762C233.186 486.762 219.336 469.713 219.336 447.758C219.336 427.396 233.186 409.608 255.564 409.608C262.479 409.608 269.41 412.177 273.676 415.368L269.518 424.213C266.114 422.1 260.773 420.287 255.88 420.287C242.25 420.287 232.97 431.053 232.97 447.998C232.97 465.675 243.632 476.109 254.61 476.109C258.005 476.109 260.897 475.702 263.574 474.303V451.393H276.341ZM322.077 420.926H300.74V441.374H321.625V451.393H300.74V475.461H325.887V485.492H287.945V410.89H322.077V420.926ZM361.501 476.104C348.166 476.104 343.472 461.412 343.472 447.123C343.472 433.389 348.801 420.282 361.501 420.282C374.172 420.282 379.489 433.389 379.489 447.123C379.489 461.412 374.79 476.104 361.501 476.104ZM361.501 486.762C380.991 486.762 393.131 469.393 393.131 447.118C393.131 426.238 379.713 409.604 361.501 409.604C343.256 409.604 329.847 426.238 329.847 447.118C329.842 469.397 341.97 486.762 361.501 486.762ZM454.502 451.393V482.18C447.674 484.857 440.552 486.762 433.298 486.762C411.355 486.762 397.493 469.713 397.493 447.758C397.493 427.396 411.355 409.608 433.733 409.608C440.664 409.608 447.579 412.177 451.833 415.368L447.674 424.213C444.263 422.1 438.967 420.287 434.057 420.287C420.398 420.287 411.127 431.053 411.127 447.998C411.127 465.675 421.793 476.109 432.771 476.109C436.19 476.109 439.054 475.702 441.727 474.303V451.393H454.502ZM479.038 420.926H484.67C492.216 420.926 496.49 425.275 496.49 432.958C496.49 442.964 490.427 447.434 484.347 447.753C483.064 447.882 480.076 447.99 479.038 448.081V420.926ZM511.423 485.492L496.37 454.602C504.575 450.244 509.29 441.374 509.29 432.422C509.29 417.917 500.429 410.89 486.148 410.89H466.222V485.492H479.038V457.361H484.787L496.806 485.492H511.423ZM532.515 455.971C535.491 446.151 538.475 437.104 541.148 425.595H541.36C544.344 437.104 547 446.151 549.772 455.971H532.515ZM537.409 410.89L511.614 485.492H522.696L529.203 465.131H551.698L557.525 485.492H571.831L548.054 410.89H537.409ZM595.799 410.89H575.874V485.492H588.665V457.361H594.405C609.653 457.361 618.933 444.998 618.933 432.422C618.933 417.913 610.081 410.89 595.799 410.89ZM594.007 447.758C592.678 447.878 589.557 447.978 588.665 448.065V420.926H594.405C601.863 420.926 606.142 425.275 606.142 432.958C606.142 442.964 600.087 447.438 594.007 447.758ZM678.171 485.492H665.388V449.592H638.834V485.492H626.188V410.89H638.834V439.557H665.388V411.102H678.171V485.492ZM690.414 410.89H703.123V485.492H690.414V410.89ZM760.642 424.433C757.546 422.511 752.453 420.282 747.527 420.282C734.508 420.282 725.057 431.048 725.057 447.994C725.057 465.67 735.491 476.104 747.859 476.104C752.386 476.083 756.816 474.789 760.642 472.369L764.17 481.649C760.31 484.31 753.512 486.762 747.34 486.762C725.381 486.762 711.519 469.713 711.519 447.758C711.519 427.396 725.261 409.608 747.527 409.608C754.151 409.608 760.31 412.397 764.705 415.368L760.642 424.433Z" fill="black"/>
</svg>
