<svg width="801" height="800" viewBox="0 0 801 800" fill="none" xmlns="http://www.w3.org/2000/svg">
<path fill-rule="evenodd" clip-rule="evenodd" d="M142.615 445.579C136.44 445.579 131.604 449.899 131.604 456.204C131.604 462.512 136.464 466.808 142.615 466.808C148.762 466.808 153.626 462.483 153.626 456.204C153.626 449.899 148.787 445.579 142.615 445.579ZM142.615 463.77C138.212 463.77 134.945 460.553 134.945 456.204C134.945 451.858 138.187 448.617 142.615 448.617C146.99 448.617 150.281 451.908 150.281 456.204C150.281 460.474 146.961 463.77 142.615 463.77ZM249.756 408.417H196.154L202.247 315.25L167.438 408.417H117.663L196.64 197.833H249.602L243.489 292.278L278.958 197.833H328.736L249.756 408.417ZM256.222 408.417L335.194 197.833H384.969L305.997 408.417H256.222Z" fill="black"/>
<path fill-rule="evenodd" clip-rule="evenodd" d="M111.924 335.832C42.3683 417.515 -23.2442 526.199 34.7109 576.248C90.8689 624.749 161.063 596.033 208.925 576.887C256.786 557.742 785.799 328.013 785.799 328.013C790.904 325.46 789.95 322.269 783.566 323.863C780.993 324.506 207.651 479.886 207.651 479.886C134.896 500.31 51.9389 455.797 111.924 335.832Z" fill="black"/>
<path fill-rule="evenodd" clip-rule="evenodd" d="M144.491 456.951C146.035 456.876 147.243 456.079 147.243 453.942C147.243 451.186 145.442 450.493 142.433 450.493H138.108V461.919H140.992V457.055H141.478L144.105 461.919H147.421L144.491 456.951ZM142.64 455.1H140.997V452.448H142.383C143.234 452.448 144.209 452.547 144.209 453.656C144.209 454.843 143.644 455.1 142.64 455.1ZM642.97 197.19C636.794 197.19 631.959 201.515 631.959 207.815C631.959 214.12 636.823 218.415 642.97 218.415C649.117 218.415 653.981 214.091 653.981 207.815C653.985 201.515 649.15 197.19 642.97 197.19ZM642.97 215.385C638.567 215.385 635.3 212.169 635.3 207.819C635.3 203.474 638.542 200.233 642.97 200.233C647.344 200.233 650.64 203.524 650.64 207.819C650.64 212.09 647.32 215.385 642.97 215.385Z" fill="black"/>
<path fill-rule="evenodd" clip-rule="evenodd" d="M644.85 208.562C646.394 208.487 647.606 207.691 647.606 205.553C647.606 202.797 645.801 202.104 642.796 202.104H638.471V213.526H641.351V208.666H641.841L644.464 213.526H647.784L644.85 208.562ZM642.995 206.711H641.351V204.059H642.742C643.588 204.059 644.568 204.163 644.568 205.271C644.568 206.454 643.999 206.711 642.995 206.711ZM610.174 232.933L623.551 197.833H471.674L419.525 261.01L443.601 197.833H393.187L314.845 408.417H364.62L398.068 320.355L400.359 408.417L553.086 408.085L567.625 367.578H509.558L528.637 316.529H576.494L591.22 277.283H543.362L559.768 232.933H610.174ZM449.739 394.376L446.548 284.621L521.805 201.992L449.739 394.376Z" fill="black"/>
</svg>
