<svg width="801" height="800" viewBox="0 0 801 800" fill="none" xmlns="http://www.w3.org/2000/svg">
<path fill-rule="evenodd" clip-rule="evenodd" d="M113.991 495.64C53.1102 495.623 12.4329 452.485 12.4329 400.174C12.4329 347.859 53.214 304.223 113.904 304.36H687.433C748.124 304.223 788.905 347.859 788.905 400.174C788.905 452.485 748.219 495.623 687.334 495.64H113.991Z" fill="#CC2131"/>
<path fill-rule="evenodd" clip-rule="evenodd" d="M114.182 327.896C65.9844 327.979 36.3926 360.198 36.3926 400.045C36.3926 439.888 65.7935 472.361 114.182 472.182H687.143C735.527 472.361 764.945 439.888 764.945 400.045C764.945 360.198 735.349 327.983 687.143 327.896H114.182Z" fill="white"/>
<path fill-rule="evenodd" clip-rule="evenodd" d="M89.467 354.815H117.507L156.333 417.602L156.312 354.815H184.14V444.869H156.35L117.328 382.079V444.869H89.4546L89.467 354.815ZM335.49 364.087H362.592V376.202H377.255V385.096H362.592L362.608 444.869H335.49L335.502 385.096H320.785V376.21H335.511L335.49 364.087ZM199.646 384.988H226.727V444.869H199.646V384.988ZM199.588 354.799H226.727V373.21H199.588V354.799ZM685.047 414.447C685.047 414.447 685.03 423.487 685.03 427.127C685.03 436.668 679.398 440.615 673.957 440.615C668.541 440.615 662.868 436.668 662.868 427.127C662.868 423.487 662.884 414.223 662.884 414.223C662.884 414.223 662.909 405.371 662.909 401.731C662.909 392.226 668.558 388.317 673.957 388.317C679.357 388.317 685.03 392.226 685.03 401.731C685.03 405.371 685.03 412.073 685.047 414.489V414.447ZM674.169 380.896C652.322 380.896 634.612 395.953 634.612 414.53C634.612 433.095 652.326 448.148 674.169 448.148C696.041 448.148 713.751 433.095 713.751 414.53C713.751 395.953 696.041 380.896 674.169 380.896ZM599.061 354.815H625.784V444.853H599.019L599.002 441.408C588.652 447.907 576.939 447.891 567.825 443.653C565.385 442.512 549.302 434.792 549.302 413.97C549.302 398.149 564.227 380.896 583.729 382.606C590.158 383.179 594.719 385.52 599.056 387.947L599.061 354.815ZM599.256 414.626V403.926C599.256 394.663 592.868 392.305 588.652 392.305C584.331 392.305 578.022 394.663 578.022 403.926C578.022 406.981 578.039 414.601 578.039 414.601C578.039 414.601 578.022 422.051 578.022 425.242C578.022 434.498 584.331 436.913 588.652 436.913C592.868 436.913 599.256 434.498 599.256 425.242V414.626ZM290.114 382.22C300.233 381.942 320.785 388.57 320.636 412.285C320.607 416.485 320.628 444.857 320.628 444.857H293.725V405.532C293.725 400.307 288.732 394.501 281.361 394.501C273.978 394.501 268.5 400.307 268.5 405.532L268.529 444.857H241.639L241.618 384.98L268.525 384.959C268.525 384.959 268.495 389.782 268.525 391.251C274.359 385.678 282.05 382.461 290.114 382.22ZM510.194 382.22C520.296 381.942 540.844 388.57 540.715 412.285C540.674 416.485 540.69 444.857 540.69 444.857H513.788V405.532C513.788 400.307 508.803 394.501 501.424 394.501C494.045 394.501 488.55 400.307 488.55 405.532L488.591 444.857H461.71L461.726 384.98L488.591 384.959C488.591 384.959 488.55 389.782 488.591 391.251C494.428 385.674 502.124 382.457 510.194 382.22ZM402.485 405.856C402.435 400.618 402.543 397.116 404.261 394.102C406.394 390.417 410.283 388.661 413.802 388.645H413.786C417.33 388.661 421.194 390.417 423.311 394.102C425.029 397.111 425.129 400.618 425.087 405.856H402.485ZM424.971 423.918C424.971 423.918 424.996 424.184 424.996 427.558C424.996 438.511 417.791 440.951 413.802 440.951C409.797 440.951 402.464 438.511 402.464 427.558C402.464 424.267 402.505 415.19 402.505 415.19C402.505 415.19 453.5 415.207 453.5 415.19C453.5 396.613 435.579 381.228 413.553 381.228C391.54 381.228 373.681 396.285 373.681 414.842C373.681 433.423 391.54 448.48 413.553 448.48C431.823 448.48 447.25 438.046 451.977 423.893L424.971 423.918ZM715.635 376.244H712.514V355.737H720.337C725.168 355.737 727.575 357.526 727.575 361.564C727.575 365.229 725.272 366.826 722.25 367.212L728.078 376.244H724.608L719.192 367.349H715.635V376.244ZM719.345 364.714C721.981 364.714 724.313 364.531 724.313 361.377C724.313 358.841 722.01 358.364 719.864 358.364H715.631V364.714H719.345Z" fill="#CC2131"/>
<path fill-rule="evenodd" clip-rule="evenodd" d="M701.324 365.934C701.324 355.733 709.608 348.208 719.387 348.208C729.082 348.208 737.341 355.737 737.341 365.934C737.341 376.239 729.082 383.76 719.387 383.76C709.608 383.76 701.324 376.243 701.324 365.934ZM719.387 380.796C727.434 380.796 733.767 374.496 733.767 365.934C733.767 357.525 727.438 351.167 719.387 351.167C711.256 351.167 704.91 357.525 704.91 365.934C704.91 374.5 711.256 380.796 719.387 380.796Z" fill="#CC2131"/>
</svg>
