<svg width="801" height="800" viewBox="0 0 801 800" fill="none" xmlns="http://www.w3.org/2000/svg">
<g clipPath="url(#clip0_1_237)">
<path d="M39.0758 465.751H0.555664V334.758H67.1755L143.602 432.552V334.758H182.122V465.751H116.852L39.0758 366.288V465.751ZM366.427 425.247C366.427 443.456 363.209 449.73 357.875 455.755C349.701 464.721 337.816 467.415 314.902 467.415H249.133C226.22 467.415 214.319 464.718 206.153 455.755C200.829 449.736 197.604 443.456 197.604 425.247V374.75C197.604 356.545 200.829 350.272 206.153 344.243C214.319 335.269 226.222 332.575 249.133 332.575H314.905C337.816 332.575 349.703 335.272 357.875 344.243C363.206 350.27 366.427 356.542 366.427 374.75V425.247ZM313.284 434.221C322.082 434.221 325.184 433.707 327.29 431.788C329.269 429.994 330.14 427.686 330.14 419.99V380.003C330.14 372.309 329.269 370.014 327.29 368.212C325.184 366.288 322.082 365.779 313.284 365.779H250.746C241.949 365.779 238.848 366.288 236.747 368.212C234.764 370.014 233.898 372.312 233.898 380.003V419.99C233.898 427.683 234.761 429.994 236.747 431.788C238.848 433.707 241.949 434.221 250.746 434.221H313.284ZM422.406 334.758V465.751H382.158V334.758H422.406ZM490.406 334.758H543.541L471.83 396.031L552.712 465.751H495.853L422.406 397.434L490.406 334.758ZM560.137 334.758H600.397V465.751H560.137V334.758ZM753.864 465.751L741.954 442.932H664.065L652.298 465.751H607.83L679.178 334.755H729.21L800.556 465.751H753.864ZM678.051 414.479H728.101L703.071 367.054L678.051 414.479Z" fill="#1C4598"/>
</g>
<defs>
<clipPath id="clip0_1_237">
<rect width="800" height="800" fill="white" transform="translate(0.555664)"/>
</clipPath>
</defs>
</svg>
