<svg width="801" height="800" viewBox="0 0 801 800" fill="none" xmlns="http://www.w3.org/2000/svg">
<g clip-path="url(#clip0_1_241)">
<mask id="mask0_1_241" style="mask-type:luminance" maskUnits="userSpaceOnUse" x="-431" y="130" width="1663" height="540">
<path d="M-430.256 669.849H1231.14V130.16H-430.256V669.849Z" fill="white"/>
</mask>
<g mask="url(#mask0_1_241)">
<path d="M165.637 321.116C157.107 311.393 141.688 307.225 121.963 307.225H64.7145C62.7619 307.224 60.873 307.92 59.3878 309.188C57.9025 310.455 56.9185 312.211 56.6126 314.14L32.7859 465.329C32.6754 466.031 32.7183 466.748 32.9116 467.431C33.1049 468.114 33.444 468.747 33.9056 469.287C34.3671 469.826 34.9402 470.26 35.5852 470.556C36.2302 470.853 36.9319 471.006 37.642 471.006H72.9846L81.861 414.705L81.5859 416.468C81.8858 414.544 82.8633 412.789 84.3422 411.522C85.8211 410.254 87.7042 409.556 89.6521 409.554H106.447C139.441 409.554 165.275 396.152 172.821 357.386C173.046 356.239 173.239 355.123 173.407 354.033C175.649 339.704 173.392 329.951 165.642 321.121" fill="#003087"/>
<path d="M598.309 393.059C596.148 407.245 585.315 407.245 574.839 407.245H568.877L573.061 380.759C573.315 379.159 574.691 377.982 576.312 377.982H579.048C586.182 377.982 592.918 377.982 596.393 382.043C598.467 384.473 599.094 388.081 598.309 393.059ZM593.748 356.045H554.227C552.919 356.046 551.653 356.513 550.657 357.363C549.662 358.213 549.002 359.39 548.796 360.682L532.826 462.017C532.753 462.487 532.782 462.967 532.911 463.425C533.041 463.882 533.268 464.306 533.577 464.668C533.885 465.03 534.269 465.32 534.7 465.52C535.132 465.719 535.602 465.823 536.077 465.824H556.357C558.248 465.824 559.858 464.448 560.154 462.583L564.689 433.844C565.106 431.179 567.41 429.207 570.11 429.207H582.615C608.653 429.207 623.675 416.616 627.598 391.643C629.366 380.728 627.669 372.147 622.559 366.14C616.938 359.536 606.976 356.04 593.754 356.04" fill="#009CDE"/>
<path d="M316.424 393.06C314.264 407.246 303.43 407.246 292.949 407.246H286.987L291.171 380.759C291.425 379.159 292.801 377.982 294.422 377.982H297.158C304.292 377.982 311.028 377.982 314.503 382.043C316.582 384.474 317.209 388.081 316.424 393.06ZM311.864 356.046H272.343C269.642 356.046 267.339 358.012 266.916 360.683L250.941 462.017C250.867 462.487 250.895 462.968 251.025 463.426C251.154 463.884 251.381 464.308 251.69 464.67C251.999 465.032 252.382 465.322 252.814 465.521C253.246 465.721 253.717 465.824 254.192 465.824H273.066C275.767 465.824 278.065 463.857 278.488 461.187L282.804 433.849C283.222 431.179 285.525 429.212 288.225 429.212H300.73C326.768 429.212 341.79 416.616 345.713 391.643C347.481 380.728 345.785 372.147 340.674 366.14C335.053 359.536 325.092 356.041 311.869 356.041M403.619 429.442C401.785 440.254 393.209 447.516 382.258 447.516C376.771 447.516 372.373 445.747 369.55 442.405C366.748 439.093 365.698 434.369 366.585 429.116C368.287 418.395 377.01 410.904 387.792 410.904C393.168 410.904 397.525 412.688 400.409 416.061C403.308 419.46 404.45 424.209 403.619 429.442ZM429.993 392.601H411.069C410.282 392.6 409.521 392.88 408.923 393.392C408.325 393.903 407.929 394.611 407.807 395.388L406.982 400.677L405.657 398.761C401.56 392.815 392.424 390.823 383.303 390.823C362.396 390.823 344.536 406.67 341.061 428.886C339.252 439.979 341.82 450.573 348.108 457.967C353.881 464.759 362.121 467.587 371.94 467.587C388.796 467.587 398.141 456.764 398.141 456.764L397.295 462.023C397.221 462.493 397.249 462.974 397.379 463.432C397.508 463.89 397.736 464.315 398.045 464.677C398.355 465.039 398.739 465.329 399.172 465.528C399.605 465.727 400.075 465.83 400.551 465.829H417.591C420.292 465.829 422.595 463.867 423.018 461.192L433.25 396.412C433.323 395.942 433.294 395.461 433.164 395.003C433.034 394.544 432.806 394.12 432.496 393.758C432.186 393.396 431.801 393.106 431.368 392.907C430.936 392.708 430.465 392.606 429.988 392.606" fill="#003087"/>
<path d="M685.504 429.442C683.669 440.254 675.094 447.516 664.143 447.516C658.655 447.516 654.258 445.747 651.435 442.405C648.633 439.093 647.583 434.369 648.469 429.116C650.171 418.395 658.89 410.904 669.677 410.904C675.053 410.904 679.41 412.688 682.294 416.061C685.193 419.46 686.334 424.209 685.504 429.442ZM711.878 392.601H692.954C692.167 392.6 691.406 392.88 690.808 393.392C690.209 393.903 689.814 394.611 689.692 395.388L688.867 400.677L687.542 398.761C683.445 392.815 674.309 390.823 665.188 390.823C644.286 390.823 626.426 406.67 622.946 428.886C621.137 439.979 623.71 450.573 629.998 457.967C635.771 464.759 644.011 467.587 653.83 467.587C670.691 467.587 680.036 456.764 680.036 456.764L679.19 462.023C679.114 462.492 679.141 462.973 679.27 463.431C679.398 463.89 679.624 464.315 679.933 464.677C680.242 465.039 680.625 465.329 681.058 465.528C681.49 465.727 681.96 465.83 682.436 465.829H699.471C702.171 465.829 704.475 463.867 704.903 461.192L715.134 396.412C715.208 395.942 715.179 395.461 715.049 395.003C714.919 394.544 714.691 394.12 714.381 393.758C714.071 393.396 713.686 393.106 713.253 392.907C712.82 392.708 712.35 392.606 711.873 392.606" fill="#009CDE"/>
<path d="M530.788 392.606H511.761C509.942 392.606 508.246 393.508 507.226 395.016L480.984 433.661L469.861 396.524C469.521 395.392 468.826 394.398 467.878 393.692C466.93 392.985 465.78 392.603 464.597 392.601H445.902C445.377 392.601 444.861 392.726 444.395 392.966C443.928 393.206 443.526 393.554 443.221 393.98C442.916 394.407 442.718 394.9 442.641 395.418C442.565 395.937 442.614 396.466 442.783 396.963L463.726 458.445L444.026 486.242C443.678 486.735 443.472 487.314 443.431 487.917C443.39 488.519 443.515 489.121 443.793 489.658C444.07 490.194 444.49 490.644 445.005 490.958C445.521 491.272 446.113 491.438 446.717 491.439H465.723C467.517 491.439 469.204 490.557 470.233 489.08L533.489 397.778C533.832 397.284 534.034 396.706 534.072 396.106C534.11 395.506 533.983 394.907 533.705 394.374C533.427 393.841 533.008 393.394 532.493 393.083C531.979 392.771 531.389 392.606 530.788 392.606Z" fill="#003087"/>
<path d="M734.182 358.833L717.958 462.022C717.884 462.492 717.913 462.973 718.043 463.431C718.173 463.889 718.4 464.313 718.71 464.675C719.019 465.037 719.403 465.327 719.835 465.526C720.267 465.725 720.738 465.828 721.214 465.829H737.524C740.225 465.829 742.528 463.862 742.951 461.192L758.946 359.852C759.021 359.381 758.992 358.9 758.863 358.442C758.733 357.984 758.506 357.559 758.196 357.197C757.887 356.835 757.502 356.545 757.07 356.346C756.637 356.147 756.166 356.045 755.69 356.045H737.438C736.652 356.043 735.892 356.323 735.294 356.833C734.697 357.344 734.302 358.056 734.182 358.833Z" fill="#009CDE"/>
<path d="M165.637 321.116C157.107 311.393 141.688 307.225 121.963 307.225H64.7145C62.7619 307.224 60.873 307.92 59.3878 309.188C57.9025 310.455 56.9185 312.211 56.6126 314.14L32.7859 465.329C32.6754 466.031 32.7183 466.748 32.9116 467.431C33.1049 468.114 33.444 468.747 33.9056 469.287C34.3671 469.826 34.9402 470.26 35.5852 470.556C36.2302 470.853 36.9319 471.006 37.642 471.006H72.9846L81.861 414.705L81.5859 416.468C81.8858 414.544 82.8633 412.789 84.3422 411.522C85.8211 410.254 87.7042 409.556 89.6521 409.554H106.447C139.441 409.554 165.275 396.152 172.821 357.386C173.046 356.239 173.239 355.123 173.407 354.033C175.649 339.704 173.392 329.951 165.642 321.121" fill="#003087"/>
<path d="M91.3948 354.221C91.6626 352.536 92.5222 351.002 93.8194 349.893C95.1165 348.785 96.7663 348.175 98.4725 348.173H143.354C148.669 348.173 153.627 348.52 158.157 349.243C160.633 349.642 163.084 350.189 165.494 350.884C168.232 351.654 170.881 352.709 173.397 354.033C175.65 339.699 173.387 329.951 165.637 321.116C157.102 311.399 141.688 307.23 121.963 307.23H64.7095C62.7586 307.232 60.8722 307.929 59.389 309.196C57.9059 310.464 56.9233 312.218 56.6178 314.145L32.7809 465.319C32.6696 466.021 32.7118 466.738 32.9044 467.421C33.097 468.105 33.4355 468.738 33.8966 469.278C34.3577 469.818 34.9304 470.252 35.5752 470.55C36.2201 470.847 36.9217 471.001 37.6318 471.001H72.9795L81.856 414.695L91.3948 354.221Z" fill="#003087"/>
<path d="M173.403 354.028C173.228 355.149 173.032 356.267 172.817 357.38C165.27 396.142 139.436 409.549 106.442 409.549H89.6421C87.6945 409.55 85.8116 410.248 84.3333 411.516C82.8551 412.784 81.8789 414.539 81.581 416.463L72.9797 470.996L70.5339 486.466C70.4366 487.08 70.4737 487.708 70.6426 488.306C70.8115 488.905 71.1081 489.459 71.5121 489.932C71.916 490.405 72.4177 490.784 72.9825 491.045C73.5473 491.305 74.1617 491.439 74.7836 491.439H104.577C108.103 491.439 111.099 488.871 111.655 485.391L111.945 483.872L117.561 448.285L117.917 446.318C118.184 444.632 119.044 443.096 120.343 441.987C121.641 440.878 123.293 440.269 125 440.27H129.459C158.32 440.27 180.919 428.55 187.522 394.634C190.274 380.468 188.847 368.631 181.561 360.321C179.247 357.744 176.482 355.611 173.403 354.028Z" fill="#009CDE"/>
<path d="M165.499 350.884C164.348 350.542 163.161 350.237 161.938 349.967C160.715 349.697 159.451 349.457 158.157 349.253C153.622 348.514 148.669 348.168 143.349 348.168H98.4728C96.7646 348.166 95.1121 348.775 93.814 349.885C92.5159 350.995 91.6579 352.534 91.3951 354.221L81.8562 414.705L81.5811 416.463C81.8789 414.539 82.8551 412.784 84.3334 411.516C85.8117 410.248 87.6946 409.55 89.6422 409.549H106.442C139.436 409.549 165.27 396.147 172.817 357.381C173.041 356.234 173.229 355.123 173.403 354.028C171.41 352.985 169.334 352.109 167.196 351.409C166.641 351.225 166.075 351.057 165.499 350.884Z" fill="#012169"/>
</g>
</g>
<defs>
<clipPath id="clip0_1_241">
<rect width="800" height="800" fill="white" transform="translate(0.444336)"/>
</clipPath>
</defs>
</svg>
