<svg width="801" height="800" viewBox="0 0 801 800" fill="none" xmlns="http://www.w3.org/2000/svg">
<g clip-path="url(#clip0_1_257)">
<path d="M152.591 550.939C69.4012 550.939 1.71973 483.23 1.71973 400.012C1.71973 316.786 69.4012 249.08 152.591 249.08C235.779 249.08 303.458 316.789 303.458 400.012C303.458 483.23 235.779 550.939 152.591 550.939Z" fill="white"/>
<path d="M152.591 250.464C235.144 250.464 302.071 317.416 302.071 400.01C302.071 482.604 235.144 549.553 152.591 549.553C70.0335 549.553 3.10638 482.601 3.10638 400.01C3.10638 317.419 70.0335 250.464 152.591 250.464ZM152.591 247.69C68.6357 247.69 0.333008 316.021 0.333008 400.01C0.333008 484.002 68.6357 552.326 152.591 552.326C236.544 552.326 304.844 483.993 304.844 400.01C304.844 316.021 236.544 247.69 152.591 247.69Z" fill="#004883"/>
<path d="M797.532 338.674C799.21 336.716 800.333 334.483 800.333 331.685C800.354 328.907 799.357 326.218 797.532 324.125C795.565 322.161 793.061 321.041 790.252 321.041C787.462 321.041 785.226 322.164 782.977 324.125C781.027 326.085 780.176 328.604 780.176 331.685C780.176 334.483 781.027 336.716 782.977 338.674C785.226 340.634 787.462 341.472 790.252 341.472C793.061 341.472 795.565 340.634 797.532 338.674ZM798.1 441.674V351.27H782.98L783.265 441.674H798.1ZM763.106 355.752L760.593 354.629C753.873 350.707 745.753 348.752 735.963 348.752C725.324 348.752 716.649 351.268 710.212 356.307C706.853 358.828 704.612 361.343 702.935 364.707C701.259 367.783 700.411 370.861 700.411 374.497C700.411 380.657 703.217 385.693 708.259 390.17C713.01 394.371 720.005 397.73 729.243 400.526C737.075 403.044 742.394 405.565 745.753 408.086C748.557 410.887 750.237 413.963 750.237 417.879C750.237 422.077 747.996 425.436 744.072 428.237C740.15 430.478 734.548 431.876 727.562 431.876C719.999 431.876 712.45 429.915 704.612 426.271L702.652 424.879L696.215 436.629L698.461 437.75C707.133 441.949 716.654 443.904 727.007 443.904C738.204 443.904 747.439 441.666 754.714 436.629C758.352 434.388 760.873 431.316 762.834 428.24C764.784 424.601 765.63 420.677 765.63 416.761V416.472C765.63 409.758 762.834 403.879 757.515 399.125C753.041 395.212 745.761 391.848 736.243 389.052C728.963 386.523 723.649 384.007 720.568 382.049C717.209 379.525 715.811 376.733 715.811 373.654C715.811 370.013 717.209 367.22 720.296 364.702C723.649 362.458 728.12 361.058 734.002 361.058C742.12 361.058 748.837 362.458 754.156 365.817L756.117 367.217L763.106 355.752ZM671.87 362.466C661.514 353.511 648.643 348.755 633.8 348.755C619.248 348.755 607.214 353.228 597.421 361.906C586.5 371.707 580.909 385.136 580.909 402.769V473.019H595.455V427.68C599.937 432.713 605.542 436.635 612.253 439.439C618.971 442.512 626.245 443.909 634.088 443.909C648.92 443.909 661.514 439.439 671.87 429.912C682.509 420.677 687.817 409.486 687.817 396.327C687.817 382.895 682.509 371.705 671.87 362.466ZM633.8 361.343C644.721 361.343 654.231 364.707 661.506 371.419C669.069 378.136 672.988 386.528 672.988 396.615C672.988 406.122 669.624 413.96 662.909 420.677C655.635 427.674 645.839 431.316 634.085 431.316C622.321 431.316 612.803 427.677 605.251 420.677C598.259 413.685 594.903 405.848 594.903 396.615C594.903 387.371 598.262 379.259 605.251 372.537C612.534 365.265 622.052 361.343 633.8 361.343ZM557.673 366.948C547.886 354.629 533.889 348.752 515.133 348.752C501.138 348.752 489.096 352.671 478.746 361.063C467.555 369.741 461.959 381.5 461.959 396.052C461.959 404.167 464.194 412.285 468.95 419.839C473.155 427.114 479.589 432.996 488.267 437.47C496.939 441.671 506.175 443.627 516.25 443.627C525.768 443.627 534.721 441.671 543.404 437.47C552.071 432.996 558.511 427.114 562.71 419.839L565.511 415.08H549.281C545.917 419.839 541.152 423.761 535.007 426.837C528.85 429.912 522.133 431.316 515.693 431.316C506.738 431.316 499.18 429.069 492.46 424.593C485.743 419.837 481.27 413.96 478.469 406.122C487.698 402.484 496.939 400.523 507.02 400.523L522.133 402.198L545.64 404.442C552.914 404.442 559.082 403.321 564.671 401.646C566.914 400.803 568.309 399.682 568.875 398.282C569.71 397.164 569.71 395.212 569.158 392.963C567.469 382.895 563.833 374.223 557.673 366.948ZM553.763 389.903L554.04 390.458L545.92 391.576L528.289 389.901L503.659 387.934H499.46C491.623 388.495 484.348 389.901 477.348 392.413C478.463 382.055 483.508 373.934 491.906 368.063C498.897 363.579 506.74 361.063 515.133 361.063C528.281 361.063 538.362 365.262 545.92 373.66C549.841 378.702 552.634 384.016 553.763 389.903ZM396.74 348.752C382.465 348.752 370.152 353.226 360.356 361.903C349.44 371.705 344.121 385.133 344.121 402.764L343.843 473.013H358.958L358.675 427.674C363.154 432.711 368.751 436.629 375.191 439.433C382.185 442.509 389.465 443.901 397.3 443.901C412.135 443.901 424.729 439.433 435.087 429.909C445.72 420.674 450.757 409.478 450.757 396.321C450.757 382.887 445.72 371.696 435.362 362.458C424.729 353.508 412.135 348.752 396.74 348.752ZM368.194 372.539C375.751 365.265 384.989 361.343 396.74 361.343C407.939 361.343 417.174 364.707 424.723 371.419C432.289 378.136 435.919 386.528 435.919 396.615C435.919 406.122 432.566 413.96 426.121 420.677C418.852 427.674 409.334 431.316 397.02 431.316C385.544 431.316 375.751 427.677 368.191 420.677C361.474 413.685 358.115 405.848 358.115 396.615C358.118 387.374 361.474 379.262 368.194 372.539Z" fill="#004883"/>
<path d="M238.067 286.695C236.782 285.722 235.563 284.666 234.417 283.533C210.477 266.647 181.888 257.601 152.591 257.644C74.0022 257.644 10.2921 321.381 10.2921 400.007C10.2487 430.645 20.1274 460.474 38.4502 485.03C86.0691 470.969 127.614 446.505 163.219 411.147C198.779 375.959 223.767 334.311 238.067 286.695Z" fill="#E32934"/>
<path d="M152.591 542.37C231.175 542.37 294.885 478.624 294.885 400.004C294.885 372.173 286.897 346.223 273.103 324.299C272.741 323.937 272.415 323.541 272.132 323.115C275.027 332.67 276.494 342.601 276.483 352.585C276.483 368.74 272.75 384.029 265.418 398.345C258.166 411.941 247.972 423.748 235.579 432.904C225.634 440.24 213.697 446.458 199.644 451.555C188.459 455.649 173.91 459.881 155.886 463.977L103.913 475.673C81.8173 480.737 61.6937 486.156 43.7666 491.706C69.8669 522.693 108.927 542.37 152.591 542.37Z" fill="#004883"/>
</g>
<defs>
<clipPath id="clip0_1_257">
<rect width="800" height="800" fill="white" transform="translate(0.333008)"/>
</clipPath>
</defs>
</svg>
