<svg width="801" height="800" viewBox="0 0 801 800" fill="none" xmlns="http://www.w3.org/2000/svg">
<path fill-rule="evenodd" clip-rule="evenodd" d="M399.757 197.273C414.117 197.273 425.792 208.205 425.792 222.47C425.792 236.826 414.121 248.41 399.757 248.41C386.326 248.41 374.747 236.826 374.747 222.47C374.747 208.205 386.326 197.273 399.757 197.273Z" fill="#E0912F"/>
<path fill-rule="evenodd" clip-rule="evenodd" d="M430.98 283.517C433.2 283.517 435.047 285.368 435.047 287.593C435.047 289.818 433.2 291.669 430.98 291.669H369.559C367.335 291.669 365.484 289.813 365.484 287.593C365.484 285.373 367.335 283.517 369.559 283.517H430.98ZM400.222 255.822C418.288 255.822 436.628 258.599 450.337 263.231C468.495 269.439 480.169 278.886 480.169 289.353C480.169 300.841 465.992 311.491 445.614 317.048C425.236 322.605 410.133 323.717 392.071 322.883C375.395 322.144 358.814 319.455 343.533 312.972V414.871C329.915 405.886 320.374 393.937 320.374 377.261V294.819C320.374 274.436 339.087 266.472 354 262.027C368.912 257.578 382.16 255.822 400.222 255.822ZM453.765 395.883V342.153C453.765 336.965 445.709 338.356 445.709 344.656V399.129C445.709 403.943 453.765 402.926 453.765 395.883ZM420.23 415.896V338.82C420.23 333.45 423.098 329.652 428.386 328.909C435.654 327.94 442.838 326.423 449.876 324.369C456.838 322.344 463.598 319.678 470.068 316.405C473.222 314.645 476.924 315.94 476.924 320.111V375.879C476.924 383.196 476.828 390.978 473.496 397.738C470.163 404.595 464.328 410.057 457.658 414.414C450.25 419.324 440.799 423.122 432.366 425.251C424.584 427.011 420.23 423.118 420.23 415.896ZM412.075 339.468V366.611C412.075 373.372 405.688 377.73 400.313 378.099V378.19C405.588 378.933 412.075 382.731 412.075 389.861V415.983C412.075 420.802 412.075 424.226 414.117 427.654C409.303 428.21 404.754 428.397 400.313 428.397C395.886 428.427 391.461 428.179 387.065 427.654C384.936 423.392 385.214 420.333 385.214 415.797V395.049C385.214 389.492 382.807 384.951 377.063 384.582V426.729C372.551 426.024 368.093 425.003 363.724 423.674C359.56 422.422 355.502 420.843 351.588 418.951V324.738C355.759 326.037 359.926 326.963 364.189 327.797C368.451 328.54 372.805 329.092 377.067 329.652V371.616C382.438 372.729 385.218 369.114 385.218 363.743V339.103C385.218 336.322 385.31 332.802 386.978 330.395C391.332 330.673 395.407 330.765 399.857 330.765C404.397 330.856 409.124 330.673 413.843 330.487C412.449 333.354 412.075 335.948 412.075 339.468ZM740.009 540.489L717.684 512.142L739.361 485.09H720.83L703.328 507.975V485.09H687.204V540.489H703.328V517.886L720.83 540.489H740.009ZM452.557 540.489L430.233 512.142L451.91 485.09H433.387L415.877 507.975V485.09H399.666V540.489H415.877V517.886L433.287 540.489H452.557ZM141.304 540.489L118.979 512.142L140.656 485.09H122.129L104.623 507.975V485.09H88.5033V540.489H104.623V517.886L122.129 540.489H141.304ZM764.927 540.489V485.09H748.351V540.489H764.927ZM677.941 523.257C677.941 517.326 675.629 513.624 670.441 510.287C668.034 508.809 663.958 507.693 658.306 506.216C650.337 504.178 646.261 503.161 646.261 500.193C646.261 497.691 648.482 496.026 652.744 496.026C657.658 496.026 659.879 497.873 659.966 502.14H676.09C675.807 490.839 667.66 484.074 653.118 484.074C638.293 484.074 629.859 490.743 629.859 501.302C629.859 510.104 635.607 515.384 647.93 518.625C656.724 520.945 661.452 521.684 661.452 525.295C661.452 528.162 658.77 529.926 653.856 529.926C648.669 529.926 646.162 527.332 646.162 522.053V521.866H629.307C629.768 535.67 638.015 542.244 654.226 542.244C669.42 542.244 677.941 535.118 677.941 523.257ZM626.531 540.489V526.407H608.099V485.09H591.701V540.489H626.531ZM385.584 540.489V485.09H370.02V515.662L354.547 485.09H337.967V540.489H353.531V510.569L369.186 540.489H385.584ZM567.335 512.976C567.335 522.979 563.081 528.814 557.332 528.814C550.758 528.814 546.77 523.352 546.77 513.346C546.77 503.339 550.945 497.504 556.685 497.504C563.263 497.504 567.335 502.97 567.335 512.976ZM584.193 513.437C584.193 504.452 581.325 497.135 575.951 491.76C570.95 486.759 564.28 484.069 556.594 484.069C548.812 484.069 542.238 486.85 537.51 491.943C532.322 497.687 529.915 504.447 529.915 512.968C529.915 521.862 532.688 528.993 538.249 534.554C543.163 539.555 549.646 542.24 557.332 542.24C565.21 542.24 571.784 539.464 576.511 534.185C581.599 528.727 584.193 521.775 584.193 513.437ZM509.068 504.356C509.068 508.34 506.848 510.565 502.585 510.565H495.737V497.869H502.311C506.756 497.873 509.068 500.098 509.068 504.356ZM525.466 505.008C525.466 492.316 517.597 485.09 502.868 485.09H479.522V540.489H495.92V523.448H506.756C517.771 523.444 525.466 515.757 525.466 505.008ZM254.043 522.427C254.043 526.037 251.727 527.702 247.096 527.702H237.741V517.235H247.004C251.727 517.235 254.043 518.812 254.043 522.427ZM252.188 502.136C252.188 505.473 250.059 506.676 245.614 506.676H237.741V497.691H245.523C250.059 497.691 252.188 498.894 252.188 502.136ZM270.624 523.352C270.624 516.961 267.287 512.329 261.638 510.009C266.083 507.693 268.212 504.082 268.212 499.268C268.212 493.984 265.71 489.909 260.522 486.946C258.297 485.651 254.408 485.09 248.76 485.09H221.525V540.489H247.187C255.986 540.489 262.008 539.655 266.548 534.562C269.233 531.499 270.624 527.702 270.624 523.352ZM308.143 521.592H297.306L302.768 502.322L308.143 521.592ZM330.376 540.489L311.48 485.09H294.065L275.168 540.489H292.118L294.156 533.168H311.293L313.331 540.489H330.376ZM177.806 512.976C177.806 522.979 173.543 528.814 167.799 528.814C161.221 528.814 157.146 523.352 157.146 513.346C157.146 503.339 161.408 497.504 167.152 497.504C173.726 497.504 177.806 502.97 177.806 512.976ZM194.664 513.437C194.664 504.452 191.792 497.135 186.326 491.76C181.417 486.759 174.747 484.069 167.057 484.069C159.275 484.069 152.701 486.85 147.973 491.943C142.785 497.687 140.374 504.447 140.374 512.968C140.374 521.862 143.155 528.993 148.621 534.554C153.622 539.555 160.109 542.24 167.795 542.24C175.668 542.24 182.247 539.464 186.97 534.185C192.07 528.727 194.664 521.775 194.664 513.437ZM65.1577 504.356C65.1577 508.34 62.9332 510.565 58.5795 510.565H51.8186V497.869H58.3014C62.8419 497.873 65.1577 500.098 65.1577 504.356ZM81.5557 505.008C81.5557 492.316 73.6825 485.09 58.953 485.09H35.5161V540.489H52.0054V523.448H62.8419C73.7738 523.444 81.5557 515.757 81.5557 505.008Z" fill="#2360A5"/>
</svg>
