<svg width="801" height="800" viewBox="0 0 801 800" fill="none" xmlns="http://www.w3.org/2000/svg">
<path d="M445.984 175.438C443.722 175.779 441.543 184.108 437.181 188.458C433.973 191.583 429.993 191.4 427.868 195.268C427.058 196.709 427.316 199.182 426.403 201.556C424.614 206.296 418.334 206.715 418.334 211.886C418.318 217.469 423.572 218.535 428.129 222.495C431.682 225.674 432.022 227.873 436.343 229.422C440.016 230.671 445.494 226.579 450.416 228.052C454.463 229.255 458.335 230.123 459.252 234.273C460.053 238.108 459.194 244.043 454.293 243.354C452.645 243.167 445.465 240.76 436.662 241.69C426.029 242.902 413.914 246.371 412.715 258.221C412.067 264.836 420.252 272.647 428.167 271.062C433.637 269.983 431.051 263.533 434.027 260.4C437.924 256.382 460.053 274.411 480.622 274.411C489.28 274.411 495.73 272.224 502.117 265.521C502.723 265.011 503.441 263.915 504.371 263.844C505.246 263.919 506.757 264.774 507.259 265.139C523.819 278.449 536.349 305.157 597.226 305.468C605.788 305.522 615.533 309.606 623.493 316.865C630.599 323.435 634.757 333.657 638.8 344.024C644.896 359.572 655.808 374.708 672.359 391.537C673.268 392.438 686.894 403.038 687.981 403.822C688.151 403.939 689.156 406.329 688.807 407.665C688.396 417.767 686.935 447.118 708.82 448.438C714.157 448.712 712.763 444.944 712.763 442.366C712.754 437.253 711.816 432.169 714.514 426.931C718.208 419.743 706.699 416.427 707.031 400.855C707.28 389.255 697.514 391.23 692.584 382.39C689.732 377.264 687.201 374.546 687.379 368.287C688.5 333.026 679.875 309.855 675.58 304.165C672.218 299.869 669.446 298.167 672.529 296.175C690.778 284.11 694.924 272.892 694.924 272.892C704.636 250.061 713.369 229.21 725.425 220.033C727.849 218.137 734.066 213.484 737.876 211.671C749.128 206.371 755.038 203.158 758.304 199.983C763.455 194.957 767.555 184.457 762.6 178.094C756.441 170.238 745.791 176.472 741.089 179.261C707.508 199.186 702.569 234.34 690.932 254.519C681.656 270.651 666.569 282.496 653.081 283.467C642.975 284.218 632.072 282.172 621.219 277.408C594.823 265.832 580.38 250.891 576.968 248.252C569.875 242.781 514.817 188.728 470.218 186.528C470.218 186.528 464.681 175.442 463.287 175.26C460.029 174.841 456.688 181.875 454.297 182.697C452.039 183.436 448.254 175.073 445.984 175.438ZM249.615 498.001C245.415 497.898 241.85 494.453 241.85 490.195L241.858 351.055H196.001V504.426C196.001 511.947 202.09 518.077 209.569 518.077H289.72C297.24 518.077 303.258 511.942 303.258 504.426V351.055H257.439L257.401 490.195C257.406 494.453 253.832 497.898 249.615 498.001ZM403.14 351.055H333.747C331.784 351.058 329.842 351.448 328.031 352.203C326.219 352.958 324.575 354.062 323.19 355.453C321.806 356.843 320.71 358.493 319.964 360.308C319.218 362.123 318.837 364.067 318.843 366.029V518.077H364.745V378.613C364.751 377.601 364.956 376.599 365.349 375.666C365.742 374.732 366.315 373.886 367.035 373.174C367.756 372.462 368.609 371.9 369.548 371.519C370.486 371.137 371.49 370.945 372.502 370.952C376.785 370.952 380.222 374.255 380.322 378.493V518.081H426.025V378.489C426.091 374.251 429.52 370.948 433.798 370.948C438.036 370.948 441.539 374.334 441.572 378.609V518.077H487.479V366.029C487.483 364.067 487.101 362.122 486.353 360.307C485.606 358.492 484.508 356.842 483.123 355.452C481.738 354.061 480.092 352.957 478.28 352.203C476.468 351.448 474.525 351.058 472.562 351.055H403.14ZM165.414 476.109H119.088V518.077H73.2515V351.055H165.704C173.98 351.055 180.442 357.783 180.442 366.096V461.047C180.448 463.024 180.064 464.982 179.311 466.81C178.558 468.638 177.452 470.299 176.056 471.699C174.659 473.098 173.001 474.208 171.174 474.965C169.348 475.721 167.39 476.11 165.414 476.109ZM134.639 378.9C134.653 377.868 134.464 376.843 134.081 375.885C133.699 374.926 133.131 374.053 132.411 373.314C131.69 372.575 130.831 371.986 129.882 371.58C128.933 371.174 127.914 370.959 126.882 370.948H119.088V455.427H126.882C130.92 455.427 134.676 452.215 134.639 447.579V378.9ZM665.403 498.28C665.403 509.627 656.306 518.853 645.046 518.853C642.346 518.856 639.673 518.326 637.179 517.292C634.685 516.259 632.42 514.742 630.515 512.83C628.609 510.918 627.1 508.649 626.074 506.151C625.049 503.654 624.527 500.979 624.539 498.28C624.539 487.099 633.682 477.74 644.714 477.74C656.293 477.727 665.403 486.808 665.403 498.28ZM644.751 480.728C635.533 480.728 627.801 488.684 627.801 498.333C627.801 508.016 635.533 515.906 645.033 515.906C654.459 515.906 662.104 508.016 662.104 498.333C662.104 488.667 654.459 480.728 645.033 480.728H644.751Z" fill="black"/>
<path d="M654.662 510.179H649.196L642.161 500.811V510.179H637.696V486.501H642.381C648.777 486.501 652.164 488.908 652.164 493.528C652.164 496.607 650.163 499.33 647.374 500.16L647.042 500.276L654.662 510.179ZM642.929 496.968C646.108 496.968 647.802 495.843 647.802 493.586C647.802 491.577 646.167 490.539 643.062 490.539H642.149V496.976L642.929 496.968ZM564.43 518.077V476.142H548.837V518.077H503.034V366.03C503.034 357.729 509.716 351.055 517.942 351.055H595.329C597.293 351.057 599.237 351.446 601.049 352.199C602.862 352.953 604.509 354.057 605.895 355.448C607.281 356.839 608.379 358.489 609.126 360.305C609.873 362.121 610.255 364.066 610.25 366.03V518.077H564.43ZM564.43 455.461V378.551C564.318 374.301 560.886 371.031 556.611 371.031C554.571 371.027 552.612 371.827 551.157 373.257C549.702 374.687 548.869 376.632 548.837 378.671V455.461H564.43ZM74.5381 602.308V556.422H79.6554V560.734C80.859 559.049 82.2245 557.775 83.7477 556.932C85.2625 556.098 87.1053 555.662 89.2717 555.662C92.1064 555.662 94.6008 556.405 96.7672 557.845C98.942 559.314 100.573 561.369 101.673 564.021C102.785 566.677 103.333 569.586 103.333 572.753C103.333 576.144 102.727 579.207 101.503 581.925C100.287 584.64 98.5187 586.719 96.1945 588.172C94.0078 589.574 91.4668 590.324 88.8692 590.334C86.9891 590.334 85.3165 589.935 83.8265 589.151C82.406 588.42 81.1558 587.398 80.1576 586.15V602.299L74.5381 602.308ZM79.6264 573.193C79.6264 577.455 80.4897 580.618 82.2162 582.66C83.9427 584.698 86.0469 585.719 88.4956 585.719C90.99 585.719 93.1357 584.664 94.9162 582.535C96.6967 580.427 97.5931 577.152 97.5931 572.72C97.5931 568.487 96.7174 565.332 94.9826 563.22C93.2436 561.12 91.1643 560.066 88.7571 560.066C86.3582 560.066 84.2374 561.186 82.3905 563.423C80.5395 565.673 79.6264 568.935 79.6264 573.193ZM163.832 589.603V584.727C161.238 588.479 157.735 590.346 153.299 590.346C151.348 590.346 149.514 589.973 147.816 589.222C146.123 588.475 144.865 587.524 144.044 586.395C143.167 585.148 142.574 583.725 142.305 582.224C142.08 581.116 141.964 579.369 141.964 576.966V556.417H147.584V574.816C147.584 577.758 147.704 579.734 147.928 580.755C148.289 582.237 149.041 583.39 150.178 584.241C151.332 585.084 152.747 585.507 154.432 585.507C156.117 585.507 157.694 585.075 159.18 584.212C160.661 583.353 161.703 582.17 162.313 580.684C162.932 579.19 163.243 577.028 163.243 574.202V556.434H168.863V589.603H163.832ZM209.648 589.603V556.434H214.67V561.078C215.713 559.453 217.141 558.112 218.828 557.173C220.559 556.181 222.53 555.679 224.734 555.679C227.187 555.679 229.204 556.193 230.769 557.214C232.346 558.239 233.458 559.655 234.097 561.489C236.733 557.617 240.144 555.679 244.344 555.679C247.64 555.679 250.167 556.6 251.94 558.418C253.708 560.236 254.596 563.045 254.596 566.831V589.603H249.009V568.706C249.009 566.453 248.827 564.83 248.466 563.842C248.086 562.85 247.388 562.011 246.482 561.456C245.466 560.835 244.294 560.518 243.104 560.543C240.767 560.543 238.837 561.323 237.293 562.875C235.757 564.423 234.977 566.909 234.977 570.321V589.603H229.358V568.055C229.358 565.548 228.901 563.672 227.98 562.427C227.063 561.182 225.568 560.555 223.481 560.555C221.904 560.555 220.443 560.974 219.098 561.817C217.753 562.647 216.774 563.863 216.176 565.465C215.57 567.075 215.267 569.383 215.267 572.404V589.612H209.648V589.603ZM316.556 585.503C314.468 587.275 312.464 588.52 310.542 589.251C308.558 589.99 306.455 590.36 304.337 590.342C300.689 590.342 297.896 589.454 295.937 587.678C293.987 585.889 293.003 583.614 293.003 580.846C293.003 579.211 293.364 577.733 294.111 576.389C294.804 575.095 295.8 573.987 297.012 573.16C298.216 572.355 299.56 571.732 301.063 571.321C302.708 570.935 304.375 570.654 306.056 570.479C310.596 569.935 313.945 569.296 316.087 568.532C316.108 567.764 316.12 567.275 316.12 567.071C316.12 564.78 315.589 563.166 314.522 562.232C313.095 560.95 310.953 560.323 308.127 560.323C305.483 560.323 303.532 560.779 302.258 561.709C301.001 562.639 300.075 564.278 299.465 566.635L293.974 565.876C294.476 563.539 295.298 561.63 296.439 560.19C297.581 558.733 299.245 557.621 301.407 556.837C303.57 556.056 306.076 555.662 308.936 555.662C311.771 555.662 314.062 556.002 315.834 556.662C317.606 557.335 318.905 558.161 319.748 559.173C320.582 560.186 321.155 561.46 321.495 563.008C321.677 563.963 321.773 565.689 321.773 568.188V575.687C321.773 580.921 321.889 584.233 322.134 585.603C322.371 586.989 322.848 588.321 323.553 589.591H317.677C317.056 588.308 316.676 586.923 316.556 585.503ZM316.083 572.944C314.037 573.787 310.978 574.488 306.902 575.077C304.591 575.409 302.947 575.783 301.997 576.202C301.088 576.573 300.315 577.213 299.78 578.036C299.262 578.829 298.992 579.713 298.992 580.701C298.992 582.203 299.569 583.453 300.698 584.453C301.822 585.445 303.491 585.939 305.678 585.939C307.84 585.939 309.77 585.478 311.455 584.523C313.073 583.648 314.374 582.286 315.174 580.63C315.784 579.365 316.079 577.484 316.079 575.011L316.083 572.944ZM364.052 589.603V583.191H370.46V589.603H364.052ZM433.865 577.443L439.381 578.173C438.775 581.975 437.235 584.968 434.749 587.113C432.263 589.271 429.204 590.342 425.581 590.342C421.045 590.342 417.388 588.861 414.632 585.897C411.868 582.934 410.482 578.684 410.482 573.135C410.482 569.557 411.088 566.42 412.271 563.73C413.462 561.045 415.271 559.028 417.704 557.687C420.122 556.343 422.847 555.648 425.614 555.67C429.212 555.67 432.172 556.588 434.45 558.41C436.745 560.232 438.21 562.817 438.862 566.175L433.396 567.013C432.869 564.789 431.947 563.112 430.632 561.983C429.312 560.858 427.714 560.298 425.834 560.298C422.995 560.298 420.696 561.311 418.928 563.344C417.16 565.37 416.268 568.582 416.268 572.973C416.268 577.426 417.127 580.668 418.837 582.693C420.547 584.706 422.771 585.719 425.519 585.719C427.718 585.719 429.569 585.038 431.047 583.685C432.524 582.34 433.462 580.257 433.865 577.443ZM474.069 573.006C474.069 566.864 475.771 562.307 479.199 559.356C482.05 556.907 485.52 555.662 489.625 555.662C494.194 555.662 497.917 557.156 500.81 560.153C503.702 563.141 505.147 567.262 505.147 572.529C505.147 576.804 504.508 580.161 503.225 582.606C501.978 585.024 500.031 587.012 497.639 588.309C495.185 589.663 492.423 590.36 489.62 590.334C484.984 590.334 481.233 588.852 478.361 585.868C475.501 582.901 474.069 578.618 474.069 573.006ZM479.859 573.006C479.859 577.252 480.784 580.431 482.64 582.548C484.491 584.673 486.831 585.727 489.637 585.727C492.434 585.727 494.75 584.66 496.61 582.54C498.456 580.415 499.382 577.173 499.382 572.82C499.382 568.719 498.456 565.606 496.593 563.49C494.721 561.377 492.409 560.323 489.637 560.323C486.831 560.323 484.499 561.377 482.64 563.481C480.772 565.581 479.859 568.765 479.859 573.006ZM543.724 589.603V556.434H548.742V561.078C549.785 559.453 551.213 558.112 552.9 557.173C554.627 556.181 556.611 555.679 558.81 555.679C561.263 555.679 563.276 556.193 564.841 557.214C566.422 558.239 567.53 559.655 568.178 561.489C570.813 557.617 574.225 555.679 578.429 555.679C581.72 555.679 584.244 556.6 586.012 558.418C587.792 560.236 588.676 563.045 588.676 566.831V589.603H583.086V568.706C583.086 566.453 582.899 564.83 582.542 563.842C582.168 562.863 581.504 562.058 580.554 561.456C579.54 560.835 578.369 560.518 577.18 560.543C574.847 560.543 572.922 561.323 571.374 562.875C569.842 564.423 569.058 566.909 569.058 570.321V589.603H563.438V568.055C563.438 565.548 562.982 563.672 562.06 562.427C561.143 561.182 559.653 560.555 557.561 560.555C555.98 560.555 554.527 560.974 553.174 561.817C551.838 562.647 550.854 563.863 550.257 565.465C549.651 567.075 549.348 569.383 549.348 572.404V589.612H543.724V589.603Z" fill="black"/>
</svg>
