<svg width="800" height="800" viewBox="0 0 800 800" fill="none" xmlns="http://www.w3.org/2000/svg">
<path d="M301.639 382.757C301.639 358.221 294.643 345.625 280.65 344.936C275.081 344.673 269.648 345.559 264.359 347.613C260.138 349.123 257.297 350.619 255.803 352.13V410.695C264.753 416.312 272.701 418.924 279.632 418.513C294.296 417.541 301.639 405.635 301.639 382.757ZM318.899 383.775C318.899 396.24 315.976 406.587 310.096 414.814C303.543 424.127 294.461 428.922 282.851 429.185C274.097 429.463 265.08 426.722 255.801 420.973V474.201L240.79 468.846V350.7C243.253 347.679 246.424 345.084 250.266 342.882C259.201 337.676 270.055 335 282.834 334.868L283.046 335.081C294.724 334.934 303.722 339.729 310.045 349.451C315.942 358.37 318.899 369.8 318.899 383.775ZM410.638 418.708C410.638 435.428 408.963 447.005 405.614 453.443C402.247 459.879 395.841 465.02 386.382 468.848C378.712 471.869 370.417 473.512 361.518 473.792L359.036 464.332C368.085 463.102 374.458 461.869 378.153 460.637C385.428 458.174 390.421 454.398 393.164 449.338C395.364 445.217 396.448 437.35 396.448 425.707V421.798C386.183 426.464 375.427 428.779 364.178 428.779C356.786 428.779 350.267 426.464 344.65 421.798C338.343 416.723 335.191 410.287 335.191 402.486V340.009L350.202 334.868V397.751C350.202 404.467 352.369 409.642 356.704 413.271C361.039 416.9 366.657 418.643 373.538 418.509C380.419 418.361 387.792 415.701 395.625 410.494V337.133H410.636L410.638 418.708ZM469.234 428.365C467.59 428.503 465.941 428.574 464.291 428.577C455.801 428.577 449.18 426.558 444.453 422.501C439.738 418.445 437.374 412.846 437.374 405.701V346.577H427.093V337.135H437.374V312.056L452.368 306.719V337.135H469.234V346.577H452.368V405.29C452.368 410.924 453.878 414.914 456.899 417.247C459.494 419.168 463.617 420.268 469.233 420.548V428.365H469.234ZM560.12 427.133H545.11V369.192C545.11 363.296 543.731 358.221 540.988 353.986C537.819 349.189 533.418 346.791 527.767 346.791C520.885 346.791 512.281 350.42 501.95 357.679V427.133H486.941V288.638L501.95 283.908V346.988C511.541 340.007 522.019 336.51 533.401 336.51C541.35 336.51 547.787 339.187 552.715 344.525C557.659 349.861 560.122 356.513 560.122 364.462L560.12 427.133ZM639.903 380.393C639.903 370.966 638.114 363.182 634.548 357.023C630.311 349.519 623.726 345.559 614.825 345.15C598.368 346.102 590.156 357.893 590.156 380.493C590.156 390.855 591.864 399.51 595.313 406.457C599.714 415.31 606.317 419.679 615.121 419.531C631.642 419.397 639.903 406.358 639.903 380.393ZM656.343 380.491C656.343 393.91 652.91 405.077 646.061 413.994C638.521 423.98 628.112 428.988 614.825 428.988C601.654 428.988 591.389 423.979 583.982 413.994C577.264 405.077 573.913 393.91 573.913 380.491C573.913 367.879 577.542 357.269 584.803 348.631C592.473 339.467 602.555 334.868 615.022 334.868C627.485 334.868 637.635 339.467 645.453 348.631C652.713 357.269 656.343 367.879 656.343 380.491ZM742.398 427.133H727.387V365.908C727.387 359.192 725.369 353.952 721.328 350.174C717.288 346.414 711.899 344.59 705.183 344.737C698.058 344.868 691.273 347.2 684.836 351.718V427.133H669.825V349.863C678.464 343.574 686.413 339.467 693.672 337.546C700.52 335.756 706.563 334.868 711.77 334.868C715.332 334.868 718.685 335.212 721.837 335.903C727.733 337.266 732.53 339.795 736.223 343.507C740.346 347.613 742.398 352.538 742.398 358.304V427.133Z" fill="#646464"/>
<path d="M92.5342 289.192C84.8106 289.227 77.4357 289.886 70.9471 291.035C51.83 294.414 48.3591 301.482 48.3591 314.52V331.738H93.5351V337.477H31.4038C18.2749 337.477 6.77703 345.369 3.18142 360.381C-0.966846 377.59 -1.1505 388.327 3.18142 406.295C6.39287 419.67 14.0626 429.2 27.1915 429.2H42.7247V408.56C42.7247 393.648 55.6261 380.496 70.9471 380.496H116.071C128.632 380.496 138.659 370.154 138.659 357.539V314.518C138.659 302.275 128.33 293.077 116.071 291.034C108.308 289.743 100.258 289.155 92.5342 289.192ZM68.1029 303.039C72.7701 303.039 76.5797 306.912 76.5797 311.674C76.5797 316.419 72.7685 320.257 68.1029 320.257C63.4205 320.257 59.6261 316.42 59.6261 311.674C59.6261 306.912 63.4205 303.039 68.1029 303.039Z" fill="url(#paint0_linear_1_274)"/>
<path d="M144.292 337.475V357.536C144.292 373.089 131.106 386.179 116.07 386.179H70.9464C58.5858 386.179 48.3584 396.757 48.3584 409.136V452.154C48.3584 464.398 59.0037 471.599 70.9464 475.111C85.2463 479.316 98.9598 480.076 116.07 475.111C127.443 471.819 138.658 465.19 138.658 452.154V434.937H93.5344V429.199H161.246C174.377 429.199 179.268 420.039 183.834 406.294C188.552 392.144 188.351 378.533 183.834 360.38C180.589 347.31 174.392 337.475 161.246 337.475H144.292ZM118.913 446.415C123.595 446.415 127.389 450.252 127.389 454.998C127.389 459.76 123.595 463.633 118.913 463.633C114.245 463.633 110.436 459.76 110.436 454.998C110.436 450.253 114.247 446.415 118.913 446.415Z" fill="url(#paint1_linear_1_274)"/>
<path d="M771.629 323.752H774.261V307.246H780.494V305.278H765.394V307.246H771.628L771.629 323.752ZM782.829 323.752H785.077V308.677L789.956 323.75H792.458L797.545 308.727V323.752H799.998V305.28H796.753L791.195 321.106L786.457 305.28H782.829V323.752Z" fill="#646464"/>
<path opacity="0.444" d="M154.588 504.356C154.588 510.84 127.483 516.095 94.0456 516.095C60.6101 516.095 33.5049 510.84 33.5049 504.356C33.5049 497.873 60.6101 492.616 94.0456 492.616C127.483 492.616 154.588 497.873 154.588 504.356Z" fill="url(#paint2_radial_1_274)"/>
<defs>
<linearGradient id="paint0_linear_1_274" x1="-4.45462" y1="294.569" x2="99.721" y2="383.329" gradientUnits="userSpaceOnUse">
<stop stopColor="#5A9FD4"/>
<stop offset="1" stopColor="#306998"/>
</linearGradient>
<linearGradient id="paint1_linear_1_274" x1="138.81" y1="438.662" x2="101.434" y2="386.293" gradientUnits="userSpaceOnUse">
<stop stopColor="#FFD43B"/>
<stop offset="1" stopColor="#FFE873"/>
</linearGradient>
<radialGradient id="paint2_radial_1_274" cx="0" cy="0" r="1" gradientUnits="userSpaceOnUse" gradientTransform="translate(94.0263 504.086) rotate(-90) scale(11.7371 51.6011)">
<stop stopColor="#B8B8B8" stopOpacity="0.498"/>
<stop offset="1" stopColor="#7F7F7F" stopOpacity="0"/>
</radialGradient>
</defs>
</svg>
