<svg width="800" height="800" viewBox="0 0 800 800" fill="none" xmlns="http://www.w3.org/2000/svg">
<path d="M389.555 410.308C390.262 410.443 390.97 410.568 391.675 410.694L389.555 410.308ZM395.338 411.271C396.162 411.394 396.985 411.503 397.811 411.612L395.338 411.271ZM401.453 412.005C402.258 412.078 403.057 412.147 403.862 412.208L401.453 412.005ZM404.723 412.267C405.402 412.317 406.082 412.357 406.761 412.393L404.723 412.267ZM407.75 412.445C408.554 412.48 409.359 412.511 410.164 412.537L407.75 412.445ZM410.963 412.547C412.761 412.594 414.559 412.596 416.356 412.551L410.963 412.547ZM417.215 412.537C418.053 412.512 418.891 412.479 419.728 412.44L417.215 412.537ZM420.519 412.402C421.245 412.362 421.96 412.317 422.682 412.267L420.519 412.402ZM423.432 412.215C424.217 412.156 425.005 412.09 425.786 412.016L423.432 412.215ZM429.816 411.567C430.422 411.496 431.023 411.418 431.622 411.323L429.816 411.567ZM540.223 208.491C539.572 208.14 538.904 207.82 538.221 207.535L540.223 208.491ZM533.664 206.131C532.827 205.96 531.982 205.83 531.132 205.743L533.664 206.131ZM104.186 293.199C101.274 290.526 99.0604 287.181 97.7401 283.455C96.6658 280.343 95.2744 276.455 95.2744 273.154C95.343 258.269 104.03 247.214 113.382 242.095C117.632 239.772 119.21 238.177 119.859 237.358C119.547 237.22 119.215 237.136 118.876 237.107C106.148 237.107 99.6214 232.161 96.4173 227.975C93.3813 224.054 91.8313 219 91.8313 213.472C91.8313 210.786 92.21 207.975 92.9554 205.1C96.5428 199.174 99.9503 200.802 102.037 203.834C103.367 205.731 112.48 212.192 123.709 213.216C131.88 213.992 136.283 217.989 138.574 221.181C141.215 224.878 142.228 229.331 142.228 233.12C142.228 234.67 142.053 236.125 141.719 237.419C140.488 242.412 135.228 246.913 127.902 252.647L123.746 256.092C117.663 261.417 114.314 267.342 114.314 272.363C114.314 273.618 114.534 274.841 114.958 275.97C115.133 276.434 115.343 276.881 115.592 277.304C118.311 281.907 125.994 284.794 137.14 280.894C142.292 279.108 152.209 272.865 158.265 266.862C165.39 259.753 174.9 258.047 184.058 257.323C191.999 256.724 196.888 254.777 200.331 250.905C210.507 239.44 220.299 237.829 229.464 237.147C232.971 236.877 233.16 236.627 233.617 236.009C238.669 229.281 243.858 225.72 248.515 223.647C252.065 222.069 255.307 221.349 257.962 220.767L261.185 219.975L261.989 219.691C267.091 218.048 271.04 216.688 281.419 209.674L281.862 209.395L281.864 209.39L282.3 209.118L282.304 209.115L282.742 208.857L282.749 208.855L283.187 208.604L283.194 208.602L283.634 208.37L283.648 208.365L284.084 208.138L284.098 208.133L284.536 207.92L284.555 207.916L284.995 207.712L285.011 207.703L285.454 207.518L285.473 207.511L285.913 207.329L285.937 207.324L286.379 207.158L286.401 207.147L286.838 206.99L287.304 206.834L287.335 206.827L287.771 206.687L287.799 206.68L288.242 206.553L288.272 206.545L288.71 206.425L288.743 206.415L289.183 206.311L289.224 206.302L289.657 206.202L289.692 206.193L290.135 206.103L290.173 206.093L290.61 206.013L290.651 206.006L291.088 205.933L291.129 205.928L291.562 205.864L291.607 205.854L292.042 205.805L292.087 205.795L292.515 205.748L292.563 205.746L292.996 205.705L293.045 205.701L293.476 205.67L293.526 205.665L293.949 205.639L293.999 205.637L294.427 205.618L294.905 205.604H294.955L295.381 205.599H295.911L296.332 205.604L296.382 205.606H296.432C296.734 205.613 297.037 205.632 297.34 205.649L297.757 205.675L297.816 205.679L298.225 205.71L298.287 205.715L298.696 205.755L298.76 205.762L299.167 205.802L299.233 205.807L299.638 205.857L299.702 205.866L300.104 205.916L300.173 205.928L300.57 205.987L300.637 205.999L301.036 206.06L301.107 206.075L301.498 206.143L301.571 206.155L301.959 206.226L302.03 206.243C302.65 206.359 303.261 206.496 303.86 206.642L304.236 206.737L304.312 206.758C304.915 206.915 305.511 207.08 306.098 207.255L306.446 207.364L306.531 207.39C307.695 207.757 308.824 208.171 309.917 208.609L310.225 208.737L310.627 208.902C332.824 178.748 367.917 158.683 407.802 156.868V156.859C409.766 156.771 411.731 156.726 413.697 156.724C414.996 156.725 416.295 156.745 417.594 156.783C418.24 156.805 418.886 156.831 419.53 156.857H419.537C420.176 156.887 420.822 156.918 421.463 156.958C460.058 159.277 494.049 178.715 515.94 207.776C519.066 206.69 522.471 205.902 525.947 205.665L526.039 205.66L526.368 205.639L526.711 205.623L526.794 205.618L526.884 205.615L527.22 205.606L527.31 205.601L527.646 205.599L527.736 205.597L528.079 205.594H528.162L528.505 205.597H528.59L529.014 205.604L529.359 205.618L529.435 205.62L529.781 205.637L529.861 205.642L530.209 205.665L530.275 205.67L530.628 205.698L530.696 205.703L531.051 205.739L531.115 205.746C531.965 205.833 532.81 205.962 533.647 206.134L534.019 206.209L534.068 206.221L534.435 206.309L534.487 206.318L534.856 206.413L534.906 206.425L535.28 206.524L535.32 206.536L535.704 206.642L535.739 206.654L536.113 206.77L536.156 206.782L536.537 206.908L536.57 206.917L536.981 207.061L537.367 207.199L537.391 207.21L537.774 207.359L537.798 207.369L538.188 207.525L538.212 207.537C538.886 207.821 539.554 208.136 540.214 208.493L540.226 208.5L540.616 208.708L540.621 208.713L541.011 208.938L541.018 208.94L541.409 209.177L541.414 209.179L541.799 209.423L542.19 209.676C549.341 214.537 553.473 216.678 556.999 218.077C558.584 218.709 560.056 219.184 561.618 219.693L562.439 219.977L565.695 220.77C567.46 221.158 569.476 221.605 571.66 222.32C577.124 224.099 583.653 227.554 589.988 236.011C590.447 236.629 590.65 236.88 594.174 237.15C603.329 237.833 613.105 239.443 623.323 250.908C626.74 254.779 631.605 256.724 639.544 257.325C648.757 258.049 658.236 259.753 665.347 266.864C671.41 272.867 681.315 279.11 686.481 280.896C697.622 284.796 705.343 281.909 707.998 277.307C708.58 276.337 708.971 275.269 709.17 274.141C709.274 273.555 709.327 272.961 709.328 272.366C709.328 267.344 705.975 261.419 699.908 256.095L699.153 255.468L695.712 252.649C688.414 246.916 683.152 242.415 681.883 237.422C681.55 236.127 681.405 234.672 681.405 233.122C681.405 229.331 682.442 224.88 685.03 221.184C687.338 217.992 691.789 213.995 699.908 213.219C711.195 212.194 720.258 205.734 721.584 203.836C723.706 200.805 727.081 199.177 730.654 205.102C731.411 207.977 731.79 210.788 731.79 213.474C731.79 219.033 730.24 224.057 727.206 227.978C723.981 232.164 717.476 237.109 704.726 237.109C704.456 237.109 704.08 237.235 703.765 237.36C704.397 238.181 705.975 239.776 710.234 242.098C719.586 247.218 728.283 258.274 728.361 273.156C728.361 276.457 726.986 280.343 725.876 283.457C724.716 286.723 722.878 289.706 720.481 292.21C720.157 292.546 719.818 292.877 719.461 293.202C714.193 298.095 705.419 301.936 690.8 301.063C689.26 300.969 687.724 300.83 686.192 300.646C685.814 308.022 683.79 316.789 680.944 321.212C680.078 322.601 679.907 323.534 679.907 323.99C679.907 324.182 679.926 324.293 679.926 324.374C680.016 324.404 686.412 328.179 686.412 328.179L687.444 328.702C687.444 328.702 688.045 328.986 688.123 329.05C688.216 329.016 690.333 328.922 690.333 328.922L690.752 328.863L690.795 328.858C694.794 328.477 700.902 326.52 703.497 333.77C704.177 335.694 704.591 337.37 704.981 338.853C705.774 341.887 706.453 344.14 709.108 346.187C709.108 346.187 710.421 345.06 711.912 343.735C713.064 342.718 714.193 341.676 715.299 340.609C717.149 338.714 720.573 339.677 723.041 340.609C725.538 341.556 728.628 343.707 730.812 344.951C733.011 346.184 734.222 347.749 734.854 349.616C735.514 351.478 737.041 352.711 739.369 353.944C741.617 355.221 744.84 359.315 744.84 364.841C744.84 365.688 744.935 366.412 745.174 367.181C745.337 367.69 745.56 368.22 745.865 368.823C749.007 375.158 746.485 378.348 744.665 379.692C742.218 381.524 737.902 382.281 733.846 381.618L733.879 382.659L727.956 381.869C725.661 381.583 722.634 382.17 720.826 382.546L720.4 382.659C716.184 383.497 710.67 382.07 707.572 377.039C707.459 376.852 707.345 376.665 707.239 376.467C705.658 373.691 703.197 371.114 701.992 370.402C700.253 370.88 697.506 371.528 694.236 371.194C691.202 370.889 687.702 369.725 684.143 366.776C683.554 366.287 682.96 365.745 682.371 365.158C677.141 359.912 670.241 358.837 665.903 359.502L663.317 359.961C657.978 360.927 651.31 362.157 645.15 358.399C643.617 357.465 641.407 356.502 639.239 355.586C633.647 353.151 627.866 350.64 627.078 345.347C626.946 344.402 625.923 342.677 625.083 341.305C624.345 340.091 623.541 338.763 622.918 337.341C622.32 335.983 621.889 334.537 621.849 333.027C620.018 333.498 618.126 333.691 616.238 333.6C615.571 333.567 614.906 333.501 614.246 333.404L611.818 333.027C607.726 332.329 599.158 330.921 596.429 331.918C590.996 333.877 573.899 334.823 569.211 333.751C569.211 333.751 567.486 333.373 565.861 333.027C564.299 334.639 562.557 336.151 560.726 337.497C564.157 337.684 567.174 337.258 569.247 337.793L573.554 338.929C574.928 338.522 578.291 338.569 580.201 338.742L585.246 339.121L591.001 339.674C593.774 340.231 596.718 341.428 596.214 346.861C596.02 348.536 595.083 350.905 593.672 352.297C592.896 353.149 589.889 357.51 589.228 358.882L589.013 359.311C587.842 361.807 586.105 364.1 581.048 364.1C580.406 364.091 579.763 364.117 579.124 364.176C578.97 364.585 578.556 365.345 578.556 365.345C577.418 367.934 575.773 371.538 572.631 373.622L571.791 374.226C569.268 376.027 565.065 378.994 558.631 376.658L556.416 375.866C550.808 373.845 542.327 370.813 538.046 368.473L537.445 368.142C533.458 365.96 532.575 365.522 531.127 365.726L530.323 365.851C527.265 366.279 521.501 367.053 517.516 360.446L517.151 359.874C498.256 385.809 469.855 404.373 437.076 410.433L436.932 410.464C435.815 410.668 434.688 410.857 433.562 411.034L433.143 411.096L431.603 411.323C431.004 411.413 430.403 411.493 429.797 411.569L428.699 411.706L426.967 411.893L425.767 412.019C424.986 412.092 424.198 412.158 423.413 412.218L422.667 412.267C421.946 412.317 421.231 412.364 420.505 412.402L419.714 412.445C418.876 412.485 418.043 412.516 417.201 412.542L416.347 412.556C414.549 412.601 412.751 412.599 410.954 412.551L410.149 412.542C409.345 412.516 408.54 412.485 407.736 412.45L406.751 412.395C406.072 412.357 405.393 412.322 404.714 412.27L403.85 412.213C403.047 412.151 402.244 412.083 401.441 412.009L400.253 411.886L398.68 411.716L397.802 411.614C396.976 411.513 396.151 411.398 395.329 411.271L394.333 411.124L392.572 410.85L391.666 410.698C390.958 410.573 390.251 410.45 389.545 410.313L388.019 410.007L387.238 409.849C386.195 409.622 385.144 409.397 384.108 409.146L383.833 409.082L382.203 408.685L381.365 408.469C380.392 408.218 379.424 407.949 378.459 407.679L378.114 407.577C349.372 399.285 324.811 381.185 308.254 357.143L306.074 360.461C302.127 367.067 296.375 366.291 293.277 365.865L292.473 365.74C291.029 365.536 290.116 365.974 286.166 368.156L285.532 368.487C281.266 370.828 272.818 373.859 267.179 375.88L264.959 376.673C258.53 379.008 254.313 376.036 251.837 374.24L250.969 373.636C247.824 371.554 246.196 367.95 245.041 365.359C245.041 365.359 244.663 364.599 244.478 364.19C243.837 364.131 243.193 364.106 242.55 364.114C237.54 364.114 235.753 361.821 234.601 359.325L234.397 358.896C233.718 357.524 230.748 353.163 229.927 352.311C228.538 350.922 227.552 348.551 227.395 346.875C226.875 341.442 229.859 340.245 232.606 339.689L238.363 339.135L243.418 338.756C245.297 338.584 248.662 338.536 250.034 338.943L254.346 337.807C256.397 337.273 259.445 337.699 262.846 337.512C261.038 336.142 259.328 334.648 257.727 333.042C256.083 333.387 254.374 333.766 254.374 333.766C249.672 334.838 232.606 333.891 227.206 331.932C224.461 330.936 215.9 332.341 211.789 333.042L209.323 333.418C206.808 333.804 204.24 333.676 201.775 333.042C201.645 336.134 199.969 338.943 198.533 341.319C197.698 342.692 196.64 344.417 196.512 345.361C195.774 350.654 189.922 353.165 184.347 355.6C182.181 356.516 180.004 357.479 178.459 358.414C172.344 362.171 165.645 360.941 160.29 359.975L157.697 359.516C153.383 358.851 146.478 359.926 141.236 365.172C133.221 373.168 125.247 371.41 121.614 370.416C120.412 371.128 117.935 373.705 116.366 376.481C113.337 381.98 107.551 383.542 103.192 382.674L102.754 382.56C100.965 382.184 97.9768 381.597 95.6885 381.883L89.73 382.674L89.7939 381.632C85.7167 382.295 81.3862 381.535 78.9299 379.706C77.1244 378.362 74.5948 375.172 77.7894 368.838C78.53 367.318 78.7832 366.263 78.7832 364.855C78.7832 359.327 81.9802 355.236 84.2235 353.958C86.5756 352.725 88.1233 351.492 88.7527 349.63C89.3703 347.763 90.5819 346.199 92.7826 344.966C94.9597 343.721 98.0572 341.57 100.54 340.623C103.017 339.691 106.441 338.728 108.308 340.623C110.19 342.455 114.499 346.199 114.499 346.199C118.453 343.146 118.074 339.627 120.124 333.78C122.686 326.529 128.818 328.486 132.798 328.867L133.254 328.931C133.254 328.931 135.401 329.026 135.465 329.059C135.576 328.995 136.177 328.711 136.177 328.711L137.173 328.188C137.173 328.188 143.6 324.414 143.664 324.383C143.692 324.305 143.692 324.191 143.692 324C143.692 323.543 143.536 322.611 142.668 321.222C139.809 316.797 137.788 308.032 137.422 300.656C136.39 300.779 135.394 300.88 134.414 300.958C118.848 302.208 109.598 298.27 104.186 293.199Z" fill="#F8EE3F"/>
<path d="M142.507 295.267C142.507 295.267 141.21 307.821 146.866 318.883C146.866 318.883 151.057 324.823 146.705 328.638L138.042 333.673C138.042 333.673 136.877 334.539 133.013 334.246C133.013 334.246 127.672 332.923 125.888 335.282C125.888 335.282 124.338 339.819 122.398 343.557C122.398 343.557 118.453 352.621 111.924 355.524C111.924 355.524 106.72 356.717 105.142 361.229C105.142 361.229 103.464 364.396 100.104 364.535C100.104 364.535 97.5982 365.33 95.9394 370.913C95.9394 370.913 95.0354 374.524 95.0827 377.292C95.0827 377.292 99.3564 376.731 102.142 377.739C102.142 377.739 108.99 380.04 112.052 374.398C112.052 374.398 117.968 364.268 122.355 365.792C122.355 365.792 131.167 368.74 137.391 362.308C137.391 362.308 145.941 352.968 158.016 354.89C158.016 354.89 171.618 357.644 175.861 354.507C175.861 354.507 184.439 350.022 187.657 348.91C187.657 348.91 191.595 347.753 192.002 343.441C192.002 343.441 194.396 337.376 196.138 335.356L189.65 335.282C189.65 335.282 183.774 345.164 173.79 348.143C173.79 348.143 168.331 350.325 157.372 348.553C157.372 348.553 141.638 344.989 127.819 359.914C127.819 359.914 125.931 362.642 123.235 361.551C123.235 361.551 130.872 348.529 147.637 345.443C147.637 345.443 153.125 344.277 157.701 345.02C157.701 345.02 180.284 345.682 190.755 323.45C190.755 323.45 189.621 304.496 194.621 300.007C194.621 300.007 196.552 299.415 196.167 303.081C196.167 303.081 192.731 322.937 199.184 326.782C199.184 326.782 202.93 329.726 209.861 328.638C209.861 328.638 220.367 326.127 228.907 327.589C228.907 327.589 242.041 330.706 253.326 329.265C253.326 329.265 250.396 324.778 250.971 319.413C250.971 319.413 252.588 315.573 254.441 318.043C254.441 318.043 258.783 332.388 270.65 336.693C270.65 336.693 281.249 340.552 281.076 353.995C281.076 353.995 279.453 355.839 265.399 360.832C265.399 360.832 260.148 362.491 258.456 358.567C258.456 358.567 251.679 344.061 245.78 344.509L234.703 345.408C234.703 345.408 230.924 346.376 233.706 349.405C233.706 349.405 237.5 354.447 239.05 357.457C239.05 357.457 239.502 360.03 243.065 359.483C243.065 359.483 248.009 357.034 250.796 366.23C250.796 366.23 253.347 370.827 257.666 372.297C257.666 372.297 261.705 373.646 265.496 371.518C265.496 371.518 283.79 364.803 286.976 362.422C286.976 362.422 290.932 360.207 294.07 361.272C294.07 361.272 299.558 362.581 301.817 358.25L307.487 349.478C307.487 349.478 308.732 347.318 308.559 344.603C308.559 344.603 309.073 341.915 306.806 339.182C306.806 339.182 304.664 336.917 304.326 335.278L300.284 325.779C300.284 325.779 298.646 323.242 296.848 322.199L291.453 322.594C291.453 322.594 295.166 332.083 297.885 335.95C297.885 335.95 301.564 341.577 301.377 345.155C301.377 345.155 301.133 347.663 300.144 348.709C300.144 348.709 298.9 350.701 298.398 351.669C298.398 351.669 296.763 355.219 295.435 356.007C295.435 356.007 293.14 357.365 292.581 357.42C292.581 357.42 291.583 357.696 292.324 355.907C292.324 355.907 295.348 349.544 295.149 346.141C295.149 346.141 295.736 342.597 293.227 340.521C293.227 340.521 287.349 331.243 286.507 328.47C286.507 328.47 284.664 324.759 283.682 324.122C283.682 324.122 281.628 321.422 284.943 320.159C284.943 320.159 293.201 318.294 294.68 317.281C294.68 317.281 298.651 316.079 301.231 307.809C301.231 307.809 304.782 298.164 304.73 292.21C304.73 292.21 311.692 305.632 300.589 319.281C300.589 319.281 309.376 321.872 313.01 319.281C313.01 319.281 323.955 317.681 326.068 317.099C326.068 317.099 328.82 316.434 327.249 318.386C327.249 318.386 323.948 323.081 323.668 326.158C323.668 326.158 323.455 328.607 321.449 330.041C321.449 330.041 315.228 334.397 314.681 338.569C314.681 338.569 313.351 342.585 316.098 341.624C316.098 341.624 319.823 339.899 321.139 341.636C321.139 341.636 321.524 341.818 320.088 343.43C320.088 343.43 316.352 346.681 316.072 351.045C316.072 351.045 316.763 356.08 318.084 357.699C318.084 357.699 319.766 360.032 322.426 359.291C322.426 359.291 323.131 358.721 324.404 359.104C324.404 359.104 325.72 359.1 329.156 357.912C329.156 357.912 334.364 356.48 336.106 355.865C336.106 355.865 342.736 353.494 346.007 353.659C346.007 353.659 348.134 353.425 350.846 353.967C350.846 353.967 359.138 354.909 364.663 348.801C364.663 348.801 368.868 345.467 370.295 348.704C370.295 348.704 380.383 362.24 396.711 358.674C396.711 358.674 383.719 353.33 380.35 346.054C380.35 346.054 379.9 339.875 373.095 331.295C373.095 331.295 371.014 328.448 373.021 327.708C373.021 327.708 374.183 326.839 376.717 329.383C376.717 329.383 383.182 335.585 385.518 341.262C385.518 341.262 393.547 353.394 405.118 349.317C405.118 349.317 396.034 345.813 391.765 339.277C391.765 339.277 389.127 330.431 380.257 323.85C380.257 323.85 379.91 313.909 375.773 308.322C375.773 308.322 373.665 298.987 373.097 296.805C373.097 296.805 370.865 288.606 370.88 286.341C370.88 286.341 371.618 275.631 364.713 267.294C364.713 267.294 360.087 258.376 352.881 252.162C352.881 252.162 347.405 245.396 343.333 241.253C343.333 241.253 337.975 234.972 326.295 226.778C326.295 226.778 321.006 222.932 317.132 218.798C317.132 218.798 296.529 203.968 281.644 215.864C281.644 215.864 271.365 222.856 262.78 225.022C262.78 225.022 245.136 227.076 237.613 239.322C237.613 239.322 236.97 241.584 229.859 242.445C229.859 242.445 214.238 240.559 202.738 255.922C202.738 255.922 197.395 261.137 186.817 262.405C186.817 262.405 169.566 260.64 158.336 273.866C158.336 273.866 129.996 298.587 113.098 282.555C113.098 282.555 104.342 274.266 114.352 259.256C114.352 259.256 120.701 251.594 131.532 243.588C131.532 243.588 140.318 237.398 136.291 227.774C136.291 227.774 134.163 218.474 120.994 218.228C120.994 218.228 104.47 215.036 97.7875 206.692C97.7875 206.692 90.3264 232.97 119.61 232.533C119.61 232.533 127.242 233.661 124.577 239.719C124.577 239.719 120.836 244.902 115.814 246.787C115.814 246.787 106.981 250.652 102.989 263.515C102.989 263.515 94.0676 286.034 115.833 294.725C124.21 297.619 133.886 296.767 142.507 295.267ZM100.601 348.33C101.782 347.344 103.512 346.787 105.047 347.147C108.512 347.893 106.415 350.893 106.415 350.893C105.012 353.517 100.433 357.945 100.433 357.945C96.3606 360.995 93.1352 357.363 93.1352 357.363C90.1181 354.388 94.0439 352.949 94.0439 352.949C96.3274 352.022 100.601 348.33 100.601 348.33ZM91.8692 362.405C91.8692 362.405 93.1352 363.34 92.4584 365.186C92.4584 365.186 89.226 374.034 89.3774 377.004C89.3774 377.004 82.2239 378.281 81.2324 374.751C81.2324 374.751 81.0408 373.388 82.2074 371.412C82.2074 371.412 83.4213 369.568 83.736 366.196C83.736 366.196 83.6296 357.711 89.1266 359.959C90.2175 360.569 91.0789 361.457 91.8692 362.405ZM344.005 344.45C342.746 344.419 342.426 343.957 342.578 342.571C343.423 338.716 346.513 337.052 346.513 337.052C352.311 333.588 353.016 337.057 353.016 337.057C354.078 343.245 349.187 344.024 349.187 344.024C348.21 344.36 344.005 344.45 344.005 344.45ZM361.495 316.815C361.601 313.912 361.847 307.459 358.896 305.154C357.808 304.288 353.501 299.572 353.501 299.572C352.846 298.429 352.342 298.358 352.342 298.358C351.454 298.272 350.309 300.336 350.309 300.336C347.242 306.254 344.182 305.532 344.182 305.532C344.156 304.453 344.878 303.249 344.878 303.249C346.358 300.374 347.825 297.492 349.277 294.602C349.724 293.575 350.136 292.207 350.136 292.207C353.096 287.619 355.886 291.112 355.886 291.112C357.131 293.542 363.769 301.46 363.769 301.46C365.241 303.211 365.383 305.092 365.383 305.092C366.921 315.937 361.495 316.815 361.495 316.815ZM300.36 251.347C299.453 249.717 299.827 248.053 300.738 246.468C302.792 243.321 304.711 246.754 304.711 246.754C311.803 256.641 306.567 271.443 306.567 271.443C305.838 257.819 300.36 251.347 300.36 251.347ZM681.138 295.267C681.138 295.267 682.435 307.821 676.779 318.883C676.779 318.883 672.588 324.823 676.94 328.638L685.605 333.673C685.605 333.673 686.767 334.539 690.634 334.246C690.634 334.246 695.972 332.923 697.754 335.282C697.754 335.282 699.307 339.819 701.245 343.557C701.245 343.557 705.196 352.621 711.725 355.524C711.725 355.524 716.927 356.717 718.5 361.229C718.5 361.229 720.183 364.396 723.538 364.535C723.538 364.535 726.049 365.33 727.705 370.913C727.705 370.913 728.612 374.524 728.567 377.292C728.567 377.292 724.291 376.731 721.503 377.739C721.503 377.739 714.657 380.04 711.595 374.398C711.595 374.398 705.679 364.268 701.292 365.792C701.292 365.792 692.482 368.74 686.256 362.308C686.256 362.308 677.709 352.968 665.631 354.89C665.631 354.89 652.034 357.644 647.789 354.507C647.789 354.507 639.211 350.022 635.992 348.91C635.992 348.91 632.052 347.753 631.65 343.441C631.65 343.441 629.253 337.376 627.511 335.356L633.997 335.282C633.997 335.282 639.871 345.164 649.854 348.143C649.854 348.143 655.318 350.325 666.272 348.553C666.272 348.553 682.008 344.989 695.828 359.914C695.828 359.914 697.719 362.642 700.409 361.551C700.409 361.551 692.778 348.529 676.01 345.443C676.01 345.443 670.525 344.277 665.943 345.02C665.943 345.02 643.361 345.682 632.885 323.45C632.885 323.45 634.023 304.496 629.023 300.007C629.023 300.007 627.097 299.415 627.476 303.081C627.476 303.081 630.909 322.937 624.461 326.782C624.461 326.782 620.713 329.726 613.782 328.638C613.782 328.638 603.277 326.127 594.74 327.589C594.74 327.589 581.602 330.706 570.316 329.265C570.316 329.265 573.248 324.778 572.673 319.413C572.673 319.413 571.055 315.573 569.202 318.043C569.202 318.043 564.86 332.388 552.99 336.693C552.99 336.693 542.391 340.552 542.564 353.995C542.564 353.995 544.192 355.839 558.248 360.832C558.248 360.832 563.501 362.491 565.193 358.567C565.193 358.567 571.963 344.061 577.865 344.509L588.947 345.408C588.947 345.408 592.723 346.376 589.938 349.405C589.938 349.405 586.15 354.447 584.595 357.457C584.595 357.457 584.148 360.03 580.582 359.483C580.582 359.483 575.638 357.034 572.846 366.23C572.846 366.23 570.3 370.827 565.981 372.297C565.981 372.297 561.939 373.646 558.151 371.518C558.151 371.518 539.857 364.803 536.674 362.422C536.674 362.422 532.715 360.207 529.579 361.272C529.579 361.272 524.097 362.581 521.837 358.25L516.167 349.478C516.167 349.478 514.918 347.318 515.093 344.603C515.093 344.603 514.577 341.915 516.846 339.182C516.846 339.182 518.99 336.917 519.326 335.278L523.37 325.779C523.37 325.779 525.008 323.242 526.804 322.199L532.204 322.594C532.204 322.594 528.486 332.083 525.765 335.95C525.765 335.95 522.085 341.577 522.272 345.155C522.272 345.155 522.518 347.663 523.505 348.709C523.505 348.709 524.75 350.701 525.254 351.669C525.254 351.669 526.882 355.219 528.214 356.007C528.214 356.007 530.507 357.365 531.068 357.42C531.068 357.42 532.069 357.696 531.319 355.907C531.319 355.907 528.304 349.544 528.496 346.141C528.496 346.141 527.914 342.597 530.417 340.521C530.417 340.521 536.3 331.243 537.147 328.47C537.147 328.47 538.983 324.759 539.968 324.122C539.968 324.122 542.022 321.422 538.707 320.159C538.707 320.159 530.45 318.294 528.971 317.281C528.971 317.281 525.001 316.079 522.419 307.809C522.419 307.809 518.869 298.164 518.919 292.21C518.919 292.21 511.957 305.632 523.063 319.281C523.063 319.281 514.276 321.872 510.642 319.281C510.642 319.281 499.699 317.681 497.579 317.099C497.579 317.099 494.834 316.434 496.401 318.386C496.401 318.386 499.699 323.081 499.983 326.158C499.983 326.158 500.192 328.607 502.203 330.041C502.203 330.041 508.424 334.397 508.966 338.569C508.966 338.569 510.298 342.585 507.549 341.624C507.549 341.624 503.826 339.899 502.511 341.636C502.511 341.636 502.125 341.818 503.561 343.43C503.561 343.43 507.298 346.681 507.575 351.045C507.575 351.045 506.884 356.08 505.561 357.699C505.561 357.699 503.881 360.032 501.221 359.291C501.221 359.291 500.518 358.721 499.238 359.104C499.238 359.104 497.925 359.1 494.489 357.912C494.489 357.912 489.28 356.48 487.539 355.865C487.539 355.865 480.908 353.494 477.636 353.659C477.636 353.659 475.508 353.425 472.796 353.967C472.796 353.967 464.502 354.909 458.977 348.801C458.977 348.801 454.772 345.467 453.35 348.704C453.35 348.704 443.259 362.24 426.929 358.674C426.929 358.674 439.928 353.33 443.295 346.054C443.295 346.054 443.74 339.875 450.545 331.295C450.545 331.295 452.623 328.448 450.616 327.708C450.616 327.708 449.457 326.839 446.92 329.383C446.92 329.383 440.462 335.585 438.124 341.262C438.124 341.262 430.091 353.394 418.524 349.317C418.524 349.317 427.604 345.813 431.873 339.277C431.873 339.277 434.511 330.431 443.387 323.85C443.387 323.85 443.733 313.909 447.871 308.322C447.871 308.322 449.982 298.987 450.545 296.805C450.545 296.805 452.775 288.606 452.76 286.341C452.76 286.341 452.022 275.631 458.929 267.294C458.929 267.294 463.553 258.376 470.766 252.162C470.766 252.162 476.239 245.396 480.31 241.253C480.31 241.253 485.669 234.972 497.35 226.778C497.35 226.778 502.636 222.932 506.508 218.798C506.508 218.798 527.109 203.968 541.998 215.864C541.998 215.864 552.278 222.856 560.868 225.022C560.868 225.022 578.506 227.076 586.024 239.322C586.024 239.322 586.668 241.584 593.779 242.445C593.779 242.445 609.399 240.559 620.902 255.922C620.902 255.922 626.245 261.137 636.825 262.405C636.825 262.405 654.067 260.64 665.297 273.866C665.297 273.866 693.639 298.587 710.54 282.555C710.54 282.555 719.291 274.266 709.283 259.256C709.283 259.256 702.937 251.594 692.108 243.588C692.108 243.588 683.315 237.398 687.347 227.774C687.347 227.774 689.474 218.474 702.643 218.228C702.643 218.228 719.167 215.036 725.848 206.692C725.848 206.692 733.314 232.97 704.025 232.533C704.025 232.533 696.391 233.661 699.058 239.719C699.058 239.719 702.799 244.902 707.821 246.787C707.821 246.787 716.654 250.652 720.649 263.515C720.649 263.515 729.572 286.034 707.797 294.725C699.432 297.619 689.758 296.767 681.138 295.267ZM723.046 348.33C721.863 347.344 720.133 346.787 718.602 347.147C715.133 347.893 717.232 350.893 717.232 350.893C718.637 353.517 723.216 357.945 723.216 357.945C727.294 360.995 730.514 357.363 730.514 357.363C733.527 354.388 729.598 352.949 729.598 352.949C727.32 352.022 723.046 348.33 723.046 348.33ZM731.773 362.405C731.773 362.405 730.514 363.34 731.184 365.186C731.184 365.186 734.416 374.034 734.267 377.004C734.267 377.004 741.425 378.281 742.41 374.751C742.41 374.751 742.602 373.388 741.437 371.412C741.437 371.412 740.223 369.568 739.909 366.196C739.909 366.196 740.017 357.711 734.52 359.959C733.427 360.569 732.566 361.457 731.773 362.405ZM479.637 344.45C480.899 344.419 481.223 343.957 481.067 342.571C480.22 338.716 477.134 337.052 477.134 337.052C471.336 333.588 470.629 337.057 470.629 337.057C469.571 343.245 474.46 344.024 474.46 344.024C475.437 344.36 479.637 344.45 479.637 344.45ZM462.152 316.815C462.044 313.912 461.795 307.459 464.751 305.154C465.844 304.288 470.146 299.572 470.146 299.572C470.802 298.429 471.306 298.358 471.306 298.358C472.188 298.272 473.341 300.336 473.341 300.336C476.403 306.254 479.467 305.532 479.467 305.532C479.491 304.453 478.764 303.249 478.764 303.249C477.285 300.374 475.819 297.492 474.368 294.602C474.043 293.818 473.757 293.019 473.509 292.207C470.548 287.619 467.761 291.112 467.761 291.112C466.516 293.542 459.881 301.46 459.881 301.46C459.003 302.49 458.44 303.751 458.26 305.092C456.729 315.937 462.152 316.815 462.152 316.815ZM523.285 251.347C524.191 249.717 523.817 248.053 522.906 246.468C520.852 243.321 518.938 246.754 518.938 246.754C511.844 256.641 517.08 271.443 517.08 271.443C517.805 257.819 523.285 251.347 523.285 251.347Z" fill="#CC2729"/>
<path d="M3.05176e-05 456.227V637.587H36.5958V490.84H53.8371C53.8371 490.84 80.7521 489.628 80.7521 514.13C80.7521 538.631 56.8566 538.02 56.8566 538.02H48.0845V579.765L84.6873 637.592H127.63L76.5186 563.438C76.5186 563.438 118.559 559.808 118.559 514.134C118.559 468.468 86.8005 456.234 44.4616 456.234L3.05176e-05 456.227ZM535.048 541.056C535.048 541.056 551.073 528.591 551.073 504.967C551.073 481.332 533.908 460.025 497.357 460.025H436.144V637.59H511.541C511.541 637.59 565.581 636.977 565.581 588.142C565.584 559.793 554.578 548.936 535.048 541.056ZM505.556 606.685H472.744V490.987H490.281C490.281 490.987 514.115 489.198 514.115 509.991C514.115 530.784 495.156 528.95 495.156 528.95H484.235V560.12H505.549C511.136 560.12 528.936 562.829 528.936 583.313C528.934 603.791 505.556 606.685 505.556 606.685ZM765.82 452.661H800V637.59H765.82V452.661ZM706.997 452.661H741.627V637.59H706.997V452.661ZM575.882 529.258H610.961V591.256C610.961 591.256 612.182 612.135 631.835 612.135C651.487 612.135 651.196 591.256 651.196 591.256V529.551H686.576V593.381C686.576 593.381 691.117 643.286 632.739 643.286C574.368 643.286 575.882 599.43 575.882 591.566V529.258ZM343.295 452.661V536.52C343.295 536.52 326.357 523.517 306.988 523.517C287.638 523.517 254.973 537.126 254.973 580.071C254.973 623.018 282.801 639.36 306.692 639.36C330.59 639.36 343.898 623.628 343.898 623.628V637.595H378.371V452.663L343.295 452.661ZM316.673 609.101C314.856 609.101 292.172 609.406 292.172 581.583C292.172 553.752 316.972 552.846 316.972 552.846C316.972 552.846 344.802 553.752 344.802 580.975C344.802 608.197 318.486 609.101 316.673 609.101ZM186.01 523.512C244.686 523.512 242.266 580.679 242.266 580.679V589.747H162.723C162.723 602.747 173.608 613.943 188.431 613.943C203.249 613.943 210.812 599.728 210.812 599.728L238.936 613.637C225.933 633.304 208.391 641.161 188.734 641.161C127.634 641.161 126.425 590.352 126.425 584.004C126.425 577.648 127.339 523.512 186.01 523.512ZM163.324 568.873H206.884C206.884 568.873 205.069 548.314 185.409 548.314C165.749 548.312 163.324 568.873 163.324 568.873Z" fill="#CC2729"/>
</svg>
