<svg width="801" height="800" viewBox="0 0 801 800" fill="none" xmlns="http://www.w3.org/2000/svg">
<path fill-rule="evenodd" clip-rule="evenodd" d="M433.05 396.53C433.05 396.53 426.579 392.53 422.579 390.982C422.579 390.982 410.194 385.242 407.737 382.511C407.737 382.511 402.91 377.962 405.736 372.679C405.736 372.679 406.919 369.221 412.02 369.221C412.02 369.221 418.661 369.587 418.661 375.044V382.743H442.459L442.417 371.404C442.417 371.404 444.247 352.836 414.386 352.018C414.386 352.018 390.899 350.474 384.163 363.125C384.163 363.125 381.519 365.947 381.519 375.775V382.876C381.519 382.876 381.25 391.069 385.433 396.348C385.433 396.348 387.799 399.809 393.626 403.628C393.626 403.628 405.458 409.998 412.56 413.646C412.56 413.646 419.727 417.739 418.785 424.251C418.785 424.251 418.2 430.937 411.277 430.663C411.277 430.663 404.948 430.381 404.948 423.823V416.128H379.589V427.305C379.589 427.305 378.88 448.679 411.464 448.679C411.464 448.679 442.6 449.31 444.052 426.745V417.643C444.048 417.643 445.152 403.814 433.05 396.53ZM311.213 354.679L303.244 404.615H301.381L293.769 355.127H254.017L252.025 445.558H275.562L275.844 377.422H277.695L290.171 445.546H314.932L327.254 377.447H328.893L329.462 445.558H353.123L350.575 354.679H311.213ZM171.106 355.056L155.447 445.455H180.785L190.061 375.364H192.144L201.416 445.455H226.75L211.095 355.056H171.106ZM702.771 395.285V408.62H709.271V422.935C709.271 429.932 703.29 430.061 703.29 430.061C696.018 430.061 696.292 423.412 696.292 423.412V373.899C696.292 368.798 702.746 368.524 702.746 368.524C708.938 368.524 708.98 374.608 708.98 374.608V382.137H732.836C733.616 367.441 730.686 363.884 730.686 363.884C724.768 350.595 702.381 351.321 702.381 351.321C667.979 351.321 671.797 377.717 671.797 377.717V425.591C672.536 450.348 706.436 447.833 707.009 447.812C722.087 446.143 726.64 441.35 726.64 441.35C730.831 438.237 731.911 433.925 731.911 433.925C733.11 431.414 733.409 423.412 733.409 423.412V395.285H702.771ZM623.695 409.998H622.657L598.449 354.704H569.483V445.567H593.057L591.646 390.28H592.7L617.781 445.567H645.866V354.695H621.993L623.695 409.998ZM511.939 422.927C511.939 422.927 512.28 430.385 505.365 430.385C505.365 430.385 498.094 430.775 498.094 423.113L498.019 354.757H472.162V422.57C472.162 422.57 469.51 448.235 505.73 448.235C505.73 448.235 537.206 448.609 537.206 423.748V354.762H511.939V422.927ZM121.813 396.53C121.813 396.53 115.351 392.53 111.346 390.986C111.346 390.986 98.9694 385.25 96.5124 382.515C96.5124 382.515 91.6856 377.958 94.5161 372.687C94.5161 372.687 95.6948 369.23 100.791 369.23C100.791 369.23 107.436 369.591 107.436 375.048V382.747H131.242L131.197 371.404C131.197 371.404 133.014 352.836 103.165 352.022C103.165 352.022 100.916 351.877 97.6164 352.043C97.6164 352.043 79.5334 353.014 73.0672 362.934C73.0299 363.008 72.9759 363.062 72.9385 363.129C72.9385 363.129 70.2989 365.947 70.2989 375.779V382.88C70.2989 382.88 70.025 391.073 74.2127 396.352C74.2127 396.352 76.5784 399.813 82.4054 403.632C82.4054 403.632 94.2339 410.002 101.335 413.651C101.335 413.651 108.511 417.735 107.561 424.255C107.561 424.255 106.975 430.941 100.057 430.667C100.057 430.667 93.7275 430.385 93.7275 423.827V416.128H68.3649V427.313C68.3649 427.313 67.6552 448.688 100.239 448.688C100.239 448.688 131.367 449.318 132.832 426.753V417.66C132.832 417.652 133.919 403.814 121.813 396.53Z" fill="black"/>
</svg>
