<svg width="801" height="800" viewBox="0 0 801 800" fill="none" xmlns="http://www.w3.org/2000/svg">
<path fillRule="evenodd" clipRule="evenodd" d="M443.688 336.832V343.032H462.277C468.001 343.032 469.906 344.464 469.906 350.183V354.475C469.906 359.717 468.001 361.149 462.277 361.149H443.688C437.965 361.149 436.529 359.717 436.529 354.475V353.52L442.252 352.093V355.903H463.709V348.752H445.116C439.392 348.752 437.487 347.32 437.487 341.601V338.741C437.487 333.018 439.392 331.59 445.116 331.59H461.804C467.05 331.59 469.432 333.018 469.432 337.791V338.741L463.232 340.173V336.832H443.688ZM500.415 331.59H507.093V361.144H500.415V331.59ZM542.848 331.59H549.521V355.898H571.925V361.144H542.848V331.59ZM592.427 331.59H600.533L612.448 353.039L623.895 331.59H631.042L614.831 361.144H609.585L592.427 331.59ZM660.119 331.59H690.641V336.355H666.801V343.028H680.622V348.274H666.801V355.898H690.641V361.144H660.119V331.59ZM746.417 336.355C748.322 336.355 749.272 336.828 749.272 338.737V342.551C749.272 344.456 748.322 344.933 746.417 344.933H730.683V336.355H746.417ZM724.005 361.144H730.683V350.179H737.353L749.268 361.144H759.287L745.458 350.179H749.268C754.033 350.179 755.946 348.274 755.946 344.46V337.309C755.946 333.018 754.033 331.59 749.268 331.59H724.001L724.005 361.144ZM672.524 449.816L638.674 391.18H641.534V386.889H614.831V391.18H618.649L585.754 449.816H579.076V454.112H604.82V449.816H601.01L606.734 439.337H649.162L654.886 449.816H651.545V454.112H677.766V449.816H672.524ZM613.403 426.931L628.182 399.759L642.48 426.931H613.403ZM734.493 428.367H743.557C753.568 428.367 758.337 425.026 758.337 415.493V399.759C758.337 390.703 753.572 386.889 743.557 386.889H680.622V391.18H685.868V449.816H680.622V454.112H706.844V449.816H701.12V428.367H716.377L743.08 454.112H765.483L734.493 428.367ZM701.12 416.929V398.331H736.406C741.171 398.331 743.557 399.282 743.557 403.577V411.683C743.557 416.448 741.175 416.929 736.406 416.929H701.12ZM595.287 386.889H518.054V403.1H522.349V398.809H548.563V449.816H543.321V454.112H569.542V449.816H564.296V398.809H591V403.1H595.287V386.889ZM470.379 507.506H466.091V481.761C464.655 485.58 457.509 499.4 453.217 507.506H451.781C447.494 499.4 440.82 486.049 439.866 481.761V507.506H436.056V476.038H440.82C445.107 484.143 448.926 492.726 453.213 501.782C457.5 492.726 461.796 484.143 466.565 476.038H470.375L470.379 507.506ZM485.635 487.485C490.881 487.485 492.313 491.772 492.313 496.059C492.313 500.355 490.877 505.123 485.635 505.123C480.393 505.123 478.966 500.359 478.966 496.059C478.966 491.772 480.393 487.485 485.635 487.485ZM485.635 507.983C492.313 507.983 496.605 503.218 496.605 496.059C496.605 488.908 491.359 484.621 485.635 484.621C479.912 484.621 474.197 488.908 474.197 496.059C474.197 503.218 478.966 507.983 485.635 507.983ZM516.149 505.123C513.766 507.028 511.861 507.983 508.998 507.983C503.752 507.983 500.892 505.123 500.892 499.4V485.102H504.71V498.445C504.71 502.741 506.615 505.123 510.425 505.123C513.766 505.123 516.149 502.741 516.149 498.445V485.102H520.436V507.506H516.149V505.123ZM529.977 487.962C532.36 485.579 535.223 484.621 537.606 484.621C542.852 484.621 545.711 487.48 545.711 493.195V507.501H541.893V494.15C541.893 489.863 539.988 487.48 536.17 487.48C532.837 487.48 529.977 489.863 529.977 494.15V507.501H526.159V485.098H529.977V487.962ZM556.668 485.102H562.391V487.485H556.668V500.359C556.668 503.218 557.145 505.123 560.009 505.123C561.437 505.123 562.391 505.123 562.869 504.646L563.819 506.551C562.391 507.506 560.964 507.987 559.532 507.987C554.767 507.987 552.381 505.605 552.381 500.828V487.485H549.521V485.102H552.381V479.379L556.668 477.943V485.102ZM579.553 494.154C580.03 501.305 576.22 505.123 573.361 505.123C571.925 505.123 570.02 503.687 570.02 501.305C570.02 498.445 571.925 496.54 575.743 495.582L579.553 494.154ZM579.553 503.687C579.553 505.123 579.553 506.547 580.03 507.506H584.795C583.844 506.07 583.844 503.687 583.844 502.26V492.249C583.844 485.58 578.599 484.621 575.262 484.621C571.925 484.621 569.538 485.575 567.633 487.48L569.061 489.385C570.497 488.431 572.402 487.003 574.784 487.003C577.167 487.003 579.549 488.908 579.549 491.768L573.826 493.195C569.538 494.631 566.197 497.491 566.197 501.301C566.197 505.597 568.588 507.979 572.398 507.979C573.504 507.956 574.591 507.687 575.581 507.193C576.571 506.698 577.438 505.99 578.121 505.119L579.553 503.687ZM590.041 485.102H593.859V507.506H590.041V485.102ZM589.564 477.474C589.564 476.519 590.518 475.092 591.946 475.092C593.859 475.092 594.805 476.519 594.805 477.474C594.805 478.902 593.855 480.333 591.946 480.333C590.041 480.333 589.564 478.902 589.564 477.474ZM603.87 487.962C606.252 485.579 609.116 484.621 611.498 484.621C616.744 484.621 619.595 487.48 619.595 493.195V507.501H615.785V494.15C615.785 489.863 613.88 487.48 610.062 487.48C606.729 487.48 603.87 489.863 603.87 494.15V507.501H600.052V485.098H603.87V487.962ZM643.439 478.902H647.257C650.117 478.902 652.503 480.807 652.503 484.625C652.503 487.007 651.549 491.294 645.825 491.294H643.443V478.902H643.439ZM639.148 507.506H643.435V494.631H648.199L655.35 507.983L659.646 507.028L652.018 493.199C654.877 491.294 657.264 488.912 657.264 484.143C657.264 478.42 653.445 476.038 648.199 476.038H639.143L639.148 507.506ZM665.842 493.677C665.842 490.817 667.756 487.485 672.043 487.485C675.384 487.485 677.289 490.344 677.289 493.677H665.842ZM680.622 496.541C681.099 490.817 678.717 484.625 672.047 484.625C666.801 484.625 661.078 487.966 661.078 496.063C661.078 503.692 665.842 507.987 673.002 507.987C675.384 507.987 678.239 507.033 680.622 505.605L679.194 503.223C677.766 504.65 675.384 505.128 673.002 505.128C668.706 505.128 665.365 501.309 665.365 496.545L680.622 496.541ZM697.31 488.435C695.883 487.484 694.451 487.007 693.023 487.007C691.587 487.007 690.163 487.962 690.163 489.867C690.163 491.772 692.068 492.726 694.451 494.631C697.31 496.536 699.215 498.441 699.215 501.782C699.215 505.601 695.883 507.983 691.587 507.983C688.727 507.983 685.864 507.028 684.436 505.123L686.341 503.218C687.777 504.169 689.682 505.123 691.587 505.123C693.492 505.123 695.405 504.169 695.405 502.264C695.405 499.404 693.023 498.446 690.641 496.541C688.25 495.113 685.868 493.2 685.868 490.348C685.868 486.53 689.209 484.625 693.496 484.625C695.887 484.625 697.792 485.579 699.219 486.53L697.31 488.435ZM713.995 487.485C719.24 487.485 720.672 491.772 720.672 496.059C720.672 500.355 719.236 505.123 713.995 505.123C708.753 505.123 707.325 500.359 707.325 496.059C707.321 491.772 708.748 487.485 713.995 487.485ZM713.995 507.983C720.672 507.983 725.441 503.218 725.441 496.059C725.441 488.908 719.718 484.621 713.995 484.621C708.279 484.621 703.034 488.908 703.034 496.059C703.034 503.218 707.321 507.983 713.995 507.983ZM733.547 487.962L734.974 486.048C735.929 485.098 737.357 484.621 738.315 484.621C739.743 484.621 741.175 485.098 742.125 486.526L740.22 489.385C739.266 488.908 738.315 488.431 737.361 488.431C735.456 488.431 733.551 490.344 733.551 495.582V507.506H729.255V485.102H733.551L733.547 487.962ZM751.186 485.102H757.378V487.485H751.186V500.359C751.186 503.218 751.655 505.123 754.518 505.123C755.954 505.123 756.901 505.123 757.378 504.646L758.332 506.551C756.896 507.506 755.473 507.987 754.037 507.987C749.272 507.987 747.367 505.605 747.367 500.828V487.485H744.035V485.102H747.367V479.379L751.186 477.943V485.102ZM493.741 412.633H451.785V398.331H495.646V405.96L509.475 402.619V401.191V386.889H505.179V389.271C502.324 387.366 498.51 386.412 492.786 386.412H454.649C442.256 386.412 437.965 389.749 437.965 402.619V409.77C437.965 422.644 442.252 425.981 454.649 425.981H496.605V441.237H449.403V433.132L435.582 435.991V437.896C435.582 450.289 439.392 453.63 452.267 453.63H493.745C506.138 453.63 510.429 450.289 510.429 437.896V428.84C510.425 415.974 506.138 412.633 493.741 412.633ZM205.791 355.425C192.444 330.631 213.42 310.61 243.456 295.835L222.957 246.728C222.48 244.823 218.188 234.335 218.188 234.335C218.188 234.335 213.424 244.823 212.947 246.728L170.036 349.229L62.2939 360.194C59.9116 360.671 49.901 362.099 49.901 362.099C49.901 362.099 58.4797 369.25 59.4343 370.205L111.401 413.111C137.145 406.441 180.051 395.472 196.262 388.321C210.083 382.124 215.802 374.019 205.791 355.425ZM384.094 362.099C384.094 362.099 374.556 360.671 372.174 360.194L265.863 349.229L247.411 305.746L244.394 307.389C227.365 317.96 218.205 335.977 244.406 366.39C271.578 398.809 250.607 425.026 225.339 446.483C214.374 455.539 148.583 506.551 120.457 528.008L115.211 551.839C114.737 553.753 112.355 564.714 112.355 564.714C112.355 564.714 122.366 558.044 123.32 557.563L218.188 496.063L311.152 558.999C311.629 559.949 322.117 565.668 322.117 565.668C322.117 565.668 319.734 554.699 319.257 553.275L294.463 436.954L374.556 370.205C375.511 369.25 384.094 362.099 384.094 362.099ZM246.643 303.795L244.406 297.74C239.641 300.126 235.827 302.509 232.013 304.891C229.627 306.323 227.244 308.228 224.385 310.133C209.606 322.053 203.891 336.832 214.852 355.898C231.059 383.552 222.48 395.468 203.886 407.387C201.977 408.823 199.595 410.247 197.213 411.683C193.876 413.588 190.539 415.493 186.725 417.398C178.619 422.163 160.98 430.272 140.482 439.332C109.014 453.153 71.3541 468.41 56.0975 474.61L36.0721 534.678C47.9919 527.527 67.0585 516.562 88.5115 503.687L165.268 457.449C176.233 450.289 186.721 443.62 196.254 437.896C200.068 435.037 203.882 432.65 207.219 430.268C216.752 424.076 223.426 418.83 226.763 415.97C240.588 402.619 246.788 382.593 235.346 366.386C210.473 331.192 225.792 314.009 245.373 304.389L246.643 303.795Z" fill="#2B659F"/>
</svg>
