<svg width="801" height="800" viewBox="0 0 801 800" fill="none" xmlns="http://www.w3.org/2000/svg">
<g clip-path="url(#clip0_1_293)">
<path d="M284.916 374.188C284.916 350.391 302.266 333.774 333.797 333.774C353.036 333.774 368.779 339.917 377.308 345.934C378.529 346.794 380.707 348.878 379.401 352.755C377.728 356.93 374.659 363.209 372.457 367.288C371.175 369.665 367.902 369.352 366.226 368.503C360.151 365.424 350.186 360.216 341.032 359.256C338.714 359.003 336.382 358.902 334.051 358.954C325.989 359.134 319.254 361.933 316.882 368.083C316.417 369.247 316.158 370.483 316.116 371.735C315.894 379.84 327.174 382.771 340.839 385.119C366.243 389.471 385.463 396.92 385.463 423.067C385.463 445.273 367.816 465.34 333.238 464.725C310.444 464.264 294.272 456.562 285.606 449.088C285.311 448.835 282.012 445.475 283.78 441.435C285.804 436.233 289.22 430.272 291.9 427.106C293.39 425.073 297.323 424.75 299.368 426.018C306.511 430.456 318.266 437.574 331.817 438.046C332.887 438.083 333.947 438.089 334.987 438.062C347.176 437.767 354.551 433.145 354.396 425.359C354.265 418.5 344.6 414.493 329.211 411.593C304.665 406.97 284.919 398.879 284.919 374.188M507.905 408.071C490.596 408.298 474.726 413.029 474.268 426.556C474.264 437.29 482.971 442.562 495.192 441.871C506.915 440.742 515.856 435.658 519.795 428.911C521.252 426.411 521.473 417.055 521.385 413.056C521.362 412.205 519.679 410.594 518.942 410.284C515.265 408.734 512.543 408.256 507.903 408.068M450.311 353.566C458.405 346.323 474.453 335.049 500.029 335.644C533.781 336.345 551.612 352.169 553.272 390.02C553.956 405.63 552.823 449.17 552.553 460.018C552.513 461.575 551.986 462.651 549.889 462.691C544.331 462.914 531.489 462.826 525.589 462.748C522.612 462.604 522.267 461.127 522.228 459.58C522.202 458.568 522.116 455.568 522.053 453.123C522.019 451.825 520.8 451.862 520.489 452.194C512.572 460.648 499.605 464.73 485.817 464.73C464.859 464.73 443.966 452.401 444.03 427.986C444.094 402.982 461.824 390.648 481.301 387.74C493.772 385.884 507.831 387.535 518.477 391.765C519.157 392.038 520.548 391.642 520.559 390.677C520.603 387.491 520.449 381.419 519.837 378.541C518.274 371.209 512.157 365.308 499.306 363.718C496.66 363.392 493.996 363.285 491.328 363.497C481.113 364.3 468.819 372.265 463.729 375.248C462.531 375.948 460.655 375.435 460.048 374.653C457.077 370.815 449.609 359.59 449.021 357.796C448.434 356.007 449.262 354.5 450.308 353.559L450.311 353.566ZM564.401 400.112C564.201 365.239 588.499 335.82 627.953 335.562C652.572 335.401 670.457 346.562 673.612 351.827C674.252 353.063 673.923 354.096 673.48 355.34C671.395 359.741 666.131 368.242 662.38 373.06C660.782 375.113 659.047 373.354 657.032 372.013C651.438 368.287 640.81 363.731 630.351 363.731C611.375 363.735 597.244 376.746 597.402 400.684C597.55 423.655 611.084 436.279 630.417 436.737C640.523 436.991 650.314 431.182 655.582 426.424C657.236 424.98 658.948 425.703 660.838 427.18C664.548 430.972 669.868 436.825 672.818 440.855C674.75 443.093 673.305 445.284 672.609 446.164C664.605 456.293 649.147 464.817 628.689 464.933C585.852 465.233 564.602 435.114 564.405 400.117M768.88 463.36C770.891 463.209 792.348 460.248 798.934 458.74C800.569 458.367 801.15 456.993 800.236 455.631C796.559 450.116 786.889 434.455 776.762 420.435C767.448 407.544 757.631 396.207 754.456 391.845C753.682 390.785 753.724 389.741 754.567 388.919C760.607 383.009 785.871 358.237 795.37 348.008C799.048 344.028 796.84 342.316 793.716 341.386C787.683 339.588 777.923 337.346 772.373 336.175C770.034 335.68 767.215 335.854 765.169 337.958C755.672 346.814 726.686 375.906 718.033 384.602C716.476 386.171 715.568 385.823 715.56 383.581C715.49 366.815 715.159 295.033 714.56 283.226C714.518 281.665 712.641 280.48 711.582 280.423C706.141 280.139 692.396 280.057 686.979 280.375C685.462 280.547 684.012 282.094 683.88 283.401C682.63 302.28 684.41 440.869 685.152 460.256C685.205 461.658 686.249 462.745 687.58 462.824C692.984 463.137 706.35 463.116 712.591 462.999C715.661 462.999 716.037 460.841 716.037 460.841L716.5 423.652C716.5 423.652 716.816 421.998 717.328 421.452C719.528 419.083 725.615 412.56 728.21 410.038C728.833 409.433 729.816 409.476 730.452 410.332C733.535 414.492 742.328 428.014 750.478 440.09C757.967 451.184 764.957 461.03 765.445 461.726C766.573 463.331 767.89 463.396 768.882 463.365V463.36H768.88ZM403.959 463.232C405.846 463.295 420.163 463.278 426.506 463.27C428.642 463.312 429.752 461.695 429.822 460.267C431.17 433.085 430.593 303.669 429.742 283.234C429.672 281.467 428.915 280.804 427.709 280.643C422.265 279.914 406.793 280.085 401.834 281.382C400.864 281.634 400.293 282.371 400.262 283.319C399.048 335.994 399.867 457.434 400.124 459.734C400.379 462.037 401.584 463.152 403.962 463.232H403.959Z" fill="#443642"/>
<path d="M20.7939 409.186C11.9709 409.253 4.49685 403.996 1.74107 395.789C1.63884 395.479 1.54353 395.167 1.45521 394.853C-1.54789 384.344 4.27524 373.349 14.7122 369.829L182.115 313.745C184.103 313.17 186.16 312.87 188.229 312.852C197.286 312.782 204.966 318.155 207.789 326.535L208.04 327.344C211.171 338.29 203.39 348.061 194.068 351.192C194.061 351.197 192.366 351.77 27.5934 408.028C25.4033 408.775 23.1077 409.166 20.7939 409.186Z" fill="#70CADB"/>
<path d="M48.697 491.514C39.805 491.578 32.3053 486.394 29.5816 478.305C29.4782 477.998 29.3818 477.688 29.2925 477.375C26.2477 466.741 32.0644 455.631 42.5367 452.106L209.946 395.508C212.109 394.785 214.343 394.416 216.59 394.395C225.506 394.328 233.339 399.775 236.103 407.956L236.36 408.807C237.977 414.461 237.022 420.816 233.807 425.831C231.411 429.56 223.853 432.843 223.853 432.843L55.8081 490.302C53.5162 491.077 51.1165 491.488 48.697 491.517V491.514Z" fill="#E01765"/>
<path d="M188.054 491.873C183.715 491.914 179.473 490.581 175.938 488.065C172.403 485.549 169.755 481.978 168.373 477.864L112.503 311.907L112.223 310.975C109.196 300.392 115.017 289.353 125.451 285.836C127.539 285.134 129.697 284.768 131.87 284.749C135.098 284.725 138.222 285.452 141.164 286.905C143.587 288.104 145.75 289.77 147.527 291.807C149.305 293.844 150.662 296.213 151.52 298.776L207.386 464.719L207.548 465.253C210.686 476.24 204.878 487.286 194.444 490.803C192.383 491.492 190.227 491.852 188.054 491.873Z" fill="#E8A723"/>
<path d="M105.006 519.825C100.664 519.867 96.4209 518.532 92.884 516.014C89.3472 513.495 86.6984 509.922 85.3173 505.805L29.4612 339.854C28.5958 337.294 28.2438 334.588 28.4254 331.892C28.607 329.196 29.3186 326.561 30.5196 324.14C31.7206 321.719 33.3873 319.559 35.4243 317.783C37.4613 316.007 39.8285 314.65 42.3906 313.79C44.4546 313.1 46.6141 312.738 48.7903 312.717C53.1302 312.674 57.3723 314.007 60.9084 316.523C64.4444 319.04 67.093 322.611 68.4742 326.726L124.332 492.683C125.198 495.245 125.55 497.952 125.367 500.649C125.185 503.347 124.473 505.982 123.27 508.404C122.068 510.826 120.399 512.986 118.36 514.762C116.321 516.538 113.952 517.894 111.388 518.752C109.328 519.443 107.172 519.804 105 519.824L105.006 519.825Z" fill="#3EB890"/>
<path d="M160.51 454.499L199.467 441.179L186.732 403.359L147.73 416.539L160.51 454.499Z" fill="#CC2027"/>
<path d="M77.5912 482.85L116.545 469.532L103.713 431.423L64.7212 444.608L77.5912 482.85Z" fill="#361238"/>
<path d="M132.776 372.121L171.736 358.819L159.15 321.441L120.118 334.518L132.776 372.121Z" fill="#65863A"/>
<path d="M49.8468 400.433L88.8068 387.131L76.0669 349.276L37.0347 362.352L49.8468 400.433Z" fill="#1A937D"/>
</g>
<defs>
<clipPath id="clip0_1_293">
<rect width="800" height="800" fill="white" transform="translate(0.666748)"/>
</clipPath>
</defs>
</svg>
