<svg width="801" height="800" viewBox="0 0 801 800" fill="none" xmlns="http://www.w3.org/2000/svg">
<path fill-rule="evenodd" clip-rule="evenodd" d="M776.86 441.797C775.287 441.767 773.724 442.051 772.262 442.633C770.801 443.215 769.469 444.082 768.347 445.184C767.224 446.285 766.332 447.6 765.723 449.051C765.114 450.501 764.801 452.059 764.801 453.632C764.801 455.205 765.114 456.762 765.723 458.213C766.332 459.664 767.224 460.978 768.347 462.08C769.469 463.182 770.801 464.049 772.262 464.631C773.724 465.212 775.287 465.497 776.86 465.467C778.415 465.466 779.954 465.157 781.389 464.56C782.824 463.962 784.127 463.088 785.224 461.986C786.32 460.884 787.189 459.576 787.779 458.138C788.369 456.7 788.67 455.16 788.664 453.605C788.665 452.054 788.36 450.519 787.767 449.086C787.174 447.654 786.304 446.352 785.208 445.255C784.112 444.159 782.811 443.289 781.378 442.695C779.946 442.102 778.41 441.797 776.86 441.797ZM776.86 464.044C775.49 464.045 774.133 463.776 772.868 463.252C771.602 462.727 770.453 461.958 769.485 460.988C768.518 460.018 767.752 458.866 767.231 457.599C766.71 456.332 766.445 454.975 766.45 453.605C766.451 452.239 766.721 450.887 767.244 449.626C767.768 448.365 768.535 447.22 769.502 446.256C770.469 445.291 771.617 444.527 772.879 444.007C774.142 443.487 775.494 443.221 776.86 443.224C778.223 443.224 779.573 443.493 780.832 444.015C782.091 444.536 783.235 445.301 784.199 446.265C785.162 447.229 785.926 448.373 786.448 449.633C786.969 450.892 787.237 452.242 787.236 453.605C787.243 454.972 786.979 456.328 786.461 457.593C785.943 458.858 785.18 460.009 784.216 460.979C783.252 461.949 782.106 462.719 780.843 463.245C779.581 463.77 778.227 464.042 776.86 464.044Z" fill="black"/>
<path fill-rule="evenodd" clip-rule="evenodd" d="M782.932 450.504C782.932 449.388 782.438 448.213 781.451 447.653C780.454 447.063 779.342 447.005 778.225 447.005H772.46V460.233H774.075V454.132H777.051L780.828 460.233H782.75L778.753 454.132C781.11 454.065 782.932 453.107 782.932 450.504ZM776.553 452.858H774.071V448.18H777.848C779.491 448.18 781.293 448.429 781.293 450.475C781.297 453.169 778.408 452.858 776.553 452.858ZM707.483 386.552L731.681 360.715C733.084 358.818 733.781 357.49 733.781 356.352C733.781 354.456 732.15 353.696 727.02 353.696H720.914V337.384H787V353.696H778.317C768.289 353.696 766.425 355.211 752.434 372.851L714.153 414.191V439.418C714.153 445.872 717.411 448.143 726.742 448.143H741.194V463.882H648.632V448.143H663.084C672.406 448.143 675.673 445.872 675.673 439.418V414.191L630.585 364.313C623.135 355.593 624.164 353.696 603.42 353.696V337.384H687.128V353.696H681.168C675.104 353.696 672.535 354.833 672.535 357.108C672.535 359.009 674.399 360.524 675.565 362.039L698.377 386.901C701.087 389.719 704.395 390.084 707.483 386.552ZM145.838 337.38H166.031V382.895H147.383C145.731 373.797 140.036 370.257 134.844 365.484C125.476 356.875 105.188 349.707 88.1246 349.707C66.1016 349.707 47.5153 356.539 47.5153 366.584C47.5153 394.467 173.465 372.278 173.465 424.999C173.465 452.497 146.486 467.858 98.0362 467.858C81.2637 467.858 55.8829 462.653 40.9076 454.701C36.2133 451.99 34.221 457.266 33.3411 463.877H12.638V416.843H31.3654C35.4952 428.793 41.1857 431.254 46.4196 435.998C55.501 444.345 77.1173 450.417 96.9405 450.222C126.829 449.927 137.106 443.394 137.106 433.91C137.106 424.43 126.941 422.152 94.1886 417.034L66.3797 412.481C34.9972 407.737 12.1482 400.722 12.1482 375.69C12.1482 349.707 41.0529 333.396 86.7549 333.396C106.014 333.396 122.126 335.969 137.591 344.71C141.875 347.495 145.892 347.827 145.838 337.38ZM539.911 413.585L540.31 362.998C540.31 356.361 536.857 354.086 526.991 354.086H515.398V338.347H589.154V354.086H579.541C569.667 354.086 566.214 356.365 566.214 362.998V464.84L537.346 464.612L443.859 376.084V440.377C443.859 446.827 447.312 449.288 457.178 449.288H470.012V464.84H393.412V449.288H406.105C415.971 449.288 419.424 446.823 419.424 440.377V362.998C419.424 356.361 415.971 354.086 406.105 354.086H393.412V338.347H459.639L539.911 413.585ZM292.856 332.441C234.076 332.441 197.281 358.428 197.281 400.145C197.281 441.116 233.565 466.903 291.063 466.903C352.135 466.903 387.66 441.493 387.66 398.062C387.664 358.996 349.329 332.441 292.856 332.441ZM291.52 450.409C258.983 450.409 240.281 431.632 240.281 399.199C240.281 367.53 259.797 348.753 293.147 348.753C325.14 348.753 343.842 367.912 343.842 400.531C343.842 432.391 324.866 450.409 291.52 450.409Z" fill="black"/>
</svg>
