<svg width="801" height="800" viewBox="0 0 801 800" fill="none" xmlns="http://www.w3.org/2000/svg">
<g clipPath="url(#clip0_1_308)">
<path d="M186.934 387.094H119.383L116.97 389.025V449.097H135.547V426.419L137.235 424.73H186.934C199.479 424.73 205.269 421.353 205.269 412.668V398.916C205.27 390.472 199.479 387.094 186.934 387.094ZM186.934 409.29C186.934 413.391 184.28 414.114 178.249 414.114H137.477L135.547 412.426V399.64L137.235 397.951H178.249C184.039 397.951 186.934 398.675 186.934 402.776L186.934 409.29ZM239.528 398.433L255.692 422.076L254.727 424.247H219.021L209.853 435.586H262.929L266.789 437.758L274.992 449.097H296.464L249.419 386.371M452.555 437.034V420.146L454.485 418.457H490.433V407.842H433.496V449.097H517.453V438.481H454.727M433.496 387.094H518.177V398.675H433.496V387.094ZM339.166 398.192H407.441C406.476 389.507 400.927 387.094 387.417 387.094H338.442C323.002 387.094 318.177 389.99 318.177 401.811V434.621C318.177 446.202 323.002 449.338 338.442 449.338H387.417C401.168 449.338 406.476 446.684 406.958 437.758H339.166L337.236 435.827V399.64M71.1321 411.22H21.6751L20.2274 409.531V398.916L21.6751 397.71H88.5024L89.4674 395.539C87.296 389.748 81.2647 386.854 70.4083 386.854H23.8462C8.40605 386.854 3.58089 389.748 3.58089 401.57V408.566C3.58089 420.147 8.40605 423.283 23.8462 423.283H73.3035L74.7508 424.73V435.828L73.5447 437.517H2.13328C2.13328 437.517 0.444824 438.481 0.444824 438.723C1.65095 446.926 7.19992 449.097 20.4686 449.097H71.1324C86.5725 449.097 91.6391 446.202 91.6391 434.38V425.936C91.6388 414.356 86.5725 411.22 71.1321 411.22ZM571.494 386.853H543.508L542.061 389.748L572.941 412.426C578.731 409.048 585.245 405.671 592 402.293M596.584 429.314L623.846 449.097H651.832L653.038 446.443L612.507 416.768C607.199 420.87 601.651 424.971 596.584 429.314Z" fill="#005288"/>
<path d="M567.392 449.096H542.06L539.889 445.718C557.018 429.072 633.737 358.143 800.444 350.665C800.444 350.665 660.757 355.489 567.392 449.096Z" fill="#A7A9AC"/>
</g>
<defs>
<clipPath id="clip0_1_308">
<rect width="800" height="800" fill="white" transform="translate(0.444336)"/>
</clipPath>
</defs>
</svg>
