<svg width="801" height="800" viewBox="0 0 801 800" fill="none" xmlns="http://www.w3.org/2000/svg">
<path fill-rule="evenodd" clip-rule="evenodd" d="M23.75 337.068V389.57H177.324C195.175 389.57 217.981 373.064 217.981 345.759C217.981 334.777 222.181 327.614 209.274 313.088L189.63 289.813C178.375 279.312 190.975 279.312 200.429 279.312H265.27V389.57H316.692V279.312H385.999V232.094H161.574C134.269 232.094 120.917 258.312 121.669 271.962C122.424 285.613 124.935 302.787 147.625 323.418C168.322 342.231 137.378 337.068 134.269 337.068H23.75ZM499.705 232.094H416.748L370.244 389.574H421.999L430.395 367.523H484.996L493.102 389.574H543.798L499.705 232.094ZM441.949 329.718L459.8 271.962L476.604 329.718H441.949ZM707.616 337.068C687.665 337.068 687.665 329.718 687.665 329.718C704.76 329.718 719.917 304.812 719.917 279.312C719.917 253.813 695.015 232.094 675.056 232.094H563.45V389.574H620.16V337.073C620.16 337.073 644.307 365.423 656.907 376.974C669.511 388.524 670.557 389.574 687.661 389.574H776.681V337.073C776.689 337.068 727.566 337.068 707.616 337.068ZM656.16 300.317H620.168V271.962H656.16C672.662 271.962 675.517 300.317 656.16 300.317ZM23.75 409.521H81.7674L96.4678 462.031L110.118 409.521H171.024L186.775 462.031L202.529 409.521H252.931L206.725 567.038H160.524L140.279 492.477L117.468 567.038H70.217L23.75 409.521ZM372 410.43H289.043L242.543 567.905H294.293L302.693 545.859H357.299L365.405 567.905H416.105L372 410.43ZM314.248 508.049L332.098 450.293L348.899 508.049H314.248ZM708.661 456.78C699.22 456.78 688.922 457.884 700.182 468.381L719.83 491.66C732.733 506.186 732.526 512.241 732.526 523.231C732.526 550.532 705.516 567.038 687.665 567.038L563.587 567.872C546.492 567.872 545.446 566.826 532.841 555.276C520.245 543.726 496.09 515.371 496.09 515.371V567.872H439.388V410.396H550.995C570.945 410.396 595.856 432.119 595.856 457.615C595.856 483.118 580.699 508.02 563.595 508.02C563.595 508.02 571.116 515.582 583.716 515.582C596.32 515.582 644.838 515.632 644.838 515.632C647.942 515.632 678.883 520.795 658.189 501.982C635.5 481.35 632.989 464.185 632.233 450.534C631.478 436.884 643.281 409.525 670.574 409.525H776.698V456.785L708.661 456.78ZM532.086 478.615H496.086V450.26H532.086C548.592 450.26 551.443 478.615 532.086 478.615Z" fill="black"/>
</svg>
