<svg width="801" height="800" viewBox="0 0 801 800" fill="none" xmlns="http://www.w3.org/2000/svg">
<g clip-path="url(#clip0_1_317)">
<path fill-rule="evenodd" clip-rule="evenodd" d="M495.296 269.257V253.418H431.933V340.381H495.296V326.037H449.564V302.428H489.613V286.888H449.564V269.257H495.296ZM477.664 349.346V382.817H442.99V349.346H425.068V436.015H442.99V397.161H477.664V436.015H495.296V349.346H477.664ZM495.296 460.511V444.98H431.933V533.13H495.296V517.3H449.564V493.986H489.613V479.645H449.564V460.511H495.296ZM421.776 253.418H404.145V286.888H369.479V253.418H351.847V340.381H369.479V301.532H404.145V340.381H421.776V253.418ZM275.941 253.418V269.257H302.837V340.381H320.469V269.257H347.365V253.418H275.941ZM220.357 346.956C192.564 346.956 177.921 362.794 177.921 392.678C177.921 424.057 192.564 439.597 220.357 439.597C248.149 439.597 262.493 424.057 262.493 392.678C262.493 362.794 248.149 346.956 220.357 346.956ZM197.047 392.678C197.047 372.656 204.817 362.794 220.357 362.794C237.092 362.794 244.862 372.656 244.862 392.678C244.862 413.9 237.092 424.057 220.357 424.057C204.817 424.057 197.047 413.9 197.047 392.678ZM152.52 349.346V410.609L117.854 349.346H99.0269V436.015H115.762V375.047L151.324 436.015H170.151V349.346H152.52ZM234.701 480.837V460.511H279.229V444.98H217.069V533.13H234.701V496.377H273.849V480.837H234.701ZM418.493 364.886V349.346H347.365V364.886H373.961V436.015H391.892V364.886H418.493ZM308.216 402.843C313.894 402.843 318.377 403.735 320.469 406.126L323.756 436.015H343.778V433.923C341.687 432.723 340.491 427.348 340.491 417.183C340.491 404.935 336.009 398.356 329.434 395.069C338.399 391.483 342.882 384.908 342.882 373.851C342.882 358.312 333.917 349.346 315.09 349.346H271.459V436.015H289.389V402.843H308.216ZM289.389 388.196V364.886H311.504C320.469 364.886 324.951 368.173 324.951 375.943C324.951 383.713 320.469 388.196 310.607 388.196H289.389ZM320.469 444.98H299.251L268.171 533.13H286.998L293.872 514.008H326.147L331.526 533.13H350.652L320.469 444.98ZM309.412 464.994L320.469 499.668H298.354L309.412 464.994ZM407.436 473.959H425.068C424.167 466.193 421.776 459.619 416.393 453.937C408.627 447.362 399.662 442.88 387.409 442.88C375.157 442.88 366.192 447.362 358.422 455.136C351.847 462.902 347.365 473.959 347.365 488.607C347.365 519.686 360.514 535.218 386.214 535.218C408.627 535.218 420.876 524.161 425.068 502.947H407.436C405.045 513.103 397.271 518.487 387.409 518.487C372.766 518.487 366.192 508.629 366.192 489.499C366.192 468.584 372.766 458.419 387.409 458.419C397.271 458.419 402.953 464.102 407.436 473.959ZM185.99 531.939C188.978 531.939 191.369 530.739 193.166 529.249C194.66 527.456 195.852 525.065 195.852 521.782C195.852 518.192 194.656 515.801 193.166 514.307C191.373 512.817 188.982 511.916 185.99 511.916H185.691C182.105 511.916 179.714 512.817 178.22 514.307C176.73 515.797 175.829 518.192 175.829 521.782V522.073C175.829 525.065 176.726 527.456 178.22 529.249C179.714 530.739 182.109 531.939 185.691 531.939H185.99ZM185.691 534.329C181.507 534.329 178.519 532.839 176.427 530.739C174.335 528.647 173.438 525.663 173.438 522.073V521.782C173.438 517.59 174.335 514.606 176.427 512.518C178.519 510.426 181.507 509.526 185.691 509.526H185.99C189.576 509.526 192.564 510.426 194.656 512.518C196.748 514.61 198.242 517.594 198.242 521.782C198.242 525.667 196.748 528.647 194.656 530.739C193.523 531.883 192.172 532.79 190.684 533.406C189.196 534.023 187.6 534.337 185.99 534.329H185.691ZM186.886 520.583H187.185C188.381 520.583 188.978 519.981 188.978 518.491V518.192C188.978 518.192 188.679 518.192 188.679 517.893C188.381 517.594 187.783 517.594 186.886 517.594H183.599V520.587L186.886 520.583ZM188.978 522.675L191.369 525.667C191.668 526.261 191.369 526.858 191.07 527.157C190.473 527.759 189.576 527.456 189.277 527.157L186.289 522.973H183.599V526.257C183.599 526.858 183.001 527.456 182.404 527.456C181.806 527.456 181.208 526.854 181.208 526.257V516.399C181.208 515.797 181.806 515.208 182.404 515.208H187.185C188.381 515.208 189.576 515.498 190.174 516.1C190.473 516.399 190.771 516.399 190.771 516.702C191.369 517.304 191.369 517.893 191.369 518.495C191.369 520.882 190.771 522.073 188.978 522.675ZM507.544 253.418C563.133 253.418 611.242 273.739 650.091 312.589C690.136 352.633 710.163 400.448 710.163 456.328V533.13H628.878V453.937C628.878 422.866 617.821 395.966 595.408 373.851C590.024 368.173 584.35 363.691 577.776 359.208C559.845 346.956 538.628 341.576 516.513 341.576H507.548V253.418H507.544ZM621.1 533.13H557.745V471.867C557.745 461.711 554.462 453.937 547.589 447.362C541.014 440.497 532.049 437.206 523.084 437.206H507.544V349.346H516.509C539.815 349.346 559.837 355.921 577.772 369.369C582.254 371.461 586.737 375.943 590.02 379.23C611.242 400.452 621.1 424.957 621.1 453.941V533.13ZM549.979 533.13H507.54V444.98H523.084C529.957 444.98 536.532 447.362 542.205 452.746C546.688 457.228 549.979 464.102 549.979 471.867V533.13Z" fill="black"/>
</g>
<defs>
<clipPath id="clip0_1_317">
<rect width="800" height="800" fill="white" transform="translate(0.110352)"/>
</clipPath>
</defs>
</svg>
