<svg width="801" height="800" viewBox="0 0 801 800" fill="none" xmlns="http://www.w3.org/2000/svg">
<path fillRule="evenodd" clipRule="evenodd" d="M100.539 458.238C90.1053 451.701 82.4147 429.144 82.4147 402.337C82.4147 401.353 82.4189 400.382 82.4438 399.415L82.4521 399.427C53.4247 394.866 32.4531 382.37 31.9135 367.586L31.8305 367.76C24.7293 376.588 20.6745 386.794 20.6745 397.668C20.6745 429.667 55.7987 455.884 100.352 458.204L100.539 458.238ZM7.25232 400C7.25232 364.199 51.8102 335.168 106.773 335.168C161.74 335.168 206.298 364.199 206.298 400C206.298 435.805 161.74 464.837 106.773 464.837C51.8102 464.837 7.25232 435.805 7.25232 400ZM106.777 344.523C117.389 344.523 126.416 360.622 129.762 383.083L129.77 383.046C150.418 379.834 164.869 372.421 164.869 363.793C164.869 352.217 138.859 342.842 106.777 342.842C74.6993 342.842 48.6892 352.217 48.6892 363.793C48.6892 372.421 63.1406 379.83 83.7843 383.046L83.7968 383.083C87.1419 360.622 96.1689 344.523 106.777 344.523ZM113.202 458.2C157.756 455.88 192.884 429.663 192.884 397.664C192.884 386.79 188.825 376.584 181.728 367.756L181.641 367.582C181.105 382.365 160.134 394.862 131.102 399.423L131.115 399.411C131.135 400.378 131.144 401.349 131.144 402.333C131.144 429.14 123.449 451.697 113.019 458.233L113.202 458.2ZM106.777 384.748C111.383 384.753 115.988 384.557 120.577 384.158L120.573 384.163C118.373 369.769 113.028 359.605 106.781 359.605C100.535 359.605 95.1936 369.769 92.9897 384.163L92.9856 384.158C97.572 384.555 102.174 384.751 106.777 384.748ZM106.777 438.063C114.766 438.063 121.287 421.437 121.631 400.59L121.673 400.602C111.765 401.515 101.794 401.515 91.8857 400.602L91.9272 400.59C92.2717 421.437 98.7877 438.063 106.777 438.063ZM515.094 400C515.094 372.637 537.282 350.449 564.645 350.449C592.021 350.449 614.204 372.637 614.204 400C614.204 427.372 592.016 449.551 564.645 449.551C537.282 449.551 515.094 427.372 515.094 400ZM564.645 431.381C579.927 431.381 592.32 417.328 592.32 399.996C592.32 382.668 579.927 368.615 564.645 368.615C549.364 368.615 536.979 382.668 536.979 399.996C536.979 417.332 549.368 431.381 564.645 431.381ZM670.433 371.093V447.301H649.548V371.093H649.623H620.425V353.865H699.556V371.093H670.433ZM724.814 426.28L724.798 426.301L716.788 447.306H692.396L730.949 353.865H756.938L795.482 447.306H771.099L763.089 426.301L763.064 426.28H724.814ZM743.943 410.509H757.083L757.075 410.513L744.03 376.314H743.852L730.807 410.513L730.799 410.509H743.943ZM285.561 371.093V447.301H264.68V371.093H264.755H235.553V353.865H314.688V371.093H285.561ZM320.029 400C320.029 372.637 342.217 350.449 369.588 350.449C396.955 350.449 419.143 372.637 419.143 400C419.143 427.372 396.955 449.551 369.588 449.551C342.217 449.551 320.029 427.372 320.029 400ZM369.588 431.381C384.865 431.381 397.258 417.328 397.258 399.996C397.258 382.668 384.865 368.615 369.588 368.615C354.307 368.615 341.918 382.668 341.918 399.996C341.918 417.332 354.307 431.381 369.588 431.381ZM467.112 447.301H477.7V411.824L514.127 353.865H489.744L467.112 393.14L444.489 353.865H420.106L456.529 411.824V447.301H467.112Z" fill="#CC2229"/>
</svg>
