<svg width="801" height="800" viewBox="0 0 801 800" fill="none" xmlns="http://www.w3.org/2000/svg">
<g clip-path="url(#clip0_1_349)">
<path d="M355.901 505.58H300.963L335.298 294.567H390.242L355.901 505.58ZM254.746 294.567L202.371 439.703L196.174 408.45L196.18 408.461L177.694 313.567C177.694 313.567 175.459 294.567 151.633 294.567H65.0475L64.0315 298.14C64.0315 298.14 90.5096 303.649 121.498 322.259L169.227 505.585H226.468L313.872 294.567H254.746ZM686.858 505.58H737.302L693.321 294.562H649.158C628.765 294.562 623.798 310.287 623.798 310.287L541.863 505.58H599.132L610.584 474.236H680.423L686.858 505.58ZM626.406 430.937L655.271 351.971L671.51 430.937H626.406ZM546.158 345.311L553.999 299.997C553.999 299.997 529.806 290.797 504.587 290.797C477.324 290.797 412.582 302.712 412.582 360.653C412.582 415.167 488.568 415.844 488.568 444.478C488.568 473.113 420.411 467.982 397.918 449.925L389.75 497.305C389.75 497.305 414.281 509.22 451.76 509.22C489.251 509.22 545.808 489.809 545.808 436.977C545.808 382.113 469.14 377.005 469.14 353.151C469.145 329.292 522.649 332.357 546.158 345.311Z" fill="#2566AF"/>
<path d="M196.18 408.455L177.694 313.561C177.694 313.561 175.459 294.562 151.633 294.562H65.0475L64.0315 298.134C64.0315 298.134 105.648 306.759 145.566 339.074C183.733 369.96 196.18 408.455 196.18 408.455Z" fill="#E6A540"/>
</g>
<defs>
<clipPath id="clip0_1_349">
<rect width="800" height="800" fill="white" transform="translate(0.666748)"/>
</clipPath>
</defs>
</svg>
