<svg width="801" height="800" viewBox="0 0 801 800" fill="none" xmlns="http://www.w3.org/2000/svg">
<g clipPath="url(#clip0_1_354)">
<path d="M703.278 368.935C707.734 368.935 711.401 366.618 711.896 363.625L716.295 313.876C716.295 308.959 710.535 304.922 703.292 304.922C696.056 304.922 690.301 308.959 690.301 313.877L694.698 363.625C695.181 366.617 698.849 368.935 703.293 368.935H703.278ZM676.39 384.474C678.625 380.62 678.456 376.288 676.101 374.364L635.21 345.68C630.958 343.218 624.583 346.181 620.966 352.456C617.335 358.722 617.979 365.721 622.219 368.184L667.497 389.266C670.328 390.315 674.187 388.296 676.404 384.444L676.39 384.474ZM730.189 384.447C732.421 388.298 736.261 390.318 739.094 389.268L784.372 368.186C788.639 365.724 789.245 358.725 785.649 352.458C782.013 346.19 775.627 343.22 771.387 345.683L730.493 374.367C728.155 376.288 727.981 380.623 730.204 384.476L730.189 384.447ZM703.278 431.079C707.734 431.079 711.401 433.376 711.896 436.372L716.295 486.114C716.295 491.046 710.535 495.074 703.292 495.074C696.056 495.074 690.301 491.046 690.301 486.114L694.698 436.372C695.181 433.376 698.849 431.079 703.293 431.079H703.278ZM730.189 415.537C732.421 411.675 736.261 409.672 739.094 410.734L784.372 431.802C788.639 434.267 789.245 441.272 785.649 447.544C782.013 453.792 775.627 456.77 771.387 454.311L730.493 425.653C728.155 423.717 727.981 419.379 730.204 415.529H730.186M676.39 415.531C678.625 419.379 678.456 423.717 676.101 425.657L635.21 454.314C630.958 456.772 624.583 453.794 620.966 447.547C617.335 441.275 617.979 434.269 622.219 431.804L667.497 410.737C670.328 409.675 674.187 411.677 676.404 415.54H676.39" fill="#FDBB30"/>
<path d="M445.347 425.563C445.347 427.089 445.211 428.664 444.793 430.047C443.058 435.79 437.112 440.647 429.672 440.647C423.468 440.647 418.541 437.123 418.541 429.681C418.541 418.29 431.079 415.145 445.35 415.224L445.347 425.562V425.563ZM467.732 405.712C467.732 386.93 459.706 370.403 432.588 370.403C418.668 370.403 407.621 374.313 401.59 377.798L406.007 392.898C411.518 389.418 420.301 386.538 428.614 386.538C442.369 386.5 444.621 394.327 444.621 399.337V400.523C414.638 400.478 395.684 410.86 395.684 432.01C395.684 444.933 405.338 457.037 422.118 457.037C432.429 457.037 441.066 452.922 446.234 446.322H446.745C446.745 446.322 450.164 460.65 469.044 455.168C468.059 449.21 467.735 442.849 467.735 435.201L467.732 405.712M0.556641 344.825C0.556641 344.825 20.1502 425.111 23.2789 438.141C26.9287 453.349 33.5066 458.948 52.4628 455.168L64.6964 405.394C67.7985 393.024 69.8746 384.205 71.8735 371.635H72.2214C73.6247 384.338 75.6155 393.063 78.1682 405.435C78.1682 405.435 83.1458 428.033 85.6994 439.898C88.2557 451.76 95.3706 459.24 113.941 455.168L143.093 344.821H119.563L109.606 392.532C106.929 406.414 104.502 417.273 102.629 429.97H102.296C100.595 417.385 98.4283 406.968 95.7096 393.44L85.3515 344.821H60.831L49.745 392.214C46.6074 406.62 43.665 418.247 41.8011 430.521H41.462C39.5484 418.963 37.001 404.344 34.2442 390.406C34.2442 390.406 27.6627 356.506 25.3479 344.821L0.556641 344.825ZM187.602 425.563C187.602 427.089 187.466 428.664 187.042 430.047C185.311 435.79 179.36 440.647 171.921 440.647C165.716 440.647 160.796 437.123 160.796 429.681C160.796 418.29 173.33 415.145 187.604 415.224L187.602 425.562V425.563ZM209.984 405.712C209.984 386.93 201.958 370.403 174.846 370.403C160.923 370.403 149.866 374.313 143.839 377.798L148.25 392.898C153.761 389.418 162.544 386.538 170.859 386.538C184.624 386.5 186.876 394.327 186.876 399.337V400.523C156.88 400.478 137.936 410.86 137.936 432.01C137.936 444.933 147.584 457.037 164.352 457.037C174.677 457.037 183.308 452.922 188.483 446.322H188.987C188.987 446.322 192.417 460.65 211.292 455.168C210.305 449.21 209.984 442.849 209.984 435.201V405.712ZM247.339 431.745V344.825H224.927V455.172H247.339V431.745ZM540.524 344.825V426.226C540.524 437.454 542.64 445.311 547.154 450.12C551.109 454.325 557.607 457.046 565.4 457.046C572.028 457.046 578.545 455.781 581.621 454.641L581.331 437.132C579.043 437.691 576.416 438.144 572.819 438.144C565.182 438.144 562.629 433.252 562.629 423.177V392.031H582.145V370.915H562.629V344.825H540.524ZM482.676 372.275V455.172H505.795V412.727C505.795 410.433 505.933 408.434 506.296 406.605C508.007 397.71 514.806 392.031 524.572 392.031C527.249 392.031 529.165 392.322 531.241 392.617V370.915C529.499 370.568 528.317 370.406 526.149 370.406C517.522 370.406 507.706 375.973 503.587 387.915H502.962V372.275H482.676ZM263.032 372.275V455.172H285.556V406.561C285.556 404.28 285.824 401.867 286.614 399.776C288.48 394.882 293.036 389.15 300.304 389.15C309.397 389.15 313.644 396.834 313.644 407.923V455.165H336.15V405.963C336.15 403.786 336.447 401.163 337.091 399.244C338.939 393.673 343.846 389.144 350.604 389.144C359.818 389.144 364.241 396.693 364.241 409.746V455.163H386.762V406.336C386.762 380.59 373.688 370.398 358.927 370.398C352.397 370.398 347.236 372.034 342.569 374.894C338.65 377.308 335.136 380.729 332.069 385.225H331.736C328.177 376.292 319.803 370.402 308.89 370.402C294.87 370.402 288.569 377.509 284.747 383.536H284.412V372.273H263.032" fill="#1A75CF"/>
<path d="M795.729 451.141H796.069C796.52 451.141 796.809 450.955 796.809 450.678C796.809 450.363 796.538 450.192 796.119 450.192C795.975 450.192 795.828 450.221 795.73 450.221V451.149V451.141L795.729 451.141ZM795.677 453.376H794.479V449.475C794.751 449.422 795.385 449.327 796.196 449.327C797.077 449.327 797.472 449.451 797.762 449.647C798.006 449.817 798.183 450.108 798.183 450.501C798.183 450.902 797.815 451.241 797.272 451.389V451.439C797.715 451.557 797.956 451.878 798.083 452.442C798.204 453.004 798.278 453.234 798.354 453.379H796.997C796.879 453.234 796.809 452.889 796.729 452.545C796.653 452.15 796.467 451.952 796.066 451.952H795.674L795.677 453.376ZM796.172 448.204C794.453 448.204 793.156 449.605 793.156 451.391C793.156 453.131 794.456 454.55 796.219 454.55C797.989 454.579 799.289 453.131 799.289 451.362C799.289 449.601 797.989 448.204 796.199 448.204H796.172ZM796.249 447.146C798.646 447.146 800.557 449.033 800.557 451.362C800.557 453.718 798.646 455.608 796.216 455.608C793.787 455.608 791.852 453.715 791.852 451.362C791.852 449.033 793.79 447.146 796.216 447.146H796.243" fill="#FDBB30"/>
</g>
<defs>
<clipPath id="clip0_1_354">
<rect width="800" height="800" fill="white" transform="translate(0.555664)"/>
</clipPath>
</defs>
</svg>
