<svg width="801" height="800" viewBox="0 0 801 800" fill="none" xmlns="http://www.w3.org/2000/svg">
<path fill-rule="evenodd" clip-rule="evenodd" d="M245.657 388.989L234.007 363.228L224.174 363.282L210.175 388.997L245.657 388.989ZM225.498 357.571L232.284 357.642L229.441 350.059L225.498 357.571ZM268.678 362.771L263.52 389.632L601.327 389.719L591.756 362.805H581.8L575.524 370.126L568.514 362.805L268.678 362.771ZM318.333 330.739L301.275 297.727L288.949 297.694L269.164 330.619L318.333 330.739ZM590.773 358.783L586.851 348.283L582.796 358.783H590.773ZM478.959 293.922V262.358H470.899V252.348L427.997 252.306V262.412H420.871L418.464 269.792L412.06 259.287L400.401 285.214H394.051L395.865 278.345L384.721 252.178L378.542 252.227L366.29 278.478L367.751 285.214H362.957L366.066 293.893L478.959 293.922ZM381.563 242.541L379.413 247.77H383.817L381.563 242.541ZM470.899 248.808V233.057L476.639 220.726L470.899 214.742V200.701H428.416L428.375 214.725L422.904 220.772L427.997 233.003V248.808H470.899ZM290.526 295.167H300.466L295.73 285.546L290.526 295.167ZM228.802 339.546L228.798 330.876L209.827 335.935L228.802 339.546ZM295.851 274.407L295.842 265.741L276.871 270.804L295.851 274.407ZM381.094 231.306L381.086 222.64L362.115 227.699L381.094 231.306ZM505.612 270.099L505.604 261.433L486.629 266.492L505.612 270.099ZM551.104 298.354L551.095 289.688L532.124 294.752L551.104 298.354ZM235.845 628.33V621.631H215.695V628.33H221.85V667.924H215.695V674.623H235.845V667.924H229.686L229.707 628.33H235.845ZM376.006 628.782V637.216H382.368V621.631H343.056V637.216H349.444V628.782H358.807V667.924H352.644V674.623H372.802V667.924H366.643V628.782H376.006ZM315.482 658.997H306.874C306.003 660.357 304.954 661.594 303.753 662.674C298.685 667.081 293.099 668.351 287.484 667.48C283.178 666.754 279.243 664.601 276.311 661.366C272.277 656.859 270.799 651.202 271.322 645.811C271.495 644.162 271.853 642.537 272.389 640.968C272.887 639.519 273.484 638.307 274.202 637.178C275.639 634.901 277.542 632.953 279.785 631.463C282.778 629.512 286.242 628.405 289.811 628.258C293.381 628.111 296.924 628.931 300.067 630.629C302.763 632.063 305.031 634.185 306.641 636.78H314.207V621.631H307.621V627.467C307.351 627.195 307.077 626.928 306.799 626.666C304.772 624.702 302.386 623.145 299.773 622.079C295.514 620.37 290.289 619.818 285.159 620.863C283.42 621.22 281.715 621.752 280.083 622.449C274.509 624.819 269.871 628.962 266.89 634.236C262.831 641.47 262.187 649.829 265.084 658.001C265.914 660.267 267.047 662.421 268.442 664.388C271.218 668.401 275.406 671.539 279.241 673.34C283.092 675.17 286.533 675.805 290.219 675.913C293.858 676.013 298.029 675.191 302.184 673.216C304.238 672.228 306.168 670.974 307.911 669.501C311.439 666.559 314.137 662.607 315.482 658.997ZM591.69 667.609H575.566V651.011H593.134V644.703H575.566V628.815H591.69V636.56H599.551V621.631H561.575V628.33H567.734V667.924H561.575V674.623H599.551V659.694H591.69V667.609ZM459.494 628.33L459.469 621.635H440.02V628.33H445.499C445.491 637.992 445.515 647.654 445.482 657.316C445.432 658.631 445.208 660.619 444.503 662.387C444.138 663.284 443.635 664.131 443.021 664.882C442.098 666.017 440.928 666.926 439.6 667.54C438.273 668.154 436.822 668.457 435.36 668.426C433.257 668.448 431.202 667.801 429.491 666.579C428.645 665.97 427.901 665.23 427.287 664.388C425.527 662.03 425.204 659.129 425.212 656.448V628.338H430.699V621.644H411.242L411.217 628.338H417.376C417.385 638.44 417.36 648.53 417.393 658.631C417.476 661.798 418.194 665.152 420.182 668.244C420.75 669.132 421.464 670.041 422.257 670.862C424.462 673.134 427.287 674.707 430.379 675.386C434.119 676.262 438.024 676.132 441.697 675.009C445.412 673.831 448.588 671.372 450.658 668.069C452.637 664.986 453.335 661.254 453.335 657.739V628.338H459.494V628.33ZM526.239 667.924L516.797 655.552C520.292 655.236 523.986 654.485 527.75 649.534C531.049 644.927 531.618 639.963 530.531 634.929C530.18 633.398 529.629 631.92 528.891 630.534C528.111 629.077 527.123 627.741 525.957 626.57C524.776 625.384 523.416 624.392 521.927 623.628C518.96 622.055 515.54 621.64 512.29 621.635H488.351V628.33H494.543V667.924H488.351V674.623H507.571V667.924H502.308V628.849C506.035 628.869 509.75 628.77 513.485 628.919C515.764 629.143 518.316 629.421 520.993 632.771C522.009 634.113 522.712 635.666 523.051 637.316C523.389 638.965 523.354 640.67 522.948 642.304C522.33 644.99 520.701 647.334 518.399 648.849C515.951 650.501 512.913 650.783 510.099 650.796L504.545 650.758L521.317 674.631H532.647V667.932H526.239V667.924ZM639.12 674.623V670.709C639.751 671.576 640.489 672.369 641.315 673.054C644.557 675.71 648.196 676.25 651.803 675.951C655.708 675.62 659.356 673.871 662.059 671.033C664.335 668.648 665.807 665.61 666.267 662.346C666.636 659.754 666.382 657.112 665.524 654.639C665.198 653.667 664.746 652.742 664.179 651.887C660.735 647.064 656.456 645.786 652.492 644.649C650.272 644.06 648.051 643.607 646.009 642.868C644.665 642.366 642.643 641.466 641.585 639.843C639.979 637.261 639.655 634.589 641.133 631.634C642.407 629.309 644.237 628.384 645.922 627.832C648.782 627.197 651.687 626.881 654.887 630.065C656.427 631.741 656.929 633.53 656.987 635.344H664.072V621.627H657.966V625.557C657.066 624.059 655.194 622.486 653.679 621.872C652.006 621.162 650.213 620.773 648.396 620.727C645.181 620.678 642.017 621.539 639.269 623.208C638.436 623.722 637.655 624.316 636.937 624.981C632.957 628.911 631.936 633.302 632.541 637.788C632.89 639.955 633.654 642.043 635.272 644.134C637.244 646.658 639.473 647.944 641.734 649.003C646.063 651.02 650.45 651.045 655.053 653.639C656.219 654.352 657.734 656.075 658.157 657.61C658.863 659.686 658.772 662.122 657.63 664.405C657.133 665.367 656.457 666.226 655.638 666.936C652.185 669.675 647.952 669.966 643.764 667.401C640.701 665.069 640.141 662.292 640.012 659.603H632.807V674.614H639.12V674.623ZM270.401 350.735C270.285 353.479 269.944 356.214 269.388 358.903L527.97 358.783C522.398 351.651 518.54 343.334 516.693 334.474H497.054L494.842 337.512L491.219 334.474L337.657 334.445L331.701 349.125L319.528 349.162L326.015 334.45H268.429C269.968 339.735 270.634 345.236 270.401 350.735ZM551.224 309.24L542.695 330.44H558.259L551.224 309.24ZM559.263 334.491H541.18L532.954 358.783H567.493L559.263 334.491ZM616.696 479.748L610.624 457.324L550.581 457.345C547.369 463.704 542.882 469.334 537.399 473.884C534.664 476.148 531.703 478.126 528.563 479.786L616.696 479.748Z" fill="black"/>
<path fill-rule="evenodd" clip-rule="evenodd" d="M478.772 198.763C478.563 199.038 478.307 199.274 478.017 199.46C509.608 205.949 539.803 217.972 567.207 234.975C594.581 252.032 618.698 273.83 638.427 299.346C658.137 324.877 673.144 353.714 682.744 384.507C692.284 415.315 696.301 447.567 694.61 479.773H698.777C701.063 447.023 697.415 413.837 687.94 382.407C678.465 350.976 663.158 321.297 643.079 295.316C622.992 269.335 598.123 247.056 570.092 229.97C542.06 212.883 510.866 200.996 478.598 194.962C479.519 196.07 479.735 197.331 478.772 198.763ZM450.052 141.422L423.187 195.356C422.813 196.103 422.643 196.962 423.664 197.937C424.054 198.249 424.531 198.394 424.992 198.377H474.389C474.974 198.336 475.493 198.39 476.22 197.365C476.409 197.048 476.507 196.685 476.504 196.316C476.501 195.947 476.397 195.586 476.203 195.273L450.052 141.422ZM450.052 123.979L431.076 129.042L450.06 132.644L450.052 123.979ZM423.552 187.001C397.521 185.445 371.262 187.516 345.804 193.164C320.346 198.813 295.672 208.048 272.982 220.714C250.288 233.385 229.57 249.484 214.977 262.545C200.385 275.602 191.918 285.625 184.074 296.084C176.234 306.547 169.017 317.446 162.733 328.855C156.449 340.26 151.1 352.172 147.277 360.46C143.455 368.748 141.16 373.43 139.23 378.198C137.296 382.967 135.727 387.835 133.76 392.837C131.706 398.001 129.404 403.063 126.862 408.006L136.146 412.385C138.177 401.973 140.897 391.707 144.289 381.656C145.978 376.625 147.813 371.645 151.428 363.369C155.047 355.089 160.446 343.518 166.688 332.408C172.93 321.302 180.011 310.656 187.697 300.434C195.379 290.216 203.659 280.417 217.891 267.6C232.122 254.784 252.31 238.951 274.414 226.388C296.519 213.825 320.533 204.532 345.356 198.659C370.221 192.791 395.769 190.329 421.298 191.342L423.552 187.001ZM505.791 279.495L500.561 293.922H511.667L505.791 279.495ZM357.802 330.677L348.576 301.48L338.798 330.665L357.802 330.677ZM497.05 330.482H517.2V320.355L521.292 315.441L512.904 297.948H499.196L492.763 315.425L497.025 320.339C497.033 323.721 497.067 327.104 497.05 330.482ZM367.672 330.768H489.579C484.086 320.56 480.482 309.442 478.942 297.952L368.012 297.91C371.016 308.674 370.898 320.069 367.672 330.768ZM199.787 476.744C200.455 477.329 201.003 478.039 201.41 478.827L353.623 478.927L353.544 456.61L200.177 456.693L194.902 475.013C196.692 474.942 198.441 475.562 199.787 476.744ZM278.901 425.774H199.771L199.824 447.779H353.582C354.304 443.939 355.433 440.088 357.055 436.253C339.574 430.736 321.128 428.958 302.914 431.036C302.529 434.084 301.021 436.88 298.685 438.876C295.025 441.914 290.418 442.711 285.857 440.864C283.029 439.663 280.75 437.452 279.464 434.662C278.178 431.872 277.977 428.703 278.901 425.774ZM509.729 425.678L449.77 425.624C455.39 432.202 459.801 439.724 462.797 447.841L475.215 447.783C478.158 444.209 481.474 440.943 485.089 438.05C492.345 432.246 500.74 428.03 509.729 425.678ZM315.722 411.953C334.623 408.877 353.982 410.302 372.229 416.112C378.612 411.974 385.224 408.529 391.76 407.11C394.031 406.559 396.329 406.132 398.646 405.831C400.966 405.528 403.298 405.337 406.801 405.466C410.304 405.595 414.973 406.043 419.509 407.076C424.046 408.11 428.458 409.733 432.625 411.841C436.787 413.962 440.686 416.564 444.241 419.594H624.959L603.315 395.323L206.394 394.771L188.324 419.697L288.289 419.776C297.097 416.109 306.304 413.483 315.722 411.953ZM489.164 551.13C489.327 553.169 490.161 555.097 491.534 556.613C492.557 557.749 493.847 558.612 495.288 559.123C496.729 559.634 498.275 559.777 499.785 559.538C501.569 559.195 503.258 558.47 504.736 557.414C506.666 555.978 507.347 554.259 507.517 552.52C507.791 547.814 507.949 543.103 507.97 538.393C507.99 533.682 507.887 528.967 507.766 525.008C507.646 521.053 507.501 517.848 507.335 514.653C507.169 511.457 506.978 508.253 506.841 506.199C506.768 504.904 506.641 503.614 506.459 502.33C506.193 500.564 505.783 498.822 505.234 497.122C504.642 495.204 503.57 493.469 502.122 492.079C501.17 491.055 499.851 490.448 498.454 490.392C497.057 490.336 495.694 490.835 494.664 491.78C493.456 492.834 493.091 494.358 492.638 495.715C492.128 497.404 491.793 499.141 491.638 500.899C491.501 502.152 491.356 503.854 491.24 505.559C491.119 507.261 491.036 508.967 490.932 510.963C490.729 515.001 490.38 519.845 489.775 524.327C488.438 533.2 488.233 542.206 489.164 551.13ZM632.928 510.627C631.049 503.85 629.215 497.062 627.424 490.261L632.928 510.627ZM610.649 425.628L535.677 425.682C538.279 426.172 540.807 427.093 543.11 428.397C546.588 430.368 549.522 433.172 551.65 436.556C553.778 439.94 555.033 443.799 555.304 447.787L610.653 447.845V425.628H610.649Z" fill="black"/>
<path fill-rule="evenodd" clip-rule="evenodd" d="M632.927 510.627L634.679 518.056C635.48 521.497 636.293 524.937 635.87 525.51C635.447 526.083 633.795 523.783 632.151 521.48C630.482 519.487 628.85 517.464 627.254 515.412C624.702 512.175 620.755 507.12 618.401 504.132C616.044 501.152 615.272 500.239 614.471 499.355C612.86 497.589 611.124 495.943 609.275 494.428C608.275 493.673 607.088 493.207 605.842 493.079C604.596 492.951 603.339 493.166 602.207 493.702C601.46 494.055 600.771 494.54 600.19 495.134C599.613 495.732 599.144 496.426 598.804 497.184C595.714 503.748 593.671 510.756 592.748 517.952L590.407 531.229C588.876 538.002 588.996 545.099 591.428 552.163C591.769 552.877 592.238 553.595 592.952 554.272C594.293 555.487 596.018 556.192 597.826 556.266C599.634 556.34 601.411 555.776 602.846 554.674C605.133 552.927 605.714 550.64 606.087 548.416C607.328 538.899 608.407 529.357 609.565 519.832C613.921 529.149 619.375 537.911 625.81 545.934C628.292 548.71 630.753 551.271 633.226 552.259C636.924 553.736 640.718 553.105 644.876 550.333C645.744 549.719 646.545 549.013 647.267 548.233C648.703 546.668 649.965 544.942 651.019 543.095C654.405 537.284 654.933 530.889 654.692 524.63C654.53 520.397 653.957 516.189 652.982 512.067C652.086 508.323 650.893 504.657 649.417 501.102C647.94 497.548 646.177 494.119 644.146 490.851C642.125 487.576 639.842 484.471 637.319 481.566C635.123 479.18 632.761 478.047 630.275 478.246C629.661 478.329 629.068 478.532 628.532 478.848C626.523 480.11 626.021 481.84 626.167 483.55C626.432 485.8 626.856 488.032 627.424 490.257L632.927 510.627ZM659.378 502.625C661.455 505.009 664.303 506.59 667.425 507.091L663.495 515.736C662.84 515.912 662.219 516.195 661.656 516.574C658.95 518.608 658.477 521.106 659.29 523.746C659.519 524.381 659.851 524.983 660.262 525.514C657.626 530.113 655.277 534.807 654.555 539.397C653.97 543.087 655.406 547.05 656.979 550.802C657.643 552.325 658.423 553.803 659.199 555.276C660.485 557.568 662.449 559.406 664.823 560.535C669.907 562.697 675.784 562.244 681.578 560.281C685.795 558.654 689.944 556.853 694.012 554.882C698.079 552.91 702.068 550.769 704.305 549.499C706.55 548.233 707.044 547.839 707.467 547.37C709.476 544.925 709.372 542.032 707.733 538.994C707.286 538.253 706.726 537.586 706.073 537.019C702.782 534.18 698.843 534.944 695.12 535.384C691.115 536.222 687.255 537.284 683.325 538.235C679.241 539.704 675.153 541.177 674.352 539.567C673.543 537.953 676.004 533.254 678.469 528.56C679.814 528.772 681.167 528.901 682.524 528.897C686.998 528.892 691.472 528.963 695.954 528.88C696.037 528.863 696.124 528.847 696.726 528.681C698.054 528.324 700.835 527.548 702.968 526.888C704.093 526.618 705.604 525.41 706.114 524.319C706.641 523.198 706.85 521.953 706.719 520.722C706.587 519.49 706.119 518.318 705.367 517.334C703.827 515.313 701.752 514.835 699.764 514.507C694.975 514.121 690.169 513.997 685.359 513.744L685.811 508.855C689.654 509.075 693.518 509.004 697.37 508.61C702.914 508.037 708.094 506.908 713.29 505.904C714.411 505.671 715.569 505.182 716.656 504.24C718.706 502.355 719.175 500.504 718.059 498.271C717.058 496.551 715.917 494.916 714.647 493.382C712.678 491.199 710.238 489.492 707.513 488.388C704.787 487.285 701.847 486.814 698.914 487.012C688.455 487.555 678.315 487.63 667.674 490.813C665.122 491.573 662.606 492.477 660.158 493.515C659.163 493.962 658.369 494.762 657.929 495.76C657.178 497.736 657.348 500.143 659.378 502.625ZM535.304 508.373C551.112 506.514 566.892 504.771 582.717 502.791C584.281 502.467 586.236 502.023 588.237 500.201C590.378 498.163 590.822 496.441 590.192 494.445C589.934 493.602 589.042 492.453 587.672 491.286C586.987 490.712 586.236 490.222 585.435 489.825C584.542 489.395 583.604 489.065 582.638 488.842C577.937 487.738 573.119 487.212 568.29 487.273C564.514 487.26 560.738 487.4 556.972 487.692C548.532 488.422 540.209 490.161 532.182 492.872C529.387 493.869 526.722 495.201 524.247 496.839C523.058 497.621 521.921 498.479 520.844 499.409C517.528 502.318 516.258 505.045 515.436 508.062C514.817 511.088 515.391 514.235 517.038 516.848C517.856 518.135 518.918 519.272 520.159 520.16C522.566 521.928 525.559 522.443 528.364 522.953C533.892 523.954 539.52 522.775 545.078 522.796C550.178 522.841 555.37 522.754 560.529 523.821C565.165 524.766 569.611 526.476 573.686 528.88C575.13 529.913 575.362 531.208 574.81 532.615C574.379 533.649 571.988 535.545 570.183 536.674C569.458 537.129 568.709 537.541 567.938 537.911C555.997 543.186 543.293 543.456 530.738 539.268C530.365 539.065 530.008 538.891 529.626 538.152C529.319 537.322 529.115 536.38 530.406 535.296C531.639 534.666 533 534.4 534.328 534.309C536.752 534.197 540.027 534.798 543.081 536.23C548.042 538.406 553.513 539.148 558.873 538.372C561.54 537.98 564.14 537.219 566.597 536.11C567.266 535.796 567.809 535.265 568.137 534.603C568.463 533.941 568.571 533.193 568.444 532.466C568.241 531.428 567.294 529.868 565.443 528.311C563.505 526.776 560.977 525.805 558.512 525.182C557.342 524.905 556.153 524.712 554.955 524.605C552.699 524.367 550.436 524.202 548.17 524.111C543.349 523.935 538.523 524.139 533.735 524.721C531.95 524.941 530.912 525.157 529.9 525.456C528.883 525.75 527.891 526.123 526.932 526.572C526.003 527.001 525.108 527.5 524.255 528.067C520.429 530.802 519.312 533.549 518.964 536.529C518.9 537.414 518.969 538.304 519.167 539.169C519.362 540.036 519.686 540.87 520.408 542.103C521.122 543.336 522.238 544.958 523.529 546.432C524.824 547.901 526.301 549.221 527.899 550.362C529.716 551.642 531.688 552.685 533.768 553.466C536.312 554.467 539.678 555.513 543.114 556.247C546.543 556.982 550.045 557.405 553.548 557.501C557.06 557.592 560.567 557.36 563.082 557.069C565.597 556.778 567.103 556.43 568.593 556.015C571.507 555.215 574.337 554.137 577.043 552.794C578.226 552.188 579.185 551.62 580.098 550.976C581.015 550.341 581.891 549.644 582.717 548.889C585.385 546.423 586.834 544.141 587.71 541.767C588.025 540.916 588.278 540.04 588.457 538.55C588.847 535.583 588.739 530.752 587.174 526.784C586.467 524.847 585.506 523.014 584.315 521.331C583.203 519.751 581.861 518.347 580.335 517.164C577.306 514.842 573.675 513.437 569.872 513.117C561.666 512.212 553.424 511.648 545.181 510.282C541.874 509.725 538.58 509.088 535.304 508.373ZM229.62 523.692C230.226 519.55 230.981 514.819 232.126 510.116C232.72 507.701 233.421 505.319 234.069 503.189C234.716 501.06 235.297 499.189 235.829 497.3C236.356 495.416 236.833 493.515 237.119 492.241C237.663 489.838 237.622 489.199 237.609 487.775C237.58 486.605 237.397 485.335 236.601 484.152C234.808 481.645 232.479 481.297 230.151 481.608C228.366 481.886 226.947 483.467 225.756 485.044C225.277 485.67 224.82 486.313 224.386 486.97C223.787 487.877 223.25 488.824 222.78 489.805C222.025 491.311 220.933 493.648 219.933 496.026C217.028 502.891 214.874 510.54 213.429 517.599C212.981 519.924 212.641 522.264 212.404 524.613C211.956 529.146 211.923 533.532 211.981 537.687C212.002 539.687 212.031 541.692 212.213 543.443C212.392 545.195 212.728 546.689 213.28 548.104C213.832 549.52 214.595 550.856 215.546 552.039C217.376 554.259 219.472 555.845 221.19 556.65C224.125 558.032 226.735 558.227 229.79 557.887C233.882 557.451 237.821 555.276 241.9 552.533C242.847 551.885 243.764 551.209 245.121 550.134C248.591 547.367 251.969 544.488 255.252 541.501C255.135 544.688 255.161 547.879 255.331 551.063C255.505 554.247 255.825 557.418 256.115 559.605C256.406 561.788 256.663 562.979 257.004 564.154C257.746 566.635 258.606 568.727 260.075 570.989C260.855 572.184 261.859 573.488 263.071 574.558C264.283 575.633 265.698 576.48 267.222 577.044C268.745 577.609 270.368 577.883 271.463 577.958C272.559 578.032 273.123 577.899 273.655 577.692C274.584 577.294 275.443 576.783 276.24 575.438C276.933 574.243 277.436 572.662 277.494 571.213C277.527 570.458 277.456 569.703 277.436 568.275C277.415 566.847 277.44 564.747 277.431 562.655C277.427 560.555 277.386 558.459 277.386 555.235C277.386 552.014 277.427 547.66 277.685 543.319C278.203 534.74 279.54 526.103 281.636 517.55C286.118 516.396 290.596 515.217 293.028 514.557C295.465 513.906 295.855 513.773 296.237 513.611C296.618 513.449 296.988 513.271 297.345 513.063C298.075 512.661 299.312 511.644 300.59 510.345C305.566 505.14 306.762 499.45 304.222 493.511C303.508 491.684 302.57 489.952 301.429 488.356C300.874 487.595 300.23 486.902 299.511 486.293C298.795 485.692 297.999 485.194 297.145 484.812C296.177 484.377 295.151 484.082 294.099 483.936C291.559 483.504 287.762 483.504 284.549 484.812C282.985 485.414 281.507 486.24 279.199 487.925C276.283 490.093 273.473 492.4 270.778 494.839C265.586 494.398 260.494 493.153 255.684 491.149C254.673 490.732 253.731 490.163 252.891 489.464C252.165 488.844 251.553 488.101 251.085 487.269C250.629 486.435 250.338 485.505 250.052 484.924C249.437 483.762 248.84 483.716 248.192 483.442C247.452 483.196 246.65 483.209 245.918 483.48C244.835 483.915 243.689 484.272 242.61 486.003C242.017 486.945 241.344 488.389 241.041 489.477C240.738 490.564 240.805 491.29 240.925 492.453C241.046 493.619 241.212 495.229 241.681 496.752C242.664 499.824 244.374 502.139 247.794 504.526C249.504 505.738 251.716 507.091 253.945 508.406C256.178 509.714 258.431 510.98 260.718 512.187C259.106 517.829 257.838 523.562 256.921 529.357L250.338 528.735L234.99 533.881C233.247 534.666 231.267 534.757 229.283 533.802C227.91 532.856 227.681 531.578 228.644 530.221L228.86 529.544C229.076 527.622 229.329 525.713 229.62 523.692ZM86.1263 474.1L86.0226 474.096L88.7867 475.212C87.9787 474.676 87.0758 474.298 86.1263 474.1Z" fill="black"/>
<path fill-rule="evenodd" clip-rule="evenodd" d="M211.142 539.77C211.108 537.595 211.054 535.42 210.981 533.246C210.957 532.212 210.892 531.179 210.785 530.15C210.702 529.403 210.59 528.664 209.532 523.045C208.132 515.613 206.698 508.188 205.228 500.77C203.996 494.598 203.531 492.751 202.991 490.925C201.912 487.272 200.523 483.718 198.841 480.3C198.507 479.783 198.081 479.331 197.583 478.968C197.082 478.612 196.519 478.35 195.923 478.196C194.699 477.889 192.889 478.101 191.071 478.777C190.106 479.159 189.213 479.704 188.432 480.388C186.614 481.919 185.585 484.442 183.875 486.464C182.953 487.651 181.978 488.796 180.87 490.091C179.662 491.486 178.491 492.913 177.359 494.37C176.197 495.885 175.113 497.466 173.499 499.998C171.885 502.53 169.743 506.016 167.718 509.577C165.696 513.133 163.793 516.756 162.011 520.438L157.167 520.031C159.841 512.088 161.636 503.875 162.521 495.54C163.418 487.078 163.439 478.109 162.223 468.987C161.588 464.347 160.591 459.752 159.238 455.27C157.885 450.787 156.171 446.413 154.81 443.292C153.809 440.942 152.652 438.663 151.345 436.469C149.09 432.678 146.469 429.117 143.521 425.836C141.815 423.885 139.74 421.631 137.653 419.39C135.565 417.149 133.465 414.92 131.842 413.343C130.219 411.766 129.074 410.836 127.833 410.06C126.592 409.284 125.26 408.653 123.865 408.197C122.63 407.799 121.362 407.512 120.076 407.338C118.403 407.126 117.947 407.371 117.005 407.894C115.643 408.819 115.212 410.015 115.627 411.268C115.722 411.538 115.868 411.795 116.756 412.874C117.644 413.957 119.283 415.858 120.894 417.788C123.981 421.482 126.65 424.977 128.468 428.21C129.364 429.762 130.194 431.347 131.207 433.456C132.216 435.556 133.403 438.175 134.569 440.802C136.823 445.903 138.906 450.738 140.213 455.336C140.857 457.577 141.363 459.852 141.737 462.151C142.11 464.45 142.351 466.766 142.488 469.327C142.882 477.213 142.475 485.982 141.164 494.287C139.852 502.746 137.234 510.949 133.403 518.604C127.509 530.019 118.32 539.398 107.027 545.523C103.166 547.668 98.8312 548.816 94.4145 548.864C92.3486 548.913 90.2945 548.538 88.38 547.76C87.4625 547.395 86.5827 546.942 85.7528 546.407C84.4211 545.551 83.3257 544.374 82.5671 542.985C81.8086 541.595 81.4113 540.038 81.4116 538.455C85.7334 534.85 89.766 530.911 93.4724 526.676C97.0624 522.559 100.109 518.542 102.425 514.806C103.562 512.984 104.624 511.108 105.629 509.207C106.637 507.302 107.592 505.364 108.538 502.642C109.484 499.911 110.418 496.395 110.842 492.809C111.265 489.224 111.169 485.571 110.568 482.01C110 478.805 109.11 475.665 107.911 472.639C106.969 470.302 106.206 469.09 105.293 468.011C104.376 466.929 103.308 465.984 102.122 465.206C98.266 462.749 93.7214 462.209 89.3221 462.608C87.8155 462.753 86.3214 463.039 83.7607 463.965C81.1999 464.899 77.5767 466.472 74.2938 468.596C71.0021 470.73 68.0771 473.382 65.632 476.449C63.3985 479.315 61.5005 482.427 59.9751 485.725C58.6844 488.493 58.0328 490.581 57.4351 492.677C55.7045 498.711 54.3141 505.252 54.1688 511.411C54.119 513.412 54.1896 515.42 54.4013 517.408C54.6129 519.401 54.9615 521.376 55.5177 525.103C56.0738 528.822 56.8334 534.288 57.5721 539.758C56.2261 541.259 54.4413 542.297 52.4714 542.725C51.496 542.945 50.4792 543.016 48.844 542.771C47.2046 542.518 44.951 541.949 42.8634 540.986C40.7757 540.024 38.8624 538.675 37.2272 537.048C35.5903 535.414 34.243 533.514 33.2429 531.428C31.0806 527.12 31.0889 522.21 30.9685 517.533C30.9546 515.104 31.0571 512.676 31.2756 510.257C31.4915 507.842 31.8276 505.435 32.4336 502.264C33.0354 499.093 33.907 495.163 34.8906 491.257C35.8742 487.352 36.9657 483.471 38.4765 479.089C39.983 474.706 41.9129 469.825 44.2205 465.123C46.5281 460.42 49.2175 455.901 52.2638 451.642C54.9827 447.905 57.8874 444.306 60.9671 440.86C63.2207 438.328 64.3164 437.262 65.4162 436.195L68.4128 433.323C69.4792 432.347 70.4647 431.287 71.3595 430.152C73.2022 427.844 73.9493 426.35 72.6461 424.225C71.8036 423.034 70.6498 422.806 69.5541 422.723C69.1557 422.706 68.7531 422.74 67.8276 423.001C65.0941 423.821 62.4658 424.958 59.9959 426.388C56.8832 428.251 54.0236 430.505 51.1225 432.7C49.5126 433.949 47.935 435.239 46.3911 436.568C43.8123 438.775 41.4166 441.188 39.2277 443.782C38.1569 445.048 37.1318 446.351 35.5048 448.708C33.4242 451.721 31.457 454.811 29.6072 457.972C27.5611 461.483 25.7059 465.102 24.0375 468.804C21.008 475.556 18.5345 482.543 16.6416 489.697C15.8298 492.706 15.0922 495.736 14.4295 498.782C13.5007 502.98 12.8861 507.242 12.5909 511.532C12.0098 519.43 12.4996 527.195 15.3592 535.301C16.0523 537.168 16.9031 538.969 17.9573 540.646C19.0114 542.323 20.269 543.875 21.6925 545.249C24.6019 548.042 27.8599 549.935 30.9312 551.342C32.4958 552.068 34.0979 552.711 35.7289 553.276C40.3483 554.869 44.5857 555.708 48.8689 554.873C52.6249 554.131 55.7418 552.508 58.921 551.84C59.9585 551.586 61.0003 551.371 62.0545 551.192C63.2664 552.599 64.499 553.981 65.7441 555.359C66.9892 556.737 68.2426 558.107 69.994 559.754C71.7455 561.402 73.9991 563.323 76.4768 564.896C78.9546 566.465 81.6647 567.69 84.4828 568.565C87.305 569.441 90.231 569.968 94.2153 570.01C98.1996 570.051 103.238 569.599 108.148 568.532C113.059 567.468 117.811 565.77 122.284 563.481C126.741 561.194 130.883 558.31 133.743 556.102C136.603 553.894 138.188 552.358 139.736 550.79C142.729 547.803 145.532 544.631 148.128 541.294C150.182 538.642 151.129 537.056 152.291 534.948C152.855 533.91 153.374 532.848 153.851 531.764L158.288 533.068L153.963 547.004C153.389 548.808 153.184 550.708 153.362 552.592C153.539 554.477 154.095 556.306 154.997 557.97C155.57 559.003 156.259 559.879 157.089 560.588C158.799 562.049 161.06 562.742 163.173 562.56C164.26 562.469 165.323 562.149 166.099 561.809C166.875 561.468 167.361 561.107 167.813 560.705C169.93 558.854 170.448 556.762 171.341 554.695C172.984 550.387 174.744 546.05 176.276 541.771C176.462 541.19 176.628 540.605 176.79 540.019L194.757 539.683C194.96 541.837 195.172 543.987 195.305 545.22C195.433 546.457 195.479 546.772 195.541 547.083C195.69 547.846 195.934 548.586 196.268 549.287C196.562 549.955 197.04 550.985 197.554 552.001C198.073 553.014 198.625 554.01 199.111 554.77C200.173 556.442 201.003 557.081 202.053 557.737C204.286 558.941 206.536 559.597 208.939 556.38C209.652 555.347 209.96 554.629 210.267 553.633C210.636 552.412 210.96 550.827 211.093 549.391C211.163 548.652 211.196 547.913 211.205 546.311C211.213 544.693 211.188 542.232 211.142 539.77ZM77.0828 522.044C76.494 519.785 76.0545 517.489 75.7671 515.171C75.182 510.43 75.2267 505.632 75.8999 500.903C76.2444 498.292 76.7508 495.403 77.3609 492.531C77.971 489.668 78.6806 486.821 79.1828 484.957C79.9505 481.912 81.1172 478.981 82.6525 476.241C82.8725 475.855 83.1464 475.498 83.466 475.191C84.2628 474.548 84.8314 473.971 86.0226 474.092L85.8192 474.004C86.3766 473.905 86.9507 473.965 87.4757 474.177C88.0006 474.389 88.455 474.745 88.7867 475.204C89.6085 476.337 90.1522 477.474 90.4717 478.707C91.0777 482.073 91.0984 485.069 90.9366 488.335C90.866 489.63 90.7539 490.925 90.4925 492.855C90.1631 495.215 89.7687 497.565 89.3096 499.902C88.8374 502.365 88.2446 504.803 87.5333 507.207C86.9338 509.241 86.1258 511.208 85.122 513.076C84.1464 514.85 82.9696 516.506 81.6149 518.01C80.2638 519.524 78.7431 520.878 77.0828 522.044ZM191.308 520.355C189.328 521.833 187.494 521.484 186.074 519.679L190.225 511.407L192.043 519.426C191.852 519.775 191.604 520.089 191.308 520.355Z" fill="black"/>
<path fill-rule="evenodd" clip-rule="evenodd" d="M131.718 439.74C130.521 437.559 129.376 435.35 128.281 433.116C126.953 448.397 126.355 463.691 126.492 478.998H129.804C130.136 465.908 130.771 452.818 131.718 439.74ZM473.107 457.341L465.333 457.121L476.34 479.782C473.603 472.636 472.498 464.969 473.107 457.341ZM487.405 504.896C484.869 497.367 481.391 489.61 475.302 482.123C468.072 472.177 459.364 463.394 449.479 456.08C442.735 450.528 435.605 445.463 428.142 440.923C424.413 438.654 420.606 436.515 416.729 434.51C407.253 429.704 397.393 425.694 387.253 422.52C366.935 416.177 345.7 413.275 324.426 413.933C316.883 413.997 309.393 415.191 302.205 417.478C299.843 418.249 297.56 419.171 295.34 420.221C290.888 422.318 286.696 424.927 282.848 427.994C280.49 429.738 280.104 431.896 280.984 434.232C281.449 435.523 282.96 436.623 284.458 437.316C285.217 437.685 286.321 437.984 287.587 438.121C290.808 438.333 294.498 437.262 298.096 435.104C298.909 434.535 300.2 433.353 299.835 432.249C299.785 431.755 299.092 430.891 298.37 430.792C297.123 430.479 295.81 430.563 294.614 431.032C296.84 429.544 299.309 428.455 301.91 427.816C303.205 427.492 304.533 427.285 307.75 427.098C310.966 426.911 316.079 426.749 321.188 426.899C331.413 427.216 341.569 428.684 351.465 431.273C360.13 433.745 368.702 436.533 377.164 439.632C384.792 442.44 392.341 445.457 399.804 448.68C405.643 451.203 408.976 452.834 412.242 454.602C418.769 458.144 424.98 462.238 430.807 466.841C434.422 469.826 438.037 472.81 441.456 475.993C444.876 479.185 448.105 482.584 451.33 485.979C456.479 491.634 460.58 498.16 463.441 505.253C465.955 511.167 466.257 517.789 464.291 523.908C463.314 526.942 461.808 529.779 459.842 532.288C457.879 534.791 455.472 536.932 451.616 539.252C447.765 541.564 442.457 544.05 436.97 546.021C425.975 549.974 414.334 551.821 402.655 551.467C394.992 551.173 387.35 550.474 379.762 549.371L379.363 508.087C394.491 509.344 409.408 512.449 423.78 517.334C423.005 518.958 421.85 520.372 420.414 521.456C419.385 522.252 418.381 523.128 417.389 524.108C417.099 524.496 416.916 524.953 416.859 525.434C416.803 525.915 416.873 526.402 417.065 526.847C417.202 527.146 417.389 527.432 417.787 527.797C418.186 528.163 418.783 528.615 419.418 529.005C421.145 530.001 423.535 530.474 426.001 530.341C429.761 529.993 433.177 528.088 436.829 524.552C437.866 523.493 438.734 522.277 439.398 520.958C441.73 516.164 441.651 510.437 437.426 504.958C436.667 503.968 435.818 503.05 434.891 502.215C433.96 501.386 432.955 500.645 431.89 499.998C426.195 496.756 420.095 494.285 413.749 492.648C410.46 491.829 407.129 491.186 403.771 490.722C396.004 489.582 388.168 488.962 380.318 488.867C380.093 482.316 379.222 475.803 377.72 469.423C377.285 467.454 376.666 465.529 375.873 463.675C375.354 462.438 375.022 461.828 374.545 460.923C373.972 459.757 372.449 458.238 371.054 457.649C369.66 457.03 368.095 456.839 366.356 458.499C366.065 458.814 365.828 459.174 365.655 459.566C364.183 463.149 363.054 466.863 362.285 470.66C361.903 472.556 361.621 474.47 361.326 476.744C360.745 481.351 360.06 486.958 359.189 492.113C352.079 492.927 345.049 494.329 338.171 496.305C333.283 497.743 328.561 499.696 324.085 502.132C320.723 503.941 317.63 506.211 314.896 508.876C313.667 510.148 312.745 511.683 312.2 513.366C311.654 515.048 311.501 516.833 311.75 518.584C312.165 521.36 313.46 523.83 315.365 526.482C315.888 527.179 316.457 527.847 317.536 528.988C318.615 530.126 320.209 531.744 321.823 533.338C324.928 536.393 327.85 539.153 330.564 541.348C331.871 542.415 333.22 543.432 334.598 544.403C335.98 545.37 337.391 546.295 339.719 547.731C345.885 551.485 352.094 555.167 358.346 558.775L358.857 561.066L359.533 564.05C359.824 565.316 360.21 566.943 360.596 568.574C361.107 570.6 362.276 572.398 363.92 573.687C366.618 575.742 369.888 576.153 372.852 575.078C373.943 574.684 375.084 574.078 376.093 573.293C377.101 572.513 377.977 571.554 378.67 570.479C379.363 569.404 379.874 568.213 380.181 566.968C388.065 568.073 395.997 568.809 403.95 569.172C409.78 569.46 415.623 569.291 421.427 568.666C429.217 567.79 437.746 566.171 445.582 563.166C455.856 559.308 465.288 553.502 473.36 546.067C474.821 544.693 476.207 543.237 477.51 541.709C480.116 538.656 482.394 535.337 484.304 531.807C488.986 523.518 490.119 514.168 487.405 504.896ZM342.405 537.683C339.989 536.463 337.665 535.06 335.615 533.712C333.565 532.363 331.78 531.068 330.058 529.69C326.863 527.118 323.905 524.267 321.217 521.169C320.387 520.198 320.225 519.874 320.13 519.534C319.976 519.024 319.972 518.481 320.116 517.968C320.261 517.456 320.55 516.995 320.948 516.641C321.205 516.405 321.512 516.222 322.877 515.695C328.874 513.399 335.103 511.764 341.454 510.818C342.724 510.627 343.459 510.549 344.945 510.416C346.933 510.243 348.924 510.098 350.917 509.98C353.162 509.855 355.412 509.781 357.657 509.76L357.661 542.826C352.359 541.839 347.223 540.107 342.405 537.683ZM550.909 442.189C550.789 440.885 550.411 439.618 549.796 438.462C549.258 437.459 548.563 436.548 547.738 435.764C546.503 434.583 544.996 433.726 543.35 433.269C541.704 432.812 539.971 432.77 538.304 433.145C537.817 431.898 537.035 430.787 536.024 429.909C535.014 429.031 533.805 428.411 532.502 428.102C529.611 427.362 526.642 426.973 523.658 426.944C521.747 426.93 519.838 427.074 517.951 427.376C515.228 427.766 511.273 428.476 507.43 429.588C503.587 430.7 499.86 432.215 496.299 434.071C492.75 435.922 489.368 438.117 486.23 440.603C484.943 441.655 483.733 442.796 482.607 444.019C477.784 449.356 474.912 455.241 474.842 460.898C474.8 462.396 474.937 463.903 475.124 465.136C475.497 467.485 476.049 469.128 476.801 471.054C477.585 473.009 478.826 475.254 480.142 477.703L482.047 481.222C482.516 482.111 482.76 482.567 483.076 482.961C483.399 483.359 483.795 483.692 484.242 483.941C485.213 484.547 486.919 484.663 488.658 484.426C489.638 484.277 490.605 483.974 491.497 483.526C492.389 483.086 493.215 482.505 493.887 481.708C494.56 480.907 495.087 479.89 495.734 479.691C496.39 479.492 497.17 480.123 497.971 480.558C498.772 480.994 499.594 481.247 500.437 481.413C501.271 481.583 502.122 481.666 503.491 481.666C504.853 481.666 506.733 481.579 508.355 481.48C509.97 481.38 511.323 481.26 512.253 481.156C513.182 481.052 513.705 480.953 514.838 480.737C517.171 480.326 521.267 479.421 524.533 478.047C527.85 476.761 531.714 474.553 535.681 471.415C539.62 468.258 543.073 464.538 545.928 460.375C548.742 456.329 550.307 452.386 550.834 448.198C551.089 446.204 551.114 444.188 550.909 442.189ZM496.847 452.739C493.926 455.397 491.187 458.249 488.65 461.276C489.502 457.798 491.055 454.531 493.214 451.674C495.373 448.818 498.092 446.432 501.204 444.662C505.879 442.009 510.991 440.216 516.299 439.37C509.24 442.926 502.696 447.423 496.847 452.739ZM535.507 451.34C535.251 452.779 534.71 454.152 533.916 455.38C533.122 456.607 532.091 457.663 530.883 458.487C528.875 459.798 526.87 461.114 524.787 462.293C520.645 464.517 516.536 466.796 512.132 467.597C507.802 468.459 503.331 468.296 499.075 467.12C505.337 458.062 514.397 451.309 524.865 447.895C527.386 447.089 530.061 446.893 532.672 447.323C533.124 447.397 533.556 447.56 533.944 447.803C534.332 448.046 534.667 448.364 534.931 448.737C535.195 449.111 535.382 449.534 535.481 449.981C535.579 450.428 535.588 450.89 535.507 451.34ZM788.83 515.687C788.754 513.169 788.354 510.672 787.639 508.258C786.185 503.416 783.484 499.041 779.807 495.57C776.263 492.54 771.922 491.694 767.622 492.976C766.244 493.408 764.941 494.076 761.583 496.587C758.226 499.098 752.822 503.456 747.593 508.017C742.359 512.573 737.303 517.328 732.436 522.273C733.531 519.073 734.776 515.923 736.196 512.852C737.607 509.785 739.197 506.797 740.396 504.585C741.587 502.372 742.388 500.936 743.11 499.463C743.832 497.99 744.463 496.471 744.87 495.396C745.65 493.325 745.671 492.449 745.642 491.034C745.609 490.37 745.505 489.714 745.368 489.208C745.231 488.701 745.069 488.344 744.833 488.037C743.268 486.103 741.039 486.85 739.006 488.162C738.412 488.601 737.862 489.096 737.362 489.639C734.833 492.24 732.386 494.92 730.024 497.674C726.165 502.273 722.891 507.334 720.279 512.74C718.989 515.442 717.872 518.227 717.167 520.152C716.461 522.074 716.171 523.132 715.942 524.203C715.462 526.455 715.29 528.761 715.432 531.059C715.577 533.923 716.104 537.729 717.005 541.095C717.449 542.788 717.984 544.461 718.611 546.096C716.25 551.136 714.155 556.296 712.336 561.556C710.514 566.812 708.983 572.165 707.75 577.589C706.697 582.298 705.823 587.045 705.131 591.82C704.662 595.14 704.637 596.282 704.716 597.419C705.023 602.383 707.397 607.455 712.224 612.559C715.515 615.627 719.574 615.523 723.678 612.09C725.857 603.682 728.065 595.307 730.066 586.915L732.083 580.203C732.764 577.971 733.785 575.85 735.1 572.579C736.42 569.309 738.196 564.943 739.981 560.572C743.953 559.828 747.896 558.935 751.801 557.895C754.664 557.144 757.43 556.063 760.044 554.675C761.301 554.007 762.526 553.264 764.144 552.143C765.763 551.023 767.792 549.516 769.768 547.947C771.656 546.447 773.492 544.881 775.271 543.253C778.113 540.684 780.642 537.789 782.808 534.629C787.315 528.146 789.137 522.111 788.83 515.687ZM771.955 525.025C770.859 526.768 769.506 528.341 767.942 529.682C765.18 531.936 762.298 534.039 759.309 535.982C758.289 536.646 757.118 537.044 755.904 537.138C754.69 537.232 753.472 537.02 752.361 536.521C756.533 527.095 762.487 518.563 769.897 511.395C771.104 510.271 772.125 510.358 773.084 510.652C774.055 510.893 775.093 512.362 775.047 513.275C775.232 517.415 774.154 521.513 771.955 525.025ZM189.777 635.747C189.469 633.671 188.792 631.666 187.776 629.829C187.149 628.705 186.379 627.667 185.485 626.741C182.783 623.935 179.617 622.748 176.471 622.159C174.788 621.826 173.077 621.651 171.362 621.636H149.319V628.331H155.478V667.925H149.319V674.623H169.477V667.925H163.318V655.154H172.681C176.803 655.063 181.011 654.644 185.481 649.941C187.193 648.035 188.466 645.775 189.208 643.322C189.95 640.869 190.144 638.283 189.777 635.747ZM178.633 645.887C176.276 647.8 174.001 647.937 171.797 647.987H163.343V628.991H171.494C174.225 629.003 177.039 629.522 179.363 631.892C180.713 633.275 181.596 635.045 181.891 636.955C182.36 640.259 181.443 643.388 178.633 645.887Z" fill="black"/>
</svg>
