<svg width="801" height="800" viewBox="0 0 801 800" fill="none" xmlns="http://www.w3.org/2000/svg">
<g clipPath="url(#clip0_1_358)">
<path d="M525.612 358.59C542.993 354.396 564.136 358.298 575.484 373.136C580.31 378.955 582.367 386.372 584.16 393.573C576.525 393.693 568.861 393.693 561.226 393.693C557.905 377.256 535.332 370.685 523.357 381.936C514.918 391.124 513.394 404.772 515.139 416.678C517.004 425.815 520.691 436.434 530.12 440.218C543.553 445.233 559.43 436.288 561.226 421.816C569.01 421.816 576.814 421.79 584.621 421.962C582.999 435.879 576.282 450.373 562.657 456.072C541.514 465.26 511.234 462.52 498.988 440.63C500.933 431.708 503.113 422.422 501.099 413.305C499.96 406.568 496.444 400.627 494.262 394.228C494.219 376.821 509.151 362.031 525.612 358.59Z" fill="#2E3233"/>
<path d="M292.801 361.132C301.163 361.061 309.527 361.061 317.892 361.035C322.861 382.973 325.624 405.424 331.686 427.124C337.77 409.134 340.582 390.248 345.752 371.994C347.276 366.467 351.619 360.626 357.969 361.038C364.855 360.214 369.535 366.591 370.942 372.601C375.888 390.543 379.135 408.942 384.639 426.764C390.967 405.258 394.437 383.076 399.068 361.158C407.232 361.061 415.382 361.061 423.555 361.135C416.715 388.652 408.983 415.925 401.975 443.393C400.253 450.233 397.249 458.036 389.926 460.56C381.635 462.45 374.118 455.857 372.107 448.173C366.946 431.684 363.21 414.764 358.118 398.229C354.022 414.666 349.828 431.055 345.317 447.372C343.618 454.67 337.218 462.159 329.003 460.708C321.073 459.81 317.168 451.932 315.426 445.046C307.925 417.066 300.29 389.112 292.801 361.132Z" fill="#9DE60B"/>
<path d="M589.687 361.112C597.182 361.086 604.697 361.086 612.189 361.061C612.137 369.305 612.066 377.546 612.721 385.742C624.773 386.589 637.986 383.17 649.088 389.281C658.666 394.418 664.192 405.28 664.121 415.996C664.27 430.906 664.072 445.815 664.144 460.751C656.846 460.8 649.574 460.822 642.3 460.845C642.154 446.519 642.471 432.19 642.231 417.864C642.52 413.015 639.076 407.946 634.081 407.389C626.809 406.467 619.463 406.954 612.166 407.097C612.215 424.987 612.192 442.903 612.192 460.822C604.7 460.8 597.208 460.8 589.718 460.8C589.687 427.565 589.739 394.347 589.687 361.112ZM762.066 361.083H783.375C783.352 368.578 783.352 376.042 783.324 383.534C789.022 383.534 794.717 383.534 800.442 383.559C800.416 389.086 800.416 394.639 800.416 400.165H783.126C783.567 412.824 782.185 425.622 783.858 438.229C787.689 442.958 794.451 442.28 799.858 443.804C799.786 449.454 799.764 455.104 799.764 460.777C787.52 461.046 770.791 462.645 764.512 449.334C759.102 433.649 763.153 416.485 761.943 400.217C756.465 400.165 750.984 400.143 745.506 400.071C745.506 394.59 745.48 389.112 745.48 383.66C751.01 383.588 756.537 383.539 762.089 383.514C762.066 376.045 762.066 368.578 762.066 361.083Z" fill="#2E3233"/>
<path d="M493.638 427.393C494.027 413.064 490.846 396.893 478.168 388.311C461.585 377.767 435.041 379.194 423.864 397.013C414.527 412.724 414.024 434.98 426.673 449.114C438.794 462.811 460.277 463.54 476.154 456.68C484.91 453.116 489.733 444.606 493.032 436.267C486.051 436.04 479.065 436.007 472.083 436.17C465.901 443.513 454.991 446.474 446.337 441.865C440.833 439.199 439.721 432.751 437.996 427.562C456.541 427.27 475.087 427.536 493.638 427.393ZM437.435 412.435C439.935 404.797 446.237 398.129 454.991 399.511C463.621 398.106 469.486 405.063 471.911 412.458C460.42 412.795 448.929 412.772 437.435 412.435Z" fill="#9DE60B"/>
<path d="M741.821 408.507C741.387 395.245 729.675 384.772 716.899 383.414C704.241 382.106 689.915 382.106 679.465 390.497C673.916 394.519 672.145 401.43 670.712 407.758C677.234 407.929 683.759 407.952 690.301 407.904C694.012 396.799 708.535 395.391 717.26 401.115C720.558 403.879 720.269 408.533 721.213 412.386C707.542 412.921 692.51 410.278 680.363 418.156C668.801 424.947 666.692 441.602 673.406 452.464C678.109 459.518 687.298 460.828 695.127 460.805C710.741 460.877 726.354 460.78 741.967 460.805C741.821 443.347 742.259 425.911 741.821 408.507ZM691.64 440.435C690.622 436.604 692.799 433.111 694.063 429.696C702.739 427.731 711.662 427.465 720.561 427.659C720.61 433.744 720.61 439.808 720.587 445.893C710.935 445.283 699.101 448.341 691.64 440.435Z" fill="#2E3233"/>
<path d="M155.079 301.034C126.758 285.086 91.4581 282.68 60.9809 293.69C40.9622 300.902 22.8257 314.301 11.6263 332.555C1.47394 349.009 -2.33642 369.537 2.57243 388.366C7.48414 409.269 21.9675 426.781 39.612 438.487C36.2936 448.136 33.021 457.782 29.9373 467.5C41.0909 461.707 52.1129 455.665 63.2236 449.77C76.6229 454.061 90.7029 456.117 104.769 455.665C101.104 444.918 100.235 433.344 101.902 422.13C104.568 406.574 112.984 392.334 124.616 381.775C144.2 363.436 171.968 355.686 198.389 357.554C193.451 333.336 176.43 312.851 155.079 301.034ZM79.1603 344.967C77.1921 354.456 64.4709 359.033 57.0418 352.674C48.437 346.604 50.8428 331.525 60.9666 328.499C70.873 324.674 82.1439 334.74 79.1603 344.967ZM147.95 342.215C148.036 353.137 133.492 359.946 125.308 352.528C116.821 346.458 119.226 331.668 129.19 328.599C138.101 325.094 148.645 332.612 147.95 342.215Z" fill="#9DE60B"/>
<path d="M267.759 408.488C260.848 392.829 247.798 380.428 232.659 372.753C205.932 359.194 172.674 359.297 146.036 373.071C127.508 382.588 112.052 399.623 107.649 420.351C104.028 435.604 107.286 452.03 115.37 465.343C127.422 485.319 149.18 498.066 171.819 502.165C188.216 505.498 205.166 503.544 221.085 498.907C230.617 502.632 239.161 508.628 248.418 513.062C246.052 505.056 243.502 497.107 240.772 489.218C251.127 481.818 260.573 472.632 266.252 461.072C274.699 444.975 275.205 425.043 267.759 408.488ZM174.734 414.47C172.388 421.87 161.595 424.101 156.409 418.452C150.673 413.251 152.902 402.343 160.42 400.026C168.781 396.508 178.399 406.125 174.734 414.47ZM229.186 415.497C226.331 422.162 216.351 423.695 211.428 418.54C209.039 416.395 208.458 413.137 207.503 410.256C208.779 405.07 212.24 399.666 218.133 399.434C226.289 398.316 233.443 408.211 229.186 415.497Z" fill="#2E3233"/>
</g>
<defs>
<clipPath id="clip0_1_358">
<rect width="800" height="800" fill="white" transform="translate(0.444336)"/>
</clipPath>
</defs>
</svg>
