<svg width="801" height="800" viewBox="0 0 801 800" fill="none" xmlns="http://www.w3.org/2000/svg">
<g clipPath="url(#clip0_1_367)">
<path d="M737.682 252.244V257.977H747.49V284.983H753.72V258.061H763.359V252.16L737.682 252.239V252.244ZM769.174 252.494V284.902H774.161V259.891L781.94 281.622L787.188 281.585L795.264 260.222V285.315H800.333V252.413H791.028L784.464 275.539L777.733 252.494H769.174ZM0.335797 447.257V355.526C0.335797 355.526 -0.661796 315.975 38.8893 276.424C78.4404 236.872 115.999 241.194 115.999 241.194H167.848C167.848 241.194 232.994 143.478 361.947 143.478C490.902 143.478 564.685 239.863 564.685 239.863H623.185C623.185 239.863 637.952 239.194 656.508 248.515C675.268 257.938 692.148 268.793 709.328 295.459C726.559 322.202 728.872 341.47 728.872 355.523V455.896C728.872 476.822 726.877 493.12 691.648 528.349C656.419 563.578 611.214 559.59 611.214 559.59H557.375C557.375 559.59 490.126 656.523 363.939 656.523C237.734 656.523 173.162 560.256 173.162 560.256H113.338C113.338 560.256 73.7867 562.583 35.5648 524.359C-2.65436 486.142 0.999105 447.257 0.335797 447.257ZM63.816 315.306L101.043 475.842H141.921L160.201 383.445L177.816 475.842H219.693L256.92 316.306H212.384L199.423 403.721L181.143 315.977H140.926L122.648 404.718L109.021 315.646L63.816 315.311V315.306ZM277.957 360.219V475.698H317.242V360.219H277.957ZM323.193 327.598C323.193 338.769 312.101 347.837 298.43 347.837C284.764 347.837 273.669 338.769 273.669 327.596C273.669 316.422 284.764 307.359 298.43 307.359C312.101 307.359 323.193 316.427 323.193 327.598ZM332.717 536.883C332.717 536.883 381.764 499.661 381.764 444.264V350.927C381.764 335.924 389.458 314.664 412.477 291.645C435.495 268.624 455.781 264.979 469.858 264.979H616.049C640.897 265.321 660.207 275.739 677.958 292.359C694.401 309.636 705.098 331.289 705.098 354.978V444.262C705.098 461.839 700.387 487.311 677.003 508.787C653.618 530.265 635.601 536.883 617.002 536.883H332.717ZM602.717 360.337V475.811H642.005V360.337H602.717ZM647.956 327.717C647.956 338.888 636.864 347.953 623.196 347.953C609.527 347.953 598.432 338.888 598.432 327.717C598.432 316.546 609.527 307.475 623.196 307.475C636.864 307.475 647.956 316.546 647.956 327.717ZM437.48 474.982H481.527V426.884H565.338V390.928H481.287V353.315H576.288V315.932H437.24L437.48 474.982Z" fill="black"/>
<path d="M101.29 473.428C100.111 469.914 65.5581 319.446 65.5581 317.827C65.5581 316.551 70.7698 316.143 87.1077 316.143C98.9604 316.143 108.655 316.595 108.652 317.153C108.642 318.859 120.831 398.751 121.65 402.344C122.363 405.471 122.487 405.516 123.395 403.018C123.932 401.538 128.264 381.368 133.013 358.202L141.654 316.08L161.127 316.448L180.6 316.822L189.42 359.481C194.272 382.945 198.612 402.512 199.065 402.965C200.147 404.044 200.354 402.868 207.101 356.891L212.884 317.496H234.173C245.886 317.496 255.467 317.88 255.467 318.351C255.467 319.325 220.68 469.096 219.611 472.723C218.99 474.829 216.803 475.079 198.896 475.079C180.997 475.079 178.8 474.831 178.171 472.723C177.784 471.428 173.793 451.013 169.303 427.357C164.812 403.702 160.859 384.069 160.519 383.726C159.466 382.674 158.824 385.551 150.056 430.632L141.544 474.405L121.702 474.781C106.546 475.058 101.732 474.742 101.29 473.428ZM278.364 417.834V360.59H316.078V475.073H278.364V417.834ZM289.551 345.705C287.185 344.981 283.144 342.407 280.575 339.98C271.658 331.57 273.076 319.68 283.85 312.55C288.511 309.467 291.044 308.775 297.763 308.757C328.828 308.67 330.871 344.602 299.914 346.623C296.582 346.842 291.917 346.428 289.551 345.702V345.705ZM345.995 525.14C361.789 508.61 371.72 492.514 378.142 473.055C381.151 463.934 381.277 461.618 382.054 402.344C382.917 336.479 382.812 337.492 390.477 322.205C394.954 313.274 405.812 299.436 415.548 290.25C426.327 280.084 437.25 273.162 449.419 268.785L458.171 265.634H541.679C633.569 265.634 632.213 265.529 650.775 274.228C674.325 285.265 696.091 311.823 701.947 336.679C704.909 349.234 704.88 453.476 701.91 465.029C695.767 488.945 678.695 510.3 653.847 525.148C634.985 536.414 646.924 535.687 482.113 535.687H335.922L345.995 525.14ZM642.021 417.834V359.242H601.611V476.421H642.021V417.834ZM481.739 451.505V427.936H566.593V390.223H481.739V353.857H577.369V314.795H435.526L436.411 337.237C436.898 349.577 437.298 385.64 437.298 417.376V475.073H481.739V451.505ZM632.958 347.044C647.451 343.017 653.418 325.284 643.621 315.377C632.208 303.843 612.574 304.164 602.569 316.056C595.757 324.15 596.105 333.441 603.491 340.825C610.44 347.774 621.737 350.161 632.958 347.044Z" fill="white"/>
</g>
<defs>
<clipPath id="clip0_1_367">
<rect width="800" height="800" fill="white" transform="translate(0.333008)"/>
</clipPath>
</defs>
</svg>
