<svg width="801" height="800" viewBox="0 0 801 800" fill="none" xmlns="http://www.w3.org/2000/svg">
<g clipPath="url(#clip0_1_370)">
<path d="M65.4732 339.813C91.166 335.882 116.908 332.179 142.649 328.606C142.666 351.167 142.649 373.712 142.666 396.272C116.94 396.37 91.2149 396.762 65.4732 396.843C65.4569 377.822 65.4569 358.818 65.4732 339.813ZM0.22168 348.916C19.5688 345.931 38.999 343.353 58.4277 340.923C58.444 359.634 58.444 378.328 58.4603 397.039C39.048 397.023 19.634 397.316 0.22168 397.267V348.916ZM307.589 352.064C312.679 348.818 319.187 355.588 316.219 360.678C314.783 364.413 309.53 365.832 306.561 363.092C302.842 360.563 303.364 353.842 307.589 352.064ZM440.882 351.396C444.144 351.379 447.407 351.379 450.669 351.379V442.731H440.916C440.932 439.42 440.867 436.107 440.638 432.797C433.575 445.487 414.685 448.294 403.886 438.882C396.171 432.242 393.82 421.443 394.228 411.67C394.31 401.752 397.572 391.214 405.468 384.737C415.729 376.287 433.918 376.777 440.948 389.191C440.816 376.583 440.93 363.989 440.882 351.396ZM419.805 387.512C411.975 388.752 406.673 395.897 405.207 403.287C403.28 412.194 403.623 422.502 409.236 430.073C415.305 438.13 428.697 438.311 435.19 430.692C439.611 426.092 440.865 419.502 440.899 413.336C440.947 406.827 441.503 399.486 437.18 394.054C433.361 388.622 426.233 386.175 419.805 387.512ZM729.964 354.886C730.827 354.772 732.557 354.528 733.404 354.413C733.453 383.842 733.422 413.287 733.422 442.731H723.765C723.828 418.229 723.6 393.711 723.877 369.209C717.727 373.467 711.088 377.105 703.861 379.127C703.909 375.865 703.943 372.602 703.974 369.34C713.439 366.126 722.05 360.939 729.964 354.886ZM769.097 354.854C777.579 353.435 786.994 356.534 792.034 363.744C799.196 373.858 799.864 386.827 800.223 398.784C799.98 411.411 798.592 425.096 790.535 435.391C783.113 445.129 767.909 447.413 757.957 440.252C749.883 434.428 746.717 424.264 745.281 414.853C743.65 400.873 743.797 386.207 748.658 372.863C751.723 363.81 759.293 356.012 769.097 354.854ZM767.596 363.614C758.901 367.137 756.407 377.415 755.198 385.767C753.926 397.414 753.632 409.42 756.405 420.887C757.792 426.533 760.712 432.52 766.306 434.997C772.653 438.195 781.136 435.44 784.48 429.174C789.814 419.959 789.945 408.897 790.01 398.54C789.798 388.442 789.39 377.578 783.811 368.801C780.499 363.451 773.371 361.297 767.596 363.614ZM186.107 356.257C189.777 356.273 193.448 356.273 197.134 356.322C202.862 377.007 208.506 397.724 214.247 418.424C215.483 422.774 216.377 427.214 216.922 431.704C222.892 406.305 231.049 381.444 237.9 356.257C241.081 356.273 244.262 356.273 247.445 356.289C252.486 374.217 257.198 392.227 262.19 410.171C264.035 417.316 266.417 424.363 267.167 431.751C272.567 406.385 280.265 381.524 286.382 356.322C290.004 356.273 293.625 356.273 297.247 356.273C289.351 385.131 281.129 413.907 273.138 442.731H261.375C255.584 422.032 249.843 401.311 243.987 380.645C243.006 377.3 242.598 373.842 242.29 370.384C241.833 373.369 241.409 376.387 240.641 379.307C234.719 400.383 228.716 421.425 222.958 442.536C219.044 442.748 215.128 442.764 211.212 442.731C202.811 413.923 194.475 385.082 186.107 356.257ZM341.259 390.726C346.854 380.759 359.904 376.175 370.426 380.791C378.795 384.054 381.91 393.742 382.171 401.998C382.627 415.569 382.253 429.157 382.367 442.731C379.105 442.731 375.842 442.731 372.579 442.715C372.431 429.681 372.922 416.614 372.349 403.58C372.088 397.121 369.348 389.356 362.319 387.708C352.058 384.609 341.813 393.858 341.486 404.005C341.192 416.908 341.469 429.828 341.371 442.731H331.584C331.602 422.063 331.602 401.411 331.584 380.742H341.389C341.373 384.07 341.357 387.398 341.259 390.726ZM488.743 379.209C497.471 378.442 507.143 379.813 513.702 386.126C521.108 392.961 523.31 403.58 522.903 413.287C522.789 422.014 519.559 430.872 513.164 436.957C499.82 449.093 475.041 446.434 466.573 429.746C459.919 415.766 461.255 396.419 473.408 385.799C477.765 382.113 483.279 380.432 488.743 379.209ZM486.982 388.083C472.608 392.504 470.178 411.28 474.664 423.629C478.236 434.591 492.168 439.452 502.167 434.33C508.937 431.214 512.02 423.58 512.673 416.582C513.405 408.409 512.754 399.145 506.98 392.765C502.087 387.251 493.801 386.06 486.982 388.083ZM637.174 379.176C643.292 378.752 649.523 379.34 655.283 381.591C656.88 384.625 655.642 388.605 656.017 392.015C649.15 387.724 639.687 384.984 632.233 389.356C627.127 392.129 626.883 400.333 631.858 403.385C638.987 408.001 648.04 409.208 654.37 415.146C661.352 421.867 659.655 434.787 651.482 439.828C641.548 446.157 628.465 445.537 618.057 440.709C618.057 437.054 618.041 433.402 617.976 429.746C625.382 435.391 635.789 438.523 644.647 434.51C649.818 431.916 650.08 423.972 645.528 420.627C638.399 415.375 628.63 414.543 622.299 407.985C616.052 401.688 617.176 390.106 624.144 384.772C627.746 381.46 632.623 380.465 637.174 379.176ZM305.485 380.759C308.747 380.742 312.01 380.742 315.272 380.742V442.731H305.485C305.485 422.063 305.501 401.411 305.485 380.759ZM526.981 380.742H537.193C541.238 395.506 545.155 410.301 549.281 425.048C550.113 427.82 550.422 430.692 550.716 433.564C555.333 415.784 561.173 398.328 566.409 380.726L575.334 380.775C579.82 398.393 585.399 415.75 589.117 433.547C592.952 415.846 598.399 398.54 602.658 380.938C605.937 380.775 609.216 380.726 612.509 380.693C606.294 401.364 600.34 422.096 594.094 442.731H583.945C579.541 425.929 573.831 409.453 570.259 392.471C566.001 409.437 560.096 425.945 555.235 442.731H545.431C539.297 422.063 533.033 401.442 526.981 380.742ZM0.22168 403.156C19.6193 403.091 39.0137 403.401 58.4097 403.368C58.4097 422.128 58.4587 440.888 58.4277 459.648C39.048 456.775 19.634 454.265 0.22168 451.638V403.156ZM65.359 403.907H142.649C142.682 426.402 142.649 448.898 142.649 471.409C116.957 467.56 91.2149 463.987 65.4732 460.498C65.4406 441.638 65.3916 422.781 65.359 403.907Z" fill="#00ADEF"/>
</g>
<defs>
<clipPath id="clip0_1_370">
<rect width="800" height="800" fill="white" transform="translate(0.22168)"/>
</clipPath>
</defs>
</svg>
