<svg width="801" height="800" viewBox="0 0 801 800" fill="none" xmlns="http://www.w3.org/2000/svg">
<g clipPath="url(#clip0_1_373)">
<path d="M464.094 380.691H432.603V384.031C442.452 384.031 444.037 386.143 444.037 398.633V421.154C444.037 433.645 442.454 435.934 432.603 435.934C425.04 434.877 419.936 430.831 412.899 423.089L404.806 414.294C415.712 412.356 421.517 405.497 421.517 397.754C421.517 388.08 413.25 380.691 397.767 380.691H366.806V384.031C376.655 384.031 378.24 386.143 378.24 398.633V421.154C378.24 433.645 376.656 435.934 366.806 435.934V439.276H401.815V435.934C391.964 435.934 390.381 433.645 390.381 421.154V414.824H393.37L412.9 439.276H464.096C489.251 439.276 500.161 425.907 500.161 409.895C500.16 393.885 489.253 380.691 464.094 380.691ZM390.382 409.365V385.969H397.594C405.509 385.969 409.029 391.423 409.029 397.756C409.029 403.914 405.509 409.366 397.594 409.366L390.382 409.365ZM464.623 433.821H463.391C457.06 433.821 456.18 432.24 456.18 424.147V385.969H464.623C482.921 385.969 486.26 399.338 486.26 409.719C486.26 420.449 482.918 433.821 464.623 433.821ZM268.818 415.877L280.957 379.984C284.477 369.605 282.893 366.617 271.634 366.617V363.097H304.708V366.617C293.625 366.617 290.987 369.254 286.588 382.097L266.53 442.265H264.244L246.299 387.199L228.003 442.265H225.716L206.188 382.098C201.965 369.255 199.151 366.618 188.945 366.618V363.098H228.002V366.618C217.621 366.618 214.805 369.08 218.501 379.986L230.287 415.879L248.056 363.098H251.4L268.818 415.877ZM328.631 441.56C309.28 441.56 293.446 427.311 293.446 409.892C293.446 392.651 309.281 378.4 328.631 378.4C347.984 378.4 363.816 392.651 363.816 409.892C363.816 427.311 347.984 441.56 328.631 441.56ZM328.631 383.858C312.447 383.858 306.816 398.457 306.816 409.894C306.816 421.507 312.447 435.932 328.631 435.932C344.994 435.932 350.625 421.507 350.625 409.894C350.624 398.457 344.994 383.858 328.631 383.858Z" fill="#00749A"/>
<path d="M543.612 435.756V439.275H503.324V435.756C515.112 435.756 517.225 432.765 517.225 415.17V387.025C517.225 369.429 515.112 366.617 503.324 366.617V363.096H539.74C557.86 363.096 567.891 372.42 567.891 384.913C567.891 397.053 557.86 406.552 539.74 406.552H529.712V415.17C529.712 432.767 531.823 435.756 543.612 435.756ZM539.74 369.429H529.712V400.042H539.74C549.594 400.042 554.167 393.182 554.167 384.913C554.167 376.469 549.594 369.429 539.74 369.429ZM688.752 422.739L687.871 425.904C686.29 431.71 684.351 433.821 671.86 433.821H669.396C660.25 433.821 658.666 431.71 658.666 419.222V411.13C672.389 411.13 673.445 412.359 673.445 421.509H676.789V395.293H673.445C673.445 404.441 672.389 405.672 658.666 405.672V385.97H668.34C680.833 385.97 682.767 388.081 684.351 393.887L685.234 397.229H688.045L686.816 380.693H635.091V384.033C644.942 384.033 646.527 386.145 646.527 398.635V421.155C646.527 432.582 645.183 435.46 637.416 435.872C630.034 434.743 624.965 430.718 618.031 423.09L609.937 414.294C620.844 412.356 626.651 405.497 626.651 397.755C626.651 388.081 618.382 380.691 602.902 380.691H571.939V384.032C581.789 384.032 583.373 386.143 583.373 398.633V421.155C583.373 433.645 581.792 435.934 571.939 435.934V439.276H606.949V435.934C597.1 435.934 595.514 433.645 595.514 421.155V414.824H598.505L618.034 439.276H690.339L691.395 422.742L688.752 422.739ZM595.511 409.365V385.97H602.723C610.64 385.97 614.16 391.423 614.16 397.756C614.16 403.915 610.64 409.367 602.723 409.367L595.511 409.365ZM724.463 441.561C717.426 441.561 711.268 437.867 708.629 435.579C707.748 436.46 706.167 439.099 705.816 441.561H702.472V417.284H705.99C707.399 428.896 715.49 435.756 725.87 435.756C731.5 435.756 736.075 432.589 736.075 427.313C736.075 422.74 732.03 419.22 724.816 415.878L714.786 411.128C707.748 407.783 702.472 401.976 702.472 394.238C702.472 385.793 710.389 378.582 721.297 378.582C727.103 378.582 732.027 380.694 735.02 383.156C735.899 382.451 736.78 380.516 737.307 378.404H740.65V399.165H736.955C735.722 390.896 731.149 384.035 721.826 384.035C716.9 384.035 712.325 386.848 712.325 391.25C712.325 395.823 716.019 398.285 724.465 402.155L734.139 406.905C742.584 410.95 745.925 417.463 745.925 422.74C745.927 433.822 736.25 441.561 724.463 441.561ZM778.648 441.561C771.61 441.561 765.451 437.867 762.814 435.579C761.934 436.46 760.352 439.099 760.002 441.561H756.659V417.284H760.177C761.584 428.896 769.675 435.756 780.057 435.756C785.687 435.756 790.261 432.589 790.261 427.313C790.261 422.74 786.216 419.22 779.001 415.878L768.971 411.128C761.934 407.783 756.657 401.976 756.657 394.238C756.657 385.793 764.574 378.582 775.482 378.582C781.288 378.582 786.211 380.694 789.205 383.156C790.084 382.451 790.964 380.516 791.49 378.404H794.833V399.165H791.14C789.907 390.896 785.334 384.035 776.011 384.035C771.085 384.035 766.509 386.848 766.509 391.25C766.509 395.823 770.204 398.285 778.65 402.155L788.324 406.905C796.77 410.95 800.11 417.463 800.11 422.74C800.109 433.822 790.433 441.561 778.648 441.561Z" fill="#464342"/>
<path d="M13.0113 399.999C13.0113 430.818 30.9208 457.449 56.8912 470.072L19.7535 368.313C15.3008 378.283 13.0033 389.08 13.0113 399.999ZM143.429 396.07C143.429 386.448 139.972 379.784 137.008 374.598C133.061 368.184 129.362 362.753 129.362 356.34C129.362 349.183 134.79 342.521 142.436 342.521C142.781 342.521 143.109 342.564 143.445 342.583C129.593 329.894 111.138 322.145 90.8704 322.145C63.6704 322.145 39.7386 336.1 25.8186 357.238C27.6438 357.293 29.3668 357.33 30.829 357.33C38.9727 357.33 51.5786 356.342 51.5786 356.342C55.7756 356.094 56.2704 362.259 52.0778 362.755C52.0778 362.755 47.8601 363.251 43.1667 363.497L71.5178 447.832L88.5563 396.731L76.4259 363.496C72.2334 363.25 68.26 362.753 68.26 362.753C64.0645 362.507 64.5563 356.093 68.7519 356.34C68.7519 356.34 81.6111 357.328 89.2615 357.328C97.4022 357.328 110.011 356.34 110.011 356.34C114.211 356.093 114.704 362.257 110.51 362.753C110.51 362.753 106.282 363.25 101.598 363.496L129.734 447.19L137.5 421.239C140.867 410.47 143.429 402.735 143.429 396.07Z" fill="#464342"/>
<path d="M92.2345 406.81L68.873 474.688C76.0153 476.793 83.4227 477.862 90.8686 477.862C99.674 477.864 108.416 476.372 116.722 473.448C116.506 473.108 116.32 472.749 116.168 472.376L92.2345 406.81ZM159.185 362.646C159.522 365.126 159.71 367.789 159.71 370.651C159.71 378.552 158.234 387.434 153.79 398.539L130.008 467.299C153.154 453.801 168.723 428.724 168.723 400C168.744 386.943 165.463 374.094 159.185 362.646Z" fill="#464342"/>
<path d="M90.8687 309.244C40.8258 309.244 0.110352 349.957 0.110352 400C0.110352 450.048 40.8258 490.761 90.8702 490.761C140.91 490.761 181.633 450.05 181.633 400C181.63 349.957 140.91 309.244 90.8687 309.244ZM90.8687 486.599C43.1206 486.599 4.27182 447.751 4.27182 400C4.27182 352.253 43.1192 313.407 90.8687 313.407C138.615 313.407 177.46 352.253 177.46 400C177.461 447.751 138.615 486.599 90.8687 486.599Z" fill="#464342"/>
</g>
<defs>
<clipPath id="clip0_1_373">
<rect width="800" height="800" fill="white" transform="translate(0.110352)"/>
</clipPath>
</defs>
</svg>
