<svg width="800" height="800" viewBox="0 0 800 800" fill="none" xmlns="http://www.w3.org/2000/svg">
<g clip-path="url(#clip0_1_380)">
<path d="M86.8582 313.14C38.91 313.14 0 352.05 0 399.998C0 447.946 38.9126 486.859 86.8582 486.859C134.809 486.859 173.716 447.946 173.716 399.998C173.716 352.05 134.809 313.14 86.8582 313.14Z" fill="url(#paint0_radial_1_380)"/>
<path opacity="0.66" d="M87.1526 318.762C41.2473 318.762 3.99414 356.012 3.99414 401.923C3.99414 447.828 41.2473 485.107 87.1526 485.107C133.06 485.107 170.34 447.831 170.34 401.923C170.34 356.012 133.06 318.762 87.1526 318.762ZM87.1789 320.694C87.662 320.694 88.161 320.847 88.5495 321.125C88.9801 321.429 89.2926 321.857 89.4659 322.343V322.369L89.4896 322.396L92.2628 332.458C128.326 335.076 156.817 365.192 156.817 401.923C156.817 412.762 154.33 423.04 149.906 432.193L157.045 439.386L157.072 439.412L157.098 439.435C157.452 439.847 157.639 440.326 157.681 440.811C157.726 441.3 157.634 441.814 157.374 442.255C157.124 442.693 156.742 443.041 156.281 443.248C155.811 443.463 155.3 443.515 154.806 443.424H154.732L144.922 440.859C132.394 459.392 111.179 471.587 87.1528 471.587C63.1288 471.587 41.9303 459.392 29.4101 440.859L19.6289 443.453H19.55C19.0013 443.553 18.4997 443.442 18.0769 443.248C17.6183 443.039 17.2364 442.692 16.9844 442.256C16.7456 441.841 16.63 441.324 16.68 440.838C16.7273 440.35 16.9084 439.877 17.2654 439.462L17.2891 439.436L17.3153 439.412L24.4316 432.22C19.9991 423.056 17.5204 412.776 17.5204 401.923C17.5204 365.182 46.0135 335.053 82.098 332.459L84.8211 322.422L84.8447 322.37V322.344C85.0163 321.852 85.3366 321.426 85.7611 321.125C86.1993 320.815 86.6931 320.694 87.1789 320.694ZM87.1789 321.708C86.8848 321.708 86.5802 321.792 86.3385 321.965C86.0925 322.142 85.9073 322.391 85.8082 322.677L79.7582 345.041C79.6032 345.477 79.5374 346.002 79.6794 346.441C79.8238 346.877 80.089 347.223 80.4698 347.483C81.5543 348.231 81.964 349.644 82.4761 351.015C82.9855 352.386 83.0695 353.565 82.7045 354.983C82.3369 356.398 81.5256 357.687 80.4149 358.641C78.4195 360.35 76.6283 362.414 75.5123 364.84C74.3964 367.269 74.0129 369.866 74.0129 372.492V378.944L42.7522 360.902L39.2939 366.847L74.0129 386.874V394.142L67.7608 397.753L33.0441 377.699L29.586 383.699L60.8467 401.744L55.2536 404.974C52.9797 406.282 50.95 407.926 49.4087 410.105C47.8647 412.287 46.9403 414.871 46.4598 417.45C46.1892 418.889 45.4987 420.238 44.4509 421.262C43.4084 422.287 42.3344 422.772 40.8903 423.014C39.4515 423.253 38.0439 423.654 36.8518 423.092C36.4396 422.898 35.9828 422.84 35.5337 422.937C35.0846 423.029 34.6382 423.276 34.3363 423.623L18.048 440.118C17.8537 440.339 17.7175 440.638 17.6908 440.932C17.6619 441.227 17.7225 441.489 17.8693 441.746C18.0163 442.001 18.2343 442.232 18.5049 442.356C18.7747 442.477 19.0753 442.513 19.3661 442.458L41.783 436.51C42.2347 436.432 42.6968 436.216 43.0015 435.875C43.3087 435.534 43.5002 435.114 43.5372 434.657C43.642 433.339 44.6637 432.304 45.5957 431.175C46.5306 430.051 47.5179 429.379 48.9253 428.988C50.3355 428.596 51.8401 428.683 53.2237 429.169C55.6999 430.041 58.3914 430.534 61.0489 430.287C63.7116 430.04 66.1482 429.082 68.4196 427.769L74.0127 424.536V460.632H80.9026V420.577L87.1784 416.943L93.4332 420.55V460.632H100.342V424.537L105.935 427.769C108.209 429.079 110.646 430.041 113.306 430.287C115.968 430.532 118.657 430.009 121.133 429.137C122.514 428.654 124.046 428.596 125.453 428.985C126.86 429.379 127.8 430.051 128.73 431.17C129.659 432.299 130.71 433.313 130.812 434.626C130.851 435.083 131.041 435.503 131.348 435.847C131.655 436.191 132.091 436.474 132.543 436.558L154.983 442.432C155.275 442.488 155.576 442.453 155.847 442.333C156.118 442.209 156.333 442.002 156.48 441.747C156.626 441.493 156.688 441.199 156.658 440.907C156.63 440.613 156.519 440.316 156.325 440.09L139.982 423.65C139.685 423.303 139.259 423.009 138.813 422.914C138.361 422.819 137.904 422.867 137.492 423.066C136.298 423.631 134.895 423.255 133.453 423.014C132.009 422.773 130.935 422.263 129.893 421.239C128.848 420.21 128.155 418.86 127.884 417.426C127.404 414.837 126.508 412.258 124.965 410.079C123.418 407.894 121.344 406.282 119.067 404.974L113.503 401.744L144.763 383.699L141.308 377.728L106.591 397.779L100.336 394.171V386.903L135.056 366.873L131.598 360.902L100.337 378.946V372.492C100.337 369.864 99.9301 367.269 98.8167 364.84C97.6982 362.414 95.9022 360.35 93.909 358.641C92.7982 357.687 91.9896 356.398 91.6217 354.983C91.2567 353.567 91.3644 352.386 91.8738 351.015C92.3885 349.647 92.7429 348.229 93.8327 347.484C94.2082 347.221 94.505 346.877 94.644 346.441C94.7884 346.005 94.7988 345.477 94.644 345.042L88.4944 322.677C88.3971 322.396 88.2268 322.136 87.9875 321.966C87.7539 321.792 87.4755 321.708 87.1789 321.708ZM87.1789 364.94C88.8175 364.94 90.4402 365.612 91.6009 366.773C92.7641 367.934 93.4336 369.556 93.4336 371.195V382.937L87.1789 386.545L80.9031 382.911V371.194C80.9031 369.556 81.5725 367.936 82.7308 366.773C83.8912 365.61 85.5377 364.94 87.1789 364.94ZM87.2051 394.5L93.4336 398.11V405.376L87.2051 408.986L80.9031 405.35V398.131L87.2051 394.5ZM67.7632 405.735L74.0153 409.343V416.612L63.8769 422.457C62.4563 423.276 60.7102 423.492 59.1215 423.069C57.5354 422.641 56.1333 421.564 55.3114 420.146C54.4921 418.728 54.2769 416.979 54.7023 415.393C55.1277 413.802 56.1781 412.423 57.6012 411.607L67.7632 405.735ZM106.621 405.735L116.762 411.581C118.18 412.4 119.256 413.779 119.684 415.367C120.112 416.954 119.871 418.723 119.049 420.144C118.23 421.559 116.819 422.615 115.236 423.04C113.65 423.46 111.93 423.245 110.509 422.431L100.342 416.559V409.338L106.621 405.735Z" fill="black"/>
<path d="M86.8499 316.831C40.942 316.831 3.69141 354.079 3.69141 399.99C3.69141 445.9 40.942 483.177 86.8499 483.177C132.76 483.177 170.032 445.9 170.032 399.99C170.032 354.079 132.758 316.831 86.8499 316.831ZM86.8735 318.761C87.3541 318.761 87.8555 318.913 88.2442 319.194C88.6681 319.497 88.9874 319.923 89.1579 320.415V320.439L89.1842 320.468L91.9546 330.53C128.018 333.145 156.511 363.264 156.511 399.989C156.511 410.829 154.024 421.101 149.6 430.26L156.742 437.455L156.766 437.479L156.792 437.505C157.144 437.917 157.331 438.392 157.375 438.875C157.425 439.366 157.328 439.881 157.073 440.322C156.822 440.759 156.44 441.106 155.981 441.314C155.521 441.527 155.005 441.59 154.508 441.493H154.429L144.619 438.925C132.093 457.458 110.877 469.653 86.8527 469.653C62.8234 469.653 41.6273 457.458 29.1046 438.925L19.3233 441.519H19.2445C18.6957 441.619 18.1941 441.509 17.7713 441.314C17.304 441.099 16.9256 440.752 16.6791 440.322C16.44 439.912 16.3245 439.392 16.377 438.904C16.4189 438.418 16.6055 437.943 16.9601 437.528L16.9863 437.505L17.0126 437.479L24.1288 430.286C19.6937 421.125 17.215 410.842 17.215 399.989C17.215 363.246 45.7134 333.119 81.7981 330.53L84.5159 320.489L84.5396 320.436V320.413C84.7129 319.922 85.0254 319.496 85.4534 319.192C85.8914 318.879 86.3904 318.761 86.8735 318.761ZM86.8735 319.777C86.5767 319.777 86.2748 319.861 86.0332 320.032C85.7869 320.208 85.6016 320.457 85.5029 320.743L79.4529 343.108C79.3005 343.544 79.2349 344.048 79.3767 344.484C79.5211 344.92 79.7888 345.29 80.1643 345.547C81.2513 346.298 81.6585 347.708 82.1731 349.081C82.6852 350.45 82.7666 351.631 82.4016 353.047C82.0394 354.464 81.199 355.754 80.0883 356.705C78.0953 358.414 76.3253 360.481 75.2094 362.904C74.0908 365.333 73.7126 367.93 73.7126 370.559V377.013L42.449 358.968L38.9933 364.913L73.7123 384.94V392.206L67.4576 395.817L32.7381 375.763L29.2798 381.734L60.5407 399.806L54.9502 403.035C52.6763 404.346 50.6229 405.987 49.0788 408.167C47.532 410.346 46.6367 412.93 46.1564 415.514C45.8858 416.948 45.1927 418.297 44.1475 419.327C43.1024 420.348 42.0338 420.834 40.5896 421.076C39.1479 421.317 37.738 421.719 36.5484 421.152C36.1365 420.955 35.6704 420.902 35.2249 421.002C34.7758 421.092 34.3294 421.333 34.0301 421.686L17.7157 438.178C17.5212 438.404 17.4111 438.701 17.3822 438.995C17.3507 439.287 17.4137 439.551 17.5581 439.809C17.7065 440.064 17.9278 440.269 18.1937 440.397C18.464 440.518 18.7687 440.571 19.0601 440.521L41.4744 434.573C41.9261 434.489 42.3882 434.281 42.6955 433.937C42.9975 433.593 43.1917 433.176 43.2312 432.719C43.3337 431.401 44.3549 430.363 45.2871 429.237C46.2193 428.105 47.2067 427.441 48.6167 427.052C50.0268 426.659 51.5315 426.748 52.9099 427.231C55.3887 428.1 58.0776 428.596 60.7403 428.344C63.3976 428.1 65.8372 427.147 68.1086 425.833L73.7017 422.601V458.691H80.5892V418.638L86.8677 415.004L93.1198 418.612V458.69H100.034V422.601L105.598 425.833C107.874 427.141 110.332 428.1 112.992 428.344C115.655 428.596 118.344 428.074 120.823 427.202C122.201 426.718 123.732 426.632 125.142 427.025C126.547 427.419 127.49 428.105 128.422 429.236C129.349 430.363 130.399 431.379 130.502 432.692C130.541 433.149 130.73 433.569 131.037 433.913C131.342 434.257 131.783 434.535 132.232 434.625L154.673 440.499C154.964 440.551 155.272 440.52 155.539 440.399C155.807 440.272 156.029 440.066 156.175 439.808C156.319 439.556 156.377 439.267 156.351 438.971C156.322 438.674 156.211 438.38 156.02 438.156L139.677 421.713C139.38 421.364 138.954 421.07 138.508 420.981C138.059 420.886 137.6 420.931 137.185 421.13C135.992 421.697 134.588 421.322 133.146 421.08C131.702 420.833 130.633 420.324 129.588 419.3C128.543 418.276 127.852 416.926 127.579 415.492C127.096 412.903 126.201 410.32 124.657 408.145C123.113 405.96 121.036 404.349 118.762 403.036L113.171 399.806L144.456 381.737L140.998 375.789L106.281 395.843L100.026 392.233V384.964L134.745 364.94L131.29 358.966L100.029 377.011V370.554C100.029 367.928 99.6245 365.331 98.5058 362.902C97.3872 360.476 95.5936 358.412 93.6006 356.703C92.4873 355.749 91.6784 354.463 91.3136 353.045C90.9485 351.627 91.0536 350.45 91.5657 349.079C92.0777 347.709 92.4375 346.293 93.5246 345.545C93.9026 345.285 94.194 344.915 94.3387 344.479C94.4831 344.046 94.4911 343.539 94.3387 343.108L88.189 320.741C88.0893 320.463 87.895 320.201 87.6559 320.027C87.4289 319.862 87.1544 319.774 86.8735 319.777ZM86.8735 363.009C88.5147 363.009 90.1321 363.679 91.2955 364.84C92.4586 366.003 93.1257 367.623 93.1257 369.264V381.005L86.8735 384.615L80.5951 380.978V369.261C80.5951 367.62 81.2646 366.003 82.4252 364.84C83.5885 363.676 85.2323 363.009 86.8735 363.009ZM86.8735 392.569L93.1257 396.177V403.447L86.8998 407.053L80.5979 403.421V396.203L86.8735 392.569ZM67.4317 403.779L73.7076 407.415V414.681L63.5665 420.529C62.1459 421.348 60.4022 421.558 58.8135 421.138C57.2249 420.713 55.8202 419.636 55.0009 418.216C54.1789 416.798 53.9637 415.046 54.3891 413.466C54.8145 411.874 55.8649 410.472 57.2881 409.653L67.4317 403.779ZM106.292 403.779L116.457 409.653C117.88 410.472 118.954 411.848 119.379 413.437C119.807 415.025 119.539 416.795 118.718 418.213C117.898 419.631 116.517 420.687 114.928 421.112C113.345 421.533 111.599 421.317 110.178 420.498L100.034 414.652V407.384L106.292 403.779Z" fill="url(#paint1_radial_1_380)"/>
<path d="M188.074 327.02L220.11 424.841V472.621H251.717V424.841L281.946 327.02H253.374L235.424 390.587L217.988 327.02H188.074ZM385.376 327.02V472.621H411.666V378.196L426.733 472.622H446.585L461.621 378.196V472.622H488.405V327.02H448.26L436.809 396.283L425.775 327.02L385.376 327.02ZM610.355 327.02V472.621H639.659V411.255H664.621V472.622H693.227V327.02H664.621V384.944H639.659V327.02H610.355ZM734.86 326.991L709.539 472.616H738.119L743.754 437.044H765.653L771.173 472.616H800L774.671 326.991H734.86ZM754.943 358.927L762.392 411.609H747.178L754.943 358.927ZM529.625 326.991L504.304 472.616H532.884L538.519 437.044H560.421L565.938 472.616H594.767L569.438 326.991H529.625ZM549.708 358.927L557.16 411.609H541.943L549.708 358.927ZM304.765 326.991L279.441 472.616H308.021L313.653 437.044H335.556L341.073 472.616H369.902L344.576 326.991H304.765ZM324.845 358.927L332.299 411.609H317.08L324.845 358.927Z" fill="#F30711"/>
</g>
<defs>
<radialGradient id="paint0_radial_1_380" cx="0" cy="0" r="1" gradientUnits="userSpaceOnUse" gradientTransform="translate(56.2622 359.06) scale(117.046 117.046)">
<stop stop-color="#FD9196"/>
<stop offset="1" stop-color="#F30713"/>
</radialGradient>
<radialGradient id="paint1_radial_1_380" cx="0" cy="0" r="1" gradientUnits="userSpaceOnUse" gradientTransform="translate(-2487.67 386.925) rotate(-45) scale(203.996 184.878)">
<stop offset="0.048" stop-color="#E4EBEE"/>
<stop offset="0.272" stop-color="#F5F8F9"/>
<stop offset="0.467" stop-color="white"/>
<stop offset="0.752" stop-color="#BFC1C3"/>
<stop offset="0.867" stop-color="#DCE0E6"/>
<stop offset="0.905" stop-color="#E2E6ED"/>
<stop offset="1" stop-color="#BCBEC0"/>
</radialGradient>
<clipPath id="clip0_1_380">
<rect width="800" height="800" fill="white"/>
</clipPath>
</defs>
</svg>
