<svg width="801" height="800" viewBox="0 0 801 800" fill="none" xmlns="http://www.w3.org/2000/svg">
<g clip-path="url(#clip0_1_218)">
<path d="M134.09 488.044L81.7508 487.087C64.804 486.754 47.8155 487.42 31.2017 483.964C5.92718 478.801 4.13672 453.484 2.26299 432.249C-0.318595 402.394 0.680729 371.998 5.55243 342.393C8.30057 325.779 19.1266 315.869 35.8652 314.787C92.3686 310.873 149.247 311.331 205.625 313.163C211.58 313.329 217.576 314.245 223.447 315.286C252.427 320.366 253.135 349.055 255.009 373.205C256.882 397.606 256.091 422.131 252.51 446.364C249.637 466.434 244.141 483.256 220.948 484.88C191.885 487.003 163.487 488.711 134.34 488.169C134.34 488.044 134.174 488.044 134.09 488.044ZM103.32 437.245C125.221 424.671 146.707 412.304 168.484 399.812C146.54 387.238 125.096 374.871 103.32 362.379V437.245Z" fill="#FF0000"/>
<path d="M676.182 465.227C675.182 469.307 674.308 472.513 673.434 475.928H652.947V317.91H676.848V376.204C678.097 374.621 678.722 373.955 679.263 373.247C683.343 367.626 688.632 363.962 695.46 362.546C706.328 360.423 715.613 365.211 718.903 375.662C721.026 382.158 722.4 389.111 722.567 395.899C722.9 413.345 722.65 430.75 722.026 448.196C721.776 453.526 720.152 458.981 718.112 463.977C711.408 480.466 689.506 482.965 678.638 468.683C677.972 467.808 677.348 466.85 676.182 465.227ZM677.348 421.756V450.653C677.348 455.358 679.846 458.231 684.551 459.314C689.173 460.397 692.92 458.606 694.794 454.317C695.585 452.527 696.376 450.653 696.418 448.779C696.876 431.125 697.292 413.47 697.417 395.774C697.417 392.484 696.626 389.07 695.627 385.864C693.753 380.076 688.59 378.369 683.51 381.741C679.679 384.323 677.348 387.987 677.348 392.859V421.756ZM612.392 364.795H637.416V476.011H617.888C617.18 471.805 616.472 467.475 615.639 462.395C614.307 464.352 613.516 465.601 612.683 466.85C606.187 476.219 596.985 479.425 586.118 477.718C576.832 476.219 571.253 469.057 570.004 457.315C569.629 453.818 569.462 450.278 569.462 446.781C569.379 420.757 569.462 394.649 569.462 368.625V364.711H594.778V369.25C594.778 394.4 594.695 419.508 594.862 444.657C594.862 448.238 595.236 451.944 595.861 455.525C596.569 459.189 599.234 460.521 602.815 460.272C608.602 459.814 612.6 455.525 612.6 449.779V369.708C612.392 368.084 612.392 366.585 612.392 364.795ZM440.092 364.711H465.241V369.416C465.241 394.441 465.158 419.424 465.324 444.366C465.324 447.947 465.658 451.652 466.407 455.15C467.365 459.272 469.78 460.605 473.902 460.063C479.606 459.272 483.062 455.317 483.104 449.529V369.874V364.878H508.129V476.011H488.684C487.976 471.889 487.268 467.642 486.352 462.27C485.103 464.144 484.395 465.227 483.687 466.351C477.191 475.886 468.073 479.384 456.955 477.676C448.044 476.344 442.59 469.765 440.924 458.981C440.466 455.608 440.133 452.277 440.133 448.904C440.05 421.881 440.05 394.733 440.05 367.709L440.092 364.711ZM427.184 424.088C427.1 427.835 426.85 431.583 426.642 435.33C425.685 446.573 425.227 462.52 416.149 470.723C410.362 475.886 403.033 477.76 395.455 478.01C392.082 478.093 388.668 478.093 385.295 477.635C369.348 475.22 361.936 468.183 359.271 450.653C356.232 430.417 355.982 409.847 359.604 389.611C363.352 368.667 376.26 361.255 396.329 362.629C415.067 363.962 423.436 376.245 425.643 393.733C426.85 403.768 427.433 413.928 427.184 424.088ZM401.701 420.257C401.701 413.137 401.867 405.975 401.618 398.855C401.451 394.733 400.91 390.569 400.035 386.488C399.036 381.783 396.038 379.535 392.291 379.618C388.626 379.701 386.045 381.95 384.712 386.322C384.254 387.946 383.755 389.611 383.755 391.235C383.755 402.394 383.671 413.595 383.588 424.754C383.505 435.164 382.172 446.073 385.462 456.024C386.461 459.064 389.043 460.73 392.415 460.73C395.705 460.73 397.87 459.106 399.078 456.191C400.035 453.943 400.868 451.486 400.868 449.071C401.16 439.494 401.701 429.876 401.701 420.257ZM322.546 399.313C324.753 388.529 326.835 377.994 329.125 367.418C331.998 353.969 335.204 340.519 338.036 327.028C338.743 323.739 340.076 322.948 343.199 323.031C349.903 323.281 356.731 323.114 363.893 323.114C361.561 331.692 359.271 339.853 357.023 347.889C349.903 373.122 342.782 398.438 335.746 423.755C335.204 425.712 334.954 427.835 334.954 429.917C334.871 443.741 334.954 457.523 334.954 471.347V475.844H310.513C310.429 474.595 310.263 473.346 310.263 472.097C310.263 464.269 309.638 456.399 310.346 448.654C312.137 430.042 306.224 412.929 301.435 395.607C295.106 372.706 288.694 349.721 282.365 326.82C282.032 325.738 281.907 324.572 281.574 323.239H306.515C311.762 348.514 317.05 373.788 322.546 399.313ZM800.764 428.335H758.626C759.084 436.787 759.25 444.824 760.125 452.777C760.749 458.315 763.789 460.688 768.577 460.73C773.574 460.813 776.489 458.315 777.655 452.818C778.029 451.028 778.279 449.237 778.446 447.405C778.612 445.781 778.696 444.033 778.821 441.701C785.941 442.076 792.894 442.492 799.765 442.783C803.762 454.65 796.559 469.89 784.442 474.595C774.906 478.343 765.121 478.343 755.378 475.47C748.175 473.346 742.803 468.766 740.388 461.729C738.14 455.15 736.016 448.28 735.558 441.409C734.309 424.463 733.851 407.349 736.433 390.361C736.891 387.529 737.682 384.823 738.556 382.075C742.054 370.749 749.674 363.795 761.457 362.629C767.87 362.005 774.49 362.255 780.819 363.337C791.062 365.128 796.517 372.498 798.89 382.158C799.973 386.696 800.764 391.36 800.931 395.982C800.972 406.6 800.764 417.134 800.764 428.335ZM776.822 413.72C776.822 405.35 776.905 397.481 776.739 389.569C776.739 387.696 776.031 385.739 775.323 383.948C773.907 380.451 770.951 379.493 767.412 379.493C763.872 379.493 761.624 381.283 760.749 384.49C758.085 394.108 758.959 403.935 759.042 413.803C765.413 413.72 771.201 413.72 776.822 413.72Z" fill="#282828"/>
<path d="M527.449 343.517H502.674V323.448H576.624V343.393H552.016V475.845H527.491L527.449 343.517Z" fill="#282828"/>
</g>
<defs>
<clipPath id="clip0_1_218">
<rect width="800" height="800" fill="white" transform="translate(0.888916)"/>
</clipPath>
</defs>
</svg>
