<svg width="250" height="82" viewBox="0 0 250 82" fill="none" xmlns="http://www.w3.org/2000/svg">
<g clip-path="url(#clip0_401_2129)">
<path d="M164.515 29.2063V30.5463H174.046V29.2063H164.515ZM175.398 29.2063V30.5463H188.981C188.981 30.5463 187.594 29.2063 185.756 29.2063H175.398ZM191.646 29.2063V30.5463H199.863L199.375 29.2063H191.646ZM205.755 29.2063L205.268 30.5463H213.411V29.2063H205.755ZM164.515 31.8126V33.1526H174.046V31.8126H164.515ZM175.398 31.8144V33.1519H190.556C190.556 33.1519 190.38 32.1207 190.071 31.8144H175.398ZM191.646 31.8144V33.1519H200.771L200.32 31.8144H191.646ZM204.78 31.8144L204.328 33.1519H213.411V31.8144H204.78ZM167.255 34.4188V35.7607H171.383V34.4188H167.255ZM178.137 34.4188V35.7607H182.265V34.4188H178.137ZM186.281 34.4188V35.7607H190.409C190.409 35.7607 190.671 35.0519 190.671 34.4188H186.281ZM194.386 34.4188V35.7607H201.698L201.211 34.4188H194.386ZM203.881 34.4188L203.391 35.7607H210.746V34.4188H203.881ZM167.255 37.0269V38.3669H171.383V37.0269H167.255ZM178.138 37.0269V38.3669H188.681C188.681 38.3669 189.563 37.6794 189.844 37.0269H178.138ZM194.386 37.0269V38.3669H198.514V37.6207L198.776 38.3669H206.339L206.62 37.6207V38.3669H210.748V37.0269H202.998L202.587 38.1619L202.175 37.0269H194.386ZM167.255 39.6332V40.9732H171.383V39.6332H167.255ZM178.137 39.6332V40.9732H189.843C189.562 40.3232 188.681 39.6332 188.681 39.6332H178.137ZM194.385 39.6332V40.9732H198.513V39.6332H194.385ZM199.263 39.6332L199.763 40.9732H205.433L205.908 39.6332H199.263ZM206.618 39.6332V40.9732H210.746V39.6332H206.618ZM167.256 42.2394V43.5794H171.384V42.2394H167.256ZM178.138 42.2394V43.5794H182.266V42.2394H178.138ZM186.282 42.2394V43.5794H190.672C190.672 42.9469 190.41 42.2394 190.41 42.2394H186.282ZM194.387 42.2394V43.5794H198.515V42.2394H194.387ZM200.202 42.2394L200.686 43.5794H204.486L204.973 42.2394H200.202ZM206.62 42.2394V43.5794H210.748V42.2394H206.62ZM164.591 44.8457V46.1876H174.123V44.8457H164.591ZM175.4 44.8457V46.1876H190.073C190.382 45.8801 190.559 44.8457 190.559 44.8457H175.4ZM191.722 44.8457V46.1876H198.513V44.8457H191.722ZM201.141 44.8457L201.638 46.1876H203.572L204.039 44.8457H201.141ZM206.62 44.8457V46.1876H213.487V44.8457H206.62ZM164.591 47.4538V48.7938H174.123V47.4538H164.591ZM175.4 47.4538V48.7913H185.756C187.594 48.7913 188.981 47.4538 188.981 47.4538H175.4ZM191.722 47.4538V48.7938H198.513V47.4538H191.722ZM202.085 47.4538L202.563 48.7901L202.645 48.7919L203.131 47.4544L202.085 47.4538ZM206.62 47.4538V48.7938H213.488V47.4538H206.62Z" fill="black"/>
</g>
<path d="M21.0298 20.4126V23.0926H40.0923V20.4126H21.0298ZM42.7948 20.4126V23.0926H69.9623C69.9623 23.0926 67.1873 20.4126 63.5123 20.4126H42.7948ZM75.2911 20.4126V23.0926H91.7248L90.7498 20.4126H75.2911ZM103.51 20.4126L102.535 23.0926H118.822V20.4126H103.51ZM21.0298 25.6251V28.3051H40.0923V25.6251H21.0298ZM42.7948 25.6288V28.3039H73.1123C73.1123 28.3039 72.7586 26.2413 72.1411 25.6288H42.7948ZM75.2911 25.6288V28.3039H93.5411L92.6386 25.6288H75.2911ZM101.559 25.6288L100.656 28.3039H118.821V25.6288H101.559ZM26.5085 30.8376V33.5214H34.7648V30.8376H26.5085ZM48.2736 30.8376V33.5214H56.5298V30.8376H48.2736ZM64.5611 30.8376V33.5214H72.8173C72.8173 33.5214 73.3423 32.1039 73.3423 30.8376H64.5611ZM80.7711 30.8376V33.5214H95.3961L94.4211 30.8376H80.7711ZM99.7623 30.8376L98.7823 33.5214H113.492V30.8376H99.7623ZM26.5098 36.0539V38.7339H34.7661V36.0539H26.5098ZM48.2748 36.0539V38.7339H69.3623C69.3623 38.7339 71.1248 37.3589 71.6873 36.0539H48.2748ZM80.7711 36.0539V38.7339H89.0273V37.2414L89.5523 38.7339H104.677L105.24 37.2414V38.7339H113.496V36.0539H97.9961L97.1736 38.3239L96.3486 36.0539H80.7711ZM26.5085 41.2664V43.9464H34.7648V41.2664H26.5085ZM48.2736 41.2664V43.9464H71.6861C71.1236 42.6464 69.3611 41.2664 69.3611 41.2664H48.2736ZM80.7698 41.2664V43.9464H89.0261V41.2664H80.7698ZM90.5261 41.2664L91.5261 43.9464H102.866L103.816 41.2664H90.5261ZM105.236 41.2664V43.9464H113.492V41.2664H105.236ZM26.511 46.4789V49.1589H34.7673V46.4789H26.511ZM48.2761 46.4789V49.1589H56.5323V46.4789H48.2761ZM64.5636 46.4789V49.1589H73.3436C73.3436 47.8939 72.8186 46.4789 72.8186 46.4789H64.5636ZM80.7736 46.4789V49.1589H89.0298V46.4789H80.7736ZM92.4036 46.4789L93.3711 49.1589H100.971L101.946 46.4789H92.4036ZM105.239 46.4789V49.1589H113.495V46.4789H105.239ZM21.1823 51.6914V54.3751H40.2448V51.6914H21.1823ZM42.7986 51.6914V54.3751H72.1461C72.7636 53.7601 73.1173 51.6914 73.1173 51.6914H42.7986ZM75.4436 51.6914V54.3751H89.0248V51.6914H75.4436ZM94.2811 51.6914L95.2761 54.3751H99.1436L100.077 51.6914H94.2811ZM105.239 51.6914V54.3751H118.974V51.6914H105.239ZM21.1823 56.9076V59.5876H40.2448V56.9076H21.1823ZM42.7986 56.9076V59.5826H63.5123C67.1873 59.5826 69.9623 56.9076 69.9623 56.9076H42.7986ZM75.4436 56.9076V59.5876H89.0248V56.9076H75.4436ZM96.1686 56.9076L97.1248 59.5801L97.2898 59.5839L98.2611 56.9089L96.1686 56.9076ZM105.24 56.9076V59.5876H118.975V56.9076H105.24Z" fill="black"/>
<defs>
<clipPath id="clip0_401_2129">
<rect width="50" height="20" fill="white" transform="translate(164 29)"/>
</clipPath>
</defs>
</svg>
