<svg width="250" height="82" viewBox="0 0 250 82" fill="none" xmlns="http://www.w3.org/2000/svg">
<g clipPath="url(#clip0_401_3247)">
<path d="M20.3217 15.9989H63.3816C63.4358 15.9981 63.4892 16.0111 63.5368 16.0367C63.5846 16.0623 63.6248 16.0997 63.6538 16.1454C63.683 16.191 63.6998 16.2433 63.703 16.2973C63.706 16.3514 63.6954 16.4053 63.6716 16.4539C59.9596 23.9501 54.364 30.3536 47.4334 35.0373C36.2383 42.5907 24.965 43.3707 20.325 43.4123C20.2826 43.4131 20.2405 43.4057 20.2011 43.3901C20.1617 43.3745 20.1259 43.3511 20.0956 43.3215C20.0653 43.2919 20.0413 43.2565 20.0249 43.2173C20.0084 43.1783 20 43.1363 20 43.0939V16.3173C20 16.2752 20.0083 16.2335 20.0245 16.1947C20.0408 16.1558 20.0645 16.1206 20.0944 16.091C20.1243 16.0614 20.1598 16.038 20.1988 16.0222C20.2378 16.0064 20.2796 15.9985 20.3217 15.9989Z" fill="#FF6250"/>
<path d="M29.615 65.9986C34.9252 65.9986 39.23 61.6938 39.23 56.3836C39.23 51.0734 34.9252 46.7686 29.615 46.7686C24.3048 46.7686 20 51.0734 20 56.3836C20 61.6938 24.3048 65.9986 29.615 65.9986Z" fill="#FFDF90"/>
<path d="M49.2698 65.4292C46.5498 64.3908 45.103 61.3976 46.0248 58.7476L53.283 38.0342C54.213 35.3842 57.1714 34.0792 59.8914 35.1175C62.6114 36.1576 64.058 39.1492 63.1364 41.8008L55.878 62.5142C54.948 65.1642 51.9898 66.4708 49.2698 65.4292Z" fill="#3366FF"/>
</g>
<g clipPath="url(#clip1_401_3247)">
<path d="M115.189 25.9995H140.519C140.55 25.999 140.582 26.0067 140.61 26.0217C140.638 26.0368 140.662 26.0588 140.679 26.0857C140.696 26.1125 140.706 26.1433 140.708 26.1751C140.709 26.2068 140.703 26.2386 140.689 26.2672C138.506 30.6767 135.214 34.4434 131.137 37.1986C124.552 41.6417 117.921 42.1006 115.191 42.125C115.166 42.1255 115.141 42.1211 115.118 42.112C115.095 42.1028 115.074 42.089 115.056 42.0716C115.038 42.0542 115.024 42.0334 115.015 42.0103C115.005 41.9874 115 41.9627 115 41.9377V26.1868C115 26.162 115.005 26.1375 115.014 26.1147C115.024 26.0918 115.038 26.0711 115.056 26.0537C115.073 26.0363 115.094 26.0225 115.117 26.0132C115.14 26.0039 115.164 25.9993 115.189 25.9995Z" fill="#FF6250"/>
<path d="M120.656 55.4109C123.78 55.4109 126.312 52.8786 126.312 49.755C126.312 46.6314 123.78 44.0991 120.656 44.0991C117.532 44.0991 115 46.6314 115 49.755C115 52.8786 117.532 55.4109 120.656 55.4109Z" fill="#FFDF90"/>
<path d="M132.218 55.076C130.618 54.4652 129.767 52.7045 130.309 51.1457L134.578 38.9613C135.125 37.4025 136.866 36.6348 138.466 37.2456C140.066 37.8574 140.917 39.6172 140.375 41.177L136.105 53.3613C135.558 54.9202 133.818 55.6887 132.218 55.076Z" fill="#3366FF"/>
<path d="M154.986 47.5553C153.976 47.5553 153.09 47.318 152.328 46.8435C151.553 46.3523 150.939 45.6442 150.563 44.8073C150.148 43.9249 149.941 42.8882 149.943 41.6974C149.945 40.5065 150.156 39.4624 150.576 38.565C150.959 37.7141 151.575 36.989 152.353 36.4739C153.138 35.969 154.055 35.709 154.988 35.7268C155.998 35.7268 156.862 35.9716 157.579 36.4611C158.297 36.9507 158.782 37.6487 159.036 38.5553L158.765 38.7356V35.9984H161.027V47.4013H158.766V44.618L159.037 44.7317C158.78 45.6363 158.294 46.3334 157.579 46.8229C156.864 47.3124 156 47.5565 154.986 47.5553ZM155.528 45.7455C156.555 45.7455 157.35 45.3909 157.915 44.6817C158.479 43.9725 158.761 42.9621 158.762 41.6503C158.762 40.3385 158.479 39.3281 157.915 38.619C157.35 37.9098 156.554 37.5552 155.528 37.5552C154.488 37.5552 153.678 37.9205 153.096 38.6513C152.514 39.3821 152.224 40.3951 152.225 41.6905C152.225 42.9885 152.515 43.9882 153.096 44.6895C153.676 45.3909 154.487 45.7428 155.528 45.7455Z" fill="black"/>
<path d="M164.351 47.396V39.2058C164.351 38.6773 164.341 38.142 164.317 37.599C164.292 37.0558 164.244 36.5205 164.171 35.9931H166.342L166.546 38.3009L166.32 38.4362C166.651 37.546 167.183 36.8715 167.914 36.4127C168.671 35.9466 169.547 35.7083 170.436 35.7264C173.165 35.7264 174.53 37.2575 174.531 40.3196V47.401H172.245V40.4068C172.245 39.4264 172.049 38.71 171.657 38.2578C171.265 37.8055 170.662 37.579 169.847 37.5784C168.867 37.5784 168.087 37.88 167.507 38.4832C166.927 39.0865 166.637 39.8937 166.637 40.9049V47.398H164.351V47.396Z" fill="black"/>
<path d="M177.61 31.0166H180.257V33.4146H177.61V31.0166ZM177.768 47.397V35.994H180.053V47.397H177.768Z" fill="black"/>
<path d="M183.379 47.3968V39.2067C183.379 38.6782 183.369 38.1429 183.347 37.5998C183.324 37.0623 183.275 36.5264 183.199 35.9939H185.37L185.574 38.3017L185.348 38.392C185.633 37.5468 186.108 36.8906 186.773 36.4233C187.438 35.956 188.23 35.7223 189.149 35.7223C190.234 35.7223 191.084 35.9896 191.698 36.5243C192.311 37.0589 192.706 37.8834 192.881 38.9979L192.339 38.6135C192.571 37.7573 193.096 37.0093 193.821 36.4988C194.554 35.9759 195.417 35.7145 196.41 35.7145C197.678 35.7145 198.628 36.0949 199.261 36.8557C199.895 37.6164 200.211 38.7661 200.211 40.3047V47.387H197.927V40.4037C197.927 39.4233 197.756 38.7067 197.418 38.2537C197.081 37.8008 196.536 37.5753 195.777 37.5753C194.903 37.5753 194.214 37.8769 193.708 38.4802C193.203 39.0834 192.95 39.9056 192.95 40.9468V47.3949H190.664V40.4037C190.664 39.4233 190.491 38.7067 190.144 38.2537C189.797 37.8008 189.254 37.5746 188.515 37.5753C187.624 37.5753 186.927 37.8769 186.423 38.4802C185.919 39.0834 185.666 39.9056 185.664 40.9468V47.3949H183.379V47.3968Z" fill="black"/>
<path d="M207.882 47.5548C206.872 47.5548 205.986 47.3175 205.225 46.843C204.45 46.3518 203.836 45.6438 203.46 44.8068C203.044 43.9244 202.836 42.8878 202.836 41.6969C202.836 40.5061 203.048 39.4619 203.47 38.5645C203.853 37.7143 204.468 36.9895 205.245 36.4734C206.03 35.9684 206.948 35.7083 207.882 35.7263C208.892 35.7263 209.755 35.9711 210.472 36.4607C211.188 36.9502 211.674 37.6482 211.93 38.5548L211.658 38.7351V35.9979H213.921V47.4009H211.658V44.6175L211.93 44.7312C211.673 45.6358 211.187 46.3329 210.472 46.8224C209.757 47.3119 208.893 47.5561 207.882 47.5548ZM208.423 45.745C209.449 45.745 210.246 45.3904 210.811 44.6812C211.376 43.9721 211.659 42.9616 211.658 41.6498C211.658 40.3381 211.376 39.3277 210.811 38.6185C210.246 37.9094 209.45 37.5548 208.423 37.5548C207.383 37.5548 206.572 37.9202 205.989 38.6509C205.407 39.3816 205.117 40.3946 205.12 41.6901C205.12 42.9881 205.41 43.9878 205.989 44.6891C206.569 45.3904 207.38 45.7424 208.423 45.745Z" fill="black"/>
</g>
<defs>
<clipPath id="clip0_401_3247">
<rect width="44" height="50" fill="white" transform="translate(20 16)"/>
</clipPath>
<clipPath id="clip1_401_3247">
<rect width="100" height="29.4118" fill="white" transform="translate(115 26)"/>
</clipPath>
</defs>
</svg>
