<svg width="250" height="82" viewBox="0 0 250 82" fill="none" xmlns="http://www.w3.org/2000/svg">
<g clip-path="url(#clip0_401_2851)">
<path d="M45 66C58.8071 66 70 54.8071 70 41C70 27.1929 58.8071 16 45 16C31.1929 16 20 27.1929 20 41C20 54.8071 31.1929 66 45 66Z" fill="url(#paint0_linear_401_2851)"/>
<g filter="url(#filter0_i_401_2851)">
<path d="M36.1901 32.1685C36.1901 38.3351 36.1901 39.7772 36.1901 39.7772C35.6784 39.7772 33.558 39.0799 32.8083 38.6025C30.7794 37.3098 29.396 34.9568 29.2531 32.5561C29.0475 29.0992 31.1173 25.8279 36.1901 24.5598V32.1685Z" fill="url(#paint1_linear_401_2851)"/>
<path d="M44.4334 32.1685V39.7772H40.9459H37.4585V35.4829C37.4585 29.9438 38.5152 28.2585 40.4175 26.5677C42.3196 24.8768 44.4334 24.5598 44.4334 24.5598V32.1685Z" fill="url(#paint2_linear_401_2851)"/>
<path fill-rule="evenodd" clip-rule="evenodd" d="M55.5448 24.9115C59.4668 26.2359 61.7229 30.3528 60.6149 34.1639C58.6232 41.0145 49.3793 41.7304 46.4258 35.2626C44.5128 31.0736 46.5773 26.5639 51.185 24.8663C52.2452 24.4759 54.318 24.4973 55.5448 24.9115ZM52.7253 32.3835C52.6981 29.7995 52.7183 27.2981 52.7239 26.7015C52.7246 26.6271 52.7852 26.5677 52.8596 26.5677H53.252H53.7028C53.7778 26.5677 53.8387 26.6285 53.8387 26.7036V32.1685V37.6335C53.8387 37.7086 53.7778 37.7694 53.7028 37.7694H53.3103H52.9163C52.8418 37.7694 52.7812 37.7094 52.7804 37.635L52.7253 32.3835Z" fill="url(#paint3_linear_401_2851)"/>
</g>
<g filter="url(#filter1_i_401_2851)">
<path d="M39.0679 41.3516C41.1937 42.0707 42.7829 43.4973 43.7374 45.544C44.3216 46.797 44.3296 46.8686 44.3927 51.5148L44.4566 56.2174H40.9662H37.4758L37.4201 49.6126L37.3655 43.1425C37.3649 43.0679 37.3042 43.0079 37.2296 43.0079H36.8368H36.4439C36.3693 43.0079 36.3087 43.0679 36.308 43.1425L36.2534 49.6126L36.1977 56.2174H32.7185H29.2393V48.6087V41H33.6336C37.1749 41 38.2296 41.0682 39.0679 41.3516Z" fill="url(#paint4_linear_401_2851)"/>
</g>
<g filter="url(#filter2_i_401_2851)">
<path d="M54.2536 53.7823C53.739 53.7823 53.2765 53.6865 52.8661 53.4949C52.461 53.3034 52.1409 53.038 51.9055 52.6986C51.6701 52.3538 51.5525 51.957 51.5525 51.5083C51.5525 51.0593 51.6674 50.6653 51.8973 50.3259C52.1326 49.9867 52.4529 49.7212 52.8579 49.5296C53.2684 49.338 53.7336 49.2422 54.2536 49.2422C54.7681 49.2422 55.2277 49.338 55.6328 49.5296C56.0378 49.7212 56.358 49.9867 56.5934 50.3259C56.8287 50.6653 56.9464 51.0593 56.9464 51.5083C56.9464 51.957 56.8287 52.3538 56.5934 52.6986C56.358 53.038 56.0378 53.3034 55.6328 53.4949C55.2277 53.6865 54.7681 53.7823 54.2536 53.7823ZM54.2536 48.216C53.8156 48.216 53.4243 48.1312 53.0795 47.9615C52.7402 47.7864 52.472 47.5483 52.275 47.2473C52.0779 46.9407 51.9794 46.5905 51.9794 46.1964C51.9794 45.7968 52.0779 45.4493 52.275 45.1538C52.472 44.8581 52.7402 44.6284 53.0795 44.4641C53.4243 44.2944 53.8156 44.2096 54.2536 44.2096C54.6915 44.2096 55.08 44.2944 55.4193 44.4641C55.7587 44.6284 56.0242 44.8581 56.2156 45.1538C56.4128 45.4493 56.5113 45.7968 56.5113 46.1964C56.5113 46.5905 56.4128 46.9407 56.2156 47.2473C56.0242 47.5483 55.7587 47.7864 55.4193 47.9615C55.08 48.1312 54.6915 48.216 54.2536 48.216ZM54.2125 54.825C54.9624 54.825 55.63 54.6881 56.2156 54.4145C56.8014 54.1354 57.2639 53.7496 57.6031 53.2569C57.9425 52.7588 58.1122 52.1869 58.1122 51.541C58.1122 51.1032 58.0383 50.7201 57.8905 50.3917C57.7483 50.0578 57.5594 49.7732 57.3241 49.5379C57.0887 49.3024 56.8397 49.1164 56.5769 48.9796C56.3143 48.8372 56.0652 48.7387 55.8298 48.6839V48.6676C56.0707 48.591 56.3362 48.4513 56.6262 48.2489C56.9163 48.0409 57.1654 47.7645 57.3733 47.4197C57.5813 47.0694 57.6853 46.6398 57.6853 46.1307C57.6853 45.5505 57.5348 45.0361 57.2337 44.5872C56.9382 44.1384 56.5332 43.7881 56.0186 43.5364C55.5042 43.2792 54.9158 43.1505 54.2536 43.1505C53.5968 43.1505 53.0084 43.2792 52.4885 43.5364C51.9685 43.7881 51.5579 44.1384 51.257 44.5872C50.9614 45.0361 50.8136 45.5505 50.8136 46.1307C50.8136 46.6288 50.9148 47.053 51.1174 47.4032C51.3199 47.7481 51.5635 48.0244 51.848 48.2324C52.1381 48.4405 52.409 48.5854 52.6609 48.6676V48.6839C52.431 48.7387 52.182 48.8372 51.9137 48.9796C51.651 49.1164 51.4019 49.3024 51.1666 49.5379C50.9367 49.7678 50.748 50.0496 50.6002 50.3834C50.4523 50.7174 50.3784 51.1059 50.3784 51.5493C50.3784 52.2005 50.5427 52.7725 50.8711 53.2651C51.1995 53.7523 51.6537 54.1354 52.2339 54.4145C52.814 54.6881 53.4737 54.825 54.2125 54.825Z" fill="white"/>
</g>
</g>
<g clip-path="url(#clip1_401_2851)">
<path d="M125.424 40.7895C125.424 53.5864 125.424 56.5789 125.424 56.5789C124.362 56.5789 119.962 55.132 118.406 54.1412C114.196 51.4588 111.325 46.5759 111.029 41.5939C110.602 34.4202 114.897 27.6316 125.424 25V40.7895Z" fill="#FF3E00"/>
<path d="M142.529 40.7895V56.5789H135.292H128.055V47.6675C128.055 36.1728 130.248 32.6754 134.195 29.1667C138.143 25.6579 142.529 25 142.529 25V40.7895Z" fill="#FF3E00"/>
<path fill-rule="evenodd" clip-rule="evenodd" d="M165.587 25.7298C173.725 28.4781 178.407 37.0215 176.108 44.9303C171.975 59.1465 152.793 60.632 146.664 47.2101C142.694 38.5171 146.978 29.1588 156.54 25.636C158.74 24.8259 163.041 24.8702 165.587 25.7298ZM159.736 41.2355C159.686 36.4974 159.713 31.893 159.728 30.0313C159.732 29.5506 160.123 29.1667 160.603 29.1667H160.829H161.169C161.654 29.1667 162.046 29.5594 162.046 30.0439V40.7895V51.5351C162.046 52.0196 161.654 52.4123 161.169 52.4123H160.95H160.721C160.24 52.4123 159.849 52.0252 159.844 51.5443L159.736 41.2355Z" fill="#FF3E00"/>
<path d="M199.798 25.7298C204.215 27.2219 207.518 30.1825 209.502 34.4298C210.716 37.0298 210.733 37.1785 210.863 46.8202L210.997 56.5789H203.742H196.489L196.373 42.8728L196.264 30.0364C196.26 29.5549 195.869 29.1667 195.387 29.1667H195.161H194.934C194.452 29.1667 194.061 29.5549 194.057 30.0364L193.948 42.8728L193.832 56.5789H186.602H179.371V40.7895V25H188.504C195.863 25 198.055 25.1417 199.798 25.7298Z" fill="#FF3E00"/>
</g>
<defs>
<filter id="filter0_i_401_2851" x="29.2393" y="24.5598" width="31.6572" height="17.2174" filterUnits="userSpaceOnUse" color-interpolation-filters="sRGB">
<feFlood flood-opacity="0" result="BackgroundImageFix"/>
<feBlend mode="normal" in="SourceGraphic" in2="BackgroundImageFix" result="shape"/>
<feColorMatrix in="SourceAlpha" type="matrix" values="0 0 0 0 0 0 0 0 0 0 0 0 0 0 0 0 0 0 127 0" result="hardAlpha"/>
<feOffset dy="3"/>
<feGaussianBlur stdDeviation="1"/>
<feComposite in2="hardAlpha" operator="arithmetic" k2="-1" k3="1"/>
<feColorMatrix type="matrix" values="0 0 0 0 0.545833 0 0 0 0 0.0932465 0 0 0 0 0.0932465 0 0 0 0.2 0"/>
<feBlend mode="normal" in2="shape" result="effect1_innerShadow_401_2851"/>
</filter>
<filter id="filter1_i_401_2851" x="29.2393" y="41" width="15.2173" height="17.2174" filterUnits="userSpaceOnUse" color-interpolation-filters="sRGB">
<feFlood flood-opacity="0" result="BackgroundImageFix"/>
<feBlend mode="normal" in="SourceGraphic" in2="BackgroundImageFix" result="shape"/>
<feColorMatrix in="SourceAlpha" type="matrix" values="0 0 0 0 0 0 0 0 0 0 0 0 0 0 0 0 0 0 127 0" result="hardAlpha"/>
<feOffset dy="3"/>
<feGaussianBlur stdDeviation="1"/>
<feComposite in2="hardAlpha" operator="arithmetic" k2="-1" k3="1"/>
<feColorMatrix type="matrix" values="0 0 0 0 0.545833 0 0 0 0 0.0932465 0 0 0 0 0.0932465 0 0 0 0.2 0"/>
<feBlend mode="normal" in2="shape" result="effect1_innerShadow_401_2851"/>
</filter>
<filter id="filter2_i_401_2851" x="50.3784" y="43.1505" width="7.73389" height="13.6744" filterUnits="userSpaceOnUse" color-interpolation-filters="sRGB">
<feFlood flood-opacity="0" result="BackgroundImageFix"/>
<feBlend mode="normal" in="SourceGraphic" in2="BackgroundImageFix" result="shape"/>
<feColorMatrix in="SourceAlpha" type="matrix" values="0 0 0 0 0 0 0 0 0 0 0 0 0 0 0 0 0 0 127 0" result="hardAlpha"/>
<feOffset dy="3"/>
<feGaussianBlur stdDeviation="1"/>
<feComposite in2="hardAlpha" operator="arithmetic" k2="-1" k3="1"/>
<feColorMatrix type="matrix" values="0 0 0 0 0.175 0 0 0 0 0.0386458 0 0 0 0 0.0386458 0 0 0 0.25 0"/>
<feBlend mode="normal" in2="shape" result="effect1_innerShadow_401_2851"/>
</filter>
<linearGradient id="paint0_linear_401_2851" x1="45" y1="16" x2="45" y2="66" gradientUnits="userSpaceOnUse">
<stop stop-color="#FE5821"/>
<stop offset="1" stop-color="#FF3E01"/>
</linearGradient>
<linearGradient id="paint1_linear_401_2851" x1="45.0681" y1="24.5598" x2="45.0681" y2="39.7772" gradientUnits="userSpaceOnUse">
<stop stop-color="#D93300"/>
<stop offset="1" stop-color="#D93108"/>
</linearGradient>
<linearGradient id="paint2_linear_401_2851" x1="45.0683" y1="24.5598" x2="45.0683" y2="39.7772" gradientUnits="userSpaceOnUse">
<stop stop-color="#D93300"/>
<stop offset="1" stop-color="#D93108"/>
</linearGradient>
<linearGradient id="paint3_linear_401_2851" x1="45.0679" y1="24.5598" x2="45.0679" y2="39.7772" gradientUnits="userSpaceOnUse">
<stop stop-color="#D93300"/>
<stop offset="1" stop-color="#D93108"/>
</linearGradient>
<linearGradient id="paint4_linear_401_2851" x1="36.848" y1="41" x2="36.848" y2="56.2174" gradientUnits="userSpaceOnUse">
<stop stop-color="#D93300"/>
<stop offset="1" stop-color="#D93108"/>
</linearGradient>
<clipPath id="clip0_401_2851">
<rect width="50" height="50" fill="white" transform="translate(20 16)"/>
</clipPath>
<clipPath id="clip1_401_2851">
<rect width="100" height="31.5789" fill="white" transform="translate(111 25)"/>
</clipPath>
</defs>
</svg>
