<svg width="250" height="82" viewBox="0 0 250 82" fill="none" xmlns="http://www.w3.org/2000/svg">
<g clipPath="url(#clip0_401_1549)">
<path d="M148.287 37.2249C144.812 37.2249 142 40.0374 142 43.5124C142 46.9874 144.812 49.7999 148.287 49.7999C151.762 49.7999 154.575 46.9874 154.575 43.5124C154.575 40.0374 151.762 37.2249 148.287 37.2249ZM148.287 46.6624C146.55 46.6624 145.138 45.2499 145.138 43.5124C145.138 41.7749 146.55 40.3624 148.287 40.3624C150.025 40.3624 151.438 41.7749 151.438 43.5124C151.438 45.2499 150.025 46.6624 148.287 46.6624Z" fill="#00297A"/>
<path d="M159.338 45.625C159.338 45.125 159.938 44.8875 160.288 45.2375C161.863 46.8375 164.463 49.5875 164.475 49.6C164.513 49.6375 164.55 49.7 164.7 49.75C164.763 49.775 164.863 49.775 164.975 49.775H167.813C168.325 49.775 168.475 49.1875 168.238 48.8875L163.538 44.075L163.288 43.825C162.75 43.1875 162.813 42.9375 163.425 42.2875L167.15 38.125C167.388 37.825 167.238 37.25 166.713 37.25H164.138C164.038 37.25 163.963 37.25 163.888 37.275C163.738 37.325 163.675 37.375 163.638 37.425C163.625 37.4375 161.563 39.6625 160.288 41.025C159.938 41.4 159.313 41.15 159.313 40.6375V33.5C159.313 33.1375 159.013 33 158.775 33H156.675C156.313 33 156.138 33.2375 156.138 33.45V49.275C156.138 49.6375 156.438 49.7375 156.688 49.7375H158.788C159.113 49.7375 159.325 49.5 159.325 49.2625V49.1V45.625H159.338Z" fill="#00297A"/>
<path d="M176.487 49.2L176.262 47.1C176.237 46.8125 175.962 46.6125 175.675 46.6625C175.512 46.6875 175.35 46.7 175.187 46.7C173.512 46.7 172.15 45.3875 172.05 43.725C172.05 43.675 172.05 43.6125 172.05 43.55V40.975C172.05 40.6375 172.3 40.3625 172.637 40.3625H175.45C175.65 40.3625 175.95 40.1875 175.95 39.825V37.8375C175.95 37.45 175.7 37.25 175.475 37.25H172.637C172.312 37.25 172.05 37.0125 172.037 36.6875V33.5C172.037 33.3 171.887 33 171.5 33H169.412C169.15 33 168.9 33.1625 168.9 33.4875C168.9 33.4875 168.9 43.675 168.9 43.725C168.987 47.125 171.775 49.8375 175.187 49.8375C175.475 49.8375 175.75 49.8125 176.025 49.775C176.325 49.7375 176.525 49.4875 176.487 49.2Z" fill="#00297A"/>
<path d="M191.638 46.5626C189.863 46.5626 189.588 45.9251 189.588 43.5376C189.588 43.5251 189.588 43.5251 189.588 43.5126V37.7751C189.588 37.5751 189.437 37.2376 189.037 37.2376H186.938C186.675 37.2376 186.388 37.4501 186.388 37.7751V38.0376C185.475 37.5126 184.412 37.2126 183.287 37.2126C179.812 37.2126 177 40.0251 177 43.5001C177 46.9751 179.812 49.7876 183.287 49.7876C184.85 49.7876 186.275 49.2126 187.375 48.2751C187.962 49.1751 188.913 49.7751 190.4 49.7876C190.65 49.7876 192 49.8376 192 49.2001V46.9626C192 46.7751 191.85 46.5626 191.638 46.5626ZM183.3 46.6626C181.562 46.6626 180.15 45.2501 180.15 43.5126C180.15 41.7751 181.562 40.3626 183.3 40.3626C185.037 40.3626 186.45 41.7751 186.45 43.5126C186.438 45.2501 185.025 46.6626 183.3 46.6626Z" fill="#00297A"/>
</g>
<g clipPath="url(#clip1_401_1549)">
<path d="M32.575 32.45C25.625 32.45 20 38.075 20 45.025C20 51.975 25.625 57.6 32.575 57.6C39.525 57.6 45.15 51.975 45.15 45.025C45.15 38.075 39.525 32.45 32.575 32.45ZM32.575 51.325C29.1 51.325 26.275 48.5 26.275 45.025C26.275 41.55 29.1 38.725 32.575 38.725C36.05 38.725 38.875 41.55 38.875 45.025C38.875 48.5 36.05 51.325 32.575 51.325Z" fill="#00297A"/>
<path d="M54.6749 49.25C54.6749 48.25 55.8749 47.775 56.5749 48.475C59.7249 51.675 64.9249 57.175 64.9499 57.2C65.0249 57.275 65.0999 57.4 65.3999 57.5C65.5249 57.55 65.7249 57.55 65.9499 57.55H71.6249C72.6499 57.55 72.9499 56.375 72.4749 55.775L63.0749 46.15L62.5749 45.65C61.4999 44.375 61.6249 43.875 62.8499 42.575L70.2999 34.25C70.7749 33.65 70.4749 32.5 69.4249 32.5H64.2749C64.0749 32.5 63.9249 32.5 63.7749 32.55C63.4749 32.65 63.3499 32.75 63.2749 32.85C63.2499 32.875 59.1249 37.325 56.5749 40.05C55.8749 40.8 54.6249 40.3 54.6249 39.275V25C54.6249 24.275 54.0249 24 53.5499 24H49.3499C48.6249 24 48.2749 24.475 48.2749 24.9V56.55C48.2749 57.275 48.8749 57.475 49.3749 57.475H53.5749C54.2249 57.475 54.6499 57 54.6499 56.525V56.2V49.25H54.6749Z" fill="#00297A"/>
<path d="M88.9748 56.4L88.5248 52.2C88.4748 51.625 87.9248 51.225 87.3498 51.325C87.0248 51.375 86.6998 51.4 86.3748 51.4C83.0248 51.4 80.2998 48.775 80.0998 45.45C80.0998 45.35 80.0998 45.225 80.0998 45.1V39.95C80.0998 39.275 80.5998 38.725 81.2748 38.725H86.8998C87.2998 38.725 87.8998 38.375 87.8998 37.65V33.675C87.8998 32.9 87.3998 32.5 86.9498 32.5H81.2748C80.6248 32.5 80.0998 32.025 80.0748 31.375V25C80.0748 24.6 79.7748 24 78.9998 24H74.8248C74.2998 24 73.7998 24.325 73.7998 24.975C73.7998 24.975 73.7998 45.35 73.7998 45.45C73.9748 52.25 79.5498 57.675 86.3748 57.675C86.9498 57.675 87.4998 57.625 88.0498 57.55C88.6498 57.475 89.0498 56.975 88.9748 56.4Z" fill="#00297A"/>
<path d="M119.275 51.125C115.725 51.125 115.175 49.85 115.175 45.075C115.175 45.05 115.175 45.05 115.175 45.025V33.55C115.175 33.15 114.875 32.475 114.075 32.475H109.875C109.35 32.475 108.775 32.9 108.775 33.55V34.075C106.95 33.025 104.825 32.425 102.575 32.425C95.625 32.425 90 38.05 90 45C90 51.95 95.625 57.575 102.575 57.575C105.7 57.575 108.55 56.425 110.75 54.55C111.925 56.35 113.825 57.55 116.8 57.575C117.3 57.575 120 57.675 120 56.4V51.925C120 51.55 119.7 51.125 119.275 51.125ZM102.6 51.325C99.125 51.325 96.3 48.5 96.3 45.025C96.3 41.55 99.125 38.725 102.6 38.725C106.075 38.725 108.9 41.55 108.9 45.025C108.875 48.5 106.05 51.325 102.6 51.325Z" fill="#00297A"/>
</g>
<defs>
<clipPath id="clip0_401_1549">
<rect width="50" height="16.875" fill="white" transform="translate(142 33)"/>
</clipPath>
<clipPath id="clip1_401_1549">
<rect width="100" height="33.75" fill="white" transform="translate(20 24)"/>
</clipPath>
</defs>
</svg>
