<svg width="250" height="82" viewBox="0 0 250 82" fill="none" xmlns="http://www.w3.org/2000/svg">
<g clip-path="url(#clip0_401_3033)">
<path d="M54.2575 48.1701C52.6406 49.605 50.6214 51.3905 46.9601 51.3905H44.7708C42.1214 51.3905 39.7116 50.4275 37.9868 48.6819C36.3019 46.9763 35.3743 44.642 35.3743 42.108V39.1124C35.3743 36.5784 36.3019 34.2441 37.9868 32.5384C39.7116 30.7929 42.1214 29.8313 44.7708 29.8313H46.9601C50.6258 29.8313 52.6406 31.6154 54.2575 33.0503C55.9365 34.5296 57.3847 35.8225 61.2471 35.8225C61.8362 35.8223 62.4243 35.7753 63.006 35.6819L62.9927 35.6479C62.7613 35.0734 62.49 34.5158 62.1806 33.9793L59.5992 29.5074C58.4351 27.4914 56.7609 25.8174 54.7449 24.6536C52.7288 23.4898 50.4419 22.8771 48.114 22.8772H42.9498C40.6218 22.8771 38.335 23.4898 36.3189 24.6536C34.3029 25.8174 32.6286 27.4914 31.4646 29.5074L28.8832 33.9793C27.7195 35.9954 27.1069 38.2824 27.1069 40.6102C27.1069 42.938 27.7195 45.225 28.8832 47.2411L31.4646 51.713C32.6286 53.729 34.3029 55.4029 36.3189 56.5668C38.335 57.7306 40.6218 58.3433 42.9498 58.3432H48.114C50.4419 58.3433 52.7288 57.7306 54.7449 56.5668C56.7609 55.4029 58.4351 53.729 59.5992 51.713L62.1806 47.2485C62.49 46.712 62.7613 46.1544 62.9927 45.5799L63.006 45.5473C62.4246 45.4507 61.8365 45.4013 61.2471 45.3994C57.3847 45.3994 55.9365 46.6849 54.2575 48.1716" fill="#006BFF"/>
<path d="M46.9602 32.5459H44.7708C40.7383 32.5459 38.0889 35.4261 38.0889 39.1125V42.108C38.0889 45.7944 40.7383 48.6746 44.7708 48.6746H46.9602C52.8359 48.6746 52.3744 42.6835 61.2472 42.6835C62.0878 42.6824 62.9267 42.7598 63.7531 42.9142C64.0223 41.39 64.0223 39.8304 63.7531 38.3063C62.9266 38.46 62.0878 38.5372 61.2472 38.537C52.3714 38.537 52.8359 32.5459 46.9602 32.5459Z" fill="#006BFF"/>
<path d="M68.8504 45.1035C67.3395 43.9969 65.5969 43.2477 63.7543 42.9127C63.7543 42.929 63.7543 42.9423 63.7543 42.9571C63.5957 43.8403 63.3478 44.7051 63.0146 45.5384C64.5368 45.7742 65.9811 46.3689 67.2276 47.2736C67.2276 47.2855 67.2203 47.3003 67.2158 47.3136C65.6112 52.5091 62.1964 56.9568 57.5914 59.8486C52.9865 62.7405 47.497 63.8847 42.1203 63.0733C36.7435 62.2619 31.836 59.5489 28.2895 55.427C24.7429 51.3051 22.7924 46.0479 22.7924 40.6102C22.7924 35.1724 24.7429 29.9152 28.2895 25.7933C31.836 21.6714 36.7435 18.9584 42.1203 18.147C47.497 17.3357 52.9865 18.4798 57.5914 21.3717C62.1964 24.2636 65.6112 28.7112 67.2158 33.9068C67.2158 33.9201 67.2232 33.9349 67.2276 33.9467C65.9812 34.8514 64.5368 35.4458 63.0146 35.6804C63.3475 36.5148 63.5953 37.3806 63.7543 38.2648C63.7534 38.2785 63.7534 38.2924 63.7543 38.3062C65.5969 37.9717 67.3393 37.223 68.8504 36.1168C70.3031 35.0414 70.022 33.8269 69.8016 33.108C68.0056 27.2827 64.1793 22.295 59.018 19.0513C53.8569 15.8076 47.7032 14.5232 41.6754 15.4313C35.6476 16.3395 30.1456 19.38 26.1692 24.0003C22.1928 28.6207 20.0059 34.5143 20.0059 40.6102C20.0059 46.706 22.1928 52.5997 26.1692 57.2199C30.1456 61.8403 35.6476 64.8809 41.6754 65.789C47.7032 66.6972 53.8569 65.4127 59.018 62.169C64.1793 58.9253 68.0056 53.9377 69.8016 48.1124C70.022 47.3935 70.3031 46.179 68.8504 45.1035Z" fill="#006BFF"/>
<path d="M63.0057 35.6805C62.4243 35.7771 61.8362 35.8265 61.2468 35.8284C57.3844 35.8284 55.9362 34.5429 54.2586 33.0562C52.6403 31.6213 50.6255 29.8358 46.9598 29.8358H44.7705C42.1196 29.8358 39.7113 30.7988 37.9864 32.5444C36.3015 34.25 35.374 36.5843 35.374 39.1184V42.1139C35.374 44.6479 36.3015 46.9823 37.9864 48.6879C39.7113 50.4334 42.1196 51.395 44.7705 51.395H46.9598C50.6255 51.395 52.6403 49.611 54.2586 48.1761C55.9362 46.6968 57.3844 45.4039 61.2468 45.4039C61.8359 45.404 62.424 45.4511 63.0057 45.5444C63.3396 44.7114 63.5873 43.8465 63.7453 42.963C63.7462 42.9482 63.7462 42.9334 63.7453 42.9187C62.9188 42.7654 62.0799 42.6886 61.2394 42.6894C52.3637 42.6894 52.8282 48.682 46.9524 48.682H44.7631C40.7305 48.682 38.0811 45.8003 38.0811 42.1139V39.1124C38.0811 35.4261 40.7305 32.5459 44.7631 32.5459H46.9524C52.8282 32.5459 52.3666 38.5355 61.2394 38.5355C62.0801 38.537 62.919 38.4602 63.7453 38.3062C63.7453 38.2929 63.7453 38.2796 63.7453 38.2648C63.5863 37.3806 63.3385 36.5148 63.0057 35.6805Z" fill="#0AE8F0"/>
<path d="M63.0057 35.6805C62.4243 35.7771 61.8362 35.8265 61.2468 35.8284C57.3844 35.8284 55.9362 34.5429 54.2586 33.0562C52.6403 31.6213 50.6255 29.8358 46.9598 29.8358H44.7705C42.1196 29.8358 39.7113 30.7988 37.9864 32.5444C36.3015 34.25 35.374 36.5843 35.374 39.1184V42.1139C35.374 44.6479 36.3015 46.9823 37.9864 48.6879C39.7113 50.4334 42.1196 51.395 44.7705 51.395H46.9598C50.6255 51.395 52.6403 49.611 54.2586 48.1761C55.9362 46.6968 57.3844 45.4039 61.2468 45.4039C61.8359 45.404 62.424 45.4511 63.0057 45.5444C63.3396 44.7114 63.5873 43.8465 63.7453 42.963C63.7462 42.9482 63.7462 42.9334 63.7453 42.9187C62.9188 42.7654 62.0799 42.6886 61.2394 42.6894C52.3637 42.6894 52.8282 48.682 46.9524 48.682H44.7631C40.7305 48.682 38.0811 45.8003 38.0811 42.1139V39.1124C38.0811 35.4261 40.7305 32.5459 44.7631 32.5459H46.9524C52.8282 32.5459 52.3666 38.5355 61.2394 38.5355C62.0801 38.537 62.919 38.4602 63.7453 38.3062C63.7453 38.2929 63.7453 38.2796 63.7453 38.2648C63.5863 37.3806 63.3385 36.5148 63.0057 35.6805Z" fill="#0AE8F0"/>
</g>
<g clip-path="url(#clip1_401_3033)">
<path d="M151.359 38.5218C152.91 38.5218 154.378 39.4706 154.688 41.5205H147.781C148.07 39.7217 149.415 38.5218 151.359 38.5218ZM154.468 44.5534C153.94 45.3757 152.92 46.0082 151.524 46.0082C149.601 46.0082 148.132 44.9538 147.781 43.0923H156.447C156.488 42.8255 156.51 42.5559 156.51 42.2859C156.51 39.3909 154.486 36.826 151.36 36.826C148.134 36.826 145.942 39.2043 145.942 42.2656C145.942 45.3649 148.156 47.7052 151.484 47.7052C153.552 47.7052 155.124 46.7742 156.034 45.3649L154.468 44.5534Z" fill="#006BFF"/>
<path d="M145.09 32.3384H143.292V47.4358H145.09V32.3384Z" fill="#006BFF"/>
<path d="M166.519 41.0866V47.4351H164.72V41.1897C164.72 39.4939 163.748 38.5426 162.156 38.5426C160.501 38.5426 159.157 39.5148 159.157 41.955V47.4351H157.357V37.0961H159.157V38.585C159.922 37.3649 161.06 36.8273 162.509 36.8273C164.929 36.8273 166.521 38.4402 166.521 41.0879" fill="#006BFF"/>
<path d="M176.44 42.265C176.44 40.1556 174.847 38.5629 172.759 38.5629C170.69 38.5629 169.098 40.1556 169.098 42.265C169.098 44.3744 170.69 45.9671 172.759 45.9671C174.846 45.9671 176.44 44.3744 176.44 42.265ZM178.239 32.3384V47.4358H176.44V45.6565C175.613 46.9216 174.289 47.7046 172.531 47.7046C169.656 47.7046 167.299 45.3257 167.299 42.265C167.299 39.2043 169.656 36.8254 172.531 36.8254C174.289 36.8254 175.613 37.611 176.44 38.8729V32.3384H178.239Z" fill="#006BFF"/>
<path d="M181.489 32.3384H179.69V47.4358H181.489V32.3384Z" fill="#006BFF"/>
<path d="M140.084 42.265C140.084 40.1556 138.492 38.5629 136.403 38.5629C134.336 38.5629 132.743 40.1556 132.743 42.265C132.743 44.3745 134.336 45.9671 136.403 45.9671C138.49 45.9671 140.084 44.3745 140.084 42.265ZM141.884 37.0962V47.4352H140.084V45.6566C139.257 46.9216 137.934 47.7046 136.176 47.7046C133.301 47.7046 130.943 45.3258 130.943 42.265C130.943 39.2043 133.301 36.8254 136.176 36.8254C137.934 36.8254 139.257 37.611 140.084 38.8729V37.0962H141.884Z" fill="#006BFF"/>
<path d="M128.275 45.4453C127.354 45.7851 126.36 45.8769 125.392 45.7114C124.424 45.5458 123.517 45.1288 122.762 44.5021C122.006 43.8754 121.428 43.0611 121.087 42.1407C120.745 41.2204 120.651 40.2264 120.815 39.2584C120.979 38.2905 121.394 37.3826 122.019 36.6257C122.644 35.8688 123.458 35.2896 124.377 34.9462C125.297 34.6027 126.291 34.5071 127.259 34.6688C128.227 34.8306 129.136 35.2441 129.894 35.8678C130.21 36.1286 130.496 36.424 130.747 36.7482L132.303 35.6097C131.396 34.4242 130.158 33.5346 128.745 33.0537C127.332 32.5728 125.808 32.5222 124.366 32.9084C122.925 33.2945 121.63 34.1001 120.646 35.2228C119.663 36.3457 119.035 37.7352 118.842 39.2152C118.649 40.6953 118.9 42.1993 119.563 43.5367C120.226 44.8741 121.271 45.9845 122.565 46.7273C123.86 47.4701 125.346 47.8118 126.835 47.7092C128.324 47.6064 129.749 47.064 130.93 46.1505L129.893 44.5123C129.409 44.911 128.862 45.2263 128.275 45.4453Z" fill="#006BFF"/>
<path d="M190.173 37.0961V42.9645C190.173 44.862 189.07 46.0638 187.385 46.0638C185.7 46.0638 184.48 44.862 184.48 42.9645V37.0961H182.659V42.7887C182.659 45.7716 184.518 47.7083 187.385 47.7083C189.864 47.7083 190.251 46.1397 190.251 46.1005V48.2118C190.251 50.3035 189.341 51.4851 187.443 51.4851C186.765 51.4884 186.109 51.2452 185.597 50.8006C185.085 50.3562 184.752 49.7407 184.66 49.0689L183.032 49.6381C183.265 50.6334 183.828 51.5204 184.63 52.1548C185.431 52.7891 186.424 53.1334 187.446 53.1315C190.39 53.1315 192 51.1941 192 48.2118V37.0961H190.173Z" fill="#006BFF"/>
<path d="M106.648 43.1195C105.956 43.733 105.093 44.4965 103.527 44.4965H102.591C101.458 44.4965 100.428 44.0847 99.6906 43.3383C98.9701 42.609 98.5735 41.6109 98.5735 40.5275V39.2466C98.5735 38.1631 98.9701 37.165 99.6906 36.4357C100.428 35.6894 101.458 35.2782 102.591 35.2782H103.527C105.095 35.2782 105.956 36.0411 106.648 36.6546C107.365 37.2871 107.985 37.8399 109.636 37.8399C109.888 37.8399 110.14 37.8197 110.388 37.7798L110.383 37.7653C110.284 37.5196 110.168 37.2812 110.035 37.0518L108.932 35.1397C108.434 34.2778 107.718 33.562 106.856 33.0644C105.994 32.5667 105.016 32.3048 104.021 32.3048H101.813C100.817 32.3048 99.8394 32.5667 98.9774 33.0644C98.1154 33.562 97.3995 34.2778 96.9018 35.1397L95.7981 37.0518C95.3005 37.9139 95.0386 38.8917 95.0386 39.887C95.0386 40.8824 95.3005 41.8602 95.7981 42.7223L96.9018 44.6343C97.3995 45.4963 98.1154 46.2121 98.9774 46.7097C99.8394 47.2073 100.817 47.4693 101.813 47.4693H104.021C105.016 47.4693 105.994 47.2073 106.856 46.7097C107.718 46.2121 108.434 45.4963 108.932 44.6343L110.035 42.7254C110.168 42.496 110.284 42.2576 110.383 42.012L110.388 41.998C110.14 41.9567 109.888 41.9356 109.636 41.9348C107.985 41.9348 107.365 42.4844 106.648 43.1201" fill="#006BFF"/>
<path d="M103.528 36.439H102.591C100.867 36.439 99.7344 37.6705 99.7344 39.2467V40.5275C99.7344 42.1037 100.867 43.3352 102.591 43.3352H103.528C106.04 43.3352 105.843 40.7736 109.636 40.7736C109.996 40.7732 110.354 40.8062 110.708 40.8722C110.823 40.2206 110.823 39.5537 110.708 38.902C110.354 38.9677 109.996 39.0007 109.636 39.0006C105.841 39.0006 106.04 36.439 103.528 36.439Z" fill="#006BFF"/>
<path d="M112.887 41.8083C112.241 41.3351 111.496 41.0148 110.708 40.8716C110.708 40.8785 110.708 40.8842 110.708 40.8905C110.64 41.2682 110.534 41.638 110.392 41.9943C111.043 42.0951 111.66 42.3494 112.193 42.7362C112.193 42.7413 112.19 42.7476 112.188 42.7533C111.502 44.9748 110.042 46.8765 108.073 48.113C106.104 49.3495 103.757 49.8387 101.458 49.4918C99.1591 49.1449 97.0608 47.9849 95.5443 46.2224C94.0279 44.46 93.1939 42.2121 93.1939 39.8871C93.1939 37.562 94.0279 35.3141 95.5443 33.5517C97.0608 31.7893 99.1591 30.6293 101.458 30.2823C103.757 29.9354 106.104 30.4246 108.073 31.6611C110.042 32.8976 111.502 34.7993 112.188 37.0208C112.188 37.0265 112.192 37.0329 112.193 37.0379C111.66 37.4248 111.043 37.6789 110.392 37.7792C110.534 38.136 110.64 38.5062 110.708 38.8842C110.708 38.8901 110.708 38.8961 110.708 38.9019C111.496 38.7589 112.241 38.4388 112.887 37.9658C113.508 37.506 113.388 36.9867 113.294 36.6793C112.526 34.1885 110.89 32.0559 108.683 30.669C106.476 29.2821 103.845 28.7329 101.268 29.1212C98.6905 29.5095 96.338 30.8095 94.6377 32.7851C92.9375 34.7606 92.0024 37.2806 92.0024 39.8871C92.0024 42.4935 92.9375 45.0135 94.6377 46.989C96.338 48.9646 98.6905 50.2647 101.268 50.653C103.845 51.0413 106.476 50.4921 108.683 49.1052C110.89 47.7182 112.526 45.5856 113.294 43.0948C113.388 42.7874 113.508 42.2682 112.887 41.8083Z" fill="#006BFF"/>
<path d="M110.388 37.7792C110.14 37.8205 109.888 37.8416 109.636 37.8425C107.985 37.8425 107.366 37.2928 106.648 36.6571C105.956 36.0436 105.095 35.2802 103.528 35.2802H102.591C101.458 35.2802 100.428 35.6919 99.6907 36.4383C98.9703 37.1676 98.5737 38.1657 98.5737 39.2492V40.53C98.5737 41.6135 98.9703 42.6116 99.6907 43.3409C100.428 44.0872 101.458 44.4984 102.591 44.4984H103.528C105.095 44.4984 105.956 43.7356 106.648 43.122C107.366 42.4895 107.985 41.9367 109.636 41.9367C109.888 41.9368 110.14 41.9569 110.388 41.9968C110.531 41.6406 110.637 41.2708 110.705 40.8931C110.705 40.8867 110.705 40.8804 110.705 40.8741C110.351 40.8086 109.993 40.7757 109.633 40.776C105.838 40.776 106.037 43.3383 103.524 43.3383H102.588C100.864 43.3383 99.7312 42.1062 99.7312 40.53V39.2466C99.7312 37.6704 100.864 36.4389 102.588 36.4389H103.524C106.037 36.4389 105.839 38.9999 109.633 38.9999C109.993 39.0006 110.351 38.9678 110.705 38.9019C110.705 38.8962 110.705 38.8905 110.705 38.8842C110.637 38.5061 110.531 38.1359 110.388 37.7792Z" fill="#0AE8F0"/>
<path d="M110.388 37.7792C110.14 37.8205 109.888 37.8416 109.636 37.8425C107.985 37.8425 107.366 37.2928 106.648 36.6571C105.956 36.0436 105.095 35.2802 103.528 35.2802H102.591C101.458 35.2802 100.428 35.6919 99.6907 36.4383C98.9703 37.1676 98.5737 38.1657 98.5737 39.2492V40.53C98.5737 41.6135 98.9703 42.6116 99.6907 43.3409C100.428 44.0872 101.458 44.4984 102.591 44.4984H103.528C105.095 44.4984 105.956 43.7356 106.648 43.122C107.366 42.4895 107.985 41.9367 109.636 41.9367C109.888 41.9368 110.14 41.9569 110.388 41.9968C110.531 41.6406 110.637 41.2708 110.705 40.8931C110.705 40.8867 110.705 40.8804 110.705 40.8741C110.351 40.8086 109.993 40.7757 109.633 40.776C105.838 40.776 106.037 43.3383 103.524 43.3383H102.588C100.864 43.3383 99.7312 42.1062 99.7312 40.53V39.2466C99.7312 37.6704 100.864 36.4389 102.588 36.4389H103.524C106.037 36.4389 105.839 38.9999 109.633 38.9999C109.993 39.0006 110.351 38.9678 110.705 38.9019C110.705 38.8962 110.705 38.8905 110.705 38.8842C110.637 38.5061 110.531 38.1359 110.388 37.7792Z" fill="#0AE8F0"/>
</g>
<defs>
<clipPath id="clip0_401_3033">
<rect width="50" height="51.1834" fill="white" transform="translate(20 15)"/>
</clipPath>
<clipPath id="clip1_401_3033">
<rect width="100" height="24.1619" fill="white" transform="translate(92 29)"/>
</clipPath>
</defs>
</svg>
