<svg width="250" height="82" viewBox="0 0 250 82" fill="none" xmlns="http://www.w3.org/2000/svg">
<g clipPath="url(#clip0_401_3327)">
<path d="M66.2498 51.5C65.9998 50.9 65.7498 50.25 65.4998 49.7C65.0998 48.8 64.6998 47.95 64.3498 47.15L64.2998 47.1C60.8498 39.6 57.1498 32 53.2498 24.5L53.0998 24.2C52.6998 23.45 52.2998 22.65 51.8998 21.85C51.3998 20.95 50.8998 20 50.0998 19.1C48.4998 17.1 46.1998 16 43.7498 16C41.2498 16 38.9998 17.1 37.3498 19C36.5998 19.9 36.0498 20.85 35.5498 21.75C35.1498 22.55 34.7498 23.35 34.3498 24.1L34.1998 24.4C30.3498 31.9 26.5998 39.5 23.1498 47L23.0998 47.1C22.7498 47.9 22.3498 48.75 21.9498 49.65C21.6998 50.2 21.4498 50.8 21.1998 51.45C20.5498 53.3 20.3498 55.05 20.5998 56.85C21.1498 60.6 23.6498 63.75 27.0998 65.15C28.3998 65.7 29.7498 65.95 31.1498 65.95C31.5498 65.95 32.0498 65.9 32.4498 65.85C34.0998 65.65 35.7998 65.1 37.4498 64.15C39.4998 63 41.4498 61.35 43.6498 58.95C45.8498 61.35 47.8498 63 49.8498 64.15C51.4998 65.1 53.1998 65.65 54.8498 65.85C55.2498 65.9 55.7498 65.95 56.1498 65.95C57.5498 65.95 58.9498 65.7 60.1998 65.15C63.6998 63.75 66.1498 60.55 66.6998 56.85C67.0998 55.1 66.8998 53.35 66.2498 51.5ZM43.6998 54.1C40.9998 50.7 39.2498 47.5 38.6498 44.8C38.3998 43.65 38.3498 42.65 38.4998 41.75C38.5998 40.95 38.8998 40.25 39.2998 39.65C40.2498 38.3 41.8498 37.45 43.6998 37.45C45.5498 37.45 47.1998 38.25 48.0998 39.65C48.4998 40.25 48.7998 40.95 48.8998 41.75C49.0498 42.65 48.9998 43.7 48.7498 44.8C48.1498 47.45 46.3998 50.65 43.6998 54.1ZM63.6498 56.45C63.2998 59.05 61.5498 61.3 59.0998 62.3C57.8998 62.8 56.5998 62.95 55.2998 62.8C54.0498 62.65 52.7998 62.25 51.4998 61.5C49.6998 60.5 47.8998 58.95 45.7998 56.65C49.0998 52.6 51.0998 48.9 51.8498 45.6C52.1998 44.05 52.2498 42.65 52.0998 41.35C51.8998 40.1 51.4498 38.95 50.7498 37.95C49.1998 35.7 46.5998 34.4 43.6998 34.4C40.7998 34.4 38.1998 35.75 36.6498 37.95C35.9498 38.95 35.4998 40.1 35.2998 41.35C35.0998 42.65 35.1498 44.1 35.5498 45.6C36.2998 48.9 38.3498 52.65 41.5998 56.7C39.5498 59 37.6998 60.55 35.8998 61.55C34.5998 62.3 33.3498 62.7 32.0998 62.85C30.7498 63 29.4498 62.8 28.2998 62.35C25.8498 61.35 24.0998 59.1 23.7498 56.5C23.5998 55.25 23.6998 54 24.1998 52.6C24.3498 52.1 24.5998 51.6 24.8498 51C25.1998 50.2 25.5998 49.35 25.9998 48.5L26.0498 48.4C29.4998 40.95 33.1998 33.35 37.0498 25.95L37.1998 25.65C37.5998 24.9 37.9998 24.1 38.3998 23.35C38.7998 22.55 39.2498 21.8 39.7998 21.15C40.8498 19.95 42.2498 19.3 43.7998 19.3C45.3498 19.3 46.7498 19.95 47.7998 21.15C48.3498 21.8 48.7998 22.55 49.1998 23.35C49.5998 24.1 49.9998 24.9 50.3998 25.65L50.5498 25.95C54.3498 33.4 58.0498 41 61.4998 48.45V48.5C61.8998 49.3 62.2498 50.2 62.6498 51C62.8998 51.6 63.1498 52.1 63.2998 52.6C63.6998 53.9 63.8498 55.15 63.6498 56.45Z" fill="#FF5A5F"/>
</g>
<g clipPath="url(#clip1_401_3327)">
<path d="M162.555 32.8193C162.555 33.9408 161.651 34.8442 160.53 34.8442C159.408 34.8442 158.505 33.9408 158.505 32.8193C158.505 31.6978 159.377 30.7944 160.53 30.7944C161.682 30.8255 162.555 31.729 162.555 32.8193ZM154.206 36.9003C154.206 37.0872 154.206 37.3988 154.206 37.3988C154.206 37.3988 153.24 36.1526 151.184 36.1526C147.788 36.1526 145.14 38.7383 145.14 42.3209C145.14 45.8723 147.757 48.4891 151.184 48.4891C153.271 48.4891 154.206 47.2118 154.206 47.2118V47.7414C154.206 47.9907 154.393 48.1776 154.642 48.1776H157.165V36.4642C157.165 36.4642 154.86 36.4642 154.642 36.4642C154.393 36.4642 154.206 36.6822 154.206 36.9003ZM154.206 44.4081C153.738 45.0935 152.804 45.6854 151.682 45.6854C149.689 45.6854 148.162 44.4393 148.162 42.3209C148.162 40.2025 149.689 38.9564 151.682 38.9564C152.773 38.9564 153.77 39.5794 154.206 40.2336V44.4081ZM159.034 36.4642H162.025V48.1776H159.034V36.4642ZM203.707 36.1526C201.651 36.1526 200.686 37.3988 200.686 37.3988V30.8255H197.695V48.1776C197.695 48.1776 200 48.1776 200.218 48.1776C200.467 48.1776 200.654 47.9595 200.654 47.7414V47.2118C200.654 47.2118 201.62 48.4891 203.676 48.4891C207.072 48.4891 209.72 45.8723 209.72 42.3209C209.72 38.7695 207.072 36.1526 203.707 36.1526ZM203.209 45.6542C202.056 45.6542 201.153 45.0623 200.686 44.3769V40.2025C201.153 39.5794 202.15 38.9252 203.209 38.9252C205.203 38.9252 206.729 40.1713 206.729 42.2897C206.729 44.4081 205.203 45.6542 203.209 45.6542ZM196.137 41.2305V48.2087H193.147V41.5732C193.147 39.6417 192.524 38.8629 190.841 38.8629C189.938 38.8629 189.003 39.3302 188.411 40.0156V48.1776H185.421V36.4642H187.788C188.038 36.4642 188.224 36.6822 188.224 36.9003V37.3988C189.097 36.4953 190.249 36.1526 191.402 36.1526C192.71 36.1526 193.801 36.5265 194.673 37.2741C195.732 38.1464 196.137 39.2679 196.137 41.2305ZM178.162 36.1526C176.106 36.1526 175.14 37.3988 175.14 37.3988V30.8255H172.15V48.1776C172.15 48.1776 174.455 48.1776 174.673 48.1776C174.922 48.1776 175.109 47.9595 175.109 47.7414V47.2118C175.109 47.2118 176.075 48.4891 178.131 48.4891C181.527 48.4891 184.175 45.8723 184.175 42.3209C184.206 38.7695 181.558 36.1526 178.162 36.1526ZM177.664 45.6542C176.511 45.6542 175.608 45.0623 175.14 44.3769V40.2025C175.608 39.5794 176.605 38.9252 177.664 38.9252C179.657 38.9252 181.184 40.1713 181.184 42.2897C181.184 44.4081 179.657 45.6542 177.664 45.6542ZM169.564 36.1526C170.467 36.1526 170.935 36.3084 170.935 36.3084V39.081C170.935 39.081 168.443 38.2399 166.885 40.0156V48.2087H163.894V36.4642C163.894 36.4642 166.2 36.4642 166.418 36.4642C166.667 36.4642 166.854 36.6822 166.854 36.9003V37.3988C167.414 36.7445 168.629 36.1526 169.564 36.1526ZM138.505 47.1184C138.349 46.7445 138.193 46.3396 138.038 45.9969C137.788 45.4361 137.539 44.9065 137.321 44.4081L137.29 44.3769C135.14 39.7041 132.835 34.9688 130.405 30.2959L130.312 30.109C130.062 29.6417 129.813 29.1433 129.564 28.6449C129.252 28.0841 128.941 27.4922 128.443 26.9315C127.446 25.6854 126.013 25 124.486 25C122.928 25 121.527 25.6854 120.499 26.8692C120.031 27.4299 119.689 28.0218 119.377 28.5826C119.128 29.081 118.879 29.5794 118.629 30.0467L118.536 30.2336C116.137 34.9065 113.801 39.6417 111.651 44.3146L111.62 44.3769C111.402 44.8754 111.153 45.405 110.904 45.9657C110.748 46.3084 110.592 46.6822 110.436 47.0872C110.031 48.2399 109.907 49.3302 110.062 50.4517C110.405 52.7882 111.963 54.7508 114.112 55.6231C114.922 55.9657 115.763 56.1215 116.636 56.1215C116.885 56.1215 117.196 56.0903 117.446 56.0592C118.474 55.9346 119.533 55.5919 120.561 55C121.838 54.2835 123.053 53.2555 124.424 51.7601C125.795 53.2555 127.041 54.2835 128.287 55C129.315 55.5919 130.374 55.9346 131.402 56.0592C131.651 56.0903 131.963 56.1215 132.212 56.1215C133.084 56.1215 133.957 55.9657 134.735 55.6231C136.916 54.7508 138.443 52.757 138.785 50.4517C139.034 49.3614 138.91 48.271 138.505 47.1184ZM124.455 48.7383C122.773 46.6199 121.682 44.6262 121.309 42.9439C121.153 42.2274 121.122 41.6044 121.215 41.0436C121.277 40.5452 121.464 40.109 121.714 39.7352C122.305 38.8941 123.302 38.3645 124.455 38.3645C125.608 38.3645 126.636 38.8629 127.196 39.7352C127.446 40.109 127.633 40.5452 127.695 41.0436C127.788 41.6044 127.757 42.2586 127.601 42.9439C127.228 44.595 126.137 46.5888 124.455 48.7383ZM136.885 50.2025C136.667 51.8224 135.576 53.2243 134.05 53.8474C133.302 54.1589 132.492 54.2523 131.682 54.1589C130.904 54.0654 130.125 53.8162 129.315 53.3489C128.193 52.7259 127.072 51.7601 125.763 50.3271C127.819 47.8037 129.066 45.4984 129.533 43.4424C129.751 42.4766 129.782 41.6044 129.689 40.7944C129.564 40.0156 129.284 39.2991 128.847 38.676C127.882 37.2741 126.262 36.4642 124.455 36.4642C122.648 36.4642 121.028 37.3053 120.062 38.676C119.626 39.2991 119.346 40.0156 119.221 40.7944C119.097 41.6044 119.128 42.5078 119.377 43.4424C119.844 45.4984 121.122 47.8349 123.147 50.3583C121.869 51.7913 120.717 52.757 119.595 53.3801C118.785 53.8474 118.006 54.0966 117.228 54.19C116.386 54.2835 115.576 54.1589 114.86 53.8785C113.333 53.2555 112.243 51.8536 112.025 50.2336C111.932 49.4548 111.994 48.676 112.305 47.8037C112.399 47.4922 112.555 47.1807 112.71 46.8069C112.929 46.3084 113.178 45.7788 113.427 45.2492L113.458 45.1869C115.608 40.5452 117.913 35.81 120.312 31.1994L120.405 31.0125C120.654 30.5452 120.904 30.0467 121.153 29.5794C121.402 29.081 121.682 28.6137 122.025 28.2087C122.679 27.4611 123.552 27.0561 124.517 27.0561C125.483 27.0561 126.355 27.4611 127.009 28.2087C127.352 28.6137 127.633 29.081 127.882 29.5794C128.131 30.0467 128.38 30.5452 128.629 31.0125L128.723 31.1994C131.09 35.8411 133.396 40.5763 135.545 45.2181V45.2492C135.795 45.7477 136.013 46.3084 136.262 46.8069C136.418 47.1807 136.573 47.4922 136.667 47.8037C136.916 48.6137 137.009 49.3925 136.885 50.2025Z" fill="#FF5A5F"/>
</g>
<defs>
<clipPath id="clip0_401_3327">
<rect width="47" height="50" fill="white" transform="translate(20 16)"/>
</clipPath>
<clipPath id="clip1_401_3327">
<rect width="100" height="31.1526" fill="white" transform="translate(110 25)"/>
</clipPath>
</defs>
</svg>
