<svg width="250" height="82" viewBox="0 0 250 82" fill="none" xmlns="http://www.w3.org/2000/svg">
<path fillRule="evenodd" clipRule="evenodd" d="M45.5813 36.053C48.1501 36.053 50.2325 38.1354 50.2325 40.704C50.2325 43.2727 48.1501 45.3552 45.5813 45.3552C43.0123 45.3552 40.9302 43.2727 40.9302 40.704C40.9302 38.1354 43.0123 36.053 45.5813 36.053Z" fill="#131313"/>
<path fillRule="evenodd" clipRule="evenodd" d="M45.5814 33.7275C41.7343 33.7275 38.6047 36.8578 38.6047 40.7047C38.6047 44.5511 41.7339 47.6808 45.5814 47.6808C49.4277 47.6808 52.5582 44.5511 52.5582 40.7047C52.5582 36.8574 49.4277 33.7275 45.5814 33.7275ZM45.5817 48.8434C41.0938 48.8434 37.4419 45.1921 37.4419 40.7043C37.4419 36.2157 41.0933 32.5645 45.5817 32.5645C50.0696 32.5645 53.721 36.2157 53.721 40.7043C53.721 45.1921 50.07 48.8434 45.5817 48.8434Z" fill="#676767"/>
<path fillRule="evenodd" clipRule="evenodd" d="M45.0002 23.2622C46.6058 23.2622 47.9072 24.5636 47.9072 26.1692C47.9072 27.7748 46.6058 29.0762 45.0002 29.0762C43.3947 29.0762 42.0933 27.7748 42.0933 26.1692C42.0933 24.5636 43.3947 23.2622 45.0002 23.2622Z" fill="#00933F"/>
<path fillRule="evenodd" clipRule="evenodd" d="M45.0002 15.1226C46.6058 15.1226 47.9072 16.4239 47.9072 18.0295C47.9072 19.6351 46.6058 20.9365 45.0002 20.9365C43.3947 20.9365 42.0933 19.6351 42.0933 18.0295C42.0933 16.4239 43.3947 15.1226 45.0002 15.1226Z" fill="#D7E100"/>
<path fillRule="evenodd" clipRule="evenodd" d="M45.0002 51.1687C46.6058 51.1687 47.9072 52.4703 47.9072 54.0754C47.9072 55.6809 46.6058 56.9825 45.0002 56.9825C43.3947 56.9825 42.0933 55.6809 42.0933 54.0754C42.0933 52.4703 43.3947 51.1687 45.0002 51.1687Z" fill="#FF3684"/>
<path fillRule="evenodd" clipRule="evenodd" d="M38.0235 26.75C38.9871 26.75 39.7677 27.5307 39.7677 28.4942C39.7677 29.4573 38.9871 30.2384 38.0235 30.2384C37.0603 30.2384 36.2793 29.4573 36.2793 28.4942C36.2793 27.5307 37.0603 26.75 38.0235 26.75Z" fill="#00B73E"/>
<path fillRule="evenodd" clipRule="evenodd" d="M53.1397 51.1687C54.1028 51.1687 54.8839 51.9494 54.8839 52.9127C54.8839 53.8763 54.1028 54.6571 53.1397 54.6571C52.1766 54.6571 51.3955 53.8763 51.3955 52.9127C51.3955 51.9494 52.1766 51.1687 53.1397 51.1687Z" fill="#FF7CAD"/>
<path fillRule="evenodd" clipRule="evenodd" d="M57.7908 30.2383C59.3962 30.2383 60.6977 31.5398 60.6977 33.1453C60.6977 34.7506 59.3962 36.0521 57.7908 36.0521C56.1853 36.0521 54.8838 34.7506 54.8838 33.1453C54.8838 31.5398 56.1853 30.2383 57.7908 30.2383Z" fill="#00ACE5"/>
<path fillRule="evenodd" clipRule="evenodd" d="M33.3723 44.1924C34.9779 44.1924 36.2793 45.4938 36.2793 47.099C36.2793 48.7049 34.9779 50.0063 33.3723 50.0063C31.7667 50.0063 30.4653 48.7049 30.4653 47.099C30.4653 45.4938 31.7667 44.1924 33.3723 44.1924Z" fill="#FF1E7D"/>
<path fillRule="evenodd" clipRule="evenodd" d="M60.1163 39.5408C61.0794 39.5408 61.8604 40.3214 61.8604 41.285C61.8604 42.2481 61.0794 43.0291 60.1163 43.0291C59.1531 43.0291 58.3721 42.2481 58.3721 41.285C58.3721 40.3214 59.1531 39.5408 60.1163 39.5408Z" fill="#B81961"/>
<path fillRule="evenodd" clipRule="evenodd" d="M31.0464 39.5408C32.0096 39.5408 32.7906 40.3214 32.7906 41.285C32.7906 42.2481 32.0096 43.0291 31.0464 43.0291C30.0833 43.0291 29.3022 42.2481 29.3022 41.285C29.3022 40.3214 30.0833 39.5408 31.0464 39.5408Z" fill="#B81961"/>
<path fillRule="evenodd" clipRule="evenodd" d="M53.1397 26.75C54.1028 26.75 54.8839 27.5307 54.8839 28.4942C54.8839 29.4573 54.1028 30.2384 53.1397 30.2384C52.1766 30.2384 51.3955 29.4573 51.3955 28.4942C51.3955 27.5307 52.1766 26.75 53.1397 26.75Z" fill="#00B73E"/>
<path fillRule="evenodd" clipRule="evenodd" d="M38.0235 51.1687C38.9871 51.1687 39.7677 51.9494 39.7677 52.9127C39.7677 53.8763 38.9871 54.6571 38.0235 54.6571C37.0603 54.6571 36.2793 53.8763 36.2793 52.9127C36.2793 51.9494 37.0603 51.1687 38.0235 51.1687Z" fill="#FF7CAD"/>
<path fillRule="evenodd" clipRule="evenodd" d="M57.7908 44.1924C59.3963 44.1924 60.6977 45.4938 60.6977 47.099C60.6977 48.7049 59.3963 50.0063 57.7908 50.0063C56.1852 50.0063 54.8838 48.7049 54.8838 47.099C54.8838 45.4938 56.1852 44.1924 57.7908 44.1924Z" fill="#FF1E7D"/>
<path fillRule="evenodd" clipRule="evenodd" d="M33.3723 30.2383C34.9779 30.2383 36.2793 31.5397 36.2793 33.1453C36.2793 34.7508 34.9779 36.0521 33.3723 36.0521C31.7667 36.0521 30.4653 34.7508 30.4653 33.1453C30.4653 31.5397 31.7667 30.2383 33.3723 30.2383Z" fill="#00ACE5"/>
<path fillRule="evenodd" clipRule="evenodd" d="M45.691 59.3179C47.5077 59.3179 48.9802 60.6175 48.9802 62.2201C48.9802 63.823 47.5077 65.1225 45.691 65.1225C43.8744 65.1225 42.4019 63.823 42.4019 62.2201C42.4019 60.6175 43.8744 59.3179 45.691 59.3179Z" fill="#FFD000"/>
<path fillRule="evenodd" clipRule="evenodd" d="M25.2327 26.75C26.8382 26.75 28.1396 28.0514 28.1396 29.657C28.1396 31.2626 26.8382 32.564 25.2327 32.564C23.6271 32.564 22.3257 31.2626 22.3257 29.657C22.3257 28.0514 23.6271 26.75 25.2327 26.75Z" fill="#00CEF4"/>
<path fillRule="evenodd" clipRule="evenodd" d="M64.7673 48.843C66.3729 48.843 67.6743 50.1444 67.6743 51.7496C67.6743 53.3556 66.3729 54.657 64.7673 54.657C63.1617 54.657 61.8604 53.3556 61.8604 51.7496C61.8604 50.1444 63.1617 48.843 64.7673 48.843Z" fill="#FF72AB"/>
<path fillRule="evenodd" clipRule="evenodd" d="M64.7673 26.75C66.3729 26.75 67.6743 28.0514 67.6743 29.657C67.6743 31.2626 66.3729 32.564 64.7673 32.564C63.1617 32.564 61.8604 31.2626 61.8604 29.657C61.8604 28.0514 63.1617 26.75 64.7673 26.75Z" fill="#00CEF4"/>
<path fillRule="evenodd" clipRule="evenodd" d="M25.2327 48.843C26.8382 48.843 28.1396 50.1444 28.1396 51.7496C28.1396 53.3556 26.8382 54.657 25.2327 54.657C23.6271 54.657 22.3257 53.3556 22.3257 51.7496C22.3257 50.1444 23.6271 48.843 25.2327 48.843Z" fill="#FF72AB"/>
<path fillRule="evenodd" clipRule="evenodd" d="M34.5349 17.4478C36.1405 17.4478 37.4419 18.7491 37.4419 20.3547C37.4419 21.96 36.1405 23.2617 34.5349 23.2617C32.9293 23.2617 31.6279 21.96 31.6279 20.3547C31.6279 18.7491 32.9293 17.4478 34.5349 17.4478Z" fill="#6DC72E"/>
<path fillRule="evenodd" clipRule="evenodd" d="M55.4651 56.9832C57.0707 56.9832 58.3721 58.2845 58.3721 59.8901C58.3721 61.4956 57.0707 62.797 55.4651 62.797C53.8595 62.797 52.5581 61.4956 52.5581 59.8901C52.5581 58.2845 53.8595 56.9832 55.4651 56.9832Z" fill="#FF9500"/>
<path fillRule="evenodd" clipRule="evenodd" d="M55.4651 17.4478C57.0707 17.4478 58.3721 18.7491 58.3721 20.3547C58.3721 21.96 57.0707 23.2617 55.4651 23.2617C53.8595 23.2617 52.5581 21.96 52.5581 20.3547C52.5581 18.7491 53.8595 17.4478 55.4651 17.4478Z" fill="#6DC72E"/>
<path fillRule="evenodd" clipRule="evenodd" d="M34.5349 56.9832C36.1405 56.9832 37.4419 58.2845 37.4419 59.8901C37.4419 61.4956 36.1405 62.797 34.5349 62.797C32.9293 62.797 31.6279 61.4956 31.6279 59.8901C31.6279 58.2845 32.9293 56.9832 34.5349 56.9832Z" fill="#FF9500"/>
<path fillRule="evenodd" clipRule="evenodd" d="M67.093 37.2151C68.6986 37.2151 70 38.5165 70 40.1221C70 41.7276 68.6986 43.029 67.093 43.029C65.4874 43.029 64.186 41.7276 64.186 40.1221C64.186 38.5165 65.4874 37.2151 67.093 37.2151Z" fill="#AB2692"/>
<path fillRule="evenodd" clipRule="evenodd" d="M22.907 37.29C24.5126 37.29 25.814 38.5914 25.814 40.197C25.814 41.8026 24.5126 43.104 22.907 43.104C21.3014 43.104 20 41.8026 20 40.197C20 38.5914 21.3014 37.29 22.907 37.29Z" fill="#AB2692"/>
<g clipPath="url(#clip0_401_2073)">
<path d="M141.605 36.0045H144.22V46.0318H141.605V36.0045ZM148.184 41.0182V46.0318H145.719V35.9212L146.402 36.4876L151.882 41.0182V35.9879H154.314L154.297 46.0984L148.184 41.0182ZM167.24 35.738C164.708 35.738 163.575 37.1871 162.476 39.7689V39.7856C162.376 40.0021 162.259 40.2353 162.159 40.4685L161.826 41.218C161.226 42.6005 160.86 43.4334 159.81 43.4334C158.944 43.4334 158.311 42.6339 158.311 41.3846C158.311 39.8855 159.094 39.0527 160.144 38.4031L158.711 35.9379C156.996 36.804 155.663 38.6196 155.663 41.4346C155.663 44.3162 157.162 46.4482 159.877 46.4482C162.409 46.4482 163.542 44.9991 164.641 42.4173L164.708 42.2507C164.791 42.0842 164.874 41.9009 164.941 41.7177L165.274 40.9682C165.873 39.5857 166.24 38.7529 167.289 38.7529C168.156 38.7529 168.789 39.5524 168.789 40.8016C168.789 42.3007 168.006 43.1336 166.956 43.7832L168.389 46.2483C170.138 45.3655 171.487 43.5499 171.487 40.735C171.453 37.8867 169.971 35.738 167.24 35.738ZM172.886 36.0045H175.501V46.0318H172.886V36.0045ZM177.1 36.0045H180.715C183.68 36.0045 185.945 37.92 185.945 41.0182C185.945 44.0663 183.696 46.0318 180.715 46.0318H177.1V36.0045ZM180.565 43.7665C182.43 43.7665 183.263 42.7171 183.263 41.0182C183.263 39.3525 182.43 38.2698 180.565 38.2698H179.699V43.7665H180.565ZM187.427 36.0045H194.556V38.2532H190.042V39.9521H194.44V42.0842H190.042V43.7832H194.756V46.0318H187.427V36.0045ZM196.155 36.0045H199.77C202.735 36.0045 205 37.92 205 41.0182C205 44.0663 202.751 46.0318 199.77 46.0318H196.155V36.0045ZM199.636 43.7665C201.502 43.7665 202.335 42.7171 202.335 41.0182C202.335 39.3525 201.502 38.2698 199.636 38.2698H198.77V43.7665H199.636Z" fill="#1A1A1A"/>
<path d="M119.951 43.7664C121.469 43.7664 122.7 42.536 122.7 41.0181C122.7 39.5003 121.469 38.2698 119.951 38.2698C118.434 38.2698 117.203 39.5003 117.203 41.0181C117.203 42.536 118.434 43.7664 119.951 43.7664Z" fill="#1A1A1A"/>
<path d="M119.951 45.2322C117.636 45.2322 115.737 43.35 115.737 41.0181C115.737 38.7028 117.619 36.804 119.951 36.804C122.267 36.804 124.166 38.6861 124.166 41.0181C124.166 43.35 122.283 45.2322 119.951 45.2322ZM119.951 37.4869C118.003 37.4869 116.42 39.0693 116.42 41.0181C116.42 42.9669 118.003 44.5493 119.951 44.5493C121.9 44.5493 123.483 42.9669 123.483 41.0181C123.483 39.0693 121.9 37.4869 119.951 37.4869Z" fill="#676767"/>
<path d="M119.951 34.6218C120.973 34.6218 121.8 33.7941 121.8 32.773C121.8 31.7518 120.973 30.9241 119.951 30.9241C118.93 30.9241 118.103 31.7518 118.103 32.773C118.103 33.7941 118.93 34.6218 119.951 34.6218Z" fill="#079247"/>
<path d="M119.951 29.8249C120.973 29.8249 121.8 28.9972 121.8 27.9761C121.8 26.955 120.973 26.1272 119.951 26.1272C118.93 26.1272 118.103 26.955 118.103 27.9761C118.103 28.9972 118.93 29.8249 119.951 29.8249Z" fill="#D9E028"/>
<path d="M119.951 51.1121C120.973 51.1121 121.8 50.2843 121.8 49.2632C121.8 48.2421 120.973 47.4143 119.951 47.4143C118.93 47.4143 118.103 48.2421 118.103 49.2632C118.103 50.2843 118.93 51.1121 119.951 51.1121Z" fill="#EA3981"/>
<path d="M115.821 34.8052C116.336 34.8052 116.754 34.3876 116.754 33.8725C116.754 33.3573 116.336 32.9397 115.821 32.9397C115.306 32.9397 114.888 33.3573 114.888 33.8725C114.888 34.3876 115.306 34.8052 115.821 34.8052Z" fill="#3DB54A"/>
<path d="M124.066 49.0799C124.581 49.0799 124.998 48.6623 124.998 48.1471C124.998 47.632 124.581 47.2144 124.066 47.2144C123.55 47.2144 123.133 47.632 123.133 48.1471C123.133 48.6623 123.55 49.0799 124.066 49.0799Z" fill="#F27BAA"/>
<path d="M127.081 38.7361C128.102 38.7361 128.93 37.9083 128.93 36.8872C128.93 35.8661 128.102 35.0383 127.081 35.0383C126.06 35.0383 125.232 35.8661 125.232 36.8872C125.232 37.9083 126.06 38.7361 127.081 38.7361Z" fill="#2AAAE2"/>
<path d="M112.806 46.9812C113.827 46.9812 114.655 46.1534 114.655 45.1323C114.655 44.1112 113.827 43.2834 112.806 43.2834C111.785 43.2834 110.957 44.1112 110.957 45.1323C110.957 46.1534 111.785 46.9812 112.806 46.9812Z" fill="#ED237A"/>
<path d="M128.18 41.9508C128.695 41.9508 129.113 41.5331 129.113 41.018C129.113 40.5028 128.695 40.0852 128.18 40.0852C127.665 40.0852 127.247 40.5028 127.247 41.018C127.247 41.5331 127.665 41.9508 128.18 41.9508Z" fill="#9D1F60"/>
<path d="M111.707 41.9508C112.222 41.9508 112.639 41.5331 112.639 41.018C112.639 40.5028 112.222 40.0852 111.707 40.0852C111.192 40.0852 110.774 40.5028 110.774 41.018C110.774 41.5331 111.192 41.9508 111.707 41.9508Z" fill="#9D1F60"/>
<path d="M124.066 34.8052C124.581 34.8052 124.998 34.3876 124.998 33.8725C124.998 33.3573 124.581 32.9397 124.066 32.9397C123.55 32.9397 123.133 33.3573 123.133 33.8725C123.133 34.3876 123.55 34.8052 124.066 34.8052Z" fill="#3DB54A"/>
<path d="M115.821 49.0799C116.336 49.0799 116.754 48.6623 116.754 48.1471C116.754 47.632 116.336 47.2144 115.821 47.2144C115.306 47.2144 114.888 47.632 114.888 48.1471C114.888 48.6623 115.306 49.0799 115.821 49.0799Z" fill="#F27BAA"/>
<path d="M127.081 46.9812C128.102 46.9812 128.93 46.1534 128.93 45.1323C128.93 44.1112 128.102 43.2834 127.081 43.2834C126.06 43.2834 125.232 44.1112 125.232 45.1323C125.232 46.1534 126.06 46.9812 127.081 46.9812Z" fill="#ED237A"/>
<path d="M112.806 38.7361C113.827 38.7361 114.655 37.9083 114.655 36.8872C114.655 35.8661 113.827 35.0383 112.806 35.0383C111.785 35.0383 110.957 35.8661 110.957 36.8872C110.957 37.9083 111.785 38.7361 112.806 38.7361Z" fill="#2AAAE2"/>
<path d="M119.951 55.9089C120.973 55.9089 121.8 55.0812 121.8 54.0601C121.8 53.0389 120.973 52.2112 119.951 52.2112C118.93 52.2112 118.103 53.0389 118.103 54.0601C118.103 55.0812 118.93 55.9089 119.951 55.9089Z" fill="#FECF0A"/>
<path d="M108.658 36.3377C109.68 36.3377 110.507 35.5099 110.507 34.4888C110.507 33.4677 109.68 32.6399 108.658 32.6399C107.637 32.6399 106.81 33.4677 106.81 34.4888C106.81 35.5099 107.637 36.3377 108.658 36.3377Z" fill="#64CDF2"/>
<path d="M131.228 49.3796C132.249 49.3796 133.077 48.5519 133.077 47.5308C133.077 46.5096 132.249 45.6819 131.228 45.6819C130.207 45.6819 129.379 46.5096 129.379 47.5308C129.379 48.5519 130.207 49.3796 131.228 49.3796Z" fill="#E571A8"/>
<path d="M131.228 36.3377C132.249 36.3377 133.077 35.5099 133.077 34.4888C133.077 33.4677 132.249 32.6399 131.228 32.6399C130.207 32.6399 129.379 33.4677 129.379 34.4888C129.379 35.5099 130.207 36.3377 131.228 36.3377Z" fill="#64CDF2"/>
<path d="M108.658 49.3796C109.68 49.3796 110.507 48.5519 110.507 47.5308C110.507 46.5096 109.68 45.6819 108.658 45.6819C107.637 45.6819 106.81 46.5096 106.81 47.5308C106.81 48.5519 107.637 49.3796 108.658 49.3796Z" fill="#E571A8"/>
<path d="M113.422 31.5737C114.443 31.5737 115.271 30.746 115.271 29.7248C115.271 28.7037 114.443 27.876 113.422 27.876C112.401 27.876 111.573 28.7037 111.573 29.7248C111.573 30.746 112.401 31.5737 113.422 31.5737Z" fill="#8DC641"/>
<path d="M126.464 54.1602C127.485 54.1602 128.313 53.3324 128.313 52.3113C128.313 51.2902 127.485 50.4624 126.464 50.4624C125.443 50.4624 124.615 51.2902 124.615 52.3113C124.615 53.3324 125.443 54.1602 126.464 54.1602Z" fill="#F79421"/>
<path d="M126.464 31.5737C127.485 31.5737 128.313 30.746 128.313 29.7248C128.313 28.7037 127.485 27.876 126.464 27.876C125.443 27.876 124.615 28.7037 124.615 29.7248C124.615 30.746 125.443 31.5737 126.464 31.5737Z" fill="#8DC641"/>
<path d="M113.422 54.1602C114.443 54.1602 115.271 53.3324 115.271 52.3113C115.271 51.2902 114.443 50.4624 113.422 50.4624C112.401 50.4624 111.573 51.2902 111.573 52.3113C111.573 53.3324 112.401 54.1602 113.422 54.1602Z" fill="#F79421"/>
<path d="M132.977 42.8669C133.998 42.8669 134.826 42.0392 134.826 41.0181C134.826 39.9969 133.998 39.1692 132.977 39.1692C131.956 39.1692 131.128 39.9969 131.128 41.0181C131.128 42.0392 131.956 42.8669 132.977 42.8669Z" fill="#932A8E"/>
<path d="M106.909 42.8669C107.931 42.8669 108.758 42.0392 108.758 41.0181C108.758 39.9969 107.931 39.1692 106.909 39.1692C105.888 39.1692 105.061 39.9969 105.061 41.0181C105.061 42.0392 105.888 42.8669 106.909 42.8669Z" fill="#932A8E"/>
</g>
<defs>
<clipPath id="clip0_401_2073">
<rect width="100" height="30" fill="white" transform="translate(105 26)"/>
</clipPath>
</defs>
</svg>
