<svg width="250" height="79" viewBox="0 0 250 79" fill="none" xmlns="http://www.w3.org/2000/svg">
<g clip-path="url(#clip0_401_1911)">
<path d="M69.5279 62.3687L60.1154 52.9547C59.8181 52.6632 59.4184 52.5 59.0022 52.5C58.5858 52.5 58.1861 52.6632 57.8889 52.9547L48.4763 62.3687C48.2519 62.5827 48.0979 62.86 48.0348 63.1638C47.9718 63.4674 48.0027 63.783 48.1235 64.0687C48.2443 64.3544 48.4492 64.5966 48.7109 64.7629C48.9727 64.9293 49.279 65.012 49.5888 65H68.4154C68.7235 65.0077 69.0269 64.9225 69.2858 64.7554C69.5449 64.5883 69.7476 64.3471 69.8676 64.0632C69.9877 63.7793 70.0195 63.4658 69.9589 63.1636C69.8982 62.8615 69.7481 62.5845 69.5279 62.3687Z" fill="#C3C6CC"/>
<path d="M69.8413 28.5562L66.8929 19.8031C66.7599 19.4072 66.5477 19.0426 66.2695 18.7312L20.3569 64.6421C20.6264 64.8833 20.9783 65.0114 21.3397 64.9999H34.3804C34.7449 65.0017 35.106 64.9316 35.4434 64.7935C35.7807 64.6554 36.0874 64.4521 36.346 64.1952L69.2163 31.3249C69.5735 30.9711 69.8222 30.5223 69.9329 30.0318C70.0436 29.5413 70.0119 29.0293 69.8413 28.5562Z" fill="#E1E3E6"/>
<path d="M65.1967 18.1042L56.4435 15.1574C55.9704 14.9868 55.4584 14.955 54.9679 15.0657C54.4773 15.1765 54.0286 15.4251 53.6748 15.7824L20.8029 48.6526C20.2858 49.1759 19.997 49.8826 19.9997 50.6183V63.6588C19.9883 64.0203 20.1164 64.3722 20.3575 64.6417L66.2701 18.7308C65.9582 18.4516 65.5931 18.2384 65.1967 18.1042Z" fill="#C3C6CC"/>
</g>
<g clip-path="url(#clip1_401_1911)">
<path d="M141.134 51.9077L135.788 46.56C135.619 46.3945 135.392 46.3018 135.155 46.3018C134.919 46.3018 134.692 46.3945 134.523 46.56L129.176 51.9077C129.049 52.0292 128.961 52.1867 128.925 52.3593C128.89 52.5318 128.907 52.711 128.976 52.8734C129.044 53.0356 129.161 53.1732 129.309 53.2677C129.458 53.3622 129.632 53.4092 129.808 53.4023H140.502C140.678 53.4067 140.85 53.3583 140.997 53.2634C141.144 53.1685 141.259 53.0315 141.327 52.8702C141.396 52.7089 141.414 52.5309 141.379 52.3592C141.345 52.1876 141.26 52.0302 141.134 51.9077Z" fill="#C3C6CC"/>
<path d="M141.312 32.7004L139.637 27.7283C139.562 27.5034 139.441 27.2962 139.283 27.1194L113.203 53.199C113.356 53.3359 113.556 53.4087 113.761 53.4022H121.169C121.376 53.4032 121.581 53.3634 121.772 53.2849C121.964 53.2065 122.138 53.091 122.285 52.9451L140.957 34.2732C141.16 34.0722 141.301 33.8173 141.364 33.5387C141.427 33.26 141.409 32.9692 141.312 32.7004Z" fill="#E1E3E6"/>
<path d="M138.674 26.7633L133.702 25.0893C133.433 24.9924 133.142 24.9744 132.863 25.0373C132.585 25.1002 132.33 25.2414 132.129 25.4443L113.456 44.1162C113.162 44.4135 112.998 44.8149 113 45.2328V52.6404C112.993 52.8458 113.066 53.0457 113.203 53.1988L139.284 27.1192C139.107 26.9606 138.899 26.8395 138.674 26.7633Z" fill="#C3C6CC"/>
<path d="M209.99 38.8008C210.007 39.0896 209.938 39.3769 209.793 39.6271C209.665 39.8218 209.485 39.9758 209.273 40.0709C209.039 40.1734 208.789 40.2332 208.535 40.2475C208.258 40.2679 207.983 40.278 207.708 40.2777H206.744V37.3443H207.807C208.063 37.3444 208.319 37.3574 208.574 37.3833C208.819 37.4049 209.058 37.4682 209.282 37.5706C209.49 37.6673 209.667 37.8205 209.793 38.0126C209.935 38.2502 210.004 38.5244 209.99 38.8008ZM210.344 46.3017H213L211.544 44.1555C211.295 43.788 211.043 43.4339 210.787 43.0931C210.531 42.7514 210.317 42.4691 210.148 42.2463C210.025 42.0466 209.864 41.8726 209.675 41.7342C210.394 41.6756 211.065 41.3489 211.554 40.8191C212.058 40.2552 212.322 39.5173 212.291 38.7617C212.301 38.3098 212.207 37.8618 212.016 37.4521C211.825 37.0424 211.542 36.6821 211.19 36.399C210.824 36.1115 210.396 35.9125 209.941 35.8176C209.349 35.6968 208.745 35.6409 208.142 35.6508H204.561V46.3017H206.744V41.8718C206.959 41.8622 207.171 41.9173 207.354 42.0298C207.513 42.136 207.659 42.2615 207.787 42.4034C207.98 42.6402 208.161 42.8866 208.328 43.1419C208.545 43.4632 208.862 43.9454 209.282 44.5886L210.344 46.3017ZM191.845 46.3017H198.691V44.4511H194.069V41.6162H197.53V39.8641H194.049V37.4028H198.219L198.533 35.6508H191.845V46.3017ZM183.258 46.3008L187.407 35.6508H185.106L183.001 41.183C182.9 41.4341 182.812 41.6904 182.736 41.9508C182.651 42.2392 182.576 42.5114 182.51 42.7673C182.445 43.0238 182.392 43.2372 182.352 43.4073L182.294 43.6638L182.215 43.4073C182.175 43.2236 182.123 43.004 182.058 42.7487C181.992 42.4922 181.916 42.2197 181.831 41.9312C181.746 41.6419 181.664 41.386 181.586 41.1635L179.638 35.6508H177.199L181.271 46.3008H183.258ZM165.959 46.3017H172.803V44.4511H168.181V41.6162H171.644V39.8641H168.162V37.4028H172.331L172.646 35.6508H165.959V46.3017ZM159.965 46.3017L160.378 44.4901H156.051V35.6508H153.828V46.3017H159.965Z" fill="#262933"/>
</g>
<defs>
<clipPath id="clip0_401_1911">
<rect width="50" height="50" fill="white" transform="translate(20 15)"/>
</clipPath>
<clipPath id="clip1_401_1911">
<rect width="100" height="28.4024" fill="white" transform="translate(113 25)"/>
</clipPath>
</defs>
</svg>
