<svg width="250" height="82" viewBox="0 0 250 82" fill="none" xmlns="http://www.w3.org/2000/svg">
<g clipPath="url(#clip0_401_2134)">
<path fillRule="evenodd" clipRule="evenodd" d="M33.1314 52.3591C34.5887 54.3328 37.6499 54.0293 38.6837 51.8086L43.3746 41.7322L49.73 55.5067C50.9583 58.1691 54.8489 57.9436 55.7554 55.1575L61.8004 36.5768L63.8789 40.6096C64.6919 42.1872 66.6419 42.813 68.2343 42.0074C69.8265 41.2018 70.4583 39.2698 69.6452 37.6922L64.005 26.7491C62.6924 24.2022 58.9263 24.5019 58.0408 27.2237L52.1515 45.3256L46.3319 32.7123C45.1813 30.2184 41.6073 30.2124 40.4481 32.7025L35.1086 44.1724L31.9984 39.9601C30.7369 38.2516 28.1803 38.2011 26.8511 39.8585L20.7028 47.5246C19.5906 48.9116 19.8237 50.9292 21.2234 52.0312C22.6232 53.1333 24.6597 52.9025 25.7719 51.5155L29.2793 47.1421L33.1314 52.3591Z" fill="#11141D"/>
</g>
<g clipPath="url(#clip1_401_2134)">
<path d="M124.006 45.4862V40.7973C124.006 40.0796 124.18 39.5412 124.528 39.1823C124.876 38.8234 125.34 38.644 125.919 38.644C126.441 38.644 126.858 38.7973 127.171 39.1042C127.484 39.411 127.641 39.8538 127.641 40.4327V45.4862H129.884V40.1548C129.884 39.0318 129.574 38.1519 128.954 37.5152C128.334 36.8784 127.548 36.56 126.598 36.56C125.415 36.56 124.551 36.9652 124.006 37.7757V33.33H121.763V45.4862H124.006ZM131.919 48.9594C133.032 49.0172 133.963 48.7654 134.711 48.204C135.458 47.6424 136.058 46.7366 136.511 45.4862L139.676 36.8032H137.276L135.345 42.6381L133.084 36.8032H130.632L134.198 45.2083C133.989 45.7988 133.708 46.2272 133.354 46.4934C133 46.7597 132.522 46.8871 131.919 46.8754V48.9594ZM142.98 48.9594V44.4616C143.641 45.3067 144.58 45.7293 145.798 45.7293C146.968 45.7293 147.968 45.2865 148.798 44.4008C149.627 43.5151 150.041 42.4297 150.041 41.1447C150.041 39.8596 149.627 38.7742 148.798 37.8885C147.968 37.0029 146.968 36.56 145.798 36.56C144.58 36.56 143.641 36.9826 142.98 37.8278V36.8032H140.737V48.9594H142.98ZM145.38 43.5933C144.684 43.5933 144.111 43.3675 143.658 42.916C143.206 42.4529 142.98 41.8624 142.98 41.1447C142.98 40.4269 143.206 39.8393 143.658 39.382C144.111 38.9247 144.684 38.6961 145.38 38.6961C146.076 38.6961 146.653 38.9247 147.111 39.382C147.568 39.8393 147.798 40.4269 147.798 41.1447C147.798 41.8624 147.568 42.45 147.111 42.9073C146.653 43.3646 146.076 43.5933 145.38 43.5933ZM155.937 45.7293C157.606 45.7293 158.87 45.1099 159.728 43.8711L157.919 42.8291C157.479 43.408 156.829 43.6975 155.971 43.6975C154.638 43.6975 153.821 43.1534 153.519 42.0651H160.076C160.134 41.7409 160.163 41.4341 160.163 41.1447C160.163 39.848 159.748 38.7597 158.919 37.8799C158.09 37 157.038 36.56 155.763 36.56C154.418 36.56 153.316 36.9971 152.458 37.8712C151.6 38.7453 151.171 39.8364 151.171 41.1447C151.171 42.4645 151.606 43.5585 152.476 44.4268C153.345 45.2952 154.499 45.7293 155.937 45.7293ZM157.919 40.3285H153.484C153.612 39.7728 153.873 39.3415 154.267 39.0347C154.661 38.7279 155.16 38.5745 155.763 38.5745C156.273 38.5745 156.728 38.7192 157.128 39.0086C157.528 39.2981 157.792 39.738 157.919 40.3285ZM163.971 45.4862V41.3357C163.971 40.5021 164.241 39.9059 164.78 39.547C165.319 39.1881 165.931 39.0492 166.615 39.1302V36.6295C166.024 36.6295 165.487 36.7684 165.006 37.0463C164.525 37.3241 164.18 37.7409 163.971 38.2966V36.8032H161.728V45.4862H163.971ZM170.163 48.9594V44.4616C170.824 45.3067 171.763 45.7293 172.98 45.7293C174.151 45.7293 175.151 45.2865 175.98 44.4008C176.809 43.5151 177.224 42.4297 177.224 41.1447C177.224 39.8596 176.809 38.7742 175.98 37.8885C175.151 37.0029 174.151 36.56 172.98 36.56C171.763 36.56 170.824 36.9826 170.163 37.8278V36.8032H167.919V48.9594H170.163ZM172.563 43.5933C171.867 43.5933 171.293 43.3675 170.841 42.916C170.389 42.4529 170.163 41.8624 170.163 41.1447C170.163 40.4269 170.389 39.8393 170.841 39.382C171.293 38.9247 171.867 38.6961 172.563 38.6961C173.258 38.6961 173.835 38.9247 174.293 39.382C174.751 39.8393 174.98 40.4269 174.98 41.1447C174.98 41.8624 174.751 42.45 174.293 42.9073C173.835 43.3646 173.258 43.5933 172.563 43.5933ZM179.919 35.7612C180.302 35.7612 180.629 35.6252 180.902 35.3531C181.174 35.081 181.311 34.7598 181.311 34.3893C181.311 34.0188 181.174 33.6946 180.902 33.4168C180.629 33.1389 180.302 33 179.919 33C179.548 33 179.227 33.1389 178.954 33.4168C178.681 33.6946 178.545 34.0188 178.545 34.3893C178.545 34.7598 178.681 35.081 178.954 35.3531C179.227 35.6252 179.548 35.7612 179.919 35.7612ZM181.05 45.4862V36.8032H178.806V45.4862H181.05ZM185.345 45.4862V40.7973C185.345 40.0796 185.519 39.5412 185.867 39.1823C186.215 38.8234 186.679 38.644 187.258 38.644C187.78 38.644 188.198 38.7973 188.51 39.1042C188.824 39.411 188.98 39.8538 188.98 40.4327V45.4862H191.224V40.1548C191.224 39.0318 190.914 38.1519 190.293 37.5152C189.673 36.8784 188.888 36.56 187.937 36.56C186.754 36.56 185.89 36.9652 185.345 37.7757V36.8032H183.102V45.4862H185.345ZM197.45 49.2025C198.702 49.2025 199.771 48.8494 200.658 48.1432C201.546 47.437 201.989 46.4123 201.989 45.0694V36.8032H199.797V37.8799C199.137 37 198.209 36.56 197.015 36.56C195.797 36.56 194.771 36.9942 193.937 37.8625C193.102 38.7308 192.684 39.7785 192.684 41.0057C192.684 42.2445 193.099 43.2952 193.928 44.1577C194.757 45.0202 195.786 45.4515 197.015 45.4515C198.209 45.4515 199.137 45.0115 199.797 44.1316V45.0694C199.797 45.7524 199.595 46.2792 199.189 46.6497C198.783 47.0202 198.227 47.2054 197.519 47.2054C196.441 47.2054 195.682 46.8002 195.241 45.9897L193.328 47.0839C193.71 47.7784 194.258 48.3053 194.971 48.6641C195.684 49.023 196.51 49.2025 197.45 49.2025ZM197.363 43.3849C196.655 43.3849 196.07 43.1649 195.606 42.725C195.154 42.2734 194.928 41.7003 194.928 41.0057C194.928 40.3227 195.157 39.7583 195.615 39.3125C196.073 38.8668 196.655 38.644 197.363 38.644C198.07 38.644 198.652 38.8668 199.11 39.3125C199.569 39.7583 199.797 40.3227 199.797 41.0057C199.797 41.7003 199.569 42.2705 199.11 42.7163C198.652 43.162 198.07 43.3849 197.363 43.3849Z" fill="#11141D"/>
<path fillRule="evenodd" clipRule="evenodd" d="M106.308 44.7252C106.786 45.3717 107.79 45.2723 108.129 44.5448L109.668 41.2439L111.753 45.7563C112.156 46.6284 113.433 46.5546 113.73 45.6419L115.713 39.5551L116.395 40.8762C116.662 41.393 117.301 41.598 117.824 41.3341C118.346 41.0702 118.554 40.4373 118.287 39.9205L116.436 36.3357C116.006 35.5014 114.77 35.5995 114.48 36.4912L112.548 42.4211L110.639 38.2891C110.261 37.4722 109.089 37.4702 108.708 38.2859L106.957 42.0433L105.936 40.6634C105.522 40.1037 104.684 40.0872 104.248 40.6301L102.231 43.1415C101.866 43.5958 101.942 44.2567 102.401 44.6178C102.861 44.9788 103.529 44.9032 103.894 44.4488L105.044 43.0161L106.308 44.7252Z" fill="#11141D"/>
</g>
<defs>
<clipPath id="clip0_401_2134">
<rect width="50" height="32.5301" fill="white" transform="translate(20 25)"/>
</clipPath>
<clipPath id="clip1_401_2134">
<rect width="100" height="16.3793" fill="white" transform="translate(102 33)"/>
</clipPath>
</defs>
</svg>
