<svg width="250" height="82" viewBox="0 0 250 82" fill="none" xmlns="http://www.w3.org/2000/svg">
<g clipPath="url(#clip0_401_576)">
<path d="M20.0103 38.0307C20.0103 19.2852 26.2587 13.0369 45.0041 13.0369C63.7493 13.0369 69.9978 19.2852 69.9978 38.0307C69.9978 56.7759 63.7493 63.0243 45.0041 63.0243C26.2587 63.0243 20.0103 56.7759 20.0103 38.0307Z" fill="#FFC158"/>
<path fillRule="evenodd" clipRule="evenodd" d="M45.2938 25.2033L35.5106 40.1643C35.2003 40.6389 35.5408 41.2684 36.1078 41.2684H41.1468H43.7452H45.0769L43.4154 50.3386C43.275 51.1045 44.2883 51.5094 44.7145 50.8577L54.4976 35.8966C54.808 35.422 54.4675 34.7925 53.9004 34.7925H47.8654H46.2631H44.9314L46.5929 25.7224C46.7332 24.9564 45.72 24.5515 45.2938 25.2033Z" fill="white"/>
</g>
<g clipPath="url(#clip1_401_576)">
<path d="M96.0332 38.1055C96.0332 30.5392 98.5553 28.0171 106.122 28.0171C113.688 28.0171 116.21 30.5392 116.21 38.1055C116.21 45.6717 113.688 48.1938 106.122 48.1938C98.5553 48.1938 96.0332 45.6717 96.0332 38.1055Z" fill="#FFC158"/>
<path fillRule="evenodd" clipRule="evenodd" d="M106.244 32.7739L102.097 39.1169C101.965 39.3182 102.109 39.5851 102.35 39.5851H104.486H105.588H106.153L105.448 43.4305C105.389 43.7552 105.818 43.9269 105.999 43.6506L110.147 37.3076C110.278 37.1064 110.134 36.8395 109.893 36.8395H107.335H106.655H106.091L106.795 32.994C106.855 32.6692 106.425 32.4976 106.244 32.7739Z" fill="#FFFEFC"/>
<path d="M128.347 32.6357C122.759 32.6357 121.362 33.8391 120.933 36.2244C120.524 38.6097 121.556 39.5982 126.327 39.5982C129.121 39.5982 129.916 39.5982 129.787 40.2859C129.658 40.995 128.863 40.995 126.864 40.995C124.866 40.995 124.07 40.995 124.221 40.1999H120.051C119.557 42.9935 120.804 43.7886 126.392 43.7886C131.98 43.7886 133.506 42.9935 134 40.1999C134.43 37.8146 133.205 36.8046 128.412 36.8046C125.618 36.8046 124.823 36.7831 124.952 36.117C125.081 35.4079 125.876 35.4079 127.875 35.4079C129.465 35.4079 130.669 35.4079 130.518 36.203H134.494C134.924 33.7532 133.935 32.6357 128.347 32.6357Z" fill="#0F0F0F"/>
<path d="M146.767 33.0225L145.848 38.2013C145.497 40.1998 143.921 40.9949 142.301 40.9949C140.681 40.9949 139.389 40.1998 139.761 38.2013L140.681 33.0225H136.214L135.273 38.2013C134.55 42.1768 136.696 43.7885 140.352 43.7885C143.198 43.7885 145.038 42.5851 145.038 42.5851L145.3 43.3802H149.351L151.212 33.0225H146.767Z" fill="#0F0F0F"/>
<path d="M161.279 32.6357C158.432 32.6357 157.009 33.8391 157.009 33.8391L157.163 33.044H152.696L149.981 48.1938H154.448L155.455 42.6067C155.455 42.6067 156.462 43.8101 159.308 43.8101C162.964 43.8101 166.008 42.6067 166.796 38.2229C167.562 33.8176 164.935 32.6357 161.279 32.6357ZM162.308 38.2014C161.957 40.1999 160.381 40.995 158.761 40.995C157.141 40.995 155.849 40.1999 156.221 38.2014C156.571 36.203 158.148 35.4079 159.768 35.4079C161.388 35.4079 162.658 36.203 162.308 38.2014Z" fill="#0F0F0F"/>
<path d="M176.093 32.6357C171.232 32.6357 168.321 34.14 167.598 38.1155C166.876 42.0909 169.24 43.7886 174.101 43.7886C177.517 43.7886 179.377 43.1869 181.129 41.6397L178.524 39.985C177.954 40.3288 177.341 40.995 174.604 40.995C172.765 40.995 171.933 40.3074 171.977 38.9106H182.443C182.508 38.6527 182.574 38.3948 182.618 38.1155C183.318 34.1185 180.954 32.6357 176.093 32.6357ZM172.415 36.9121C172.94 35.7947 173.751 35.4079 175.59 35.4079C177.407 35.4079 178.107 35.7731 178.217 36.9121H172.415Z" fill="#0F0F0F"/>
<path d="M188.911 33.8176L189.065 33.0225H184.598L182.737 43.3803H187.204C187.204 43.3803 187.488 41.7901 187.992 38.9965C188.495 36.203 190.597 35.8161 192.217 35.8161C193.816 35.8161 194.341 35.988 195.392 36.2244L195.961 33.044C195.392 32.8721 194.034 32.6357 192.786 32.6357C189.94 32.6357 188.911 33.8176 188.911 33.8176Z" fill="#0F0F0F"/>
</g>
<defs>
<clipPath id="clip0_401_576">
<rect width="50" height="50.0612" fill="white" transform="translate(20 13)"/>
</clipPath>
<clipPath id="clip1_401_576">
<rect width="100" height="20.2156" fill="white" transform="translate(96 28)"/>
</clipPath>
</defs>
</svg>
