<svg width="250" height="82" viewBox="0 0 250 82" fill="none" xmlns="http://www.w3.org/2000/svg">
<g clipPath="url(#clip0_401_1391)">
<path d="M178.992 45.0848C178.593 45.6582 178.021 46.0886 177.359 46.3131C176.697 46.5376 175.981 46.5444 175.316 46.3323C174.65 46.1204 174.069 45.7008 173.659 45.1351C173.249 44.5693 173.031 43.8872 173.037 43.1886C173.043 42.4898 173.272 41.8114 173.691 41.2524C174.11 40.6936 174.698 40.2836 175.367 40.0825C176.036 39.8814 176.752 39.8999 177.41 40.1352C178.068 40.3705 178.633 40.8103 179.023 41.3902L181.44 39.9629C180.736 38.8524 179.691 38.0002 178.462 37.5344C177.232 37.0685 175.885 37.0141 174.622 37.3794C173.358 37.7446 172.248 38.5097 171.457 39.5599C170.666 40.61 170.237 41.8885 170.234 43.2033C170.232 44.518 170.656 45.7982 171.443 46.8514C172.229 47.9048 173.337 48.6742 174.599 49.0445C175.86 49.4147 177.208 49.3656 178.439 48.9046C179.67 48.4436 180.719 47.5956 181.427 46.4879L178.993 45.0848H178.992ZM185.653 32H182.848V48.8227H185.652V43.2152C185.652 42.3476 185.996 41.5155 186.61 40.902C187.223 40.2886 188.055 39.9439 188.923 39.9439C189.79 39.9439 190.622 40.2886 191.236 40.902C191.849 41.5155 192.194 42.3476 192.194 43.2152V48.8227H194.998V42.6697C194.997 41.5874 194.679 40.5291 194.083 39.6258C193.487 38.7225 192.639 38.0139 191.644 37.5879C190.649 37.1619 189.551 37.0372 188.486 37.2292C187.421 37.4212 186.436 37.9216 185.652 38.6682V32H185.653ZM166.027 32H163.223V45.0841C163.223 45.8916 163.456 46.682 163.893 47.361C164.33 48.04 164.953 48.5787 165.688 48.913C166.423 49.2471 167.239 49.3626 168.038 49.2456C168.837 49.1286 169.586 48.784 170.194 48.253L168.839 45.9545C168.708 46.1203 168.541 46.2542 168.351 46.3461C168.161 46.4381 167.952 46.4858 167.741 46.4856H167.429C167.057 46.4854 166.701 46.3377 166.438 46.0749C166.175 45.8121 166.027 45.4558 166.027 45.0841V40.4114H168.83V37.6076H166.027V32ZM159.955 32C159.541 32 159.145 32.1641 158.853 32.4562C158.561 32.7483 158.397 33.1445 158.397 33.5576C158.397 33.9707 158.561 34.3668 158.853 34.6589C159.145 34.9511 159.541 35.1152 159.955 35.1152C160.368 35.1152 160.764 34.9511 161.056 34.6589C161.348 34.3668 161.512 33.9707 161.512 33.5576C161.512 33.1445 161.348 32.7483 161.056 32.4562C160.764 32.1641 160.368 32 159.955 32ZM161.356 48.8227V37.6076H158.553V48.8227H161.356Z" fill="black"/>
<path fillRule="evenodd" clipRule="evenodd" d="M145 48.8227H147.803V45.5515H150.373C151.263 45.5515 152.144 45.3763 152.966 45.0358C153.789 44.6952 154.535 44.1961 155.165 43.567C155.794 42.9377 156.293 42.1908 156.633 41.3687C156.974 40.5467 157.149 39.6655 157.149 38.7758C157.149 37.886 156.974 37.0049 156.633 36.1828C156.293 35.3607 155.794 34.6138 155.165 33.9846C154.535 33.3554 153.789 32.8563 152.966 32.5158C152.144 32.1753 151.263 32 150.373 32H145V48.8227ZM147.803 34.803H150.373C151.427 34.803 152.437 35.2215 153.182 35.9664C153.927 36.7113 154.345 37.7216 154.345 38.775C154.345 39.8284 153.927 40.8387 153.182 41.5836C152.437 42.3285 151.427 42.747 150.373 42.747H147.804V34.803H147.803Z" fill="black"/>
</g>
<g clipPath="url(#clip1_401_1391)">
<path d="M87.9849 50.1697C87.1862 51.3164 86.0415 52.1773 84.7182 52.6262C83.3949 53.0751 81.9626 53.0888 80.6311 52.6647C79.2996 52.2408 78.1388 51.4017 77.3188 50.2702C76.4986 49.1386 76.0624 47.7744 76.0739 46.3771C76.0853 44.9797 76.544 43.6227 77.3824 42.5048C78.2209 41.3871 79.3953 40.5671 80.7336 40.165C82.0718 39.7629 83.5038 39.7998 84.8196 40.2705C86.1353 40.7411 87.2658 41.6206 88.0455 42.7803L92.8803 39.9258C91.4724 37.7048 89.3821 36.0004 86.923 35.0687C84.4641 34.137 81.7692 34.0283 79.243 34.7587C76.717 35.4892 74.4961 37.0195 72.9138 39.1197C71.3315 41.22 70.4733 43.777 70.4682 46.4065C70.463 49.0361 71.3111 51.5964 72.885 53.7029C74.459 55.8095 76.6738 57.3485 79.1971 58.0889C81.7203 58.8294 84.4156 58.7312 86.8782 57.8092C89.3409 56.8873 91.4379 55.1912 92.8546 52.9758L87.9864 50.1697H87.9849ZM101.306 24H95.697V57.6455H101.303V46.4303C101.303 44.6952 101.992 43.0311 103.219 41.8041C104.446 40.5771 106.11 39.8879 107.845 39.8879C109.581 39.8879 111.245 40.5771 112.472 41.8041C113.699 43.0311 114.388 44.6952 114.388 46.4303V57.6455H119.995V45.3394C119.995 43.1748 119.359 41.0582 118.167 39.2515C116.974 37.4449 115.278 36.0278 113.288 35.1758C111.299 34.3238 109.103 34.0744 106.972 34.4585C104.842 34.8425 102.872 35.8431 101.305 37.3364V24H101.306ZM62.0546 24H56.447V50.1682C56.4467 51.7832 56.9115 53.3641 57.7856 54.722C58.6599 56.08 59.9065 57.1574 61.3767 57.8259C62.847 58.4942 64.4785 58.7252 66.0764 58.4912C67.6742 58.2571 69.1711 57.568 70.3879 56.5061L67.6788 51.9091C67.4165 52.2406 67.0826 52.5083 66.7021 52.6923C66.3217 52.8762 65.9044 52.9715 65.4818 52.9712H64.8576C64.1143 52.9708 63.4015 52.6753 62.8759 52.1498C62.3503 51.6242 62.0549 50.9115 62.0546 50.1682V40.8227H67.6606V35.2152H62.0546V24ZM49.9091 24C49.0829 24 48.2905 24.3282 47.7064 24.9124C47.1221 25.4966 46.7939 26.289 46.7939 27.1152C46.7939 27.9413 47.1221 28.7337 47.7064 29.3179C48.2905 29.9021 49.0829 30.2303 49.9091 30.2303C50.7353 30.2303 51.5276 29.9021 52.1118 29.3179C52.6961 28.7337 53.0243 27.9413 53.0243 27.1152C53.0243 26.289 52.6961 25.4966 52.1118 24.9124C51.5276 24.3282 50.7353 24 49.9091 24ZM52.7121 57.6455V35.2152H47.1061V57.6455H52.7121Z" fill="black"/>
<path fillRule="evenodd" clipRule="evenodd" d="M20 57.6455H25.6061V51.103H30.747C32.5266 51.103 34.2888 50.7526 35.9329 50.0715C37.5771 49.3905 39.0709 48.3923 40.3294 47.1339C41.5877 45.8755 42.5859 44.3817 43.267 42.7374C43.948 41.0933 44.2985 39.3311 44.2985 37.5515C44.2985 35.7719 43.948 34.0097 43.267 32.3656C42.5859 30.7214 41.5877 29.2275 40.3294 27.9692C39.0709 26.7108 37.5771 25.7126 35.9329 25.0315C34.2888 24.3505 32.5266 24 30.747 24H20V57.6455ZM25.6061 29.6061H30.747C32.8538 29.6061 34.8744 30.443 36.3642 31.9328C37.8539 33.4226 38.6909 35.4431 38.6909 37.55C38.6909 39.6568 37.8539 41.6774 36.3642 43.1673C34.8744 44.657 32.8538 45.4939 30.747 45.4939H25.6076V29.6061H25.6061Z" fill="black"/>
</g>
<defs>
<clipPath id="clip0_401_1391">
<rect width="50" height="17.4242" fill="white" transform="translate(145 32)"/>
</clipPath>
<clipPath id="clip1_401_1391">
<rect width="100" height="34.8485" fill="white" transform="translate(20 24)"/>
</clipPath>
</defs>
</svg>
