<svg width="250" height="82" viewBox="0 0 250 82" fill="none" xmlns="http://www.w3.org/2000/svg">
<g clipPath="url(#clip0_401_62)">
<path d="M51.2498 41.0109C51.2507 42.8138 50.9254 44.602 50.2898 46.2891C48.6021 46.9246 46.8136 47.2503 45.0102 47.2506H44.9891C43.132 47.2482 41.3527 46.9088 39.7109 46.2898C39.0749 44.6025 38.7494 42.8141 38.75 41.0109V40.9891C38.7491 39.1865 39.074 37.3987 39.709 35.7117C41.3966 35.075 43.1855 34.7492 44.9893 34.75H45.0104C46.8139 34.7491 48.6026 35.0749 50.29 35.7115C50.9257 37.3983 51.2509 39.1863 51.25 40.9889V41.0107L51.2498 41.0109ZM69.6527 36.8334H55.0598L65.3779 26.5145C64.5681 25.3768 63.6647 24.3087 62.6772 23.3213V23.3205C61.6896 22.3342 60.6218 21.4316 59.4848 20.6221L49.1658 30.941V16.348C47.7934 16.1172 46.4042 16.0008 45.0125 16L44.9867 16C43.5711 16.0008 42.1846 16.1211 40.8334 16.348V30.941L30.5145 20.6221C29.3772 21.4314 28.3099 22.3346 27.3236 23.3223L27.3182 23.3262C26.3323 24.3123 25.4302 25.3788 24.6211 26.5145L34.9408 36.8334H20.348C20.348 36.8334 20 39.5742 20 40.9914V41.0086C20 42.4258 20.1201 43.8146 20.348 45.1666H34.941L24.6213 55.4855C26.2447 57.7637 28.2363 59.7553 30.5145 61.3787L40.8334 51.059V65.6527C42.2043 65.8825 43.5918 65.9986 44.9818 66H45.0172C46.4072 65.9987 47.7947 65.8826 49.1656 65.6527V51.059L59.4855 61.3787C60.6223 60.5689 61.6899 59.6661 62.6772 58.6795L62.6795 58.6772C63.6656 57.6897 64.5682 56.6222 65.3779 55.4855L55.0582 45.1666H69.6527C69.8799 43.817 69.9984 42.4322 70 41.0182V40.9818C69.9984 39.5678 69.8799 38.183 69.6527 36.8334Z" fill="#FF4A00"/>
</g>
<g clipPath="url(#clip1_401_62)">
<path fillRule="evenodd" clipRule="evenodd" d="M179.09 24.2189H175.429L178.018 21.6453C177.814 21.3612 177.587 21.0945 177.34 20.8487C177.093 20.6028 176.825 20.3777 176.539 20.1753L173.95 22.7488V19.1094C173.612 19.053 173.263 19.0231 172.909 19.0225H172.902C172.547 19.0231 172.199 19.053 171.861 19.1094V22.7488L169.272 20.1753C168.987 20.3777 168.719 20.6028 168.472 20.8487L168.47 20.85C168.223 21.0952 167.997 21.3612 167.794 21.6453L170.382 24.2189H166.722C166.722 24.2189 166.634 24.902 166.634 25.2555V25.2601C166.634 25.613 166.665 25.9601 166.722 26.2975H170.382L167.794 28.8704C168.201 29.4386 168.701 29.9362 169.272 30.3404L171.861 27.7668V31.4062C172.199 31.4627 172.547 31.4926 172.901 31.4932H172.91C173.264 31.4926 173.613 31.4627 173.95 31.4062V27.7668L176.54 30.3404C176.825 30.1386 177.093 29.9129 177.34 29.6669H177.34C177.587 29.4211 177.814 29.1545 178.018 28.8704L175.429 26.2975H179.09C179.146 25.9607 179.176 25.6149 179.176 25.262V25.2536C179.176 24.9007 179.146 24.5555 179.09 24.2189ZM174.233 26.5771C174.388 26.1671 174.473 25.724 174.473 25.2608V25.2549C174.473 24.7917 174.388 24.348 174.233 23.9386C173.821 23.7842 173.375 23.6992 172.909 23.6992H172.902C172.437 23.6992 171.99 23.7842 171.578 23.9386C171.423 24.348 171.338 24.7917 171.338 25.2549V25.2608C171.338 25.724 171.423 26.1676 171.579 26.5771C171.99 26.7314 172.437 26.8164 172.902 26.8164H172.909C173.375 26.8164 173.821 26.7314 174.233 26.5771Z" fill="#FF4600"/>
<path fillRule="evenodd" clipRule="evenodd" d="M185.213 50.7247C184.168 49.7483 183.62 48.2082 183.57 46.1044H196.754C196.779 45.8293 196.805 45.4984 196.83 45.1092C196.855 44.7212 196.868 44.3521 196.868 44.0011C196.868 42.7238 196.691 41.5411 196.339 40.4519C195.986 39.3626 195.47 38.4239 194.791 37.635C194.11 36.8462 193.266 36.2266 192.259 35.7758C191.252 35.3249 190.08 35.0991 188.746 35.0991C187.184 35.0991 185.83 35.3684 184.684 35.9068C183.538 36.4459 182.587 37.1718 181.832 38.0853C181.077 39 180.516 40.0763 180.151 41.3153C179.786 42.5558 179.603 43.889 179.603 45.3155C179.603 46.7687 179.792 48.1018 180.17 49.3163C180.548 50.5307 181.146 51.583 181.965 52.4717C182.782 53.3605 183.822 54.0488 185.081 54.5373C186.34 55.0259 187.851 55.2697 189.615 55.2697C190.824 55.2697 191.925 55.1815 192.92 55.007C193.914 54.8312 194.828 54.5691 195.659 54.2181C195.633 53.692 195.559 53.1607 195.433 52.6216C195.306 52.0831 195.143 51.6265 194.941 51.2508C193.329 51.8769 191.63 52.1902 189.841 52.1902C187.801 52.1902 186.259 51.7011 185.213 50.7247ZM193.166 43.3258C193.166 42.6245 193.071 41.955 192.882 41.3153C192.693 40.677 192.416 40.1204 192.051 39.6442C191.686 39.1687 191.22 38.7865 190.653 38.4992C190.087 38.2111 189.413 38.0665 188.632 38.0665C187.095 38.0665 185.919 38.5303 185.099 39.4567C184.281 40.3831 183.784 41.6728 183.607 43.3258H193.166Z" fill="#FF4600"/>
<path fillRule="evenodd" clipRule="evenodd" d="M149.911 35.5498C150.162 35.5005 150.42 35.4629 150.684 35.4376C150.949 35.413 151.22 35.4 151.497 35.4C151.748 35.4 152.013 35.413 152.29 35.4376C152.567 35.4629 152.832 35.5005 153.084 35.5498C153.108 35.6011 153.14 35.7568 153.178 36.0202C153.216 36.2829 153.253 36.5645 153.291 36.8648C153.329 37.1652 153.367 37.4539 153.405 37.729C153.443 38.0047 153.461 38.1798 153.461 38.2551C153.713 37.8541 154.015 37.4662 154.368 37.0906C154.72 36.715 155.143 36.3764 155.634 36.0766C156.124 35.7756 156.678 35.5381 157.296 35.363C157.912 35.1878 158.599 35.0996 159.355 35.0996C160.487 35.0996 161.539 35.2878 162.51 35.6633C163.478 36.039 164.309 36.6209 165.002 37.4091C165.694 38.1986 166.236 39.2003 166.627 40.4141C167.017 41.6298 167.212 43.0623 167.212 44.7152C167.212 48.0205 166.311 50.6064 164.511 52.4716C162.71 54.3374 160.161 55.2703 156.861 55.2703C156.307 55.2703 155.741 55.2326 155.161 55.1573C154.581 55.0822 154.078 54.9816 153.65 54.857V63.6838C153.348 63.7331 153.027 63.7707 152.687 63.796C152.347 63.8206 152.038 63.8336 151.761 63.8336C151.484 63.8336 151.176 63.8206 150.836 63.796C150.496 63.7707 150.187 63.7331 149.911 63.6838V35.5498ZM155.123 52.0395C154.62 51.9649 154.128 51.8397 153.65 51.6639V43.8518C153.65 42.8994 153.788 42.0807 154.066 41.3911C154.343 40.7028 154.708 40.1325 155.161 39.6817C155.615 39.2308 156.13 38.8928 156.71 38.6683C157.289 38.4426 157.894 38.3297 158.523 38.3297C160.21 38.3297 161.426 38.9187 162.169 40.0949C162.911 41.2724 163.283 42.8625 163.283 44.8657C163.283 46.1178 163.126 47.2006 162.811 48.114C162.496 49.0287 162.068 49.7858 161.526 50.3865C160.985 50.9879 160.337 51.4336 159.581 51.7204C158.826 52.0084 157.995 52.1524 157.088 52.1524C156.282 52.1524 155.627 52.1141 155.123 52.0395Z" fill="#FF4600"/>
<path fillRule="evenodd" clipRule="evenodd" d="M142.166 42.1236C142.166 40.6457 141.788 39.6194 141.032 39.0433C140.277 38.4679 139.181 38.1799 137.746 38.1799C136.864 38.1799 136.04 38.2492 135.272 38.3861C134.503 38.5243 133.753 38.7053 133.024 38.9304C132.545 38.1039 132.306 37.1159 132.306 35.9631C133.161 35.688 134.106 35.4752 135.139 35.3247C136.171 35.1742 137.166 35.0996 138.124 35.0996C140.642 35.0996 142.556 35.6699 143.866 36.8084C145.175 37.9483 145.83 39.7699 145.83 42.2733V54.3309C144.949 54.5313 143.879 54.7377 142.619 54.9504C141.359 55.1626 140.075 55.2696 138.766 55.2696C137.531 55.2696 136.417 55.1573 135.422 54.9316C134.427 54.7058 133.584 54.3438 132.891 53.8417C132.198 53.3422 131.663 52.7025 131.286 51.9266C130.908 51.1507 130.719 50.212 130.719 49.1092C130.719 48.0336 130.939 47.0877 131.38 46.2736C131.821 45.4606 132.419 44.784 133.174 44.2456C133.93 43.7077 134.799 43.3062 135.781 43.0441C136.764 42.7807 137.796 42.649 138.879 42.649C139.685 42.649 140.346 42.6685 140.862 42.7054C141.378 42.7437 141.813 42.7872 142.166 42.8371V42.1236ZM140.73 45.617C141.31 45.6676 141.788 45.7169 142.166 45.7669V51.8897C141.687 52.0149 141.14 52.1083 140.522 52.1705C139.906 52.2342 139.307 52.2653 138.728 52.2653C138.275 52.2653 137.796 52.2406 137.292 52.19C136.789 52.1394 136.329 52.0019 135.914 51.7768C135.498 51.551 135.152 51.226 134.875 50.7998C134.597 50.3749 134.459 49.7858 134.459 49.0345C134.459 47.8584 134.868 46.9819 135.687 46.4052C136.505 45.8298 137.695 45.5411 139.257 45.5411C139.66 45.5411 140.151 45.567 140.73 45.617Z" fill="#FF4600"/>
<path d="M112.737 54.2934L122.937 38.5173H113.946C113.87 38.0664 113.832 37.5662 113.832 37.0148C113.832 36.4893 113.87 36.0002 113.946 35.5493H128.491L128.679 36.0384L118.404 51.8515H128.037C128.112 52.3529 128.151 52.8655 128.151 53.3909C128.151 53.8931 128.112 54.368 128.037 54.8195H112.926L112.737 54.2934Z" fill="#FF4600"/>
<path d="M171.859 38.4796H169.403C169.353 38.2792 169.315 38.0476 169.29 37.7849C169.265 37.5221 169.252 37.2652 169.252 37.0148C169.252 36.765 169.265 36.5075 169.29 36.2448C169.315 35.982 169.353 35.7504 169.403 35.5493H175.524V54.8195C175.246 54.8688 174.938 54.9058 174.598 54.931C174.258 54.9557 173.949 54.9687 173.672 54.9687C173.421 54.9687 173.124 54.9557 172.785 54.931C172.444 54.9058 172.136 54.8688 171.859 54.8195V38.4796Z" fill="#FF4600"/>
<path d="M201.781 35.4376C201.529 35.4629 201.265 35.5005 200.988 35.5498V54.8193C201.29 54.8686 201.611 54.9063 201.952 54.9316C202.292 54.9562 202.599 54.9692 202.878 54.9692C203.153 54.9692 203.463 54.9562 203.802 54.9316C204.142 54.9063 204.451 54.8686 204.728 54.8193V45.2407C204.728 43.9393 204.873 42.8747 205.162 42.0489C205.452 41.2224 205.842 40.571 206.333 40.0949C206.825 39.6194 207.378 39.2878 207.996 39.0997C208.613 38.9122 209.261 38.8181 209.942 38.8181H210.451C210.665 38.8181 210.872 38.8434 211.075 38.8927C211.125 38.593 211.169 38.2797 211.207 37.954C211.245 37.629 211.263 37.3156 211.263 37.0153C211.263 36.7396 211.25 36.4768 211.226 36.2264C211.2 35.9767 211.162 35.7379 211.112 35.5122C210.962 35.4882 210.778 35.4694 210.565 35.4563C210.35 35.4434 210.142 35.4376 209.942 35.4376C208.581 35.4376 207.467 35.7509 206.598 36.3763C205.729 37.0023 205.03 37.7418 204.502 38.593C204.502 38.1668 204.463 37.6478 204.388 37.0335C204.313 36.421 204.236 35.9254 204.161 35.5498C203.935 35.5005 203.682 35.4629 203.406 35.4376C203.128 35.4129 202.852 35.3999 202.575 35.3999C202.298 35.3999 202.033 35.4129 201.781 35.4376Z" fill="#FF4600"/>
</g>
<defs>
<clipPath id="clip0_401_62">
<rect width="50" height="50" fill="white" transform="translate(20 16)"/>
</clipPath>
<clipPath id="clip1_401_62">
<rect width="100" height="44.8649" fill="white" transform="translate(112 19)"/>
</clipPath>
</defs>
</svg>
