<svg width="250" height="82" viewBox="0 0 250 82" fill="none" xmlns="http://www.w3.org/2000/svg">
<g filter="url(#filter0_f_401_2989)">
<path d="M55.3046 65.3686H32.8646L31.9486 65.3613C28.1595 65.2997 26.6524 64.838 25.1338 64.0226C23.4984 63.1444 22.215 61.8557 21.3404 60.2135L21.1592 59.8608C20.4307 58.3831 20.0314 56.7523 20.0018 52.9212L20 29.9179C20 25.426 20.4658 23.7972 21.3404 22.155C22.215 20.5129 23.4984 19.2241 25.1338 18.3459L25.4851 18.164C26.9566 17.4325 28.5807 17.0315 32.3962 17.0018L55.3046 17C59.7779 17 61.4 17.4677 63.0353 18.3459C64.6708 19.2241 65.9542 20.5129 66.8288 22.155L67.0099 22.5078C67.7384 23.9854 68.1378 25.6162 68.1674 29.4474L68.1692 52.4507L68.1621 53.3704C68.1006 57.1752 67.6409 58.6887 66.8288 60.2135C65.9542 61.8557 64.6708 63.1444 63.0353 64.0226L62.6841 64.2046C61.1538 64.9653 59.4583 65.3686 55.3046 65.3686Z" fill="#C4D3E0" fill-opacity="0.2"/>
</g>
<path d="M68.1686 41.1843V52.4508C68.1686 56.9426 67.7027 58.5714 66.8282 60.2135C65.9536 61.8558 64.6702 63.1445 63.0347 64.0227C61.3994 64.9009 59.7772 65.3685 55.304 65.3685H44.084V41.1843H68.1686Z" fill="url(#paint0_linear_401_2989)"/>
<path d="M44.084 17H55.304C59.7772 17 61.3994 17.4677 63.0347 18.3459C64.6702 19.2241 65.9536 20.5129 66.8282 22.1551C67.7027 23.7972 68.1686 25.426 68.1686 29.9178V41.1842H44.084V17Z" fill="url(#paint1_linear_401_2989)"/>
<path d="M32.8646 17H44.0846V65.3686H32.8646C28.3913 65.3686 26.7692 64.9008 25.1338 64.0226C23.4984 63.1444 22.215 61.8557 21.3404 60.2135C20.4658 58.5713 20 56.9425 20 52.4507V29.9179C20 25.426 20.4658 23.7972 21.3404 22.155C22.215 20.5129 23.4984 19.2241 25.1338 18.3459C26.7692 17.4677 28.3913 17 32.8646 17Z" fill="url(#paint2_linear_401_2989)"/>
<path d="M150.56 36.3639C150.067 35.6864 149.384 35.1697 148.598 34.8789C147.791 34.5549 147.002 34.3929 146.231 34.3929C145.246 34.3929 144.349 34.5729 143.543 34.9329C142.751 35.2822 142.038 35.7872 141.445 36.4179C140.862 37.0646 140.406 37.8158 140.101 38.6319C139.79 39.5164 139.635 40.4484 139.644 41.3859C139.644 42.4299 139.796 43.3839 140.101 44.2479C140.382 45.071 140.821 45.8317 141.391 46.4879C141.966 47.1014 142.662 47.589 143.435 47.9199C144.224 48.2619 145.111 48.4329 146.097 48.4329C147.119 48.4329 148.024 48.2349 148.813 47.8389C149.601 47.4249 150.238 46.8849 150.722 46.2189L153.438 48.1359C152.609 49.1875 151.551 50.0369 150.345 50.6199C149.126 51.1959 147.701 51.4839 146.07 51.4839C144.582 51.4839 143.211 51.2409 141.956 50.7539C140.763 50.279 139.675 49.5728 138.756 48.6759C137.853 47.7639 137.14 46.6808 136.66 45.4899C136.158 44.2479 135.907 42.8799 135.907 41.3859C135.907 39.8559 136.167 38.4789 136.687 37.2549C137.225 36.0129 137.951 34.9599 138.865 34.0949C139.816 33.2197 140.931 32.541 142.145 32.0979C143.4 31.6299 144.763 31.3959 146.232 31.3959C146.842 31.3959 147.478 31.4589 148.142 31.5849C148.805 31.6929 149.442 31.8729 150.051 32.1249C150.661 32.3589 151.234 32.6549 151.771 33.0149C152.309 33.3749 152.766 33.8079 153.143 34.3119L150.56 36.3639ZM155.435 30.5859H158.662V50.9979H155.435V30.5859ZM171.664 43.2219C171.664 42.8079 171.602 42.4119 171.476 42.0339C171.374 41.6647 171.19 41.323 170.938 41.0339C170.673 40.7364 170.341 40.5055 169.97 40.3599C169.594 40.1799 169.146 40.0899 168.626 40.0899C167.658 40.0899 166.833 40.3869 166.152 40.9799C165.489 41.5569 165.122 42.3039 165.05 43.2219H171.664ZM174.891 44.6799V45.1119C174.891 45.2559 174.882 45.3999 174.864 45.5439H165.05C165.086 46.0119 165.202 46.4439 165.4 46.8399C165.614 47.2179 165.892 47.5499 166.233 47.8389C166.573 48.1089 166.959 48.3249 167.389 48.4869C167.819 48.6489 168.267 48.7299 168.734 48.7299C169.54 48.7299 170.221 48.5859 170.777 48.2979C171.326 47.9981 171.796 47.5725 172.148 47.0559L174.299 48.7839C173.027 50.5119 171.18 51.3759 168.76 51.3759C167.757 51.3759 166.833 51.2229 165.99 50.9159C165.177 50.6094 164.429 50.1513 163.786 49.5659C163.163 48.9709 162.669 48.2545 162.334 47.4609C161.994 46.6149 161.824 45.6609 161.824 44.5989C161.824 43.5549 161.994 42.6089 162.334 41.7639C162.693 40.8999 163.177 40.1709 163.786 39.5769C164.397 38.9639 165.13 38.4856 165.937 38.1729C166.801 37.8269 167.723 37.6527 168.653 37.6599C169.549 37.6599 170.373 37.8129 171.127 38.1189C171.885 38.3981 172.567 38.8513 173.117 39.4419C173.672 40.0179 174.102 40.7469 174.407 41.6289C174.73 42.4929 174.891 43.5089 174.891 44.6789V44.6799ZM185.871 49.3499H185.791C185.468 49.9269 184.948 50.4039 184.231 50.7819C183.514 51.1419 182.698 51.3219 181.784 51.3219C181.264 51.3219 180.718 51.2499 180.144 51.1059C179.591 50.981 179.063 50.7618 178.584 50.4579C178.111 50.1266 177.709 49.7044 177.401 49.2159C177.096 48.6939 176.944 48.0549 176.944 47.2989C176.944 46.3269 177.213 45.5529 177.751 44.9769C178.307 44.4009 179.015 43.9599 179.875 43.6539C180.735 43.3479 181.685 43.1499 182.725 43.0599C183.752 42.9535 184.784 42.8994 185.817 42.8979V42.5739C185.817 41.7639 185.522 41.1699 184.93 40.7919C184.356 40.3959 183.666 40.1979 182.86 40.1979C182.182 40.1971 181.512 40.3445 180.897 40.6299C180.269 40.9179 179.749 41.2689 179.337 41.6829L177.67 39.7119C178.399 39.0314 179.259 38.5073 180.198 38.1719C181.138 37.8352 182.129 37.662 183.128 37.6599C184.276 37.6599 185.217 37.8219 185.952 38.1459C186.705 38.4699 187.296 38.8929 187.726 39.4149C188.156 39.9369 188.452 40.5219 188.614 41.1699C188.793 41.8179 188.883 42.4659 188.883 43.1139V50.9979H185.87V49.3499H185.871ZM185.817 45.0849H185.091C184.571 45.0849 184.025 45.1119 183.451 45.1649C182.912 45.1948 182.379 45.295 181.865 45.4629C181.381 45.6069 180.977 45.8229 180.655 46.1109C180.332 46.3809 180.171 46.7589 180.171 47.2449C180.171 47.5509 180.234 47.8119 180.359 48.0279C180.502 48.2259 180.682 48.3879 180.897 48.5139C181.112 48.6399 181.354 48.7299 181.623 48.7839C181.892 48.8379 182.161 48.8639 182.429 48.8639C183.541 48.8639 184.383 48.5679 184.957 47.9739C185.531 47.3799 185.817 46.5699 185.817 45.5439V45.0839V45.0849ZM192.642 38.0379H195.734V40.1979H195.788C196.125 39.4676 196.644 38.8357 197.294 38.3619C197.939 37.8939 198.692 37.6599 199.552 37.6599C199.678 37.6599 199.812 37.6689 199.955 37.6869C200.099 37.6869 200.225 37.7049 200.332 37.7409V40.7109C200.146 40.6625 199.957 40.6264 199.767 40.6029C199.624 40.585 199.481 40.576 199.337 40.5759C198.602 40.5759 198.01 40.7109 197.562 40.9809C197.144 41.2226 196.786 41.5547 196.514 41.9529C196.274 42.3051 196.101 42.6983 196.003 43.1129C195.913 43.5099 195.868 43.8249 195.868 44.0589V50.9979H192.642V38.0379ZM205.716 30.5859V39.6849H205.797C205.959 39.4689 206.165 39.2439 206.416 39.0099C206.666 38.7759 206.962 38.5599 207.303 38.3619C207.694 38.1507 208.11 37.9875 208.54 37.8759C209.055 37.7251 209.589 37.6523 210.126 37.6599C211.04 37.6599 211.883 37.8399 212.654 38.1999C213.424 38.5419 214.088 39.0189 214.644 39.6299C215.21 40.2595 215.648 40.9931 215.934 41.7899C216.244 42.6471 216.399 43.5525 216.391 44.4639C216.397 45.3837 216.242 46.2974 215.934 47.1639C215.66 47.9689 215.231 48.7121 214.67 49.3509C214.115 49.9761 213.437 50.4814 212.68 50.8359C211.91 51.1959 211.031 51.3759 210.045 51.3759C209.151 51.3802 208.267 51.1769 207.465 50.7819C206.691 50.3997 206.045 49.7989 205.609 49.0539H205.555V50.9979H202.49V30.5859H205.717H205.716ZM213.111 44.4639C213.111 43.9599 213.031 43.4639 212.869 42.9789C212.733 42.4902 212.505 42.0319 212.197 41.6289C211.888 41.2298 211.493 40.9066 211.04 40.6839C210.574 40.4319 210.028 40.3059 209.4 40.3059C208.809 40.3059 208.28 40.4319 207.814 40.6839C207.348 40.9359 206.944 41.2599 206.604 41.6559C206.277 42.0593 206.022 42.516 205.851 43.0059C205.692 43.4943 205.611 44.0044 205.609 44.5179C205.609 45.0219 205.689 45.5259 205.851 46.0299C206.031 46.5159 206.281 46.9569 206.604 47.3529C206.944 47.7489 207.348 48.0729 207.814 48.3249C208.28 48.5589 208.809 48.6749 209.4 48.6749C210.028 48.6749 210.574 48.5499 211.04 48.2979C211.49 48.0596 211.885 47.7283 212.197 47.3259C212.501 46.9299 212.725 46.4799 212.869 45.9759C213.028 45.4876 213.109 44.9775 213.111 44.4639ZM219.558 38.0379H222.784V50.9979H219.558V38.0379ZM219.1 33.6369C219.1 33.1149 219.288 32.6649 219.664 32.2869C220.059 31.8909 220.552 31.6929 221.144 31.6929C221.734 31.6929 222.228 31.8819 222.622 32.2599C223.034 32.6199 223.24 33.0789 223.24 33.6369C223.24 34.1949 223.034 34.6629 222.622 35.0409C222.228 35.4009 221.735 35.5809 221.143 35.5809C220.552 35.5809 220.059 35.3909 219.664 35.0139C219.484 34.8329 219.341 34.618 219.245 34.3817C219.148 34.1454 219.099 33.8923 219.1 33.6369ZM224.843 40.6299V38.0379H227.103V34.2849H230.275V38.0379H233.5V40.6299H230.274V46.6499C230.274 47.2269 230.373 47.7039 230.57 48.0819C230.785 48.4599 231.25 48.6489 231.968 48.6489C232.183 48.6489 232.416 48.6309 232.667 48.5949C232.917 48.5409 233.142 48.4689 233.339 48.3789L233.447 50.9169C233.116 51.0355 232.774 51.117 232.425 51.1599C232.031 51.2319 231.655 51.2679 231.295 51.2679C230.435 51.2679 229.736 51.1509 229.198 50.9169C228.661 50.6649 228.23 50.3319 227.908 49.9169C227.6 49.4779 227.38 48.983 227.262 48.4599C227.152 47.8724 227.099 47.2757 227.102 46.6779V40.6299H224.842H224.843Z" fill="black"/>
<g filter="url(#filter1_f_401_2989)">
<path d="M112.357 56.9999H97.511L96.905 56.9951C94.3982 56.9543 93.4011 56.6489 92.3964 56.1094C91.3145 55.5284 90.4654 54.6758 89.8868 53.5894L89.7669 53.356C89.285 52.3784 89.0208 51.2995 89.0012 48.7649L89 33.5463C89 30.5745 89.3081 29.4969 89.8868 28.4105C90.4654 27.3241 91.3145 26.4715 92.3964 25.8904L92.6288 25.7701C93.6024 25.2861 94.6768 25.0209 97.2011 25.0012L112.357 25C115.316 25 116.39 25.3094 117.472 25.8904C118.554 26.4715 119.403 27.3241 119.981 28.4105L120.101 28.6439C120.583 29.6214 120.847 30.7003 120.867 33.235L120.868 48.4536L120.863 49.0621C120.823 51.5793 120.519 52.5806 119.981 53.5894C119.403 54.6758 118.554 55.5284 117.472 56.1094L117.239 56.2298C116.227 56.7331 115.105 56.9999 112.357 56.9999Z" fill="#C4D3E0" fill-opacity="0.2"/>
</g>
<path d="M120.868 41V48.4537C120.868 51.4254 120.559 52.503 119.981 53.5894C119.402 54.6759 118.553 55.5285 117.471 56.1095C116.389 56.6905 115.316 56.9999 112.357 56.9999H104.934V41H120.868Z" fill="url(#paint3_linear_401_2989)"/>
<path d="M104.934 25H112.357C115.316 25 116.389 25.3094 117.471 25.8904C118.553 26.4715 119.402 27.3241 119.981 28.4105C120.559 29.4969 120.868 30.5745 120.868 33.5462V40.9999H104.934V25Z" fill="url(#paint4_linear_401_2989)"/>
<path d="M97.511 25H104.934V56.9999H97.511C94.5516 56.9999 93.4784 56.6904 92.3964 56.1094C91.3145 55.5284 90.4654 54.6758 89.8868 53.5894C89.3081 52.5029 89 51.4253 89 48.4536V33.5463C89 30.5745 89.3081 29.4969 89.8868 28.4105C90.4654 27.3241 91.3145 26.4715 92.3964 25.8904C93.4784 25.3094 94.5516 25 97.511 25Z" fill="url(#paint5_linear_401_2989)"/>
<defs>
<filter id="filter0_f_401_2989" x="17.2858" y="14.2858" width="53.5979" height="53.7971" filterUnits="userSpaceOnUse" color-interpolation-filters="sRGB">
<feFlood flood-opacity="0" result="BackgroundImageFix"/>
<feBlend mode="normal" in="SourceGraphic" in2="BackgroundImageFix" result="shape"/>
<feGaussianBlur stdDeviation="1.35712" result="effect1_foregroundBlur_401_2989"/>
</filter>
<filter id="filter1_f_401_2989" x="86.2858" y="22.2858" width="37.2966" height="37.4284" filterUnits="userSpaceOnUse" color-interpolation-filters="sRGB">
<feFlood flood-opacity="0" result="BackgroundImageFix"/>
<feBlend mode="normal" in="SourceGraphic" in2="BackgroundImageFix" result="shape"/>
<feGaussianBlur stdDeviation="1.35712" result="effect1_foregroundBlur_401_2989"/>
</filter>
<linearGradient id="paint0_linear_401_2989" x1="56.1263" y1="41.1843" x2="68.2483" y2="65.3285" gradientUnits="userSpaceOnUse">
<stop stop-color="#DEF2FE"/>
<stop offset="1" stop-color="#DBF1FE"/>
</linearGradient>
<linearGradient id="paint1_linear_401_2989" x1="44.084" y1="17" x2="56.2061" y2="41.1442" gradientUnits="userSpaceOnUse">
<stop stop-color="#57BCFD"/>
<stop offset="1" stop-color="#51B5FD"/>
</linearGradient>
<linearGradient id="paint2_linear_401_2989" x1="29.0317" y1="17" x2="49.6392" y2="58.0451" gradientUnits="userSpaceOnUse">
<stop stop-color="#1CA7FD"/>
<stop offset="1" stop-color="#148CFC"/>
</linearGradient>
<linearGradient id="paint3_linear_401_2989" x1="112.901" y1="41" x2="120.92" y2="56.9734" gradientUnits="userSpaceOnUse">
<stop stop-color="#DEF2FE"/>
<stop offset="1" stop-color="#DBF1FE"/>
</linearGradient>
<linearGradient id="paint4_linear_401_2989" x1="104.934" y1="25" x2="112.953" y2="40.9734" gradientUnits="userSpaceOnUse">
<stop stop-color="#57BCFD"/>
<stop offset="1" stop-color="#51B5FD"/>
</linearGradient>
<linearGradient id="paint5_linear_401_2989" x1="94.9753" y1="25" x2="108.609" y2="52.1548" gradientUnits="userSpaceOnUse">
<stop stop-color="#1CA7FD"/>
<stop offset="1" stop-color="#148CFC"/>
</linearGradient>
</defs>
</svg>
