<svg width="250" height="82" viewBox="0 0 250 82" fill="none" xmlns="http://www.w3.org/2000/svg">
<g clip-path="url(#clip0_401_386)">
<path d="M52.5502 41.2589C52.522 40.4325 52.2743 39.5566 51.6438 38.9796C50.9392 38.3359 49.9197 38.0399 48.9726 38.0399H44.7507C44.3341 38.0399 43.9639 37.7313 43.9639 37.3503C43.9639 37.0302 44.1858 36.7618 44.4869 36.6836C44.4858 36.6836 44.5576 36.6652 44.6352 36.6411C45.391 36.9985 46.2438 37.16 47.095 37.16C48.3973 37.16 49.7025 36.783 50.6582 35.9026C51.5881 35.0462 52.0226 33.8474 52.0226 32.6215C52.0226 31.3951 51.5881 30.1963 50.6576 29.3399C50.3856 29.0905 50.0827 28.8769 49.7565 28.7043C50.653 28.9089 51.5783 28.6555 52.2162 27.5721L50.422 26.302L48.9243 28.3555C48.3318 28.1718 47.7147 28.0801 47.0944 28.0836C45.7927 28.0836 44.4869 28.4606 43.5318 29.3411C42.6013 30.1974 42.1668 31.3957 42.1668 32.6221C42.1668 33.8485 42.6013 35.0462 43.5318 35.9037C43.6122 35.9784 43.6961 36.0485 43.7818 36.1164L43.6076 36.2072C43.2634 36.3968 42.8433 36.6997 42.4272 37.1365C41.8369 37.7543 41.2473 38.6819 41.2473 39.9141C41.2473 39.9141 41.1651 42.5451 44.2312 42.5451H46.4525C46.9634 42.5451 47.4841 42.8658 47.4841 43.3692C47.4841 43.5514 47.4295 43.7221 47.3358 43.8646H51.5829C52.226 43.1606 52.5812 42.1623 52.5502 41.2589ZM46.3415 31.8106C46.5513 31.6037 46.8387 31.5146 47.1249 31.5146C47.4111 31.5146 47.6979 31.6037 47.9076 31.8106C48.1122 32.0118 48.2076 32.2939 48.2076 32.5824C48.2076 32.871 48.1122 33.1526 47.9076 33.3543C47.6979 33.5612 47.4111 33.6503 47.1249 33.6503C46.8387 33.6503 46.5513 33.5618 46.3415 33.3543C46.1369 33.1531 46.0415 32.8715 46.0415 32.5824C46.0415 32.2939 46.1369 32.0123 46.3415 31.8106Z" fill="#E57CD8"/>
<path d="M64.6436 41.2589C64.6149 40.4325 64.3677 39.5566 63.7367 38.9796C63.0327 38.3359 62.0131 38.0399 61.066 38.0399L56.1643 38.0049C55.8557 38.0049 55.6195 37.8135 55.6195 37.5313C55.6195 37.2985 55.7367 36.9514 56.0321 36.8934C56.6189 37.0734 57.2298 37.1633 57.8436 37.16C59.1459 37.16 60.4511 36.783 61.4068 35.9026C62.3367 35.0462 62.7712 33.8474 62.7712 32.6215C62.7712 31.3951 62.3367 30.1963 61.4068 29.3399C61.135 29.0904 60.8323 28.8765 60.5062 28.7037C61.4028 28.9083 62.3281 28.6549 62.9654 27.5715L61.1712 26.302L59.6741 28.3555C59.0814 28.1718 58.4641 28.0801 57.8436 28.0836C56.5419 28.0836 55.2367 28.4606 54.281 29.3411C53.3505 30.1968 52.916 31.3951 52.916 32.6215C52.916 33.848 53.3511 35.0457 54.281 35.9031C54.5568 36.1566 54.8614 36.3687 55.1867 36.5416C54.9718 36.7026 54.7459 36.8997 54.52 37.1359C53.931 37.7543 53.3407 38.6819 53.3407 39.9141C53.3407 39.9141 53.2591 42.5451 56.3252 42.5451H58.5459C59.0568 42.5451 59.5775 42.8658 59.5775 43.3692C59.5775 43.5514 59.5229 43.7221 59.4292 43.8646H63.6764C64.3195 43.1606 64.6752 42.1623 64.6436 41.2589ZM57.1206 31.8106C57.3304 31.6037 57.6172 31.5146 57.9039 31.5146C58.1902 31.5146 58.4769 31.6037 58.6873 31.8106C58.8913 32.0118 58.9873 32.2939 58.9873 32.5824C58.9873 32.871 58.8913 33.1526 58.6873 33.3543C58.4769 33.5612 58.1902 33.6503 57.9039 33.6503C57.6172 33.6503 57.3304 33.5618 57.1206 33.3543C56.916 33.1531 56.8206 32.8715 56.8206 32.5824C56.8206 32.2939 56.916 32.0123 57.1206 31.8106Z" fill="#E57CD8"/>
<path d="M69.784 39.9092V35.9822C68.869 36.0966 68.5506 35.4609 68.5506 34.8293V25.2402H64.0127V35.546C64.0127 36.8259 64.2058 37.8931 64.6742 38.5644C65.3943 39.5868 66.3679 40.2558 68.3047 40.2638C68.6621 40.2483 69.2587 40.1788 69.784 39.9092Z" fill="#E57CD8"/>
<path d="M39.7107 29.7959C38.5383 28.6177 36.9389 28.1125 35.3418 28.1125C33.7452 28.1125 32.1446 28.6183 30.9739 29.7959C29.8326 30.943 29.2998 32.547 29.2998 34.1884C29.2998 35.8304 29.8326 37.4338 30.9734 38.5809C32.1446 39.7591 33.7452 40.2637 35.3418 40.2637C36.9389 40.2637 38.5389 39.7591 39.7107 38.5809C40.851 37.4338 41.3843 35.8298 41.3843 34.1884C41.3843 32.547 40.851 30.9424 39.7107 29.7959ZM36.3291 35.1332C36.0579 35.401 35.6872 35.5148 35.3176 35.5148C34.9475 35.5148 34.5768 35.401 34.3061 35.1332C34.0418 34.8729 33.9182 34.5085 33.9182 34.1361C33.9182 33.7631 34.0412 33.3993 34.3056 33.139C34.5768 32.8717 34.9475 32.7568 35.317 32.7568C35.6872 32.7568 36.0584 32.8717 36.3291 33.139C36.5935 33.3993 36.717 33.7631 36.717 34.1361C36.717 34.5085 36.5935 34.8729 36.3291 35.1332Z" fill="#E57CD8"/>
<path d="M27.6638 35.9977C26.9086 35.9977 26.6 35.7701 26.3207 35.4207C26.1402 35.1926 26.0506 34.8575 26.0506 34.423V32.3903H28.5828V28.7466H26.05V25.2402H22.8126V26.5506C22.8126 28.0029 21.6902 29.1805 20.3057 29.1805C20.2035 29.1801 20.1014 29.1734 20 29.1603V32.3903H21.7V35.6362C21.7 36.9132 21.9339 37.8977 22.4011 38.5678C23.1236 39.5937 23.9241 40.2644 25.8787 40.2644C27.0121 40.2644 27.9609 40.0075 28.5828 39.665V35.8471C28.3483 35.9357 28.031 35.9977 27.6632 35.9977" fill="#E57CD8"/>
<path d="M25.4707 56.9494C25.2115 56.9828 24.9506 56.9989 24.6891 56.9977C23.8184 56.9977 23.1655 56.7965 22.7299 56.3942C22.2948 55.9908 22.077 55.2885 22.077 54.2879V48.2046H20V47.1517H22.077V44.5391H23.2839V47.1517H26.1529V48.2046H23.2839V54.346C23.2839 54.8661 23.3897 55.2529 23.6006 55.5069C23.8115 55.7598 24.1943 55.8862 24.7483 55.8862C25.0517 55.8862 25.3155 55.8741 25.5397 55.8477C25.7638 55.8218 25.9879 55.7891 26.2121 55.75V56.8034C25.9615 56.8684 25.7144 56.9166 25.4707 56.9494Z" fill="#E57CD8"/>
<path d="M30.2862 47.4262C30.8138 47.0228 31.4529 46.821 32.2052 46.821C32.4822 46.821 32.8052 46.8544 33.1747 46.9187V48.167C33.0052 48.1302 32.8334 48.1041 32.6604 48.0888C32.5023 48.0758 32.3437 48.0693 32.1851 48.0693C31.6046 48.0693 31.1201 48.1796 30.7311 48.4009C30.3477 48.6162 30.0247 48.9246 29.7914 49.2974C29.5541 49.6744 29.3857 50.1227 29.2868 50.6428C29.1857 51.1895 29.1362 51.7444 29.1385 52.3003V56.8043H27.9316V47.0555H29.0989V49.2785C29.3632 48.4463 29.7587 47.8291 30.2862 47.4262ZM34.6374 48.2446C34.8345 47.9462 35.0903 47.6909 35.3885 47.494C35.7052 47.2797 36.088 47.1141 36.5362 46.9968C36.9845 46.8796 37.519 46.821 38.1391 46.821C39.4575 46.821 40.4339 47.1198 41.0667 47.7181C41.7 48.3158 42.0167 49.2135 42.0167 50.4089V56.8043H40.8098V54.7181C40.5064 55.4595 40.0351 56.0244 39.3949 56.4141C38.7552 56.8043 38.0201 56.9997 37.1891 56.9997C36.6483 56.9997 36.1701 56.9244 35.7546 56.7756C35.3391 56.6262 34.9931 56.421 34.7161 56.1606C34.4385 55.8996 34.2219 55.58 34.0828 55.225C33.9362 54.8527 33.8627 54.4556 33.8655 54.0555C33.8655 53.1451 34.165 52.4497 34.7655 51.9693C35.3655 51.4877 36.1207 51.202 37.0311 51.1106L40.315 50.7991C40.6449 50.7601 40.8092 50.6239 40.8092 50.3894V50.0388C40.8092 49.3756 40.6052 48.852 40.1966 48.4693C39.7874 48.0859 39.1219 47.894 38.1983 47.894C36.523 47.894 35.5535 48.5049 35.2903 49.7267L34.2213 49.1606C34.3133 48.8363 34.4535 48.5275 34.6368 48.2446H34.6374ZM37.2087 52.2216C36.4569 52.3003 35.923 52.5112 35.6064 52.856C35.2903 53.2009 35.1316 53.6003 35.1316 54.0555C35.1316 54.6141 35.3196 55.0595 35.6949 55.3905C36.0713 55.7221 36.6219 55.8877 37.3477 55.8877C37.9012 55.8877 38.3926 55.7934 38.8213 55.6055C39.2288 55.4314 39.5989 55.1797 39.9098 54.8641C40.2023 54.5655 40.4311 54.2106 40.5822 53.821C40.7316 53.4422 40.8092 53.0386 40.8098 52.6313V51.8331L37.2087 52.2227V52.2216ZM43.7931 49.902C44.0276 49.2931 44.3845 48.7389 44.842 48.2739C45.3081 47.8052 45.8673 47.4398 46.4839 47.2014C47.1236 46.948 47.8328 46.8216 48.6104 46.8216C49.323 46.8216 49.9661 46.9319 50.5397 47.1526C51.1029 47.3671 51.6173 47.6921 52.0529 48.1083L51.2816 49.044C50.9098 48.7127 50.4851 48.4458 50.0253 48.2543C49.5575 48.0635 49.0564 47.9676 48.5512 47.9721C47.9845 47.9721 47.4632 48.0658 46.988 48.2543C46.5299 48.432 46.1127 48.7006 45.7615 49.044C45.419 49.3819 45.1518 49.798 44.9604 50.2917C44.7696 50.7859 44.6736 51.3319 44.6736 51.9296C44.6736 52.5273 44.7696 53.0704 44.961 53.5578C45.1385 54.0246 45.4115 54.4494 45.7615 54.8055C46.111 55.1543 46.5288 55.4267 46.9885 55.6055C47.4805 55.7971 48.0041 55.8931 48.5316 55.8882C49.0857 55.8882 49.6035 55.7871 50.0845 55.5859C50.5661 55.3848 50.9983 55.1147 51.3805 54.7767L52.1121 55.7124C51.6903 56.1026 51.1828 56.421 50.5891 56.6675C49.9954 56.9147 49.3161 57.0382 48.5512 57.0382C47.773 57.0382 47.0673 56.9118 46.4345 56.6583C45.8012 56.4049 45.2604 56.0537 44.8121 55.6055C44.3581 55.1486 44.0075 54.5999 43.7834 53.9963C43.546 53.3727 43.427 52.6905 43.427 51.9491C43.427 51.2083 43.5489 50.5262 43.7931 49.902Z" fill="#E57CD8"/>
<path d="M54.764 53.8995V56.8047H53.5571V43.9656H54.764V52.3788L59.9669 47.0558H61.6686L57.3755 51.3064L61.7675 56.8047H60.1847L56.564 52.1253L54.764 53.8995Z" fill="#E57CD8"/>
</g>
<g clip-path="url(#clip1_401_386)">
<path d="M170.982 46.4503C170.712 46.4851 170.44 46.5019 170.168 46.5006C169.261 46.5006 168.58 46.291 168.127 45.8719C167.673 45.4515 167.446 44.7198 167.446 43.6773V37.3389H165.282V36.2419H167.446V33.5198H168.704V36.2419H171.693V37.3389H168.704V43.7377C168.704 44.2796 168.814 44.6826 169.034 44.9473C169.253 45.2108 169.652 45.3425 170.23 45.3425C170.546 45.3425 170.821 45.3299 171.054 45.3024C171.288 45.2755 171.521 45.2413 171.755 45.2006V46.2982C171.494 46.3659 171.236 46.4162 170.982 46.4503Z" fill="#E57CD8"/>
<path d="M142.915 47.9405C142.885 47.0794 142.627 46.1669 141.97 45.5657C141.236 44.895 140.174 44.5866 139.187 44.5866H134.788C134.354 44.5866 133.968 44.2651 133.968 43.8681C133.968 43.5345 134.2 43.2549 134.513 43.1734C134.512 43.1734 134.587 43.1543 134.668 43.1291C135.455 43.5016 136.344 43.6699 137.231 43.6699C138.588 43.6699 139.947 43.277 140.943 42.3597C141.912 41.4675 142.365 40.2184 142.365 38.9411C142.365 37.6633 141.912 36.4142 140.943 35.522C140.659 35.2621 140.344 35.0395 140.004 34.8597C140.938 35.0729 141.902 34.8088 142.567 33.68L140.697 32.3567L139.137 34.4962C138.519 34.3048 137.876 34.2093 137.23 34.213C135.874 34.213 134.513 34.6058 133.518 35.5232C132.549 36.4154 132.096 37.6639 132.096 38.9417C132.096 40.2196 132.549 41.4675 133.518 42.3609C133.602 42.4387 133.689 42.5118 133.779 42.5824L133.597 42.677C133.239 42.8746 132.801 43.1902 132.367 43.6453C131.752 44.289 131.138 45.2555 131.138 46.5393C131.138 46.5393 131.052 49.2806 134.247 49.2806H136.561C137.094 49.2806 137.636 49.6148 137.636 50.1393C137.636 50.3291 137.579 50.507 137.482 50.6555H141.907C142.577 49.9219 142.947 48.8818 142.915 47.9405ZM136.446 38.0962C136.664 37.8806 136.964 37.7878 137.262 37.7878C137.56 37.7878 137.859 37.8806 138.077 38.0962C138.291 38.3058 138.39 38.5998 138.39 38.9004C138.39 39.201 138.291 39.4944 138.077 39.7046C137.859 39.9202 137.56 40.013 137.262 40.013C136.964 40.013 136.664 39.9207 136.446 39.7046C136.233 39.495 136.133 39.2016 136.133 38.9004C136.133 38.5998 136.233 38.3064 136.446 38.0962Z" fill="#E57CD8"/>
<path d="M155.515 47.9405C155.485 47.0794 155.228 46.1669 154.57 45.5657C153.837 44.895 152.774 44.5866 151.788 44.5866L146.68 44.5501C146.359 44.5501 146.113 44.3507 146.113 44.0567C146.113 43.8142 146.235 43.4525 146.543 43.392C147.154 43.5796 147.79 43.6733 148.43 43.6699C149.787 43.6699 151.147 43.277 152.143 42.3597C153.111 41.4675 153.564 40.2184 153.564 38.9411C153.564 37.6633 153.111 36.4142 152.143 35.522C151.859 35.2619 151.544 35.0391 151.204 34.8591C152.138 35.0723 153.102 34.8082 153.767 33.6794L151.897 32.3567L150.337 34.4962C149.72 34.3048 149.076 34.2093 148.43 34.213C147.074 34.213 145.714 34.6058 144.718 35.5232C143.749 36.4148 143.296 37.6633 143.296 38.9411C143.296 40.219 143.749 41.4669 144.718 42.3603C145.005 42.6243 145.323 42.8453 145.662 43.0255C145.438 43.1932 145.202 43.3986 144.967 43.6447C144.353 44.289 143.738 45.2555 143.738 46.5393C143.738 46.5393 143.653 49.2806 146.848 49.2806H149.162C149.694 49.2806 150.237 49.6148 150.237 50.1393C150.237 50.3291 150.18 50.507 150.082 50.6555H154.507C155.177 49.9219 155.548 48.8818 155.515 47.9405ZM147.677 38.0962C147.895 37.8806 148.194 37.7878 148.493 37.7878C148.791 37.7878 149.09 37.8806 149.309 38.0962C149.522 38.3058 149.622 38.5998 149.622 38.9004C149.622 39.201 149.522 39.4944 149.309 39.7046C149.09 39.9202 148.791 40.013 148.493 40.013C148.194 40.013 147.895 39.9207 147.677 39.7046C147.464 39.495 147.364 39.2016 147.364 38.9004C147.364 38.5998 147.464 38.3064 147.677 38.0962Z" fill="#E57CD8"/>
<path d="M160.871 46.5341V42.4425C159.917 42.5616 159.586 41.8994 159.586 41.2413V31.2502H154.857V41.988C154.857 43.3215 155.059 44.4335 155.547 45.1329C156.297 46.1982 157.311 46.8952 159.329 46.9036C159.702 46.8874 160.323 46.8149 160.871 46.5341Z" fill="#E57CD8"/>
<path d="M129.537 35.9971C128.316 34.7695 126.649 34.2432 124.985 34.2432C123.322 34.2432 121.654 34.7701 120.434 35.9971C119.245 37.1923 118.69 38.8635 118.69 40.5737C118.69 42.2845 119.245 43.9551 120.434 45.1503C121.654 46.3779 123.322 46.9036 124.985 46.9036C126.649 46.9036 128.316 46.3779 129.537 45.1503C130.725 43.9551 131.281 42.2839 131.281 40.5737C131.281 38.8635 130.725 37.1917 129.537 35.9971ZM126.014 41.5581C125.731 41.8372 125.345 41.9557 124.96 41.9557C124.574 41.9557 124.188 41.8372 123.906 41.5581C123.631 41.2869 123.502 40.9072 123.502 40.5192C123.502 40.1306 123.63 39.7515 123.906 39.4803C124.188 39.2018 124.574 39.0821 124.959 39.0821C125.345 39.0821 125.732 39.2018 126.014 39.4803C126.289 39.7515 126.418 40.1306 126.418 40.5192C126.418 40.9072 126.289 41.2869 126.014 41.5581Z" fill="#E57CD8"/>
<path d="M116.985 42.4586C116.198 42.4586 115.877 42.2215 115.586 41.8574C115.398 41.6197 115.304 41.2706 115.304 40.8179V38.7H117.943V34.9035H115.304V31.2502H111.931V32.6155C111.931 34.1287 110.761 35.3556 109.319 35.3556C109.212 35.3553 109.106 35.3483 109 35.3347V38.7H110.771V42.082C110.771 43.4125 111.015 44.4383 111.502 45.1365C112.254 46.2054 113.089 46.9042 115.125 46.9042C116.306 46.9042 117.295 46.6365 117.943 46.2796V42.3018C117.698 42.394 117.368 42.4586 116.984 42.4586" fill="#E57CD8"/>
<path d="M175.999 36.528C176.549 36.1076 177.215 35.8975 177.999 35.8975C178.287 35.8975 178.624 35.9322 179.009 35.9993V37.2999C178.832 37.2616 178.653 37.2343 178.473 37.2184C178.308 37.2049 178.143 37.1981 177.978 37.1981C177.373 37.1981 176.868 37.313 176.463 37.5436C176.063 37.7679 175.727 38.0892 175.484 38.4777C175.236 38.8705 175.061 39.3376 174.958 39.8795C174.852 40.4491 174.801 41.0272 174.803 41.6064V46.2993H173.546V36.1418H174.762V38.4579C175.038 37.5909 175.449 36.9478 175.999 36.528ZM180.533 37.3807C180.738 37.0698 181.005 36.8037 181.315 36.5987C181.645 36.3753 182.044 36.2029 182.511 36.0807C182.978 35.9585 183.535 35.8975 184.181 35.8975C185.555 35.8975 186.572 36.2088 187.232 36.8322C187.891 37.4549 188.221 38.3903 188.221 39.6358V46.2993H186.964V44.1256C186.648 44.8981 186.157 45.4867 185.49 45.8927C184.823 46.2993 184.057 46.5028 183.191 46.5028C182.628 46.5028 182.13 46.4244 181.697 46.2693C181.264 46.1136 180.903 45.8999 180.615 45.6286C180.326 45.3566 180.1 45.0236 179.955 44.6537C179.802 44.2658 179.726 43.8521 179.729 43.4352C179.729 42.4867 180.041 41.7621 180.666 41.2615C181.291 40.7597 182.078 40.4621 183.027 40.3669L186.448 40.0424C186.792 40.0016 186.963 39.8597 186.963 39.6154V39.2501C186.963 38.5591 186.751 38.0136 186.325 37.6148C185.899 37.2154 185.205 37.0154 184.243 37.0154C182.497 37.0154 181.487 37.6519 181.213 38.925L180.099 38.3352C180.195 37.9972 180.341 37.6755 180.532 37.3807H180.533ZM183.212 41.5244C182.429 41.6064 181.872 41.8262 181.542 42.1855C181.213 42.5448 181.048 42.9609 181.048 43.4352C181.048 44.0172 181.244 44.4813 181.635 44.8262C182.027 45.1717 182.6 45.3442 183.357 45.3442C183.933 45.3442 184.445 45.246 184.892 45.0501C185.317 44.8688 185.702 44.6065 186.026 44.2777C186.331 43.9666 186.569 43.5968 186.727 43.1909C186.882 42.7962 186.963 42.3757 186.964 41.9513V41.1196L183.212 41.5256V41.5244ZM190.072 39.1076C190.317 38.4732 190.688 37.8958 191.165 37.4112C191.651 36.9229 192.233 36.5422 192.876 36.2939C193.542 36.0298 194.281 35.8981 195.091 35.8981C195.834 35.8981 196.504 36.013 197.102 36.243C197.688 36.4664 198.224 36.805 198.678 37.2388L197.875 38.2136C197.487 37.8684 197.045 37.5904 196.566 37.3909C196.078 37.1921 195.556 37.0921 195.03 37.0969C194.439 37.0969 193.896 37.1945 193.401 37.3909C192.924 37.576 192.489 37.8559 192.123 38.2136C191.766 38.5657 191.488 38.9993 191.288 39.5136C191.09 40.0286 190.99 40.5975 190.99 41.2202C190.99 41.843 191.09 42.4088 191.289 42.9166C191.474 43.403 191.758 43.8456 192.123 44.2166C192.487 44.5801 192.923 44.8639 193.402 45.0501C193.914 45.2498 194.46 45.3498 195.009 45.3448C195.587 45.3448 196.126 45.2394 196.627 45.0298C197.129 44.8202 197.579 44.5388 197.978 44.1867L198.74 45.1615C198.3 45.5681 197.772 45.8999 197.153 46.1567C196.535 46.4142 195.827 46.543 195.03 46.543C194.219 46.543 193.484 46.4112 192.824 46.1472C192.164 45.8831 191.601 45.5172 191.134 45.0501C190.661 44.5741 190.296 44.0024 190.062 43.3735C189.815 42.7238 189.691 42.013 189.691 41.2406C189.691 40.4687 189.818 39.7579 190.072 39.1076Z" fill="#E57CD8"/>
<path d="M201.503 43.2724V46.2994H200.246V32.9221H201.503V41.688L206.924 36.1419H208.697L204.224 40.5706L208.8 46.2994H207.151L203.379 41.4239L201.503 43.2724Z" fill="#E57CD8"/>
</g>
<defs>
<clipPath id="clip0_401_386">
<rect width="50" height="32.1839" fill="white" transform="translate(20 25)"/>
</clipPath>
<clipPath id="clip1_401_386">
<rect width="100" height="19.7605" fill="white" transform="translate(109 31)"/>
</clipPath>
</defs>
</svg>
