<svg width="250" height="82" viewBox="0 0 250 82" fill="none" xmlns="http://www.w3.org/2000/svg">
<g clipPath="url(#clip0_401_2533)">
<path d="M159.99 39.0627V38.5787C159.99 38.4494 159.939 38.3253 159.847 38.2339C159.756 38.1424 159.632 38.091 159.502 38.091H158.569V37.6425C158.567 37.1175 158.686 36.8045 158.792 36.6903L158.797 36.684C158.87 36.6124 158.961 36.5626 159.061 36.5402C159.405 36.4848 159.754 36.4578 160.103 36.4595H160.282C160.346 36.4595 160.41 36.4469 160.469 36.4224C160.528 36.3979 160.582 36.362 160.627 36.3167C160.672 36.2714 160.708 36.2177 160.733 36.1585C160.757 36.0993 160.77 36.0358 160.77 35.9718V35.5347C160.77 35.4215 160.731 35.3117 160.659 35.2242C160.587 35.1368 160.487 35.0772 160.375 35.0558C160.316 35.0443 160.25 35.0328 160.177 35.0215C160.085 35.0073 159.602 35 159.507 35H159.5C158.715 35 158.046 35.1835 157.598 35.664C157.16 36.147 157.002 36.8288 157 37.6575V46.7898C157 46.9191 157.051 47.0432 157.143 47.1347C157.234 47.2261 157.358 47.2775 157.488 47.2775H158.081C158.145 47.2776 158.209 47.265 158.268 47.2405C158.327 47.216 158.381 47.1801 158.426 47.1348C158.471 47.0895 158.507 47.0357 158.532 46.9765C158.556 46.9173 158.569 46.8538 158.569 46.7898V39.55H159.502C159.566 39.5501 159.629 39.5376 159.689 39.5132C159.748 39.4888 159.802 39.4529 159.847 39.4076C159.892 39.3624 159.928 39.3086 159.953 39.2495C159.977 39.1903 159.99 39.1268 159.99 39.0627Z" fill="#272827"/>
<path d="M201.868 47.0953C201.912 47.1425 201.964 47.1803 202.023 47.2063C202.082 47.2323 202.145 47.2461 202.209 47.2467H202.812C202.914 47.2468 203.012 47.2153 203.095 47.1567C203.177 47.0981 203.239 47.0153 203.273 46.9198L206.973 36.3045C206.998 36.231 207.006 36.1524 206.995 36.0753C206.984 35.9982 206.955 35.9248 206.91 35.8613C206.865 35.7978 206.805 35.746 206.736 35.7102C206.667 35.6745 206.59 35.6558 206.512 35.6558H205.919C205.818 35.6556 205.719 35.6871 205.637 35.7457C205.554 35.8044 205.492 35.8873 205.459 35.983L201.759 46.5983C201.74 46.6486 201.73 46.702 201.73 46.7557C201.731 46.8823 201.781 47.0036 201.868 47.0953" fill="#7476EB"/>
<path d="M190.028 47.2461H190.605C190.669 47.2462 190.733 47.2336 190.792 47.2092C190.851 47.1847 190.905 47.1487 190.95 47.1034C190.996 47.0581 191.032 47.0043 191.056 46.9451C191.081 46.8859 191.093 46.8225 191.093 46.7584V41.7786C191.096 41.4925 191.143 41.2086 191.234 40.9371C191.326 40.6514 191.465 40.3828 191.644 40.1424C191.81 39.9165 192.021 39.7271 192.263 39.5861C192.5 39.4533 192.769 39.387 193.041 39.3941C193.338 39.3754 193.633 39.4539 193.881 39.6176C194.101 39.787 194.266 40.0174 194.356 40.2801C194.482 40.6359 194.543 41.0114 194.536 41.3886V46.7584C194.536 46.8878 194.587 47.0118 194.679 47.1033C194.77 47.1948 194.894 47.2461 195.023 47.2461H195.601C195.665 47.2462 195.728 47.2336 195.788 47.2091C195.847 47.1846 195.901 47.1486 195.946 47.1033C195.991 47.058 196.027 47.0043 196.051 46.9451C196.076 46.8859 196.088 46.8224 196.088 46.7584V41.7786C196.091 41.4925 196.138 41.2086 196.229 40.9371C196.321 40.6513 196.459 40.3826 196.639 40.1421C196.805 39.9163 197.016 39.7269 197.258 39.5859C197.495 39.4531 197.764 39.3867 198.036 39.3939C198.333 39.3751 198.627 39.4536 198.876 39.6174C199.096 39.7865 199.261 40.0169 199.351 40.2796C199.477 40.6355 199.537 41.011 199.53 41.3884V46.7584C199.53 46.8878 199.582 47.0118 199.673 47.1033C199.765 47.1948 199.889 47.2461 200.018 47.2461H200.596C200.66 47.2462 200.723 47.2336 200.782 47.2092C200.842 47.1847 200.895 47.1487 200.941 47.1034C200.986 47.0581 201.022 47.0043 201.046 46.9451C201.071 46.8859 201.083 46.8225 201.083 46.7584V41.2476C201.098 40.6554 200.991 40.0665 200.77 39.5169C200.565 39.0244 200.213 38.6071 199.763 38.3214C199.281 38.0335 198.727 37.8885 198.165 37.9034H198.156C197.557 37.8982 196.97 38.0653 196.464 38.3849C196.131 38.5995 195.84 38.8739 195.606 39.1941C195.404 38.842 195.12 38.5434 194.778 38.3231C194.304 38.0346 193.757 37.8889 193.202 37.9034H193.19C192.597 37.9 192.016 38.0672 191.515 38.3851C191.365 38.4827 191.224 38.5935 191.094 38.7161V38.5411C191.092 38.414 191.041 38.2924 190.951 38.2023C190.861 38.1121 190.74 38.0605 190.613 38.0584H190.028C189.899 38.0584 189.774 38.1098 189.683 38.2013C189.592 38.2927 189.54 38.4168 189.54 38.5461V46.7584C189.54 46.8878 189.592 47.0118 189.683 47.1033C189.774 47.1948 189.899 47.2461 190.028 47.2461Z" fill="#272827"/>
<path d="M182.33 46.8128C182.986 47.2076 183.74 47.407 184.505 47.3878H184.514C185.265 47.4044 186.005 47.2122 186.652 46.8328C187.283 46.4406 187.777 45.8641 188.069 45.1813C188.399 44.3851 188.561 43.5289 188.544 42.6668C188.56 41.8122 188.402 40.9632 188.079 40.1718C187.793 39.4854 187.309 38.9001 186.687 38.4913C186.036 38.0899 185.281 37.8868 184.516 37.9066H184.506C183.752 37.8907 183.008 38.0858 182.359 38.4698C181.728 38.8621 181.234 39.4395 180.943 40.1233C180.612 40.93 180.454 41.797 180.478 42.6686C180.46 43.5123 180.614 44.3509 180.932 45.1328C181.213 45.8238 181.702 46.4106 182.33 46.8128ZM182.705 40.1773C182.902 39.9248 183.157 39.7244 183.449 39.5936C183.785 39.4548 184.145 39.3867 184.508 39.3936C184.863 39.3869 185.214 39.4559 185.54 39.5961C185.833 39.7333 186.089 39.9391 186.286 40.1961C186.712 40.7418 186.954 41.5426 186.955 42.6508V42.6523C186.955 43.7943 186.713 44.6053 186.302 45.1288C186.108 45.3807 185.854 45.5806 185.564 45.7108C185.23 45.8496 184.87 45.9177 184.508 45.9108C184.168 45.931 183.827 45.8682 183.516 45.7279C183.204 45.5875 182.932 45.3738 182.721 45.1051C182.29 44.5578 182.046 43.7641 182.046 42.6676V42.6661C182.046 41.5143 182.291 40.6993 182.706 40.1771" fill="#272827"/>
<path d="M172.189 35.519V46.7585C172.189 46.8226 172.201 46.886 172.226 46.9452C172.25 47.0044 172.286 47.0582 172.332 47.1035C172.377 47.1488 172.431 47.1848 172.49 47.2093C172.549 47.2338 172.613 47.2463 172.677 47.2463H173.262C173.388 47.2439 173.509 47.1927 173.599 47.1032C173.688 47.0136 173.74 46.8929 173.742 46.7662V41.7787C173.745 41.4959 173.796 41.2157 173.894 40.9503C173.996 40.6628 174.148 40.3953 174.343 40.16C174.533 39.9264 174.771 39.735 175.039 39.598C175.324 39.457 175.638 39.3872 175.955 39.3945C176.312 39.3749 176.667 39.4586 176.977 39.6357C177.222 39.7943 177.412 40.0254 177.519 40.2968C177.656 40.6442 177.723 41.0155 177.715 41.389V46.759C177.715 46.8883 177.767 47.0124 177.858 47.1039C177.95 47.1953 178.074 47.2467 178.203 47.2467H178.803C178.93 47.2446 179.051 47.1933 179.141 47.1036C179.23 47.014 179.282 46.893 179.284 46.7662V41.248C179.3 40.6433 179.176 40.0431 178.921 39.4942C178.682 38.9991 178.299 38.5873 177.823 38.3122C177.299 38.0271 176.709 37.886 176.114 37.9032H176.106C175.474 37.8971 174.852 38.0639 174.308 38.3855C174.105 38.5061 173.916 38.6474 173.742 38.8073V35.519C173.742 35.4549 173.73 35.3915 173.705 35.3323C173.681 35.2731 173.645 35.2193 173.599 35.174C173.554 35.1287 173.5 35.0928 173.441 35.0683C173.382 35.0438 173.318 35.0312 173.254 35.0313H172.669C172.542 35.0335 172.421 35.0849 172.331 35.1747C172.241 35.2644 172.19 35.3855 172.188 35.5125L172.189 35.519Z" fill="#272827"/>
<path d="M168.162 36.643V44.6503C168.163 45.4703 168.323 46.1503 168.756 46.6325C169.206 47.121 169.881 47.3075 170.677 47.3075C170.77 47.3075 170.862 47.3046 170.952 47.2988C171.069 47.2926 171.184 47.2683 171.294 47.2268C171.385 47.1911 171.463 47.129 171.518 47.0485C171.573 46.968 171.603 46.8729 171.604 46.7753V46.3373C171.603 46.2081 171.552 46.0842 171.46 45.9929C171.369 45.9016 171.245 45.8503 171.116 45.8503H170.887C170.663 45.8554 170.44 45.828 170.224 45.769C170.124 45.7471 170.033 45.6977 169.96 45.6265L169.954 45.6198C169.847 45.5053 169.729 45.1913 169.729 44.6673V39.519H170.747C170.874 39.5168 170.995 39.4654 171.085 39.3758C171.174 39.2862 171.226 39.1653 171.228 39.0385V38.5475C171.228 38.4182 171.176 38.2941 171.085 38.2026C170.994 38.1112 170.869 38.0598 170.74 38.0598H169.73V36.643C169.73 36.5137 169.679 36.3896 169.587 36.2981C169.496 36.2067 169.372 36.1553 169.243 36.1553H168.643C168.516 36.1575 168.395 36.209 168.305 36.2987C168.215 36.3885 168.164 36.5096 168.162 36.6365V36.643Z" fill="#272827"/>
<path d="M159.833 44.6203V44.626C159.822 45.1539 159.966 45.6734 160.248 46.12C160.53 46.5484 160.934 46.883 161.407 47.0813C161.934 47.2961 162.499 47.4002 163.068 47.387C163.506 47.3819 163.939 47.3008 164.349 47.1475C164.81 46.9778 165.237 46.7261 165.609 46.4045C165.682 46.342 165.751 46.2753 165.818 46.2068C165.862 46.4914 165.958 46.7653 166.103 47.0143C166.146 47.0855 166.207 47.1443 166.28 47.185C166.353 47.2257 166.435 47.2469 166.518 47.2465L166.804 47.2433C166.932 47.2418 167.055 47.1898 167.145 47.0985C167.235 47.0071 167.286 46.8839 167.286 46.7555V41.5305C167.3 40.8897 167.18 40.2531 166.932 39.662C166.694 39.1146 166.289 38.6569 165.774 38.355C165.194 38.0377 164.54 37.8823 163.879 37.905C163.228 37.8886 162.582 38.0199 161.989 38.289C161.457 38.5399 161.009 38.9399 160.701 39.4403L160.699 39.4438C160.657 39.5104 160.635 39.5873 160.635 39.6658C160.636 39.7579 160.665 39.8477 160.719 39.9226C160.773 39.9975 160.848 40.0539 160.935 40.084L161.414 40.2543C161.487 40.2802 161.564 40.2934 161.641 40.2933C161.743 40.2931 161.843 40.2702 161.935 40.2264C162.027 40.1825 162.108 40.1188 162.172 40.0398C162.218 39.9844 162.266 39.9316 162.317 39.8815C162.63 39.5775 163.095 39.3983 163.817 39.3955C164.128 39.3881 164.438 39.4365 164.732 39.5383C164.943 39.6142 165.13 39.7453 165.272 39.918C165.543 40.2505 165.714 40.7645 165.73 41.501C165.033 41.512 164.415 41.541 163.88 41.591C163.208 41.6509 162.546 41.7887 161.907 42.0018H161.904L161.899 42.0035C161.314 42.1631 160.787 42.4888 160.384 42.9413C160.008 43.4145 159.813 44.0062 159.834 44.6103L159.833 44.6203ZM165.378 44.539C165.144 44.9473 164.813 45.2919 164.415 45.5425C164.027 45.7894 163.575 45.9177 163.115 45.9118C162.65 45.9447 162.189 45.8131 161.811 45.54C161.68 45.4338 161.576 45.2986 161.506 45.145C161.434 44.9684 161.399 44.779 161.402 44.5883C161.399 44.364 161.455 44.1429 161.565 43.9475C161.712 43.7311 161.92 43.5638 162.164 43.4673C162.647 43.2643 163.157 43.1315 163.678 43.073C164.36 42.9832 165.046 42.9349 165.734 42.9285V43.2303C165.736 43.6905 165.613 44.1427 165.379 44.5388" fill="#272827"/>
</g>
<g clipPath="url(#clip1_401_2533)">
<path d="M25.98 37.1255V36.1575C25.98 35.8988 25.8772 35.6507 25.6943 35.4677C25.5114 35.2848 25.2632 35.182 25.0045 35.182H23.1375V34.285C23.1345 33.235 23.3715 32.609 23.5845 32.3805L23.5945 32.368C23.7398 32.2248 23.9224 32.1252 24.1215 32.0805C24.8106 31.9696 25.5076 31.9156 26.2055 31.919H26.564C26.6922 31.9191 26.819 31.8939 26.9374 31.8449C27.0559 31.7959 27.1634 31.7241 27.2541 31.6335C27.3447 31.5429 27.4167 31.4353 27.4657 31.3169C27.5148 31.1985 27.54 31.0716 27.54 30.9435V30.0695C27.5405 29.843 27.4619 29.6233 27.3179 29.4485C27.1739 29.2736 26.9734 29.1544 26.751 29.1115C26.633 29.0885 26.501 29.0655 26.3545 29.043C26.1705 29.0145 25.204 29 25.014 29H25.0005C23.43 29 22.092 29.367 21.196 30.328C20.319 31.294 20.0045 32.6575 20 34.315V52.5795C20 52.8382 20.1028 53.0864 20.2857 53.2693C20.4687 53.4522 20.7168 53.555 20.9755 53.555H22.162C22.2901 53.5552 22.417 53.53 22.5355 53.481C22.6539 53.4321 22.7615 53.3602 22.8521 53.2696C22.9427 53.1789 23.0145 53.0714 23.0635 52.9529C23.1125 52.8345 23.1376 52.7077 23.1375 52.5795V38.1H25.0035C25.1316 38.1003 25.2586 38.0752 25.377 38.0264C25.4955 37.9775 25.6031 37.9058 25.6939 37.8153C25.7846 37.7247 25.8566 37.6173 25.9057 37.4989C25.9548 37.3805 25.98 37.2536 25.98 37.1255Z" fill="#272827"/>
<path d="M109.736 53.1905C109.823 53.2849 109.929 53.3605 110.046 53.4126C110.163 53.4647 110.29 53.4923 110.418 53.4935H111.625C111.827 53.4935 112.024 53.4307 112.189 53.3134C112.354 53.1962 112.479 53.0306 112.545 52.8396L119.945 31.609C119.997 31.462 120.012 31.3048 119.99 31.1506C119.969 30.9964 119.91 30.8496 119.82 30.7226C119.73 30.5955 119.611 30.4919 119.472 30.4204C119.334 30.3489 119.18 30.3116 119.025 30.3115H117.839C117.636 30.3112 117.438 30.3741 117.273 30.4914C117.108 30.6087 116.984 30.7746 116.917 30.966L109.517 52.1966C109.479 52.2973 109.46 52.4039 109.46 52.5115C109.462 52.7646 109.561 53.0073 109.736 53.1905" fill="#7476EB"/>
<path d="M86.0556 53.4923H87.2106C87.3386 53.4924 87.4656 53.4673 87.5841 53.4183C87.7026 53.3693 87.8101 53.2975 87.9006 53.2069C87.9916 53.1163 88.0631 53.0087 88.1121 52.8903C88.1611 52.7718 88.1861 52.6449 88.1861 52.5168V42.5573C88.1911 41.985 88.2861 41.4171 88.4671 40.8743C88.6516 40.3028 88.9291 39.7657 89.2886 39.2848C89.6201 38.833 90.0411 38.4543 90.5251 38.1723C91.0001 37.9066 91.5376 37.7739 92.0816 37.7883C92.6756 37.7508 93.2651 37.9077 93.7616 38.2353C94.2016 38.574 94.5321 39.0349 94.7116 39.5603C94.9636 40.2718 95.0851 41.0227 95.0711 41.7773V52.5168C95.0711 52.7755 95.1741 53.0236 95.3571 53.2066C95.5396 53.3895 95.7881 53.4923 96.0466 53.4923H97.2016C97.3296 53.4924 97.4566 53.4672 97.5751 53.4182C97.6931 53.3692 97.8011 53.2973 97.8916 53.2067C97.9821 53.1161 98.0536 53.0085 98.1026 52.8901C98.1516 52.7718 98.1766 52.6449 98.1766 52.5168V42.5573C98.1816 41.9851 98.2761 41.4172 98.4571 40.8743C98.6411 40.3025 98.9186 39.7652 99.2781 39.2843C99.6096 38.8325 100.031 38.4539 100.515 38.1718C100.99 37.9062 101.528 37.7735 102.072 37.7878C102.665 37.7503 103.255 37.9072 103.751 38.2348C104.192 38.573 104.522 39.0338 104.701 39.5593C104.953 40.271 105.075 41.0221 105.061 41.7768V52.5168C105.061 52.7755 105.164 53.0236 105.347 53.2066C105.529 53.3895 105.778 53.4923 106.036 53.4923H107.191C107.319 53.4924 107.446 53.4673 107.565 53.4183C107.683 53.3693 107.791 53.2975 107.881 53.2069C107.972 53.1163 108.044 53.0087 108.093 52.8903C108.142 52.7718 108.167 52.6449 108.167 52.5168V41.4953C108.196 40.3109 107.983 39.133 107.541 38.0338C107.13 37.0489 106.427 36.2141 105.525 35.6428C104.561 35.067 103.453 34.7771 102.331 34.8068H102.311C101.114 34.7963 99.9396 35.1307 98.9276 35.7698C98.2611 36.199 97.6796 36.7477 97.2126 37.3883C96.8071 36.684 96.2396 36.0867 95.5566 35.6463C94.6081 35.0693 93.5131 34.7778 92.4031 34.8068H92.3806C91.1946 34.8 90.0316 35.1344 89.0306 35.7703C88.7301 35.9654 88.4481 36.1869 88.1871 36.4323V36.0823C88.1841 35.8279 88.0816 35.5848 87.9021 35.4045C87.7226 35.2243 87.4801 35.1211 87.2256 35.1168H86.0556C85.7971 35.1168 85.5486 35.2196 85.3661 35.4025C85.1831 35.5854 85.0801 35.8336 85.0801 36.0923V52.5168C85.0801 52.7755 85.1831 53.0236 85.3661 53.2066C85.5486 53.3895 85.7971 53.4923 86.0556 53.4923Z" fill="#272827"/>
<path d="M70.6605 52.6257C71.9715 53.4151 73.4805 53.8141 75.0105 53.7757H75.029C76.5295 53.8088 78.01 53.4245 79.305 52.6657C80.5655 51.8813 81.5545 50.7282 82.1375 49.3627C82.799 47.7702 83.1225 46.0577 83.0875 44.3337C83.121 42.6245 82.805 40.9264 82.159 39.3437C81.587 37.9707 80.6175 36.8002 79.375 35.9827C78.0715 35.1799 76.5625 34.7735 75.032 34.8132H75.012C73.504 34.7814 72.017 35.1716 70.719 35.9397C69.457 36.7242 68.4679 37.8791 67.8865 39.2467C67.2247 40.86 66.9079 42.594 66.9565 44.3372C66.9198 46.0246 67.2285 47.7018 67.8635 49.2657C68.4267 50.6475 69.4037 51.8212 70.6605 52.6257ZM71.4105 39.3547C71.8035 38.8497 72.3145 38.4488 72.8985 38.1872C73.5695 37.9096 74.2905 37.7734 75.0165 37.7872C75.7255 37.7738 76.429 37.9119 77.08 38.1922C77.6665 38.4666 78.1785 38.8782 78.572 39.3922C79.4245 40.4837 79.909 42.0852 79.91 44.3017V44.3047C79.91 46.5887 79.426 48.2107 78.604 49.2577C78.216 49.7613 77.709 50.1612 77.129 50.4217C76.46 50.6992 75.741 50.8354 75.017 50.8217C74.3355 50.862 73.654 50.7364 73.0315 50.4557C72.409 50.1751 71.864 49.7477 71.443 49.2102C70.58 48.1157 70.093 46.5282 70.093 44.3352V44.3322C70.093 42.0287 70.582 40.3987 71.412 39.3542" fill="#272827"/>
<path d="M50.378 30.038V52.517C50.3779 52.6452 50.403 52.772 50.452 52.8904C50.5009 53.0089 50.5728 53.1164 50.6635 53.2071C50.7541 53.2977 50.8616 53.3696 50.98 53.4185C51.0984 53.4675 51.2254 53.4927 51.3535 53.4925H52.5235C52.7767 53.4879 53.0184 53.3853 53.1976 53.2063C53.3768 53.0273 53.4797 52.7857 53.4845 52.5325V42.5575C53.4903 41.9919 53.5929 41.4314 53.788 40.9005C53.9928 40.3256 54.2964 39.7907 54.685 39.32C55.0666 38.8527 55.5411 38.47 56.0785 38.196C56.6474 37.914 57.2762 37.7743 57.911 37.789C58.6244 37.7497 59.334 37.9173 59.9545 38.2715C60.4444 38.5886 60.8232 39.0508 61.038 39.5935C61.3127 40.2884 61.4464 41.0309 61.431 41.778V52.518C61.431 52.7767 61.5338 53.0249 61.7167 53.2078C61.8997 53.3907 62.1478 53.4935 62.4065 53.4935H63.6065C63.86 53.4891 64.102 53.3865 64.2814 53.2073C64.4607 53.028 64.5635 52.786 64.568 52.5325V41.496C64.5995 40.2866 64.3513 39.0863 63.843 37.9885C63.364 36.9982 62.5986 36.1746 61.646 35.6245C60.5987 35.0543 59.419 34.772 58.227 34.8065H58.2125C56.9484 34.7943 55.7049 35.1277 54.6165 35.771C54.211 36.0121 53.8316 36.2948 53.4845 36.6145V30.038C53.4845 29.9099 53.4592 29.783 53.4102 29.6646C53.3611 29.5462 53.2893 29.4386 53.1986 29.348C53.108 29.2575 53.0004 29.1856 52.882 29.1366C52.7636 29.0876 52.6366 29.0624 52.5085 29.0625H51.338C51.0841 29.067 50.8418 29.1698 50.6622 29.3493C50.4826 29.5289 50.3796 29.7711 50.375 30.025L50.378 30.038Z" fill="#272827"/>
<path d="M42.3232 32.286V48.3006C42.3262 49.9406 42.6462 51.3006 43.5127 52.2651C44.4127 53.2421 45.7627 53.6151 47.3537 53.6151C47.5407 53.6151 47.7241 53.6092 47.9037 53.5976C48.1379 53.5852 48.3688 53.5366 48.5882 53.4536C48.7698 53.3822 48.9259 53.258 49.0363 53.097C49.1466 52.9361 49.2061 52.7457 49.2072 52.5506V51.6746C49.2068 51.4161 49.1039 51.1684 48.921 50.9858C48.7381 50.8031 48.4902 50.7006 48.2317 50.7006H47.7737C47.3264 50.7107 46.8799 50.656 46.4482 50.5381C46.2488 50.4942 46.0656 50.3955 45.9192 50.2531L45.9082 50.2396C45.6942 50.0106 45.4582 49.3826 45.4582 48.3346V38.0381H47.4947C47.7482 38.0336 47.99 37.9309 48.1693 37.7516C48.3485 37.5724 48.4512 37.3305 48.4557 37.0771V36.0951C48.4557 35.8364 48.3529 35.5882 48.17 35.4053C47.9871 35.2223 47.7389 35.1196 47.4802 35.1196H45.4607V32.286C45.4607 32.0273 45.3579 31.7792 45.175 31.5963C44.9921 31.4133 44.7439 31.3105 44.4852 31.3105H43.2852C43.0314 31.315 42.7892 31.4179 42.6098 31.5975C42.4303 31.777 42.3276 32.0192 42.3232 32.273V32.286Z" fill="#272827"/>
<path d="M25.6671 48.2405V48.252C25.6449 49.3078 25.9333 50.3468 26.4966 51.24C27.0609 52.0967 27.8675 52.766 28.8136 53.1625C29.8675 53.5923 30.9987 53.8004 32.1366 53.774C33.0121 53.7638 33.879 53.6017 34.6991 53.295C35.6214 52.9557 36.4746 52.4522 37.2176 51.809C37.3641 51.684 37.5021 51.5505 37.6366 51.4135C37.7235 51.9827 37.9166 52.5305 38.2056 53.0285C38.2925 53.171 38.4146 53.2886 38.5603 53.37C38.706 53.4514 38.8702 53.4938 39.0371 53.493L39.6081 53.4865C39.8649 53.4836 40.1102 53.3796 40.2908 53.1969C40.4713 53.0143 40.5726 52.7678 40.5726 52.511V42.061C40.6009 40.7794 40.3595 39.5063 39.8641 38.324C39.3887 37.2292 38.5776 36.3138 37.5481 35.71C36.3886 35.0754 35.0796 34.7645 33.7586 34.81C32.4565 34.7773 31.1638 35.0399 29.9776 35.578C28.9142 36.0798 28.0195 36.8797 27.4021 37.8805L27.3976 37.8875C27.315 38.0209 27.2712 38.1746 27.2711 38.3315C27.2723 38.5159 27.3306 38.6953 27.4381 38.8452C27.5456 38.995 27.6969 39.1078 27.8711 39.168L28.8286 39.5085C28.9744 39.5603 29.1279 39.5867 29.2826 39.5865C29.4862 39.5861 29.6872 39.5404 29.871 39.4527C30.0548 39.365 30.2167 39.2375 30.3451 39.0795C30.4356 38.9688 30.5321 38.8631 30.6341 38.763C31.2606 38.155 32.1901 37.7965 33.6341 37.791C34.2566 37.7763 34.8766 37.8729 35.4651 38.0765C35.8867 38.2283 36.2596 38.4906 36.5451 38.836C37.0871 39.501 37.4281 40.529 37.4601 42.002C36.0661 42.024 34.8296 42.082 33.7601 42.182C32.4172 42.3018 31.0928 42.5775 29.8136 43.0035H29.8091L29.7976 43.007C28.6276 43.3261 27.5751 43.9776 26.7676 44.8825C26.0158 45.829 25.6258 47.0124 25.6676 48.2205L25.6671 48.2405ZM36.7571 48.078C36.2889 48.8946 35.6273 49.5838 34.8306 50.085C34.0542 50.5787 33.1507 50.8354 32.2306 50.8235C31.3011 50.8894 30.3781 50.6262 29.6231 50.08C29.3611 49.8677 29.1523 49.5972 29.0131 49.29C28.8688 48.9368 28.7979 48.558 28.8046 48.1765C28.7976 47.728 28.91 47.2858 29.1301 46.895C29.4241 46.4622 29.8413 46.1276 30.3276 45.9345C31.2941 45.5286 32.3138 45.2631 33.3556 45.146C34.7197 44.9664 36.0934 44.8699 37.4691 44.857V45.4605C37.4723 46.381 37.2265 47.2853 36.7576 48.0775" fill="#272827"/>
</g>
<defs>
<clipPath id="clip0_401_2533">
<rect width="50" height="12.5" fill="white" transform="translate(157 35)"/>
</clipPath>
<clipPath id="clip1_401_2533">
<rect width="100" height="25" fill="white" transform="translate(20 29)"/>
</clipPath>
</defs>
</svg>
