<svg width="250" height="82" viewBox="0 0 250 82" fill="none" xmlns="http://www.w3.org/2000/svg">
<g clip-path="url(#clip0_401_3186)">
<path d="M31.4424 16.4659C25.123 16.4659 20 21.5889 20 27.9084C20 34.2279 25.123 39.3509 31.4425 39.3509C37.7619 39.3509 42.8849 34.2279 42.8849 27.9084C42.8849 21.5889 37.7619 16.4659 31.4424 16.4659Z" fill="#DF3F40"/>
<path fill-rule="evenodd" clip-rule="evenodd" d="M46.6992 27.9084C46.6992 21.5889 51.8222 16.4659 58.1416 16.4659C64.4612 16.4659 69.5842 21.5889 69.5842 27.9083V39.2369C69.5842 39.2998 69.5332 39.3508 69.4701 39.3508H58.1416C51.8222 39.3508 46.6992 34.2279 46.6992 27.9084Z" fill="#00BCA6"/>
<path d="M20 54.6075C20 48.288 25.123 43.165 31.4424 43.165C37.7619 43.165 42.8849 48.288 42.8849 54.6075V65.9359C42.8849 65.999 42.8339 66.05 42.771 66.05H31.4424C25.123 66.05 20 60.927 20 54.6075Z" fill="#967DB8"/>
<path d="M46.6992 54.6075C46.6992 48.288 51.8222 43.165 58.1416 43.165C64.4612 43.165 69.5842 48.288 69.5842 54.6075V65.9359C69.5842 65.999 69.5332 66.05 69.4701 66.05H46.8131C46.7502 66.05 46.6992 65.999 46.6992 65.9359V54.6075Z" fill="#EDC500"/>
</g>
<g clip-path="url(#clip1_401_3186)">
<path fill-rule="evenodd" clip-rule="evenodd" d="M174.945 33.3607C174.441 33.8649 173.836 34.117 173.129 34.117C172.444 34.117 171.849 33.8649 171.346 33.3607C170.843 32.8565 170.591 32.2611 170.591 31.5746C170.591 30.888 170.843 30.2873 171.346 29.7724C171.849 29.2575 172.444 29 173.129 29C173.836 29 174.441 29.2575 174.945 29.7724C175.448 30.2873 175.7 30.888 175.7 31.5746C175.7 32.2611 175.448 32.8565 174.945 33.3607ZM156.606 52.139C153.8 52.4607 150.895 52.1979 149.706 51.3506C148.518 50.5031 147.923 48.9637 147.923 46.7324V40.0385H145.128V36.0479H147.923V31.5746L152.068 31.5424V36.0479H155.699V40.0385H152.068V46.7324C152.068 47.2902 152.207 47.6979 152.486 47.9553C152.764 48.2128 153.171 48.3576 153.707 48.3898C154.242 48.422 155.814 48.4166 156.606 48.3737V52.139ZM133.656 52.5896C135.905 52.5896 137.651 51.8065 138.893 50.2403V52.139H143.038V36.0479H138.893V37.9467C137.651 36.3805 135.905 35.5974 133.656 35.5974C131.514 35.5974 129.671 36.4234 128.129 38.0754C126.608 39.7274 125.848 41.7334 125.848 44.0935C125.848 46.475 126.608 48.4917 128.129 50.1437C129.671 51.7743 131.514 52.5896 133.656 52.5896ZM134.427 48.6312C133.142 48.6312 132.081 48.2128 131.246 47.3761C130.41 46.5179 129.993 45.4237 129.993 44.0935C129.993 42.7633 130.41 41.6798 131.246 40.843C132.081 39.9849 133.142 39.5558 134.427 39.5558C135.712 39.5558 136.772 39.9849 137.608 40.843C138.465 41.6798 138.893 42.7633 138.893 44.0935C138.893 45.4237 138.465 46.5179 137.608 47.3761C136.772 48.2128 135.712 48.6312 134.427 48.6312ZM161.899 51.3506C163.088 52.1979 165.993 52.4607 168.799 52.139V48.3737C168.007 48.4166 166.435 48.422 165.9 48.3898C165.364 48.3576 164.957 48.2128 164.679 47.9553C164.4 47.6979 164.261 47.2902 164.261 46.7324V40.0385H167.892V36.0479H164.261V31.5424L160.116 31.5746V36.0479H157.32V40.0385H160.116V46.7324C160.116 48.9637 160.71 50.5031 161.899 51.3506ZM175.218 52.139V36.0479H171.073V52.139H175.218ZM186.287 52.5896C188.686 52.5896 190.7 51.7743 192.328 50.1437C193.977 48.4917 194.802 46.475 194.802 44.0935C194.802 41.7334 193.977 39.7274 192.328 38.0754C190.678 36.4234 188.665 35.5974 186.287 35.5974C183.909 35.5974 181.896 36.4234 180.246 38.0754C178.618 39.706 177.804 41.712 177.804 44.0935C177.804 46.4964 178.618 48.5132 180.246 50.1437C181.874 51.7743 183.888 52.5896 186.287 52.5896ZM186.287 48.5346C185.045 48.5346 184.006 48.1163 183.17 47.2795C182.356 46.4213 181.949 45.3593 181.949 44.0935C181.949 42.8276 182.356 41.7656 183.17 40.9074C184.006 40.0707 185.045 39.6523 186.287 39.6523C187.529 39.6523 188.568 40.0707 189.404 40.9074C190.239 41.7442 190.657 42.8062 190.657 44.0935C190.657 45.3808 190.239 46.4428 189.404 47.2795C188.568 48.1163 187.529 48.5346 186.287 48.5346Z" fill="black"/>
<path d="M100.444 29.9146C97.4373 29.9146 95 32.3518 95 35.3583C95 38.3648 97.4373 40.8021 100.444 40.8021C103.45 40.8021 105.888 38.3648 105.888 35.3583C105.888 32.3518 103.45 29.9146 100.444 29.9146Z" fill="#DF3F40"/>
<path fill-rule="evenodd" clip-rule="evenodd" d="M107.702 35.3583C107.702 32.3518 110.139 29.9146 113.146 29.9146C116.152 29.9146 118.59 32.3518 118.59 35.3583V40.7479C118.59 40.7778 118.565 40.802 118.535 40.802H113.146C110.139 40.802 107.702 38.3648 107.702 35.3583Z" fill="#00BCA6"/>
<path d="M95 48.0603C95 45.0538 97.4373 42.6166 100.444 42.6166C103.45 42.6166 105.888 45.0538 105.888 48.0603V53.4498C105.888 53.4799 105.863 53.5041 105.833 53.5041H100.444C97.4373 53.5041 95 51.0668 95 48.0603Z" fill="#967DB8"/>
<path d="M107.702 48.0603C107.702 45.0538 110.139 42.6166 113.146 42.6166C116.152 42.6166 118.59 45.0538 118.59 48.0603V53.4498C118.59 53.4799 118.565 53.5041 118.535 53.5041H107.756C107.726 53.5041 107.702 53.4799 107.702 53.4498V48.0603Z" fill="#EDC500"/>
</g>
<defs>
<clipPath id="clip0_401_3186">
<rect width="50" height="50.4854" fill="white" transform="translate(20 16)"/>
</clipPath>
<clipPath id="clip1_401_3186">
<rect width="100" height="24.7113" fill="white" transform="translate(95 29)"/>
</clipPath>
</defs>
</svg>
