<svg width="250" height="82" viewBox="0 0 250 82" fill="none" xmlns="http://www.w3.org/2000/svg">
<g clipPath="url(#clip0_401_2422)">
<path fillRule="evenodd" clipRule="evenodd" d="M20 34.5L32.5 22H57.5L70 34.5L57.5 47L45 59.5L20 34.5ZM57.5 47L45 34.5L57.5 22V47Z" fill="#0D61FF"/>
</g>
<g clipPath="url(#clip1_401_2422)">
<path fillRule="evenodd" clipRule="evenodd" d="M94 36.4488L103.449 27H122.346L131.795 36.4488L122.346 45.8976L112.898 55.3465L94 36.4488ZM122.346 45.8976L112.898 36.4488L122.346 27V45.8976Z" fill="#0D61FF"/>
<path d="M172.642 50.6216H176.515V42.3683C176.515 40.4718 177.716 39.5103 179.212 39.5103C180.574 39.5103 181.402 40.3116 181.402 42.1012V50.6216H185.249V42.3683C185.249 40.4718 186.451 39.5103 187.946 39.5103C189.335 39.5103 190.136 40.3116 190.136 42.1012V50.6216H193.983V41.6738C193.983 37.9612 191.979 36.3319 189.389 36.3319C187.626 36.3319 185.809 37.0797 184.688 38.7625C184.02 37.1064 182.631 36.3319 180.788 36.3319C178.705 36.3319 177.209 37.4803 176.515 38.7891V36.6524H172.642V50.6216Z" fill="#17181A"/>
<path d="M164.101 50.9181C167.921 50.9181 170.325 49.2354 170.779 46.2172H167.12C166.879 47.3924 165.998 48.167 164.208 48.167C162.098 48.167 160.843 46.8315 160.736 44.5077H170.806V43.4393C170.806 38.4447 167.6 36.3346 163.994 36.3346C159.935 36.3346 156.81 39.1925 156.81 43.5996V43.8133C156.81 48.2738 159.881 50.9181 164.101 50.9181ZM160.789 42.1305C161.083 40.154 162.258 39.0056 163.994 39.0056C165.838 39.0056 166.906 40.0206 167.039 42.1305H160.789Z" fill="#17181A"/>
<path d="M146.242 50.9173C151.958 50.9173 155.216 47.5252 155.216 42.4236V40.3937H146.642V43.5454H150.943C150.863 45.7357 149.554 47.5786 146.349 47.5786C142.609 47.5786 141.033 44.9344 141.033 41.2484V41.0348C141.033 37.1352 142.983 34.6512 146.295 34.6512C148.592 34.6512 150.061 35.6662 150.435 37.9097H154.736C154.281 33.1822 150.489 31.2323 146.242 31.2323C140.606 31.2323 136.52 35.2387 136.52 40.9814V41.195C136.52 46.8575 139.992 50.9173 146.242 50.9173Z" fill="#17181A"/>
</g>
<defs>
<clipPath id="clip0_401_2422">
<rect width="50" height="37.5" fill="white" transform="translate(20 22)"/>
</clipPath>
<clipPath id="clip1_401_2422">
<rect width="100" height="28.3465" fill="white" transform="translate(94 27)"/>
</clipPath>
</defs>
</svg>
