<svg width="250" height="82" viewBox="0 0 250 82" fill="none" xmlns="http://www.w3.org/2000/svg">
<path d="M52.2355 17.1904H38.8096C29.0788 17.1904 21.1904 25.0575 21.1904 34.762V48.1516C21.1904 57.8561 29.0788 65.7232 38.8096 65.7232H52.2355C61.9664 65.7232 69.8547 57.8561 69.8547 48.1516V34.762C69.8547 25.0575 61.9664 17.1904 52.2355 17.1904Z" fill="url(#paint0_linear_401_1165)" stroke="#D8DBE3" stroke-width="0.170081"/>
<path fill-rule="evenodd" clip-rule="evenodd" d="M45.5698 53.1599V58.0385C44.7616 58.0385 44.0284 57.7178 43.4892 57.1981C43.4873 57.1981 43.4873 57.1981 43.4873 57.1965L43.0834 56.7153L29.8558 41.0137C29.8472 41.0097 29.8409 41.001 29.8364 40.9922L29.783 40.9305C29.7789 40.926 29.7764 40.9218 29.7726 40.9174C29.7082 40.83 29.6527 40.7359 29.6163 40.6331C29.567 40.5113 29.5393 40.3788 29.5352 40.2421V40.1609C29.5352 40.1353 29.5372 40.1092 29.5417 40.0836C29.565 39.8146 29.6804 39.5747 29.8558 39.3867C30.0718 39.1537 30.3838 39.0063 30.7277 39.0063H33.6423L45.5677 53.1619L45.5698 53.1599Z" fill="url(#paint1_linear_401_1165)"/>
<path fill-rule="evenodd" clip-rule="evenodd" d="M45.5698 53.1599V58.0385C44.7616 58.0385 44.0284 57.7178 43.4892 57.1981C43.4873 57.1981 43.4873 57.1981 43.4873 57.1965L43.0834 56.7153L29.8558 41.0137C29.8472 41.0097 29.8409 41.001 29.8364 40.9922L29.783 40.9305C29.7789 40.926 29.7764 40.9218 29.7726 40.9174C29.7082 40.83 29.6527 40.7359 29.6163 40.6331C29.567 40.5113 29.5393 40.3788 29.5352 40.2421V40.1609C29.5352 40.1353 29.5372 40.1092 29.5417 40.0836C29.565 39.8146 29.6804 39.5747 29.8558 39.3867C30.0718 39.1537 30.3838 39.0063 30.7277 39.0063H33.6423L45.5677 53.1619L45.5698 53.1599Z" fill="url(#paint2_linear_401_1165)"/>
<path fill-rule="evenodd" clip-rule="evenodd" d="M45.5698 53.1599V58.0385C44.7616 58.0385 44.0284 57.7178 43.4892 57.1981C43.4873 57.1981 43.4873 57.1981 43.4873 57.1965L43.0834 56.7153L33.2145 45.0012L29.8558 41.0137C29.8472 41.0097 29.8409 41.001 29.8364 40.9922L29.783 40.9305C29.7789 40.926 29.7764 40.9218 29.7726 40.9174C29.7082 40.83 29.6527 40.7359 29.6163 40.6331C29.567 40.5113 29.5393 40.3788 29.5352 40.2421V40.1609C29.5352 40.1353 29.5372 40.1092 29.5417 40.0836C29.565 39.8146 29.6804 39.5747 29.8558 39.3867C30.0718 39.1537 30.3838 39.0063 30.7277 39.0063H33.6423L35.0127 40.6331L38.692 45.0012L44.725 52.1615L45.5677 53.1619L45.5698 53.1599Z" fill="url(#paint3_linear_401_1165)" fill-opacity="0.4"/>
<path fill-rule="evenodd" clip-rule="evenodd" d="M45.5698 46.6794V53.1931L45.5677 53.1952L29.8336 34.5696C29.8177 34.5519 29.8018 34.5319 29.7858 34.5115C29.7158 34.422 29.6575 34.322 29.6152 34.2117C29.5674 34.09 29.5393 33.9579 29.5352 33.8181V33.738C29.5431 33.4402 29.6634 33.1723 29.8558 32.9686C30.0704 32.7324 30.3828 32.5864 30.7277 32.5864H33.6661L45.5698 46.6794Z" fill="url(#paint4_linear_401_1165)"/>
<path fill-rule="evenodd" clip-rule="evenodd" d="M45.5698 46.6794V53.1931L45.5677 53.1952L29.8336 34.5696C29.8177 34.5519 29.8018 34.5319 29.7858 34.5115C29.7158 34.422 29.6575 34.322 29.6152 34.2117C29.5674 34.09 29.5393 33.9579 29.5352 33.8181V33.738C29.5431 33.4402 29.6634 33.1723 29.8558 32.9686C30.0704 32.7324 30.3828 32.5864 30.7277 32.5864H33.6661L45.5698 46.6794Z" fill="url(#paint5_linear_401_1165)"/>
<path fill-rule="evenodd" clip-rule="evenodd" d="M45.5698 46.6794V53.1931L45.5677 53.1952L44.726 52.1974L38.6929 45.0562L35.013 40.6996L33.6423 39.0762L29.8336 34.5696C29.8177 34.5519 29.8018 34.5319 29.7858 34.5115C29.7158 34.422 29.6575 34.322 29.6152 34.2117C29.5674 34.09 29.5393 33.9579 29.5352 33.8181V33.738C29.5431 33.4402 29.6634 33.1723 29.8558 32.9686C30.0704 32.7324 30.3828 32.5864 30.7277 32.5864H33.6661L35.039 34.2117L39.1482 39.0762L40.5189 40.6996L44.1989 45.0562L45.5698 46.6794Z" fill="url(#paint6_linear_401_1165)" fill-opacity="0.3"/>
<path fill-rule="evenodd" clip-rule="evenodd" d="M30.6779 26.0552C30.3344 26.0552 30.0196 26.1997 29.8061 26.4365C29.6136 26.6371 29.494 26.9099 29.4854 27.2065V27.2854C29.4892 27.4261 29.5169 27.5582 29.5665 27.6795C29.5686 27.6902 29.5731 27.6989 29.5769 27.7096C29.6157 27.8012 29.6646 27.8863 29.7267 27.9655C29.7478 27.9955 29.7717 28.0232 29.7974 28.0485C29.8015 28.055 29.8078 28.0612 29.8144 28.0678L45.5198 46.6585V58.038C45.595 58.038 45.6679 58.036 45.7402 58.0297C46.4607 57.979 47.1107 57.6716 47.6002 57.2003C47.6026 57.2003 47.6026 57.2003 47.6026 57.1978L48.0067 56.7184L61.2536 41.0359C61.2706 41.019 61.2856 40.9996 61.3007 40.9805C61.3733 40.8909 61.4309 40.7903 61.4734 40.6797C61.5271 40.5475 61.5549 40.4028 61.5549 40.2488V27.2449C61.5549 26.9313 61.4328 26.6433 61.2323 26.4345C61.0162 26.1997 60.7059 26.0552 60.3596 26.0552H30.6779Z" fill="url(#paint7_linear_401_1165)"/>
<path fill-rule="evenodd" clip-rule="evenodd" d="M30.6779 26.0552C30.3344 26.0552 30.0196 26.1997 29.8061 26.4365C29.6136 26.6371 29.494 26.9099 29.4854 27.2065V27.2854C29.4892 27.4261 29.5169 27.5582 29.5665 27.6795C29.5686 27.6902 29.5731 27.6989 29.5769 27.7096C29.6157 27.8012 29.6646 27.8863 29.7267 27.9655C29.7478 27.9955 29.7717 28.0232 29.7974 28.0485C29.8015 28.055 29.8078 28.0612 29.8144 28.0678L45.5198 46.6585V58.038C45.595 58.038 45.6679 58.036 45.7402 58.0297C46.4607 57.979 47.1107 57.6716 47.6002 57.2003C47.6026 57.2003 47.6026 57.2003 47.6026 57.1978L48.0067 56.7184L61.2536 41.0359C61.2706 41.019 61.2856 40.9996 61.3007 40.9805C61.3733 40.8909 61.4309 40.7903 61.4734 40.6797C61.5271 40.5475 61.5549 40.4028 61.5549 40.2488V27.2449C61.5549 26.9313 61.4328 26.6433 61.2323 26.4345C61.0162 26.1997 60.7059 26.0552 60.3596 26.0552H30.6779Z" fill="url(#paint8_linear_401_1165)"/>
<path fill-rule="evenodd" clip-rule="evenodd" d="M30.6779 26.0552C30.3344 26.0552 30.0196 26.1997 29.8061 26.4365C29.6136 26.6371 29.494 26.9099 29.4854 27.2065V27.2854C29.4892 27.4261 29.5169 27.5582 29.5665 27.6795C29.5686 27.6902 29.5731 27.6989 29.5769 27.7096C29.6157 27.8012 29.6646 27.8863 29.7267 27.9655C29.7478 27.9955 29.7717 28.0232 29.7974 28.0485C29.8015 28.055 29.8078 28.0612 29.8144 28.0678L45.5198 46.6585V58.038C45.595 58.038 45.6679 58.036 45.7402 58.0297C46.4607 57.979 47.1107 57.6716 47.6002 57.2003C47.6026 57.2003 47.6026 57.2003 47.6026 57.1978L48.0067 56.7184L61.2536 41.0359C61.2706 41.019 61.2856 40.9996 61.3007 40.9805C61.3733 40.8909 61.4309 40.7903 61.4734 40.6797C61.5271 40.5475 61.5549 40.4028 61.5549 40.2488V27.2449C61.5549 26.9313 61.4328 26.6433 61.2323 26.4345C61.0162 26.1997 60.7059 26.0552 60.3596 26.0552H30.6779Z" fill="url(#paint9_linear_401_1165)"/>
<path fill-rule="evenodd" clip-rule="evenodd" d="M30.6779 26.0552C30.3344 26.0552 30.0196 26.1997 29.8061 26.4365C29.6136 26.6371 29.494 26.9099 29.4854 27.2065V27.2854C29.4892 27.4261 29.5169 27.5582 29.5665 27.6795C29.5686 27.6902 29.5731 27.6989 29.5769 27.7096C29.6157 27.8012 29.6646 27.8863 29.7267 27.9655C29.7478 27.9955 29.7717 28.0232 29.7974 28.0485C29.8015 28.055 29.8078 28.0612 29.8144 28.0678L45.5198 46.6585V58.038C45.595 58.038 45.6679 58.036 45.7402 58.0297C46.4607 57.979 47.1107 57.6716 47.6002 57.2003C47.6026 57.2003 47.6026 57.2003 47.6026 57.1978L48.0067 56.7184L61.2536 41.0359C61.2706 41.019 61.2856 40.9996 61.3007 40.9805C61.3733 40.8909 61.4309 40.7903 61.4734 40.6797C61.5271 40.5475 61.5549 40.4028 61.5549 40.2488V27.2449C61.5549 26.9313 61.4328 26.6433 61.2323 26.4345C61.0162 26.1997 60.7059 26.0552 60.3596 26.0552H30.6779Z" fill="url(#paint10_linear_401_1165)"/>
<path fill-rule="evenodd" clip-rule="evenodd" d="M30.6779 26.0552C30.3344 26.0552 30.0196 26.1997 29.8061 26.4365C29.6136 26.6371 29.494 26.9099 29.4854 27.2065V27.2854C29.4892 27.4261 29.5169 27.5582 29.5665 27.6795C29.5686 27.6902 29.5731 27.6989 29.5769 27.7096C29.6157 27.8012 29.6646 27.8863 29.7267 27.9655C29.7478 27.9955 29.7717 28.0232 29.7974 28.0485C29.8015 28.055 29.8078 28.0612 29.8144 28.0678L45.5198 46.6585V58.038C45.595 58.038 45.6679 58.036 45.7402 58.0297C46.4607 57.979 47.1107 57.6716 47.6002 57.2003C47.6026 57.2003 47.6026 57.2003 47.6026 57.1978L48.0067 56.7184L61.2536 41.0359C61.2706 41.019 61.2856 40.9996 61.3007 40.9805C61.3733 40.8909 61.4309 40.7903 61.4734 40.6797C61.5271 40.5475 61.5549 40.4028 61.5549 40.2488V27.2449C61.5549 26.9313 61.4328 26.6433 61.2323 26.4345C61.0162 26.1997 60.7059 26.0552 60.3596 26.0552H30.6779Z" fill="url(#paint11_linear_401_1165)"/>
<path fill-rule="evenodd" clip-rule="evenodd" d="M30.6779 26.0552C30.3344 26.0552 30.0196 26.1997 29.8061 26.4365C29.6136 26.6371 29.494 26.9099 29.4854 27.2065V27.2854C29.4892 27.4261 29.5169 27.5582 29.5665 27.6795C29.5686 27.6902 29.5731 27.6989 29.5769 27.7096C29.6157 27.8012 29.6646 27.8863 29.7267 27.9655C29.7478 27.9955 29.7717 28.0232 29.7974 28.0485C29.8015 28.055 29.8078 28.0612 29.8144 28.0678L45.5198 46.6585V58.038C45.595 58.038 45.6679 58.036 45.7402 58.0297C46.4607 57.979 47.1107 57.6716 47.6002 57.2003C47.6026 57.2003 47.6026 57.2003 47.6026 57.1978L48.0067 56.7184L61.2536 41.0359C61.2706 41.019 61.2856 40.9996 61.3007 40.9805C61.3733 40.8909 61.4309 40.7903 61.4734 40.6797C61.5271 40.5475 61.5549 40.4028 61.5549 40.2488V27.2449C61.5549 26.9313 61.4328 26.6433 61.2323 26.4345C61.0162 26.1997 60.7059 26.0552 60.3596 26.0552H30.6779Z" fill="url(#paint12_linear_401_1165)"/>
<g clip-path="url(#clip0_401_1165)">
<path fill-rule="evenodd" clip-rule="evenodd" d="M135.693 39.9425C135.364 40.2828 134.95 40.4527 134.45 40.4527H132.355V36.907H134.45C134.95 36.907 135.364 37.0743 135.693 37.4088C136.023 37.7432 136.187 38.1671 136.187 38.6797C136.187 39.1815 136.023 39.6026 135.693 39.9425ZM137.345 35.8868C136.562 35.1288 135.597 34.7495 134.45 34.7495H130.005V46.2284H132.355V42.61H134.45C135.597 42.61 136.562 42.2312 137.345 41.4728C138.129 40.7148 138.52 39.7837 138.52 38.6797C138.52 37.576 138.129 36.6452 137.345 35.8868ZM143.196 38.0206C142.724 38.2881 142.386 38.6898 142.182 39.2249V37.6194H139.985V46.2285H142.182V42.2313C142.182 41.4284 142.446 40.8543 142.974 40.5085C143.502 40.1634 144.101 40.0293 144.771 40.1072V37.6194C144.192 37.6194 143.666 37.753 143.196 38.0206ZM148.279 43.5382C148.704 43.962 149.237 44.174 149.878 44.174C150.519 44.174 151.055 43.962 151.486 43.5382C151.917 43.114 152.132 42.576 152.132 41.924C152.132 41.2719 151.917 40.7336 151.486 40.3095C151.055 39.8856 150.519 39.6739 149.878 39.6739C149.237 39.6739 148.704 39.8856 148.279 40.3095C147.854 40.7336 147.641 41.2719 147.641 41.924C147.641 42.576 147.854 43.114 148.279 43.5382ZM152.994 44.9812C152.143 45.8126 151.105 46.2285 149.878 46.2285C148.652 46.2285 147.616 45.8126 146.771 44.9812C145.926 44.1493 145.503 43.1304 145.503 41.924C145.503 40.7172 145.926 39.698 146.771 38.8665C147.616 38.0352 148.652 37.6194 149.878 37.6194C151.105 37.6194 152.143 38.0352 152.994 38.8665C153.845 39.698 154.27 40.7172 154.27 41.924C154.27 43.1304 153.845 44.1493 152.994 44.9812ZM158.7 39.6932H160.625V37.6194H158.7V35.5248L156.503 36.1844V37.6194H155.022V39.6932H156.503V43.3502C156.503 44.4988 156.812 45.2962 157.431 45.7419C158.05 46.1876 159.115 46.3272 160.625 46.1598V44.2032C160.205 44.2258 159.852 44.2285 159.569 44.2116C159.285 44.195 159.069 44.1196 158.922 43.9859C158.774 43.852 158.7 43.6402 158.7 43.3502V39.6932ZM164.133 43.5382C164.558 43.962 165.092 44.174 165.732 44.174C166.373 44.174 166.909 43.962 167.34 43.5382C167.771 43.114 167.986 42.576 167.986 41.924C167.986 41.2719 167.771 40.7336 167.34 40.3095C166.909 39.8856 166.373 39.6739 165.732 39.6739C165.092 39.6739 164.558 39.8856 164.133 40.3095C163.708 40.7336 163.495 41.2719 163.495 41.924C163.495 42.576 163.708 43.114 164.133 43.5382ZM168.848 44.9812C167.997 45.8126 166.959 46.2284 165.732 46.2284C164.506 46.2284 163.47 45.8126 162.625 44.9812C161.78 44.1493 161.357 43.1304 161.357 41.924C161.357 40.7172 161.78 39.698 162.625 38.8665C163.47 38.0352 164.506 37.6194 165.732 37.6194C166.959 37.6194 167.997 38.0352 168.848 38.8665C169.699 39.698 170.124 40.7172 170.124 41.924C170.124 43.1304 169.699 44.1493 168.848 44.9812ZM177.277 39.9425C176.948 40.2828 176.534 40.4527 176.034 40.4527H173.939V36.907H176.034C176.534 36.907 176.948 37.0743 177.277 37.4088C177.606 37.7432 177.771 38.1671 177.771 38.6797C177.771 39.1815 177.606 39.6026 177.277 39.9425ZM178.929 35.8868C178.146 35.1288 177.181 34.7495 176.034 34.7495H171.589V46.2284H173.939V42.61H176.034C177.181 42.61 178.146 42.2312 178.929 41.4728C179.713 40.7148 180.104 39.7837 180.104 38.6797C180.104 37.576 179.713 36.6452 178.929 35.8868ZM181.57 46.2284H183.766V39.0544H181.57V46.2284ZM182.648 37.6192C182.255 37.6192 181.916 37.478 181.628 37.1949C181.34 36.9125 181.196 36.5788 181.196 36.1932C181.196 35.8084 181.34 35.4715 181.628 35.1825C181.916 34.8939 182.255 34.7495 182.648 34.7495C183.052 34.7495 183.398 34.8939 183.686 35.1825C183.974 35.4715 184.118 35.8084 184.118 36.1932C184.118 36.5788 183.974 36.9125 183.686 37.1949C183.398 37.478 183.052 37.6192 182.648 37.6192ZM191.813 41.1576H187.489C187.613 40.6357 187.866 40.2308 188.252 39.9428C188.636 39.6552 189.122 39.5108 189.71 39.5108C190.207 39.5108 190.651 39.6469 191.041 39.9185C191.431 40.1903 191.688 40.6031 191.813 41.1576ZM193.576 44.4838C193.576 44.4838 193.634 44.4048 193.706 44.2957C193.706 44.2957 192.27 43.8632 191.658 43.6805C191.236 44.1076 190.654 44.3208 189.913 44.3208C188.613 44.3208 187.816 43.8099 187.522 42.788H193.916C193.971 42.4839 194 42.1956 194 41.924C194 40.7067 193.596 39.6848 192.788 38.8585C191.98 38.0325 190.954 37.6194 189.71 37.6194C188.398 37.6194 187.324 38.03 186.488 38.8504C185.651 39.6712 185.234 40.6958 185.234 41.924C185.234 43.1631 185.657 44.1904 186.505 45.0056C187.353 45.8208 188.478 46.2285 189.88 46.2285C191.507 46.2285 192.74 45.6471 193.576 44.4838Z" fill="#252830"/>
<path d="M111.699 27.0771H104.079C98.5558 27.0771 94.0786 31.4612 94.0786 36.8692V44.3308C94.0786 49.7388 98.5558 54.1229 104.079 54.1229H111.699C117.222 54.1229 121.699 49.7388 121.699 44.3308V36.8692C121.699 31.4612 117.222 27.0771 111.699 27.0771Z" fill="url(#paint13_linear_401_1165)" stroke="#D8DBE3" stroke-width="0.170081"/>
<g filter="url(#filter0_dd_401_1165)">
<g filter="url(#filter1_ii_401_1165)">
<path fill-rule="evenodd" clip-rule="evenodd" d="M107.916 47.1217V49.8404C107.457 49.8404 107.041 49.6617 106.735 49.3721C106.734 49.3721 106.734 49.3721 106.734 49.3712L106.504 49.1029L98.9969 40.353C98.992 40.3507 98.9885 40.3459 98.9859 40.341L98.9556 40.3067C98.9533 40.3041 98.9519 40.3017 98.9497 40.2993C98.9131 40.2506 98.8816 40.1981 98.861 40.1409C98.833 40.073 98.8173 39.9992 98.8149 39.9229V39.8777C98.8149 39.8635 98.8161 39.849 98.8187 39.8346C98.8319 39.6848 98.8974 39.551 98.9969 39.4463C99.1195 39.3165 99.2966 39.2344 99.4918 39.2344H101.146L107.914 47.1228L107.916 47.1217Z" fill="url(#paint14_linear_401_1165)"/>
<path fill-rule="evenodd" clip-rule="evenodd" d="M107.916 47.1217V49.8404C107.457 49.8404 107.041 49.6617 106.735 49.3721C106.734 49.3721 106.734 49.3721 106.734 49.3712L106.504 49.1029L98.9969 40.353C98.992 40.3507 98.9885 40.3459 98.9859 40.341L98.9556 40.3067C98.9533 40.3041 98.9519 40.3017 98.9497 40.2993C98.9131 40.2506 98.8816 40.1981 98.861 40.1409C98.833 40.073 98.8173 39.9992 98.8149 39.9229V39.8777C98.8149 39.8635 98.8161 39.849 98.8187 39.8346C98.8319 39.6848 98.8974 39.551 98.9969 39.4463C99.1195 39.3165 99.2966 39.2344 99.4918 39.2344H101.146L107.914 47.1228L107.916 47.1217Z" fill="url(#paint15_linear_401_1165)"/>
</g>
<g filter="url(#filter2_ii_401_1165)">
<path fill-rule="evenodd" clip-rule="evenodd" d="M107.916 47.1217V49.8404C107.457 49.8404 107.041 49.6617 106.735 49.3721C106.734 49.3721 106.734 49.3721 106.734 49.3712L106.504 49.1029L100.903 42.5752L98.9969 40.353C98.992 40.3507 98.9885 40.3459 98.9859 40.341L98.9556 40.3067C98.9533 40.3041 98.9519 40.3017 98.9497 40.2993C98.9131 40.2506 98.8816 40.1981 98.861 40.1409C98.833 40.073 98.8173 39.9992 98.8149 39.9229V39.8777C98.8149 39.8635 98.8161 39.849 98.8187 39.8346C98.8319 39.6848 98.8974 39.551 98.9969 39.4463C99.1195 39.3165 99.2966 39.2344 99.4918 39.2344H101.146L101.924 40.1409L104.012 42.5752L107.436 46.5653L107.914 47.1228L107.916 47.1217Z" fill="url(#paint16_linear_401_1165)" fill-opacity="0.4"/>
</g>
<g filter="url(#filter3_ii_401_1165)">
<path fill-rule="evenodd" clip-rule="evenodd" d="M107.916 43.5103V47.1402L107.914 47.1414L98.9843 36.7619C98.9753 36.752 98.9662 36.7409 98.9572 36.7295C98.9175 36.6797 98.8844 36.6239 98.8604 36.5624C98.8332 36.4947 98.8173 36.421 98.8149 36.3431V36.2984C98.8195 36.1325 98.8877 35.9831 98.9969 35.8697C99.1187 35.738 99.296 35.6567 99.4918 35.6567H101.16L107.916 43.5103Z" fill="url(#paint17_linear_401_1165)"/>
<path fill-rule="evenodd" clip-rule="evenodd" d="M107.916 43.5103V47.1402L107.914 47.1414L98.9843 36.7619C98.9753 36.752 98.9662 36.7409 98.9572 36.7295C98.9175 36.6797 98.8844 36.6239 98.8604 36.5624C98.8332 36.4947 98.8173 36.421 98.8149 36.3431V36.2984C98.8195 36.1325 98.8877 35.9831 98.9969 35.8697C99.1187 35.738 99.296 35.6567 99.4918 35.6567H101.16L107.916 43.5103Z" fill="url(#paint18_linear_401_1165)"/>
</g>
<g filter="url(#filter4_ii_401_1165)">
<path fill-rule="evenodd" clip-rule="evenodd" d="M107.916 43.5103V47.1402L107.914 47.1414L107.437 46.5853L104.013 42.6058L101.924 40.1779L101.146 39.2733L98.9843 36.7619C98.9753 36.752 98.9662 36.7409 98.9572 36.7295C98.9175 36.6797 98.8844 36.6239 98.8604 36.5624C98.8332 36.4947 98.8173 36.421 98.8149 36.3431V36.2984C98.8195 36.1325 98.8877 35.9831 98.9969 35.8697C99.1187 35.738 99.296 35.6567 99.4918 35.6567H101.16L101.939 36.5624L104.271 39.2733L105.049 40.1779L107.138 42.6058L107.916 43.5103Z" fill="url(#paint19_linear_401_1165)" fill-opacity="0.3"/>
</g>
<g filter="url(#filter5_ii_401_1165)">
<path fill-rule="evenodd" clip-rule="evenodd" d="M99.4635 32.0171C99.2685 32.0171 99.0898 32.0976 98.9686 32.2296C98.8594 32.3414 98.7915 32.4934 98.7866 32.6587V32.7026C98.7888 32.7811 98.8045 32.8547 98.8327 32.9223C98.8339 32.9283 98.8364 32.9331 98.8386 32.939C98.8606 32.9901 98.8884 33.0375 98.9236 33.0816C98.9356 33.0984 98.9492 33.1138 98.9637 33.1279C98.9661 33.1315 98.9696 33.135 98.9734 33.1387L107.887 43.4987V49.8401C107.93 49.8401 107.971 49.839 108.012 49.8354C108.421 49.8072 108.79 49.6359 109.068 49.3733C109.069 49.3733 109.069 49.3733 109.069 49.3719L109.299 49.1047L116.817 40.3654C116.827 40.3559 116.835 40.3451 116.844 40.3345C116.885 40.2846 116.918 40.2286 116.942 40.1669C116.972 40.0933 116.988 40.0126 116.988 39.9268V32.6801C116.988 32.5053 116.919 32.3448 116.805 32.2285C116.683 32.0976 116.506 32.0171 116.31 32.0171H99.4635Z" fill="url(#paint20_linear_401_1165)"/>
<path fill-rule="evenodd" clip-rule="evenodd" d="M99.4635 32.0171C99.2685 32.0171 99.0898 32.0976 98.9686 32.2296C98.8594 32.3414 98.7915 32.4934 98.7866 32.6587V32.7026C98.7888 32.7811 98.8045 32.8547 98.8327 32.9223C98.8339 32.9283 98.8364 32.9331 98.8386 32.939C98.8606 32.9901 98.8884 33.0375 98.9236 33.0816C98.9356 33.0984 98.9492 33.1138 98.9637 33.1279C98.9661 33.1315 98.9696 33.135 98.9734 33.1387L107.887 43.4987V49.8401C107.93 49.8401 107.971 49.839 108.012 49.8354C108.421 49.8072 108.79 49.6359 109.068 49.3733C109.069 49.3733 109.069 49.3733 109.069 49.3719L109.299 49.1047L116.817 40.3654C116.827 40.3559 116.835 40.3451 116.844 40.3345C116.885 40.2846 116.918 40.2286 116.942 40.1669C116.972 40.0933 116.988 40.0126 116.988 39.9268V32.6801C116.988 32.5053 116.919 32.3448 116.805 32.2285C116.683 32.0976 116.506 32.0171 116.31 32.0171H99.4635Z" fill="url(#paint21_linear_401_1165)"/>
<path fill-rule="evenodd" clip-rule="evenodd" d="M99.4635 32.0171C99.2685 32.0171 99.0898 32.0976 98.9686 32.2296C98.8594 32.3414 98.7915 32.4934 98.7866 32.6587V32.7026C98.7888 32.7811 98.8045 32.8547 98.8327 32.9223C98.8339 32.9283 98.8364 32.9331 98.8386 32.939C98.8606 32.9901 98.8884 33.0375 98.9236 33.0816C98.9356 33.0984 98.9492 33.1138 98.9637 33.1279C98.9661 33.1315 98.9696 33.135 98.9734 33.1387L107.887 43.4987V49.8401C107.93 49.8401 107.971 49.839 108.012 49.8354C108.421 49.8072 108.79 49.6359 109.068 49.3733C109.069 49.3733 109.069 49.3733 109.069 49.3719L109.299 49.1047L116.817 40.3654C116.827 40.3559 116.835 40.3451 116.844 40.3345C116.885 40.2846 116.918 40.2286 116.942 40.1669C116.972 40.0933 116.988 40.0126 116.988 39.9268V32.6801C116.988 32.5053 116.919 32.3448 116.805 32.2285C116.683 32.0976 116.506 32.0171 116.31 32.0171H99.4635Z" fill="url(#paint22_linear_401_1165)"/>
<path fill-rule="evenodd" clip-rule="evenodd" d="M99.4635 32.0171C99.2685 32.0171 99.0898 32.0976 98.9686 32.2296C98.8594 32.3414 98.7915 32.4934 98.7866 32.6587V32.7026C98.7888 32.7811 98.8045 32.8547 98.8327 32.9223C98.8339 32.9283 98.8364 32.9331 98.8386 32.939C98.8606 32.9901 98.8884 33.0375 98.9236 33.0816C98.9356 33.0984 98.9492 33.1138 98.9637 33.1279C98.9661 33.1315 98.9696 33.135 98.9734 33.1387L107.887 43.4987V49.8401C107.93 49.8401 107.971 49.839 108.012 49.8354C108.421 49.8072 108.79 49.6359 109.068 49.3733C109.069 49.3733 109.069 49.3733 109.069 49.3719L109.299 49.1047L116.817 40.3654C116.827 40.3559 116.835 40.3451 116.844 40.3345C116.885 40.2846 116.918 40.2286 116.942 40.1669C116.972 40.0933 116.988 40.0126 116.988 39.9268V32.6801C116.988 32.5053 116.919 32.3448 116.805 32.2285C116.683 32.0976 116.506 32.0171 116.31 32.0171H99.4635Z" fill="url(#paint23_linear_401_1165)"/>
<path fill-rule="evenodd" clip-rule="evenodd" d="M99.4635 32.0171C99.2685 32.0171 99.0898 32.0976 98.9686 32.2296C98.8594 32.3414 98.7915 32.4934 98.7866 32.6587V32.7026C98.7888 32.7811 98.8045 32.8547 98.8327 32.9223C98.8339 32.9283 98.8364 32.9331 98.8386 32.939C98.8606 32.9901 98.8884 33.0375 98.9236 33.0816C98.9356 33.0984 98.9492 33.1138 98.9637 33.1279C98.9661 33.1315 98.9696 33.135 98.9734 33.1387L107.887 43.4987V49.8401C107.93 49.8401 107.971 49.839 108.012 49.8354C108.421 49.8072 108.79 49.6359 109.068 49.3733C109.069 49.3733 109.069 49.3733 109.069 49.3719L109.299 49.1047L116.817 40.3654C116.827 40.3559 116.835 40.3451 116.844 40.3345C116.885 40.2846 116.918 40.2286 116.942 40.1669C116.972 40.0933 116.988 40.0126 116.988 39.9268V32.6801C116.988 32.5053 116.919 32.3448 116.805 32.2285C116.683 32.0976 116.506 32.0171 116.31 32.0171H99.4635Z" fill="url(#paint24_linear_401_1165)"/>
<path fill-rule="evenodd" clip-rule="evenodd" d="M99.4635 32.0171C99.2685 32.0171 99.0898 32.0976 98.9686 32.2296C98.8594 32.3414 98.7915 32.4934 98.7866 32.6587V32.7026C98.7888 32.7811 98.8045 32.8547 98.8327 32.9223C98.8339 32.9283 98.8364 32.9331 98.8386 32.939C98.8606 32.9901 98.8884 33.0375 98.9236 33.0816C98.9356 33.0984 98.9492 33.1138 98.9637 33.1279C98.9661 33.1315 98.9696 33.135 98.9734 33.1387L107.887 43.4987V49.8401C107.93 49.8401 107.971 49.839 108.012 49.8354C108.421 49.8072 108.79 49.6359 109.068 49.3733C109.069 49.3733 109.069 49.3733 109.069 49.3719L109.299 49.1047L116.817 40.3654C116.827 40.3559 116.835 40.3451 116.844 40.3345C116.885 40.2846 116.918 40.2286 116.942 40.1669C116.972 40.0933 116.988 40.0126 116.988 39.9268V32.6801C116.988 32.5053 116.919 32.3448 116.805 32.2285C116.683 32.0976 116.506 32.0171 116.31 32.0171H99.4635Z" fill="url(#paint25_linear_401_1165)"/>
</g>
</g>
</g>
<defs>
<filter id="filter0_dd_401_1165" x="96.2306" y="30.0696" width="25.0178" height="24.6394" filterUnits="userSpaceOnUse" color-interpolation-filters="sRGB">
<feFlood flood-opacity="0" result="BackgroundImageFix"/>
<feColorMatrix in="SourceAlpha" type="matrix" values="0 0 0 0 0 0 0 0 0 0 0 0 0 0 0 0 0 0 127 0" result="hardAlpha"/>
<feOffset dx="0.852015" dy="1.4606"/>
<feGaussianBlur stdDeviation="1.70403"/>
<feColorMatrix type="matrix" values="0 0 0 0 1 0 0 0 0 0.875 0 0 0 0 0.843 0 0 0 0.63 0"/>
<feBlend mode="normal" in2="BackgroundImageFix" result="effect1_dropShadow_401_1165"/>
<feColorMatrix in="SourceAlpha" type="matrix" values="0 0 0 0 0 0 0 0 0 0 0 0 0 0 0 0 0 0 127 0" result="hardAlpha"/>
<feOffset dx="0.365149" dy="0.730298"/>
<feGaussianBlur stdDeviation="1.21716"/>
<feColorMatrix type="matrix" values="0 0 0 0 0.771137 0 0 0 0 0.469437 0 0 0 0 0.40806 0 0 0 0.3 0"/>
<feBlend mode="normal" in2="effect1_dropShadow_401_1165" result="effect2_dropShadow_401_1165"/>
<feBlend mode="normal" in="SourceGraphic" in2="effect2_dropShadow_401_1165" result="shape"/>
</filter>
<filter id="filter1_ii_401_1165" x="98.8149" y="39.2344" width="11.9001" height="14.7443" filterUnits="userSpaceOnUse" color-interpolation-filters="sRGB">
<feFlood flood-opacity="0" result="BackgroundImageFix"/>
<feBlend mode="normal" in="SourceGraphic" in2="BackgroundImageFix" result="shape"/>
<feColorMatrix in="SourceAlpha" type="matrix" values="0 0 0 0 0 0 0 0 0 0 0 0 0 0 0 0 0 0 127 0" result="hardAlpha"/>
<feOffset dx="2.79947" dy="6.93784"/>
<feGaussianBlur stdDeviation="2.06918"/>
<feComposite in2="hardAlpha" operator="arithmetic" k2="-1" k3="1"/>
<feColorMatrix type="matrix" values="0 0 0 0 1 0 0 0 0 0.651 0 0 0 0 0.58 0 0 0 1 0"/>
<feBlend mode="normal" in2="shape" result="effect1_innerShadow_401_1165"/>
<feColorMatrix in="SourceAlpha" type="matrix" values="0 0 0 0 0 0 0 0 0 0 0 0 0 0 0 0 0 0 127 0" result="hardAlpha"/>
<feOffset dx="-2.24069" dy="14.7885"/>
<feGaussianBlur stdDeviation="2.01663"/>
<feComposite in2="hardAlpha" operator="arithmetic" k2="-1" k3="1"/>
<feColorMatrix type="matrix" values="0 0 0 0 1 0 0 0 0 0.875 0 0 0 0 0.843 0 0 0 0.48 0"/>
<feBlend mode="normal" in2="effect1_innerShadow_401_1165" result="effect2_innerShadow_401_1165"/>
</filter>
<filter id="filter2_ii_401_1165" x="98.8149" y="37.8955" width="10.6829" height="11.9448" filterUnits="userSpaceOnUse" color-interpolation-filters="sRGB">
<feFlood flood-opacity="0" result="BackgroundImageFix"/>
<feBlend mode="normal" in="SourceGraphic" in2="BackgroundImageFix" result="shape"/>
<feColorMatrix in="SourceAlpha" type="matrix" values="0 0 0 0 0 0 0 0 0 0 0 0 0 0 0 0 0 0 127 0" result="hardAlpha"/>
<feOffset dx="0.121716" dy="-1.4606"/>
<feGaussianBlur stdDeviation="0.547724"/>
<feComposite in2="hardAlpha" operator="arithmetic" k2="-1" k3="1"/>
<feColorMatrix type="matrix" values="0 0 0 0 1 0 0 0 0 0.604589 0 0 0 0 0.591667 0 0 0 0.2 0"/>
<feBlend mode="multiply" in2="shape" result="effect1_innerShadow_401_1165"/>
<feColorMatrix in="SourceAlpha" type="matrix" values="0 0 0 0 0 0 0 0 0 0 0 0 0 0 0 0 0 0 127 0" result="hardAlpha"/>
<feOffset dx="1.58231" dy="-1.33888"/>
<feGaussianBlur stdDeviation="0.791157"/>
<feComposite in2="hardAlpha" operator="arithmetic" k2="-1" k3="1"/>
<feColorMatrix type="matrix" values="0 0 0 0 1 0 0 0 0 1 0 0 0 0 1 0 0 0 0.3 0"/>
<feBlend mode="normal" in2="effect1_innerShadow_401_1165" result="effect2_innerShadow_401_1165"/>
</filter>
<filter id="filter3_ii_401_1165" x="96.5743" y="35.6567" width="14.1407" height="15.623" filterUnits="userSpaceOnUse" color-interpolation-filters="sRGB">
<feFlood flood-opacity="0" result="BackgroundImageFix"/>
<feBlend mode="normal" in="SourceGraphic" in2="BackgroundImageFix" result="shape"/>
<feColorMatrix in="SourceAlpha" type="matrix" values="0 0 0 0 0 0 0 0 0 0 0 0 0 0 0 0 0 0 127 0" result="hardAlpha"/>
<feOffset dx="2.79947" dy="6.93784"/>
<feGaussianBlur stdDeviation="2.06918"/>
<feComposite in2="hardAlpha" operator="arithmetic" k2="-1" k3="1"/>
<feColorMatrix type="matrix" values="0 0 0 0 1 0 0 0 0 0.651 0 0 0 0 0.58 0 0 0 1 0"/>
<feBlend mode="normal" in2="shape" result="effect1_innerShadow_401_1165"/>
<feColorMatrix in="SourceAlpha" type="matrix" values="0 0 0 0 0 0 0 0 0 0 0 0 0 0 0 0 0 0 127 0" result="hardAlpha"/>
<feOffset dx="-2.24069" dy="14.7885"/>
<feGaussianBlur stdDeviation="2.01663"/>
<feComposite in2="hardAlpha" operator="arithmetic" k2="-1" k3="1"/>
<feColorMatrix type="matrix" values="0 0 0 0 1 0 0 0 0 0.875 0 0 0 0 0.843 0 0 0 0.48 0"/>
<feBlend mode="normal" in2="effect1_innerShadow_401_1165" result="effect2_innerShadow_401_1165"/>
</filter>
<filter id="filter4_ii_401_1165" x="98.8149" y="35.4133" width="9.9526" height="12.0932" filterUnits="userSpaceOnUse" color-interpolation-filters="sRGB">
<feFlood flood-opacity="0" result="BackgroundImageFix"/>
<feBlend mode="normal" in="SourceGraphic" in2="BackgroundImageFix" result="shape"/>
<feColorMatrix in="SourceAlpha" type="matrix" values="0 0 0 0 0 0 0 0 0 0 0 0 0 0 0 0 0 0 127 0" result="hardAlpha"/>
<feOffset dx="0.365149" dy="-0.243433"/>
<feGaussianBlur stdDeviation="0.912873"/>
<feComposite in2="hardAlpha" operator="arithmetic" k2="-1" k3="1"/>
<feColorMatrix type="matrix" values="0 0 0 0 0.996078 0 0 0 0 0.458823 0 0 0 0 0.411765 0 0 0 0.5 0"/>
<feBlend mode="normal" in2="shape" result="effect1_innerShadow_401_1165"/>
<feColorMatrix in="SourceAlpha" type="matrix" values="0 0 0 0 0 0 0 0 0 0 0 0 0 0 0 0 0 0 127 0" result="hardAlpha"/>
<feOffset dx="1.94746" dy="0.365149"/>
<feGaussianBlur stdDeviation="0.426008"/>
<feComposite in2="hardAlpha" operator="arithmetic" k2="-1" k3="1"/>
<feColorMatrix type="matrix" values="0 0 0 0 1 0 0 0 0 1 0 0 0 0 1 0 0 0 0.08 0"/>
<feBlend mode="normal" in2="effect1_innerShadow_401_1165" result="effect2_innerShadow_401_1165"/>
</filter>
<filter id="filter5_ii_401_1165" x="96.3528" y="30.1921" width="20.6355" height="21.2297" filterUnits="userSpaceOnUse" color-interpolation-filters="sRGB">
<feFlood flood-opacity="0" result="BackgroundImageFix"/>
<feBlend mode="normal" in="SourceGraphic" in2="BackgroundImageFix" result="shape"/>
<feColorMatrix in="SourceAlpha" type="matrix" values="0 0 0 0 0 0 0 0 0 0 0 0 0 0 0 0 0 0 127 0" result="hardAlpha"/>
<feOffset dx="-2.43385" dy="-1.82496"/>
<feGaussianBlur stdDeviation="1.76459"/>
<feComposite in2="hardAlpha" operator="arithmetic" k2="-1" k3="1"/>
<feColorMatrix type="matrix" values="0 0 0 0 0 0 0 0 0 0 0 0 0 0 0 0 0 0 0.1 0"/>
<feBlend mode="hard-light" in2="shape" result="effect1_innerShadow_401_1165"/>
<feColorMatrix in="SourceAlpha" type="matrix" values="0 0 0 0 0 0 0 0 0 0 0 0 0 0 0 0 0 0 127 0" result="hardAlpha"/>
<feOffset dx="-0.243215" dy="1.58175"/>
<feGaussianBlur stdDeviation="1.52137"/>
<feComposite in2="hardAlpha" operator="arithmetic" k2="-1" k3="1"/>
<feColorMatrix type="matrix" values="0 0 0 0 1 0 0 0 0 0.87451 0 0 0 0 0.843137 0 0 0 0.7 0"/>
<feBlend mode="soft-light" in2="effect1_innerShadow_401_1165" result="effect2_innerShadow_401_1165"/>
</filter>
<linearGradient id="paint0_linear_401_1165" x1="45.5226" y1="17.0521" x2="45.5226" y2="65.8616" gradientUnits="userSpaceOnUse">
<stop stop-color="white"/>
<stop offset="1" stop-color="#F6F8FC"/>
</linearGradient>
<linearGradient id="paint1_linear_401_1165" x1="39.1648" y1="44.5153" x2="36.3813" y2="46.7054" gradientUnits="userSpaceOnUse">
<stop stop-color="#FFA794" stop-opacity="0.3"/>
<stop offset="1" stop-color="#FF9794"/>
</linearGradient>
<linearGradient id="paint2_linear_401_1165" x1="39.1648" y1="44.5153" x2="36.3813" y2="46.7054" gradientUnits="userSpaceOnUse">
<stop stop-color="#FFA794" stop-opacity="0.3"/>
<stop offset="1" stop-color="#FF9794"/>
</linearGradient>
<linearGradient id="paint3_linear_401_1165" x1="38.9272" y1="51.5825" x2="41.9115" y2="48.9086" gradientUnits="userSpaceOnUse">
<stop stop-color="#FFDFD7"/>
<stop offset="1" stop-color="#FFDFD7"/>
</linearGradient>
<linearGradient id="paint4_linear_401_1165" x1="39.1648" y1="38.5517" x2="36.0802" y2="41.6407" gradientUnits="userSpaceOnUse">
<stop stop-color="#FFA794" stop-opacity="0.3"/>
<stop offset="1" stop-color="#FF9794"/>
</linearGradient>
<linearGradient id="paint5_linear_401_1165" x1="39.1648" y1="38.5517" x2="36.0802" y2="41.6407" gradientUnits="userSpaceOnUse">
<stop stop-color="#FFA794" stop-opacity="0.3"/>
<stop offset="1" stop-color="#FF9794"/>
</linearGradient>
<linearGradient id="paint6_linear_401_1165" x1="39.818" y1="46.0736" x2="42.957" y2="42.8668" gradientUnits="userSpaceOnUse">
<stop stop-color="#FFA694"/>
<stop offset="1" stop-color="#FFB7A9"/>
</linearGradient>
<linearGradient id="paint7_linear_401_1165" x1="55.9725" y1="47.4363" x2="34.3339" y2="32.5149" gradientUnits="userSpaceOnUse">
<stop stop-color="#FF6661"/>
<stop offset="1" stop-color="#FF7D73"/>
</linearGradient>
<linearGradient id="paint8_linear_401_1165" x1="55.9725" y1="47.4363" x2="34.3339" y2="32.5149" gradientUnits="userSpaceOnUse">
<stop stop-color="#FF6661"/>
<stop offset="1" stop-color="#FF7D73"/>
</linearGradient>
<linearGradient id="paint9_linear_401_1165" x1="55.9725" y1="47.4363" x2="34.3339" y2="32.5149" gradientUnits="userSpaceOnUse">
<stop stop-color="#FF6661"/>
<stop offset="1" stop-color="#FF7D73"/>
</linearGradient>
<linearGradient id="paint10_linear_401_1165" x1="55.9725" y1="47.4363" x2="34.3339" y2="32.5149" gradientUnits="userSpaceOnUse">
<stop stop-color="#FF6661"/>
<stop offset="1" stop-color="#FF7D73"/>
</linearGradient>
<linearGradient id="paint11_linear_401_1165" x1="55.9725" y1="47.4363" x2="34.3339" y2="32.5149" gradientUnits="userSpaceOnUse">
<stop stop-color="#FF6661"/>
<stop offset="1" stop-color="#FF7D73"/>
</linearGradient>
<linearGradient id="paint12_linear_401_1165" x1="55.9725" y1="47.4363" x2="34.3339" y2="32.5149" gradientUnits="userSpaceOnUse">
<stop stop-color="#FF6661"/>
<stop offset="1" stop-color="#FF7D73"/>
</linearGradient>
<linearGradient id="paint13_linear_401_1165" x1="107.889" y1="27" x2="107.889" y2="54.2" gradientUnits="userSpaceOnUse">
<stop stop-color="white"/>
<stop offset="1" stop-color="#F6F8FC"/>
</linearGradient>
<linearGradient id="paint14_linear_401_1165" x1="104.28" y1="42.3043" x2="102.723" y2="43.5525" gradientUnits="userSpaceOnUse">
<stop stop-color="#FFA794" stop-opacity="0.3"/>
<stop offset="1" stop-color="#FF9794"/>
</linearGradient>
<linearGradient id="paint15_linear_401_1165" x1="104.28" y1="42.3043" x2="102.723" y2="43.5525" gradientUnits="userSpaceOnUse">
<stop stop-color="#FFA794" stop-opacity="0.3"/>
<stop offset="1" stop-color="#FF9794"/>
</linearGradient>
<linearGradient id="paint16_linear_401_1165" x1="104.146" y1="46.2427" x2="105.812" y2="44.7222" gradientUnits="userSpaceOnUse">
<stop stop-color="#FFDFD7"/>
<stop offset="1" stop-color="#FFDFD7"/>
</linearGradient>
<linearGradient id="paint17_linear_401_1165" x1="104.28" y1="38.981" x2="102.562" y2="40.7339" gradientUnits="userSpaceOnUse">
<stop stop-color="#FFA794" stop-opacity="0.3"/>
<stop offset="1" stop-color="#FF9794"/>
</linearGradient>
<linearGradient id="paint18_linear_401_1165" x1="104.28" y1="38.981" x2="102.562" y2="40.7339" gradientUnits="userSpaceOnUse">
<stop stop-color="#FFA794" stop-opacity="0.3"/>
<stop offset="1" stop-color="#FF9794"/>
</linearGradient>
<linearGradient id="paint19_linear_401_1165" x1="104.651" y1="43.1727" x2="106.399" y2="41.3536" gradientUnits="userSpaceOnUse">
<stop stop-color="#FFA694"/>
<stop offset="1" stop-color="#FFB7A9"/>
</linearGradient>
<linearGradient id="paint20_linear_401_1165" x1="113.82" y1="43.9322" x2="101.684" y2="35.4091" gradientUnits="userSpaceOnUse">
<stop stop-color="#FF6661"/>
<stop offset="1" stop-color="#FF7D73"/>
</linearGradient>
<linearGradient id="paint21_linear_401_1165" x1="113.82" y1="43.9322" x2="101.684" y2="35.4091" gradientUnits="userSpaceOnUse">
<stop stop-color="#FF6661"/>
<stop offset="1" stop-color="#FF7D73"/>
</linearGradient>
<linearGradient id="paint22_linear_401_1165" x1="113.82" y1="43.9322" x2="101.684" y2="35.4091" gradientUnits="userSpaceOnUse">
<stop stop-color="#FF6661"/>
<stop offset="1" stop-color="#FF7D73"/>
</linearGradient>
<linearGradient id="paint23_linear_401_1165" x1="113.82" y1="43.9322" x2="101.684" y2="35.4091" gradientUnits="userSpaceOnUse">
<stop stop-color="#FF6661"/>
<stop offset="1" stop-color="#FF7D73"/>
</linearGradient>
<linearGradient id="paint24_linear_401_1165" x1="113.82" y1="43.9322" x2="101.684" y2="35.4091" gradientUnits="userSpaceOnUse">
<stop stop-color="#FF6661"/>
<stop offset="1" stop-color="#FF7D73"/>
</linearGradient>
<linearGradient id="paint25_linear_401_1165" x1="113.82" y1="43.9322" x2="101.684" y2="35.4091" gradientUnits="userSpaceOnUse">
<stop stop-color="#FF6661"/>
<stop offset="1" stop-color="#FF7D73"/>
</linearGradient>
<clipPath id="clip0_401_1165">
<rect width="100" height="27.2" fill="white" transform="translate(94 27)"/>
</clipPath>
</defs>
</svg>
