<svg width="250" height="82" viewBox="0 0 250 82" fill="none" xmlns="http://www.w3.org/2000/svg">
<g clip-path="url(#clip0_401_150)">
<path fill-rule="evenodd" clip-rule="evenodd" d="M20.0962 37.0395C20.0962 23.2855 31.246 12.1357 45 12.1357C58.7541 12.1357 69.9039 23.2855 69.9039 37.0395V69.785H20.0962V37.0395ZM42.7851 66.2644H52.6605V46.8762C52.6605 37.9813 46.0302 31.0127 38.1386 31.0127C34.1365 31.0127 30.4894 32.7826 27.8395 35.6948C25.4006 38.3751 23.821 42.0124 23.6352 46.0696C25.6688 44.1408 28.4165 42.9575 31.4406 42.9575C37.706 42.9575 42.7851 48.0367 42.7851 54.3019V66.2644ZM56.1811 66.2644H66.3833V37.0395C66.3833 25.2299 56.8098 15.6563 45 15.6563C33.7882 15.6563 24.5918 24.285 23.6894 35.264C24.1649 34.582 24.6815 33.9344 25.2356 33.3254C28.4922 29.7466 33.0587 27.4922 38.1386 27.4922C48.2318 27.4922 56.1811 36.3047 56.1811 46.8762V66.2644ZM31.4406 46.478C27.1196 46.478 23.6167 49.981 23.6167 54.3019V66.2644H39.2645V54.3019C39.2645 49.981 35.7616 46.478 31.4406 46.478Z" fill="black"/>
</g>
<g clip-path="url(#clip1_401_150)">
<path fill-rule="evenodd" clip-rule="evenodd" d="M94.0518 39.4016C94.0518 32.0403 100.073 26.0728 107.5 26.0728C114.927 26.0728 120.948 32.0403 120.948 39.4016V56.9274H94.0518V39.4016ZM106.304 55.0432H111.637V44.6663C111.637 39.9057 108.056 36.176 103.795 36.176C101.634 36.176 99.6641 37.1232 98.2331 38.6819C96.9162 40.1164 96.0631 42.0632 95.9628 44.2346C97.061 43.2023 98.5447 42.569 100.178 42.569C103.561 42.569 106.304 45.2874 106.304 48.6407V55.0432ZM113.538 55.0432H119.047V39.4016C119.047 33.0809 113.877 27.957 107.5 27.957C101.445 27.957 96.4794 32.5752 95.9921 38.4513C96.2489 38.0863 96.5278 37.7397 96.827 37.4138C98.5856 35.4983 101.051 34.2917 103.795 34.2917C109.245 34.2917 113.538 39.0083 113.538 44.6663V55.0432ZM100.178 44.4532C97.8444 44.4532 95.9529 46.3281 95.9529 48.6407V55.0432H104.403V48.6407C104.403 46.3281 102.511 44.4532 100.178 44.4532Z" fill="black"/>
</g>
<path d="M163.139 47.892H165.545V34H163.139V47.892Z" fill="black"/>
<path fill-rule="evenodd" clip-rule="evenodd" d="M158.56 45.6096C157.983 46.1409 157.009 46.377 155.916 46.377C154.305 46.377 153.053 45.8654 152.575 44.8029C152.416 44.488 152.337 44.1535 152.297 43.7403H161.641C161.641 42.5793 161.482 41.6742 161.124 40.8084C160.309 39.0178 158.44 37.9355 155.756 37.9355C153.112 37.9355 151.144 38.9391 150.329 40.769C150.031 41.438 149.872 42.1661 149.872 43.0713C149.872 43.9371 150.011 44.6848 150.329 45.3341C151.144 47.1641 153.152 48.1873 155.896 48.1873C157.705 48.1873 159.315 47.7741 160.389 46.8099C160.852 46.3932 161.186 45.9079 161.392 45.3332H158.821C158.744 45.4329 158.657 45.5258 158.56 45.6096ZM155.756 39.7655C157.287 39.7655 158.48 40.2378 158.977 41.32C159.077 41.5561 159.156 41.7726 159.196 42.0481H152.337C152.377 41.8119 152.456 41.5955 152.556 41.3791C153.053 40.2771 154.186 39.7655 155.756 39.7655Z" fill="black"/>
<path d="M177.359 46.7705C176.305 47.6954 174.774 48.1873 172.905 48.1873C170.361 48.1873 168.392 47.2231 167.557 45.3735C167.259 44.7045 167.1 43.9371 167.1 43.0516C167.1 42.1858 167.259 41.3987 167.557 40.7494C168.392 38.9391 170.321 37.9355 172.905 37.9355C174.774 37.9355 176.285 38.4078 177.339 39.372C178.114 40.041 178.532 40.9265 178.592 41.989H176.027C175.967 41.4184 175.729 40.9658 175.371 40.6313C174.814 40.1394 173.919 39.9229 172.925 39.9229C171.474 39.9229 170.381 40.4739 169.903 41.4774C169.724 41.93 169.625 42.4022 169.625 43.0516C169.625 43.6812 169.724 44.1732 169.903 44.6061C170.381 45.6096 171.474 46.1606 172.925 46.1606C173.919 46.1606 174.834 45.9441 175.371 45.4325C175.768 45.098 176.007 44.6257 176.027 44.0748H178.631C178.552 45.157 178.134 46.0622 177.359 46.7705Z" fill="black"/>
<path fill-rule="evenodd" clip-rule="evenodd" d="M185.891 48.1676C188.675 48.1676 190.583 47.105 191.399 45.3144C191.697 44.6454 191.856 43.8977 191.856 43.0516C191.856 42.2251 191.697 41.4774 191.399 40.8084C190.583 39.0178 188.675 37.9355 185.891 37.9355C183.128 37.9355 181.219 39.0178 180.384 40.8477C180.086 41.4971 179.947 42.2448 179.947 43.0516C179.947 43.878 180.086 44.6061 180.384 45.2751C181.219 47.0854 183.128 48.1676 185.891 48.1676ZM185.891 46.1999C184.38 46.1999 183.227 45.6293 182.73 44.5667C182.551 44.1338 182.452 43.6419 182.452 43.0516C182.452 42.481 182.551 41.9693 182.73 41.5561C183.227 40.4936 184.38 39.9229 185.891 39.9229C187.403 39.9229 188.575 40.4739 189.072 41.5561C189.251 41.9693 189.331 42.481 189.331 43.0516C189.331 43.6419 189.251 44.1338 189.072 44.5667C188.575 45.6293 187.403 46.1999 185.891 46.1999Z" fill="black"/>
<path fill-rule="evenodd" clip-rule="evenodd" d="M217.274 46.377C218.368 46.377 219.342 46.1409 219.918 45.6096C220.015 45.5258 220.102 45.4329 220.18 45.3332H222.751C222.545 45.9079 222.21 46.3932 221.747 46.8099C220.674 47.7741 219.063 48.1873 217.254 48.1873C214.511 48.1873 212.503 47.1641 211.688 45.3341C211.369 44.6848 211.23 43.9371 211.23 43.0713C211.23 42.1661 211.39 41.438 211.688 40.769C212.503 38.9391 214.471 37.9355 217.115 37.9355C219.799 37.9355 221.668 39.0178 222.483 40.8084C222.841 41.6742 223 42.5793 223 43.7403H213.656C213.696 44.1535 213.775 44.488 213.934 44.8029C214.411 45.8654 215.664 46.377 217.274 46.377ZM220.336 41.32C219.839 40.2378 218.646 39.7655 217.115 39.7655C215.544 39.7655 214.411 40.2771 213.914 41.3791C213.815 41.5955 213.735 41.8119 213.696 42.0481H220.555C220.515 41.7726 220.435 41.5561 220.336 41.32Z" fill="black"/>
<path d="M198.074 37.9561C195.477 37.9561 193.373 40.0622 193.373 42.6603V47.8992H195.83V42.1391C195.83 40.8991 196.834 39.934 198.074 39.934C199.313 39.934 200.317 40.8991 200.317 42.1391V47.8992H202.774V42.1391C202.774 40.8991 203.779 39.934 205.018 39.934C206.257 39.934 207.261 40.8991 207.261 42.1391V47.8992H209.719V42.6603C209.719 40.0622 207.614 37.9561 205.018 37.9561C203.643 37.9561 202.405 38.5471 201.546 39.4891C200.686 38.5471 199.449 37.9561 198.074 37.9561Z" fill="black"/>
<path d="M144.388 45.141L146.924 38.2197H149.5L145.607 47.8742H143.168L140.75 41.1102L138.332 47.8742H135.893L132 38.2197H134.576L137.112 45.1607L139.531 38.2197H141.949L144.388 45.141Z" fill="black"/>
<defs>
<clipPath id="clip0_401_150">
<rect width="50" height="57.9208" fill="white" transform="translate(20 12)"/>
</clipPath>
<clipPath id="clip1_401_150">
<rect width="27" height="31" fill="white" transform="translate(94 26)"/>
</clipPath>
</defs>
</svg>
