<svg width="250" height="82" viewBox="0 0 250 82" fill="none" xmlns="http://www.w3.org/2000/svg">
<g clip-path="url(#clip0_401_3225)">
<path d="M69.7473 18.7778H23.7877C23.6482 18.7778 23.5352 18.8909 23.5352 19.0304V64.99C23.5352 65.1294 23.6482 65.2425 23.7877 65.2425H69.7473C69.8867 65.2425 69.9998 65.1294 69.9998 64.99V19.0304C69.9998 18.8909 69.8867 18.7778 69.7473 18.7778Z" fill="#EE5C27"/>
<path d="M66.2121 16H20.2525C20.1131 16 20 16.1131 20 16.2525V62.2121C20 62.3516 20.1131 62.4646 20.2525 62.4646H66.2121C66.3516 62.4646 66.4646 62.3516 66.4646 62.2121V16.2525C66.4646 16.1131 66.3516 16 66.2121 16Z" fill="white"/>
<path d="M37.2331 46.8586C37.0123 46.4692 36.8403 45.7048 36.7196 44.5637C35.4462 46.3849 33.4129 47.2968 30.6223 47.2968C28.5402 47.2968 26.8817 46.7975 25.6442 45.8018C24.4068 44.8033 23.7881 43.4203 23.7881 41.645C23.7881 38.2193 26.2116 36.2633 31.0613 35.7793L33.9264 35.5246C34.8814 35.4024 35.5669 35.1782 35.9828 34.8497C36.3987 34.5211 36.6066 34.0295 36.6066 33.3749C36.6066 32.5727 36.3448 31.9843 35.8185 31.6073C35.2922 31.2304 34.4039 31.0419 33.1536 31.0419C31.8058 31.0419 30.8405 31.2661 30.2526 31.7169C29.6647 32.1651 29.3232 32.9369 29.2231 34.0295H24.6687C24.9382 29.7531 27.7803 27.6162 33.1922 27.6162C38.4577 27.6162 41.0892 29.4984 41.0892 33.2654V43.2879C41.0892 44.941 41.3459 46.1304 41.8619 46.8586H37.2331ZM35.2485 42.8293C36.1548 42.0397 36.6066 40.9039 36.6066 39.4215V37.7099C36.1651 38.0971 35.4437 38.3543 34.4399 38.474L31.9418 38.7644C30.7173 38.9096 29.8418 39.1948 29.3155 39.6202C28.7892 40.0455 28.5248 40.6593 28.5248 41.4617C28.5248 42.2639 28.7995 42.8879 29.3514 43.3387C29.9034 43.7894 30.6916 44.0137 31.7211 44.0137C33.169 44.0137 34.3423 43.619 35.2485 42.8293Z" fill="#2A2F3D"/>
<path d="M62.4626 47.3818H44.3887V50.8813H62.4626V47.3818Z" fill="#2A2F3D"/>
</g>
<g clip-path="url(#clip1_401_3225)">
<path d="M165.147 35.1726C164.897 34.9306 164.773 34.6353 164.773 34.2844C164.773 33.9334 164.898 33.6343 165.147 33.3872C165.396 33.1389 165.699 33.016 166.051 33.016C166.405 33.016 166.704 33.1402 166.947 33.3872C167.191 33.6356 167.312 33.9346 167.312 34.2844C167.312 34.6353 167.187 34.9306 166.938 35.1726C166.688 35.4146 166.392 35.535 166.051 35.535C165.698 35.535 165.396 35.4146 165.147 35.1726Z" fill="#2A2F3D"/>
<path d="M106.689 46.0152C106.579 45.8213 106.493 45.4412 106.433 44.8735C105.8 45.7795 104.788 46.2331 103.4 46.2331C102.364 46.2331 101.539 45.9848 100.923 45.4894C100.308 44.9927 100 44.3046 100 43.4214C100 41.7172 101.206 40.7441 103.618 40.5033L105.044 40.3766C105.519 40.3158 105.86 40.2043 106.067 40.0408C106.274 39.8774 106.377 39.6328 106.377 39.3072C106.377 38.908 106.247 38.6153 105.985 38.4278C105.723 38.2403 105.281 38.1465 104.659 38.1465C103.989 38.1465 103.508 38.258 103.216 38.4823C102.924 38.7053 102.754 39.0892 102.704 39.6328H100.438C100.572 37.5054 101.986 36.4423 104.678 36.4423C107.298 36.4423 108.607 37.3786 108.607 39.2527V44.2388C108.607 45.061 108.735 45.6529 108.992 46.0152H106.689ZM105.701 44.0106C106.152 43.6178 106.377 43.0527 106.377 42.3153V41.4638C106.157 41.6564 105.799 41.7843 105.299 41.8439L104.056 41.9883C103.447 42.0606 103.012 42.2025 102.75 42.4141C102.488 42.6257 102.356 42.931 102.356 43.3302C102.356 43.7293 102.493 44.0398 102.768 44.264C103.042 44.4883 103.434 44.5998 103.947 44.5998C104.667 44.5998 105.251 44.4035 105.701 44.0106Z" fill="#2A2F3D"/>
<path d="M120.03 37.7651C120.785 38.6597 121.163 39.8508 121.163 41.3371C121.163 42.812 120.785 43.9967 120.03 44.8913C119.263 45.7858 118.233 46.2332 116.942 46.2332C115.662 46.2332 114.688 45.7554 114.018 44.8013V49.5694H111.714V36.659H113.925V38.0008C114.607 36.9618 115.612 36.441 116.941 36.441C118.233 36.441 119.263 36.8833 120.03 37.7651ZM116.393 44.3464C117.148 44.3464 117.745 44.074 118.183 43.5304C118.61 42.9983 118.823 42.2431 118.823 41.2636C118.823 40.3082 118.613 39.5809 118.192 39.0791C117.772 38.5774 117.172 38.3265 116.393 38.3265C115.625 38.3265 115.027 38.5862 114.602 39.1057C114.176 39.6252 113.962 40.369 113.962 41.3358C113.962 42.3153 114.182 43.0578 114.62 43.5659C115.034 44.0867 115.625 44.3464 116.393 44.3464Z" fill="#2A2F3D"/>
<path d="M131.869 37.7651C132.624 38.6597 133.002 39.8508 133.002 41.3371C133.002 42.812 132.624 43.9967 131.869 44.8913C131.101 45.7858 130.072 46.2332 128.78 46.2332C127.501 46.2332 126.526 45.7554 125.857 44.8013V49.5694H123.554V36.659H125.765V38.0008C126.447 36.9618 127.452 36.441 128.78 36.441C130.072 36.441 131.101 36.8833 131.869 37.7651ZM128.231 44.3464C128.986 44.3464 129.584 44.074 130.022 43.5304C130.449 42.9983 130.662 42.2431 130.662 41.2636C130.662 40.3082 130.451 39.5809 130.031 39.0791C129.611 38.5774 129.01 38.3265 128.231 38.3265C127.464 38.3265 126.866 38.5862 126.441 39.1057C126.014 39.6252 125.801 40.369 125.801 41.3358C125.801 42.3153 126.02 43.0578 126.459 43.5659C126.872 44.0867 127.464 44.3464 128.231 44.3464Z" fill="#2A2F3D"/>
<path d="M135.084 43.0413H137.332C137.394 43.6216 137.585 44.0322 137.908 44.2741C138.232 44.5162 138.74 44.6366 139.435 44.6366C140.677 44.6366 141.299 44.2615 141.299 43.5127C141.299 43.1744 141.165 42.9146 140.897 42.7334C140.629 42.5522 140.147 42.4014 139.454 42.2798L138.376 42.0986C136.317 41.7603 135.288 40.8175 135.288 39.2704C135.288 38.3885 135.629 37.6954 136.311 37.1949C136.993 36.6932 137.956 36.4423 139.198 36.4423C141.891 36.4423 143.28 37.5003 143.366 39.6151H141.191C141.167 39.0588 140.99 38.6635 140.661 38.4278C140.331 38.1921 139.845 38.0743 139.198 38.0743C138.103 38.0743 137.553 38.4367 137.553 39.1627C137.553 39.477 137.675 39.7215 137.919 39.8964C138.163 40.0712 138.564 40.2081 139.124 40.3044L140.312 40.4856C141.458 40.6908 142.289 41.0178 142.806 41.465C143.324 41.9123 143.583 42.5345 143.583 43.3328C143.583 44.2755 143.218 45.0002 142.486 45.5083C141.755 46.0164 140.726 46.2698 139.398 46.2698C136.644 46.2686 135.206 45.1929 135.084 43.0413Z" fill="#2A2F3D"/>
<path d="M159.345 37.3483C159.924 37.9527 160.214 38.7801 160.214 39.8318V46.014H157.911V40.1942C157.911 39.0094 157.368 38.4177 156.284 38.4177C155.699 38.4177 155.228 38.6268 154.867 39.0437C154.508 39.4605 154.328 40.0675 154.328 40.8657V46.0152H152.044V40.1942C152.044 39.0094 151.496 38.4177 150.398 38.4177C149.826 38.4177 149.36 38.6268 149 39.0437C148.64 39.4605 148.461 40.0675 148.461 40.8657V46.0152H146.158V36.659H148.388V38.0008C149.033 36.9618 149.93 36.441 151.074 36.441C152.512 36.441 153.487 37.0214 153.999 38.182C154.705 37.0214 155.68 36.441 156.922 36.441C157.959 36.441 158.767 36.7439 159.345 37.3483Z" fill="#2A2F3D"/>
<path d="M174.91 38.4V43.4582C174.91 43.761 174.992 43.9727 175.157 44.093C175.322 44.2135 175.599 44.2743 175.988 44.2743H177.67V46.0152C177.171 46.0633 175.872 46.0875 175.568 46.0875C174.545 46.0875 173.799 45.8974 173.329 45.516C172.861 45.1347 172.626 44.5277 172.626 43.6939V38.4H170.489V36.659H172.627V33.5369H174.912V36.6603H177.858V38.4H174.91Z" fill="#2A2F3D"/>
<path d="M188.157 37.3203C188.748 37.907 189.043 38.7369 189.043 39.814V46.0151H186.741V40.1941C186.741 39.0094 186.149 38.4176 184.968 38.4176C184.383 38.4176 183.886 38.6254 183.479 39.0436C183.071 39.4605 182.867 40.037 182.867 40.7744V46.0139H180.564V33.5355H182.867V37.9095C183.586 36.9301 184.542 36.441 185.735 36.441C186.758 36.441 187.566 36.7349 188.157 37.3203Z" fill="#2A2F3D"/>
<path d="M199.893 47.3558H190.902V49.0968H199.893V47.3558Z" fill="#FF6D2D"/>
<path d="M167.221 44.2742V36.6589H162.378V38.3999H164.918V44.2742H162.378V46.0152H169.761V44.2742H167.221Z" fill="#2A2F3D"/>
</g>
<defs>
<clipPath id="clip0_401_3225">
<rect width="50" height="49.2424" fill="white" transform="translate(20 16)"/>
</clipPath>
<clipPath id="clip1_401_3225">
<rect width="100" height="16.5829" fill="white" transform="translate(100 33)"/>
</clipPath>
</defs>
</svg>
