<svg width="250" height="82" viewBox="0 0 250 82" fill="none" xmlns="http://www.w3.org/2000/svg">
<g clipPath="url(#clip0_401_233)">
<path d="M20 16H45V66C31.1929 66 20 54.8071 20 41V16Z" fill="#FF2F5B"/>
<path d="M70 41H45V66C58.8071 66 70 54.8071 70 41Z" fill="#4E4AFF"/>
<path d="M57.5 41C64.4036 41 70 35.4036 70 28.5C70 21.5964 64.4036 16 57.5 16C50.5964 16 45 21.5964 45 28.5C45 35.4036 50.5964 41 57.5 41Z" fill="#FFBB25"/>
</g>
<g clipPath="url(#clip1_401_233)">
<path fillRule="evenodd" clipRule="evenodd" d="M161.861 40.4V46H162.961H164.061V45.35C164.061 44.9925 164.094 44.7027 164.136 44.7061C164.177 44.7095 164.347 44.9007 164.514 45.1311C164.977 45.7699 165.65 46.0948 166.518 46.0977C167.464 46.1008 168.054 45.8829 168.702 45.2906C169.591 44.4778 169.961 43.4434 169.961 41.7661C169.961 40.301 169.621 39.2866 168.851 38.4514C168.156 37.6973 166.813 37.3195 165.817 37.5982C165.322 37.7369 164.636 38.2714 164.348 38.7439C164.162 39.0489 164.161 39.0422 164.161 36.925L164.161 34.8H163.011H161.861V40.4ZM145.884 37.6484C144.421 38.0607 143.733 38.8426 143.718 40.1077C143.702 41.5018 144.524 42.1705 146.84 42.6478C148.167 42.9213 148.529 43.0879 148.625 43.4696C148.772 44.0559 148.177 44.5003 147.246 44.4996C146.621 44.4992 146.137 44.2507 145.88 43.7985C145.727 43.5299 145.662 43.5012 145.2 43.5006C144.92 43.5003 144.414 43.5288 144.077 43.5641C143.478 43.6267 143.465 43.6341 143.527 43.8891C143.684 44.5468 144.202 45.2161 144.861 45.6154C145.907 46.2493 148.038 46.3172 149.305 45.757C150.46 45.2459 151.007 44.4237 150.943 43.2936C150.915 42.7985 150.845 42.5387 150.667 42.279C150.201 41.5997 149.612 41.3542 147.245 40.8528C146.031 40.5956 145.657 40.0886 146.246 39.4997C146.565 39.1804 147.086 39.0449 147.613 39.1438C148.006 39.2175 148.661 39.7369 148.661 39.9748C148.661 40.1047 148.767 40.1189 149.336 40.0652C149.707 40.0301 150.18 40.0011 150.386 40.0007C150.696 40.0001 150.761 39.9648 150.761 39.7968C150.761 39.13 150.028 38.2472 149.146 37.8514C148.626 37.6181 148.362 37.5686 147.47 37.5371C146.735 37.5112 146.25 37.5453 145.884 37.6484ZM174.163 37.6603C173.082 37.9509 172.167 38.7256 171.7 39.746C171.153 40.94 171.156 42.7654 171.706 43.9668C172.425 45.5387 174.128 46.3486 176.175 46.0916C177.657 45.9056 178.727 45.1256 179.136 43.9341L179.244 43.6181L178.206 43.5473L177.168 43.4766L176.902 43.7919C176.529 44.2357 176.156 44.4 175.522 44.4C174.891 44.4 174.511 44.2782 174.173 43.9683C173.876 43.6961 173.566 43.039 173.563 42.675L173.561 42.4H176.411H179.261V41.6894C179.261 40.4155 178.886 39.3593 178.174 38.6251C177.228 37.6504 175.63 37.2661 174.163 37.6603ZM184.364 37.6583C183.884 37.8663 183.682 38.0694 183.375 38.65L183.111 39.15L183.082 38.375L183.052 37.6H181.957H180.861V41.8V46H182.011H183.161V43.3901C183.161 40.4786 183.191 40.3156 183.832 39.827C184.224 39.5283 185.091 39.4022 185.446 39.5923C185.564 39.6554 185.661 39.6891 185.661 39.6671C185.661 39.6452 185.815 39.2124 186.003 38.7055L186.346 37.7837L186.007 37.6418C185.569 37.459 184.806 37.4667 184.364 37.6583ZM191.011 37.64C190.603 37.8199 190.168 38.2716 189.96 38.7312C189.799 39.0854 189.783 39.096 189.725 38.8812C189.691 38.754 189.663 38.4138 189.662 38.125L189.661 37.6H188.561H187.461V41.8V46H188.611H189.761V43.4316C189.761 41.0283 189.774 40.8353 189.97 40.4302C190.114 40.134 190.321 39.9142 190.628 39.7348C191.024 39.5026 191.147 39.4791 191.699 39.5307L192.323 39.5889L192.642 38.7074C192.817 38.2226 192.961 37.802 192.961 37.7727C192.961 37.7435 192.819 37.6702 192.646 37.6098C192.222 37.462 191.379 37.4776 191.011 37.64ZM134.221 38.775C134.187 39.4213 134.195 40.8745 134.238 42.0045C134.314 43.9773 134.328 44.082 134.6 44.6363C135.055 45.5664 135.961 46.1009 137.08 46.0994C138.032 46.0982 138.982 45.6026 139.385 44.8962C139.509 44.6791 139.644 44.5012 139.686 44.5008C139.727 44.5003 139.761 44.8375 139.761 45.25V46H140.861H141.961V41.8V37.6H140.811H139.661L139.658 40.025C139.656 42.5489 139.6 43.0653 139.286 43.4861C138.926 43.9681 138.59 44.1429 138.023 44.1429C137.411 44.1429 137.05 43.9509 136.756 43.4696C136.576 43.1731 136.561 42.9492 136.561 40.375L136.561 37.6H135.422H134.283L134.221 38.775ZM176.094 39.3364C176.273 39.4114 176.54 39.6153 176.687 39.7895C176.957 40.1107 177.196 40.7614 177.101 40.9156C177.072 40.962 176.258 41 175.292 41H173.535L173.593 40.6407C173.762 39.5978 175.077 38.9118 176.094 39.3364ZM166.839 39.6644C167.274 39.9965 167.551 40.6149 167.626 41.4229C167.78 43.0685 167.024 44.3 165.861 44.3C164.697 44.3 163.941 43.0685 164.095 41.4229C164.194 40.3667 164.652 39.6111 165.323 39.3983C165.781 39.2529 166.454 39.3711 166.839 39.6644Z" fill="black"/>
<path d="M201.96 37.6001H200.728H199.495L198.615 40.7001C198.131 42.4051 197.707 43.8001 197.673 43.8001C197.638 43.8001 197.222 42.4163 196.748 40.7251L195.886 37.6501L194.673 37.622C194.006 37.6066 193.46 37.6066 193.46 37.622C193.46 37.6375 194.135 39.584 194.961 41.9477C196.626 46.7173 196.603 46.5942 195.933 47.1581C195.652 47.394 195.562 47.4161 195.099 47.3617L194.58 47.3006L194.364 48.0254C194.246 48.424 194.127 48.8253 194.1 48.9171C194.062 49.0508 194.166 49.1078 194.621 49.2022C196.159 49.5215 197.725 48.8451 198.369 47.5839C198.484 47.3579 199.291 45.1429 200.161 42.6616C201.032 40.1803 201.79 38.0376 201.846 37.9001L201.96 37.6001Z" fill="black"/>
<path fillRule="evenodd" clipRule="evenodd" d="M155.063 37.5999C153.982 37.8905 153.067 38.6652 152.6 39.6856C152.053 40.8796 152.056 42.705 152.606 43.9063C153.325 45.4783 155.028 46.2882 157.075 46.0312C158.557 45.8452 159.627 45.0652 160.036 43.8737L160.144 43.5577L159.106 43.4869L158.068 43.4162L157.802 43.7315C157.429 44.1753 157.056 44.3396 156.422 44.3396C155.791 44.3396 155.411 44.2178 155.073 43.9079C154.776 43.6357 154.466 42.9786 154.463 42.6146L154.461 42.3396H157.311H160.161V41.629C160.161 40.3551 159.786 39.2989 159.074 38.5647C158.128 37.59 156.53 37.2057 155.063 37.5999ZM157.587 39.7291C157.44 39.5549 157.173 39.351 156.994 39.276C155.977 38.8514 154.662 39.5374 154.493 40.5803L154.435 40.9396H156.192C157.158 40.9396 157.972 40.9016 158.001 40.8552C158.096 40.701 157.857 40.0503 157.587 39.7291Z" fill="black"/>
<path d="M102 30H113.4V52.8C107.104 52.8 102 47.696 102 41.4V30Z" fill="#FF2F5B"/>
<path d="M124.8 41.3999H113.4V52.7999C119.696 52.7999 124.8 47.6959 124.8 41.3999Z" fill="#4E4AFF"/>
<path d="M119.1 41.4C122.248 41.4 124.8 38.848 124.8 35.7C124.8 32.552 122.248 30 119.1 30C115.952 30 113.4 32.552 113.4 35.7C113.4 38.848 115.952 41.4 119.1 41.4Z" fill="#FFBB25"/>
</g>
<defs>
<clipPath id="clip0_401_233">
<rect width="50" height="50" fill="white" transform="translate(20 16)"/>
</clipPath>
<clipPath id="clip1_401_233">
<rect width="100" height="22.8" fill="white" transform="translate(102 30)"/>
</clipPath>
</defs>
</svg>
