<svg width="250" height="82" viewBox="0 0 250 82" fill="none" xmlns="http://www.w3.org/2000/svg">
<path d="M60.6706 22.8631L53.0682 20.7915C50.2505 20.0478 47.1668 20.4197 44.5087 21.6414L27.124 29.9811C22.8177 31.9465 20 36.4616 20 41.2423V46.6072C20 51.1224 22.4455 55.3189 26.3797 57.4968L34.7265 62.1714C36.6935 63.2865 38.7669 63.7647 40.8403 63.7647C43.1796 63.7647 45.5187 63.1273 47.5921 61.7992L64.2328 51.0162C67.8479 48.6789 69.9744 44.7481 69.9744 40.4986V34.9743C69.9744 29.2374 66.1462 24.2442 60.6706 22.8631Z" fill="#0A0B1E"/>
<path d="M29.7837 35.6113C27.6039 36.5675 26.2217 38.7985 26.2217 41.2419V46.6071C26.2217 48.7849 27.4445 51.0158 29.4116 52.1314L37.7583 56.8059C39.7254 57.9213 42.2773 57.9213 44.138 56.5402L60.7783 45.9163C62.6391 44.8009 63.7025 42.7293 63.7025 40.6576V35.1333C63.7025 32.3179 61.7353 29.8745 59.0239 29.1308L51.4214 27.1654C49.9328 26.7936 48.4974 26.8998 47.1151 27.5372L29.7837 35.6113Z" fill="#FFFD63"/>
<path d="M124.515 32.3738L120.867 31.3797C119.515 31.0229 118.036 31.2013 116.76 31.7876L108.418 35.7893C106.352 36.7323 105 38.8989 105 41.1928V43.7671C105 45.9337 106.173 47.9473 108.061 48.9923L112.066 51.2354C113.01 51.7705 114.005 51.9999 115 51.9999C116.122 51.9999 117.245 51.6941 118.24 51.0568L126.225 45.8827C127.959 44.7612 128.98 42.875 128.98 40.836V38.1852C128.98 35.4324 127.143 33.0365 124.515 32.3738Z" fill="#0A0B1E"/>
<path d="M109.695 38.4909C108.649 38.9497 107.985 40.0202 107.985 41.1927V43.7671C107.985 44.8121 108.572 45.8825 109.516 46.4179L113.521 48.6608C114.465 49.1961 115.689 49.1961 116.582 48.5333L124.567 43.4356C125.46 42.9004 125.97 41.9063 125.97 40.9123V38.2615C125.97 36.9106 125.026 35.7381 123.725 35.3813L120.077 34.4382C119.363 34.2598 118.674 34.3108 118.011 34.6166L109.695 38.4909Z" fill="#FFFD63"/>
<path d="M200.076 40.5815C199.744 40.505 199.872 40.0462 200.076 39.7148C200.28 39.307 200.407 38.8992 200.407 38.4404V38.313C200.407 38.0326 200.203 37.8542 199.948 37.8542H196.989C196.708 37.8542 196.53 38.0581 196.53 38.313V49.8848C196.53 50.1651 196.734 50.3436 196.989 50.3436H200.025C200.305 50.3436 200.484 50.1397 200.484 49.8848V45.6282C200.484 42.5441 201.428 41.2441 204.515 41.3206C204.795 41.3206 204.974 41.1167 204.974 40.8618V38.1091C204.974 37.8287 204.77 37.6503 204.515 37.6503C201.811 37.7267 201.147 38.5933 200.407 40.1991C200.407 40.3775 200.28 40.5815 200.076 40.5815Z" fill="#0A0B1E"/>
<path d="M195.562 43.5382C195.562 39.1542 192.398 37.1406 189.158 37.1406C184.924 37.1406 182.424 39.9699 182.424 43.8696C182.424 47.6419 184.771 50.5986 189.235 50.5986C192.526 50.5986 194.49 48.7125 195.153 46.4949C195.23 46.2146 195.026 45.9597 194.745 45.9597H191.786C191.582 45.9597 191.403 46.0617 191.327 46.24C190.842 47.0047 190.255 47.5144 189.184 47.5144C187.781 47.5144 186.684 46.6479 186.352 45.297C186.276 45.0165 186.48 44.7618 186.761 44.7618H195.102C195.306 44.7618 195.485 44.7362 195.536 44.3539C195.536 44.252 195.562 43.8186 195.562 43.5382ZM189.235 40.1737C190.511 40.1737 191.403 40.8365 191.735 42.1364C191.812 42.4168 191.607 42.5952 191.327 42.5952H186.939C186.658 42.5952 186.48 42.3148 186.531 42.0599C186.888 40.9384 187.628 40.1737 189.235 40.1737Z" fill="#0A0B1E"/>
<path d="M181.555 40.9894C181.835 40.9894 182.014 40.7855 182.014 40.5306V38.3131C182.014 38.0328 181.81 37.8543 181.555 37.8543H179.412C179.131 37.8543 179.08 37.6504 179.08 37.3955V34.5408C179.08 34.2605 178.876 34.082 178.621 34.082H175.585C175.305 34.082 175.126 34.2859 175.126 34.5408V37.3701C175.126 37.6504 174.922 37.8288 174.667 37.8288H173.595C173.315 37.8288 173.136 38.0328 173.136 38.2876V40.5052C173.136 40.7855 173.34 40.9639 173.595 40.9639H174.667C174.947 40.9639 175.126 41.1678 175.126 41.4227V46.4695C175.126 49.5536 176.351 50.3692 178.902 50.3692H181.784C182.065 50.3692 182.243 50.1653 182.243 49.9104V47.6929C182.243 47.4126 182.039 47.2341 181.784 47.2341H180.126C179.055 47.2341 179.055 47.1577 179.055 45.9597V41.4737C179.055 41.1933 179.182 41.0149 179.386 41.0149H181.555V40.9894Z" fill="#0A0B1E"/>
<path d="M171.657 40.9894C171.938 40.9894 172.116 40.7855 172.116 40.5306V38.3131C172.116 38.0328 171.912 37.8543 171.657 37.8543H169.514C169.234 37.8543 169.183 37.6504 169.183 37.3955V34.5408C169.183 34.2605 168.979 34.082 168.724 34.082H165.688C165.407 34.082 165.229 34.2859 165.229 34.5408V37.3701C165.229 37.6504 165.025 37.8288 164.769 37.8288H163.698C163.417 37.8288 163.239 38.0328 163.239 38.2876V40.5052C163.239 40.7855 163.443 40.9639 163.698 40.9639H164.769C165.05 40.9639 165.229 41.1678 165.229 41.4227V46.4695C165.229 49.5536 166.453 50.3692 169.004 50.3692H171.836C172.116 50.3692 172.295 50.1653 172.295 49.9104V47.6929C172.295 47.4126 172.091 47.2341 171.836 47.2341H170.178C169.106 47.2341 169.106 47.1577 169.106 45.9597V41.4737C169.106 41.1933 169.234 41.0149 169.438 41.0149H171.657V40.9894Z" fill="#0A0B1E"/>
<path d="M153.953 50.6751C156.172 50.6751 157.524 48.9163 158.188 47.7184C158.264 47.5145 158.392 47.2596 158.723 47.3871C159.055 47.5145 158.8 47.9988 158.596 48.4067C158.392 48.8144 158.264 49.2222 158.264 49.7575V49.885C158.264 50.1653 158.468 50.3438 158.723 50.3438H161.682C161.963 50.3438 162.218 50.1399 162.218 49.885V38.3132C162.218 38.0328 161.938 37.8544 161.682 37.8544H158.723C158.443 37.8544 158.264 38.0583 158.264 38.3132V42.4933C158.264 45.45 156.861 47.4125 155.305 47.4125C153.953 47.4125 153.341 46.597 153.341 43.7677V38.3132C153.341 38.0328 153.06 37.8544 152.805 37.8544H149.846C149.565 37.8544 149.386 38.0583 149.386 38.3132V45.3225C149.361 48.8654 151.172 50.6751 153.953 50.6751Z" fill="#0A0B1E"/>
<path d="M138.929 33.3937C138.929 33.1133 138.725 32.9349 138.47 32.9349H135.434C135.153 32.9349 134.975 33.1388 134.975 33.3937V49.8848C134.975 50.1652 135.179 50.3437 135.434 50.3437H138.393C138.674 50.3437 138.929 50.1397 138.929 49.8848C138.929 49.5534 138.725 49.2221 138.521 48.8652C138.317 48.4574 138.113 48.0497 138.444 47.9222C138.725 47.8458 138.776 48.1261 138.852 48.2535C139.669 49.8083 140.944 50.7514 142.883 50.7514C146.378 50.7514 148.418 47.7948 148.418 44.0224C148.418 40.2501 146.403 37.2935 142.883 37.2935C140.919 37.2935 139.643 38.313 138.852 39.7914C138.776 39.9953 138.572 40.3266 138.317 40.1227C137.985 39.9953 138.317 39.511 138.521 39.1032C138.725 38.7718 138.929 38.4405 138.929 38.0326V33.3937ZM141.837 47.387C140.026 47.387 138.878 45.7812 138.878 43.895C138.878 42.0089 140 40.3776 141.837 40.3776C143.801 40.3776 144.669 41.9834 144.669 43.8695C144.669 45.7556 143.776 47.387 141.837 47.387Z" fill="#0A0B1E"/>
</svg>
