<svg width="250" height="82" viewBox="0 0 250 82" fill="none" xmlns="http://www.w3.org/2000/svg">
<g clip-path="url(#clip0_401_1360)">
<path d="M38.7286 16.0002C49.0722 16.0002 57.4573 24.3853 57.4573 34.7289C57.4573 45.0725 49.0722 53.4575 38.7286 53.4575C28.3851 53.4575 20 45.0725 20 34.7289C20 24.3853 28.3851 16.0002 38.7286 16.0002Z" fill="url(#paint0_radial_401_1360)"/>
<path d="M35.518 16.2107C31.6478 16.8827 28.3875 18.5253 25.6871 21.1635C22.912 23.8764 21.1946 27.0372 20.3609 30.9821L20.0747 32.3261L20.0373 49.1507L20 65.9878H20.3484C20.5475 65.9878 21.1822 65.9256 21.7546 65.8634C26.6452 65.266 30.8017 62.3043 33.0665 57.8119C33.6389 56.667 34.0496 55.348 34.3358 53.7053C34.5723 52.3116 34.5847 51.8511 34.5473 44.5836L34.51 36.9304L34.8087 36.1838C35.2194 35.1633 36.3518 34.0309 37.3722 33.6202L38.1189 33.3216L45.0877 33.3092C48.9205 33.3092 52.2804 33.2594 52.5418 33.2096C53.7613 32.9732 55.068 31.9527 55.5906 30.8203C55.74 30.5092 55.9391 29.8994 56.0262 29.4887C56.1631 28.8043 56.1507 28.6176 55.9515 27.8461C55.3293 25.5564 53.1391 22.3831 50.8992 20.5289C48.3605 18.4258 45.5605 17.0196 42.5366 16.3103C40.9437 15.9494 37.3349 15.8871 35.518 16.2107Z" fill="url(#paint1_radial_401_1360)"/>
</g>
<g clip-path="url(#clip1_401_1360)">
<path d="M100.716 28C106.082 28 110.433 32.3736 110.433 37.7688C110.433 43.1639 106.082 47.5375 100.716 47.5375C95.3501 47.5375 91 43.1639 91 37.7688C91 32.3736 95.3501 28 100.716 28Z" fill="url(#paint2_radial_401_1360)"/>
<path d="M99.0506 28.1098C97.0428 28.4603 95.3514 29.3171 93.9504 30.6931C92.5107 32.1081 91.6198 33.7568 91.1872 35.8145L91.0387 36.5155L91.0194 45.291L91 54.0733H91.1808C91.2841 54.0733 91.6133 54.0409 91.9103 54.0083C94.4475 53.6968 96.6038 52.152 97.7788 49.8088C98.0758 49.2116 98.2888 48.5236 98.4373 47.6668C98.56 46.9399 98.5664 46.6997 98.5471 42.909L98.5277 38.9171L98.6826 38.5276C98.8957 37.9954 99.4832 37.4047 100.013 37.1905L100.4 37.0347L104.015 37.0282C106.004 37.0282 107.747 37.0023 107.882 36.9763C108.515 36.853 109.193 36.3207 109.464 35.7301C109.542 35.5678 109.645 35.2497 109.69 35.0355C109.761 34.6785 109.755 34.5812 109.651 34.1788C109.329 32.9844 108.192 31.3293 107.03 30.3621C105.713 29.2651 104.261 28.5317 102.692 28.1617C101.865 27.9735 99.9932 27.941 99.0506 28.1098Z" fill="url(#paint3_radial_401_1360)"/>
<mask id="mask0_401_1360" style="mask-type:alpha" maskUnits="userSpaceOnUse" x="115" y="34" width="76" height="14">
<path d="M191 34.8105H115.751V47.269H191V34.8105Z" fill="white"/>
<path fill-rule="evenodd" clip-rule="evenodd" d="M127.721 45.234C127.697 45.0865 127.683 43.2626 127.683 40.0743L127.683 35.1427H129.821L129.831 39.9114C129.841 44.6334 129.842 44.6814 129.915 44.8055C130.046 45.0267 130.17 45.0709 130.717 45.0894L131.202 45.1058V46.8337H130.511C129.694 46.8337 129.217 46.787 128.882 46.6739C128.237 46.4563 127.839 45.9624 127.721 45.234ZM162.215 36.9311V34.9766H164.428V36.9311H162.215ZM166.786 46.6688V34.9766H168.926L168.945 39.1494L169.132 38.9904C169.512 38.6682 170.041 38.4204 170.632 38.2878C170.986 38.2084 172.28 38.1725 172.665 38.2313C173.516 38.3613 174.117 38.6399 174.612 39.1335C175.01 39.5315 175.288 40.0602 175.467 40.7586C175.544 41.0609 175.548 41.1418 175.547 42.5233C175.545 43.8944 175.541 43.9858 175.467 44.2493C175.28 44.9144 175.06 45.3198 174.661 45.7385C174.007 46.4231 173.245 46.7199 172.029 46.7643C170.652 46.8144 169.74 46.5595 169.051 45.9324L168.82 45.7221L168.8 46.6495L166.786 46.6688ZM177.819 45.1864C177.771 44.9606 177.764 44.2568 177.764 39.951V34.9766H179.903L179.913 39.7453C179.922 44.4677 179.923 44.5152 179.996 44.6394C180.127 44.8606 180.251 44.9048 180.798 44.9232L181.283 44.9397V46.6774L180.349 46.6575C179.638 46.6425 179.358 46.6229 179.179 46.5762C178.427 46.3804 177.973 45.9163 177.819 45.1864ZM115.917 46.6676V35.5875L118.756 35.6027L118.853 35.6032C121.832 35.6192 122.517 35.6228 123.273 35.8242C124.011 36.0208 124.528 36.3142 124.977 36.7899C125.459 37.3012 125.688 37.8847 125.768 38.804C125.862 39.8842 125.655 40.9081 125.211 41.5543C124.693 42.3076 123.89 42.7621 122.658 42.9987C122.388 43.0507 121.366 43.065 119.926 43.0819L118.184 43.1024L118.166 46.6676H115.917ZM123.059 37.8892C122.841 37.6721 122.585 37.5414 122.168 37.4337C121.887 37.3613 121.131 37.3535 119.779 37.3397C119.747 37.3393 119.714 37.339 119.681 37.3387L118.166 37.3231V41.3469H119.558C120.632 41.3469 121.686 41.3345 121.926 41.2927C122.551 41.184 122.985 40.9467 123.219 40.5848C123.44 40.2432 123.483 40.0693 123.501 39.4235C123.524 38.6102 123.42 38.2476 123.059 37.8892ZM152.999 40.1158C153.259 39.0844 154.119 38.4712 155.613 38.2536C155.801 38.2262 156.291 38.2042 156.758 38.2021C157.619 38.1984 158.152 38.2439 158.826 38.3791C159.274 38.4688 160.069 38.6956 160.155 38.7579C160.209 38.7974 160.191 38.8729 159.961 39.5584C159.723 40.2688 159.702 40.3151 159.62 40.3115C159.573 40.3094 159.337 40.2499 159.098 40.1793C158.401 39.9738 157.86 39.8936 157.03 39.8728C155.843 39.8431 155.324 39.9869 155.107 40.4067C155.009 40.596 155.046 40.9175 155.182 41.0607C155.419 41.3096 155.782 41.4088 156.958 41.5465C158.539 41.7315 159.092 41.8678 159.614 42.2008C160.208 42.58 160.464 43.1417 160.469 44.0797C160.473 44.8704 160.288 45.3629 159.809 45.8355C159.113 46.5217 157.996 46.8178 156.305 46.7644C155.124 46.7272 154.145 46.543 153.072 46.1556L152.778 46.0492L153.031 45.2634C153.171 44.8314 153.29 44.4712 153.298 44.4632C153.305 44.4552 153.511 44.516 153.755 44.5984C154.527 44.8581 155.156 44.9937 155.977 45.0769C156.45 45.1251 157.165 45.1065 157.484 45.0379C157.774 44.9756 158.121 44.801 158.224 44.6656C158.416 44.4159 158.436 44.0117 158.269 43.7656C158.09 43.4997 157.697 43.3937 156.423 43.267C155.24 43.1495 154.636 43.0072 154.058 42.7103C153.553 42.4511 153.24 42.0984 153.052 41.5747C152.945 41.2776 152.915 40.4502 152.999 40.1158ZM183.072 39.5428C183.604 38.8941 184.53 38.4114 185.547 38.2528C185.967 38.1873 187.107 38.186 187.532 38.2506C188.967 38.468 190.018 39.1944 190.497 40.3004C190.751 40.887 190.834 41.3972 190.834 42.3809V43.0839L184.467 43.1024L184.478 43.2291C184.544 43.9793 184.976 44.5731 185.65 44.8359C185.98 44.9648 186.119 44.9952 186.579 45.0382C187.052 45.0824 187.641 45.0405 188.186 44.9244C188.609 44.834 189.389 44.5814 189.717 44.4285C189.851 44.366 189.974 44.3149 189.99 44.3149C190.007 44.3149 190.171 44.6528 190.354 45.0659L190.688 45.8171L190.269 46.0194C189.669 46.3091 188.927 46.54 188.113 46.6912C187.632 46.7804 186.076 46.7824 185.573 46.6943C184.087 46.4345 183.091 45.7453 182.615 44.6462C182.333 43.995 182.255 43.4295 182.282 42.2196C182.299 41.4669 182.313 41.3176 182.396 40.9669C182.51 40.4825 182.798 39.8776 183.072 39.5428ZM142.883 44.2244L142.86 38.3065H145.004V40.8502C145.004 42.3982 145.018 43.5139 145.041 43.7006C145.156 44.6277 145.756 45.0807 146.872 45.0832C147.898 45.0855 148.442 44.7693 148.69 44.0254C148.751 43.8408 148.757 43.6248 148.768 41.0664L148.78 38.3065H150.92L150.907 41.2474C150.895 43.8497 150.887 44.2166 150.833 44.435C150.546 45.5955 149.668 46.3719 148.329 46.6472C147.623 46.7925 146.364 46.8119 145.584 46.6899C144.169 46.4683 143.306 45.7664 142.978 44.5711L142.883 44.2244ZM162.252 46.6676V38.3065H164.392V46.6676H162.252ZM188.602 41.1723C188.444 40.5053 188.008 40.0628 187.327 39.8788C187.211 39.8473 186.911 39.8147 186.662 39.8062C186.137 39.7882 185.719 39.8604 185.393 40.0253C185.111 40.1681 184.794 40.4839 184.668 40.7475C184.563 40.9681 184.449 41.4302 184.449 41.635V41.7451H188.657L188.657 41.5731C188.656 41.4786 188.632 41.2982 188.602 41.1723ZM173.304 41.2564C173.095 40.5748 172.638 40.1494 171.949 39.9942C171.621 39.9202 170.754 39.92 170.414 39.9938C169.675 40.1542 169.206 40.5944 169.01 41.3107C168.916 41.6529 168.914 43.3541 169.008 43.69C169.194 44.3624 169.597 44.7404 170.334 44.9357C170.56 44.9955 170.725 45.0096 171.194 45.0096C172.069 45.0096 172.504 44.8721 172.878 44.4779C173.074 44.271 173.2 44.0458 173.303 43.7177C173.363 43.5269 173.371 43.3774 173.371 42.4871C173.371 41.6061 173.362 41.4452 173.304 41.2564Z" fill="black"/>
<path fill-rule="evenodd" clip-rule="evenodd" d="M135.916 38.389C134.793 38.5343 133.931 38.9277 133.341 39.564L134.483 41.0397C134.507 41.0398 134.785 40.743 134.89 40.6423C135.101 40.44 135.536 40.2086 135.88 40.1156C136.214 40.0249 136.949 40.0077 137.316 40.082C137.884 40.1967 138.211 40.4153 138.384 40.7959C138.473 40.991 138.491 41.081 138.503 41.4111L138.518 41.7979L136.672 41.8122C134.949 41.8256 134.805 41.8316 134.483 41.904C133.625 42.0966 133.067 42.4777 132.764 43.0779C132.588 43.4264 132.525 43.7482 132.525 44.3001C132.525 44.859 132.588 45.1715 132.775 45.5489C133.161 46.3254 133.904 46.7668 135.063 46.909C135.475 46.9595 136.38 46.9308 136.753 46.8553C137.384 46.7281 137.982 46.456 138.399 46.1067L138.655 45.8922C138.841 46.5215 139.294 46.8876 139.588 46.9367C140.087 47.0198 141.333 46.9367 141.333 46.9367V45.0264C141.333 45.0264 140.751 44.9434 140.668 44.7773C140.585 44.6112 140.668 43.8477 140.668 43.8477C140.668 41.2233 140.661 40.8503 140.608 40.6257C140.305 39.3327 139.473 38.6506 137.918 38.4202C137.567 38.3683 136.236 38.3475 135.916 38.389ZM138.435 44.3875C138.497 44.2232 138.51 44.1044 138.51 43.7015V43.2142L137.086 43.2171C135.338 43.2207 135.159 43.2481 134.889 43.5553C134.748 43.7152 134.701 43.8836 134.701 44.2235C134.7 44.6021 134.756 44.7562 134.972 44.9731C135.286 45.2876 135.78 45.4125 136.551 45.3726C137.068 45.3457 137.356 45.2786 137.735 45.0959C138.086 44.9266 138.323 44.6867 138.435 44.3875Z" fill="black"/>
</mask>
<g mask="url(#mask0_401_1360)">
<path fill-rule="evenodd" clip-rule="evenodd" d="M127.721 45.2343C127.697 45.0868 127.683 43.2629 127.683 40.0745L127.683 35.1429H129.821L129.831 39.9116C129.841 44.6336 129.842 44.6816 129.915 44.8057C130.046 45.027 130.17 45.0712 130.717 45.0896L131.202 45.106V46.8339H130.511C129.694 46.8339 129.217 46.7873 128.882 46.6741C128.237 46.4565 127.839 45.9627 127.721 45.2343ZM162.215 36.9313V34.9768H164.428V36.9313H162.215ZM166.786 46.669V34.9768H168.926L168.945 39.1497L169.132 38.9906C169.512 38.6684 170.041 38.4206 170.632 38.2881C170.986 38.2087 172.28 38.1727 172.665 38.2316C173.516 38.3616 174.117 38.6401 174.612 39.1337C175.01 39.5318 175.288 40.0604 175.467 40.7589C175.544 41.0612 175.548 41.1421 175.547 42.5235C175.545 43.8946 175.541 43.986 175.467 44.2495C175.28 44.9147 175.06 45.32 174.661 45.7388C174.007 46.4233 173.245 46.7202 172.029 46.7645C170.652 46.8147 169.74 46.5597 169.051 45.9326L168.82 45.7223L168.8 46.6497L166.786 46.669ZM177.819 45.1866C177.771 44.9609 177.764 44.257 177.764 39.9513V34.9768H179.903L179.913 39.7455C179.922 44.468 179.923 44.5155 179.996 44.6396C180.127 44.8609 180.251 44.905 180.798 44.9235L181.283 44.9399V46.6776L180.349 46.6577C179.638 46.6428 179.358 46.6232 179.179 46.5765C178.427 46.3806 177.973 45.9165 177.819 45.1866ZM115.917 46.6678V35.5878L118.756 35.603L118.853 35.6035C121.832 35.6194 122.517 35.6231 123.273 35.8245C124.011 36.021 124.528 36.3145 124.977 36.7901C125.459 37.3014 125.688 37.8849 125.768 38.8043C125.862 39.8844 125.655 40.9083 125.211 41.5546C124.693 42.3078 123.89 42.7623 122.658 42.999C122.388 43.0509 121.366 43.0653 119.926 43.0822L118.184 43.1026L118.166 46.6678H115.917ZM123.059 37.8894C122.841 37.6724 122.585 37.5416 122.168 37.4339C121.887 37.3616 121.131 37.3538 119.779 37.3399C119.747 37.3396 119.714 37.3392 119.681 37.3389L118.166 37.3233V41.3472H119.558C120.632 41.3472 121.686 41.3347 121.926 41.293C122.551 41.1842 122.985 40.9469 123.219 40.585C123.44 40.2435 123.483 40.0695 123.501 39.4237C123.524 38.6104 123.42 38.2478 123.059 37.8894ZM152.999 40.1161C153.259 39.0847 154.119 38.4714 155.613 38.2538C155.801 38.2264 156.291 38.2044 156.758 38.2024C157.619 38.1986 158.152 38.2441 158.826 38.3793C159.274 38.469 160.069 38.6959 160.155 38.7582C160.209 38.7976 160.191 38.8731 159.961 39.5587C159.723 40.2691 159.702 40.3153 159.62 40.3117C159.573 40.3096 159.337 40.2501 159.098 40.1795C158.401 39.9741 157.86 39.8939 157.03 39.8731C155.843 39.8433 155.324 39.9872 155.107 40.4069C155.009 40.5962 155.046 40.9177 155.182 41.061C155.419 41.3099 155.782 41.409 156.958 41.5467C158.539 41.7317 159.092 41.868 159.614 42.2011C160.208 42.5803 160.464 43.1419 160.469 44.0799C160.473 44.8707 160.288 45.3632 159.809 45.8358C159.113 46.522 157.996 46.818 156.305 46.7647C155.124 46.7275 154.145 46.5433 153.072 46.1559L152.778 46.0494L153.031 45.2637C153.171 44.8316 153.29 44.4715 153.298 44.4635C153.305 44.4554 153.511 44.5163 153.755 44.5986C154.527 44.8584 155.156 44.9939 155.977 45.0771C156.45 45.1253 157.165 45.1067 157.484 45.0381C157.774 44.9758 158.121 44.8012 158.224 44.6658C158.416 44.4162 158.436 44.012 158.269 43.7658C158.09 43.4999 157.697 43.3939 156.423 43.2672C155.24 43.1497 154.636 43.0075 154.058 42.7105C153.553 42.4514 153.24 42.0986 153.052 41.5749C152.945 41.2779 152.915 40.4505 152.999 40.1161ZM183.072 39.5431C183.604 38.8944 184.53 38.4117 185.547 38.2531C185.967 38.1876 187.107 38.1863 187.532 38.2508C188.967 38.4682 190.018 39.1947 190.497 40.3006C190.751 40.8872 190.834 41.3975 190.834 42.3811V43.0841L184.467 43.1026L184.478 43.2293C184.544 43.9795 184.976 44.5734 185.65 44.8361C185.98 44.965 186.119 44.9954 186.579 45.0384C187.052 45.0826 187.641 45.0408 188.186 44.9246C188.609 44.8343 189.389 44.5816 189.717 44.4287C189.851 44.3663 189.974 44.3152 189.99 44.3152C190.007 44.3152 190.171 44.6531 190.354 45.0662L190.688 45.8173L190.269 46.0197C189.669 46.3094 188.927 46.5403 188.113 46.6914C187.632 46.7806 186.076 46.7826 185.573 46.6946C184.087 46.4348 183.091 45.7456 182.615 44.6464C182.333 43.9953 182.255 43.4297 182.282 42.2198C182.299 41.4672 182.313 41.3178 182.396 40.9671C182.51 40.4828 182.798 39.8779 183.072 39.5431ZM142.883 44.2247L142.86 38.3068H145.004V40.8504C145.004 42.3985 145.018 43.5141 145.041 43.7008C145.156 44.628 145.756 45.081 146.872 45.0835C147.898 45.0858 148.442 44.7695 148.69 44.0256C148.751 43.841 148.757 43.6251 148.768 41.0667L148.78 38.3068H150.92L150.907 41.2476C150.895 43.85 150.887 44.2169 150.833 44.4352C150.546 45.5957 149.668 46.3722 148.329 46.6474C147.623 46.7928 146.364 46.8122 145.584 46.6901C144.169 46.4685 143.306 45.7667 142.978 44.5714L142.883 44.2247ZM162.252 46.6678V38.3068H164.392V46.6678H162.252ZM188.602 41.1725C188.444 40.5055 188.008 40.0631 187.327 39.879C187.211 39.8476 186.911 39.8149 186.662 39.8064C186.137 39.7885 185.719 39.8606 185.393 40.0255C185.111 40.1683 184.794 40.4842 184.668 40.7478C184.563 40.9684 184.449 41.4304 184.449 41.6352V41.7453H188.657L188.657 41.5734C188.656 41.4788 188.632 41.2984 188.602 41.1725ZM173.304 41.2567C173.095 40.5751 172.638 40.1497 171.949 39.9944C171.621 39.9205 170.754 39.9202 170.414 39.994C169.675 40.1545 169.206 40.5947 169.01 41.311C168.916 41.6532 168.914 43.3543 169.008 43.6903C169.194 44.3627 169.597 44.7406 170.334 44.9359C170.56 44.9957 170.725 45.0099 171.194 45.0099C172.069 45.0099 172.504 44.8723 172.878 44.4782C173.074 44.2712 173.2 44.0461 173.303 43.718C173.363 43.5272 173.371 43.3776 173.371 42.4873C173.371 41.6064 173.362 41.4455 173.304 41.2567Z" fill="#191E38"/>
<path fill-rule="evenodd" clip-rule="evenodd" d="M135.915 38.3893C134.793 38.5346 133.931 38.928 133.34 39.5642L134.482 41.04C134.506 41.04 134.784 40.7432 134.89 40.6426C135.101 40.4402 135.536 40.2089 135.879 40.1159C136.214 40.0251 136.948 40.0079 137.316 40.0822C137.883 40.1969 138.21 40.4155 138.384 40.7962C138.473 40.9913 138.49 41.0812 138.503 41.4114L138.517 41.7981L136.672 41.8124C134.948 41.8259 134.804 41.8319 134.482 41.9043C133.625 42.0968 133.067 42.4779 132.764 43.0781C132.587 43.4266 132.524 43.7484 132.524 44.3004C132.524 44.8592 132.587 45.1717 132.775 45.5491C133.161 46.3257 133.903 46.767 135.063 46.9092C135.474 46.9597 136.379 46.931 136.752 46.8556C137.383 46.7283 137.981 46.4563 138.398 46.1069L138.654 45.8925C138.84 46.5217 139.293 46.8878 139.588 46.937C140.086 47.02 141.332 46.937 141.332 46.937V45.0267C141.332 45.0267 140.75 44.9436 140.668 44.7775C140.585 44.6114 140.668 43.8479 140.668 43.8479C140.667 41.2236 140.661 40.8505 140.608 40.6259C140.305 39.3329 139.473 38.6509 137.917 38.4204C137.567 38.3685 136.236 38.3478 135.915 38.3893ZM138.435 44.3877C138.496 44.2234 138.509 44.1047 138.509 43.7018V43.2145L137.085 43.2173C135.337 43.2209 135.159 43.2483 134.889 43.5555C134.748 43.7155 134.7 43.8839 134.7 44.2238C134.7 44.6024 134.756 44.7564 134.972 44.9734C135.285 45.2878 135.779 45.4127 136.55 45.3729C137.068 45.346 137.355 45.2788 137.734 45.0961C138.085 44.9268 138.323 44.687 138.435 44.3877Z" fill="#191E38"/>
<path d="M118.853 35.5203C118.821 35.5201 118.789 35.5199 118.756 35.5197L118.755 35.6859C118.788 35.686 118.82 35.6862 118.852 35.6864L118.853 35.5203ZM127.683 40.0744H127.849V40.0744L127.683 40.0744ZM127.721 45.2341L127.557 45.2609L127.721 45.2341ZM128.882 46.674L128.935 46.5165L128.882 46.674ZM131.202 46.8338V46.9999H131.368V46.8338H131.202ZM131.202 45.1059H131.368V44.9453L131.208 44.9399L131.202 45.1059ZM130.718 45.0894L130.712 45.2556L130.718 45.0894ZM129.915 44.8056L129.772 44.8899L129.915 44.8056ZM129.832 39.9115L129.998 39.9111L129.832 39.9115ZM129.821 35.1428L129.988 35.1424L129.987 34.9767H129.821V35.1428ZM127.683 35.1428V34.9767H127.517V35.1428L127.683 35.1428ZM162.215 36.9312H162.049V37.0973H162.215V36.9312ZM164.428 36.9312V37.0973H164.594V36.9312H164.428ZM164.428 34.9767H164.594V34.8105H164.428V34.9767ZM162.215 34.9767V34.8105H162.049V34.9767H162.215ZM166.787 46.6689H166.62V46.8366L166.788 46.835L166.787 46.6689ZM168.8 46.6496L168.802 46.8157L168.963 46.8142L168.966 46.6532L168.8 46.6496ZM168.82 45.7222L168.932 45.5994L168.662 45.3536L168.654 45.7185L168.82 45.7222ZM169.051 45.9325L168.939 46.0554H168.94L169.051 45.9325ZM172.029 46.7644L172.035 46.9303L172.029 46.7644ZM174.661 45.7386L174.781 45.8532L174.661 45.7386ZM175.467 44.2494L175.627 44.2944V44.2944L175.467 44.2494ZM175.547 42.5234L175.713 42.5235L175.547 42.5234ZM175.467 40.7587L175.306 40.7999L175.467 40.7587ZM174.612 39.1336L174.494 39.2511L174.612 39.1336ZM172.665 38.2314L172.64 38.3956L172.665 38.2314ZM170.632 38.2879L170.668 38.45L170.632 38.2879ZM169.132 38.9905L169.025 38.8639L169.132 38.9905ZM168.945 39.1495L168.779 39.1503L168.781 39.5072L169.053 39.2761L168.945 39.1495ZM168.926 34.9767L169.093 34.9759L169.092 34.8105H168.926V34.9767ZM166.787 34.9767V34.8105H166.62V34.9767H166.787ZM177.819 45.1865L177.981 45.1521L177.819 45.1865ZM179.179 46.5763L179.137 46.7371L179.179 46.5763ZM180.349 46.6576L180.352 46.4916L180.349 46.6576ZM181.283 46.6775L181.279 46.8436L181.449 46.8471V46.6775H181.283ZM181.283 44.9398H181.449V44.7792L181.289 44.7738L181.283 44.9398ZM180.798 44.9233L180.793 45.0894L180.798 44.9233ZM179.996 44.6395L179.853 44.7238L179.996 44.6395ZM179.913 39.7454L180.079 39.745L179.913 39.7454ZM179.903 34.9767L180.069 34.9763L180.069 34.8105H179.903V34.9767ZM177.764 34.9767V34.8105H177.598V34.9767H177.764ZM115.917 46.6677H115.751V46.8338H115.917V46.6677ZM118.166 46.6677V46.8338H118.331L118.332 46.6685L118.166 46.6677ZM118.185 43.1025L118.183 42.9364L118.019 42.9383L118.018 43.1016L118.185 43.1025ZM119.926 43.082L119.924 42.9159L119.926 43.082ZM122.658 42.9988L122.627 42.8357L122.658 42.9988ZM125.211 41.5544L125.348 41.6485L125.211 41.5544ZM125.768 38.8041L125.934 38.7897L125.768 38.8041ZM124.977 36.79L125.098 36.676L124.977 36.79ZM123.273 35.8243L123.316 35.6638L123.273 35.8243ZM118.756 35.6028L118.755 35.7689L118.756 35.6028ZM115.917 35.5876L115.918 35.4215L115.751 35.4206V35.5876H115.917ZM122.168 37.4338L122.126 37.5946L122.168 37.4338ZM123.059 37.8893L122.942 38.0071L123.059 37.8893ZM123.501 39.4236L123.667 39.4283V39.4283L123.501 39.4236ZM123.219 40.5848L123.359 40.6752L123.219 40.5848ZM121.926 41.2928L121.955 41.4565V41.4565L121.926 41.2928ZM118.166 41.347H118V41.5131H118.166V41.347ZM118.166 37.3232L118.168 37.1571L118 37.1554V37.3232H118.166ZM119.681 37.3388L119.683 37.1727L119.681 37.3388ZM135.916 38.3891L135.937 38.5538L135.916 38.3891ZM133.341 39.5641L133.219 39.4511L133.123 39.5543L133.209 39.6657L133.341 39.5641ZM134.482 41.0398L134.351 41.1414L134.401 41.2058L134.482 41.2059L134.482 41.0398ZM134.89 40.6424L135.005 40.7624L134.89 40.6424ZM135.879 40.1157L135.923 40.276L135.879 40.1157ZM137.316 40.082L137.283 40.2448L137.316 40.082ZM138.384 40.796L138.233 40.8649L138.384 40.796ZM138.503 41.4112L138.337 41.4174L138.503 41.4112ZM138.517 41.7979L138.519 41.964L138.69 41.9627L138.683 41.7917L138.517 41.7979ZM136.672 41.8122L136.671 41.6461L136.672 41.8122ZM134.482 41.9041L134.519 42.0661L134.482 41.9041ZM132.764 43.0779L132.912 43.1529V43.1529L132.764 43.0779ZM132.775 45.5489L132.924 45.475L132.775 45.5489ZM135.063 46.9091L135.043 47.074L135.063 46.9091ZM136.753 46.8554L136.72 46.6926L136.753 46.8554ZM138.399 46.1067L138.505 46.234H138.505L138.399 46.1067ZM138.655 45.8923L138.814 45.8451L138.742 45.6022L138.548 45.7649L138.655 45.8923ZM141.332 46.9368L141.344 47.1026L141.498 47.0923V46.9368H141.332ZM140.668 43.8477L140.833 43.8657L140.834 43.8567V43.8477L140.668 43.8477ZM140.608 40.6257L140.77 40.5878V40.5878L140.608 40.6257ZM137.918 38.4202L137.942 38.2559L137.918 38.4202ZM155.613 38.2537L155.637 38.4181L155.613 38.2537ZM152.999 40.1159L152.838 40.0754V40.0754L152.999 40.1159ZM153.052 41.5748L153.208 41.5185V41.5185L153.052 41.5748ZM154.058 42.7104L154.134 42.5626L154.058 42.7104ZM156.423 43.2671L156.406 43.4324L156.423 43.2671ZM158.27 43.7657L158.132 43.8586L158.27 43.7657ZM158.225 44.6657L158.357 44.7667L158.225 44.6657ZM157.484 45.038L157.449 44.8757L157.484 45.038ZM155.977 45.077L155.994 44.9119L155.977 45.077ZM153.755 44.5985L153.808 44.441L153.755 44.5985ZM153.031 45.2635L153.189 45.3145L153.031 45.2635ZM152.778 46.0493L152.62 45.9983L152.57 46.1511L152.721 46.2056L152.778 46.0493ZM153.073 46.1557L153.129 45.9994L153.073 46.1557ZM156.305 46.7645L156.299 46.9306L156.305 46.7645ZM159.809 45.8356L159.926 45.9539L159.809 45.8356ZM160.469 44.0797L160.303 44.0807L160.469 44.0797ZM159.614 42.2009L159.524 42.341L159.614 42.2009ZM156.958 41.5466L156.938 41.7115L156.958 41.5466ZM155.182 41.0608L155.062 41.1754V41.1754L155.182 41.0608ZM155.107 40.4068L154.959 40.3303V40.3303L155.107 40.4068ZM157.03 39.8729L157.026 40.039L157.03 39.8729ZM159.098 40.1794L159.145 40.0201V40.02L159.098 40.1794ZM159.621 40.3116L159.613 40.4775L159.621 40.3116ZM159.961 39.5585L160.119 39.6112V39.6112L159.961 39.5585ZM160.155 38.758L160.057 38.8922L160.057 38.8923L160.155 38.758ZM158.826 38.3792L158.793 38.542L158.826 38.3792ZM156.758 38.2022L156.757 38.0361L156.758 38.2022ZM185.547 38.2529L185.521 38.0888L185.547 38.2529ZM183.072 39.5429L182.944 39.4376L183.072 39.5429ZM182.396 40.967L182.557 41.0053V41.0052L182.396 40.967ZM182.282 42.2196L182.116 42.2159L182.282 42.2196ZM182.615 44.6463L182.463 44.7124L182.615 44.6463ZM185.573 46.6944L185.602 46.5308L185.573 46.6944ZM188.113 46.6913L188.143 46.8546L188.113 46.6913ZM190.269 46.0195L190.341 46.1692L190.269 46.0195ZM190.689 45.8172L190.761 45.9667L190.906 45.8968L190.84 45.7496L190.689 45.8172ZM190.354 45.066L190.506 44.9986L190.354 45.066ZM189.717 44.4286L189.647 44.278V44.278L189.717 44.4286ZM188.186 44.9245L188.22 45.087L188.186 44.9245ZM186.579 45.0383L186.564 45.2036L186.579 45.0383ZM185.65 44.836L185.71 44.6811L185.65 44.836ZM184.478 43.2292L184.313 43.2436L184.478 43.2292ZM184.467 43.1025L184.467 42.9364L184.286 42.9369L184.301 43.1169L184.467 43.1025ZM190.834 43.084L190.835 43.2501L191 43.2496V43.084H190.834ZM190.497 40.3005L190.345 40.3665V40.3666L190.497 40.3005ZM187.533 38.2507L187.508 38.4149L187.533 38.2507ZM142.883 44.2245L142.717 44.2252L142.717 44.2472L142.723 44.2684L142.883 44.2245ZM142.978 44.5712L142.818 44.6152L142.978 44.5712ZM145.584 46.6899L145.61 46.5258L145.584 46.6899ZM148.329 46.6473L148.363 46.81L148.329 46.6473ZM150.833 44.435L150.994 44.4749V44.4748L150.833 44.435ZM150.907 41.2475L150.741 41.2467L150.907 41.2475ZM150.92 38.3066L151.086 38.3074L151.087 38.1405H150.92V38.3066ZM148.78 38.3066V38.1405H148.615L148.614 38.3059L148.78 38.3066ZM148.768 41.0665L148.602 41.0658L148.768 41.0665ZM148.69 44.0255L148.847 44.078V44.078L148.69 44.0255ZM146.872 45.0833L146.872 44.9172L146.872 45.0833ZM145.042 43.7006L144.877 43.721V43.721L145.042 43.7006ZM145.004 38.3066H145.17V38.1405H145.004V38.3066ZM142.86 38.3066V38.1405H142.693L142.694 38.3073L142.86 38.3066ZM162.252 46.6677H162.086V46.8338H162.252V46.6677ZM164.392 46.6677V46.8338H164.558V46.6677H164.392ZM164.392 38.3066H164.558V38.1405H164.392V38.3066ZM162.252 38.3066V38.1405H162.086V38.3066H162.252ZM187.327 39.8789L187.284 40.0392L187.327 39.8789ZM188.602 41.1724L188.764 41.1342V41.1342L188.602 41.1724ZM188.657 41.5732L188.491 41.5737V41.5738L188.657 41.5732ZM188.657 41.7452V41.9113H188.824L188.823 41.7446L188.657 41.7452ZM184.449 41.7452H184.283V41.9113H184.449V41.7452ZM184.668 40.7476L184.818 40.8191V40.819L184.668 40.7476ZM185.393 40.0254L185.468 40.1736V40.1736L185.393 40.0254ZM186.662 39.8063L186.656 39.9723L186.662 39.8063ZM171.949 39.9943L171.913 40.1563L171.949 39.9943ZM173.304 41.2565L173.146 41.3053V41.3053L173.304 41.2565ZM173.303 43.7178L173.462 43.7675L173.303 43.7178ZM172.878 44.478L172.758 44.3637V44.3637L172.878 44.478ZM170.334 44.9358L170.377 44.7752L170.334 44.9358ZM169.008 43.6901L168.848 43.7345V43.7345L169.008 43.6901ZM169.01 41.3108L169.17 41.3547V41.3547L169.01 41.3108ZM170.414 39.9939L170.45 40.1562L170.414 39.9939ZM138.435 44.3875L138.591 44.4459V44.4458L138.435 44.3875ZM137.734 45.0959L137.662 44.9464L137.734 45.0959ZM136.55 45.3727L136.542 45.2067L136.55 45.3727ZM134.972 44.9732L135.09 44.8561L134.972 44.9732ZM134.7 44.2236L134.867 44.2237V44.2237L134.7 44.2236ZM134.889 43.5553L135.014 43.6651V43.6651L134.889 43.5553ZM137.086 43.2172L137.085 43.051L137.086 43.2172ZM138.51 43.2143H138.676V43.0479L138.509 43.0482L138.51 43.2143ZM141.332 45.0265H141.498V44.8825L141.356 44.862L141.332 45.0265ZM118.853 35.6033L118.852 35.7694L118.853 35.6033ZM119.779 37.3398L119.778 37.5059L119.779 37.3398ZM127.517 40.0744C127.517 41.6687 127.521 42.9222 127.527 43.7958C127.53 44.2325 127.534 44.5747 127.539 44.8172C127.541 44.9385 127.544 45.0355 127.546 45.1072C127.549 45.174 127.552 45.2301 127.557 45.2609L127.885 45.2076C127.885 45.2084 127.885 45.2064 127.884 45.2002C127.883 45.1944 127.883 45.1866 127.882 45.1765C127.881 45.1562 127.88 45.129 127.878 45.0946C127.876 45.026 127.873 44.9313 127.871 44.8109C127.866 44.5703 127.862 44.2296 127.859 43.7934C127.853 42.921 127.849 41.6684 127.849 40.0744L127.517 40.0744ZM127.557 45.2609C127.684 46.0436 128.12 46.5921 128.829 46.8313L128.935 46.5165C128.355 46.3207 127.994 45.8816 127.885 45.2076L127.557 45.2609ZM128.829 46.8313C129.192 46.9539 129.693 46.9999 130.511 46.9999V46.6677C129.694 46.6677 129.242 46.6202 128.935 46.5165L128.829 46.8313ZM130.511 46.9999H131.202V46.6677H130.511V46.9999ZM131.208 44.9399L130.723 44.9235L130.712 45.2556L131.196 45.2718L131.208 44.9399ZM130.723 44.9235C130.446 44.914 130.303 44.8981 130.216 44.867C130.148 44.8431 130.111 44.8104 130.059 44.7213L129.772 44.8899C129.85 45.0222 129.941 45.1222 130.105 45.1801C130.249 45.2311 130.442 45.2464 130.712 45.2556L130.723 44.9235ZM130.059 44.7213C130.052 44.7097 130.051 44.7081 130.05 44.7036C130.047 44.6958 130.043 44.6772 130.038 44.6345C130.029 44.5474 130.021 44.3897 130.016 44.0799C130.005 43.4637 130.003 42.273 129.998 39.9111L129.665 39.9118C129.67 42.2719 129.673 43.4662 129.684 44.0856C129.689 44.3935 129.696 44.5662 129.708 44.6707C129.714 44.7237 129.721 44.766 129.733 44.8031C129.745 44.8434 129.761 44.8705 129.772 44.8899L130.059 44.7213ZM129.998 39.9111L129.988 35.1424L129.655 35.1431L129.665 39.9118L129.998 39.9111ZM127.517 35.1428L127.517 40.0744L127.849 40.0744L127.849 35.1428L127.517 35.1428ZM168.708 45.8451L168.939 46.0554L169.163 45.8097L168.932 45.5994L168.708 45.8451ZM168.94 46.0554C169.673 46.723 170.636 46.9813 172.035 46.9303L172.023 46.5984C170.669 46.6478 169.807 46.3961 169.163 45.8097L168.94 46.0554ZM172.035 46.9303C173.282 46.885 174.089 46.5775 174.781 45.8532L174.541 45.6238C173.924 46.269 173.209 46.5552 172.023 46.5984L172.035 46.9303ZM174.781 45.8532C175.203 45.4115 175.434 44.9806 175.627 44.2944L175.307 44.2044C175.126 44.8484 174.918 45.2283 174.541 45.6238L174.781 45.8532ZM175.627 44.2944C175.709 44.0032 175.712 43.8826 175.713 42.5235L175.381 42.5232C175.379 43.9064 175.374 43.9686 175.307 44.2044L175.627 44.2944ZM175.713 42.5235C175.714 41.1515 175.712 41.0451 175.628 40.7176L175.306 40.7999C175.377 41.0769 175.382 41.1324 175.381 42.5232L175.713 42.5235ZM175.628 40.7176C175.444 39.9982 175.154 39.4403 174.729 39.016L174.494 39.2511C174.867 39.6229 175.133 40.1224 175.306 40.7999L175.628 40.7176ZM174.729 39.016C174.205 38.4921 173.568 38.2013 172.69 38.0672L172.64 38.3956C173.465 38.5216 174.031 38.7878 174.494 39.2511L174.729 39.016ZM172.69 38.0672C172.481 38.0352 172.047 38.0303 171.632 38.0418C171.219 38.0533 170.791 38.082 170.596 38.1258L170.668 38.45C170.827 38.4144 171.223 38.3855 171.642 38.3739C172.059 38.3623 172.464 38.3688 172.64 38.3956L172.69 38.0672ZM170.596 38.1258C169.984 38.263 169.429 38.5209 169.025 38.8639L169.24 39.1171C169.595 38.8157 170.098 38.578 170.668 38.45L170.596 38.1258ZM169.025 38.8639L168.838 39.0229L169.053 39.2761L169.24 39.1171L169.025 38.8639ZM177.598 39.9511C177.598 42.1037 177.6 43.3571 177.607 44.1005C177.615 44.8348 177.628 45.0876 177.656 45.2207L177.981 45.1521C177.962 45.0594 177.947 44.8474 177.94 44.097C177.932 43.3557 177.93 42.1043 177.93 39.9511H177.598ZM177.656 45.2207C177.739 45.6119 177.904 45.9403 178.156 46.1979C178.407 46.4551 178.738 46.6331 179.137 46.7371L179.221 46.4155C178.868 46.3238 178.595 46.1718 178.393 45.9655C178.192 45.7596 178.053 45.4909 177.981 45.1521L177.656 45.2207ZM179.137 46.7371C179.339 46.7898 179.642 46.8087 180.345 46.8237L180.352 46.4916C179.635 46.4763 179.377 46.4562 179.221 46.4155L179.137 46.7371ZM180.345 46.8237L181.279 46.8436L181.287 46.5114L180.352 46.4916L180.345 46.8237ZM181.289 44.7738L180.804 44.7574L180.793 45.0894L181.277 45.1057L181.289 44.7738ZM180.804 44.7574C180.527 44.7479 180.384 44.732 180.296 44.7009C180.229 44.677 180.192 44.6443 180.14 44.5552L179.853 44.7238C179.931 44.8561 180.022 44.9561 180.186 45.014C180.33 45.065 180.523 45.0803 180.793 45.0894L180.804 44.7574ZM180.14 44.5552C180.133 44.5435 180.132 44.542 180.131 44.5375C180.128 44.5297 180.124 44.5111 180.119 44.4684C180.109 44.3814 180.102 44.2237 180.097 43.914C180.086 43.2979 180.084 42.1072 180.079 39.745L179.747 39.7457C179.751 42.106 179.754 43.3003 179.765 43.9196C179.77 44.2275 179.777 44.4001 179.789 44.5046C179.795 44.5576 179.802 44.6 179.814 44.637C179.826 44.6773 179.842 44.7044 179.853 44.7238L180.14 44.5552ZM180.079 39.745L180.069 34.9763L179.737 34.977L179.747 39.7457L180.079 39.745ZM177.598 34.9767V39.9511H177.93V34.9767H177.598ZM118.187 43.2686L119.928 43.2481L119.924 42.9159L118.183 42.9364L118.187 43.2686ZM119.928 43.2481C120.648 43.2397 121.265 43.2319 121.735 43.2196C122.199 43.2076 122.538 43.1911 122.69 43.1619L122.627 42.8357C122.508 42.8585 122.202 42.8752 121.727 42.8875C121.259 42.8997 120.645 42.9075 119.924 42.9159L119.928 43.2481ZM122.69 43.1619C123.948 42.9202 124.797 42.4494 125.348 41.6485L125.074 41.4603C124.589 42.1659 123.832 42.6042 122.627 42.8357L122.69 43.1619ZM125.348 41.6485C125.821 40.9602 126.03 39.8937 125.934 38.7897L125.603 38.8185C125.695 39.8749 125.489 40.8561 125.074 41.4603L125.348 41.6485ZM125.934 38.7897C125.852 37.8448 125.613 37.222 125.098 36.676L124.856 36.9039C125.305 37.3806 125.525 37.9247 125.603 38.8185L125.934 38.7897ZM125.098 36.676C124.625 36.1744 124.078 35.8669 123.316 35.6638L123.23 35.9848C123.943 36.1748 124.432 36.4543 124.856 36.9039L125.098 36.676ZM118.757 35.4367L115.918 35.4215L115.916 35.7537L118.755 35.7689L118.757 35.4367ZM122.126 37.5946C122.526 37.6978 122.751 37.8175 122.942 38.0071L123.176 37.7714C122.93 37.5269 122.644 37.3852 122.209 37.273L122.126 37.5946ZM122.942 38.0071C123.106 38.1697 123.205 38.3261 123.264 38.5318C123.325 38.7439 123.346 39.0172 123.335 39.4189L123.667 39.4283C123.679 39.0167 123.659 38.7021 123.584 38.4399C123.506 38.1713 123.373 37.9672 123.176 37.7714L122.942 38.0071ZM123.335 39.4189C123.326 39.7422 123.311 39.9311 123.275 40.0791C123.24 40.2207 123.185 40.3317 123.08 40.4945L123.359 40.6752C123.474 40.4965 123.551 40.3497 123.598 40.1575C123.643 39.9717 123.658 39.7508 123.667 39.4283L123.335 39.4189ZM123.08 40.4945C122.88 40.8024 122.499 41.0246 121.898 41.1292L121.955 41.4565C122.604 41.3436 123.089 41.0911 123.359 40.6752L123.08 40.4945ZM121.898 41.1292C121.794 41.1473 121.485 41.1611 121.052 41.1695C120.625 41.1778 120.095 41.1809 119.558 41.1809V41.5131C120.095 41.5131 120.629 41.51 121.058 41.5017C121.48 41.4935 121.819 41.4801 121.955 41.4565L121.898 41.1292ZM119.558 41.1809H118.166V41.5131H119.558V41.1809ZM118.165 37.4893L119.679 37.5049L119.683 37.1727L118.168 37.1571L118.165 37.4893ZM135.894 38.2244C134.745 38.3731 133.843 38.7787 133.219 39.4511L133.462 39.677C134.019 39.0769 134.841 38.6957 135.937 38.5538L135.894 38.2244ZM134.482 41.2059C134.519 41.2059 134.546 41.1938 134.554 41.1903C134.565 41.1851 134.574 41.1795 134.58 41.176C134.591 41.1689 134.601 41.1611 134.608 41.1554C134.623 41.1433 134.639 41.1281 134.656 41.1126C134.689 41.0811 134.731 41.039 134.774 40.9955C134.863 40.9056 134.954 40.8106 135.005 40.7624L134.775 40.5224C134.72 40.5748 134.62 40.6785 134.538 40.7621C134.495 40.8054 134.456 40.8439 134.428 40.8711C134.413 40.885 134.403 40.8938 134.397 40.8983C134.394 40.9009 134.395 40.8996 134.4 40.8968C134.402 40.8955 134.408 40.8916 134.417 40.8876C134.422 40.8852 134.447 40.8736 134.483 40.8737L134.482 41.2059ZM135.005 40.7624C135.192 40.583 135.6 40.3633 135.923 40.276L135.836 39.9553C135.471 40.0541 135.01 40.2971 134.775 40.5224L135.005 40.7624ZM135.923 40.276C136.071 40.2359 136.322 40.2093 136.589 40.203C136.856 40.1968 137.117 40.2113 137.283 40.2448L137.349 39.9192C137.148 39.8785 136.858 39.8644 136.582 39.8709C136.306 39.8773 136.023 39.9047 135.836 39.9553L135.923 40.276ZM137.283 40.2448C137.82 40.3533 138.089 40.5497 138.233 40.8649L138.535 40.727C138.332 40.2809 137.947 40.0401 137.349 39.9192L137.283 40.2448ZM138.233 40.8649C138.275 40.9566 138.296 41.0144 138.309 41.0844C138.324 41.1587 138.331 41.2522 138.337 41.4174L138.669 41.405C138.663 41.24 138.655 41.1235 138.635 41.0215C138.615 40.9152 138.583 40.8305 138.535 40.727L138.233 40.8649ZM138.337 41.4174L138.351 41.8041L138.683 41.7917L138.669 41.405L138.337 41.4174ZM138.516 41.6318L136.671 41.6461L136.674 41.9784L138.519 41.964L138.516 41.6318ZM136.671 41.6461C134.957 41.6595 134.79 41.6647 134.446 41.742L134.519 42.0661C134.819 41.9987 134.94 41.9919 136.674 41.9784L136.671 41.6461ZM134.446 41.742C133.556 41.9419 132.948 42.3457 132.616 43.003L132.912 43.1529C133.187 42.6097 133.694 42.2514 134.519 42.0661L134.446 41.742ZM132.616 43.003C132.424 43.3823 132.359 43.7323 132.359 44.3002H132.691C132.691 43.7642 132.751 43.4706 132.912 43.1529L132.616 43.003ZM132.359 44.3002C132.359 44.8767 132.424 45.2162 132.626 45.6228L132.924 45.475C132.751 45.1268 132.691 44.8413 132.691 44.3002H132.359ZM132.626 45.6228C133.045 46.466 133.849 46.9277 135.043 47.074L135.083 46.7443C133.958 46.6062 133.277 46.1851 132.924 45.475L132.626 45.6228ZM135.043 47.074C135.261 47.1007 135.601 47.1057 135.927 47.0954C136.254 47.0851 136.585 47.0587 136.786 47.0182L136.72 46.6926C136.547 46.7273 136.24 46.7531 135.917 46.7634C135.595 46.7737 135.276 46.7679 135.083 46.7443L135.043 47.074ZM136.786 47.0182C137.439 46.8866 138.063 46.6042 138.505 46.234L138.292 45.9793C137.9 46.3079 137.328 46.5698 136.72 46.6926L136.786 47.0182ZM138.505 46.234L138.761 46.0195L138.548 45.7649L138.292 45.9793L138.505 46.234ZM138.495 45.9393C138.596 46.2806 138.77 46.5532 138.962 46.7486C139.151 46.9406 139.368 47.0685 139.561 47.1006L139.615 46.773C139.514 46.7561 139.357 46.6763 139.199 46.5157C139.044 46.3582 138.899 46.1331 138.814 45.8451L138.495 45.9393ZM139.561 47.1006C139.829 47.1453 140.281 47.1443 140.652 47.134C140.84 47.1288 141.013 47.1208 141.139 47.1144C141.201 47.111 141.252 47.1082 141.288 47.1061C141.306 47.1049 141.319 47.1041 141.329 47.1034C141.334 47.1032 141.337 47.1029 141.34 47.1027C141.341 47.1027 141.342 47.1026 141.342 47.1026C141.343 47.1026 141.343 47.1026 141.343 47.1026H141.343C141.343 47.1026 141.344 47.1026 141.332 46.9368C141.321 46.771 141.321 46.771 141.321 46.771C141.321 46.771 141.321 46.771 141.321 46.771C141.321 46.771 141.321 46.771 141.321 46.7712C141.32 46.7712 141.319 46.7712 141.318 46.7713C141.316 46.7713 141.312 46.7717 141.308 46.772C141.299 46.7725 141.285 46.7733 141.268 46.7743C141.233 46.7765 141.183 46.7793 141.121 46.7826C140.998 46.789 140.828 46.7968 140.643 46.8019C140.266 46.8124 139.846 46.8114 139.615 46.773L139.561 47.1006ZM140.834 43.8477C140.834 42.5361 140.832 41.785 140.824 41.3337C140.816 40.8863 140.801 40.7198 140.77 40.5878L140.446 40.6636C140.468 40.7563 140.483 40.8886 140.492 41.3399C140.5 41.7874 140.502 42.535 140.502 43.8477L140.834 43.8477ZM140.77 40.5878C140.612 39.9131 140.312 39.3845 139.838 38.996C139.366 38.6097 138.738 38.3738 137.942 38.2559L137.893 38.5846C138.653 38.6971 139.218 38.9175 139.627 39.253C140.034 39.5864 140.301 40.0454 140.446 40.6637L140.77 40.5878ZM137.942 38.2559C137.754 38.2281 137.323 38.21 136.908 38.2035C136.494 38.1971 136.069 38.2017 135.894 38.2244L135.937 38.5538C136.083 38.5349 136.483 38.5292 136.903 38.5357C137.321 38.5422 137.731 38.5605 137.893 38.5846L137.942 38.2559ZM155.589 38.0893C154.827 38.2004 154.21 38.4145 153.747 38.7443C153.281 39.0767 152.978 39.5215 152.838 40.0754L153.16 40.1565C153.281 39.679 153.538 39.3014 153.94 39.0149C154.345 38.7259 154.906 38.5246 155.637 38.4181L155.589 38.0893ZM152.838 40.0754C152.79 40.2665 152.778 40.5765 152.788 40.8653C152.798 41.1526 152.833 41.4563 152.896 41.6311L153.208 41.5185C153.164 41.3962 153.13 41.1377 153.12 40.8534C153.11 40.5706 153.124 40.2998 153.16 40.1565L152.838 40.0754ZM152.896 41.631C153.099 42.1952 153.44 42.5802 153.982 42.8582L154.134 42.5626C153.665 42.3222 153.382 42.0018 153.208 41.5185L152.896 41.631ZM153.982 42.8582C154.588 43.1695 155.218 43.3143 156.406 43.4324L156.439 43.1018C155.263 42.9849 154.684 42.8451 154.134 42.5626L153.982 42.8582ZM156.406 43.4324C157.044 43.4958 157.448 43.553 157.713 43.6246C157.975 43.6951 158.074 43.7726 158.132 43.8586L158.407 43.6727C158.286 43.4929 158.099 43.3844 157.8 43.3038C157.505 43.2242 157.076 43.165 156.439 43.1018L156.406 43.4324ZM158.132 43.8586C158.191 43.9456 158.222 44.0705 158.215 44.2061C158.208 44.3411 158.165 44.4709 158.093 44.5649L158.357 44.7667C158.476 44.6109 158.537 44.4137 158.547 44.2227C158.556 44.0322 158.515 43.8319 158.407 43.6727L158.132 43.8586ZM158.093 44.5649C158.065 44.6008 157.982 44.6644 157.849 44.7308C157.724 44.7939 157.578 44.8479 157.449 44.8757L157.519 45.2004C157.68 45.1659 157.852 45.1012 157.999 45.0277C158.139 44.9574 158.281 44.866 158.357 44.7667L158.093 44.5649ZM157.449 44.8757C157.153 44.9393 156.457 44.9589 155.994 44.9119L155.96 45.2423C156.443 45.2914 157.177 45.274 157.519 45.2004L157.449 44.8757ZM155.994 44.9119C155.185 44.8296 154.568 44.6968 153.808 44.441L153.702 44.7559C154.486 45.0197 155.127 45.1577 155.96 45.2423L155.994 44.9119ZM153.808 44.441C153.685 44.3994 153.57 44.3629 153.485 44.3377C153.442 44.3252 153.405 44.3148 153.377 44.308C153.364 44.3048 153.349 44.3014 153.335 44.2993C153.329 44.2983 153.317 44.2967 153.303 44.2965C153.297 44.2964 153.284 44.2965 153.267 44.2997C153.257 44.3016 153.211 44.3105 153.173 44.3532L153.422 44.5734C153.385 44.6157 153.339 44.6242 153.331 44.6258C153.315 44.6288 153.304 44.6288 153.299 44.6287C153.294 44.6287 153.29 44.6283 153.288 44.628C153.286 44.6278 153.284 44.6277 153.284 44.6277C153.284 44.6275 153.288 44.6283 153.299 44.6308C153.319 44.6358 153.35 44.6443 153.39 44.6564C153.471 44.6801 153.582 44.7152 153.702 44.7559L153.808 44.441ZM153.173 44.3532C153.161 44.3673 153.153 44.3805 153.152 44.3828C153.149 44.3877 153.147 44.3918 153.146 44.3941C153.144 44.3989 153.142 44.4033 153.141 44.406C153.139 44.4118 153.136 44.4184 153.134 44.4248C153.129 44.4378 153.123 44.4555 153.116 44.4766C153.101 44.5192 153.081 44.5792 153.056 44.6519C153.008 44.7976 152.943 44.9963 152.873 45.2125L153.189 45.3145C153.259 45.0989 153.324 44.9012 153.372 44.7569C153.396 44.6846 153.415 44.626 153.43 44.5853C153.437 44.5648 153.442 44.5497 153.446 44.5398C153.447 44.5374 153.447 44.5355 153.448 44.5341C153.448 44.5334 153.448 44.5328 153.448 44.5324C153.449 44.5322 153.449 44.532 153.449 44.5319C153.449 44.5318 153.449 44.5318 153.449 44.5318C153.449 44.5318 153.449 44.5318 153.449 44.532C153.449 44.5321 153.448 44.5323 153.448 44.5327C153.448 44.5332 153.448 44.5344 153.447 44.5361C153.446 44.5375 153.444 44.5408 153.442 44.545C153.441 44.5468 153.434 44.5595 153.422 44.5734L153.173 44.3532ZM152.873 45.2125L152.62 45.9983L152.936 46.1002L153.189 45.3145L152.873 45.2125ZM152.721 46.2056L153.016 46.3119L153.129 45.9994L152.834 45.8931L152.721 46.2056ZM153.016 46.3119C154.106 46.7054 155.102 46.8929 156.299 46.9306L156.31 46.5986C155.146 46.5619 154.185 46.3806 153.129 45.9994L153.016 46.3119ZM156.299 46.9306C158.005 46.9843 159.181 46.6888 159.926 45.9539L159.693 45.7174C159.046 46.3549 157.987 46.6514 156.31 46.5986L156.299 46.9306ZM159.926 45.9539C160.179 45.7039 160.36 45.4429 160.476 45.1355C160.591 44.8295 160.638 44.4869 160.635 44.0788L160.303 44.0807C160.305 44.4634 160.261 44.7625 160.165 45.0185C160.069 45.2732 159.918 45.4948 159.693 45.7174L159.926 45.9539ZM160.635 44.0788C160.632 43.5962 160.565 43.1958 160.413 42.862C160.26 42.5249 160.025 42.2661 159.703 42.0609L159.524 42.341C159.797 42.515 159.987 42.7265 160.111 42.9996C160.237 43.2759 160.3 43.6253 160.303 44.0807L160.635 44.0788ZM159.703 42.0609C159.145 41.7047 158.555 41.5663 156.977 41.3816L156.938 41.7115C158.522 41.8969 159.039 42.031 159.524 42.341L159.703 42.0609ZM156.977 41.3816C156.389 41.3127 156.015 41.2546 155.762 41.1852C155.514 41.1173 155.394 41.0424 155.303 40.9463L155.062 41.1754C155.207 41.3282 155.388 41.4273 155.674 41.5056C155.955 41.5825 156.351 41.6428 156.938 41.7115L156.977 41.3816ZM155.303 40.9463C155.268 40.91 155.233 40.8333 155.222 40.7321C155.21 40.6322 155.225 40.5401 155.254 40.4832L154.959 40.3303C154.891 40.4627 154.875 40.626 154.892 40.7701C154.908 40.9127 154.96 41.0683 155.062 41.1754L155.303 40.9463ZM155.254 40.4832C155.337 40.3237 155.477 40.2069 155.749 40.1313C156.03 40.0535 156.436 40.0242 157.026 40.039L157.034 39.7069C156.438 39.6919 155.991 39.7196 155.66 39.8112C155.322 39.9051 155.094 40.07 154.959 40.3303L155.254 40.4832ZM157.026 40.039C157.843 40.0595 158.37 40.1379 159.051 40.3387L159.145 40.02C158.432 39.8099 157.876 39.728 157.034 39.7069L157.026 40.039ZM159.051 40.3387C159.173 40.3746 159.293 40.4076 159.391 40.4322C159.439 40.4445 159.482 40.4548 159.518 40.4624C159.548 40.4689 159.585 40.4763 159.613 40.4775L159.628 40.1456C159.632 40.1458 159.622 40.145 159.587 40.1375C159.557 40.1311 159.518 40.1218 159.472 40.1101C159.38 40.0867 159.263 40.0548 159.145 40.0201L159.051 40.3387ZM159.613 40.4775C159.655 40.4794 159.721 40.475 159.784 40.4207C159.83 40.3803 159.86 40.3233 159.884 40.2713C159.933 40.1616 160.001 39.9618 160.119 39.6112L159.804 39.5058C159.683 39.8656 159.622 40.0442 159.581 40.1344C159.559 40.1823 159.554 40.1805 159.566 40.1699C159.576 40.1614 159.59 40.1531 159.607 40.1486C159.622 40.1449 159.631 40.1458 159.628 40.1456L159.613 40.4775ZM160.119 39.6112C160.232 39.2718 160.297 39.0732 160.326 38.955C160.34 38.8987 160.35 38.8405 160.345 38.787C160.342 38.7567 160.334 38.7235 160.315 38.6914C160.296 38.6592 160.272 38.6378 160.253 38.6238L160.057 38.8923C160.051 38.8881 160.039 38.8778 160.028 38.8599C160.018 38.8422 160.015 38.8267 160.014 38.8197C160.014 38.8129 160.016 38.8238 160.003 38.8769C159.979 38.9777 159.92 39.1597 159.804 39.5058L160.119 39.6112ZM160.253 38.6239C160.223 38.6021 160.182 38.5849 160.153 38.5734C160.119 38.5594 160.075 38.5439 160.027 38.5277C159.93 38.4952 159.806 38.4574 159.672 38.4191C159.404 38.3427 159.089 38.2623 158.859 38.2163L158.793 38.542C159.011 38.5857 159.318 38.6636 159.581 38.7386C159.712 38.7761 159.831 38.8123 159.921 38.8426C159.967 38.8579 160.003 38.871 160.03 38.8817C160.063 38.8948 160.066 38.8984 160.057 38.8922L160.253 38.6239ZM158.859 38.2163C158.171 38.0785 157.627 38.0323 156.757 38.0361L156.759 38.3683C157.611 38.3646 158.132 38.4096 158.793 38.542L158.859 38.2163ZM156.757 38.0361C156.291 38.0382 155.79 38.06 155.589 38.0893L155.637 38.4181C155.812 38.3925 156.292 38.3704 156.759 38.3683L156.757 38.0361ZM185.521 38.0888C184.473 38.2522 183.507 38.7505 182.944 39.4376L183.201 39.6482C183.701 39.0379 184.586 38.5709 185.572 38.4171L185.521 38.0888ZM182.944 39.4376C182.651 39.7947 182.354 40.4235 182.234 40.9287L182.557 41.0052C182.667 40.5418 182.944 39.9607 183.201 39.6482L182.944 39.4376ZM182.234 40.9287C182.147 41.2974 182.133 41.4614 182.116 42.2159L182.448 42.2234C182.465 41.4726 182.479 41.338 182.557 41.0053L182.234 40.9287ZM182.116 42.2159C182.089 43.4352 182.166 44.0289 182.463 44.7124L182.767 44.5802C182.499 43.9614 182.422 43.4239 182.448 42.2234L182.116 42.2159ZM182.463 44.7124C182.967 45.8763 184.019 46.5914 185.544 46.8581L185.602 46.5308C184.154 46.2778 183.216 45.6147 182.767 44.5802L182.463 44.7124ZM185.544 46.8581C185.812 46.9049 186.34 46.926 186.851 46.9253C187.362 46.9247 187.886 46.9022 188.143 46.8546L188.083 46.5278C187.859 46.5694 187.364 46.5924 186.851 46.5931C186.339 46.5938 185.837 46.572 185.602 46.5308L185.544 46.8581ZM188.143 46.8546C188.969 46.7014 189.725 46.4665 190.341 46.1692L190.197 45.87C189.613 46.1517 188.886 46.379 188.083 46.5278L188.143 46.8546ZM190.341 46.1692L190.761 45.9667L190.616 45.6675L190.197 45.87L190.341 46.1692ZM190.84 45.7496L190.506 44.9986L190.203 45.1336L190.537 45.8846L190.84 45.7496ZM190.506 44.9986C190.414 44.7908 190.326 44.6014 190.259 44.4632C190.226 44.3944 190.197 44.3367 190.175 44.2955C190.164 44.2753 190.153 44.2562 190.143 44.2409C190.139 44.2339 190.132 44.2231 190.123 44.2124C190.119 44.2075 190.11 44.1975 190.097 44.1873C190.092 44.1832 190.052 44.1489 189.99 44.1489V44.4811C189.929 44.4811 189.891 44.4475 189.887 44.4447C189.876 44.4358 189.87 44.4278 189.868 44.4254C189.863 44.4199 189.861 44.4167 189.863 44.4198C189.866 44.4246 189.872 44.4351 189.882 44.4531C189.901 44.4881 189.928 44.5408 189.96 44.6081C190.025 44.7421 190.111 44.9282 190.203 45.1336L190.506 44.9986ZM189.99 44.1489C189.961 44.1489 189.936 44.1571 189.933 44.1579C189.923 44.1608 189.913 44.1643 189.903 44.1678C189.884 44.1748 189.86 44.1842 189.834 44.195C189.782 44.2166 189.715 44.246 189.647 44.278L189.787 44.5791C189.852 44.5487 189.914 44.5213 189.961 44.5018C189.985 44.492 190.003 44.4847 190.016 44.4802C190.019 44.4791 190.021 44.4783 190.023 44.4777C190.024 44.4774 190.025 44.4772 190.025 44.477C190.026 44.4769 190.026 44.4768 190.026 44.4768C190.026 44.4768 190.025 44.4769 190.025 44.4771C190.024 44.4773 190.022 44.4777 190.02 44.4781C190.019 44.4785 190.007 44.4811 189.99 44.4811V44.1489ZM189.647 44.278C189.332 44.4247 188.564 44.6738 188.151 44.762L188.22 45.087C188.653 44.9944 189.446 44.7383 189.787 44.5791L189.647 44.278ZM188.151 44.762C187.62 44.8753 187.048 44.9152 186.595 44.8728L186.564 45.2036C187.056 45.2496 187.662 45.2061 188.22 45.087L188.151 44.762ZM186.595 44.8728C186.146 44.8308 186.023 44.8031 185.71 44.6811L185.589 44.9906C185.938 45.1267 186.093 45.1596 186.564 45.2036L186.595 44.8728ZM185.71 44.6811C185.099 44.4427 184.704 43.9054 184.644 43.2147L184.313 43.2436C184.383 44.0534 184.854 44.7037 185.589 44.9906L185.71 44.6811ZM184.644 43.2147L184.633 43.088L184.301 43.1169L184.313 43.2436L184.644 43.2147ZM191 43.084V42.381H190.668V43.084H191ZM191 42.381C191 41.3856 190.916 40.85 190.65 40.2345L190.345 40.3666C190.587 40.9241 190.668 41.4091 190.668 42.381H191ZM190.65 40.2345C190.143 39.0646 189.035 38.3103 187.557 38.0865L187.508 38.4149C188.899 38.6257 189.893 39.3244 190.345 40.3665L190.65 40.2345ZM187.557 38.0865C187.331 38.0521 186.929 38.0365 186.537 38.0369C186.146 38.0374 185.745 38.0539 185.521 38.0888L185.572 38.4171C185.769 38.3864 186.147 38.3696 186.538 38.3692C186.928 38.3687 187.308 38.3847 187.508 38.4149L187.557 38.0865ZM142.723 44.2684L142.818 44.6152L143.139 44.5273L143.044 44.1806L142.723 44.2684ZM142.818 44.6152C142.99 45.2423 143.305 45.7478 143.769 46.1247C144.231 46.5002 144.83 46.7399 145.558 46.8541L145.61 46.5258C144.923 46.4184 144.384 46.1964 143.978 45.8669C143.575 45.5386 143.294 45.0954 143.139 44.5273L142.818 44.6152ZM145.558 46.8541C146.356 46.979 147.635 46.9595 148.363 46.81L148.296 46.4846C147.611 46.6255 146.372 46.6453 145.61 46.5258L145.558 46.8541ZM148.363 46.81C149.753 46.524 150.69 45.7079 150.994 44.4749L150.672 44.3952C150.403 45.4833 149.583 46.2198 148.296 46.4846L148.363 46.81ZM150.994 44.4748C151.026 44.3453 151.042 44.1813 151.052 43.7391C151.062 43.2929 151.067 42.5488 151.073 41.2482L150.741 41.2467C150.735 42.5485 150.73 43.289 150.72 43.7314C150.709 44.1779 150.694 44.3064 150.672 44.3952L150.994 44.4748ZM151.073 41.2482L151.086 38.3074L150.754 38.3059L150.741 41.2467L151.073 41.2482ZM148.614 38.3059L148.602 41.0658L148.934 41.0672L148.946 38.3073L148.614 38.3059ZM148.602 41.0658C148.596 42.346 148.592 43.0372 148.582 43.4318C148.571 43.8303 148.554 43.9071 148.532 43.973L148.847 44.078C148.887 43.9593 148.904 43.8358 148.914 43.4406C148.925 43.0414 148.929 42.3455 148.934 41.0672L148.602 41.0658ZM148.532 43.9729C148.419 44.3144 148.243 44.543 147.989 44.6906C147.73 44.8414 147.371 44.9184 146.872 44.9172L146.872 45.2494C147.399 45.2506 147.825 45.1705 148.156 44.9778C148.493 44.7818 148.713 44.4804 148.847 44.078L148.532 43.9729ZM146.872 44.9172C146.334 44.9159 145.945 44.8057 145.681 44.6061C145.421 44.4099 145.259 44.1104 145.206 43.6803L144.877 43.721C144.938 44.218 145.133 44.6086 145.481 44.8712C145.824 45.1305 146.294 45.2481 146.872 45.2494L146.872 44.9172ZM145.206 43.6803C145.196 43.5985 145.187 43.2849 145.18 42.7838C145.173 42.289 145.17 41.6239 145.17 40.8503H144.838C144.838 41.6247 144.841 42.2914 144.848 42.7882C144.854 43.2786 144.864 43.6162 144.877 43.721L145.206 43.6803ZM145.17 40.8503V38.3066H144.838V40.8503H145.17ZM187.284 40.0392C187.908 40.208 188.297 40.6051 188.44 41.2106L188.764 41.1342C188.592 40.4057 188.108 39.9179 187.37 39.7185L187.284 40.0392ZM188.44 41.2106C188.468 41.3283 188.49 41.4955 188.491 41.5737L188.823 41.5727C188.823 41.4618 188.795 41.2683 188.764 41.1342L188.44 41.2106ZM188.491 41.5738L188.491 41.7457L188.823 41.7446L188.823 41.5727L188.491 41.5738ZM184.615 41.7452V41.635H184.283V41.7452H184.615ZM184.615 41.635C184.615 41.5537 184.639 41.4031 184.68 41.2371C184.721 41.073 184.772 40.9147 184.818 40.8191L184.518 40.6762C184.459 40.8012 184.401 40.9842 184.358 41.1575C184.315 41.3289 184.283 41.5117 184.283 41.635H184.615ZM184.818 40.819C184.87 40.7097 184.967 40.5801 185.089 40.4589C185.21 40.3381 185.346 40.2352 185.468 40.1736L185.318 39.8771C185.158 39.9583 184.994 40.0848 184.854 40.2235C184.716 40.3618 184.592 40.5219 184.518 40.6762L184.818 40.819ZM185.468 40.1736C185.761 40.0256 186.148 39.9549 186.656 39.9723L186.668 39.6402C186.126 39.6218 185.678 39.6953 185.318 39.8771L185.468 40.1736ZM186.656 39.9723C186.903 39.9807 187.187 40.0131 187.284 40.0392L187.37 39.7185C187.234 39.6818 186.919 39.6488 186.668 39.6402L186.656 39.9723ZM171.913 40.1563C172.543 40.2983 172.954 40.68 173.146 41.3053L173.463 41.2078C173.237 40.4699 172.734 40.0007 171.986 39.8322L171.913 40.1563ZM173.146 41.3053C173.195 41.4644 173.205 41.5948 173.205 42.4872H173.537C173.537 41.6176 173.53 41.4262 173.463 41.2077L173.146 41.3053ZM173.205 42.4872C173.205 43.3891 173.195 43.5075 173.145 43.6681L173.462 43.7675C173.531 43.5465 173.537 43.3658 173.537 42.4872H173.205ZM173.145 43.6681C173.048 43.977 172.933 44.1786 172.758 44.3637L172.999 44.5923C173.215 44.3636 173.353 44.1149 173.462 43.7675L173.145 43.6681ZM172.758 44.3637C172.589 44.5419 172.41 44.6587 172.174 44.7333C171.933 44.8094 171.625 44.8436 171.194 44.8436V45.1758C171.638 45.1758 171.985 45.1413 172.274 45.0501C172.568 44.9574 172.794 44.8082 172.999 44.5923L172.758 44.3637ZM171.194 44.8436C170.728 44.8436 170.581 44.8293 170.377 44.7752L170.292 45.0963C170.54 45.1619 170.722 45.1758 171.194 45.1758V44.8436ZM170.377 44.7752C170.026 44.6823 169.769 44.5496 169.578 44.3707C169.389 44.1928 169.255 43.959 169.168 43.6457L168.848 43.7345C168.947 44.0936 169.108 44.385 169.351 44.6129C169.593 44.8399 169.905 44.9939 170.292 45.0963L170.377 44.7752ZM169.168 43.6457C169.15 43.5819 169.133 43.4306 169.121 43.2157C169.11 43.0075 169.104 42.7558 169.105 42.5029C169.105 42.2501 169.111 41.998 169.123 41.7889C169.135 41.5736 169.152 41.4205 169.17 41.3547L168.849 41.2669C168.821 41.3722 168.802 41.5601 168.791 41.7705C168.779 41.9871 168.773 42.2454 168.772 42.5027C168.772 42.7599 168.778 43.0179 168.79 43.2338C168.801 43.4431 168.819 43.6303 168.848 43.7345L169.168 43.6457ZM169.17 41.3547C169.261 41.0214 169.413 40.7607 169.622 40.5651C169.831 40.3694 170.104 40.2312 170.45 40.1562L170.379 39.8315C169.986 39.917 169.655 40.0791 169.395 40.3227C169.135 40.5664 168.954 40.8839 168.849 41.267L169.17 41.3547ZM170.45 40.1562C170.601 40.1233 170.888 40.1047 171.186 40.1048C171.485 40.1048 171.768 40.1237 171.913 40.1563L171.986 39.8322C171.802 39.7909 171.488 39.7726 171.186 39.7726C170.884 39.7725 170.568 39.7906 170.379 39.8315L170.45 40.1562ZM138.344 43.7016C138.344 44.1037 138.33 44.1956 138.28 44.3292L138.591 44.4458C138.664 44.2509 138.676 44.1053 138.676 43.7016H138.344ZM138.28 44.3292C138.186 44.58 137.984 44.7913 137.662 44.9464L137.806 45.2456C138.187 45.062 138.46 44.7936 138.591 44.4459L138.28 44.3292ZM137.662 44.9464C137.307 45.1175 137.042 45.1808 136.542 45.2067L136.559 45.5386C137.094 45.5109 137.404 45.4398 137.806 45.2456L137.662 44.9464ZM136.542 45.2067C135.785 45.2459 135.352 45.1192 135.09 44.8561L134.854 45.0904C135.219 45.4561 135.774 45.5793 136.559 45.5386L136.542 45.2067ZM135.09 44.8561C134.991 44.7566 134.941 44.6838 134.911 44.6024C134.88 44.5172 134.866 44.4075 134.867 44.2237L134.534 44.2234C134.534 44.4182 134.548 44.5748 134.599 44.7155C134.651 44.86 134.737 44.9728 134.855 45.0904L135.09 44.8561ZM134.867 44.2237C134.867 43.9014 134.911 43.7812 135.014 43.6651L134.764 43.4456C134.585 43.6494 134.535 43.8659 134.534 44.2234L134.867 44.2237ZM135.014 43.6651C135.076 43.5941 135.123 43.5508 135.181 43.5184C135.24 43.4856 135.321 43.4577 135.458 43.4366C135.74 43.3932 136.206 43.3851 137.086 43.3833L137.085 43.051C136.217 43.0528 135.72 43.0601 135.408 43.1082C135.248 43.1328 135.125 43.1696 135.019 43.2284C134.913 43.2876 134.837 43.363 134.764 43.4456L135.014 43.6651ZM137.086 43.3833L138.51 43.3804L138.509 43.0482L137.085 43.051L137.086 43.3833ZM138.344 43.2143V43.7016H138.676V43.2143H138.344ZM133.209 39.6657L134.351 41.1414L134.614 40.9381L133.472 39.4624L133.209 39.6657ZM140.817 44.7031C140.818 44.7056 140.813 44.6958 140.808 44.6644C140.804 44.636 140.801 44.5992 140.799 44.5552C140.795 44.4674 140.798 44.362 140.803 44.2584C140.808 44.1553 140.815 44.0569 140.822 43.9841C140.825 43.9477 140.828 43.9179 140.83 43.8973C140.831 43.887 140.832 43.8789 140.832 43.8736C140.833 43.8709 140.833 43.8688 140.833 43.8675C140.833 43.8668 140.833 43.8664 140.833 43.866C140.833 43.8659 140.833 43.8658 140.833 43.8657C140.833 43.8657 140.833 43.8657 140.833 43.8656C140.833 43.8656 140.833 43.8657 140.668 43.8477C140.503 43.8298 140.503 43.8298 140.503 43.8298C140.503 43.8298 140.503 43.8298 140.503 43.8299C140.503 43.8299 140.503 43.8299 140.503 43.83C140.503 43.8301 140.503 43.8303 140.503 43.8305C140.503 43.8309 140.503 43.8315 140.503 43.8323C140.502 43.8339 140.502 43.8362 140.502 43.8391C140.501 43.845 140.5 43.8535 140.499 43.8644C140.497 43.8862 140.494 43.9173 140.491 43.9551C140.484 44.0307 140.476 44.1335 140.471 44.2421C140.466 44.3501 140.463 44.4667 140.467 44.5688C140.469 44.6197 140.473 44.6698 140.48 44.715C140.486 44.7571 140.497 44.8076 140.519 44.8516L140.817 44.7031ZM141.498 46.9368V45.0265H141.166V46.9368H141.498ZM141.332 45.0265C141.356 44.862 141.356 44.862 141.356 44.862H141.356C141.356 44.862 141.355 44.862 141.355 44.8619C141.354 44.8617 141.353 44.8615 141.351 44.8612C141.347 44.8607 141.341 44.8599 141.334 44.8586C141.319 44.8562 141.297 44.8526 141.271 44.8476C141.217 44.8378 141.146 44.823 141.074 44.8037C141 44.7841 140.931 44.761 140.877 44.736C140.815 44.7064 140.81 44.6901 140.817 44.7031L140.519 44.8516C140.567 44.9476 140.667 45.0039 140.736 45.0366C140.815 45.0738 140.906 45.1027 140.988 45.1247C141.072 45.1469 141.151 45.1634 141.21 45.1742C141.239 45.1797 141.264 45.1838 141.281 45.1866C141.289 45.188 141.296 45.189 141.301 45.1898C141.303 45.1901 141.305 45.1904 141.306 45.1906C141.307 45.1906 141.308 45.1908 141.308 45.1908C141.308 45.1908 141.308 45.1909 141.309 45.1909H141.309C141.309 45.1909 141.309 45.1909 141.332 45.0265ZM118.755 35.7689L118.852 35.7694L118.854 35.4372L118.757 35.4367L118.755 35.7689ZM118.852 35.7694C121.844 35.7854 122.501 35.7904 123.231 35.9848L123.316 35.6638C122.534 35.4554 121.821 35.4531 118.854 35.4372L118.852 35.7694ZM122.209 37.273C122.048 37.2313 121.77 37.2114 121.381 37.1988C120.985 37.186 120.456 37.1806 119.781 37.1737L119.778 37.5059C120.454 37.5128 120.979 37.5182 121.37 37.5309C121.767 37.5437 122.007 37.5639 122.126 37.5946L122.209 37.273ZM119.781 37.1737C119.749 37.1733 119.716 37.173 119.683 37.1727L119.679 37.5049C119.712 37.5052 119.745 37.5055 119.778 37.5059L119.781 37.1737ZM131.368 46.8338V45.1059H131.036V46.8338H131.368ZM129.821 34.9767H127.683V35.3089H129.821V34.9767ZM162.049 34.9767V36.9312H162.381V34.9767H162.049ZM162.215 37.0973H164.428V36.7651H162.215V37.0973ZM164.594 36.9312V34.9767H164.262V36.9312H164.594ZM164.428 34.8105H162.215V35.1428H164.428V34.8105ZM166.62 34.9767V46.6689H166.953V34.9767H166.62ZM166.788 46.835L168.802 46.8157L168.798 46.4835L166.785 46.5027L166.788 46.835ZM168.966 46.6532L168.987 45.7258L168.654 45.7185L168.634 46.6459L168.966 46.6532ZM169.111 39.1488L169.093 34.9759L168.76 34.9774L168.779 39.1503L169.111 39.1488ZM168.926 34.8105H166.787V35.1428H168.926V34.8105ZM181.449 46.6775V44.9398H181.117V46.6775H181.449ZM179.903 34.8105H177.764V35.1428H179.903V34.8105ZM115.751 35.5876V46.6677H116.083V35.5876H115.751ZM115.917 46.8338H118.166V46.5016H115.917V46.8338ZM118.332 46.6685L118.351 43.1034L118.018 43.1016L118 46.6669L118.332 46.6685ZM118.333 41.347V37.3232H118V41.347H118.333ZM184.467 43.2686L190.835 43.2501L190.834 42.9179L184.467 42.9364L184.467 43.2686ZM142.694 38.3073L142.717 44.2252L143.049 44.2239L143.026 38.3059L142.694 38.3073ZM150.92 38.1405H148.78V38.4727H150.92V38.1405ZM145.004 38.1405H142.86V38.4727H145.004V38.1405ZM162.086 38.3066V46.6677H162.418V38.3066H162.086ZM162.252 46.8338H164.392V46.5016H162.252V46.8338ZM164.558 46.6677V38.3066H164.226V46.6677H164.558ZM164.392 38.1405H162.252V38.4727H164.392V38.1405ZM188.657 41.5791H184.449V41.9113H188.657V41.5791Z" fill="#191E38"/>
</g>
</g>
<defs>
<radialGradient id="paint0_radial_401_1360" cx="0" cy="0" r="1" gradientUnits="userSpaceOnUse" gradientTransform="translate(49.6402 20.6282) scale(36.3297 36.3297)">
<stop stop-color="#2440E6"/>
<stop offset="1" stop-color="#5661B3"/>
</radialGradient>
<radialGradient id="paint1_radial_401_1360" cx="0" cy="0" r="1" gradientUnits="userSpaceOnUse" gradientTransform="translate(6.668 60.8266) rotate(-53.345) scale(17.8396 28.3518)">
<stop stop-color="#6574CD" stop-opacity="0.5"/>
<stop offset="1" stop-color="#6574CD"/>
</radialGradient>
<radialGradient id="paint2_radial_401_1360" cx="0" cy="0" r="1" gradientUnits="userSpaceOnUse" gradientTransform="translate(106.377 30.4139) scale(18.8477 18.9493)">
<stop stop-color="#2440E6"/>
<stop offset="1" stop-color="#5661B3"/>
</radialGradient>
<radialGradient id="paint3_radial_401_1360" cx="0" cy="0" r="1" gradientUnits="userSpaceOnUse" gradientTransform="translate(84.0835 51.3812) rotate(-53.4927) scale(9.28724 14.7369)">
<stop stop-color="#6574CD" stop-opacity="0.5"/>
<stop offset="1" stop-color="#6574CD"/>
</radialGradient>
<clipPath id="clip0_401_1360">
<rect width="37.4624" height="50" fill="white" transform="translate(20 16)"/>
</clipPath>
<clipPath id="clip1_401_1360">
<rect width="100" height="26.0797" fill="white" transform="translate(91 28)"/>
</clipPath>
</defs>
</svg>
