<svg width="250" height="82" viewBox="0 0 250 82" fill="none" xmlns="http://www.w3.org/2000/svg">
<g clipPath="url(#clip0_401_2453)">
<path fillRule="evenodd" clipRule="evenodd" d="M33.5312 50.238C33.5285 60.5886 33.5219 60.6993 32.8175 62.2121C31.1964 65.6929 27.3711 66.9312 23.8777 65.1063C22.7067 64.4945 22.0231 63.8674 21.3629 62.7999C21.3629 62.7999 20.7472 62.0345 20.4564 61.3336C20.1656 60.6328 20.0647 57.4635 20.0576 54.9757C20.0501 52.3686 20.0576 49.6207 20.4564 48.3117C20.6527 47.6678 21.3629 46.8455 21.3629 46.8455C22.5212 44.972 24.7832 43.699 26.9544 43.699H28.4233V45.6532V47.6074H27.5064C26.3956 47.6074 24.9573 48.3081 24.7017 48.9738C24.5992 49.2413 24.515 51.9423 24.515 54.9757C24.515 54.9757 24.1737 59.6886 24.515 60.2868C24.8564 60.885 25.3072 61.1142 25.3072 61.1142C26.3571 61.9403 27.5857 62.004 28.6208 61.1142C28.6208 61.1142 28.8794 60.9817 29.3392 60.2868C29.799 59.5919 29.5622 50.0389 29.5622 50.0389L29.6487 39.7908H31.5915H33.5342L33.5312 50.238Z" fill="url(#paint0_linear_401_2453)"/>
<path fillRule="evenodd" clipRule="evenodd" d="M28.4235 27.3144C28.4235 29.1654 28.3862 29.2685 27.7167 29.2685C26.6001 29.2685 25.1309 29.8821 24.8095 30.4828C24.2801 31.4719 24.4656 33.0256 25.1949 33.7107C25.8569 34.3325 26.1489 34.3517 36.2524 34.4395C36.2524 34.4395 44.2244 34.6119 45.7474 34.7357C47.2704 34.8595 48.1216 35.2978 48.1216 35.2978C50.2083 36.3723 51.3466 38.0715 51.5119 40.3588C51.6679 42.5149 51.2134 44.0037 49.9651 45.4257C48.2407 47.3898 47.3706 47.5933 40.6745 47.6009L34.7369 47.6075V45.6533V43.6991H40.3218C40.3218 43.6991 45.2143 43.732 45.7474 43.5288C46.2804 43.3256 46.7856 42.8204 46.7856 42.8204C47.8243 41.7817 47.9401 40.4989 47.0901 39.4484C47.0901 39.4484 46.6725 39.0814 46.0635 38.9311C45.4544 38.7807 35.867 38.5883 35.867 38.5883C35.867 38.5883 27.1968 38.7058 25.46 38.1552C23.7232 37.6047 23.7525 37.5316 23.7525 37.5316C19.95 35.1791 19.5441 29.6834 22.9639 26.8544C24.2233 25.8124 25.3248 25.426 27.1458 25.3872L28.4235 25.3602V27.3144Z" fill="url(#paint1_linear_401_2453)"/>
<path fillRule="evenodd" clipRule="evenodd" d="M53.5733 16.4883C55.2644 16.9907 56.9167 18.4154 57.6849 20.0344C58.7594 22.2985 58.0694 25.7664 56.1952 27.5239C54.4115 29.1966 53.9047 29.2685 43.9159 29.2685H34.7368V27.3144V25.3602H43.3201C53.5851 25.3602 53.9777 25.2592 53.9777 22.6162C53.9777 22.0709 53.2397 20.9874 53.2397 20.9874C53.2397 20.9874 53.0765 20.7953 52.3565 20.4541C51.6364 20.1128 43.8447 20.259 43.8447 20.259C37.5139 20.2659 35.0597 20.3669 34.7107 20.6348C33.6726 21.432 33.5343 22.2669 33.5343 27.7454V33.1768H31.5801H29.626V27.1295C29.626 21.1891 29.6398 21.0571 30.4061 19.649C31.299 18.0087 32.5007 17.016 34.2618 16.4646C36.1507 15.8732 51.5657 15.8922 53.5733 16.4883Z" fill="url(#paint2_linear_401_2453)"/>
</g>
<g clipPath="url(#clip1_401_2453)">
<path fillRule="evenodd" clipRule="evenodd" d="M88.9135 44.8538C88.9123 49.3444 88.9094 49.3923 88.6016 50.0487C87.8931 51.5588 86.2213 52.0959 84.6946 51.3043C84.1828 51.0389 83.884 50.7668 83.5955 50.3037C83.5955 50.3037 83.3264 49.9716 83.1994 49.6676C83.0723 49.3635 83.0282 47.9885 83.025 46.9092C83.0218 45.7782 83.025 44.586 83.1994 44.0182C83.2851 43.7388 83.5955 43.3821 83.5955 43.3821C84.1017 42.5692 85.0903 42.017 86.0392 42.017H86.6812V42.8648V43.7126H86.2804C85.795 43.7126 85.1664 44.0166 85.0547 44.3054C85.0099 44.4215 84.9731 45.5932 84.9731 46.9092C84.9731 46.9092 84.8239 48.9539 84.9731 49.2134C85.1223 49.4729 85.3193 49.5723 85.3193 49.5723C85.7781 49.9308 86.3151 49.9584 86.7675 49.5723C86.7675 49.5723 86.8805 49.5149 87.0814 49.2134C87.2824 48.9119 87.1789 44.7675 87.1789 44.7675L87.2167 40.3214H88.0658H88.9148L88.9135 44.8538Z" fill="url(#paint3_linear_401_2453)"/>
<path fillRule="evenodd" clipRule="evenodd" d="M86.6813 34.9086C86.6813 35.7116 86.665 35.7563 86.3724 35.7563C85.8845 35.7563 85.2423 36.0226 85.1019 36.2832C84.8705 36.7123 84.9516 37.3863 85.2703 37.6836C85.5596 37.9533 85.6872 37.9616 90.1028 37.9997C90.1028 37.9997 93.5869 38.0745 94.2525 38.1282C94.9181 38.1819 95.2901 38.3721 95.2901 38.3721C96.2021 38.8383 96.6995 39.5754 96.7718 40.5678C96.84 41.5032 96.6413 42.1491 96.0958 42.766C95.3422 43.6181 94.9619 43.7064 92.0354 43.7096L89.4405 43.7125V42.8647V42.0169H91.8813C91.8813 42.0169 94.0195 42.0312 94.2525 41.943C94.4854 41.8549 94.7062 41.6357 94.7062 41.6357C95.1602 41.185 95.2108 40.6285 94.8393 40.1728C94.8393 40.1728 94.6568 40.0136 94.3906 39.9484C94.1244 39.8831 89.9344 39.7997 89.9344 39.7997C89.9344 39.7997 86.1452 39.8506 85.3862 39.6118C84.6271 39.3729 84.6399 39.3412 84.6399 39.3412C82.9781 38.3206 82.8007 35.9363 84.2953 34.709C84.8457 34.2569 85.3271 34.0893 86.1229 34.0725L86.6813 34.0608V34.9086Z" fill="url(#paint4_linear_401_2453)"/>
<path fillRule="evenodd" clipRule="evenodd" d="M97.6729 30.2118C98.412 30.4298 99.1341 31.0479 99.4698 31.7502C99.9394 32.7325 99.6378 34.237 98.8187 34.9995C98.0392 35.7252 97.8177 35.7564 93.4522 35.7564H89.4407V34.9086V34.0608H93.1918C97.678 34.0608 97.8496 34.017 97.8496 32.8704C97.8496 32.6338 97.5271 32.1637 97.5271 32.1637C97.5271 32.1637 97.4558 32.0804 97.1411 31.9323C96.8264 31.7843 93.4211 31.8477 93.4211 31.8477C90.6543 31.8507 89.5818 31.8945 89.4292 32.0107C88.9755 32.3566 88.9151 32.7188 88.9151 35.0956V37.452H88.061H87.207V34.8284C87.207 32.2512 87.2131 32.194 87.548 31.583C87.9382 30.8714 88.4634 30.4407 89.2331 30.2015C90.0586 29.945 96.7955 29.9532 97.6729 30.2118Z" fill="url(#paint5_linear_401_2453)"/>
<path d="M103.058 45.4012V36.2151H109.544V37.9328H104.892V40.5024H109.234V42.1102H104.892V45.4012H103.058ZM110.155 42.0689C110.155 41.0383 110.492 40.207 111.165 39.5749C111.843 38.9382 112.725 38.6198 113.81 38.6198C114.896 38.6198 115.778 38.9382 116.456 39.5749C117.143 40.207 117.486 41.0383 117.486 42.0689C117.486 43.095 117.143 43.924 116.456 44.5561C115.778 45.1928 114.896 45.5112 113.81 45.5112C112.725 45.5112 111.843 45.1928 111.165 44.5561C110.492 43.924 110.155 43.095 110.155 42.0689ZM111.942 42.0689C111.942 42.6552 112.109 43.1179 112.443 43.4568C112.782 43.7958 113.238 43.9653 113.81 43.9653C114.388 43.9653 114.845 43.7912 115.185 43.4431C115.523 43.095 115.693 42.6323 115.693 42.0552C115.693 41.4689 115.523 41.0063 115.185 40.6673C114.85 40.3238 114.401 40.152 113.838 40.152C113.261 40.152 112.8 40.3284 112.457 40.681C112.113 41.0292 111.942 41.4918 111.942 42.0689ZM122.406 38.6336C122.566 38.6336 122.669 38.6381 122.715 38.6473V40.31H122.378C121.196 40.31 120.606 40.9948 120.606 42.3644V45.4012H118.847V38.7435H120.393L120.55 39.6573C120.67 39.3412 120.894 39.0916 121.224 38.9084C121.554 38.7252 121.948 38.6336 122.406 38.6336ZM130.067 41.6292C130.067 41.9361 130.048 42.2086 130.012 42.4468H125.188C125.216 42.9323 125.424 43.3125 125.814 43.5874C126.203 43.8576 126.734 43.9927 127.408 43.9927C128.36 43.9927 129.178 43.7912 129.86 43.3881V44.9821C129.15 45.344 128.257 45.5249 127.181 45.5249C125.99 45.5249 125.067 45.2112 124.412 44.5836C123.748 43.9469 123.416 43.1087 123.416 42.0689C123.416 41.0337 123.729 40.2024 124.357 39.5749C124.994 38.9382 125.827 38.6198 126.858 38.6198C127.824 38.6198 128.598 38.8969 129.18 39.4512C129.771 40.0009 130.067 40.7269 130.067 41.6292ZM125.229 41.2376H128.308C128.28 40.9032 128.129 40.6352 127.854 40.4337C127.579 40.2276 127.234 40.1245 126.817 40.1245C126.4 40.1245 126.049 40.2253 125.765 40.4268C125.486 40.6284 125.307 40.8986 125.229 41.2376ZM132.547 45.4012V40.2207H130.843V38.7435H132.547V36.9571L134.292 36.8472V38.7435H136.003V40.2207H134.292V45.4012H132.547ZM137.164 45.4012V35.9059H138.909V39.5611C139.106 39.2634 139.388 39.0321 139.754 38.8672C140.121 38.7023 140.515 38.6198 140.936 38.6198C141.724 38.6198 142.329 38.8397 142.75 39.2794C143.171 39.7191 143.382 40.3329 143.382 41.1208V45.4012H141.623V41.43C141.623 40.5597 141.211 40.1245 140.386 40.1245C139.919 40.1245 139.555 40.2665 139.294 40.5505C139.037 40.8299 138.909 41.1986 138.909 41.6567V45.4012H137.164ZM144.729 42.0689C144.729 41.0383 145.065 40.207 145.739 39.5749C146.417 38.9382 147.298 38.6198 148.384 38.6198C149.47 38.6198 150.351 38.9382 151.029 39.5749C151.716 40.207 152.06 41.0383 152.06 42.0689C152.06 43.095 151.716 43.924 151.029 44.5561C150.351 45.1928 149.47 45.5112 148.384 45.5112C147.298 45.5112 146.417 45.1928 145.739 44.5561C145.065 43.924 144.729 43.095 144.729 42.0689ZM146.515 42.0689C146.515 42.6552 146.682 43.1179 147.017 43.4568C147.356 43.7958 147.811 43.9653 148.384 43.9653C148.961 43.9653 149.419 43.7912 149.758 43.4431C150.097 43.095 150.267 42.6323 150.267 42.0552C150.267 41.4689 150.097 41.0063 149.758 40.6673C149.424 40.3238 148.975 40.152 148.411 40.152C147.834 40.152 147.374 40.3284 147.03 40.681C146.687 41.0292 146.515 41.4918 146.515 42.0689ZM159.624 38.7435V45.4012H158.01L157.865 44.5699C157.668 44.8584 157.382 45.0898 157.007 45.2638C156.631 45.4379 156.219 45.5249 155.77 45.5249C155.014 45.5249 154.428 45.3073 154.011 44.8722C153.599 44.4371 153.393 43.8485 153.393 43.1064V38.7435H155.152V42.6873C155.152 43.0766 155.248 43.3973 155.44 43.6492C155.637 43.8966 155.953 44.0202 156.388 44.0202C156.846 44.0202 157.206 43.8828 157.467 43.608C157.733 43.3332 157.865 42.9782 157.865 42.543V38.7435H159.624ZM161.04 41.9796C161.04 40.9765 161.349 40.1657 161.967 39.5474C162.599 38.929 163.41 38.6198 164.399 38.6198C165.421 38.6198 166.195 38.9107 166.722 39.4924L166.804 38.7435H168.343V44.5561C168.343 45.6692 167.991 46.5281 167.285 47.1327C166.585 47.7419 165.613 48.051 164.372 48.0602C163.36 48.074 162.483 47.9091 161.741 47.5655V45.9372C162.551 46.3311 163.378 46.5281 164.221 46.5281C164.949 46.5281 165.526 46.3746 165.952 46.0677C166.383 45.7654 166.598 45.3554 166.598 44.8378V44.2882C166.374 44.5951 166.051 44.8378 165.629 45.0165C165.208 45.1905 164.743 45.2776 164.235 45.2776C163.264 45.2776 162.485 44.9707 161.899 44.3569C161.326 43.7568 161.04 42.9644 161.04 41.9796ZM166.598 41.9796V41.8422C166.598 41.3292 166.42 40.9146 166.062 40.5986C165.71 40.2825 165.254 40.1245 164.695 40.1245C164.15 40.1245 163.701 40.2917 163.348 40.6261C163 40.9605 162.826 41.3979 162.826 41.9384C162.826 42.4835 162.996 42.9255 163.335 43.2645C163.683 43.5988 164.132 43.766 164.681 43.766C165.24 43.766 165.696 43.6034 166.049 43.2782C166.415 42.9392 166.598 42.5064 166.598 41.9796ZM170.157 45.4012V35.9059H171.903V39.5611C172.099 39.2634 172.381 39.0321 172.747 38.8672C173.114 38.7023 173.508 38.6198 173.929 38.6198C174.717 38.6198 175.322 38.8397 175.743 39.2794C176.165 39.7191 176.375 40.3329 176.375 41.1208V45.4012H174.616V41.43C174.616 40.5597 174.204 40.1245 173.38 40.1245C172.912 40.1245 172.548 40.2665 172.287 40.5505C172.031 40.8299 171.903 41.1986 171.903 41.6567V45.4012H170.157ZM179.158 45.4012V40.2207H177.454V38.7435H179.158V36.9571L180.903 36.8472V38.7435H182.614V40.2207H180.903V45.4012H179.158Z" fill="#2B0866"/>
</g>
<defs>
<linearGradient id="paint0_linear_401_2453" x1="26.7952" y1="39.7908" x2="26.7952" y2="65.9448" gradientUnits="userSpaceOnUse">
<stop stopColor="#C539F8"/>
<stop offset="1" stopColor="#913FF3"/>
</linearGradient>
<linearGradient id="paint1_linear_401_2453" x1="22.5002" y1="27.4368" x2="49.5117" y2="47.0633" gradientUnits="userSpaceOnUse">
<stop stopColor="#348EF6"/>
<stop offset="0.65625" stopColor="#2AD4E6"/>
<stop offset="1" stopColor="#4AA3EB"/>
</linearGradient>
<linearGradient id="paint2_linear_401_2453" x1="29.5979" y1="29.0173" x2="48.7933" y2="23.7874" gradientUnits="userSpaceOnUse">
<stop stopColor="#9B19FF"/>
<stop offset="1" stopColor="#3378F0"/>
</linearGradient>
<linearGradient id="paint3_linear_401_2453" x1="85.9696" y1="40.3214" x2="85.9696" y2="51.668" gradientUnits="userSpaceOnUse">
<stop stopColor="#C539F8"/>
<stop offset="1" stopColor="#913FF3"/>
</linearGradient>
<linearGradient id="paint4_linear_401_2453" x1="84.0927" y1="34.9617" x2="95.8376" y2="43.5584" gradientUnits="userSpaceOnUse">
<stop stopColor="#348EF6"/>
<stop offset="0.65625" stopColor="#2AD4E6"/>
<stop offset="1" stopColor="#4AA3EB"/>
</linearGradient>
<linearGradient id="paint5_linear_401_2453" x1="87.1947" y1="35.6474" x2="95.5753" y2="33.3472" gradientUnits="userSpaceOnUse">
<stop stopColor="#9B19FF"/>
<stop offset="1" stopColor="#3378F0"/>
</linearGradient>
<clipPath id="clip0_401_2453">
<rect width="38.2184" height="50" fill="white" transform="translate(20 16)"/>
</clipPath>
<clipPath id="clip1_401_2453">
<rect width="100" height="21.692" fill="white" transform="translate(83 30)"/>
</clipPath>
</defs>
</svg>
