<svg width="250" height="82" viewBox="0 0 250 82" fill="none" xmlns="http://www.w3.org/2000/svg">
<path d="M32.4444 40.2222C32.4444 43.6667 29.6667 46.4444 26.2222 46.4444C22.7778 46.4444 20 43.6667 20 40.2222C20 36.7778 22.7778 34 26.2222 34C29.6667 34 32.4444 36.7778 32.4444 40.2222Z" fill="#6D4CFF"/>
<path d="M53.2219 40.3336C53.2219 42.778 51.2219 44.778 48.7775 44.778C46.333 44.778 44.333 42.778 44.333 40.3336C44.333 37.8892 46.333 35.8892 48.7775 35.8892C51.2219 35.8892 53.2219 37.8892 53.2219 40.3336Z" fill="#6D4CFF"/>
<path d="M69.333 40.3333C69.333 41.4444 68.4441 42.3333 67.333 42.3333C66.2219 42.3333 65.333 41.4444 65.333 40.3333C65.333 39.2222 66.2219 38.3333 67.333 38.3333C68.4441 38.3333 69.333 39.2222 69.333 40.3333Z" fill="#6D4CFF"/>
<g clip-path="url(#clip0_401_1699)">
<path d="M115.846 52.9232C115.846 55.3078 113.923 57.2309 111.539 57.2309C109.154 57.2309 107.231 55.3078 107.231 52.9232C107.231 50.5386 109.154 48.6155 111.539 48.6155C113.923 48.6155 115.846 50.5386 115.846 52.9232Z" fill="black"/>
<path d="M130.231 53.0003C130.231 54.6926 128.846 56.0772 127.154 56.0772C125.462 56.0772 124.077 54.6926 124.077 53.0003C124.077 51.308 125.462 49.9233 127.154 49.9233C128.846 49.9233 130.231 51.308 130.231 53.0003Z" fill="black"/>
<path d="M141.384 52.9999C141.384 53.7691 140.769 54.3845 140 54.3845C139.231 54.3845 138.615 53.7691 138.615 52.9999C138.615 52.2306 139.231 51.6152 140 51.6152C140.769 51.6152 141.384 52.2306 141.384 52.9999Z" fill="black"/>
<path d="M126.308 43.8462C125.539 43.8462 125 43.2308 125 42.5385V36.8462C125 34.9231 124.077 33.3846 122 33.3846C119.923 33.3846 118.616 35 118.616 36.8462V42.4615C118.616 43.2308 118.077 43.7692 117.308 43.7692C116.539 43.7692 116 43.1538 116 42.4615V36.7692C116 34.8462 115 33.3077 112.923 33.3077C110.769 33.3077 109.693 34.9231 109.693 36.7692V42.3846C109.693 43.1538 109.154 43.6923 108.385 43.6923C107.616 43.6923 107.077 43.0769 107.077 42.3846V32.4615C107.077 31.6923 107.616 31.0769 108.385 31.0769C109.308 31.0769 109.693 31.6923 109.693 32.4615V33.3846C110.462 31.9231 112 31 113.693 31C115.693 31 117.231 32 118 33.5385C119.077 31.8462 120.693 31 122.693 31C126.077 31 127.769 33.3846 127.769 36.6923V42.5385C127.693 43.2308 127.154 43.8462 126.308 43.8462Z" fill="black"/>
<path d="M131.385 43.8464C130.615 43.8464 130.077 43.231 130.077 42.5387V32.4618C130.077 31.6925 130.615 31.1541 131.385 31.1541C132.154 31.1541 132.692 31.7695 132.692 32.4618V42.5387C132.692 43.231 132.154 43.8464 131.385 43.8464ZM131.385 26.0771C132.231 26.0771 132.923 26.7695 132.923 27.6156C132.923 28.4618 132.231 29.1541 131.385 29.1541C130.538 29.1541 129.846 28.4618 129.846 27.6156C129.846 26.7695 130.538 26.0771 131.385 26.0771Z" fill="black"/>
<path d="M140.154 35.6923L143.539 31.5384C143.77 31.3077 144.077 31.1538 144.385 31.1538C145.154 31.1538 145.616 31.6153 145.616 32.3077C145.616 32.5384 145.539 32.8461 145.308 33.0769L141.616 37.4615L145.385 41.923C145.616 42.1538 145.693 42.3846 145.693 42.6923C145.693 43.3077 145.154 43.8461 144.539 43.8461C144.154 43.8461 143.846 43.6923 143.616 43.3846L140.231 39.1538L136.846 43.3846C136.616 43.6923 136.308 43.8461 135.923 43.8461C135.308 43.8461 134.77 43.3077 134.77 42.6923C134.77 42.3846 134.846 42.1538 135.077 41.923L138.846 37.4615L135.154 33.0769C134.923 32.8461 134.846 32.5384 134.846 32.3077C134.846 31.6153 135.308 31.1538 136.077 31.1538C136.462 31.1538 136.693 31.3077 136.923 31.5384L140.154 35.6923Z" fill="black"/>
<path d="M154.077 33.231C151.769 33.231 150.308 35.231 150.308 37.5387C150.308 39.7695 151.846 41.8464 154.077 41.8464C156.385 41.8464 157.846 40.1541 157.846 37.5387C157.846 34.9233 156.385 33.231 154.077 33.231ZM154.615 44.0002C152.692 44.0002 151.154 43.0002 150.308 41.5387V47.8464C150.308 48.6156 149.769 49.1541 149 49.1541C148.231 49.1541 147.692 48.5387 147.692 47.8464V32.4618C147.692 31.6925 148.154 31.1541 148.923 31.1541C149.692 31.1541 150.231 31.7695 150.231 32.5387V33.5387C151.077 32.0771 152.769 31.0771 154.615 31.0771C157.846 31.0771 160.462 33.7695 160.462 37.5387C160.462 41.3848 157.846 44.0002 154.615 44.0002Z" fill="black"/>
<path d="M168 33.3079C165.769 33.3079 164.154 35.231 164.154 37.5387C164.154 40.0002 165.462 41.7695 168 41.7695C170.308 41.7695 171.846 39.7695 171.846 37.5387C171.769 34.8464 170.231 33.3079 168 33.3079ZM174.462 42.5387C174.462 43.3079 173.923 43.8464 173.154 43.8464C172.385 43.8464 171.846 43.231 171.846 42.5387V41.9233C171.077 43.0771 169.539 44.0002 167.769 44.0002C163.846 44.0002 161.539 41.0771 161.539 37.5387C161.539 34.0002 164.077 31.0771 168.077 31.0771C172.154 31.0771 174.539 33.7695 174.539 37.5387V42.5387H174.462Z" fill="black"/>
<path d="M182.385 31C185.769 31 188.308 33.6154 188.308 36.9231V42.5385C188.308 43.3077 187.692 43.8462 187 43.8462C186.231 43.8462 185.692 43.2308 185.692 42.5385V36.6154C185.692 34.8462 184.308 33.4615 182.462 33.4615C180.616 33.4615 179.231 34.8462 179.231 36.6154V42.5385C179.231 43.3077 178.616 43.8462 177.923 43.8462C177.154 43.8462 176.616 43.2308 176.616 42.5385V36.9231C176.539 33.6154 179 31 182.385 31Z" fill="black"/>
<path d="M196.231 33.1538C194.307 33.1538 193 34.5385 192.692 36.3077H199.615C199.384 34.5385 198.154 33.1538 196.231 33.1538ZM202.077 37.5385C202.077 38 201.846 38.4615 201.077 38.4615H192.692C192.846 40.3846 194.154 41.8462 196.461 41.8462C197.923 41.8462 198.769 41.3077 199.692 40.4615C199.923 40.2308 200.231 40 200.538 40C201.154 40 201.615 40.4615 201.615 41.0769C201.615 41.3846 201.461 41.6154 201.307 41.8462C200.231 43.0769 198.307 43.9231 196.307 43.9231C192.077 43.9231 189.923 41 189.923 37.4615C189.923 33.7692 192.615 31 196.231 31C199.769 31 202.077 33.9231 202.077 37.5385Z" fill="black"/>
<path d="M205.231 43.846C204.461 43.846 203.923 43.2306 203.923 42.5383V25.9229C203.923 25.1537 204.461 24.6152 205.231 24.6152C206 24.6152 206.538 25.2306 206.538 25.9229V42.5383C206.538 43.2306 206 43.846 205.231 43.846Z" fill="black"/>
</g>
<defs>
<clipPath id="clip0_401_1699">
<rect width="100" height="33.8462" fill="white" transform="translate(107 24)"/>
</clipPath>
</defs>
</svg>
