<svg width="250" height="82" viewBox="0 0 250 82" fill="none" xmlns="http://www.w3.org/2000/svg">
<g clip-path="url(#clip0_401_1098)">
<path d="M58.5618 16H31.4382C25.1211 16 20 21.1211 20 27.4382V54.5618C20 60.8789 25.1211 66 31.4382 66H58.5618C64.8789 66 70 60.8789 70 54.5618V27.4382C70 21.1211 64.8789 16 58.5618 16Z" fill="url(#paint0_linear_401_1098)"/>
<path d="M47.2747 28.5784C42.9581 25.9846 38.1881 24.5519 33.0131 24.2947C31.7929 24.2341 31.4914 24.2377 31.1265 24.3171C30.1742 24.5242 29.3861 25.3515 29.227 26.3111C29.1485 26.7845 29.1738 30.7006 29.1738 30.7006L29.1739 30.7991L29.1871 36.4146L29.2003 42.0302L29.3092 42.3159C29.6229 43.1396 30.2398 43.7074 31.0343 43.9033C31.1936 43.9426 31.6388 43.9876 32.0237 44.0033C34.72 44.1129 37.1466 45.1451 39.0643 46.9981C41.0747 48.9406 42.2222 51.4911 42.3337 54.2647C42.3492 54.6496 42.3926 55.1035 42.4302 55.2733C42.6062 56.068 43.1909 56.7099 44.0313 57.0312L44.3065 57.1364L49.917 57.1496L55.5034 57.1364H55.6482L57.6511 57.1496C58.8808 57.1577 59.7844 57.1432 59.9918 57.112C61.0268 56.9562 61.8795 56.1043 62.0448 55.0611C62.1059 54.6755 62.0755 53.5651 61.9662 52.1968C61.187 42.4403 55.7216 33.654 47.2747 28.5784Z" fill="#EE421B"/>
<mask id="mask0_401_1098" style="mask-type:alpha" maskUnits="userSpaceOnUse" x="29" y="24" width="34" height="34">
<path d="M47.2747 28.5784C42.9581 25.9846 38.1881 24.5519 33.0131 24.2947C31.7929 24.2341 31.4914 24.2377 31.1265 24.3171C30.1742 24.5242 29.3861 25.3515 29.227 26.3111C29.1485 26.7845 29.1738 30.7006 29.1738 30.7006L29.1739 30.7991L29.1871 36.4146L29.2003 42.0302L29.3092 42.3159C29.6229 43.1396 30.2398 43.7074 31.0343 43.9033C31.1936 43.9426 31.6388 43.9876 32.0237 44.0033C34.72 44.1129 37.1466 45.1451 39.0643 46.9981C41.0747 48.9406 42.2222 51.4911 42.3337 54.2647C42.3492 54.6496 42.3926 55.1035 42.4302 55.2733C42.6062 56.068 43.1909 56.7099 44.0313 57.0312L44.3065 57.1364L49.917 57.1496L55.5034 57.1364H55.6482L57.6511 57.1496C58.8808 57.1577 59.7844 57.1432 59.9918 57.112C61.0268 56.9562 61.8795 56.1043 62.0448 55.0611C62.1059 54.6755 62.0755 53.5651 61.9662 52.1968C61.187 42.4403 55.7216 33.654 47.2747 28.5784Z" fill="url(#paint1_radial_401_1098)"/>
</mask>
<g mask="url(#mask0_401_1098)">
<g filter="url(#filter0_f_401_1098)">
<path d="M56.5833 18.9682C52.2667 16.3745 39.5333 17.1501 34.3584 16.8929C33.1381 16.8323 22.2473 24.2154 21.8825 24.2948C20.9301 24.502 20.1421 25.3292 19.9829 26.2888C21.3555 26.0492 35.9037 26.1894 40.1894 28.5785C45.5465 31.5648 49.5764 32.7955 53.0272 37.4528C56.478 42.1101 59.2314 49.0599 60.1064 52.8244C60.8064 55.836 59.7203 67.3379 59.7203 67.5445C60.7553 67.3886 71.4274 56.7634 71.5929 55.7202C71.6542 55.3346 68.9274 48.5942 68.8178 47.226C68.0386 37.4694 65.0302 24.0439 56.5833 18.9682Z" fill="#8753C8"/>
</g>
<path fill-rule="evenodd" clip-rule="evenodd" d="M55.4729 57.1364V54.6101C55.4729 41.4694 44.8202 30.8167 31.6795 30.8167H29.1738L29.187 36.4147L29.2002 42.0302L29.3091 42.3159C29.6228 43.1397 30.2397 43.7074 31.0342 43.9034C31.1935 43.9427 31.6387 43.9876 32.0236 44.0033C34.7199 44.1129 37.1464 45.1451 39.0642 46.9981C41.0746 48.9406 42.222 51.4911 42.3335 54.2648C42.3491 54.6497 42.3925 55.1035 42.4301 55.2733C42.606 56.068 43.1908 56.7099 44.0312 57.0312L44.3064 57.1364L49.9169 57.1496L55.4729 57.1364Z" fill="#FFF000"/>
</g>
<mask id="mask1_401_1098" style="mask-type:alpha" maskUnits="userSpaceOnUse" x="29" y="30" width="27" height="28">
<path fill-rule="evenodd" clip-rule="evenodd" d="M55.4729 57.1367V54.6103C55.4729 41.4696 44.8202 30.8169 31.6795 30.8169H29.1738L29.187 36.4149L29.2002 42.0305L29.3091 42.3162C29.6228 43.1399 30.2397 43.7076 31.0342 43.9036C31.1935 43.9429 31.6387 43.9878 32.0236 44.0035C34.7199 44.1131 37.1465 45.1453 39.0642 46.9984C41.0746 48.9409 42.2221 51.4914 42.3336 54.265C42.3491 54.6499 42.3925 55.1038 42.4301 55.2736C42.6061 56.0682 43.1908 56.7102 44.0312 57.0315L44.3064 57.1366L49.9169 57.1499L55.4729 57.1367Z" fill="url(#paint2_radial_401_1098)"/>
</mask>
<g mask="url(#mask1_401_1098)">
<g filter="url(#filter1_f_401_1098)">
<path d="M56.5833 25.5322C52.2667 22.9384 39.5333 23.7141 34.3584 23.4569C33.1381 23.3963 22.2473 30.7794 21.8825 30.8587C20.9301 31.0659 20.1421 31.8932 19.9829 32.8528C21.3555 32.6131 35.9037 32.7534 40.1894 35.1424C45.5465 38.1287 46.5688 39.7455 50.0195 44.4029C53.4703 49.0602 53.4158 58.9058 54.2908 62.6702C54.9908 65.6818 58.7309 73.5158 58.7309 73.7224C59.7659 73.5665 71.4274 63.3274 71.5929 62.2841C71.6542 61.8986 68.9274 55.1582 68.8178 53.7899C68.0386 44.0334 65.0302 30.6078 56.5833 25.5322Z" fill="#FF9B00"/>
</g>
<path fill-rule="evenodd" clip-rule="evenodd" d="M49.0054 57.1485C49.0057 57.1067 49.0058 57.0649 49.0058 57.0231V55.0443C49.0058 45.3153 41.1189 37.4285 31.39 37.4285H29.5077C29.4014 37.4285 29.2953 37.4294 29.1895 37.4313L29.2003 42.0301L29.3091 42.3158C29.6229 43.1395 30.2398 43.7072 31.0343 43.9032C31.1936 43.9425 31.6388 43.9874 32.0237 44.0031C34.72 44.1127 37.1465 45.1449 39.0643 46.998C41.0747 48.9405 42.2222 51.491 42.3337 54.2646C42.3492 54.6495 42.3925 55.1034 42.4302 55.2732C42.6062 56.0679 43.1909 56.7098 44.0313 57.0311C44.0313 57.0311 44.2037 57.1437 44.4209 57.1437L49.0054 57.1485Z" fill="#00B1E2"/>
</g>
<mask id="mask2_401_1098" style="mask-type:alpha" maskUnits="userSpaceOnUse" x="29" y="37" width="21" height="21">
<path fill-rule="evenodd" clip-rule="evenodd" d="M49.0054 57.1473C49.0057 57.1059 49.0058 57.0645 49.0058 57.0231V55.0443C49.0058 45.3153 41.1189 37.4285 31.39 37.4285H29.5077C29.4014 37.4285 29.2953 37.4294 29.1895 37.4313L29.2003 42.0301L29.3091 42.3158C29.6229 43.1395 30.2398 43.7072 31.0343 43.9032C31.1936 43.9425 31.6388 43.9874 32.0237 44.0031C34.72 44.1127 37.1465 45.1449 39.0643 46.998C41.0747 48.9405 42.2222 51.491 42.3337 54.2646C42.3492 54.6495 42.3925 55.1034 42.4302 55.2732C42.6062 56.0678 43.1909 56.7098 44.0313 57.0311L44.3065 57.1362L49.0054 57.1473Z" fill="url(#paint3_radial_401_1098)"/>
</mask>
<g mask="url(#mask2_401_1098)">
<g filter="url(#filter2_f_401_1098)">
<path d="M56.5833 32.1435C52.2667 29.5498 39.5333 30.3254 34.3584 30.0682C33.1381 30.0076 22.2473 37.3907 21.8825 37.4701C20.9301 37.6773 20.1421 38.5045 19.9829 39.4641C21.3555 39.2245 35.7917 40.2516 40.0775 42.6406C45.4346 45.6269 46.4964 54.4167 46.4964 54.4167C46.4964 54.4167 46.9245 68.3163 47.7995 72.0808C48.4995 75.0924 58.7309 80.1271 58.7309 80.3337C59.7659 80.1778 71.4274 69.9389 71.5929 68.8955C71.6542 68.5098 68.9274 61.7695 68.8178 60.4013C68.0386 50.6447 65.0302 37.2192 56.5833 32.1435Z" fill="#00DA42"/>
</g>
</g>
</g>
<g clip-path="url(#clip1_401_1098)">
<path d="M113.917 29H100.611C97.5122 29 95 31.5122 95 34.6112V47.9171C95 51.0161 97.5122 53.5283 100.611 53.5283H113.917C117.016 53.5283 119.528 51.0161 119.528 47.9171V34.6112C119.528 31.5122 117.016 29 113.917 29Z" fill="url(#paint4_linear_401_1098)"/>
<path d="M108.38 35.1703C106.263 33.8978 103.923 33.195 101.384 33.0688C100.785 33.0391 100.637 33.0409 100.458 33.0798C99.9912 33.1814 99.6046 33.5873 99.5265 34.058C99.488 34.2903 99.5005 36.2114 99.5005 36.2114L99.5005 36.2597L99.507 39.0144L99.5135 41.7693L99.5668 41.9094C99.7207 42.3136 100.023 42.592 100.413 42.6881C100.491 42.7074 100.71 42.7295 100.898 42.7372C102.221 42.791 103.412 43.2973 104.352 44.2063C105.339 45.1593 105.902 46.4105 105.956 47.7711C105.964 47.9599 105.985 48.1826 106.004 48.2659C106.09 48.6557 106.377 48.9707 106.789 49.1283L106.924 49.1798L109.676 49.1863L112.417 49.1798H112.488L113.47 49.1863C114.074 49.1903 114.517 49.1832 114.619 49.1679C115.126 49.0914 115.545 48.6736 115.626 48.1618C115.656 47.9726 115.641 47.4279 115.587 46.7567C115.205 41.9704 112.524 37.6602 108.38 35.1703Z" fill="#EE421B"/>
<mask id="mask3_401_1098" style="mask-type:alpha" maskUnits="userSpaceOnUse" x="99" y="33" width="17" height="17">
<path d="M108.38 35.1703C106.263 33.8978 103.923 33.195 101.384 33.0688C100.785 33.0391 100.637 33.0409 100.458 33.0798C99.9912 33.1814 99.6046 33.5873 99.5265 34.058C99.488 34.2903 99.5005 36.2114 99.5005 36.2114L99.5005 36.2597L99.507 39.0144L99.5134 41.7693L99.5668 41.9094C99.7207 42.3136 100.023 42.592 100.413 42.6881C100.491 42.7074 100.71 42.7295 100.898 42.7372C102.221 42.791 103.412 43.2973 104.352 44.2063C105.339 45.1593 105.902 46.4105 105.956 47.7711C105.964 47.9599 105.985 48.1826 106.004 48.2659C106.09 48.6557 106.377 48.9707 106.789 49.1283L106.924 49.1798L109.676 49.1863L112.417 49.1798H112.488L113.47 49.1863C114.074 49.1903 114.517 49.1832 114.619 49.1679C115.126 49.0914 115.545 48.6736 115.626 48.1618C115.656 47.9726 115.641 47.4279 115.587 46.7567C115.205 41.9704 112.524 37.6602 108.38 35.1703Z" fill="url(#paint5_radial_401_1098)"/>
</mask>
<g mask="url(#mask3_401_1098)">
<g filter="url(#filter3_f_401_1098)">
<path d="M112.946 30.4558C110.828 29.1833 104.582 29.5638 102.043 29.4377C101.445 29.4079 96.102 33.0298 95.9231 33.0688C95.4559 33.1704 95.0693 33.5762 94.9912 34.047C95.6645 33.9294 102.801 33.9982 104.904 35.1702C107.532 36.6352 109.509 37.2389 111.202 39.5237C112.894 41.8084 114.245 45.2177 114.674 47.0644C115.018 48.5418 114.485 54.1843 114.485 54.2856C114.993 54.2091 120.228 48.9967 120.309 48.485C120.339 48.2959 119.002 44.9893 118.948 44.318C118.566 39.5318 117.09 32.9457 112.946 30.4558Z" fill="#8753C8"/>
</g>
<path fill-rule="evenodd" clip-rule="evenodd" d="M112.402 49.1802V47.9408C112.402 41.4944 107.176 36.2686 100.73 36.2686H99.5005L99.507 39.0148L99.5134 41.7696L99.5668 41.9097C99.7207 42.3138 100.023 42.5923 100.413 42.6885C100.491 42.7077 100.71 42.7298 100.898 42.7375C102.221 42.7913 103.412 43.2976 104.352 44.2067C105.339 45.1596 105.902 46.4108 105.956 47.7714C105.964 47.9603 105.985 48.1829 106.004 48.2662C106.09 48.656 106.377 48.9709 106.789 49.1286L106.924 49.1801L109.676 49.1866L112.402 49.1802Z" fill="#FFF000"/>
</g>
<mask id="mask4_401_1098" style="mask-type:alpha" maskUnits="userSpaceOnUse" x="99" y="36" width="14" height="14">
<path fill-rule="evenodd" clip-rule="evenodd" d="M112.402 49.1799V47.9406C112.402 41.4942 107.176 36.2683 100.73 36.2683H99.5005L99.5069 39.0145L99.5134 41.7693L99.5668 41.9095C99.7207 42.3136 100.023 42.5921 100.413 42.6882C100.491 42.7075 100.71 42.7296 100.898 42.7372C102.221 42.791 103.412 43.2974 104.352 44.2064C105.339 45.1594 105.902 46.4105 105.956 47.7712C105.964 47.96 105.985 48.1826 106.004 48.2659C106.09 48.6558 106.377 48.9707 106.789 49.1283L106.924 49.1799L109.676 49.1864L112.402 49.1799Z" fill="url(#paint6_radial_401_1098)"/>
</mask>
<g mask="url(#mask4_401_1098)">
<g filter="url(#filter4_f_401_1098)">
<path d="M112.947 33.676C110.829 32.4035 104.582 32.784 102.044 32.6579C101.445 32.6282 96.1025 36.25 95.9236 36.289C95.4564 36.3906 95.0698 36.7964 94.9917 37.2672C95.665 37.1497 102.802 37.2185 104.904 38.3904C107.532 39.8554 108.034 40.6485 109.727 42.9332C111.42 45.218 111.393 50.0479 111.822 51.8946C112.165 53.372 114 57.2151 114 57.3164C114.508 57.24 120.229 52.217 120.31 51.7052C120.34 51.5161 119.002 48.2095 118.948 47.5383C118.566 42.752 117.09 36.1659 112.947 33.676Z" fill="#FF9B00"/>
</g>
<path fill-rule="evenodd" clip-rule="evenodd" d="M109.229 49.1862C109.229 49.1657 109.23 49.1452 109.23 49.1246V48.1539C109.23 43.3812 105.36 39.5122 100.588 39.5122H99.6644C99.6123 39.5122 99.5603 39.5126 99.5083 39.5135L99.5136 41.7696L99.567 41.9098C99.7209 42.3138 100.024 42.5923 100.413 42.6885C100.491 42.7077 100.71 42.7298 100.899 42.7375C102.221 42.7913 103.412 43.2976 104.353 44.2067C105.339 45.1596 105.902 46.4108 105.956 47.7715C105.964 47.9603 105.985 48.1829 106.004 48.2662C106.09 48.656 106.377 48.9709 106.789 49.1286C106.789 49.1286 106.874 49.1838 106.98 49.1838L109.229 49.1862Z" fill="#00B1E2"/>
</g>
<mask id="mask5_401_1098" style="mask-type:alpha" maskUnits="userSpaceOnUse" x="99" y="39" width="11" height="11">
<path fill-rule="evenodd" clip-rule="evenodd" d="M109.229 49.1855C109.229 49.1653 109.229 49.145 109.229 49.1246V48.1539C109.229 43.3812 105.36 39.5122 100.587 39.5122H99.664C99.6118 39.5122 99.5598 39.5126 99.5078 39.5135L99.5131 41.7696L99.5665 41.9098C99.7204 42.3138 100.023 42.5923 100.413 42.6885C100.491 42.7077 100.709 42.7298 100.898 42.7375C102.221 42.7913 103.411 43.2976 104.352 44.2067C105.338 45.1596 105.901 46.4108 105.956 47.7715C105.964 47.9603 105.985 48.1829 106.003 48.2662C106.09 48.656 106.376 48.9709 106.789 49.1286L106.924 49.1801L109.229 49.1855Z" fill="url(#paint7_radial_401_1098)"/>
</mask>
<g mask="url(#mask5_401_1098)">
<g filter="url(#filter5_f_401_1098)">
<path d="M112.947 36.9197C110.829 35.6472 104.582 36.0277 102.044 35.9015C101.445 35.8719 96.1025 39.4937 95.9236 39.5327C95.4564 39.6343 95.0698 40.0401 94.9917 40.5109C95.665 40.3933 102.747 40.8971 104.849 42.0692C107.477 43.5341 107.998 47.8461 107.998 47.8461C107.998 47.8461 108.208 54.6648 108.638 56.5115C108.981 57.9889 114 60.4588 114 60.5601C114.508 60.4836 120.229 55.4607 120.31 54.9489C120.34 54.7597 119.002 51.4531 118.948 50.7819C118.566 45.9957 117.09 39.4095 112.947 36.9197Z" fill="#00DA42"/>
</g>
</g>
<path d="M128.859 46.7483C129.484 46.7483 129.853 46.3666 129.853 45.7151V43.1355H131.544L133.123 45.9981C133.446 46.5772 133.663 46.7483 134.137 46.7483C134.716 46.7483 135.137 46.3666 135.137 45.8401C135.137 45.6098 135.091 45.4387 134.926 45.1558L133.557 42.7867C134.604 42.3392 135.189 41.3258 135.189 40.1413C135.189 38.2658 133.939 37.1143 131.754 37.1143H128.859C128.234 37.1143 127.865 37.4959 127.865 38.1474V45.7151C127.865 46.3666 128.24 46.7483 128.859 46.7483ZM129.853 41.6943V38.6673H131.544C132.531 38.6673 133.149 39.2595 133.149 40.1808C133.149 41.1218 132.564 41.6943 131.564 41.6943H129.853Z" fill="black"/>
<path d="M138.111 46.7219C138.993 46.7219 139.875 46.281 140.27 45.5308H140.309V45.8927C140.349 46.4587 140.711 46.7483 141.231 46.7483C141.777 46.7483 142.165 46.4192 142.165 45.7809V41.7601C142.165 40.3387 140.987 39.4043 139.178 39.4043C137.717 39.4043 136.585 39.9242 136.256 40.7664C136.19 40.9112 136.157 41.0495 136.157 41.2008C136.157 41.6351 136.493 41.9378 136.96 41.9378C137.269 41.9378 137.513 41.8193 137.723 41.5825C138.151 41.0297 138.506 40.8388 139.092 40.8388C139.816 40.8388 140.277 41.2205 140.277 41.8786V42.3458L138.5 42.4511C136.736 42.5564 135.749 43.3 135.749 44.5832C135.749 45.8533 136.769 46.7219 138.111 46.7219ZM138.743 45.3334C138.098 45.3334 137.664 45.0044 137.664 44.4779C137.664 43.9778 138.072 43.6554 138.789 43.6027L140.277 43.5106V44.0239C140.277 44.7872 139.585 45.3334 138.743 45.3334Z" fill="black"/>
<path d="M144.133 38.6805C144.712 38.6805 145.16 38.2396 145.16 37.6868C145.16 37.1275 144.712 36.6931 144.133 36.6931C143.554 36.6931 143.106 37.1275 143.106 37.6868C143.106 38.2396 143.554 38.6805 144.133 38.6805ZM144.133 46.7483C144.725 46.7483 145.094 46.3732 145.094 45.7481V40.4178C145.094 39.7926 144.725 39.4109 144.133 39.4109C143.534 39.4109 143.172 39.7926 143.172 40.4178V45.7481C143.172 46.3732 143.534 46.7483 144.133 46.7483Z" fill="black"/>
<path d="M147.068 46.7483C147.634 46.7483 148.029 46.4061 148.029 45.7481V42.563C148.029 41.6483 148.575 41.0165 149.437 41.0165C150.299 41.0165 150.734 41.543 150.734 42.4643V45.7481C150.734 46.4061 151.128 46.7483 151.694 46.7483C152.254 46.7483 152.655 46.4061 152.655 45.7481V42.0629C152.655 40.4111 151.773 39.424 150.207 39.424C149.121 39.424 148.411 39.9045 148.036 40.7797H147.996V40.3849C147.996 39.7794 147.614 39.4109 147.035 39.4109C146.456 39.4109 146.107 39.7794 146.107 40.3782V45.7481C146.107 46.4061 146.509 46.7483 147.068 46.7483Z" fill="black"/>
<path d="M154.59 46.7483C155.149 46.7483 155.544 46.4126 155.544 45.7743V45.3992H155.584C155.978 46.2218 156.762 46.7219 157.795 46.7219C159.578 46.7219 160.657 45.3532 160.657 43.0829C160.657 40.806 159.572 39.4438 157.788 39.4438C156.788 39.4438 155.998 39.9439 155.61 40.7797H155.57V37.9763C155.57 37.3182 155.176 36.9695 154.61 36.9695C154.05 36.9695 153.649 37.3182 153.649 37.9763V45.7743C153.649 46.4192 154.037 46.7483 154.59 46.7483ZM157.137 45.1755C156.202 45.1755 155.564 44.3595 155.564 43.0829C155.564 41.8194 156.202 40.9836 157.137 40.9836C158.091 40.9836 158.69 41.7997 158.69 43.0829C158.69 44.3727 158.091 45.1755 157.137 45.1755Z" fill="black"/>
<path d="M164.626 46.7614C166.758 46.7614 168.12 45.3992 168.12 43.0762C168.12 40.7862 166.738 39.4043 164.626 39.4043C162.513 39.4043 161.131 40.7928 161.131 43.0762C161.131 45.3926 162.494 46.7614 164.626 46.7614ZM164.626 45.2939C163.678 45.2939 163.079 44.4977 163.079 43.0829C163.079 41.6812 163.691 40.8717 164.626 40.8717C165.56 40.8717 166.165 41.6812 166.165 43.0829C166.165 44.4977 165.567 45.2939 164.626 45.2939Z" fill="black"/>
<path d="M171.147 46.7483C171.832 46.7483 172.213 46.439 172.378 45.7415L173.444 41.622H173.484L174.556 45.7283C174.721 46.4456 175.096 46.7483 175.8 46.7483C176.465 46.7483 176.834 46.4324 177.03 45.7349L178.452 40.8126C178.525 40.5625 178.557 40.4046 178.557 40.2269C178.557 39.7465 178.183 39.4109 177.649 39.4109C177.176 39.4109 176.866 39.7004 176.761 40.2137L175.708 44.7872H175.669L174.569 40.2927C174.444 39.7202 174.069 39.4109 173.497 39.4109C172.911 39.4109 172.536 39.7202 172.411 40.2927L171.318 44.7872H171.279L170.233 40.2269C170.121 39.7004 169.811 39.4109 169.332 39.4109C168.792 39.4109 168.403 39.7531 168.403 40.2335C168.403 40.4177 168.437 40.5757 168.509 40.8257L169.93 45.7415C170.134 46.439 170.483 46.7483 171.147 46.7483Z" fill="black"/>
<path d="M180.315 46.7351C180.94 46.7351 181.308 46.3535 181.308 45.702V43.7081L182.256 42.7144L185.086 46.1956C185.395 46.5903 185.671 46.7417 186.079 46.7417C186.625 46.7417 187.04 46.3206 187.04 45.781C187.04 45.5112 186.908 45.2282 186.612 44.8596L183.763 41.3983L186.382 38.6542C186.632 38.3909 186.731 38.1737 186.731 37.8974C186.731 37.3841 186.323 36.9827 185.796 36.9827C185.467 36.9827 185.217 37.1077 184.941 37.4104L181.367 41.3127H181.308V38.0224C181.308 37.3644 180.94 36.9827 180.315 36.9827C179.689 36.9827 179.321 37.3644 179.321 38.0224V45.702C179.321 46.3535 179.689 46.7351 180.315 46.7351Z" fill="black"/>
<path d="M188.791 38.6805C189.37 38.6805 189.817 38.2396 189.817 37.6868C189.817 37.1275 189.37 36.6931 188.791 36.6931C188.211 36.6931 187.764 37.1275 187.764 37.6868C187.764 38.2396 188.211 38.6805 188.791 38.6805ZM188.791 46.7483C189.383 46.7483 189.752 46.3732 189.752 45.7481V40.4178C189.752 39.7926 189.383 39.4109 188.791 39.4109C188.192 39.4109 187.83 39.7926 187.83 40.4178V45.7481C187.83 46.3732 188.192 46.7483 188.791 46.7483Z" fill="black"/>
<path d="M191.278 44.8069C191.278 46.0506 191.93 46.6889 193.213 46.6889H193.279C194.088 46.6889 194.641 46.3994 194.641 45.8335C194.641 45.386 194.384 45.1886 193.911 45.1359L193.786 45.1228C193.371 45.0898 193.2 44.8793 193.2 44.3791V41.0033H193.877C194.331 41.0033 194.614 40.7203 194.614 40.2795C194.614 39.8385 194.331 39.5556 193.877 39.5556H193.2V38.7725C193.2 38.1539 192.838 37.7722 192.239 37.7722C191.64 37.7722 191.278 38.1539 191.278 38.7725V39.5556H190.91C190.456 39.5556 190.166 39.832 190.166 40.2795C190.166 40.7269 190.456 41.0033 190.91 41.0033H191.278V44.8069Z" fill="black"/>
</g>
<defs>
<filter id="filter0_f_401_1098" x="8.97905" y="5.88872" width="73.6186" height="72.6596" filterUnits="userSpaceOnUse" color-interpolation-filters="sRGB">
<feFlood flood-opacity="0" result="BackgroundImageFix"/>
<feBlend mode="normal" in="SourceGraphic" in2="BackgroundImageFix" result="shape"/>
<feGaussianBlur stdDeviation="5.50193" result="effect1_foregroundBlur_401_1098"/>
</filter>
<filter id="filter1_f_401_1098" x="8.97905" y="12.4527" width="73.6186" height="72.2736" filterUnits="userSpaceOnUse" color-interpolation-filters="sRGB">
<feFlood flood-opacity="0" result="BackgroundImageFix"/>
<feBlend mode="normal" in="SourceGraphic" in2="BackgroundImageFix" result="shape"/>
<feGaussianBlur stdDeviation="5.50193" result="effect1_foregroundBlur_401_1098"/>
</filter>
<filter id="filter2_f_401_1098" x="8.97905" y="19.064" width="73.6186" height="72.2736" filterUnits="userSpaceOnUse" color-interpolation-filters="sRGB">
<feFlood flood-opacity="0" result="BackgroundImageFix"/>
<feBlend mode="normal" in="SourceGraphic" in2="BackgroundImageFix" result="shape"/>
<feGaussianBlur stdDeviation="5.50193" result="effect1_foregroundBlur_401_1098"/>
</filter>
<filter id="filter3_f_401_1098" x="92.2922" y="26.7384" width="30.7165" height="30.2463" filterUnits="userSpaceOnUse" color-interpolation-filters="sRGB">
<feFlood flood-opacity="0" result="BackgroundImageFix"/>
<feBlend mode="normal" in="SourceGraphic" in2="BackgroundImageFix" result="shape"/>
<feGaussianBlur stdDeviation="1.34953" result="effect1_foregroundBlur_401_1098"/>
</filter>
<filter id="filter4_f_401_1098" x="92.2926" y="29.9587" width="30.717" height="30.0568" filterUnits="userSpaceOnUse" color-interpolation-filters="sRGB">
<feFlood flood-opacity="0" result="BackgroundImageFix"/>
<feBlend mode="normal" in="SourceGraphic" in2="BackgroundImageFix" result="shape"/>
<feGaussianBlur stdDeviation="1.34953" result="effect1_foregroundBlur_401_1098"/>
</filter>
<filter id="filter5_f_401_1098" x="92.2926" y="33.2023" width="30.717" height="30.0568" filterUnits="userSpaceOnUse" color-interpolation-filters="sRGB">
<feFlood flood-opacity="0" result="BackgroundImageFix"/>
<feBlend mode="normal" in="SourceGraphic" in2="BackgroundImageFix" result="shape"/>
<feGaussianBlur stdDeviation="1.34953" result="effect1_foregroundBlur_401_1098"/>
</filter>
<linearGradient id="paint0_linear_401_1098" x1="45" y1="16" x2="45" y2="66" gradientUnits="userSpaceOnUse">
<stop stop-color="#174197"/>
<stop offset="1" stop-color="#011E5A"/>
</linearGradient>
<radialGradient id="paint1_radial_401_1098" cx="0" cy="0" r="1" gradientUnits="userSpaceOnUse" gradientTransform="translate(43.1178 46.2365) rotate(133.13) scale(41.8276 41.8365)">
<stop stop-color="#EF421B"/>
<stop offset="1" stop-color="#8753C8"/>
</radialGradient>
<radialGradient id="paint2_radial_401_1098" cx="0" cy="0" r="1" gradientUnits="userSpaceOnUse" gradientTransform="translate(40.6322 46.5022) rotate(-45.6856) scale(9.98282 9.96998)">
<stop stop-color="#FFF100"/>
<stop offset="1" stop-color="#FF9A00"/>
</radialGradient>
<radialGradient id="paint3_radial_401_1098" cx="0" cy="0" r="1" gradientUnits="userSpaceOnUse" gradientTransform="translate(47.3649 39.7692) rotate(133.925) scale(18.1928 18.2827)">
<stop stop-color="#05DA40"/>
<stop offset="1" stop-color="#00B1E3"/>
</radialGradient>
<linearGradient id="paint4_linear_401_1098" x1="107.264" y1="29" x2="107.264" y2="53.5283" gradientUnits="userSpaceOnUse">
<stop stop-color="#174197"/>
<stop offset="1" stop-color="#011E5A"/>
</linearGradient>
<radialGradient id="paint5_radial_401_1098" cx="0" cy="0" r="1" gradientUnits="userSpaceOnUse" gradientTransform="translate(106.341 43.8327) rotate(133.13) scale(20.5192 20.5236)">
<stop stop-color="#EF421B"/>
<stop offset="1" stop-color="#8753C8"/>
</radialGradient>
<radialGradient id="paint6_radial_401_1098" cx="0" cy="0" r="1" gradientUnits="userSpaceOnUse" gradientTransform="translate(105.122 43.963) rotate(-45.6856) scale(4.89723 4.89094)">
<stop stop-color="#FFF100"/>
<stop offset="1" stop-color="#FF9A00"/>
</radialGradient>
<radialGradient id="paint7_radial_401_1098" cx="0" cy="0" r="1" gradientUnits="userSpaceOnUse" gradientTransform="translate(108.424 40.6604) rotate(133.925) scale(8.92478 8.96887)">
<stop stop-color="#05DA40"/>
<stop offset="1" stop-color="#00B1E3"/>
</radialGradient>
<clipPath id="clip0_401_1098">
<rect width="50" height="50" fill="white" transform="translate(20 16)"/>
</clipPath>
<clipPath id="clip1_401_1098">
<rect width="100" height="24.5283" fill="white" transform="translate(95 29)"/>
</clipPath>
</defs>
</svg>
