<svg width="250" height="82" viewBox="0 0 250 82" fill="none" xmlns="http://www.w3.org/2000/svg">
<g clip-path="url(#clip0_401_1077)">
<path fill-rule="evenodd" clip-rule="evenodd" d="M32.4489 48.2538V53.449L20 41.0001L22.5993 38.4009L32.4489 48.2538ZM37.6443 53.449H32.4489L44.8979 65.898L47.4971 63.2986L37.6443 53.449ZM67.1898 43.5994L69.789 41.0001L44.8912 16.1023L42.2985 18.7083L52.1481 28.5579H46.1958L39.3207 21.696L36.7214 24.2954L40.9971 28.5711H38.0094V47.8953H57.3335V44.9074L61.6094 49.1832L64.2085 46.5838L57.3335 39.7088V33.7565L67.1898 43.5994ZM33.7469 27.2632L31.141 29.8625L33.9295 32.6511L36.5289 30.0517L33.7469 27.2632ZM55.8563 49.3726L53.2569 51.9717L56.0454 54.7603L58.6448 52.1611L55.8563 49.3726ZM28.1698 32.837L25.5705 35.4363L32.4456 42.3115V37.1128L28.1698 32.837ZM48.7919 53.459H43.5965L50.4717 60.3342L53.071 57.7349L48.7919 53.459Z" fill="#FF5656"/>
</g>
<g clip-path="url(#clip1_401_1077)">
<path fill-rule="evenodd" clip-rule="evenodd" d="M104.425 44.6471V47.3285L98 40.9032L99.3416 39.5617L104.425 44.6471ZM107.107 47.3285H104.425L110.851 53.7537L112.192 52.4121L107.107 47.3285ZM122.356 42.2448L123.698 40.9032L110.847 28.0527L109.509 29.3978L114.593 34.4814H111.52L107.972 30.9398L106.63 32.2814L108.837 34.4883H107.295V44.462H117.269V42.9199L119.476 45.1267L120.817 43.7851L117.269 40.2367V37.1646L122.356 42.2448ZM105.095 33.8132L103.75 35.1548L105.189 36.594L106.531 35.2524L105.095 33.8132ZM116.506 45.2245L115.165 46.566L116.604 48.0052L117.946 46.6637L116.506 45.2245ZM102.217 36.69L100.875 38.0316L104.424 41.5801V38.8969L102.217 36.69ZM112.86 47.3336H110.179L113.727 50.8821L115.069 49.5405L112.86 47.3336Z" fill="#FF5656"/>
<path d="M195.436 47.3129C194.571 47.3129 193.894 47.0781 193.411 46.607C192.928 46.1358 192.686 45.4813 192.686 44.652V39.5118H191.134V37.5877H192.695L192.972 35.0176H194.8V37.5877H197.187V39.5152H194.8V44.3728C194.795 44.6383 194.894 44.8954 195.076 45.0889C195.169 45.1878 195.282 45.2655 195.408 45.3166C195.534 45.3677 195.669 45.3912 195.804 45.3854H197.187V47.3129H195.436Z" fill="black"/>
<path d="M186.099 47.4945C184.946 47.4945 184.018 47.2192 183.315 46.6687C182.617 46.123 182.139 45.3445 181.967 44.4755H184.261C184.361 44.8096 184.584 45.0934 184.885 45.2705C185.253 45.4833 185.674 45.5873 186.099 45.5704C187.323 45.5704 187.938 45.2277 187.938 44.5663C187.938 44.2362 187.745 43.9843 187.361 43.8108C186.913 43.6188 186.445 43.479 185.966 43.3944C185.421 43.2899 184.874 43.1545 184.319 42.99C183.767 42.8268 183.277 42.5008 182.913 42.0545C182.53 41.5975 182.338 40.9967 182.337 40.252C182.331 39.8608 182.415 39.4732 182.583 39.1199C182.752 38.7665 182.999 38.4568 183.307 38.2147C183.955 37.6733 184.855 37.4031 186.005 37.4043C187.156 37.4054 188.069 37.6624 188.747 38.1753C189.42 38.6845 189.883 39.4235 190.047 40.252H187.749C187.504 39.6438 186.927 39.3337 186.012 39.3319C185.03 39.3319 184.54 39.6386 184.54 40.252C184.542 40.3926 184.581 40.5302 184.654 40.6506C184.726 40.7712 184.83 40.8701 184.953 40.9373C185.268 41.1272 185.617 41.2518 185.981 41.304C186.436 41.3815 186.887 41.4856 187.33 41.6159C187.789 41.7473 188.24 41.9086 188.678 42.099C189.106 42.2924 189.467 42.6069 189.718 43.0038C190.009 43.4698 190.154 44.0121 190.135 44.5612C190.144 44.97 190.055 45.3751 189.876 45.7428C189.698 46.1105 189.434 46.4303 189.106 46.6756C188.423 47.2204 187.421 47.4933 186.099 47.4945Z" fill="black"/>
<path d="M179.257 38.3775C178.55 37.7412 177.56 37.4231 176.286 37.4231C175.271 37.4231 174.419 37.6967 173.731 38.2438C173.053 38.7774 172.574 39.524 172.371 40.3633H174.54C174.651 40.0454 174.861 39.7719 175.14 39.5836C175.479 39.3566 175.881 39.2432 176.288 39.2598C176.884 39.2598 177.354 39.414 177.698 39.719C177.873 39.8817 178.01 40.0808 178.098 40.3024C178.187 40.524 178.226 40.7623 178.212 41.0006V41.465H175.728C174.585 41.465 173.688 41.7535 173.036 42.3303C172.724 42.5964 172.475 42.9284 172.307 43.3023C172.138 43.6761 172.055 44.0826 172.063 44.4925C172.051 44.898 172.126 45.301 172.283 45.6751C172.439 46.0492 172.674 46.3855 172.971 46.6617C173.574 47.233 174.374 47.5184 175.37 47.5184C175.987 47.5325 176.597 47.3906 177.145 47.1054C177.585 46.8903 177.957 46.5576 178.221 46.1442H178.31L178.49 47.3436H180.325V41.004C180.321 39.8916 179.965 39.016 179.257 38.3775ZM178.214 43.5724C178.227 43.8609 178.176 44.1487 178.064 44.4152C177.953 44.6818 177.785 44.9205 177.571 45.1145C177.145 45.4926 176.564 45.6823 175.827 45.6834C175.291 45.6834 174.88 45.5599 174.597 45.3202C174.459 45.2085 174.349 45.067 174.275 44.9063C174.201 44.7456 174.164 44.5702 174.168 44.3932C174.168 43.5365 174.729 43.1116 175.827 43.1116H178.214V43.5724Z" fill="black"/>
<path d="M166.558 47.515C165.166 47.515 164.053 47.0684 163.22 46.1751C162.388 45.2819 161.971 44.046 161.97 42.4673C161.97 40.8921 162.385 39.6574 163.215 38.763C164.046 37.8686 165.16 37.4219 166.558 37.4231C167.694 37.4231 168.635 37.7258 169.382 38.3312C170.115 38.916 170.637 39.7239 170.869 40.6322H168.765C168.559 40.2298 168.242 39.895 167.851 39.6678C167.46 39.4406 167.012 39.3305 166.56 39.3506C166.217 39.3384 165.876 39.4054 165.563 39.5466C165.251 39.6877 164.975 39.8992 164.757 40.1645C164.301 40.7093 164.072 41.4769 164.072 42.4673C164.072 43.4577 164.301 44.2252 164.757 44.7701C164.975 45.0361 165.25 45.2482 165.563 45.3901C165.876 45.5317 166.217 45.5994 166.56 45.5874C167.012 45.6068 167.46 45.4962 167.85 45.2687C168.241 45.0412 168.559 44.7065 168.765 44.304H170.869C170.637 45.2133 170.115 46.0219 169.382 46.6068C168.636 47.2123 167.695 47.515 166.558 47.515Z" fill="black"/>
<path d="M154.145 51.0088L155.613 47.3354L151.671 37.6101H153.965L156.626 44.4928H156.715L159.38 37.6101H161.674L156.349 51.0088H154.145Z" fill="black"/>
<path d="M149.689 38.3775C148.981 37.7412 147.991 37.4231 146.718 37.4231C145.702 37.4231 144.848 37.6955 144.163 38.2438C143.484 38.7769 143.004 39.5238 142.802 40.3633H144.972C145.081 40.045 145.292 39.7711 145.571 39.5836C145.91 39.3562 146.312 39.2427 146.719 39.2598C147.316 39.2598 147.786 39.413 148.129 39.719C148.304 39.8813 148.441 40.0805 148.53 40.3021C148.619 40.5238 148.658 40.7623 148.643 41.0006V41.465H146.159C145.017 41.465 144.119 41.7535 143.467 42.3303C143.155 42.5962 142.906 42.9281 142.738 43.3021C142.569 43.676 142.486 44.0826 142.494 44.4925C142.482 44.8978 142.556 45.3007 142.712 45.6749C142.868 46.049 143.102 46.3854 143.399 46.6617C144.002 47.233 144.801 47.5184 145.797 47.5184C146.414 47.5325 147.025 47.3906 147.572 47.1054C148.013 46.8903 148.385 46.5576 148.649 46.1442H148.738L148.918 47.3436H150.749V41.004C150.749 39.8916 150.396 39.016 149.689 38.3775ZM148.642 43.5724C148.655 43.8609 148.604 44.1488 148.493 44.4153C148.382 44.6819 148.213 44.9207 147.999 45.1145C147.574 45.4938 146.993 45.6834 146.255 45.6834C145.719 45.6834 145.306 45.5617 145.025 45.3202C144.888 45.2084 144.778 45.0668 144.703 44.9062C144.629 44.7455 144.592 44.5701 144.596 44.3932C144.602 43.5398 145.155 43.1127 146.255 43.1116H148.642V43.5724Z" fill="black"/>
<path d="M137.785 42.4676C138.112 42.3802 138.428 42.256 138.728 42.0975C139.076 41.9063 139.403 41.6764 139.701 41.4122C140.061 41.0808 140.338 40.6701 140.511 40.2128C140.72 39.6755 140.823 39.103 140.814 38.5268C140.814 37.3034 140.424 36.3233 139.642 35.5866C138.861 34.8498 137.845 34.4826 136.593 34.4849H131.269V47.3354H133.563V42.567H135.304L138.611 47.3354H141.181L137.785 42.4676ZM133.563 40.5349V36.5084H136.406C137.057 36.5084 137.571 36.6849 137.948 37.0378C138.325 37.3908 138.515 37.8854 138.517 38.5216C138.517 39.1579 138.326 39.6537 137.945 40.0088C137.525 40.3741 136.98 40.5627 136.425 40.5349H133.563Z" fill="black"/>
</g>
<defs>
<clipPath id="clip0_401_1077">
<rect width="50" height="50" fill="white" transform="translate(20 16)"/>
</clipPath>
<clipPath id="clip1_401_1077">
<rect width="100" height="25.8065" fill="white" transform="translate(98 28)"/>
</clipPath>
</defs>
</svg>
