<svg width="250" height="82" viewBox="0 0 250 82" fill="none" xmlns="http://www.w3.org/2000/svg">
<g clipPath="url(#clip0_401_692)">
<path d="M45 66C58.8071 66 70 54.8071 70 41C70 27.1929 58.8071 16 45 16C31.1929 16 20 27.1929 20 41C20 54.8071 31.1929 66 45 66Z" fill="#4581FE"/>
<mask id="mask0_401_692" style="mask-type:alpha" maskUnits="userSpaceOnUse" x="20" y="16" width="50" height="50">
<path d="M45 66C58.8071 66 70 54.8071 70 41C70 27.1929 58.8071 16 45 16C31.1929 16 20 27.1929 20 41C20 54.8071 31.1929 66 45 66Z" fill="#D9D9D9"/>
</mask>
<g mask="url(#mask0_401_692)">
<g filter="url(#filter0_f_401_692)">
<path d="M54.9572 42.9494C55.8894 37.0471 56.5349 23.5173 59.9363 21.244C62.5383 21.1379 71.0223 22.7467 71.3345 22.734C71.7249 22.718 79.7855 28.6445 79.8333 29.8155C79.8715 30.7522 78.2451 41.9996 77.4271 47.5063L81.616 73.529L56.6928 66.3355C55.761 65.8522 47.4912 66.9454 49.5877 64.6705C52.2085 61.827 53.8536 49.9373 54.9572 42.9494Z" fill="#FF3AF3"/>
</g>
<g filter="url(#filter1_f_401_692)">
<path d="M54.9572 42.9494C55.8894 37.0471 56.5349 23.5173 59.9363 21.244C62.5383 21.1379 71.0223 22.7467 71.3345 22.734C71.7249 22.718 79.7855 28.6445 79.8333 29.8155C79.8715 30.7522 78.2451 41.9996 77.4271 47.5063L81.616 73.529L56.6928 66.3355C55.761 65.8522 47.4912 66.9454 49.5877 64.6705C52.2085 61.827 53.8536 49.9373 54.9572 42.9494Z" fill="#FF3AF3"/>
</g>
<g filter="url(#filter2_f_401_692)">
<path d="M39.1405 26.547C40.078 21.8595 49.5571 11.573 50.8592 9.7501C48.3956 8.86317 37.0078 16.2754 33.6718 31.6252C30.1318 47.9132 25.5989 44.7762 22.7343 41.0002C18.828 36.1824 12.6561 29.4377 19.2186 41.0002C27.4218 55.4533 29.7655 50.3751 32.4998 49.9845C35.2342 49.5938 37.9686 32.4063 39.1405 26.547Z" fill="#39FEC4"/>
</g>
<g filter="url(#filter3_f_401_692)">
<path d="M39.1405 26.547C40.078 21.8595 49.5571 11.573 50.8592 9.7501C48.3956 8.86317 37.0078 16.2754 33.6718 31.6252C30.1318 47.9132 25.5989 44.7762 22.7343 41.0002C18.828 36.1824 12.6561 29.4377 19.2186 41.0002C27.4218 55.4533 29.7655 50.3751 32.4998 49.9845C35.2342 49.5938 37.9686 32.4063 39.1405 26.547Z" fill="#39FEC4"/>
</g>
<g filter="url(#filter4_f_401_692)">
<path d="M28.5936 39.4375C36.1522 20.7773 40.3337 15.8916 44.6092 16.3906C39.1405 15.2188 31.3279 24.9844 27.8122 31.625C24.9997 36.9375 22.4738 35.4011 21.5623 33.9687C19.2186 31.625 15.6248 28.6562 19.9998 35.5312C24.3748 42.4062 27.5519 41 28.5936 39.4375Z" fill="#FB44F4"/>
</g>
<g filter="url(#filter5_f_401_692)">
<path d="M28.5936 39.4375C36.1522 20.7773 40.3337 15.8916 44.6092 16.3906C39.1405 15.2188 31.3279 24.9844 27.8122 31.625C24.9997 36.9375 22.4738 35.4011 21.5623 33.9687C19.2186 31.625 15.6248 28.6562 19.9998 35.5312C24.3748 42.4062 27.5519 41 28.5936 39.4375Z" fill="#FB44F4"/>
</g>
<g filter="url(#filter6_f_401_692)">
<path d="M28.5936 39.4375C36.1522 20.7773 40.3337 15.8916 44.6092 16.3906C39.1405 15.2188 31.3279 24.9844 27.8122 31.625C24.9997 36.9375 22.4738 35.4011 21.5623 33.9687C19.2186 31.625 15.6248 28.6562 19.9998 35.5312C24.3748 42.4062 27.5519 41 28.5936 39.4375Z" fill="#FB44F4"/>
</g>
<g filter="url(#filter7_f_401_692)">
<path d="M28.5936 39.4375C36.1522 20.7773 40.3337 15.8916 44.6092 16.3906C39.1405 15.2188 31.3279 24.9844 27.8122 31.625C24.9997 36.9375 22.4738 35.4011 21.5623 33.9687C19.2186 31.625 15.6248 28.6562 19.9998 35.5312C24.3748 42.4062 27.5519 41 28.5936 39.4375Z" fill="#FB44F4"/>
</g>
<g filter="url(#filter8_f_401_692)">
<path d="M24.8927 34.383C27.9727 28.365 34.4037 19.1289 37.2342 15.2631C37.6072 15.0889 37.9564 14.7078 36.3685 14.5766C34.3834 14.4126 14.7731 28.4735 19.1912 32.682C22.7257 36.0488 24.4649 35.2189 24.8927 34.383Z" fill="#FFC21E"/>
</g>
<g filter="url(#filter9_f_401_692)">
<path d="M24.8927 34.383C27.9727 28.365 34.4037 19.1289 37.2342 15.2631C37.6072 15.0889 37.9564 14.7078 36.3685 14.5766C34.3834 14.4126 14.7731 28.4735 19.1912 32.682C22.7257 36.0488 24.4649 35.2189 24.8927 34.383Z" fill="#FFC21E"/>
</g>
<g filter="url(#filter10_f_401_692)">
<path d="M24.8927 34.383C27.9727 28.365 34.4037 19.1289 37.2342 15.2631C37.6072 15.0889 37.9564 14.7078 36.3685 14.5766C34.3834 14.4126 14.7731 28.4735 19.1912 32.682C22.7257 36.0488 24.4649 35.2189 24.8927 34.383Z" fill="#FFC21E"/>
</g>
<g filter="url(#filter11_f_401_692)">
<path d="M24.8927 34.383C27.9727 28.365 34.4037 19.1289 37.2342 15.2631C37.6072 15.0889 37.9564 14.7078 36.3685 14.5766C34.3834 14.4126 14.7731 28.4735 19.1912 32.682C22.7257 36.0488 24.4649 35.2189 24.8927 34.383Z" fill="#FFC21E"/>
</g>
<g filter="url(#filter12_f_401_692)">
<path d="M24.8927 34.383C27.9727 28.365 34.4037 19.1289 37.2342 15.2631C37.6072 15.0889 37.9564 14.7078 36.3685 14.5766C34.3834 14.4126 14.7731 28.4735 19.1912 32.682C22.7257 36.0488 24.4649 35.2189 24.8927 34.383Z" fill="#FFC21E"/>
</g>
<g filter="url(#filter13_f_401_692)">
<path d="M24.8927 34.383C27.9727 28.365 34.4037 19.1289 37.2342 15.2631C37.6072 15.0889 37.9564 14.7078 36.3685 14.5766C34.3834 14.4126 14.7731 28.4735 19.1912 32.682C22.7257 36.0488 24.4649 35.2189 24.8927 34.383Z" fill="#FFC21E"/>
</g>
<g filter="url(#filter14_f_401_692)">
<path d="M24.8927 34.383C27.9727 28.365 34.4037 19.1289 37.2342 15.2631C37.6072 15.0889 37.9564 14.7078 36.3685 14.5766C34.3834 14.4126 14.7731 28.4735 19.1912 32.682C22.7257 36.0488 24.4649 35.2189 24.8927 34.383Z" fill="#FFC21E"/>
</g>
<g filter="url(#filter15_f_401_692)">
<path d="M24.8927 34.383C27.9727 28.365 34.4037 19.1289 37.2342 15.2631C37.6072 15.0889 37.9564 14.7078 36.3685 14.5766C34.3834 14.4126 14.7731 28.4735 19.1912 32.682C22.7257 36.0488 24.4649 35.2189 24.8927 34.383Z" fill="#FFC21E"/>
</g>
</g>
</g>
<g clipPath="url(#clip1_401_692)">
<path d="M103.311 56.622C111.767 56.622 118.622 49.767 118.622 41.311C118.622 32.855 111.767 26 103.311 26C94.855 26 88 32.855 88 41.311C88 49.767 94.855 56.622 103.311 56.622Z" fill="#4581FE"/>
<mask id="mask1_401_692" style="mask-type:alpha" maskUnits="userSpaceOnUse" x="88" y="26" width="31" height="31">
<path d="M103.311 56.622C111.767 56.622 118.622 49.767 118.622 41.311C118.622 32.855 111.767 26 103.311 26C94.855 26 88 32.855 88 41.311C88 49.767 94.855 56.622 103.311 56.622Z" fill="#D9D9D9"/>
</mask>
<g mask="url(#mask1_401_692)">
<g filter="url(#filter16_f_401_692)">
<path d="M109.409 42.505C109.98 38.8902 110.376 30.604 112.459 29.2118C114.052 29.1468 119.248 30.1321 119.439 30.1243C119.678 30.1146 124.615 33.7442 124.644 34.4613C124.668 35.035 123.672 41.9234 123.171 45.2959L125.736 61.2333L110.472 56.8277C109.902 56.5317 104.837 57.2012 106.121 55.8079C107.726 54.0665 108.733 46.7847 109.409 42.505Z" fill="#FF3AF3"/>
</g>
<g filter="url(#filter17_f_401_692)">
<path d="M109.409 42.505C109.98 38.8902 110.376 30.604 112.459 29.2118C114.052 29.1468 119.248 30.1321 119.439 30.1243C119.678 30.1146 124.615 33.7442 124.644 34.4613C124.668 35.035 123.672 41.9234 123.171 45.2959L125.736 61.2333L110.472 56.8277C109.902 56.5317 104.837 57.2012 106.121 55.8079C107.726 54.0665 108.733 46.7847 109.409 42.505Z" fill="#FF3AF3"/>
</g>
<g filter="url(#filter18_f_401_692)">
<path d="M99.7224 32.4596C100.297 29.5887 106.102 23.2889 106.899 22.1725C105.391 21.6293 98.4163 26.1689 96.3732 35.5697C94.2051 45.5451 91.429 43.6239 89.6746 41.3113C87.2823 38.3607 83.5024 34.2299 87.5215 41.3113C92.5454 50.163 93.9808 47.0529 95.6554 46.8136C97.3301 46.5744 99.0047 36.0481 99.7224 32.4596Z" fill="#39FEC4"/>
</g>
<g filter="url(#filter19_f_401_692)">
<path d="M99.7224 32.4596C100.297 29.5887 106.102 23.2889 106.899 22.1725C105.391 21.6293 98.4163 26.1689 96.3732 35.5697C94.2051 45.5451 91.429 43.6239 89.6746 41.3113C87.2823 38.3607 83.5024 34.2299 87.5215 41.3113C92.5454 50.163 93.9808 47.0529 95.6554 46.8136C97.3301 46.5744 99.0047 36.0481 99.7224 32.4596Z" fill="#39FEC4"/>
</g>
<g filter="url(#filter20_f_401_692)">
<path d="M93.2629 40.3543C97.8921 28.9261 100.453 25.9339 103.072 26.2395C99.7223 25.5218 94.9375 31.5026 92.7844 35.5696C91.0619 38.8232 89.5149 37.8823 88.9567 37.005C87.5213 35.5696 85.3203 33.7514 87.9998 37.962C90.6792 42.1725 92.625 41.3113 93.2629 40.3543Z" fill="#FB44F4"/>
</g>
<g filter="url(#filter21_f_401_692)">
<path d="M93.2629 40.3543C97.8921 28.9261 100.453 25.9339 103.072 26.2395C99.7223 25.5218 94.9375 31.5026 92.7844 35.5696C91.0619 38.8232 89.5149 37.8823 88.9567 37.005C87.5213 35.5696 85.3203 33.7514 87.9998 37.962C90.6792 42.1725 92.625 41.3113 93.2629 40.3543Z" fill="#FB44F4"/>
</g>
<g filter="url(#filter22_f_401_692)">
<path d="M93.2629 40.3543C97.8921 28.9261 100.453 25.9339 103.072 26.2395C99.7223 25.5218 94.9375 31.5026 92.7844 35.5696C91.0619 38.8232 89.5149 37.8823 88.9567 37.005C87.5213 35.5696 85.3203 33.7514 87.9998 37.962C90.6792 42.1725 92.625 41.3113 93.2629 40.3543Z" fill="#FB44F4"/>
</g>
<g filter="url(#filter23_f_401_692)">
<path d="M93.2629 40.3543C97.8921 28.9261 100.453 25.9339 103.072 26.2395C99.7223 25.5218 94.9375 31.5026 92.7844 35.5696C91.0619 38.8232 89.5149 37.8823 88.9567 37.005C87.5213 35.5696 85.3203 33.7514 87.9998 37.962C90.6792 42.1725 92.625 41.3113 93.2629 40.3543Z" fill="#FB44F4"/>
</g>
<g filter="url(#filter24_f_401_692)">
<path d="M90.9965 37.2588C92.8828 33.5731 96.8214 27.9166 98.5549 25.549C98.7834 25.4423 98.9973 25.2089 98.0247 25.1286C96.809 25.0281 84.7988 33.6396 87.5047 36.217C89.6694 38.279 90.7345 37.7707 90.9965 37.2588Z" fill="#FFC21E"/>
</g>
<g filter="url(#filter25_f_401_692)">
<path d="M90.9965 37.2588C92.8828 33.5731 96.8214 27.9166 98.5549 25.549C98.7834 25.4423 98.9973 25.2089 98.0247 25.1286C96.809 25.0281 84.7988 33.6396 87.5047 36.217C89.6694 38.279 90.7345 37.7707 90.9965 37.2588Z" fill="#FFC21E"/>
</g>
<g filter="url(#filter26_f_401_692)">
<path d="M90.9965 37.2588C92.8828 33.5731 96.8214 27.9166 98.5549 25.549C98.7834 25.4423 98.9973 25.2089 98.0247 25.1286C96.809 25.0281 84.7988 33.6396 87.5047 36.217C89.6694 38.279 90.7345 37.7707 90.9965 37.2588Z" fill="#FFC21E"/>
</g>
<g filter="url(#filter27_f_401_692)">
<path d="M90.9965 37.2588C92.8828 33.5731 96.8214 27.9166 98.5549 25.549C98.7834 25.4423 98.9973 25.2089 98.0247 25.1286C96.809 25.0281 84.7988 33.6396 87.5047 36.217C89.6694 38.279 90.7345 37.7707 90.9965 37.2588Z" fill="#FFC21E"/>
</g>
<g filter="url(#filter28_f_401_692)">
<path d="M90.9965 37.2588C92.8828 33.5731 96.8214 27.9166 98.5549 25.549C98.7834 25.4423 98.9973 25.2089 98.0247 25.1286C96.809 25.0281 84.7988 33.6396 87.5047 36.217C89.6694 38.279 90.7345 37.7707 90.9965 37.2588Z" fill="#FFC21E"/>
</g>
<g filter="url(#filter29_f_401_692)">
<path d="M90.9965 37.2588C92.8828 33.5731 96.8214 27.9166 98.5549 25.549C98.7834 25.4423 98.9973 25.2089 98.0247 25.1286C96.809 25.0281 84.7988 33.6396 87.5047 36.217C89.6694 38.279 90.7345 37.7707 90.9965 37.2588Z" fill="#FFC21E"/>
</g>
<g filter="url(#filter30_f_401_692)">
<path d="M90.9965 37.2588C92.8828 33.5731 96.8214 27.9166 98.5549 25.549C98.7834 25.4423 98.9973 25.2089 98.0247 25.1286C96.809 25.0281 84.7988 33.6396 87.5047 36.217C89.6694 38.279 90.7345 37.7707 90.9965 37.2588Z" fill="#FFC21E"/>
</g>
<g filter="url(#filter31_f_401_692)">
<path d="M90.9965 37.2588C92.8828 33.5731 96.8214 27.9166 98.5549 25.549C98.7834 25.4423 98.9973 25.2089 98.0247 25.1286C96.809 25.0281 84.7988 33.6396 87.5047 36.217C89.6694 38.279 90.7345 37.7707 90.9965 37.2588Z" fill="#FFC21E"/>
</g>
</g>
<path fillRule="evenodd" clipRule="evenodd" d="M160.118 32.2944C159.41 32.5057 158.944 33.1562 158.944 33.9312C158.944 34.5001 159.104 34.8919 159.485 35.2596C160.232 35.98 161.433 35.8307 162.038 34.9424C162.947 33.6071 161.661 31.8339 160.118 32.2944ZM153.405 32.4471C153.372 32.4804 153.344 36.3055 153.344 40.9475V49.3873H154.675H156.006V40.8868V32.3864H154.736C154.038 32.3864 153.439 32.4137 153.405 32.4471ZM130.793 33.4686C128.841 33.9439 127.717 35.098 127.454 36.8979C127.199 38.6376 127.814 40.1141 129.235 41.1713C129.976 41.7228 130.754 42.1032 132.476 42.7543C134.133 43.3809 134.748 43.708 135.198 44.201C135.562 44.5999 135.67 44.9913 135.604 45.6717C135.532 46.4101 135.038 46.8969 134.079 47.1729C133.432 47.3593 131.657 47.3014 131.018 47.0729C130.143 46.7603 129.489 45.9363 129.329 44.9459L129.268 44.5688H128.012H126.756L126.823 45.1927C126.965 46.5059 127.364 47.3724 128.183 48.1463C128.832 48.7596 129.607 49.1533 130.647 49.3987C131.342 49.5626 131.651 49.5822 132.963 49.546C134.581 49.5012 135.214 49.3692 136.215 48.8677C136.832 48.5586 137.56 47.8126 137.862 47.1803C138.38 46.0946 138.403 44.4215 137.915 43.4176C137.63 42.8324 136.91 42.1325 136.176 41.7282C135.848 41.5471 134.754 41.0663 133.744 40.6596C130.728 39.4452 130.16 39.0188 129.981 37.8326C129.851 36.9781 130.251 36.1998 131.008 35.8346C131.386 35.6518 131.591 35.6212 132.46 35.6179C133.369 35.6142 133.518 35.6375 133.928 35.8462C134.477 36.1255 134.849 36.6178 135.005 37.273L135.118 37.7503H136.382C137.548 37.7503 137.645 37.7374 137.645 37.583C137.645 37.2779 137.282 36.0013 137.055 35.5113C136.577 34.4777 135.523 33.6915 134.26 33.4263C133.406 33.2471 131.613 33.2689 130.793 33.4686ZM145.751 37.3062C144.65 37.4388 143.719 38.0628 143.294 38.9538L143.088 39.3844L143.03 38.7719C142.997 38.4351 142.971 38.0061 142.971 37.8185L142.97 37.4776H141.685H140.399V45.6143V53.7511H141.744H143.088L143.031 50.8646C143 49.277 142.95 47.8553 142.92 47.7053C142.878 47.4925 142.919 47.5324 143.104 47.8872C143.727 49.0777 145.078 49.6647 146.748 49.4698C148.518 49.2631 150.09 47.6338 150.654 45.4227C150.898 44.4656 150.874 41.864 150.612 40.9216C150.058 38.9271 148.751 37.5195 147.286 37.3407C146.477 37.242 146.314 37.2383 145.751 37.3062ZM170.325 37.3224C169.095 37.5993 168.293 38.3965 167.793 39.8413L167.619 40.3414L167.544 39.0231C167.502 38.2981 167.452 37.6538 167.432 37.5912C167.406 37.5086 167.094 37.4776 166.291 37.4776H165.186V43.4324V49.3873H166.518H167.849V45.1726V40.9579L168.207 40.5556C168.943 39.7267 169.989 39.4054 171.002 39.6969C171.423 39.8182 171.576 39.9182 171.792 40.2126C171.939 40.4135 172.103 40.7824 172.157 41.0323C172.219 41.3162 172.255 42.9698 172.255 45.437V49.3873H173.593H174.93L174.894 44.8188C174.855 39.9157 174.851 39.8653 174.355 38.8836C174.07 38.3166 173.378 37.7141 172.742 37.4786C172.103 37.2418 171 37.1706 170.325 37.3224ZM182.031 37.2893C179.755 37.6468 178.132 39.1186 177.512 41.3869C177.283 42.2248 177.288 44.7273 177.521 45.5689C178.055 47.5038 179.237 48.7489 181.069 49.3088C181.623 49.4784 181.971 49.5196 182.859 49.5213C184.083 49.5237 184.681 49.4097 185.542 49.0095C186.6 48.5176 187.469 47.4033 187.641 46.3189L187.702 45.9325H186.405C185.377 45.9325 185.108 45.958 185.108 46.0552C185.108 46.3361 184.555 46.9201 184.064 47.1579C183.649 47.3592 183.43 47.4036 182.842 47.406C181.168 47.4129 180.2 46.4045 179.923 44.3652L179.864 43.9343L183.932 43.9106L188 43.887L187.992 42.6596C187.987 41.8243 187.935 41.2436 187.83 40.8414C187.357 39.0349 186.229 37.8705 184.533 37.4395C183.863 37.2692 182.63 37.1952 182.031 37.2893ZM159.311 43.4324V49.3873H160.597H161.882V47.5384C161.882 46.5216 161.909 43.8419 161.942 41.5836L162.003 37.4776H160.657H159.311V43.4324ZM183.961 39.5971C184.714 39.8109 185.263 40.612 185.422 41.7278L185.477 42.1142L183.204 42.1147C181.93 42.115 180.782 42.1562 180.591 42.2087C180.404 42.2602 180.163 42.4128 180.056 42.5476L179.861 42.793L179.91 42.5673C179.937 42.4431 179.999 42.1354 180.049 41.8837C180.442 39.9072 181.949 39.0259 183.961 39.5971ZM146.508 39.6929C147.681 40.2336 148.294 41.7958 148.172 43.9324C148.085 45.4473 147.788 46.2621 147.098 46.8794C146.517 47.3993 146.171 47.5159 145.219 47.5132C144.56 47.5113 144.295 47.4684 143.908 47.3003C143.037 46.9218 143.062 47.0288 143.062 43.6088V40.6313L143.297 40.3263C143.713 39.7864 144.439 39.4968 145.403 39.4864C145.895 39.481 146.154 39.5294 146.508 39.6929Z" fill="black"/>
</g>
<defs>
<filter id="filter0_f_401_692" x="37.2485" y="9.23901" width="56.3672" height="76.29" filterUnits="userSpaceOnUse" colorInterpolationFilters="sRGB">
<feFlood floodOpacity="0" result="BackgroundImageFix"/>
<feBlend mode="normal" in="SourceGraphic" in2="BackgroundImageFix" result="shape"/>
<feGaussianBlur stdDeviation="6" result="effect1_foregroundBlur_401_692"/>
</filter>
<filter id="filter1_f_401_692" x="37.2485" y="9.23901" width="56.3672" height="76.29" filterUnits="userSpaceOnUse" colorInterpolationFilters="sRGB">
<feFlood floodOpacity="0" result="BackgroundImageFix"/>
<feBlend mode="normal" in="SourceGraphic" in2="BackgroundImageFix" result="shape"/>
<feGaussianBlur stdDeviation="6" result="effect1_foregroundBlur_401_692"/>
</filter>
<filter id="filter2_f_401_692" x="9.33887" y="2.67896" width="48.5205" height="55.4844" filterUnits="userSpaceOnUse" colorInterpolationFilters="sRGB">
<feFlood floodOpacity="0" result="BackgroundImageFix"/>
<feBlend mode="normal" in="SourceGraphic" in2="BackgroundImageFix" result="shape"/>
<feGaussianBlur stdDeviation="3.5" result="effect1_foregroundBlur_401_692"/>
</filter>
<filter id="filter3_f_401_692" x="9.33887" y="2.67896" width="48.5205" height="55.4844" filterUnits="userSpaceOnUse" colorInterpolationFilters="sRGB">
<feFlood floodOpacity="0" result="BackgroundImageFix"/>
<feBlend mode="normal" in="SourceGraphic" in2="BackgroundImageFix" result="shape"/>
<feGaussianBlur stdDeviation="3.5" result="effect1_foregroundBlur_401_692"/>
</filter>
<filter id="filter4_f_401_692" x="12.9385" y="11.2942" width="36.6709" height="34.4275" filterUnits="userSpaceOnUse" colorInterpolationFilters="sRGB">
<feFlood floodOpacity="0" result="BackgroundImageFix"/>
<feBlend mode="normal" in="SourceGraphic" in2="BackgroundImageFix" result="shape"/>
<feGaussianBlur stdDeviation="2.5" result="effect1_foregroundBlur_401_692"/>
</filter>
<filter id="filter5_f_401_692" x="12.9385" y="11.2942" width="36.6709" height="34.4275" filterUnits="userSpaceOnUse" colorInterpolationFilters="sRGB">
<feFlood floodOpacity="0" result="BackgroundImageFix"/>
<feBlend mode="normal" in="SourceGraphic" in2="BackgroundImageFix" result="shape"/>
<feGaussianBlur stdDeviation="2.5" result="effect1_foregroundBlur_401_692"/>
</filter>
<filter id="filter6_f_401_692" x="12.9385" y="11.2942" width="36.6709" height="34.4275" filterUnits="userSpaceOnUse" colorInterpolationFilters="sRGB">
<feFlood floodOpacity="0" result="BackgroundImageFix"/>
<feBlend mode="normal" in="SourceGraphic" in2="BackgroundImageFix" result="shape"/>
<feGaussianBlur stdDeviation="2.5" result="effect1_foregroundBlur_401_692"/>
</filter>
<filter id="filter7_f_401_692" x="12.9385" y="11.2942" width="36.6709" height="34.4275" filterUnits="userSpaceOnUse" colorInterpolationFilters="sRGB">
<feFlood floodOpacity="0" result="BackgroundImageFix"/>
<feBlend mode="normal" in="SourceGraphic" in2="BackgroundImageFix" result="shape"/>
<feGaussianBlur stdDeviation="2.5" result="effect1_foregroundBlur_401_692"/>
</filter>
<filter id="filter8_f_401_692" x="13.5449" y="9.5752" width="29.0054" height="30.5508" filterUnits="userSpaceOnUse" colorInterpolationFilters="sRGB">
<feFlood floodOpacity="0" result="BackgroundImageFix"/>
<feBlend mode="normal" in="SourceGraphic" in2="BackgroundImageFix" result="shape"/>
<feGaussianBlur stdDeviation="2.5" result="effect1_foregroundBlur_401_692"/>
</filter>
<filter id="filter9_f_401_692" x="13.5449" y="9.5752" width="29.0054" height="30.5508" filterUnits="userSpaceOnUse" colorInterpolationFilters="sRGB">
<feFlood floodOpacity="0" result="BackgroundImageFix"/>
<feBlend mode="normal" in="SourceGraphic" in2="BackgroundImageFix" result="shape"/>
<feGaussianBlur stdDeviation="2.5" result="effect1_foregroundBlur_401_692"/>
</filter>
<filter id="filter10_f_401_692" x="13.5449" y="9.5752" width="29.0054" height="30.5508" filterUnits="userSpaceOnUse" colorInterpolationFilters="sRGB">
<feFlood floodOpacity="0" result="BackgroundImageFix"/>
<feBlend mode="normal" in="SourceGraphic" in2="BackgroundImageFix" result="shape"/>
<feGaussianBlur stdDeviation="2.5" result="effect1_foregroundBlur_401_692"/>
</filter>
<filter id="filter11_f_401_692" x="13.5449" y="9.5752" width="29.0054" height="30.5508" filterUnits="userSpaceOnUse" colorInterpolationFilters="sRGB">
<feFlood floodOpacity="0" result="BackgroundImageFix"/>
<feBlend mode="normal" in="SourceGraphic" in2="BackgroundImageFix" result="shape"/>
<feGaussianBlur stdDeviation="2.5" result="effect1_foregroundBlur_401_692"/>
</filter>
<filter id="filter12_f_401_692" x="13.5449" y="9.5752" width="29.0054" height="30.5508" filterUnits="userSpaceOnUse" colorInterpolationFilters="sRGB">
<feFlood floodOpacity="0" result="BackgroundImageFix"/>
<feBlend mode="normal" in="SourceGraphic" in2="BackgroundImageFix" result="shape"/>
<feGaussianBlur stdDeviation="2.5" result="effect1_foregroundBlur_401_692"/>
</filter>
<filter id="filter13_f_401_692" x="13.5449" y="9.5752" width="29.0054" height="30.5508" filterUnits="userSpaceOnUse" colorInterpolationFilters="sRGB">
<feFlood floodOpacity="0" result="BackgroundImageFix"/>
<feBlend mode="normal" in="SourceGraphic" in2="BackgroundImageFix" result="shape"/>
<feGaussianBlur stdDeviation="2.5" result="effect1_foregroundBlur_401_692"/>
</filter>
<filter id="filter14_f_401_692" x="13.5449" y="9.5752" width="29.0054" height="30.5508" filterUnits="userSpaceOnUse" colorInterpolationFilters="sRGB">
<feFlood floodOpacity="0" result="BackgroundImageFix"/>
<feBlend mode="normal" in="SourceGraphic" in2="BackgroundImageFix" result="shape"/>
<feGaussianBlur stdDeviation="2.5" result="effect1_foregroundBlur_401_692"/>
</filter>
<filter id="filter15_f_401_692" x="13.5449" y="9.5752" width="29.0054" height="30.5508" filterUnits="userSpaceOnUse" colorInterpolationFilters="sRGB">
<feFlood floodOpacity="0" result="BackgroundImageFix"/>
<feBlend mode="normal" in="SourceGraphic" in2="BackgroundImageFix" result="shape"/>
<feGaussianBlur stdDeviation="2.5" result="effect1_foregroundBlur_401_692"/>
</filter>
<filter id="filter16_f_401_692" x="93.9131" y="17.2087" width="43.8232" height="56.0244" filterUnits="userSpaceOnUse" colorInterpolationFilters="sRGB">
<feFlood floodOpacity="0" result="BackgroundImageFix"/>
<feBlend mode="normal" in="SourceGraphic" in2="BackgroundImageFix" result="shape"/>
<feGaussianBlur stdDeviation="6" result="effect1_foregroundBlur_401_692"/>
</filter>
<filter id="filter17_f_401_692" x="93.9131" y="17.2087" width="43.8232" height="56.0244" filterUnits="userSpaceOnUse" colorInterpolationFilters="sRGB">
<feFlood floodOpacity="0" result="BackgroundImageFix"/>
<feBlend mode="normal" in="SourceGraphic" in2="BackgroundImageFix" result="shape"/>
<feGaussianBlur stdDeviation="6" result="effect1_foregroundBlur_401_692"/>
</filter>
<filter id="filter18_f_401_692" x="78.7578" y="15.1289" width="35.1416" height="39.4067" filterUnits="userSpaceOnUse" colorInterpolationFilters="sRGB">
<feFlood floodOpacity="0" result="BackgroundImageFix"/>
<feBlend mode="normal" in="SourceGraphic" in2="BackgroundImageFix" result="shape"/>
<feGaussianBlur stdDeviation="3.5" result="effect1_foregroundBlur_401_692"/>
</filter>
<filter id="filter19_f_401_692" x="78.7578" y="15.1289" width="35.1416" height="39.4067" filterUnits="userSpaceOnUse" colorInterpolationFilters="sRGB">
<feFlood floodOpacity="0" result="BackgroundImageFix"/>
<feBlend mode="normal" in="SourceGraphic" in2="BackgroundImageFix" result="shape"/>
<feGaussianBlur stdDeviation="3.5" result="effect1_foregroundBlur_401_692"/>
</filter>
<filter id="filter20_f_401_692" x="81.7373" y="21.1804" width="26.334" height="24.9602" filterUnits="userSpaceOnUse" colorInterpolationFilters="sRGB">
<feFlood floodOpacity="0" result="BackgroundImageFix"/>
<feBlend mode="normal" in="SourceGraphic" in2="BackgroundImageFix" result="shape"/>
<feGaussianBlur stdDeviation="2.5" result="effect1_foregroundBlur_401_692"/>
</filter>
<filter id="filter21_f_401_692" x="81.7373" y="21.1804" width="26.334" height="24.9602" filterUnits="userSpaceOnUse" colorInterpolationFilters="sRGB">
<feFlood floodOpacity="0" result="BackgroundImageFix"/>
<feBlend mode="normal" in="SourceGraphic" in2="BackgroundImageFix" result="shape"/>
<feGaussianBlur stdDeviation="2.5" result="effect1_foregroundBlur_401_692"/>
</filter>
<filter id="filter22_f_401_692" x="81.7373" y="21.1804" width="26.334" height="24.9602" filterUnits="userSpaceOnUse" colorInterpolationFilters="sRGB">
<feFlood floodOpacity="0" result="BackgroundImageFix"/>
<feBlend mode="normal" in="SourceGraphic" in2="BackgroundImageFix" result="shape"/>
<feGaussianBlur stdDeviation="2.5" result="effect1_foregroundBlur_401_692"/>
</filter>
<filter id="filter23_f_401_692" x="81.7373" y="21.1804" width="26.334" height="24.9602" filterUnits="userSpaceOnUse" colorInterpolationFilters="sRGB">
<feFlood floodOpacity="0" result="BackgroundImageFix"/>
<feBlend mode="normal" in="SourceGraphic" in2="BackgroundImageFix" result="shape"/>
<feGaussianBlur stdDeviation="2.5" result="effect1_foregroundBlur_401_692"/>
</filter>
<filter id="filter24_f_401_692" x="82.1089" y="20.1277" width="21.6396" height="22.5862" filterUnits="userSpaceOnUse" colorInterpolationFilters="sRGB">
<feFlood floodOpacity="0" result="BackgroundImageFix"/>
<feBlend mode="normal" in="SourceGraphic" in2="BackgroundImageFix" result="shape"/>
<feGaussianBlur stdDeviation="2.5" result="effect1_foregroundBlur_401_692"/>
</filter>
<filter id="filter25_f_401_692" x="82.1089" y="20.1277" width="21.6396" height="22.5862" filterUnits="userSpaceOnUse" colorInterpolationFilters="sRGB">
<feFlood floodOpacity="0" result="BackgroundImageFix"/>
<feBlend mode="normal" in="SourceGraphic" in2="BackgroundImageFix" result="shape"/>
<feGaussianBlur stdDeviation="2.5" result="effect1_foregroundBlur_401_692"/>
</filter>
<filter id="filter26_f_401_692" x="82.1089" y="20.1277" width="21.6396" height="22.5862" filterUnits="userSpaceOnUse" colorInterpolationFilters="sRGB">
<feFlood floodOpacity="0" result="BackgroundImageFix"/>
<feBlend mode="normal" in="SourceGraphic" in2="BackgroundImageFix" result="shape"/>
<feGaussianBlur stdDeviation="2.5" result="effect1_foregroundBlur_401_692"/>
</filter>
<filter id="filter27_f_401_692" x="82.1089" y="20.1277" width="21.6396" height="22.5862" filterUnits="userSpaceOnUse" colorInterpolationFilters="sRGB">
<feFlood floodOpacity="0" result="BackgroundImageFix"/>
<feBlend mode="normal" in="SourceGraphic" in2="BackgroundImageFix" result="shape"/>
<feGaussianBlur stdDeviation="2.5" result="effect1_foregroundBlur_401_692"/>
</filter>
<filter id="filter28_f_401_692" x="82.1089" y="20.1277" width="21.6396" height="22.5862" filterUnits="userSpaceOnUse" colorInterpolationFilters="sRGB">
<feFlood floodOpacity="0" result="BackgroundImageFix"/>
<feBlend mode="normal" in="SourceGraphic" in2="BackgroundImageFix" result="shape"/>
<feGaussianBlur stdDeviation="2.5" result="effect1_foregroundBlur_401_692"/>
</filter>
<filter id="filter29_f_401_692" x="82.1089" y="20.1277" width="21.6396" height="22.5862" filterUnits="userSpaceOnUse" colorInterpolationFilters="sRGB">
<feFlood floodOpacity="0" result="BackgroundImageFix"/>
<feBlend mode="normal" in="SourceGraphic" in2="BackgroundImageFix" result="shape"/>
<feGaussianBlur stdDeviation="2.5" result="effect1_foregroundBlur_401_692"/>
</filter>
<filter id="filter30_f_401_692" x="82.1089" y="20.1277" width="21.6396" height="22.5862" filterUnits="userSpaceOnUse" colorInterpolationFilters="sRGB">
<feFlood floodOpacity="0" result="BackgroundImageFix"/>
<feBlend mode="normal" in="SourceGraphic" in2="BackgroundImageFix" result="shape"/>
<feGaussianBlur stdDeviation="2.5" result="effect1_foregroundBlur_401_692"/>
</filter>
<filter id="filter31_f_401_692" x="82.1089" y="20.1277" width="21.6396" height="22.5862" filterUnits="userSpaceOnUse" colorInterpolationFilters="sRGB">
<feFlood floodOpacity="0" result="BackgroundImageFix"/>
<feBlend mode="normal" in="SourceGraphic" in2="BackgroundImageFix" result="shape"/>
<feGaussianBlur stdDeviation="2.5" result="effect1_foregroundBlur_401_692"/>
</filter>
<clipPath id="clip0_401_692">
<rect width="50" height="50" fill="white" transform="translate(20 16)"/>
</clipPath>
<clipPath id="clip1_401_692">
<rect width="100" height="30.622" fill="white" transform="translate(88 26)"/>
</clipPath>
</defs>
</svg>
