<svg width="250" height="82" viewBox="0 0 250 82" fill="none" xmlns="http://www.w3.org/2000/svg">
<g clipPath="url(#clip0_401_2496)">
<path fillRule="evenodd" clipRule="evenodd" d="M29.4643 16C24.2373 16 20 20.2373 20 25.4643V56.5358C20 61.7627 24.2373 66 29.4643 66H60.5358C65.7627 66 70 61.7627 70 56.5358V25.4643C70 20.2373 65.7627 16 60.5358 16H29.4643ZM51.7858 21.357H58.2142C61.962 21.357 65 24.3951 65 28.1428V53.857C65 57.6048 61.962 60.6427 58.2142 60.6427H51.7858C48.038 60.6427 45 57.6048 45 53.857V28.1428C45 24.3951 48.038 21.357 51.7858 21.357Z" fill="black"/>
</g>
<path fillRule="evenodd" clipRule="evenodd" d="M108.011 19C104.139 19 101 22.1387 101 26.0106V49.0265C101 52.8983 104.139 56.037 108.011 56.037H131.026C134.898 56.037 138.037 52.8983 138.037 49.0265V26.0106C138.037 22.1387 134.898 19 131.026 19H108.011ZM124.545 22.9682H129.307C132.083 22.9682 134.333 25.2186 134.333 27.9946V47.0422C134.333 49.8183 132.083 52.0687 129.307 52.0687H124.545C121.769 52.0687 119.519 49.8183 119.519 47.0422V27.9946C119.519 25.2186 121.769 22.9682 124.545 22.9682Z" fill="black"/>
<path d="M151.487 53.5931V41.4411H163.751V36.5623H151.487V28.0357H164.915V23.045H145.444V53.5931H151.487Z" fill="black"/>
<path d="M167.926 53.5931H173.812V29.8484H167.926V53.5931ZM167.523 23.9626C167.523 24.8727 167.851 25.6187 168.508 26.2005C169.164 26.7675 169.947 27.0509 170.858 27.0509C171.783 27.0509 172.566 26.7675 173.207 26.2005C173.864 25.6187 174.192 24.8727 174.192 23.9626C174.192 23.0375 173.864 22.2916 173.207 21.7246C172.566 21.1427 171.783 20.8518 170.858 20.8518C169.947 20.8518 169.164 21.1427 168.508 21.7246C167.851 22.2916 167.523 23.0375 167.523 23.9626Z" fill="black"/>
<path d="M188.595 57.9573C187.73 57.9573 186.969 57.8304 186.312 57.5767C185.656 57.338 185.119 56.9949 184.701 56.5473C184.283 56.1147 184.007 55.6223 183.873 55.0702H178.166C178.285 56.398 178.726 57.6065 179.487 58.6958C180.247 59.7849 181.374 60.6502 182.866 61.2917C184.358 61.9482 186.238 62.2765 188.505 62.2765C189.848 62.2765 191.169 62.1123 192.467 61.7841C193.78 61.4708 194.966 60.956 196.025 60.2399C197.084 59.5237 197.935 58.5913 198.576 57.4424C199.218 56.3086 199.539 54.9286 199.539 53.3023V29.8485H193.72V33.3397H193.474C193.16 32.6235 192.675 31.982 192.019 31.415C191.377 30.8332 190.602 30.3781 189.692 30.0499C188.796 29.7067 187.804 29.5352 186.715 29.5352C184.91 29.5352 183.328 29.9604 181.971 30.8108C180.613 31.6612 179.554 32.9145 178.793 34.5706C178.032 36.2117 177.651 38.2334 177.651 40.6354V42.1125C177.651 44.5443 178.032 46.5884 178.793 48.2445C179.554 49.9006 180.613 51.1537 181.971 52.0043C183.328 52.8547 184.91 53.2799 186.715 53.2799C187.536 53.2799 188.304 53.1828 189.02 52.9889C189.751 52.795 190.4 52.5263 190.967 52.1832C191.549 51.84 192.041 51.4447 192.444 50.9971C192.862 50.5347 193.183 50.0497 193.407 49.5425H193.653V52.9217C193.653 54.5182 193.205 55.7565 192.31 56.6369C191.415 57.5171 190.177 57.9573 188.595 57.9573ZM188.729 34.2349C189.729 34.2349 190.594 34.496 191.325 35.0182C192.056 35.5403 192.623 36.2938 193.026 37.2785C193.444 38.2632 193.653 39.4493 193.653 40.8369V42.2243C193.653 43.6269 193.451 44.8204 193.049 45.805C192.661 46.7899 192.094 47.5432 191.348 48.0654C190.617 48.5876 189.744 48.8487 188.729 48.8487C187.685 48.8487 186.782 48.595 186.021 48.0878C185.275 47.5656 184.701 46.8123 184.298 45.8275C183.895 44.8278 183.694 43.6269 183.694 42.2243V40.8369C183.694 39.4045 183.895 38.2036 184.298 37.2337C184.701 36.249 185.275 35.503 186.021 34.9958C186.782 34.4885 187.685 34.2349 188.729 34.2349Z" fill="black"/>
<defs>
<clipPath id="clip0_401_2496">
<rect width="50" height="50" fill="white" transform="translate(20 16)"/>
</clipPath>
</defs>
</svg>
