<svg width="250" height="82" viewBox="0 0 250 82" fill="none" xmlns="http://www.w3.org/2000/svg">
<path d="M22.887 19.5075C22.661 19.5045 22.4371 19.5511 22.231 19.644C22.0249 19.7368 21.8416 19.8736 21.6941 20.0448C21.5465 20.216 21.4381 20.4174 21.3767 20.635C21.3152 20.8525 21.3021 21.0808 21.3383 21.3039L27.9125 61.2135C27.9944 61.702 28.2458 62.1459 28.6225 62.4674C28.9992 62.7887 29.4771 62.9672 29.9723 62.9713H61.5113C61.8824 62.9761 62.243 62.8474 62.5274 62.6087C62.8115 62.3698 63.0007 62.037 63.06 61.6705L69.6496 21.3194C69.6859 21.0963 69.6726 20.868 69.6113 20.6505C69.5498 20.4329 69.4415 20.2315 69.2939 20.0603C69.1463 19.8891 68.963 19.7523 68.757 19.6595C68.5509 19.5666 68.327 19.52 68.1009 19.5229L22.887 19.5075ZM50.5698 48.3518H40.5033L37.7776 34.1193H53.0089L50.5698 48.3518Z" fill="#2684FF"/>
<path d="M67.5433 34.1196H53.009L50.5699 48.3521H40.5033L28.6172 62.4682C28.9939 62.7941 29.4743 62.9752 29.9723 62.9793H61.519C61.8903 62.9841 62.2507 62.8554 62.5351 62.6167C62.8192 62.3778 63.0083 62.045 63.0677 61.6785L67.5433 34.1196Z" fill="url(#paint0_linear_401_3098)"/>
<path d="M95.8352 34.6938C95.7698 34.6929 95.705 34.7064 95.6454 34.7333C95.5858 34.7601 95.5327 34.7997 95.49 34.8492C95.4473 34.8988 95.416 34.957 95.3982 35.02C95.3804 35.0829 95.3767 35.149 95.3871 35.2135L97.2891 46.7597C97.3128 46.901 97.3855 47.0294 97.4945 47.1224C97.6035 47.2154 97.7417 47.2671 97.885 47.2682H107.009C107.117 47.2696 107.221 47.2323 107.303 47.1633C107.386 47.0942 107.44 46.9979 107.458 46.8918L109.364 35.218C109.374 35.1534 109.371 35.0874 109.353 35.0244C109.335 34.9615 109.304 34.9032 109.261 34.8537C109.218 34.8042 109.165 34.7646 109.106 34.7377C109.046 34.7109 108.981 34.6974 108.916 34.6982L95.8352 34.6938ZM103.844 43.0386H100.932L100.143 38.9211H104.55L103.844 43.0386Z" fill="#2684FF"/>
<path d="M108.755 38.9211H104.55L103.844 43.0387H100.932L97.4932 47.1227C97.6022 47.2169 97.7411 47.2693 97.8852 47.2705H107.012C107.119 47.2719 107.224 47.2346 107.306 47.1656C107.388 47.0965 107.443 47.0002 107.46 46.8941L108.755 38.9211Z" fill="url(#paint1_linear_401_3098)"/>
<path d="M121.569 34.3176C124.21 34.3176 125.492 35.6192 125.492 37.7094C125.492 39.2775 124.782 40.2319 123.323 40.588C125.236 40.9039 126.182 41.9479 126.182 43.7826C126.182 45.8526 124.782 47.2729 121.885 47.2729H116.542V34.3176H121.569ZM118.316 36.0135V39.8756H121.332C123.007 39.8756 123.697 39.1073 123.697 37.8594C123.697 36.6116 122.949 36.0068 121.332 36.0068L118.316 36.0135ZM118.316 41.455V45.4875H121.943C123.639 45.4875 124.407 44.8759 124.407 43.5743C124.407 42.1943 123.677 41.4461 121.905 41.4461L118.316 41.455Z" fill="#253858"/>
<path d="M129.081 33.6276C129.239 33.6163 129.398 33.6391 129.546 33.6945C129.695 33.75 129.83 33.8367 129.942 33.9489C130.054 34.0611 130.141 34.1961 130.197 34.3447C130.252 34.4934 130.275 34.6522 130.264 34.8104C130.264 35.1241 130.139 35.425 129.917 35.6468C129.695 35.8687 129.394 35.9933 129.081 35.9933C128.767 35.9933 128.466 35.8687 128.244 35.6468C128.022 35.425 127.898 35.1241 127.898 34.8104C127.887 34.6522 127.909 34.4934 127.965 34.3447C128.02 34.1961 128.107 34.0611 128.219 33.9489C128.331 33.8367 128.466 33.75 128.615 33.6945C128.764 33.6391 128.922 33.6163 129.081 33.6276ZM128.214 37.4113H129.91V47.2684H128.214V37.4113Z" fill="#253858"/>
<path d="M136.384 45.615C136.742 45.6043 137.099 45.5578 137.448 45.4761V47.1115C137.076 47.2176 136.692 47.2705 136.305 47.2683C134.195 47.2683 133.169 46.0272 133.169 44.1925V38.9884H131.572V37.4202H133.169V35.3234H134.816V37.4135H137.437V38.9817H134.816V44.1544C134.816 45.0214 135.329 45.615 136.384 45.615Z" fill="#253858"/>
<path d="M144.437 47.4654C142.999 47.4654 141.894 46.8158 141.301 45.5344V47.2683H139.605V33.2937H141.312V39.1855C141.944 37.8839 143.127 37.2141 144.643 37.2141C147.264 37.2141 148.586 39.4409 148.586 42.3398C148.577 45.1199 147.197 47.4654 144.437 47.4654ZM144.18 38.7912C142.656 38.7912 141.312 39.759 141.312 41.9455V42.7341C141.312 44.9228 142.553 45.8883 144 45.8883C145.913 45.8883 146.899 44.6271 146.899 42.3398C146.881 39.9741 145.936 38.7912 144.18 38.7912Z" fill="#253858"/>
<path d="M150.352 37.4113H152.047V43.3748C152.047 45.149 152.758 45.9376 154.373 45.9376C155.941 45.9376 157.034 44.8936 157.034 42.9021V37.4113H158.73V47.2683H157.034V45.6531C156.732 46.2127 156.282 46.6782 155.732 46.9983C155.183 47.3185 154.556 47.4809 153.92 47.4677C151.653 47.4677 150.352 45.8995 150.352 43.1889V37.4113Z" fill="#253858"/>
<path d="M168.251 47.013C167.66 47.3289 166.752 47.4611 165.845 47.4611C162.337 47.4611 160.692 45.3328 160.692 42.3085C160.692 39.3313 162.328 37.203 165.845 37.203C166.655 37.18 167.46 37.3465 168.195 37.6892V39.2573C167.495 38.9298 166.728 38.7703 165.955 38.7914C163.392 38.7914 162.348 40.4088 162.348 42.3197C162.348 44.2306 163.421 45.8391 166.004 45.8391C166.766 45.8593 167.526 45.7393 168.245 45.4852L168.251 47.013Z" fill="#253858"/>
<path d="M170.184 47.2683V33.2937H171.88V42.0307L176.119 37.418H178.327L173.692 42.2547L178.522 47.2683H176.215L171.878 42.6556V47.2683H170.184Z" fill="#253858"/>
<path d="M184.141 47.4654C180.453 47.4654 178.838 45.3372 178.838 42.3129C178.838 39.3356 180.494 37.2074 183.491 37.2074C186.526 37.2074 187.748 39.3177 187.748 42.3129V43.0813H180.552C180.789 44.757 181.874 45.8413 184.199 45.8413C185.222 45.8404 186.236 45.6599 187.196 45.3081V46.8763C186.388 47.3087 185.147 47.4654 184.141 47.4654ZM180.534 41.6409H186.034C185.935 39.8083 185.106 38.7621 183.413 38.7621C181.616 38.7532 180.711 39.9158 180.534 41.6319V41.6409Z" fill="#253858"/>
<path d="M193.662 45.615C194.021 45.6043 194.377 45.5578 194.726 45.4761V47.1115C194.355 47.2176 193.97 47.2705 193.583 47.2683C191.473 47.2683 190.447 46.0272 190.447 44.1925V38.9884H188.85V37.4202H190.447V35.3234H192.103V37.4135H194.724V38.9817H192.103V44.1544C192.105 45.0214 192.614 45.615 193.662 45.615Z" fill="#253858"/>
<defs>
<linearGradient id="paint0_linear_401_3098" x1="70.904" y1="38.0998" x2="46.884" y2="56.8543" gradientUnits="userSpaceOnUse">
<stop offset="0.18" stop-color="#0052CC"/>
<stop offset="1" stop-color="#2684FF"/>
</linearGradient>
<linearGradient id="paint1_linear_401_3098" x1="109.727" y1="40.0726" x2="102.778" y2="45.4985" gradientUnits="userSpaceOnUse">
<stop offset="0.18" stop-color="#0052CC"/>
<stop offset="1" stop-color="#2684FF"/>
</linearGradient>
</defs>
</svg>
