<svg width="250" height="82" viewBox="0 0 250 82" fill="none" xmlns="http://www.w3.org/2000/svg">
<g clip-path="url(#clip0_401_2198)">
<path fill-rule="evenodd" clip-rule="evenodd" d="M27.8377 64.1402V56.4969H62.2326V64.1402H27.8377ZM54.9268 25.9236H35.1402L45.0351 39.6179L54.9268 25.9236ZM69.8759 18.2803L45.0351 52.6752L20.1943 18.2803H69.8759Z" fill="#00B3E6"/>
</g>
<g clip-path="url(#clip1_401_2198)">
<path fill-rule="evenodd" clip-rule="evenodd" d="M100.486 48.6343V46.2101H111.395V48.6343H100.486ZM109.078 36.5131H102.802L105.94 40.8565L109.078 36.5131ZM113.819 34.0889L105.94 44.998L98.0615 34.0889H113.819Z" fill="#00B3E6"/>
<path d="M123.434 46.2112V42.3203H119.703V46.2112H117.454V36.5142H119.703V40.3092H123.434V36.5122H125.684V46.2092L123.434 46.2112Z" fill="black"/>
<path d="M128.522 46.2111V36.5142H134.667V38.5758H130.772V40.3091H134.318V42.2677H130.772V44.1596H134.667V46.2111H128.522Z" fill="black"/>
<path d="M137.347 46.2111V36.5142H139.595V44.1616H143.486V46.2132L137.347 46.2111Z" fill="black"/>
<path d="M145.374 46.2111V36.5142H147.626V44.1616H151.516V46.2132L145.374 46.2111Z" fill="black"/>
<path d="M157.862 46.3697C154.858 46.3697 152.939 44.2132 152.939 41.3677C152.939 38.5222 154.951 36.3525 157.955 36.3525C160.959 36.3525 162.877 38.5101 162.877 41.3677C162.877 44.2253 160.853 46.3697 157.862 46.3697ZM157.899 38.3647C156.365 38.3647 155.332 39.6212 155.332 41.3677C155.332 43.1142 156.365 44.3717 157.899 44.3717C159.433 44.3717 160.467 43.101 160.467 41.3677C160.467 39.6344 159.436 38.3647 157.899 38.3647Z" fill="black"/>
<path d="M167.737 46.3697C166.639 46.3697 165.313 45.9334 164.47 45.3768L165.091 43.3394C165.872 43.9081 166.891 44.2788 167.804 44.2788C168.598 44.2788 168.902 43.9081 168.902 43.4323C168.902 42.9273 168.651 42.5849 167.169 41.9899C165.462 41.302 164.869 40.3091 164.869 39.1445C164.869 37.7303 166.019 36.3525 168.282 36.3525C169.34 36.3525 170.426 36.7232 170.995 37.1071L170.424 39.1182C169.868 38.7344 168.969 38.3243 168.28 38.3243C167.46 38.3243 167.129 38.7081 167.129 39.1051C167.129 39.7404 167.618 39.9525 168.836 40.4677C170.649 41.2354 171.191 42.1091 171.191 43.3525C171.191 44.901 170.067 46.3697 167.737 46.3697Z" fill="black"/>
<path d="M173.603 46.2111V36.5142H175.853V46.2111H173.603Z" fill="black"/>
<path d="M187.067 40.7596V45.3909C185.954 46.0509 184.681 46.3897 183.388 46.3697C180.543 46.3697 178.294 44.3324 178.294 41.3677C178.294 38.403 180.57 36.3525 183.507 36.3525C184.778 36.3525 185.796 36.6839 186.762 37.1869L185.822 38.999C185.154 38.6473 184.412 38.4613 183.657 38.4566C181.724 38.4566 180.693 39.6606 180.693 41.3677C180.693 43.2202 181.936 44.3718 183.521 44.3718C184.235 44.3718 184.593 44.292 184.951 44.1071V42.6778H183.004V40.7586L187.067 40.7596Z" fill="black"/>
<path d="M197.749 46.3959L191.901 41.1433V46.211H189.651V36.3797L189.954 36.3262L195.724 41.5393V36.512H197.974V46.3565L197.749 46.3959Z" fill="black"/>
</g>
<defs>
<clipPath id="clip0_401_2198">
<rect width="50" height="46.1783" fill="white" transform="translate(20 18)"/>
</clipPath>
<clipPath id="clip1_401_2198">
<rect width="100" height="14.6465" fill="white" transform="translate(98 34)"/>
</clipPath>
</defs>
</svg>
