<svg width="250" height="82" viewBox="0 0 250 82" fill="none" xmlns="http://www.w3.org/2000/svg">
<g clip-path="url(#clip0_401_1220)">
<path fill-rule="evenodd" clip-rule="evenodd" d="M68.6674 45.6632L65.0318 42.0196C64.7436 41.7308 64.5818 41.3394 64.5818 40.9314V36.4717C64.5818 32.3513 64.1538 30.8571 63.3498 29.3507C62.546 27.8443 61.3662 26.6621 59.8632 25.8565C58.36 25.0509 56.869 24.6218 52.7574 24.6218H46.877C46.7068 24.6218 46.5688 24.4839 46.5688 24.3137C46.5688 24.2321 46.6012 24.1539 46.6588 24.0961L50.2946 20.4524C50.5836 20.1628 50.976 20 51.3852 20H53.4278C58.91 20 60.898 20.572 62.9022 21.6462C64.9064 22.7204 66.4792 24.2966 67.551 26.3052C68.623 28.3137 69.1938 30.3059 69.1938 35.7999V45.4454C69.1938 45.6156 69.0558 45.7536 68.8856 45.7536C68.8038 45.7536 68.7252 45.721 68.6674 45.6632Z" fill="#E44E31"/>
<path fill-rule="evenodd" clip-rule="evenodd" d="M43.5841 68.7745L47.2199 65.1307C47.5089 64.8411 47.9013 64.6783 48.3105 64.6783H52.7573C56.8689 64.6783 58.3599 64.2493 59.8629 63.4437C61.3661 62.6381 62.5457 61.4559 63.3497 59.9495C64.1535 58.4431 64.5817 56.9489 64.5817 52.8285V46.9359C64.5817 46.7657 64.7197 46.6279 64.8897 46.6279C64.9717 46.6279 65.0501 46.6603 65.1079 46.7183L68.7435 50.3617C69.0317 50.6505 69.1935 51.0419 69.1935 51.4499V53.5003C69.1935 58.9943 68.6227 60.9865 67.5509 62.9951C66.4791 65.0035 64.9061 66.5799 62.9019 67.6541C60.8977 68.7281 58.9099 69.3003 53.4277 69.3003H43.8021C43.6319 69.3003 43.4941 69.1623 43.4941 68.9921C43.4941 68.9105 43.5265 68.8323 43.5841 68.7745Z" fill="#F6C33B"/>
<path fill-rule="evenodd" clip-rule="evenodd" d="M20.5262 43.6373L24.1618 47.2809C24.4501 47.5697 24.6119 47.9611 24.6119 48.3691V52.8287C24.6119 56.9493 25.04 58.4433 25.8439 59.9497C26.6478 61.4561 27.8275 62.6383 29.3306 63.4439C30.8338 64.2497 32.3247 64.6787 36.4363 64.6787H42.3168C42.487 64.6787 42.625 64.8165 42.625 64.9867C42.625 65.0683 42.5926 65.1467 42.535 65.2043L38.8991 68.8481C38.6101 69.1377 38.2177 69.3005 37.8085 69.3005H35.7659C30.2837 69.3005 28.2958 68.7285 26.2916 67.6543C24.2874 66.5801 22.7145 65.0039 21.6427 62.9953C20.5708 60.9869 20 58.9945 20 53.5007V43.8551C20 43.6849 20.138 43.5469 20.3081 43.5469C20.39 43.5469 20.4684 43.5795 20.5262 43.6373Z" fill="#7387EF"/>
<path fill-rule="evenodd" clip-rule="evenodd" d="M45.6096 20.5258L41.9736 24.1694C41.6846 24.4591 41.2924 24.6219 40.8832 24.6219H36.4363C32.3247 24.6219 30.8337 25.0509 29.3306 25.8565C27.8275 26.6621 26.6478 27.8443 25.8439 29.3507C25.04 30.8571 24.6119 32.3513 24.6119 36.4718V42.3642C24.6119 42.5344 24.474 42.6724 24.3038 42.6724C24.222 42.6724 24.1435 42.6398 24.0857 42.582L20.4501 38.9385C20.1619 38.6496 20 38.2583 20 37.8502V35.7999C20 30.3059 20.5708 28.3137 21.6427 26.3052C22.7145 24.2967 24.2874 22.7204 26.2916 21.6462C28.2958 20.572 30.2837 20 35.7659 20H45.3914C45.5616 20 45.6996 20.138 45.6996 20.3081C45.6996 20.3897 45.6672 20.468 45.6096 20.5258Z" fill="#D776EB"/>
<path fill-rule="evenodd" clip-rule="evenodd" d="M60.986 37.9882L56.0284 33.2398C55.7004 32.9112 55.3168 32.6723 54.908 32.5232C54.57 32.3951 54.2036 32.325 53.8208 32.325H39.187C39.0169 32.325 38.8789 32.187 38.8789 32.0168C38.8789 31.9352 38.9113 31.8569 38.969 31.7991L42.6082 28.1551C42.8972 27.8657 43.2894 27.7031 43.6984 27.7031H55.358C58.7542 27.7031 61.5072 30.4621 61.5072 33.8656V37.7657C61.5072 37.9358 61.3694 38.0738 61.1992 38.0738C61.1198 38.0738 61.0434 38.0431 60.986 37.9882Z" fill="#E44E31"/>
<path fill-rule="evenodd" clip-rule="evenodd" d="M51.2429 61.0798L55.9825 56.1098C56.3105 55.7812 56.5489 55.3968 56.6977 54.987C56.8255 54.6482 56.8953 54.281 56.8953 53.8974V39.2329C56.8953 39.0627 57.0333 38.9248 57.2035 38.9248C57.2853 38.9248 57.3639 38.9574 57.4217 39.0154L61.0577 42.6622C61.3457 42.951 61.5073 43.3422 61.5073 43.75V55.438C61.5073 58.8416 58.7543 61.6006 55.3581 61.6006H51.4659C51.2957 61.6006 51.1577 61.4626 51.1577 61.2924C51.1577 61.2132 51.1881 61.137 51.2429 61.0798Z" fill="#F6C33B"/>
<path fill-rule="evenodd" clip-rule="evenodd" d="M28.2078 51.3122L33.1655 56.0606C33.4934 56.3892 33.877 56.628 34.2858 56.7772C34.6238 56.9052 34.9903 56.9754 35.3731 56.9754H50.0068C50.177 56.9754 50.315 57.1134 50.315 57.2836C50.315 57.3652 50.2826 57.4434 50.2248 57.5012L46.5856 61.1452C46.2966 61.4346 45.9044 61.5972 45.4954 61.5972H33.8357C30.4396 61.5972 27.6865 58.8382 27.6865 55.4348V51.5346C27.6865 51.3646 27.8245 51.2266 27.9947 51.2266C28.0741 51.2266 28.1504 51.2572 28.2078 51.3122Z" fill="#7387EF"/>
<path fill-rule="evenodd" clip-rule="evenodd" d="M37.951 28.2239L33.2113 33.1939C32.8834 33.5225 32.645 33.9069 32.4962 34.3166C32.3684 34.6554 32.2984 35.0226 32.2984 35.4062V50.0708C32.2984 50.241 32.1605 50.3788 31.9903 50.3788C31.9084 50.3788 31.8299 50.3462 31.7721 50.2882L28.1361 46.6414C27.8482 46.3526 27.6865 45.9614 27.6865 45.5536V33.8656C27.6865 30.4621 30.4396 27.7031 33.8357 27.7031H37.728C37.8982 27.7031 38.0362 27.8411 38.0362 28.0112C38.0362 28.0904 38.0057 28.1666 37.951 28.2239Z" fill="#D776EB"/>
</g>
<g clip-path="url(#clip1_401_1220)">
<path fill-rule="evenodd" clip-rule="evenodd" d="M137.643 40.1101H138.238C138.644 40.1101 138.973 40.4393 138.973 40.8453V41.5414C138.973 41.563 138.991 41.5805 139.013 41.5805C139.351 40.9815 139.807 40.5458 140.38 40.2735C140.953 40.0012 141.572 39.8651 142.237 39.8651C142.953 39.8651 143.598 39.9978 144.171 40.2633C144.744 40.5288 145.233 40.893 145.636 41.3559C146.04 41.8188 146.346 42.3633 146.555 42.9896C146.763 43.6159 146.867 44.2898 146.867 45.0114C146.867 45.7329 146.757 46.4068 146.535 47.0331C146.314 47.6594 146.004 48.204 145.607 48.6669C145.21 49.1297 144.731 49.4939 144.171 49.7594C143.611 50.0249 142.999 50.1576 142.334 50.1576C141.891 50.1576 141.501 50.11 141.162 50.0147C140.823 49.9194 140.524 49.7969 140.263 49.6471C140.003 49.4973 139.781 49.3374 139.599 49.1672C139.416 48.997 139.267 48.8302 139.149 48.6669C139.117 48.6669 139.091 48.6931 139.091 48.7255V53.6715C139.091 54.167 138.689 54.5687 138.193 54.5687H137.643C137.148 54.5687 136.746 54.167 136.746 53.6715V41.0074C136.746 40.5118 137.148 40.1101 137.643 40.1101ZM144.523 45.0114C144.523 44.6302 144.461 44.2626 144.337 43.9086C144.213 43.5546 144.031 43.2415 143.79 42.9692C143.549 42.6969 143.259 42.4791 142.92 42.3157C142.582 42.1523 142.197 42.0706 141.768 42.0706C141.338 42.0706 140.953 42.1523 140.615 42.3157C140.276 42.4791 139.986 42.6969 139.745 42.9692C139.504 43.2415 139.322 43.5546 139.198 43.9086C139.074 44.2626 139.013 44.6302 139.013 45.0114C139.013 45.3926 139.074 45.7602 139.198 46.1141C139.322 46.4681 139.504 46.7812 139.745 47.0535C139.986 47.3258 140.276 47.5437 140.615 47.707C140.953 47.8704 141.338 47.9521 141.768 47.9521C142.197 47.9521 142.582 47.8704 142.92 47.707C143.259 47.5437 143.549 47.3258 143.79 47.0535C144.031 46.7812 144.213 46.4681 144.337 46.1141C144.461 45.7602 144.523 45.3926 144.523 45.0114ZM150.246 40.1101H150.917C151.346 40.1101 151.693 40.4576 151.693 40.8862V41.6231C151.693 41.6447 151.711 41.6622 151.733 41.6622C151.993 41.0904 152.364 40.6479 152.846 40.3348C153.328 40.0216 153.882 39.8651 154.507 39.8651C154.65 39.8651 154.79 39.8787 154.927 39.9059C155.171 39.9545 155.347 40.1689 155.347 40.4179V41.7624C155.347 42.0328 155.128 42.252 154.858 42.252C154.829 42.252 154.8 42.2494 154.771 42.2442C154.582 42.2102 154.396 42.1932 154.214 42.1932C153.667 42.1932 153.227 42.2987 152.895 42.5097C152.563 42.7207 152.309 42.9624 152.133 43.2347C151.957 43.507 151.84 43.7792 151.781 44.0515C151.723 44.3238 151.693 44.528 151.693 44.6642V49.0153C151.693 49.5109 151.292 49.9126 150.796 49.9126H150.246C149.75 49.9126 149.349 49.5109 149.349 49.0153V41.0074C149.349 40.5118 149.75 40.1101 150.246 40.1101ZM158.179 40.1101H158.729C159.225 40.1101 159.626 40.5118 159.626 41.0074V49.0153C159.626 49.5109 159.225 49.9126 158.729 49.9126H158.179C157.683 49.9126 157.282 49.5109 157.282 49.0153V41.0074C157.282 40.5118 157.683 40.1101 158.179 40.1101ZM156.949 36.7814C156.949 36.3866 157.089 36.0428 157.37 35.7501C157.65 35.4574 158.005 35.311 158.434 35.311C158.864 35.311 159.226 35.4506 159.519 35.7297C159.812 36.0088 159.958 36.3593 159.958 36.7814C159.958 37.2034 159.812 37.554 159.519 37.8331C159.226 38.1122 158.864 38.2518 158.434 38.2518C158.005 38.2518 157.65 38.1054 157.37 37.8127C157.089 37.52 156.949 37.1762 156.949 36.7814ZM167.051 42.3503C166.576 42.0005 166.152 41.8256 165.781 41.8256C165.469 41.8256 165.162 41.9073 164.863 42.0706C164.563 42.234 164.413 42.4995 164.413 42.8671C164.413 43.1666 164.537 43.3844 164.785 43.5206C165.032 43.6567 165.345 43.7724 165.723 43.8677C166.1 43.963 166.507 44.0618 166.944 44.1639C167.38 44.266 167.787 44.4225 168.165 44.6336C168.543 44.8446 168.855 45.1339 169.103 45.5015C169.35 45.8691 169.474 46.3728 169.474 47.0127C169.474 47.5981 169.354 48.0916 169.113 48.4933C168.872 48.8949 168.559 49.2182 168.175 49.4633C167.79 49.7084 167.357 49.8853 166.875 49.9943C166.393 50.1032 165.911 50.1576 165.429 50.1576C164.7 50.1576 164.029 50.0487 163.417 49.8309C163.177 49.7456 162.889 49.5742 162.554 49.3166C162.161 49.015 162.087 48.4517 162.388 48.0586C162.414 48.0251 162.442 47.9935 162.472 47.964L162.715 47.7257C163.051 47.3968 163.584 47.3826 163.936 47.6931C164.078 47.8183 164.202 47.9149 164.306 47.9827C164.651 48.2074 165.071 48.3197 165.566 48.3197C165.736 48.3197 165.911 48.2993 166.094 48.2584C166.276 48.2176 166.445 48.1495 166.602 48.0542C166.758 47.9589 166.885 47.8398 166.983 47.6968C167.08 47.5539 167.129 47.3871 167.129 47.1965C167.129 46.8561 167.006 46.6043 166.758 46.4409C166.511 46.2775 166.198 46.1448 165.82 46.0427C165.442 45.9406 165.035 45.8453 164.599 45.7568C164.163 45.6683 163.756 45.5253 163.378 45.3279C163 45.1305 162.687 44.8548 162.44 44.5008C162.192 44.1468 162.069 43.6567 162.069 43.0305C162.069 42.4859 162.176 42.0128 162.391 41.6111C162.606 41.2095 162.889 40.8794 163.241 40.6207C163.593 40.362 163.997 40.1714 164.452 40.0489C164.908 39.9263 165.371 39.8651 165.84 39.8651C166.465 39.8651 167.084 39.9774 167.696 40.202C167.918 40.2834 168.165 40.434 168.438 40.6539C168.824 40.9648 168.885 41.5296 168.574 41.9155C168.548 41.9476 168.52 41.9779 168.49 42.0061L168.198 42.2809C167.882 42.5775 167.4 42.6067 167.051 42.3503ZM172.384 40.1101H172.817C173.312 40.1101 173.714 40.5118 173.714 41.0074V41.6418C173.962 41.1789 174.297 40.767 174.759 40.4063C175.222 40.0455 175.844 39.8651 176.625 39.8651C178.097 39.8651 179.074 40.4709 179.556 41.6826C179.895 41.0563 180.318 40.5969 180.826 40.3041C181.334 40.0114 181.94 39.8651 182.643 39.8651C183.269 39.8651 183.796 39.974 184.226 40.1918C184.656 40.4097 185.004 40.7092 185.271 41.0904C185.538 41.4716 185.731 41.9175 185.848 42.428C185.965 42.9386 186.024 43.4865 186.024 44.072V49.0153C186.024 49.5109 185.622 49.9126 185.126 49.9126H184.576C184.081 49.9126 183.679 49.5109 183.679 49.0153V44.3579C183.679 44.0583 183.653 43.769 183.601 43.4899C183.549 43.2108 183.458 42.9658 183.327 42.7548C183.197 42.5437 183.021 42.377 182.8 42.2544C182.578 42.1319 182.292 42.0706 181.94 42.0706C181.575 42.0706 181.266 42.1421 181.012 42.2851C180.758 42.428 180.549 42.6186 180.387 42.8569C180.224 43.0951 180.107 43.3674 180.035 43.6737C179.963 43.9801 179.927 44.2898 179.927 44.6029V49.0153C179.927 49.5109 179.526 49.9126 179.03 49.9126H178.48C177.984 49.9126 177.583 49.5109 177.583 49.0153V44.072C177.583 43.4593 177.459 42.9726 177.212 42.6118C176.964 42.251 176.554 42.0706 175.981 42.0706C175.59 42.0706 175.261 42.1387 174.994 42.2748C174.727 42.411 174.505 42.5948 174.33 42.8262C174.154 43.0577 174.027 43.3232 173.948 43.6227C173.87 43.9222 173.831 44.2353 173.831 44.5621V49.0153C173.831 49.5109 173.43 49.9126 172.934 49.9126H172.384C171.888 49.9126 171.487 49.5109 171.487 49.0153V41.0074C171.487 40.5118 171.888 40.1101 172.384 40.1101ZM189.813 40.1101H190.363C190.858 40.1101 191.26 40.5118 191.26 41.0074V49.0153C191.26 49.5109 190.858 49.9126 190.363 49.9126H189.813C189.317 49.9126 188.915 49.5109 188.915 49.0153V41.0074C188.915 40.5118 189.317 40.1101 189.813 40.1101ZM188.583 36.7814C188.583 36.3866 188.723 36.0428 189.003 35.7501C189.283 35.4574 189.638 35.311 190.068 35.311C190.498 35.311 190.86 35.4506 191.153 35.7297C191.446 36.0088 191.592 36.3593 191.592 36.7814C191.592 37.2034 191.446 37.554 191.153 37.8331C190.86 38.1122 190.498 38.2518 190.068 38.2518C189.638 38.2518 189.283 38.1054 189.003 37.8127C188.723 37.52 188.583 37.1762 188.583 36.7814ZM200.053 42.5142C199.957 42.4387 199.872 42.3793 199.799 42.3361C199.499 42.1591 199.193 42.0706 198.88 42.0706C198.451 42.0706 198.066 42.1523 197.728 42.3157C197.389 42.4791 197.099 42.6969 196.858 42.9692C196.617 43.2415 196.435 43.5546 196.311 43.9086C196.187 44.2626 196.125 44.6302 196.125 45.0114C196.125 45.3926 196.187 45.7602 196.311 46.1141C196.435 46.4681 196.617 46.7812 196.858 47.0535C197.099 47.3258 197.389 47.5437 197.728 47.707C198.066 47.8704 198.451 47.9521 198.88 47.9521C199.245 47.9521 199.584 47.8738 199.896 47.7172C199.96 47.6856 200.028 47.6426 200.102 47.5881C200.475 47.3138 200.996 47.3685 201.304 47.7145L201.66 48.1149C201.974 48.4673 201.943 49.0073 201.59 49.321C201.547 49.3595 201.5 49.3935 201.45 49.4225C201.144 49.5994 200.834 49.7424 200.522 49.8513C200.209 49.9602 199.909 50.0385 199.623 50.0862C199.336 50.1338 199.089 50.1576 198.88 50.1576C198.177 50.1576 197.513 50.0351 196.887 49.79C196.262 49.545 195.722 49.1978 195.266 48.7485C194.81 48.2993 194.448 47.7581 194.181 47.125C193.914 46.4919 193.781 45.7874 193.781 45.0114C193.781 44.2353 193.914 43.5308 194.181 42.8977C194.448 42.2646 194.81 41.7235 195.266 41.2742C195.722 40.8249 196.262 40.4777 196.887 40.2327C197.513 39.9876 198.177 39.8651 198.88 39.8651C199.48 39.8651 200.082 39.9842 200.688 40.2225C200.919 40.3133 201.191 40.4756 201.505 40.7095C201.902 41.0056 201.984 41.5677 201.688 41.9651C201.666 41.9945 201.642 42.0226 201.617 42.0492L201.254 42.4279C200.936 42.7611 200.416 42.7984 200.053 42.5142Z" fill="black"/>
<path fill-rule="evenodd" clip-rule="evenodd" d="M130.333 45.8316L128.516 44.0098C128.372 43.8654 128.291 43.6697 128.291 43.4657V41.2359C128.291 39.1756 128.077 38.4286 127.675 37.6754C127.273 36.9222 126.683 36.3311 125.931 35.9283C125.18 35.5254 124.434 35.3109 122.378 35.3109H119.438C119.353 35.3109 119.284 35.242 119.284 35.1569C119.284 35.1161 119.3 35.0769 119.329 35.048L121.147 33.2262C121.292 33.0814 121.488 33 121.692 33H122.714C125.455 33 126.449 33.286 127.451 33.8231C128.453 34.3602 129.239 35.1483 129.775 36.1526C130.311 37.1568 130.597 38.153 130.597 40.8999V45.7227C130.597 45.8078 130.528 45.8768 130.443 45.8768C130.402 45.8768 130.362 45.8605 130.333 45.8316Z" fill="black"/>
<path fill-rule="evenodd" clip-rule="evenodd" d="M117.792 57.3873L119.61 55.5654C119.754 55.4206 119.951 55.3392 120.155 55.3392H122.379C124.434 55.3392 125.18 55.1247 125.931 54.7219C126.683 54.3191 127.273 53.728 127.675 52.9748C128.077 52.2216 128.291 51.4745 128.291 49.4143V46.468C128.291 46.3829 128.36 46.314 128.445 46.314C128.486 46.314 128.525 46.3302 128.554 46.3592L130.372 48.1809C130.516 48.3253 130.597 48.521 130.597 48.725V49.7502C130.597 52.4972 130.311 53.4933 129.775 54.4976C129.24 55.5018 128.453 56.29 127.451 56.8271C126.449 57.3641 125.455 57.6502 122.714 57.6502H117.901C117.816 57.6502 117.747 57.5812 117.747 57.4961C117.747 57.4553 117.763 57.4162 117.792 57.3873Z" fill="black"/>
<path fill-rule="evenodd" clip-rule="evenodd" d="M106.263 44.8184L108.081 46.6402C108.225 46.7846 108.306 46.9803 108.306 47.1843V49.4141C108.306 51.4744 108.52 52.2214 108.922 52.9746C109.324 53.7278 109.914 54.3189 110.665 54.7217C111.417 55.1246 112.162 55.3391 114.218 55.3391H117.158C117.243 55.3391 117.312 55.408 117.312 55.4931C117.312 55.5339 117.296 55.5731 117.267 55.6019L115.45 57.4238C115.305 57.5686 115.109 57.65 114.904 57.65H113.883C111.142 57.65 110.148 57.364 109.146 56.8269C108.144 56.2898 107.357 55.5017 106.821 54.4974C106.285 53.4932 106 52.497 106 49.7501V44.9273C106 44.8422 106.069 44.7732 106.154 44.7732C106.195 44.7732 106.234 44.7895 106.263 44.8184Z" fill="black"/>
<path fill-rule="evenodd" clip-rule="evenodd" d="M118.805 33.2629L116.987 35.0847C116.842 35.2295 116.646 35.3109 116.442 35.3109H114.218C112.162 35.3109 111.417 35.5254 110.665 35.9283C109.914 36.3311 109.324 36.9222 108.922 37.6754C108.52 38.4286 108.306 39.1756 108.306 41.2359V44.1821C108.306 44.2672 108.237 44.3362 108.152 44.3362C108.111 44.3362 108.072 44.3199 108.043 44.291L106.225 42.4692C106.081 42.3248 106 42.1291 106 41.9251V40.8999C106 38.153 106.285 37.1568 106.821 36.1526C107.357 35.1483 108.144 34.3602 109.146 33.8231C110.148 33.286 111.142 33 113.883 33H118.696C118.781 33 118.85 33.069 118.85 33.1541C118.85 33.1949 118.834 33.234 118.805 33.2629Z" fill="black"/>
<path fill-rule="evenodd" clip-rule="evenodd" d="M126.493 41.9939L124.014 39.6197C123.85 39.4553 123.658 39.3359 123.454 39.2613C123.285 39.1973 123.102 39.1622 122.91 39.1622H115.594C115.508 39.1622 115.439 39.0933 115.439 39.0082C115.439 38.9674 115.456 38.9282 115.485 38.8993L117.304 37.0773C117.449 36.9326 117.645 36.8513 117.849 36.8513H123.679C125.377 36.8513 126.754 38.2308 126.754 39.9325V41.8826C126.754 41.9677 126.685 42.0367 126.6 42.0367C126.56 42.0367 126.522 42.0213 126.493 41.9939Z" fill="black"/>
<path fill-rule="evenodd" clip-rule="evenodd" d="M121.622 53.5397L123.992 51.0547C124.156 50.8904 124.275 50.6982 124.349 50.4933C124.413 50.3239 124.448 50.1403 124.448 49.9485V42.6162C124.448 42.5311 124.517 42.4622 124.602 42.4622C124.643 42.4622 124.682 42.4784 124.711 42.5074L126.529 44.3309C126.673 44.4753 126.754 44.6709 126.754 44.8748V50.7188C126.754 52.4206 125.377 53.8001 123.679 53.8001H121.733C121.648 53.8001 121.579 53.7311 121.579 53.646C121.579 53.6064 121.594 53.5683 121.622 53.5397Z" fill="black"/>
<path fill-rule="evenodd" clip-rule="evenodd" d="M110.104 48.6561L112.583 51.0303C112.747 51.1946 112.938 51.314 113.143 51.3886C113.312 51.4526 113.495 51.4877 113.687 51.4877H121.003C121.089 51.4877 121.158 51.5567 121.158 51.6418C121.158 51.6826 121.141 51.7217 121.112 51.7506L119.293 53.5726C119.148 53.7173 118.952 53.7986 118.748 53.7986H112.918C111.22 53.7986 109.843 52.4191 109.843 50.7174V48.7673C109.843 48.6823 109.912 48.6133 109.997 48.6133C110.037 48.6133 110.075 48.6286 110.104 48.6561Z" fill="black"/>
<path fill-rule="evenodd" clip-rule="evenodd" d="M114.976 37.1117L112.606 39.5967C112.442 39.761 112.323 39.9532 112.248 40.1581C112.184 40.3274 112.149 40.5111 112.149 40.7029V48.0352C112.149 48.1203 112.08 48.1892 111.995 48.1892C111.954 48.1892 111.915 48.1729 111.886 48.1439L110.068 46.3205C109.924 46.1761 109.843 45.9805 109.843 45.7766V39.9325C109.843 38.2308 111.22 36.8513 112.918 36.8513H114.864C114.949 36.8513 115.018 36.9203 115.018 37.0054C115.018 37.045 115.003 37.083 114.976 37.1117Z" fill="black"/>
</g>
<defs>
<clipPath id="clip0_401_1220">
<rect width="50" height="50" fill="white" transform="translate(20 20)"/>
</clipPath>
<clipPath id="clip1_401_1220">
<rect width="96" height="25" fill="white" transform="translate(106 33)"/>
</clipPath>
</defs>
</svg>
