<svg width="250" height="82" viewBox="0 0 250 82" fill="none" xmlns="http://www.w3.org/2000/svg">
<g clip-path="url(#clip0_401_769)">
<path d="M30.7086 47.4962C30.7086 50.3702 28.3858 52.693 25.5118 52.693C22.6378 52.693 20.3149 50.3702 20.3149 47.4962C20.3149 44.6221 22.6378 42.2993 25.5118 42.2993H30.7086V47.4962ZM33.3071 47.4962C33.3071 44.6221 35.6299 42.2993 38.5039 42.2993C41.3779 42.2993 43.7008 44.6221 43.7008 47.4962V60.4883C43.7008 63.3623 41.3779 65.6851 38.5039 65.6851C35.6299 65.6851 33.3071 63.3623 33.3071 60.4883V47.4962Z" fill="#E01E5A"/>
<path d="M38.5037 26.63C35.6297 26.63 33.3069 24.3072 33.3069 21.4332C33.3069 18.5592 35.6297 16.2363 38.5037 16.2363C41.3778 16.2363 43.7006 18.5592 43.7006 21.4332V26.63H38.5037ZM38.5037 29.2678C41.3778 29.2678 43.7006 31.5907 43.7006 34.4647C43.7006 37.3387 41.3778 39.6615 38.5037 39.6615H25.4722C22.5982 39.6615 20.2754 37.3387 20.2754 34.4647C20.2754 31.5907 22.5982 29.2678 25.4722 29.2678H38.5037Z" fill="#36C5F0"/>
<path d="M59.3305 34.4647C59.3305 31.5907 61.6533 29.2678 64.5274 29.2678C67.4014 29.2678 69.7242 31.5907 69.7242 34.4647C69.7242 37.3387 67.4014 39.6615 64.5274 39.6615H59.3305V34.4647ZM56.7321 34.4647C56.7321 37.3387 54.4092 39.6615 51.5352 39.6615C48.6612 39.6615 46.3384 37.3387 46.3384 34.4647V21.4332C46.3384 18.5592 48.6612 16.2363 51.5352 16.2363C54.4092 16.2363 56.7321 18.5592 56.7321 21.4332V34.4647Z" fill="#2EB67D"/>
<path d="M51.5352 55.2914C54.4092 55.2914 56.7321 57.6143 56.7321 60.4883C56.7321 63.3623 54.4092 65.6851 51.5352 65.6851C48.6612 65.6851 46.3384 63.3623 46.3384 60.4883V55.2914H51.5352ZM51.5352 52.693C48.6612 52.693 46.3384 50.3702 46.3384 47.4962C46.3384 44.6221 48.6612 42.2993 51.5352 42.2993H64.5667C67.4407 42.2993 69.7636 44.6221 69.7636 47.4962C69.7636 50.3702 67.4407 52.693 64.5667 52.693H51.5352Z" fill="#ECB22E"/>
</g>
<g clip-path="url(#clip1_401_769)">
<path d="M121.526 48.7822L122.747 45.9297C124.083 46.9193 125.826 47.4431 127.569 47.4431C128.847 47.4431 129.661 46.9485 129.661 46.1918C129.632 44.096 121.962 45.726 121.904 40.4568C121.875 37.7789 124.257 35.7123 127.627 35.7123C129.632 35.7123 131.637 36.2073 133.06 37.3427L131.92 40.256C130.61 39.4139 128.992 38.8268 127.453 38.8268C126.407 38.8268 125.71 39.3214 125.71 39.9622C125.739 42.0289 133.467 40.8935 133.554 45.9297C133.554 48.666 131.23 50.5872 127.917 50.5872C125.477 50.5872 123.24 50.0052 121.526 48.7822H121.526ZM170.121 44.8968C169.813 45.4442 169.365 45.8997 168.823 46.2168C168.281 46.5338 167.664 46.7009 167.036 46.701C165.078 46.701 163.492 45.111 163.492 43.1497C163.492 41.1885 165.078 39.5985 167.036 39.5985C167.664 39.5985 168.281 39.7657 168.823 40.0827C169.365 40.3997 169.813 40.8553 170.121 41.4027L173.514 39.5193C172.243 37.2481 169.819 35.7123 167.036 35.7123C162.936 35.7123 159.613 39.0418 159.613 43.1497C159.613 47.2572 162.936 50.5872 167.036 50.5872C169.819 50.5872 172.243 49.0514 173.514 46.7802L170.121 44.8968ZM135.756 50.296H139.997V29.521H135.756L135.756 50.296ZM175.656 29.521V50.296H179.898V44.0718L184.924 50.296H190.346L183.954 42.9018L189.881 36.0023H184.692L179.898 41.7385V29.521H175.656ZM153.065 36.0031V37.6918C152.368 36.5272 150.654 35.7123 148.853 35.7123C145.134 35.7123 142.2 39.0018 142.2 43.1352C142.2 47.2685 145.134 50.5872 148.853 50.5872C150.654 50.5872 152.368 49.7722 153.065 48.6077V50.296H157.307V36.0031H153.065ZM153.065 44.9256C152.455 45.9443 151.177 46.7006 149.754 46.7006C147.796 46.7006 146.209 45.111 146.209 43.1497C146.209 41.1885 147.796 39.5985 149.754 39.5985C151.177 39.5985 152.455 40.3843 153.065 41.4318V44.9256Z" fill="black"/>
<path d="M99.1258 29.0618C97.7512 29.0618 96.6371 30.1784 96.6371 31.5555C96.6368 31.8827 96.7009 32.2067 96.8258 32.5091C96.9507 32.8115 97.1339 33.0863 97.365 33.3178C97.5961 33.5494 97.8705 33.7332 98.1727 33.8587C98.4748 33.9842 98.7987 34.0489 99.1258 34.0493H101.615V31.5555C101.616 30.8948 101.354 30.2608 100.887 29.7932C100.42 29.3255 99.7866 29.0624 99.1258 29.0618ZM99.1258 35.7118H92.4887C91.1142 35.7118 90 36.8284 90 38.2059C90 39.583 91.1142 40.6997 92.4887 40.6997H99.1263C100.5 40.6997 101.615 39.583 101.615 38.2059C101.615 36.8284 100.5 35.7118 99.1258 35.7118Z" fill="#2FBDEE"/>
<path d="M114.889 38.2059C114.889 36.8284 113.775 35.7118 112.4 35.7118C111.026 35.7118 109.912 36.8284 109.912 38.2059V40.6997H112.4C113.061 40.699 113.694 40.4359 114.161 39.9683C114.628 39.5006 114.89 38.8667 114.889 38.2059ZM108.252 38.2059V31.5555C108.253 30.8948 107.991 30.2608 107.524 29.7932C107.057 29.3255 106.424 29.0624 105.763 29.0618C104.389 29.0618 103.274 30.1784 103.274 31.5555V38.2055C103.274 39.5834 104.389 40.7001 105.763 40.7001C106.424 40.6994 107.057 40.4363 107.524 39.9687C107.991 39.501 108.253 38.8671 108.252 38.2064" fill="#29AD72"/>
<path d="M105.763 54.0002C106.424 53.9996 107.057 53.7365 107.524 53.2688C107.991 52.8012 108.253 52.1672 108.252 51.5065C108.253 50.8457 107.991 50.2118 107.524 49.7441C107.057 49.2765 106.424 49.0134 105.763 49.0127H103.274V51.5065C103.274 52.8836 104.389 54.0002 105.763 54.0002ZM105.763 47.3502H112.401C113.775 47.3502 114.889 46.2336 114.889 44.8561C114.89 44.1953 114.628 43.5614 114.161 43.0937C113.694 42.6261 113.061 42.363 112.4 42.3623H105.763C104.389 42.3623 103.274 43.479 103.274 44.8561C103.274 45.1832 103.338 45.5072 103.463 45.8096C103.588 46.112 103.771 46.3868 104.002 46.6184C104.233 46.8499 104.508 47.0337 104.81 47.1592C105.112 47.2847 105.436 47.3495 105.763 47.3498" fill="#E9A929"/>
<path d="M90 44.8561C89.9997 45.1832 90.0638 45.5072 90.1887 45.8096C90.3136 46.112 90.4968 46.3868 90.7279 46.6184C90.959 46.8499 91.2335 47.0337 91.5356 47.1592C91.8377 47.2847 92.1616 47.3495 92.4887 47.3498C93.1495 47.3491 93.783 47.086 94.2498 46.6184C94.7165 46.1507 94.9785 45.5168 94.9779 44.8561V42.3623H92.4887C91.1142 42.3623 90 43.479 90 44.8561ZM96.6371 44.8561V51.5061C96.6371 52.8836 97.7512 54.0002 99.1258 54.0002C99.7866 53.9996 100.42 53.7365 100.887 53.2688C101.354 52.8012 101.616 52.1672 101.615 51.5065V44.8561C101.615 44.5289 101.551 44.2048 101.426 43.9024C101.301 43.6 101.118 43.3252 100.887 43.0936C100.656 42.862 100.381 42.6783 100.079 42.5528C99.777 42.4273 99.453 42.3626 99.1258 42.3623C97.7512 42.3623 96.6371 43.479 96.6371 44.8561Z" fill="#DC1C50"/>
</g>
<defs>
<clipPath id="clip0_401_769">
<rect width="50" height="50" fill="white" transform="translate(20 16)"/>
</clipPath>
<clipPath id="clip1_401_769">
<rect width="100" height="25" fill="white" transform="translate(90 29)"/>
</clipPath>
</defs>
</svg>
