<svg width="250" height="82" viewBox="0 0 250 82" fill="none" xmlns="http://www.w3.org/2000/svg">
<g clip-path="url(#clip0_401_3153)">
<path d="M65.1775 46.6804C64.1124 46.6804 63.284 45.852 63.1656 44.7869C62.4556 34.6094 56.8934 20.2602 46.568 20.2602C38.0473 20.2602 31.6272 26.1774 27.4852 37.923C27.1301 38.9881 25.9467 39.5798 24.8816 39.1064C23.8165 38.7514 23.2248 37.5679 23.6982 36.6212C28.4319 23.1005 36.1538 16.2366 46.568 16.2366C60.2071 16.2366 66.4792 33.5443 67.1893 44.5502C67.3076 45.6153 66.4792 46.6804 65.2958 46.6804H65.1775Z" fill="#1D2D35"/>
<path opacity="0.4" d="M69.9114 50.5858L34.3492 65.2899L20.2368 31.1481L26.6273 28.5445L55.8877 16.5623L69.9114 50.5858Z" fill="#FFE000"/>
<path d="M68.2544 54.5207L30.5621 62.3313L23.1064 26.1775L29.3786 24.8757L60.7988 18.3668L68.2544 54.5207Z" fill="#FFE000"/>
<path d="M46.0948 54.1656C39.2309 54.1656 32.5741 51.207 27.9588 45.9999C27.367 45.5265 27.2487 44.6981 27.4854 43.9881C28.7872 40.5561 32.2191 32.5975 36.5978 32.4792C38.8463 32.4792 40.5031 34.2543 41.8049 35.6744C42.1599 36.1478 42.7517 36.7395 43.225 37.0946C44.2901 36.0295 46.3019 32.7159 47.8404 29.2839C48.3138 28.2188 49.4972 27.8638 50.5623 28.3372C51.6274 28.8105 51.9824 29.994 51.509 31.0591C46.7753 41.3549 44.2901 41.3549 43.3434 41.3549C41.4499 41.3549 40.1481 39.9348 38.8463 38.5147C38.2546 37.923 37.0712 36.6212 36.5978 36.6212C35.5327 36.7395 33.2842 40.4082 31.7457 44.3135C35.6511 48.2189 40.9765 50.3491 46.4499 50.2307C51.1836 50.2307 59.6156 49.4023 63.0475 44.3135C62.1008 34.136 56.5386 20.3786 46.4499 20.3786C45.3848 20.3786 44.438 19.4318 44.438 18.3667C44.438 17.3017 45.3848 16.2366 46.5682 16.2366C60.2073 16.2366 66.4795 33.5443 67.1895 44.5502C67.1895 44.9052 67.0712 45.3786 66.9528 45.7337C63.7576 51.1775 56.5386 54.2544 46.5682 54.2544C46.4499 54.1656 46.2132 54.1656 46.0948 54.1656Z" fill="#1D2D35"/>
</g>
<g clip-path="url(#clip1_401_3153)">
<path d="M127.267 44.1333C126.667 44.1333 126.2 43.6667 126.133 43.0667C125.733 37.3333 122.6 29.2667 116.8 29.2667C112 29.2667 108.4 32.6 106.067 39.2C105.867 39.8 105.2 40.1333 104.6 39.8667C104 39.6667 103.667 39 103.933 38.4667C106.6 30.8667 110.933 27 116.8 27C124.467 27 128 36.7333 128.4 42.9333C128.467 43.5333 128 44.1333 127.333 44.1333H127.267Z" fill="#1D2D35"/>
<path opacity="0.4" d="M129.933 46.3332L109.933 54.5998L102 35.3998L105.6 33.9332L122.067 27.1998L129.933 46.3332Z" fill="#FFE000"/>
<path d="M129 48.5332L107.8 52.9332L103.6 32.5998L107.133 31.8665L124.8 28.1998L129 48.5332Z" fill="#FFE000"/>
<path d="M116.533 48.3333C112.667 48.3333 108.933 46.6667 106.333 43.7333C106 43.4667 105.933 43 106.067 42.6C106.8 40.6667 108.733 36.2 111.2 36.1333C112.467 36.1333 113.4 37.1333 114.133 37.9333C114.333 38.2 114.667 38.5333 114.933 38.7333C115.533 38.1333 116.667 36.2667 117.533 34.3333C117.8 33.7333 118.467 33.5333 119.067 33.8C119.667 34.0667 119.867 34.7333 119.6 35.3333C116.933 41.1333 115.533 41.1333 115 41.1333C113.933 41.1333 113.2 40.3333 112.467 39.5333C112.133 39.2 111.467 38.4667 111.2 38.4667C110.6 38.5333 109.333 40.6 108.467 42.8C110.667 45 113.667 46.2 116.733 46.1333C119.4 46.1333 124.133 45.6667 126.067 42.8C125.533 37.0667 122.4 29.3333 116.733 29.3333C116.133 29.3333 115.6 28.8 115.6 28.2C115.6 27.6 116.133 27 116.8 27C124.467 27 128 36.7333 128.4 42.9333C128.4 43.1333 128.333 43.4 128.267 43.6C126.467 46.6667 122.4 48.4 116.8 48.4C116.733 48.3333 116.6 48.3333 116.533 48.3333Z" fill="#1D2D35"/>
<path d="M133.2 32.6666H137.267C139.534 32.6666 140.734 33.6 140.734 35.3333V35.4C140.8 36.4666 140.067 37.4 139.067 37.6C140.334 37.7333 141.2 38.8 141.134 40.0666V40.1333C141.134 42.0666 139.867 43.0666 137.467 43.0666H133.2V32.6666ZM136.867 36.9333C138 36.9333 138.467 36.5333 138.467 35.6V35.5333C138.467 34.6666 138 34.2666 136.867 34.2666H135.467V36.9333H136.867ZM137.134 41.4C138.267 41.4 138.8 40.8666 138.8 39.9333V39.8666C138.8 38.9333 138.267 38.4 137 38.4H135.534V41.4H137.134Z" fill="#1D2D35"/>
<path d="M141.733 40.9333C141.733 39.1999 143.333 38.5333 145.667 38.5333H146.533V38.1999C146.533 37.2666 146.267 36.7999 145.333 36.7999C144.733 36.7333 144.133 37.1333 144.067 37.7999V37.8666H142.067C142.2 36.0666 143.6 35.2666 145.467 35.2666C147.333 35.2666 148.667 35.9999 148.667 38.0666V42.9999H146.6V42.1333C146.067 42.8666 145.2 43.2666 144.333 43.1999C142.867 43.1999 141.733 42.5333 141.733 40.9333ZM146.533 40.3999V39.7333H145.733C144.533 39.7333 143.8 39.9999 143.8 40.7999C143.8 41.3333 144.133 41.7333 144.933 41.7333C145.8 41.7333 146.533 41.1999 146.533 40.3999Z" fill="#1D2D35"/>
<path d="M149.467 40.6666H151.4C151.467 41.3333 151.8 41.7333 152.733 41.7333C153.667 41.7333 153.933 41.3999 153.933 40.9333C153.933 40.4666 153.467 40.1999 152.4 39.9999C150.4 39.6666 149.6 39.1333 149.6 37.5999C149.6 36.0666 151 35.2666 152.6 35.2666C154.267 35.2666 155.533 35.8666 155.733 37.5999H153.8C153.667 36.9999 153.333 36.6666 152.6 36.6666C151.867 36.6666 151.533 36.9999 151.533 37.4666C151.533 37.9333 151.867 38.1333 153 38.2666C154.867 38.5333 155.933 38.9999 155.933 40.6666C155.933 42.3333 154.733 43.1999 152.733 43.1999C150.733 43.1999 149.533 42.2666 149.467 40.6666Z" fill="#1D2D35"/>
<path d="M156.533 39.3333V39.1999C156.4 37.1333 158 35.3333 160.133 35.2666H160.466C162.4 35.2666 164.2 36.3999 164.2 39.1333V39.7333H158.666C158.733 40.9999 159.4 41.7333 160.533 41.7333C161.533 41.7333 162 41.3333 162.133 40.6666H164.133C163.866 42.3333 162.6 43.1999 160.533 43.1999C158.2 43.1999 156.533 41.7333 156.533 39.3333ZM162.066 38.3999C162 37.2666 161.4 36.6666 160.4 36.6666C159.466 36.6666 158.666 37.3999 158.666 38.3999H162.066Z" fill="#1D2D35"/>
<path d="M164.667 39.3333V39.1999C164.6 37.1333 166.2 35.3333 168.267 35.2666H168.6C170.333 35.2666 172 35.9999 172.133 38.1999H170.133C170.066 37.4666 169.4 36.8666 168.666 36.9333C167.6 36.9333 166.867 37.7333 166.867 39.1999V39.3333C166.867 40.8666 167.533 41.6666 168.733 41.6666C169.6 41.7333 170.333 41.0666 170.333 40.1999H172.2C172.066 41.9999 170.8 43.2666 168.6 43.2666C166.4 43.2666 164.667 41.7999 164.667 39.3333Z" fill="#1D2D35"/>
<path d="M172.733 40.9334C172.733 39.2 174.333 38.5334 176.667 38.5334H177.533V38.2C177.533 37.2667 177.267 36.8 176.333 36.8C175.733 36.7334 175.133 37.1334 175.067 37.8V37.9334H173.067C173.2 36.1334 174.6 35.3334 176.467 35.3334C178.333 35.3334 179.667 36.0667 179.667 38.1334V43H177.6V42.1334C177.067 42.8667 176.2 43.2667 175.333 43.2C173.867 43.2 172.733 42.5334 172.733 40.9334ZM177.467 40.4V39.7334H176.667C175.467 39.7334 174.733 40 174.733 40.8C174.733 41.3334 175.067 41.7334 175.867 41.7334C176.8 41.7334 177.467 41.2 177.467 40.4Z" fill="#1D2D35"/>
<path d="M181 35.4667H183.133V36.6C183.6 35.7334 184.467 35.2667 185.467 35.2667C186.4 35.2 187.267 35.7334 187.6 36.6C188.2 35.7334 189.133 35.2667 190.133 35.2667C191.533 35.2667 192.667 36.1334 192.667 38.2V43H190.6V38.4C190.6 37.4 190.2 37 189.4 37C188.6 36.9334 187.933 37.6 187.933 38.3334V38.5334V43H185.867V38.4C185.867 37.4 185.4 37 184.667 37C183.867 36.9334 183.267 37.6 183.2 38.3334V38.5334V43H181.067L181 35.4667Z" fill="#1D2D35"/>
<path d="M194.067 35.4667H196.134V36.6667C196.667 35.8 197.6 35.3334 198.534 35.3334C200.4 35.3334 201.867 36.7334 201.867 39.2V39.3334C201.867 41.8667 200.467 43.2667 198.534 43.2667C197.534 43.3334 196.6 42.8 196.134 41.9334V45.6667H194.067V35.4667ZM199.734 39.2667V39.1334C199.734 37.6 199 36.8667 197.934 36.8667C196.867 36.8667 196.067 37.6 196.067 39.1334V39.2667C196.067 40.8 196.8 41.5334 197.934 41.5334C199.067 41.5334 199.734 40.7334 199.734 39.2667Z" fill="#1D2D35"/>
</g>
<defs>
<clipPath id="clip0_401_3153">
<rect width="50" height="49.4083" fill="white" transform="translate(20 16)"/>
</clipPath>
<clipPath id="clip1_401_3153">
<rect width="100" height="28" fill="white" transform="translate(102 27)"/>
</clipPath>
</defs>
</svg>
