<svg width="250" height="82" viewBox="0 0 250 82" fill="none" xmlns="http://www.w3.org/2000/svg">
<g clip-path="url(#clip0_401_133)">
<path d="M39.5897 29.0691C37.8451 29.0691 35.9763 30.4118 34.4752 33.5752L32.5461 28.9463H32.423C32.1033 29.6831 31.1173 30.0768 30.1821 30.0768H20.0361V30.273C20.8482 30.6174 21.5626 31.796 22.2275 33.3937L28.5326 48.627H28.7293L32.827 38.7113L36.9301 48.627H37.1268L40.6239 39.9286C41.9777 36.5129 42.8647 34.6216 42.8647 32.9265C42.8647 30.6654 41.6098 29.0691 39.5897 29.0691ZM30.1313 43.3588L26.0443 33.4176C25.3794 31.796 25.9948 30.6414 27.6698 30.6414C29.1467 30.6414 29.8865 31.6238 30.625 33.3937L32.4311 37.7556L30.1313 43.3588ZM39.9349 39.6336L38.5088 43.2506L34.72 34.1611C35.6485 32.8197 36.8498 32.3112 38.2344 32.3112C39.884 32.3112 40.87 33.4417 40.87 35.4812C40.87 36.6117 40.5744 38.0132 39.9349 39.6336Z" fill="black"/>
<path d="M92.9326 38.9219C92.9326 36.9077 90.8641 35.4329 88.2289 35.4329C84.2392 35.4329 81.5303 38.8725 81.5303 42.4843C81.5303 46.4151 84.535 48.7749 87.5143 48.7749C89.9035 48.7749 92.2181 47.3253 92.9326 44.7947L92.7599 44.6479C91.9476 45.8518 90.5434 46.5152 89.1397 46.5152C87.2922 46.5152 85.7899 45.4581 85.0768 43.5667C88.8937 42.9515 92.9326 41.9184 92.9326 38.9219ZM84.9045 42.9754C84.757 42.3856 84.6824 41.7476 84.6824 41.0842C84.6824 37.8901 86.0359 36.0962 87.711 36.0962C89.0167 36.0962 89.4101 37.2014 89.4101 38.3813C89.4101 40.8372 87.1946 42.4843 84.9045 42.9754Z" fill="black"/>
<path d="M117.24 35.0632C115.542 35.0632 113.915 36.6609 112.913 38.8165L111.23 35.2835H111.034C110.714 36.4874 109.212 37.1748 107.56 37.1508V37.347C108.595 37.5926 109.037 38.5749 109.678 39.8777L114.037 48.8457L113.741 49.3863C112.805 51.2296 112.166 51.8929 111.5 51.8929C110.294 51.8929 110.195 50.1484 108.742 50.1484C107.88 50.1484 107.166 50.7384 107.166 51.7701C107.166 52.9247 108.446 53.6614 109.776 53.6614C111.721 53.6614 112.928 52.1385 114.234 49.6813L117.607 43.3907C118.961 40.86 119.701 39.7549 119.701 37.8622C119.703 36.3419 118.816 35.0632 117.24 35.0632ZM117.018 43.0743L115.934 45.1631L113.153 39.3237C113.685 38.3801 114.621 37.6193 116.007 37.6193C117.313 37.6193 118.002 38.4294 118.002 39.7576C118.004 40.6665 117.682 41.7957 117.018 43.0743Z" fill="black"/>
<path d="M56.6071 45.8506V38.2585C56.6071 36.5634 55.5476 35.4329 53.9716 35.4329C52.076 35.4329 49.6867 37.1534 48.4063 38.4053V28.1599H48.2338C47.4699 29.3639 45.5006 30.1006 43.6035 30.0512V30.2474C44.6872 30.5424 45.0069 31.3046 45.0069 32.7781V45.8492C45.0069 46.9544 44.5145 47.8393 43.6277 48.2077V48.4038H49.8338V48.2077C48.9227 47.6912 48.405 46.9544 48.405 45.8986V39.0434C49.8578 37.9862 50.9669 37.471 51.779 37.471C52.69 37.471 53.2078 38.1344 53.2078 39.4852V45.8986C53.2078 46.9557 52.7396 47.6671 51.779 48.2077V48.4038H57.9852V48.2077C57.0994 47.8406 56.6071 46.9557 56.6071 45.8506Z" fill="black"/>
<path d="M102.71 35.4329C100.937 35.4329 99.2366 36.7356 98.3014 37.742V28.1599H98.1544C97.2675 29.3639 95.2234 30.1006 93.4009 30.0512V30.2474C94.4112 30.5424 94.8779 31.3286 94.8779 32.7781V48.6508H95.0999L96.7258 46.8329C97.4398 47.9635 98.7938 48.6508 100.419 48.6508C104.507 48.6508 107.314 45.1619 107.314 41.3538C107.314 37.8648 105.123 35.4329 102.71 35.4329ZM100.32 47.9875C99.1136 47.9875 98.3014 47.0051 98.3014 45.653V38.4294C99.1136 37.7167 100.026 37.0533 101.035 37.0786C102.759 37.1027 103.744 39.0447 103.768 42.0172C103.793 45.3834 102.414 47.9875 100.32 47.9875Z" fill="black"/>
<path d="M79.6096 35.4329C78.2556 35.4329 76.7777 36.8825 76.0885 38.2586V35.2861H75.8918C75.0542 36.4901 73.0838 37.2028 71.2373 37.1775V37.3737C72.2476 37.6687 72.7401 38.4789 72.7401 39.9044V45.7518C72.7401 46.8823 72.2476 47.7659 71.2631 48.209V48.4053H77.6162V48.209C76.6063 47.7673 76.1636 46.8823 76.1636 45.7518V38.8726C76.5326 38.4054 76.9514 37.9143 77.4439 37.9143C78.3547 37.9143 78.7242 39.0194 79.857 39.0194C80.6453 39.0194 81.4584 38.3801 81.4584 37.299C81.4556 36.2191 80.5941 35.4329 79.6096 35.4329Z" fill="black"/>
<path d="M70.1026 38.9219C70.1026 36.9077 68.034 35.4329 65.3987 35.4329C61.4093 35.4329 58.7002 38.8725 58.7002 42.4843C58.7002 46.4151 61.7049 48.7749 64.6843 48.7749C67.0735 48.7749 69.388 47.3253 70.1026 44.7947L69.9298 44.6479C69.1181 45.8518 67.7129 46.5152 66.3097 46.5152C64.4622 46.5152 62.9598 45.4581 62.2468 43.5667C66.0636 42.9515 70.1026 41.9184 70.1026 38.9219ZM62.0743 42.9754C61.927 42.3856 61.8522 41.7476 61.8522 41.0842C61.8522 37.8901 63.206 36.0962 64.881 36.0962C66.1867 36.0962 66.6054 37.2014 66.6054 38.3813C66.6054 40.8372 64.3646 42.4843 62.0743 42.9754Z" fill="black"/>
</g>
<g clip-path="url(#clip1_401_133)">
<path d="M148.59 29.0691C146.845 29.0691 144.976 30.4118 143.475 33.5752L141.546 28.9463H141.423C141.103 29.6831 140.117 30.0768 139.182 30.0768H129.036V30.273C129.848 30.6174 130.563 31.796 131.227 33.3937L137.533 48.627H137.729L141.827 38.7113L145.93 48.627H146.127L149.624 39.9286C150.978 36.5129 151.865 34.6216 151.865 32.9265C151.865 30.6654 150.61 29.0691 148.59 29.0691ZM139.131 43.3588L135.044 33.4176C134.379 31.796 134.995 30.6414 136.67 30.6414C138.147 30.6414 138.887 31.6238 139.625 33.3937L141.431 37.7556L139.131 43.3588ZM148.935 39.6336L147.509 43.2506L143.72 34.1611C144.649 32.8197 145.85 32.3112 147.234 32.3112C148.884 32.3112 149.87 33.4417 149.87 35.4812C149.87 36.6117 149.574 38.0132 148.935 39.6336Z" fill="black"/>
<path d="M201.933 38.9219C201.933 36.9077 199.864 35.4329 197.229 35.4329C193.239 35.4329 190.53 38.8725 190.53 42.4843C190.53 46.4151 193.535 48.7749 196.514 48.7749C198.904 48.7749 201.218 47.3253 201.933 44.7947L201.76 44.6479C200.948 45.8518 199.543 46.5152 198.14 46.5152C196.292 46.5152 194.79 45.4581 194.077 43.5667C197.894 42.9515 201.933 41.9184 201.933 38.9219ZM193.904 42.9754C193.757 42.3856 193.682 41.7476 193.682 41.0842C193.682 37.8901 195.036 36.0962 196.711 36.0962C198.017 36.0962 198.41 37.2014 198.41 38.3813C198.41 40.8372 196.195 42.4843 193.904 42.9754Z" fill="black"/>
<path d="M226.24 35.0632C224.542 35.0632 222.915 36.6609 221.913 38.8165L220.23 35.2835H220.034C219.714 36.4874 218.212 37.1748 216.56 37.1508V37.347C217.595 37.5926 218.037 38.5749 218.678 39.8777L223.037 48.8457L222.741 49.3863C221.805 51.2296 221.166 51.8929 220.5 51.8929C219.294 51.8929 219.195 50.1484 217.742 50.1484C216.88 50.1484 216.166 50.7384 216.166 51.7701C216.166 52.9247 217.446 53.6614 218.776 53.6614C220.721 53.6614 221.928 52.1385 223.234 49.6813L226.607 43.3907C227.961 40.86 228.701 39.7549 228.701 37.8622C228.703 36.3419 227.816 35.0632 226.24 35.0632ZM226.018 43.0743L224.934 45.1631L222.153 39.3237C222.685 38.3801 223.621 37.6193 225.007 37.6193C226.313 37.6193 227.002 38.4294 227.002 39.7576C227.004 40.6665 226.682 41.7957 226.018 43.0743Z" fill="black"/>
<path d="M165.607 45.8506V38.2585C165.607 36.5634 164.548 35.4329 162.972 35.4329C161.076 35.4329 158.687 37.1534 157.406 38.4053V28.1599H157.234C156.47 29.3639 154.501 30.1006 152.604 30.0512V30.2474C153.687 30.5424 154.007 31.3046 154.007 32.7781V45.8492C154.007 46.9544 153.515 47.8393 152.628 48.2077V48.4038H158.834V48.2077C157.923 47.6912 157.405 46.9544 157.405 45.8986V39.0434C158.858 37.9862 159.967 37.471 160.779 37.471C161.69 37.471 162.208 38.1344 162.208 39.4852V45.8986C162.208 46.9557 161.74 47.6671 160.779 48.2077V48.4038H166.985V48.2077C166.099 47.8406 165.607 46.9557 165.607 45.8506Z" fill="black"/>
<path d="M211.71 35.4329C209.937 35.4329 208.237 36.7356 207.301 37.742V28.1599H207.154C206.268 29.3639 204.223 30.1006 202.401 30.0512V30.2474C203.411 30.5424 203.878 31.3286 203.878 32.7781V48.6508H204.1L205.726 46.8329C206.44 47.9635 207.794 48.6508 209.419 48.6508C213.507 48.6508 216.314 45.1619 216.314 41.3538C216.314 37.8648 214.123 35.4329 211.71 35.4329ZM209.32 47.9875C208.114 47.9875 207.301 47.0051 207.301 45.653V38.4294C208.114 37.7167 209.026 37.0533 210.035 37.0786C211.759 37.1027 212.744 39.0447 212.768 42.0172C212.793 45.3834 211.414 47.9875 209.32 47.9875Z" fill="black"/>
<path d="M188.61 35.4329C187.256 35.4329 185.778 36.8825 185.088 38.2586V35.2861H184.892C184.054 36.4901 182.084 37.2028 180.237 37.1775V37.3737C181.248 37.6687 181.74 38.4789 181.74 39.9044V45.7518C181.74 46.8823 181.248 47.7659 180.263 48.209V48.4053H186.616V48.209C185.606 47.7673 185.164 46.8823 185.164 45.7518V38.8726C185.533 38.4054 185.951 37.9143 186.444 37.9143C187.355 37.9143 187.724 39.0194 188.857 39.0194C189.645 39.0194 190.458 38.3801 190.458 37.299C190.456 36.2191 189.594 35.4329 188.61 35.4329Z" fill="black"/>
<path d="M179.103 38.9219C179.103 36.9077 177.034 35.4329 174.399 35.4329C170.409 35.4329 167.7 38.8725 167.7 42.4843C167.7 46.4151 170.705 48.7749 173.684 48.7749C176.073 48.7749 178.388 47.3253 179.103 44.7947L178.93 44.6479C178.118 45.8518 176.713 46.5152 175.31 46.5152C173.462 46.5152 171.96 45.4581 171.247 43.5667C175.064 42.9515 179.103 41.9184 179.103 38.9219ZM171.074 42.9754C170.927 42.3856 170.852 41.7476 170.852 41.0842C170.852 37.8901 172.206 36.0962 173.881 36.0962C175.187 36.0962 175.605 37.2014 175.605 38.3813C175.605 40.8372 173.365 42.4843 171.074 42.9754Z" fill="black"/>
</g>
<defs>
<clipPath id="clip0_401_133">
<rect width="100" height="25.8216" fill="white" transform="translate(20 28)"/>
</clipPath>
<clipPath id="clip1_401_133">
<rect width="100" height="25.8216" fill="white" transform="translate(129 28)"/>
</clipPath>
</defs>
</svg>
