<svg width="250" height="82" viewBox="0 0 250 82" fill="none" xmlns="http://www.w3.org/2000/svg">
<g clip-path="url(#clip0_401_1562)">
<path d="M48.792 36.5901L58.292 20.135C63.4362 23.4604 67.1624 28.5773 68.7485 34.4938C70.3345 40.4103 69.6673 46.7049 66.8763 52.1575L50.4212 42.6687C49.9151 42.3766 49.4714 41.9876 49.1156 41.524C48.7598 41.0605 48.4988 40.5314 48.3475 39.9669C48.1962 39.4024 48.1576 38.8137 48.2339 38.2343C48.3102 37.6548 48.4998 37.0961 48.792 36.5901Z" fill="#F8B228"/>
<path d="M49.2134 44.8092L65.6685 54.3092C62.3422 59.4523 57.2249 63.1774 51.3085 64.7624C45.3921 66.3474 39.098 65.6793 33.646 62.8878L43.146 46.4384C43.7359 45.4192 44.7058 44.6754 45.8431 44.37C46.9804 44.0646 48.1923 44.2225 49.2134 44.8092Z" fill="#2D1D2F"/>
<path d="M31.4666 61.6517L44.4554 39.1798C44.5814 39.0059 44.6377 38.791 44.6133 38.5777C44.5889 38.3643 44.4854 38.1678 44.3234 38.0269C44.1613 37.8859 43.9523 37.8107 43.7376 37.8162C43.5229 37.8216 43.318 37.9073 43.1632 38.0562C36.8424 43.2722 29.6018 47.2602 21.8149 49.8146C23.6925 54.6857 27.0732 58.8319 31.4666 61.6517Z" fill="#6AB3E3"/>
<path d="M21.0505 47.4608C35.8623 42.5846 48.3584 32.4225 56.1516 18.9158C51.8831 16.7308 47.0711 15.8346 42.302 16.3364C37.5331 16.8382 33.0129 18.7162 29.2925 21.7417C25.5721 24.7672 22.8121 28.8096 21.3486 33.3761C19.8852 37.9427 19.7816 42.8364 21.0505 47.4608Z" fill="#E41E26"/>
</g>
<g clip-path="url(#clip1_401_1562)">
<path d="M99 41.72C98.9976 41.0522 99.1157 40.3895 99.3488 39.7638C99.5708 39.161 99.9108 38.6086 100.349 38.1388C101.295 37.1296 102.525 36.625 104.036 36.625C105.548 36.625 106.744 37.1 107.625 38.05C108.473 38.9542 108.897 40.1279 108.896 41.5712C108.895 43.0146 108.459 44.2104 107.586 45.1587C106.664 46.1587 105.44 46.6587 103.916 46.6587C102.343 46.6587 101.11 46.1662 100.218 45.1812C99.4059 44.2862 99 43.1325 99 41.72ZM101.259 41.665C101.258 42.0509 101.324 42.434 101.454 42.7975C101.573 43.1456 101.763 43.4653 102.011 43.7362C102.525 44.3004 103.2 44.5825 104.036 44.5825C104.811 44.5825 105.422 44.3067 105.868 43.755C106.301 43.2225 106.518 42.5287 106.518 41.6737C106.518 40.8187 106.295 40.1188 105.849 39.5738C105.371 39.0038 104.718 38.7188 103.888 38.7188C103.046 38.7188 102.386 39.0208 101.909 39.625C101.465 40.2108 101.236 40.9307 101.259 41.665Z" fill="black"/>
<path d="M112.672 37.1663C113.327 36.8175 114.056 36.6326 114.797 36.6275C115.439 36.6116 116.077 36.7273 116.672 36.9675C117.193 37.1927 117.661 37.5229 118.047 37.9375C118.909 38.8742 119.34 40.0575 119.34 41.4875C119.34 43.055 118.872 44.3188 117.936 45.2788C117.038 46.2021 115.919 46.6638 114.581 46.6638C113.405 46.6638 112.436 46.3571 111.672 45.7438C110.817 45.0496 110.39 44.0913 110.391 42.8688V32.6975H112.667L112.672 37.1663ZM112.672 42.845C112.672 43.935 113.351 44.48 114.707 44.48C115.374 44.48 115.931 44.1883 116.38 43.605C116.828 43.0217 117.057 42.2813 117.067 41.3838C117.067 40.4929 116.826 39.8208 116.342 39.3675C115.909 38.965 115.326 38.7638 114.592 38.7638C114.152 38.7638 113.666 38.9125 113.134 39.21C112.971 39.2997 112.815 39.4021 112.669 39.5163L112.672 42.845Z" fill="black"/>
<path d="M119.809 36.8137H122.434L124.702 43.2075L126.894 36.8137H129.468L125.63 46.525H123.72L119.809 36.8137Z" fill="black"/>
<path d="M130.917 34.045C131.375 33.32 131.894 32.6358 132.469 32L134.469 33.57C134.201 33.8983 133.953 34.2208 133.725 34.5375L133.009 35.55L130.917 34.045ZM133.361 45.4838C133.354 45.8313 133.366 46.1789 133.397 46.525H131.037V36.8137H133.361V45.4838Z" fill="black"/>
<path d="M152.86 45.6789C152.068 46.3355 151.203 46.6639 150.268 46.6639C149.268 46.6639 148.481 46.3264 147.908 45.6514C147.363 44.9939 147.09 44.0922 147.089 42.9464V39.2576C147.089 38.0189 147.064 37.3076 147.01 37.1251C146.979 37.0066 146.941 36.8901 146.895 36.7764C147.178 36.8014 147.475 36.8139 147.786 36.8139H148.558C148.763 36.8139 149.031 36.8039 149.366 36.7864V42.1614C149.366 43.438 149.713 44.1784 150.408 44.3826C150.631 44.4459 150.862 44.477 151.094 44.4751C151.43 44.4864 151.764 44.4202 152.07 44.2817C152.376 44.1432 152.647 43.9361 152.86 43.6764V36.8139H155.165V45.3351C155.154 45.7332 155.179 46.1314 155.239 46.5251H152.864L152.86 45.6789Z" fill="black"/>
<path d="M161.032 46.6637C159.282 46.6637 157.965 46.3446 157.082 45.7062C157.094 45.5212 157.113 45.31 157.138 45.075L157.222 44.4062C157.27 43.9662 157.302 43.6912 157.314 43.5837C157.318 43.5239 157.327 43.4644 157.342 43.4062C157.342 43.3975 157.398 43.4475 157.49 43.555C157.647 43.712 157.825 43.8451 158.02 43.95C158.306 44.1168 158.608 44.2537 158.922 44.3587C159.663 44.6119 160.443 44.7387 161.227 44.7337C162.297 44.7337 162.833 44.3775 162.834 43.665C162.838 43.5593 162.811 43.4549 162.756 43.3642C162.702 43.2735 162.623 43.2004 162.528 43.1537C162.162 42.9687 161.624 42.8279 160.915 42.7312C160.319 42.6638 159.734 42.5218 159.173 42.3087C158.768 42.1518 158.394 41.9255 158.067 41.64C157.541 41.15 157.277 40.5087 157.277 39.7162C157.277 38.7496 157.648 37.9904 158.392 37.4387C159.135 36.8871 160.154 36.6158 161.449 36.625C162.737 36.625 163.837 36.9904 164.748 37.7212C164.704 37.8821 164.657 38.0371 164.609 38.1862C164.467 38.595 164.359 38.89 164.293 39.0687L164.079 39.625C164.067 39.675 164.057 39.6987 164.052 39.6987C163.992 39.6407 163.942 39.5736 163.903 39.5C163.512 39.0491 162.905 38.7521 162.082 38.6087C161.824 38.5585 161.563 38.5334 161.3 38.5337C160.173 38.5337 159.609 38.8746 159.609 39.5562C159.609 39.6708 159.642 39.783 159.705 39.8788C159.768 39.9747 159.857 40.0498 159.963 40.095C160.401 40.3316 161.004 40.505 161.77 40.615C162.537 40.725 163.117 40.8754 163.512 41.0662C163.872 41.2291 164.198 41.4614 164.469 41.75C164.916 42.2333 165.139 42.8746 165.138 43.6737C165.146 44.0861 165.055 44.4945 164.872 44.8642C164.689 45.2341 164.42 45.5546 164.088 45.7987C163.357 46.3762 162.338 46.6646 161.032 46.6637Z" fill="black"/>
<path d="M169.202 45.4837C169.194 45.8312 169.207 46.179 169.24 46.525H166.875V32.6787H169.199L169.202 45.4837Z" fill="black"/>
<path d="M171.226 49.7587L171.839 49.2662C172.763 48.5162 173.528 47.4103 174.135 45.9487L174.562 44.9162L171 36.8137H173.603L175.832 42.4262L177.905 36.8137H180.581C180.259 37.2596 179.865 38.0896 179.401 39.3037L178.01 42.75C176.145 47.1366 174.683 49.7516 173.625 50.595L171.226 49.7587Z" fill="black"/>
<path d="M180.147 46.525C180.2 46.1941 180.228 45.8598 180.231 45.525C180.231 45.2341 180.231 45.0341 180.231 44.925C180.231 44.8162 180.222 44.71 180.216 44.605C180.21 44.5 180.205 44.4 180.199 44.3075L180.17 44.075H182.865C182.846 44.31 182.837 44.5025 182.837 44.6512L182.819 45.0412V45.7062C182.816 45.9811 182.831 46.256 182.865 46.5287L180.147 46.525Z" fill="black"/>
<path d="M191.386 45.9488C190.506 46.4254 189.71 46.6638 188.997 46.6638C188.381 46.675 187.766 46.6078 187.167 46.4638C186.703 46.3515 186.264 46.1516 185.875 45.875C185.156 45.3491 184.797 44.5871 184.797 43.5888C184.797 42.6971 185.237 41.9538 186.116 41.3588C187.071 40.7146 188.366 40.3925 190.001 40.3925L190.376 40.4013C190.451 40.4079 190.534 40.4129 190.626 40.4163C190.71 40.4181 190.793 40.4256 190.876 40.4388C190.826 39.4479 190.399 38.8688 189.594 38.7013C189.314 38.6439 189.029 38.6158 188.744 38.6175C188.448 38.6171 188.152 38.6434 187.861 38.6963C187.576 38.7478 187.295 38.818 187.02 38.9063C186.419 39.0979 185.988 39.3175 185.727 39.565L185.7 39.5475L185.421 37.4938C186.53 36.913 187.765 36.6146 189.016 36.625C191.036 36.625 192.328 37.3529 192.891 38.8088C193.077 39.3113 193.168 39.8441 193.16 40.38V43.75C193.16 44.4692 193.414 44.9584 193.922 45.2175L192.241 46.76C191.887 46.5735 191.591 46.2928 191.386 45.9488ZM190.886 42.11C190.714 42.0792 190.54 42.0637 190.366 42.0638H189.991C188.621 42.0638 187.751 42.3675 187.38 42.975C187.271 43.1439 187.213 43.3404 187.212 43.5413C187.208 43.722 187.245 43.9013 187.319 44.0663C187.397 44.2248 187.521 44.3557 187.676 44.4413C187.999 44.6271 188.477 44.72 189.112 44.72C189.735 44.7234 190.348 44.5666 190.892 44.265C190.892 44.1975 190.882 44.1263 190.882 44.0513L190.886 42.11Z" fill="black"/>
<path d="M195.45 34.045C195.908 33.3203 196.426 32.6362 197 32L199 33.57C198.734 33.8983 198.484 34.2208 198.25 34.5375L197.535 35.55L195.45 34.045ZM197.895 45.4838C197.887 45.8313 197.899 46.1789 197.931 46.525H195.571V36.8137H197.895V45.4838Z" fill="black"/>
<path d="M141.157 40.9562L143.27 37.2949C144.415 38.0348 145.244 39.1733 145.597 40.4897C145.95 41.8062 145.801 43.2067 145.18 44.4199L141.519 42.3087C141.406 42.2437 141.308 42.1571 141.229 42.054C141.149 41.9508 141.091 41.8331 141.058 41.7075C141.024 41.5819 141.015 41.4509 141.032 41.322C141.049 41.1931 141.092 41.0688 141.157 40.9562Z" fill="#F8B228"/>
<path d="M141.25 42.7849L144.911 44.8987C144.171 46.043 143.033 46.8718 141.716 47.2245C140.4 47.5772 138.999 47.4285 137.786 46.8074L139.9 43.1474C140.031 42.9206 140.247 42.7551 140.5 42.6872C140.753 42.6192 141.023 42.6544 141.25 42.7849Z" fill="#2D1D2F"/>
<path d="M137.301 46.5325L140.191 41.5325C140.219 41.4938 140.232 41.446 140.226 41.3985C140.221 41.351 140.198 41.3073 140.162 41.2759C140.126 41.2446 140.079 41.2279 140.032 41.2291C139.984 41.2303 139.938 41.2493 139.904 41.2825C138.497 42.443 136.886 43.3304 135.154 43.8987C135.572 44.9826 136.324 45.9051 137.301 46.5325Z" fill="#6AB3E3"/>
<path d="M134.984 43.375C138.279 42.2901 141.06 40.029 142.794 37.0238C141.844 36.5376 140.773 36.3382 139.712 36.4499C138.651 36.5615 137.645 36.9794 136.818 37.6526C135.99 38.3257 135.376 39.2252 135.05 40.2412C134.724 41.2573 134.701 42.3461 134.984 43.375Z" fill="#E41E26"/>
</g>
<defs>
<clipPath id="clip0_401_1562">
<rect width="50" height="50" fill="white" transform="translate(20 16)"/>
</clipPath>
<clipPath id="clip1_401_1562">
<rect width="100" height="18.625" fill="white" transform="translate(99 32)"/>
</clipPath>
</defs>
</svg>
