<svg width="250" height="82" viewBox="0 0 250 82" fill="none" xmlns="http://www.w3.org/2000/svg">
<path d="M199.92 39.7615C199.92 34.0776 195.96 30.0798 190.409 30.0798C183.342 30.0798 178.605 35.2144 178.605 42.5467C178.605 48.2685 182.603 52.2284 188.249 52.2284C193.383 52.2284 197.211 49.7464 198.783 45.7865H193.08C192.322 47.0181 190.712 47.7949 188.741 47.7949C185.71 47.7949 183.815 45.7865 183.645 42.9446H199.598C199.806 41.8646 199.92 40.9362 199.92 39.7615ZM184.081 39.0984C184.592 36.4838 187.131 34.3997 190.2 34.3997C192.853 34.3997 194.861 36.3322 194.861 39.0984H184.081Z" fill="#2E4369"/>
<path d="M163.277 51.7168L164.3 46.2602C167.427 46.8855 167.9 45.1234 168.715 40.8794L169.113 38.7763C170.25 32.846 172.542 29.8904 179.098 30.6861L178.075 36.1427C174.948 35.5175 174.399 37.8858 173.698 41.5615L173.3 43.6645C172.163 49.6706 169.795 52.5126 163.277 51.7168Z" fill="#2E4369"/>
<path d="M155.623 51.7357L159.488 30.5913H164.585L160.739 51.7357H155.623Z" fill="#2E4369"/>
<path d="M126.426 30.5913H131.371L132.982 45.8812L139.462 30.5913H144.369L146.093 46.0328L152.345 30.5913H157.271L148.31 51.7357H142.701L140.883 37.1847L134.687 51.7357H129.268L126.426 30.5913Z" fill="#2E4369"/>
<path d="M107.954 36.1995L102.08 41.8077H112.065L113.107 39.3636H108.048L111.212 36.1995L109.375 33.0354H117.957L110.038 51.7357H113.012L121.974 30.5913H104.657L107.954 36.1995Z" fill="#00B9FF"/>
<path d="M34.969 29.2616L21.0801 42.5233H44.6912L47.1553 36.7437H35.193L42.6751 29.2616L38.3292 21.7796H58.6249L39.8973 66H46.9313L68.1231 16H27.1733L34.969 29.2616Z" fill="#00B9FF"/>
</svg>
