<svg width="250" height="82" viewBox="0 0 250 82" fill="none" xmlns="http://www.w3.org/2000/svg">
<g clipPath="url(#clip0_401_1965)">
<path d="M181.347 35.6254C182.557 35.6254 183.539 34.641 183.539 33.4267C183.539 32.2124 182.557 31.228 181.347 31.228C180.136 31.228 179.155 32.2124 179.155 33.4267C179.155 34.641 180.136 35.6254 181.347 35.6254Z" fill="#FF7E61"/>
<path d="M162.829 42.7116L168.452 37.0713C168.549 36.9742 168.48 36.8059 168.343 36.8059H163.8C163.759 36.8059 163.72 36.8232 163.69 36.8513L160.762 39.7879V32.0741C160.762 31.964 160.65 31.8885 160.549 31.9295L157.336 33.2349C157.277 33.2587 157.239 33.3148 157.239 33.3795V48.5719C157.239 48.7143 157.355 48.8308 157.497 48.8308H160.504C160.646 48.8308 160.762 48.7143 160.762 48.5719V45.6353L163.907 48.7877C163.935 48.8157 163.976 48.833 164.017 48.833L168.562 48.8308C168.7 48.8308 168.769 48.6625 168.672 48.5654L162.829 42.7116Z" fill="#3C4151"/>
<path d="M179.843 48.8308H182.85C182.992 48.8308 183.108 48.7144 183.108 48.5719V37.067C183.108 36.9246 182.992 36.8081 182.85 36.8081H179.843C179.701 36.8081 179.584 36.9246 179.584 37.067V48.5741C179.587 48.7165 179.701 48.8308 179.843 48.8308Z" fill="#3C4151"/>
<path fillRule="evenodd" clipRule="evenodd" d="M201.151 36.8213C204.107 37.0241 206.501 39.4257 206.707 42.3882C206.95 45.9052 204.18 48.8311 200.729 48.8332C199.848 48.8332 199.011 48.639 198.258 48.296V52.1906C198.258 52.2964 198.195 52.3913 198.097 52.4302L194.947 53.7097C194.846 53.7507 194.734 53.6773 194.734 53.5651V42.8197H194.737C194.737 39.3566 197.649 36.5796 201.151 36.8213ZM198.258 42.8197C198.258 44.1877 199.364 45.2989 200.729 45.2989C202.093 45.2989 203.199 44.1877 203.199 42.8197C203.199 41.4518 202.093 40.3405 200.729 40.3405C199.364 40.3405 198.258 41.4518 198.258 42.8197Z" fill="#3C4151"/>
<path d="M189.047 39.7037C189.058 39.7037 189.07 39.7037 189.081 39.7059C189.66 39.6822 190.18 40.0533 190.604 40.6337C190.673 40.7287 190.798 40.761 190.905 40.7179L193.328 39.7404C193.461 39.6865 193.525 39.5333 193.47 39.3995C192.861 37.9279 191.009 36.8081 189.045 36.8081C186.481 36.8081 184.398 38.4437 184.398 40.4611C184.398 41.5421 185.026 42.4807 185.889 43.0935C186.663 43.6437 187.588 43.9998 188.5 44.2371C188.515 44.2414 188.531 44.2452 188.546 44.249C188.561 44.2527 188.576 44.2565 188.591 44.2608C189.821 44.5349 189.998 44.8607 189.998 45.1822C189.998 45.6008 189.492 45.9395 188.87 45.9395C188.227 45.9805 187.657 45.5382 187.21 44.865C187.143 44.7636 187.012 44.7269 186.9 44.7722L184.506 45.7561C184.375 45.81 184.314 45.9568 184.364 46.0905C185.05 47.9548 186.9 48.8351 188.87 48.8351C191.435 48.8351 193.517 47.2018 193.517 45.1822C193.517 44.742 193.418 44.3212 193.235 43.9307C193.061 43.5574 192.607 42.7634 191.432 42.2132C191.14 42.0767 190.62 41.895 190.075 41.7042C189.37 41.4577 188.622 41.1957 188.262 40.9962C188.042 40.8754 187.917 40.6747 187.917 40.4611C187.917 40.0425 188.425 39.7037 189.047 39.7037Z" fill="#3C4151"/>
<path d="M178.343 37.0217C178.384 36.9203 178.309 36.8081 178.199 36.8081H175.93C172.628 36.8081 169.95 39.4945 169.95 42.8065V48.5719C169.95 48.7144 170.066 48.8308 170.208 48.8308H173.215C173.357 48.8308 173.471 48.7165 173.471 48.5741V42.8065C173.471 41.4429 174.572 40.3381 175.932 40.3381H176.883C176.945 40.3381 177.001 40.3015 177.025 40.2432L178.343 37.0217Z" fill="#3C4151"/>
</g>
<g clipPath="url(#clip1_401_1965)">
<path d="M68.6931 29.2509C71.1142 29.2509 73.0769 27.2821 73.0769 24.8535C73.0769 22.4248 71.1142 20.4561 68.6931 20.4561C66.2718 20.4561 64.3091 22.4248 64.3091 24.8535C64.3091 27.2821 66.2718 29.2509 68.6931 29.2509Z" fill="#FF7E61"/>
<path d="M31.6585 43.4234L42.9044 32.1429C43.098 31.9487 42.9604 31.6121 42.6851 31.6121H33.5987C33.517 31.6121 33.4396 31.6467 33.3794 31.7028L27.5241 37.576V22.1484C27.5241 21.9283 27.3004 21.7773 27.0982 21.8593L20.6706 24.4701C20.5545 24.5176 20.4771 24.6298 20.4771 24.7592V55.144C20.4771 55.4288 20.7094 55.6619 20.9933 55.6619H27.0078C27.2917 55.6619 27.5241 55.4288 27.5241 55.144V49.2707L33.8138 55.5756C33.8699 55.6317 33.9516 55.6662 34.0333 55.6662L43.1238 55.6619C43.3992 55.6619 43.5369 55.3253 43.3433 55.1311L31.6585 43.4234Z" fill="#3C4151"/>
<path d="M65.6847 55.6619H71.6991C71.9831 55.6619 72.2155 55.429 72.2155 55.1441V32.1343C72.2155 31.8495 71.9831 31.6165 71.6991 31.6165H65.6847C65.4007 31.6165 65.1685 31.8495 65.1685 32.1343V55.1484C65.1728 55.4333 65.4007 55.6619 65.6847 55.6619Z" fill="#3C4151"/>
<path fillRule="evenodd" clipRule="evenodd" d="M108.302 31.6424C114.213 32.048 119.002 36.8511 119.415 42.7761C119.901 49.8102 114.36 55.6619 107.459 55.6662C105.695 55.6662 104.021 55.2778 102.516 54.5917V62.381C102.516 62.5925 102.391 62.7824 102.193 62.8601L95.8947 65.4191C95.6924 65.5011 95.4688 65.3543 95.4688 65.13V43.6392H95.4731C95.4731 36.7129 101.298 31.159 108.302 31.6424ZM102.516 43.6392C102.516 46.3752 104.727 48.5976 107.459 48.5976C110.187 48.5976 112.398 46.3752 112.398 43.6392C112.398 40.9033 110.187 38.6808 107.459 38.6808C104.727 38.6808 102.516 40.9033 102.516 43.6392Z" fill="#3C4151"/>
<path d="M84.0941 37.4077C84.1157 37.4077 84.1415 37.4077 84.1629 37.412C85.3202 37.3646 86.3613 38.1068 87.209 39.2677C87.3466 39.4576 87.5961 39.5223 87.8112 39.436L92.6555 37.4811C92.9223 37.3733 93.0513 37.0668 92.9395 36.7993C91.7219 33.8561 88.0177 31.6165 84.0899 31.6165C78.9616 31.6165 74.797 34.8876 74.797 38.9225C74.797 41.0845 76.0533 42.9617 77.7785 44.1873C79.3273 45.2877 81.1773 45.9998 83.0013 46.4744C83.0315 46.483 83.0616 46.4907 83.0917 46.4982C83.1218 46.5057 83.1519 46.5133 83.182 46.5219C85.6429 47.07 85.9957 47.7216 85.9957 48.3646C85.9957 49.2018 84.9846 49.8793 83.7413 49.8793C82.455 49.9612 81.3149 49.0766 80.42 47.7302C80.2867 47.5274 80.0242 47.4541 79.8005 47.5446L75.0121 49.5125C74.7498 49.6203 74.6293 49.9138 74.7283 50.1813C76.1007 53.9099 79.8006 55.6705 83.7413 55.6705C88.8695 55.6705 93.0341 52.4038 93.0341 48.3646C93.0341 47.4842 92.8362 46.6427 92.4705 45.8617C92.122 45.1151 91.2143 43.527 88.8653 42.4266C88.2798 42.1536 87.2415 41.7903 86.1508 41.4087C84.7412 40.9155 83.2442 40.3917 82.5238 39.9927C82.085 39.751 81.8354 39.3496 81.8354 38.9225C81.8354 38.0853 82.8508 37.4077 84.0941 37.4077Z" fill="#3C4151"/>
<path d="M62.6861 32.0437C62.7678 31.8409 62.6172 31.6165 62.3978 31.6165H57.859C51.2552 31.6165 45.8989 36.9892 45.8989 43.6133V55.1441C45.8989 55.429 46.1312 55.6619 46.4152 55.6619H52.4296C52.7136 55.6619 52.9415 55.4333 52.9415 55.1484V43.6133C52.9415 40.886 55.1443 38.6765 57.8634 38.6765H59.7648C59.8896 38.6765 60.0015 38.6032 60.0488 38.4866L62.6861 32.0437Z" fill="#3C4151"/>
</g>
<defs>
<clipPath id="clip0_401_1965">
<rect width="50" height="22.7273" fill="white" transform="translate(157 31)"/>
</clipPath>
<clipPath id="clip1_401_1965">
<rect width="100" height="45.4545" fill="white" transform="translate(20 20)"/>
</clipPath>
</defs>
</svg>
