<svg width="250" height="82" viewBox="0 0 250 82" fill="none" xmlns="http://www.w3.org/2000/svg">
<g clipPath="url(#clip0_401_515)">
<mask id="mask0_401_515" style="mask-type:alpha" maskUnits="userSpaceOnUse" x="20" y="16" width="50" height="50">
<path fillRule="evenodd" clipRule="evenodd" d="M45 66C58.8071 66 70 54.8071 70 41C70 27.1929 58.8071 16 45 16C31.1929 16 20 27.1929 20 41C20 54.8071 31.1929 66 45 66Z" fill="white"/>
</mask>
<g mask="url(#mask0_401_515)">
<path d="M77.99 14.676H14.853V53.2057H77.99V14.676Z" fill="#F64942"/>
<path d="M31.0134 56.8463C27.811 50.5677 30.9003 42.9653 39.255 40.9225C63.5253 36.9582 59.886 29.4415 67.3205 26.7618C81.1515 21.7761 77.6538 39.1284 74.8717 43.9796C72.0896 48.832 78.6788 58.0356 69.2348 58.7058C63.2907 59.126 61.5586 55.7772 51.0812 60.101C45.6931 62.3248 45.3788 61.8332 39.7836 60.0296L34.9955 57.6094L31.0134 56.8475V56.8463Z" fill="#F4CE45"/>
<path d="M43.6702 11.1664C37.2178 12.0271 4.19634 18.9759 1.84277 20.0509L7.58563 52.6462C11.0333 52.3129 17.4309 55.745 17.4309 50.9105C17.4309 46.22 18.3821 44.22 21.6178 38.5974C26.3726 30.3379 36.8987 30.476 40.5654 30.2962C49.2404 29.8724 58.7309 27.0962 63.5797 20.0533C80.1963 -4.07762 64.4285 5.44261 43.6702 11.1664Z" fill="#5B95BF"/>
<path d="M36.7026 49.02C29.9765 49.0403 22.8836 51.1141 16.4062 53.5462L18.9491 81.0855C36.5764 78.8795 68.261 73.6069 70.2312 70.2653C72.5157 66.3914 69.2967 63.8069 75.9348 60.2772C81.2443 57.4545 87.1252 46.2891 74.6026 46.1641C67.6681 46.22 65.8931 47.6581 60.4848 49.6879C51.5705 53.0319 41.8562 49.0045 36.7026 49.02Z" fill="#EF90A4"/>
<path fillRule="evenodd" clipRule="evenodd" d="M45.2003 24.0879C46.0574 24.0879 46.7931 24.6046 47.1158 25.3427C47.1306 25.3767 47.155 25.4056 47.1862 25.4259C47.2173 25.4462 47.2536 25.457 47.2908 25.4569C47.3175 25.4571 47.3441 25.4513 47.3684 25.44C47.3927 25.4287 47.4141 25.4121 47.4312 25.3915C47.6871 25.0865 48.0244 24.8607 48.404 24.7405C48.7835 24.6203 49.1893 24.6107 49.5741 24.7129C49.9677 24.8183 50.3219 25.0365 50.593 25.3407C50.8642 25.6449 51.0405 26.0217 51.1003 26.4248C51.1054 26.4561 51.1185 26.4856 51.1381 26.5105C51.1578 26.5354 51.1834 26.555 51.2127 26.5673C51.2418 26.5797 51.2737 26.5845 51.3053 26.5812C51.3368 26.5779 51.3671 26.5667 51.3931 26.5486C51.7458 26.3013 52.166 26.1687 52.5967 26.1688C52.8909 26.1694 53.1817 26.2321 53.45 26.3529C53.7183 26.4736 53.958 26.6497 54.1536 26.8695C54.3492 27.0893 54.4961 27.348 54.5848 27.6285C54.6734 27.909 54.7018 28.2051 54.6681 28.4974C54.6654 28.5288 54.6706 28.5603 54.6833 28.5893C54.6958 28.6181 54.7154 28.6434 54.7402 28.6628C54.765 28.6821 54.7943 28.6951 54.8254 28.7003C54.8565 28.7054 54.8884 28.7028 54.9181 28.6926C55.1503 28.6093 55.3943 28.5664 55.6372 28.5664C55.9777 28.567 56.3129 28.6507 56.6136 28.8102C56.9144 28.9697 57.1717 29.2003 57.363 29.4819C57.5544 29.7635 57.6741 30.0876 57.7117 30.426C57.7493 30.7644 57.7037 31.1069 57.5788 31.4235C57.5684 31.4532 57.5653 31.4849 57.57 31.5158C57.5748 31.5468 57.5872 31.576 57.6061 31.6012C57.6249 31.6262 57.6498 31.646 57.6783 31.6591C57.7067 31.6722 57.738 31.6779 57.7693 31.6759C58.1708 31.6394 58.5742 31.7199 58.931 31.9076C59.2877 32.0953 59.5824 32.3825 59.7794 32.7341C59.9765 33.0858 60.0674 33.487 60.0413 33.8893C60.0153 34.2916 59.8733 34.6777 59.6324 35.0009C59.6141 35.0269 59.6027 35.0569 59.599 35.0883C59.5953 35.1199 59.5996 35.1516 59.6113 35.181C59.6233 35.2104 59.6423 35.2364 59.6667 35.2565C59.6912 35.2766 59.7204 35.2903 59.7515 35.2962C60.1483 35.3655 60.5166 35.5479 60.8121 35.8216C61.1075 36.0953 61.3177 36.4485 61.4169 36.8389C61.5163 37.2293 61.5008 37.64 61.3722 38.0216C61.2435 38.4033 61.0073 38.7397 60.6919 38.9902C60.6677 39.0104 60.6488 39.0365 60.6372 39.0658C60.6255 39.0952 60.6215 39.127 60.6252 39.1583C60.629 39.1897 60.6405 39.2196 60.6589 39.2453C60.6772 39.2712 60.7017 39.2919 60.73 39.3057C61.0949 39.4753 61.403 39.7466 61.6173 40.0872C61.8317 40.4277 61.9433 40.8228 61.9384 41.2251C61.9336 41.6275 61.8128 42.0199 61.5904 42.3551C61.368 42.6904 61.0536 42.9544 60.6848 43.1152C60.5586 43.1712 60.53 43.3426 60.636 43.4319C60.9449 43.6903 61.1725 44.0326 61.2915 44.4174C61.4104 44.8021 61.4156 45.2131 61.3065 45.6008C61.1973 45.9884 60.9784 46.3363 60.6761 46.6025C60.3738 46.8687 60.001 47.0418 59.6027 47.1009C59.5714 47.1063 59.5419 47.1194 59.5171 47.139C59.4922 47.1585 59.4727 47.1841 59.4603 47.2133C59.4478 47.2425 59.4429 47.2743 59.4459 47.3058C59.449 47.3374 59.4599 47.3676 59.4777 47.3938C59.7104 47.7249 59.8421 48.1163 59.8566 48.5207C59.8711 48.925 59.7679 49.3249 59.5594 49.6718C59.3511 50.0185 59.0465 50.2974 58.6825 50.4744C58.3187 50.6514 57.9113 50.719 57.5098 50.6688C57.4799 50.6695 57.4506 50.6771 57.4243 50.6912C57.398 50.7053 57.3754 50.7253 57.3584 50.7499C57.3412 50.7744 57.3303 50.8026 57.3261 50.8321C57.3221 50.8616 57.325 50.8918 57.3348 50.92C57.4737 51.2983 57.5002 51.7088 57.4109 52.1018C57.3217 52.4949 57.1206 52.8537 56.8321 53.135C56.5435 53.4163 56.1797 53.608 55.7844 53.6871C55.3893 53.7662 54.9797 53.7293 54.605 53.5807C54.5837 53.5726 54.5611 53.5685 54.5384 53.5688C54.5127 53.5693 54.4872 53.575 54.4637 53.5855C54.4403 53.5959 54.4191 53.6112 54.4016 53.6301C54.3842 53.649 54.3708 53.6713 54.3621 53.6954C54.3535 53.7197 54.3498 53.7456 54.3515 53.7712C54.3873 54.1725 54.3063 54.5755 54.1184 54.9316C53.9305 55.288 53.6436 55.5824 53.2922 55.7793C52.9409 55.9763 52.5402 56.0675 52.1381 56.042C51.7361 56.0165 51.35 55.8753 51.0265 55.6355C50.9955 55.6124 50.9579 55.5999 50.9193 55.5997C50.8748 55.5995 50.8317 55.6149 50.7973 55.6432C50.7629 55.6714 50.7396 55.7108 50.7312 55.7545C50.6621 56.1514 50.4796 56.5199 50.2058 56.8154C49.9319 57.1109 49.5785 57.3209 49.188 57.4201C48.7975 57.5193 48.3867 57.5033 48.005 57.3743C47.6235 57.2452 47.2873 57.0084 47.0372 56.6926C47.02 56.6713 46.9983 56.6541 46.9735 56.6424C46.9487 56.6307 46.9217 56.6246 46.8943 56.6247C46.8583 56.6241 46.8228 56.6339 46.7922 56.6528C46.7616 56.6719 46.7371 56.6994 46.7217 56.7319C46.5521 57.0968 46.2808 57.4049 45.9403 57.6193C45.5998 57.8337 45.2047 57.9451 44.8023 57.9403C44.4 57.9356 44.0077 57.8147 43.6723 57.5924C43.3371 57.37 43.073 57.0555 42.9122 56.6866C42.8973 56.6527 42.8729 56.6237 42.8417 56.6034C42.8106 56.5831 42.7743 56.5724 42.7372 56.5724C42.7105 56.5721 42.684 56.5777 42.6597 56.5888C42.6354 56.6 42.614 56.6163 42.5967 56.6366C42.341 56.9418 42.0036 57.1677 41.6241 57.2878C41.2446 57.4081 40.8386 57.4176 40.4538 57.3152C40.0604 57.21 39.7063 56.9919 39.4352 56.688C39.164 56.384 38.9875 56.0075 38.9277 55.6045C38.9227 55.5732 38.9098 55.5435 38.8902 55.5184C38.8706 55.4933 38.845 55.4737 38.8158 55.4612C38.7865 55.4487 38.7546 55.4438 38.7229 55.447C38.6912 55.4502 38.661 55.4614 38.6348 55.4795C38.3096 55.71 37.925 55.8419 37.5268 55.8596C37.1287 55.8774 36.734 55.7801 36.3896 55.5795C36.0368 55.3759 35.7513 55.0735 35.5681 54.7097C35.385 54.3459 35.3122 53.9365 35.3586 53.5319C35.3615 53.5004 35.3565 53.4688 35.344 53.4397C35.3315 53.4107 35.3119 53.3852 35.2871 53.3657C35.2622 53.3462 35.2329 53.3332 35.2017 53.3278C35.1705 53.3226 35.1385 53.3252 35.1086 53.3355C34.7347 53.4735 34.3291 53.5013 33.9399 53.4155C33.5508 53.3295 33.1944 53.1335 32.9134 52.8509C32.6256 52.5627 32.4285 52.1965 32.346 51.7977C32.2635 51.3988 32.2993 50.9845 32.4491 50.6057C32.4598 50.5762 32.463 50.5444 32.4584 50.5132C32.4538 50.482 32.4415 50.4525 32.4225 50.4274C32.4036 50.4021 32.3787 50.3821 32.3502 50.369C32.3215 50.3558 32.29 50.3501 32.2586 50.3521C31.8571 50.3888 31.4537 50.3083 31.097 50.1206C30.7403 49.9327 30.4456 49.6457 30.2485 49.294C30.0515 48.9424 29.9605 48.5412 29.9866 48.1388C30.0126 47.7365 30.1547 47.3505 30.3955 47.0271C30.4138 47.0013 30.4253 46.9713 30.429 46.9399C30.4327 46.9083 30.4284 46.8764 30.4165 46.8471C30.4047 46.8177 30.3856 46.7918 30.3612 46.7716C30.3367 46.7515 30.3076 46.7378 30.2765 46.7319C29.8797 46.6627 29.5114 46.4802 29.2159 46.2065C28.9204 45.9328 28.7103 45.5795 28.6109 45.1893C28.5116 44.7989 28.5271 44.3882 28.6558 44.0065C28.7844 43.6249 29.0206 43.2884 29.336 43.0378C29.3603 43.0177 29.3791 42.9916 29.3907 42.9624C29.4024 42.933 29.4065 42.9012 29.4027 42.8697C29.3989 42.8384 29.3874 42.8085 29.3691 42.7827C29.3507 42.757 29.3263 42.7363 29.2979 42.7224C28.933 42.5528 28.6249 42.2814 28.4106 41.9409C28.1962 41.6005 28.0847 41.2053 28.0895 40.8031C28.0943 40.4007 28.2151 40.0083 28.4375 39.6731C28.6599 39.3377 28.9744 39.0738 29.3431 38.9128C29.3723 38.9001 29.3977 38.8801 29.4171 38.855C29.4365 38.8297 29.4492 38.8 29.454 38.7685C29.4589 38.7371 29.4558 38.705 29.4449 38.675C29.4341 38.6451 29.4158 38.6184 29.3919 38.5974C29.0826 38.339 28.8547 37.9968 28.7355 37.6118C28.6163 37.2269 28.611 36.8156 28.7202 36.4277C28.8294 36.0397 29.0485 35.6918 29.351 35.4254C29.6536 35.1593 30.0266 34.9862 30.4253 34.9271C30.4563 34.9218 30.4856 34.9087 30.5103 34.8891C30.535 34.8696 30.5545 34.8443 30.5669 34.8152C30.5793 34.7863 30.5843 34.7546 30.5814 34.7233C30.5785 34.6919 30.5678 34.6618 30.5503 34.6355C30.3171 34.3045 30.1852 33.9129 30.1705 33.5083C30.1558 33.1038 30.2589 32.7037 30.4673 32.3566C30.6758 32.0095 30.9806 31.7306 31.3447 31.5535C31.7088 31.3764 32.1165 31.309 32.5181 31.3593C32.5479 31.3589 32.5772 31.3514 32.6035 31.3375C32.6299 31.3235 32.6525 31.3035 32.6696 31.2791C32.6867 31.2547 32.6978 31.2265 32.7018 31.197C32.7059 31.1675 32.7029 31.1375 32.6931 31.1093C32.5548 30.731 32.5287 30.3208 32.6181 29.9281C32.7075 29.5353 32.9086 29.1768 33.1971 28.8957C33.4855 28.6145 33.8491 28.4227 34.244 28.3434C34.6388 28.2641 35.0483 28.3006 35.4229 28.4485C35.4525 28.459 35.4842 28.462 35.5153 28.4572C35.5462 28.4525 35.5756 28.4401 35.6008 28.4213C35.6258 28.4025 35.6459 28.3777 35.6591 28.3493C35.6723 28.3207 35.6783 28.2895 35.6765 28.2581C35.6406 27.8569 35.7216 27.4539 35.9096 27.0977C36.0974 26.7414 36.3843 26.447 36.7356 26.25C37.0871 26.053 37.4878 25.9618 37.8898 25.9873C38.2918 26.0128 38.6779 26.154 39.0015 26.3938C39.0348 26.4177 39.0729 26.4295 39.1086 26.4295C39.1531 26.4298 39.1962 26.4144 39.2306 26.3862C39.265 26.3579 39.2884 26.3185 39.2967 26.2748C39.3661 25.8781 39.5487 25.5099 39.8225 25.2146C40.0962 24.9192 40.4496 24.7093 40.8398 24.6101C41.2302 24.5108 41.6408 24.5265 42.0224 24.6552C42.404 24.7839 42.7403 25.0202 42.9908 25.3355C43.0265 25.3831 43.0812 25.4046 43.1336 25.4046C43.1696 25.4051 43.205 25.3953 43.2356 25.3763C43.2662 25.3573 43.2908 25.3299 43.3062 25.2974C43.6396 24.5831 44.361 24.0879 45.2003 24.0879Z" fill="white"/>
<path fillRule="evenodd" clipRule="evenodd" d="M52.7807 49.2045C50.8974 49.2045 51.045 46.5461 52.7807 46.5461C54.5164 46.5461 54.6641 49.2045 52.7807 49.2045ZM37.2188 49.2045C35.3355 49.2045 35.4831 46.5461 37.2188 46.5461C38.9545 46.5461 39.1022 49.2045 37.2188 49.2045ZM58.4712 39.383H57.8331C57.2902 39.3829 56.7591 39.2258 56.3036 38.9304C55.8482 38.6352 55.488 38.2143 55.2664 37.7188C55.0443 38.2138 54.6839 38.634 54.2286 38.9287C53.7731 39.2236 53.2423 39.3804 52.6998 39.3804C52.1573 39.3804 51.6263 39.2236 51.171 38.9287C50.7155 38.634 50.3551 38.2138 50.1331 37.7188C49.9108 38.2134 49.5505 38.6333 49.0952 38.9278C48.6399 39.2224 48.1093 39.3791 47.567 39.3791C47.0248 39.3791 46.4941 39.2224 46.0388 38.9278C45.5836 38.6333 45.2231 38.2134 45.001 37.7188C44.7788 38.2138 44.4185 38.634 43.9631 38.9287C43.5076 39.2236 42.9768 39.3804 42.4343 39.3804C41.8918 39.3804 41.3608 39.2236 40.9055 38.9287C40.45 38.634 40.0897 38.2138 39.8676 37.7188C39.646 38.2141 39.2856 38.6348 38.8302 38.9299C38.3748 39.2251 37.8436 39.3822 37.301 39.3822C36.7582 39.3822 36.227 39.2251 35.7717 38.9299C35.3162 38.6348 34.956 38.2141 34.7343 37.7188C34.5125 38.2141 34.1523 38.6347 33.6968 38.9297C33.2413 39.2248 32.7102 39.3818 32.1676 39.3818H31.5366C30.5807 40.4116 31.1878 41.2818 33.551 41.2818V46.5688C33.551 51.5378 39.2724 54.0223 44.9938 54.0223C50.7164 54.0223 56.4379 51.5378 56.4379 46.5699V41.2818C58.8033 41.2818 59.42 40.4128 58.4712 39.3818V39.383Z" fill="black"/>
<path fillRule="evenodd" clipRule="evenodd" d="M45.1839 22.3723C44.3458 22.3723 43.5435 22.6342 42.878 23.0973C42.0911 22.7909 41.228 22.7382 40.4096 22.9466C39.5912 23.1549 38.8585 23.6139 38.3137 24.2592C37.4752 24.1672 36.6289 24.3394 35.893 24.7518C35.157 25.1641 34.5683 25.796 34.2089 26.5592C33.3744 26.6873 32.6008 27.0732 31.9965 27.6628C31.3922 28.2523 30.9874 29.0163 30.8387 29.8473C30.05 30.1934 29.392 30.7817 28.9602 31.5271C28.5483 32.2428 28.3651 33.0673 28.4352 33.8902C27.7764 34.4177 27.2992 35.1381 27.0703 35.9503C26.8415 36.7626 26.8725 37.6261 27.159 38.42C26.6597 39.1 26.3855 39.9191 26.3748 40.7628C26.3642 41.6064 26.6175 42.4322 27.0995 43.1247C26.7929 43.9109 26.7399 44.7732 26.9478 45.591C27.1557 46.4088 27.6142 47.1411 28.259 47.6854C28.166 48.5245 28.3379 49.3717 28.7505 50.1082C29.1632 50.8447 29.796 51.4336 30.5602 51.7926C30.6877 52.6272 31.073 53.401 31.6622 54.0058C32.2513 54.6106 33.0149 55.0159 33.8458 55.1652C34.1852 55.9379 34.7577 56.5852 35.4835 57.0163C36.209 57.4472 37.0513 57.6404 37.8923 57.5688C38.2714 58.042 38.7521 58.4239 39.2988 58.6863C39.8456 58.9485 40.4443 59.0846 41.0506 59.0842C41.5256 59.0842 41.9887 59.0009 42.4244 58.8438C43.1039 59.3419 43.9219 59.6153 44.7643 59.626C45.6068 59.6367 46.4314 59.384 47.1232 58.9033C47.9276 59.217 48.8112 59.265 49.6446 59.0402C50.4418 58.8256 51.1542 58.3723 51.6863 57.7414C52.5437 57.839 53.4095 57.6573 54.1554 57.2235C54.8694 56.81 55.4401 56.1882 55.7911 55.4414C56.644 55.3126 57.433 54.9127 58.0411 54.3009C58.6363 53.7069 59.0173 52.9521 59.1613 52.1533C59.9502 51.8067 60.6082 51.2181 61.0399 50.4723C61.452 49.7571 61.6357 48.9329 61.5661 48.1104C62.225 47.5831 62.7021 46.8626 62.9308 46.0502C63.1595 45.2378 63.1281 44.3742 62.8411 43.5807C63.3405 42.9004 63.6148 42.081 63.6254 41.2372C63.6361 40.3934 63.3826 39.5673 62.9006 38.8747C63.2066 38.0886 63.2593 37.2266 63.0513 36.4091C62.8435 35.5917 62.3854 34.8596 61.7411 34.3152C61.8348 33.4761 61.6632 32.6288 61.2507 31.8922C60.8382 31.1556 60.2055 30.5666 59.4411 30.2081C59.311 29.3558 58.9118 28.5675 58.3018 27.9581C57.7186 27.3717 56.9686 26.9797 56.1542 26.8354C55.8152 26.0623 55.2427 25.4147 54.517 24.9834C53.7914 24.5521 52.9489 24.3589 52.1077 24.4306C51.5798 23.7722 50.8592 23.2954 50.0467 23.067C49.2342 22.8385 48.3706 22.87 47.5768 23.1568C46.883 22.6473 46.0448 22.3725 45.1839 22.3723ZM45.1839 24.3687C46.0256 24.3687 46.7482 24.8771 47.0649 25.6021C47.08 25.6355 47.1045 25.6638 47.1354 25.6837C47.1662 25.7035 47.202 25.714 47.2387 25.714C47.2649 25.7139 47.2907 25.7082 47.3143 25.6971C47.338 25.6859 47.3589 25.6698 47.3756 25.6497C47.6271 25.3497 47.9589 25.1276 48.3321 25.0096C48.7054 24.8915 49.1045 24.8823 49.4827 24.983C50.297 25.2021 50.8637 25.8806 50.9816 26.6652C50.9865 26.6959 50.9992 26.7249 51.0183 26.7495C51.0375 26.774 51.0626 26.7933 51.0913 26.8055C51.1199 26.8178 51.1512 26.8226 51.1821 26.8195C51.2131 26.8164 51.2429 26.8055 51.2685 26.7878C51.6161 26.5437 52.0304 26.414 52.4518 26.414C52.7408 26.4144 53.0265 26.4759 53.2902 26.5945C53.5538 26.713 53.7894 26.8858 53.9817 27.1017C54.1738 27.3176 54.3182 27.5717 54.4054 27.8473C54.4926 28.1228 54.5206 28.4138 54.4875 28.7009C54.4846 28.732 54.4895 28.7632 54.5018 28.7919C54.514 28.8204 54.5335 28.8456 54.558 28.8648C54.5825 28.884 54.6115 28.8967 54.6423 28.9017C54.673 28.9069 54.7045 28.9041 54.7339 28.8938C55.1012 28.7583 55.4996 28.731 55.8818 28.8154C56.264 28.9 56.6139 29.0923 56.8899 29.37C57.4863 29.9664 57.6375 30.8378 57.3482 31.5759C57.3374 31.605 57.334 31.6364 57.3386 31.6671C57.343 31.6978 57.355 31.727 57.3736 31.7519C57.3921 31.7767 57.4167 31.7965 57.445 31.8095C57.4732 31.8223 57.5042 31.8281 57.5351 31.8259C57.9296 31.7897 58.3262 31.8685 58.6768 32.0529C59.0275 32.2373 59.3171 32.5194 59.5108 32.865C59.7045 33.2106 59.7939 33.6048 59.7682 34.0002C59.7426 34.3956 59.6029 34.775 59.3661 35.0926C59.3482 35.1179 59.337 35.1473 59.3335 35.1782C59.3299 35.209 59.3342 35.2402 59.3457 35.269C59.3574 35.2977 59.376 35.3232 59.3999 35.3428C59.4238 35.3626 59.4524 35.3759 59.4827 35.3819C59.8727 35.4498 60.2346 35.6292 60.5249 35.8983C60.8152 36.1672 61.0215 36.5145 61.1191 36.8981C61.2166 37.2816 61.2011 37.6853 61.0744 38.0603C60.9479 38.4352 60.7155 38.7657 60.4054 39.0116C60.3817 39.0315 60.3632 39.057 60.3518 39.0859C60.3405 39.1147 60.3364 39.1459 60.3402 39.1767C60.344 39.2075 60.3555 39.2369 60.3735 39.2621C60.3916 39.2873 60.4156 39.3076 60.4435 39.3211C60.8025 39.4875 61.1056 39.754 61.3167 40.0886C61.5276 40.4233 61.6374 40.8119 61.6327 41.2075C61.6281 41.6029 61.5092 41.9888 61.2904 42.3184C61.0717 42.6479 60.7623 42.9073 60.3994 43.0652C60.3706 43.0773 60.3452 43.0967 60.326 43.1215C60.3067 43.1461 60.2939 43.1754 60.2891 43.2064C60.2842 43.2373 60.2873 43.2691 60.2981 43.2985C60.3088 43.3279 60.3269 43.3542 60.3506 43.3747C60.6546 43.6285 60.8788 43.9647 60.996 44.3431C61.1131 44.7214 61.1183 45.1254 61.011 45.5066C60.9036 45.8878 60.6883 46.2297 60.391 46.4913C60.0936 46.7528 59.7269 46.9228 59.3351 46.9807C59.3046 46.986 59.2761 46.999 59.2518 47.0183C59.2276 47.0376 59.2086 47.0626 59.1965 47.0911C59.1845 47.1196 59.1798 47.1507 59.1827 47.1815C59.1857 47.2123 59.1964 47.2419 59.2137 47.2676C59.4427 47.5928 59.5723 47.9776 59.5867 48.3751C59.601 48.7726 59.4995 49.1657 59.2945 49.5066C59.0896 49.8475 58.79 50.1215 58.4323 50.2953C58.0744 50.469 57.6738 50.5351 57.2792 50.4854C57.2498 50.4858 57.2207 50.4932 57.1946 50.5071C57.1686 50.5209 57.1462 50.5407 57.1293 50.565C57.1125 50.5891 57.1015 50.617 57.0976 50.6463C57.0937 50.6754 57.0968 50.7052 57.1065 50.7331C57.2433 51.1047 57.2694 51.5082 57.1819 51.8944C57.0943 52.2807 56.8968 52.6333 56.6131 52.9098C56.3295 53.1863 55.9719 53.3747 55.5836 53.4523C55.1951 53.53 54.7926 53.4935 54.4244 53.3473C54.4041 53.3389 54.3823 53.3344 54.3601 53.3342C54.3346 53.3345 54.3095 53.34 54.2862 53.3503C54.263 53.3607 54.242 53.3757 54.2248 53.3944C54.2074 53.4131 54.1942 53.4352 54.1857 53.4592C54.1773 53.4833 54.1738 53.5088 54.1756 53.5342C54.2115 53.9288 54.1324 54.3252 53.9479 54.6758C53.7632 55.0263 53.4811 55.3158 53.1355 55.5095C52.7899 55.7032 52.3956 55.7926 52.0002 55.767C51.605 55.7413 51.2255 55.6017 50.9077 55.3652C50.8776 55.3423 50.8408 55.3298 50.803 55.3295C50.7593 55.3292 50.7169 55.3444 50.6832 55.3722C50.6494 55.4001 50.6265 55.4389 50.6185 55.4819C50.5505 55.8717 50.3711 56.2336 50.1021 56.524C49.8331 56.8142 49.4858 57.0207 49.1023 57.1182C48.7187 57.2157 48.3151 57.2002 47.9401 57.0735C47.5651 56.9469 47.2348 56.7146 46.9887 56.4045C46.9718 56.3833 46.9501 56.3663 46.9256 56.3547C46.9011 56.3432 46.8742 56.3375 46.847 56.3378C46.8121 56.3372 46.7777 56.3467 46.748 56.3651C46.7183 56.3834 46.6944 56.41 46.6792 56.4414C46.5125 56.7996 46.246 57.1021 45.9115 57.3126C45.5771 57.5232 45.189 57.6327 44.7939 57.6282C44.3988 57.6236 44.0135 57.5052 43.6839 57.2871C43.3544 57.069 43.0949 56.7604 42.9363 56.3985C42.9218 56.3648 42.8976 56.3363 42.8669 56.3162C42.8363 56.296 42.8004 56.2854 42.7637 56.2854C42.7374 56.2851 42.7113 56.2908 42.6874 56.3019C42.6635 56.3129 42.6424 56.3294 42.6256 56.3497C42.374 56.6496 42.0423 56.8715 41.6691 56.9896C41.2958 57.1077 40.8968 57.117 40.5185 57.0164C40.1323 56.9125 39.7849 56.6981 39.5188 56.3994C39.2527 56.1008 39.0798 55.731 39.0208 55.3354C39.0161 55.3045 39.0033 55.2753 38.9842 55.2506C38.9649 55.2259 38.9396 55.2065 38.9108 55.1942C38.882 55.182 38.8506 55.1772 38.8194 55.1804C38.7882 55.1836 38.7585 55.1948 38.7327 55.2128C38.3863 55.4557 37.9708 55.5854 37.5494 55.5854C37.2604 55.5848 36.9746 55.5232 36.7111 55.4045C36.4474 55.2858 36.2118 55.1128 36.0196 54.8969C35.8275 54.6809 35.6831 54.4267 35.596 54.1511C35.5087 53.8754 35.4807 53.5845 35.5137 53.2973C35.5162 53.2666 35.511 53.2358 35.4986 53.2076C35.4861 53.1795 35.4669 53.1548 35.4425 53.1359C35.4182 53.117 35.3895 53.1045 35.3592 53.0994C35.3288 53.0944 35.2976 53.0969 35.2685 53.1069C34.9011 53.2425 34.5025 53.2697 34.1201 53.1852C33.7376 53.1008 33.3875 52.9083 33.1113 52.6307C32.8282 52.3475 32.6342 51.9876 32.5529 51.5954C32.4717 51.2033 32.5069 50.7959 32.6542 50.4235C32.6651 50.3944 32.6685 50.3628 32.6639 50.332C32.6595 50.3011 32.6473 50.272 32.6286 50.247C32.6099 50.2221 32.5851 50.2023 32.5568 50.1895C32.5283 50.1766 32.4971 50.1711 32.4661 50.1735C32.0718 50.2092 31.6756 50.13 31.3253 49.9454C30.975 49.7609 30.6856 49.4789 30.492 49.1335C30.2984 48.7882 30.2089 48.3941 30.2343 47.999C30.2597 47.6039 30.3989 47.2246 30.6352 46.9069C30.653 46.8815 30.6643 46.8521 30.6678 46.8213C30.6714 46.7904 30.6672 46.7592 30.6556 46.7304C30.644 46.7016 30.6253 46.6763 30.6014 46.6565C30.5775 46.6369 30.549 46.6234 30.5185 46.6176C30.1286 46.5495 29.7667 46.3702 29.4764 46.1011C29.1861 45.8321 28.9797 45.485 28.8822 45.1014C28.7847 44.7177 28.8002 44.3141 28.9268 43.9391C29.0535 43.5641 29.2858 43.2338 29.5959 42.9878C29.6197 42.9679 29.6382 42.9426 29.6497 42.9138C29.6611 42.885 29.6652 42.8538 29.6616 42.8231C29.6579 42.7922 29.6466 42.7628 29.6287 42.7376C29.6108 42.7123 29.5868 42.6919 29.559 42.6783C29.2004 42.5117 28.8975 42.2452 28.6868 41.9107C28.476 41.5763 28.3664 41.1879 28.371 40.7926C28.3757 40.3972 28.4944 40.0117 28.713 39.6822C28.9315 39.3527 29.2406 39.0934 29.603 38.9354C29.7268 38.8807 29.7554 38.7116 29.6506 38.6259C29.3463 38.3722 29.1218 38.0358 29.0044 37.6573C28.887 37.2789 28.8817 36.8746 28.9891 36.4932C29.0964 36.1117 29.3119 35.7695 29.6095 35.5079C29.9071 35.2463 30.2741 35.0764 30.6661 35.0188C30.6965 35.0134 30.7251 35.0006 30.7493 34.9815C30.7735 34.9623 30.7926 34.9375 30.8047 34.909C30.8169 34.8807 30.8218 34.8497 30.819 34.819C30.8162 34.7883 30.8058 34.7588 30.7887 34.7331C30.5594 34.4078 30.4295 34.0229 30.415 33.6252C30.4004 33.2275 30.5018 32.8341 30.7068 32.4929C30.9118 32.1519 31.2116 31.8777 31.5696 31.7039C31.9276 31.5301 32.3285 31.4641 32.7232 31.514C32.8458 31.514 32.9375 31.3866 32.8946 31.2676C32.7592 30.8959 32.7338 30.4929 32.8218 30.1072C32.9098 29.7215 33.1073 29.3694 33.3906 29.0933C33.6738 28.8171 34.031 28.6286 34.4188 28.5507C34.8067 28.4726 35.2088 28.5082 35.5768 28.6533C35.5982 28.6616 35.6196 28.6652 35.6411 28.6652C35.6665 28.665 35.6918 28.6595 35.7151 28.6491C35.7383 28.6388 35.7593 28.6238 35.7765 28.6051C35.7938 28.5863 35.8071 28.5642 35.8156 28.5402C35.824 28.5161 35.8274 28.4906 35.8256 28.4652C35.7902 28.0708 35.8698 27.6747 36.0544 27.3245C36.2392 26.9743 36.5212 26.6849 36.8667 26.4914C37.212 26.2979 37.6061 26.2084 38.0012 26.2337C38.3963 26.2591 38.7756 26.3982 39.0935 26.6342C39.1188 26.6521 39.1483 26.6633 39.179 26.6669C39.2099 26.6704 39.2411 26.6662 39.2699 26.6546C39.2987 26.643 39.324 26.6244 39.3438 26.6005C39.3635 26.5765 39.3769 26.548 39.3827 26.5176C39.4506 26.1274 39.6299 25.7652 39.899 25.4746C40.1681 25.184 40.5156 24.9775 40.8994 24.88C41.2832 24.7825 41.687 24.7981 42.0623 24.9249C42.4374 25.0518 42.7679 25.2845 43.0137 25.5949C43.0305 25.6161 43.0518 25.6333 43.0762 25.645C43.1005 25.6568 43.1271 25.6629 43.1542 25.6628C43.1893 25.6632 43.2237 25.6536 43.2535 25.635C43.2832 25.6164 43.307 25.5897 43.322 25.558C43.6494 24.8556 44.3589 24.3687 45.1839 24.3687Z" fill="black"/>
</g>
</g>
<g clipPath="url(#clip1_401_515)">
<mask id="mask1_401_515" style="mask-type:alpha" maskUnits="userSpaceOnUse" x="115" y="29" width="25" height="25">
<path fillRule="evenodd" clipRule="evenodd" d="M127.5 54C134.404 54 140 48.4036 140 41.5C140 34.5964 134.404 29 127.5 29C120.596 29 115 34.5964 115 41.5C115 48.4036 120.596 54 127.5 54Z" fill="white"/>
</mask>
<g mask="url(#mask1_401_515)">
<path d="M143.995 28.3379H112.427V47.6027H143.995V28.3379Z" fill="#F64942"/>
<path d="M120.507 49.4231C118.906 46.2839 120.45 42.4827 124.628 41.4612C136.763 39.4791 134.943 35.7208 138.66 34.3809C145.576 31.888 143.827 40.5642 142.436 42.9898C141.045 45.416 144.339 50.0178 139.617 50.3529C136.645 50.563 135.779 48.8886 130.541 51.0505C127.847 52.1624 127.689 51.9166 124.892 51.0148L122.498 49.8047L120.507 49.4237V49.4231Z" fill="#F4CE45"/>
<path d="M126.835 26.5832C123.609 27.0136 107.098 30.488 105.921 31.0255L108.793 47.3231C110.517 47.1564 113.715 48.8725 113.715 46.4552C113.715 44.11 114.191 43.11 115.809 40.2987C118.186 36.1689 123.449 36.238 125.283 36.1481C129.62 35.9362 134.365 34.5481 136.79 31.0267C145.098 18.9612 137.214 23.7213 126.835 26.5832Z" fill="#5B95BF"/>
<path d="M123.351 45.51C119.988 45.5201 116.442 46.557 113.203 47.7731L114.475 61.5427C123.288 60.4398 139.13 57.8035 140.116 56.1326C141.258 54.1957 139.648 52.9035 142.967 51.1386C145.622 49.7273 148.563 44.1445 142.301 44.082C138.834 44.11 137.947 44.8291 135.242 45.8439C130.785 47.516 125.928 45.5023 123.351 45.51Z" fill="#EF90A4"/>
<path fillRule="evenodd" clipRule="evenodd" d="M127.6 33.0439C128.028 33.0439 128.396 33.3023 128.558 33.6713C128.565 33.6883 128.577 33.7028 128.593 33.713C128.608 33.7231 128.627 33.7285 128.645 33.7285C128.659 33.7286 128.672 33.7257 128.684 33.72C128.696 33.7143 128.707 33.706 128.715 33.6957C128.843 33.5432 129.012 33.4303 129.202 33.3702C129.392 33.3102 129.594 33.3054 129.787 33.3564C129.984 33.4092 130.161 33.5183 130.296 33.6704C130.432 33.8224 130.52 34.0109 130.55 34.2124C130.552 34.228 130.559 34.2428 130.569 34.2553C130.579 34.2677 130.591 34.2775 130.606 34.2837C130.621 34.2898 130.637 34.2922 130.652 34.2906C130.668 34.289 130.683 34.2834 130.696 34.2743C130.873 34.1507 131.083 34.0844 131.298 34.0844C131.445 34.0847 131.591 34.1161 131.725 34.1764C131.859 34.2368 131.979 34.3248 132.077 34.4347C132.174 34.5447 132.248 34.674 132.292 34.8142C132.336 34.9545 132.351 35.1025 132.334 35.2487C132.332 35.2644 132.335 35.2802 132.341 35.2946C132.348 35.309 132.357 35.3217 132.37 35.3314C132.382 35.3411 132.397 35.3475 132.412 35.3502C132.428 35.3527 132.444 35.3514 132.459 35.3463C132.575 35.3046 132.697 35.2832 132.818 35.2832C132.989 35.2835 133.156 35.3253 133.307 35.4051C133.457 35.4849 133.586 35.6002 133.681 35.7409C133.777 35.8818 133.837 36.0438 133.856 36.213C133.874 36.3822 133.852 36.5534 133.789 36.7118C133.784 36.7266 133.782 36.7424 133.785 36.7579C133.787 36.7734 133.793 36.788 133.803 36.8006C133.812 36.8131 133.825 36.823 133.839 36.8296C133.853 36.8361 133.869 36.839 133.884 36.838C134.085 36.8197 134.287 36.8599 134.465 36.9538C134.644 37.0477 134.791 37.1912 134.889 37.3671C134.988 37.5429 135.033 37.7435 135.02 37.9446C135.007 38.1458 134.936 38.3389 134.816 38.5005C134.807 38.5134 134.801 38.5284 134.799 38.5442C134.797 38.5599 134.8 38.5758 134.805 38.5905C134.811 38.6052 134.821 38.6182 134.833 38.6283C134.845 38.6383 134.86 38.6452 134.875 38.6481C135.074 38.6827 135.258 38.774 135.406 38.9108C135.554 39.0477 135.659 39.2243 135.708 39.4195C135.758 39.6146 135.75 39.82 135.686 40.0108C135.622 40.2017 135.503 40.3699 135.346 40.4951C135.334 40.5052 135.324 40.5183 135.318 40.5329C135.313 40.5476 135.31 40.5635 135.312 40.5792C135.314 40.5949 135.32 40.6098 135.329 40.6227C135.338 40.6356 135.351 40.6459 135.365 40.6528C135.547 40.7377 135.701 40.8733 135.808 41.0436C135.916 41.2139 135.971 41.4114 135.969 41.6125C135.967 41.8137 135.906 42.0099 135.795 42.1775C135.684 42.3452 135.527 42.4772 135.342 42.5576C135.279 42.5856 135.265 42.6713 135.318 42.7159C135.472 42.8452 135.586 43.0163 135.645 43.2087C135.705 43.4011 135.708 43.6065 135.653 43.8004C135.598 43.9942 135.489 44.1681 135.338 44.3012C135.187 44.4343 135 44.5209 134.801 44.5505C134.785 44.5531 134.771 44.5597 134.758 44.5695C134.746 44.5793 134.736 44.5921 134.73 44.6067C134.724 44.6212 134.721 44.6371 134.723 44.6529C134.724 44.6687 134.73 44.6838 134.739 44.6969C134.855 44.8624 134.921 45.0581 134.928 45.2603C134.935 45.4625 134.884 45.6624 134.779 45.8359C134.675 46.0093 134.523 46.1487 134.341 46.2372C134.159 46.3257 133.955 46.3595 133.755 46.3344C133.74 46.3347 133.725 46.3386 133.712 46.3456C133.699 46.3527 133.687 46.3627 133.679 46.3749C133.67 46.3872 133.665 46.4013 133.663 46.4161C133.661 46.4308 133.662 46.4459 133.667 46.46C133.737 46.6492 133.75 46.8544 133.705 47.0509C133.661 47.2474 133.56 47.4268 133.416 47.5675C133.272 47.7081 133.09 47.804 132.892 47.8436C132.694 47.8831 132.49 47.8646 132.302 47.7903C132.292 47.7863 132.28 47.7843 132.269 47.7844C132.256 47.7846 132.243 47.7875 132.232 47.7927C132.22 47.798 132.209 47.8056 132.201 47.815C132.192 47.8245 132.185 47.8356 132.181 47.8477C132.177 47.8599 132.175 47.8728 132.175 47.8856C132.193 48.0862 132.153 48.2877 132.059 48.4658C131.965 48.644 131.822 48.7912 131.646 48.8896C131.47 48.9881 131.27 49.0337 131.069 49.021C130.868 49.0083 130.675 48.9377 130.513 48.8177C130.498 48.8062 130.479 48.7999 130.459 48.7999C130.437 48.7997 130.416 48.8074 130.398 48.8216C130.381 48.8357 130.37 48.8554 130.365 48.8773C130.331 49.0757 130.24 49.2599 130.103 49.4077C129.966 49.5555 129.789 49.6605 129.594 49.71C129.399 49.7596 129.193 49.7517 129.002 49.6871C128.812 49.6226 128.643 49.5042 128.518 49.3463C128.51 49.3356 128.499 49.3271 128.487 49.3212C128.474 49.3153 128.461 49.3123 128.447 49.3124C128.429 49.3121 128.411 49.3169 128.396 49.3264C128.381 49.3359 128.368 49.3497 128.361 49.3659C128.276 49.5484 128.14 49.7024 127.97 49.8096C127.8 49.9168 127.602 49.9725 127.401 49.9702C127.2 49.9678 127.004 49.9074 126.836 49.7962C126.668 49.685 126.536 49.5277 126.456 49.3433C126.448 49.3264 126.436 49.3118 126.421 49.3017C126.405 49.2915 126.387 49.2862 126.368 49.2862C126.355 49.2861 126.342 49.2889 126.33 49.2944C126.317 49.3 126.307 49.3081 126.298 49.3183C126.17 49.4709 126.002 49.5839 125.812 49.6439C125.622 49.704 125.419 49.7088 125.227 49.6576C125.03 49.605 124.853 49.4959 124.717 49.344C124.582 49.192 124.494 49.0037 124.464 48.8022C124.461 48.7866 124.455 48.7718 124.445 48.7592C124.435 48.7467 124.422 48.7368 124.408 48.7306C124.393 48.7243 124.377 48.7219 124.361 48.7235C124.345 48.7251 124.33 48.7307 124.317 48.7397C124.155 48.855 123.962 48.9209 123.763 48.9298C123.564 48.9387 123.367 48.89 123.195 48.7897C123.018 48.688 122.875 48.5368 122.784 48.3549C122.692 48.173 122.656 47.9683 122.679 47.7659C122.68 47.7502 122.678 47.7344 122.672 47.7199C122.665 47.7053 122.656 47.6926 122.643 47.6828C122.631 47.6731 122.616 47.6666 122.601 47.6639C122.585 47.6613 122.569 47.6626 122.554 47.6677C122.367 47.7368 122.164 47.7506 121.97 47.7077C121.775 47.6647 121.597 47.5668 121.456 47.4255C121.313 47.2814 121.214 47.0983 121.173 46.8989C121.132 46.6994 121.149 46.4922 121.224 46.3028C121.23 46.2881 121.231 46.2722 121.229 46.2566C121.227 46.241 121.22 46.2262 121.211 46.2137C121.202 46.2011 121.189 46.1911 121.175 46.1845C121.16 46.1779 121.145 46.175 121.129 46.1761C120.928 46.1944 120.727 46.1542 120.548 46.0603C120.37 45.9664 120.223 45.8228 120.124 45.647C120.025 45.4712 119.98 45.2706 119.993 45.0694C120.006 44.8683 120.077 44.6752 120.198 44.5136C120.207 44.5006 120.212 44.4856 120.214 44.4699C120.216 44.4542 120.214 44.4382 120.208 44.4236C120.202 44.4089 120.193 44.3959 120.18 44.3858C120.168 44.3758 120.154 44.3689 120.138 44.3659C119.94 44.3314 119.755 44.2401 119.608 44.1033C119.46 43.9664 119.355 43.7897 119.305 43.5946C119.256 43.3995 119.263 43.1941 119.328 43.0033C119.392 42.8124 119.51 42.6442 119.668 42.5189C119.68 42.5089 119.689 42.4958 119.695 42.4812C119.701 42.4665 119.703 42.4506 119.701 42.4349C119.699 42.4192 119.693 42.4043 119.684 42.3914C119.675 42.3785 119.663 42.3681 119.649 42.3612C119.466 42.2764 119.312 42.1407 119.205 41.9705C119.098 41.8002 119.042 41.6027 119.045 41.4015C119.047 41.2003 119.107 41.0042 119.219 40.8365C119.33 40.6689 119.487 40.5369 119.671 40.4564C119.686 40.45 119.699 40.44 119.708 40.4275C119.718 40.4149 119.724 40.4 119.727 40.3843C119.729 40.3686 119.728 40.3525 119.722 40.3375C119.717 40.3225 119.708 40.3092 119.696 40.2987C119.541 40.1695 119.427 39.9984 119.368 39.8059C119.308 39.6134 119.305 39.4078 119.36 39.2139C119.414 39.0199 119.524 38.8459 119.675 38.7127C119.827 38.5796 120.013 38.4931 120.212 38.4636C120.228 38.4609 120.243 38.4543 120.255 38.4446C120.267 38.4348 120.277 38.4221 120.283 38.4076C120.289 38.3931 120.292 38.3773 120.29 38.3617C120.289 38.3459 120.284 38.3309 120.275 38.3177C120.158 38.1522 120.092 37.9565 120.085 37.7542C120.078 37.5519 120.129 37.3518 120.233 37.1783C120.338 37.0047 120.49 36.8653 120.672 36.7768C120.854 36.6882 121.058 36.6545 121.259 36.6796C121.274 36.6795 121.288 36.6757 121.302 36.6687C121.315 36.6618 121.326 36.6518 121.335 36.6396C121.343 36.6274 121.349 36.6133 121.351 36.5985C121.353 36.5837 121.351 36.5687 121.346 36.5546C121.277 36.3655 121.264 36.1604 121.309 35.964C121.354 35.7677 121.454 35.5884 121.598 35.4478C121.743 35.3072 121.924 35.2114 122.122 35.1717C122.319 35.1321 122.524 35.1503 122.711 35.2243C122.726 35.2295 122.742 35.231 122.757 35.2286C122.773 35.2262 122.788 35.22 122.8 35.2106C122.813 35.2012 122.823 35.1889 122.829 35.1746C122.836 35.1603 122.839 35.1447 122.838 35.129C122.82 34.9285 122.861 34.727 122.955 34.5488C123.048 34.3707 123.192 34.2235 123.368 34.125C123.543 34.0265 123.744 33.9809 123.945 33.9937C124.146 34.0064 124.339 34.077 124.5 34.1969C124.517 34.2088 124.536 34.2148 124.554 34.2148C124.576 34.2149 124.598 34.2072 124.615 34.1931C124.632 34.179 124.644 34.1592 124.648 34.1374C124.683 33.9391 124.774 33.755 124.911 33.6073C125.048 33.4596 125.225 33.3547 125.42 33.305C125.615 33.2554 125.82 33.2633 126.011 33.3276C126.202 33.392 126.37 33.5101 126.495 33.6678C126.513 33.6916 126.54 33.7023 126.567 33.7023C126.585 33.7025 126.602 33.6976 126.618 33.6881C126.633 33.6786 126.645 33.665 126.653 33.6487C126.82 33.2916 127.18 33.0439 127.6 33.0439Z" fill="white"/>
<path fillRule="evenodd" clipRule="evenodd" d="M131.39 45.6022C130.449 45.6022 130.523 44.2731 131.39 44.2731C132.258 44.2731 132.332 45.6022 131.39 45.6022ZM123.609 45.6022C122.668 45.6022 122.742 44.2731 123.609 44.2731C124.477 44.2731 124.551 45.6022 123.609 45.6022ZM134.236 40.6915H133.917C133.645 40.6915 133.38 40.6129 133.152 40.4652C132.924 40.3176 132.744 40.1072 132.633 39.8594C132.522 40.1069 132.342 40.317 132.114 40.4644C131.887 40.6118 131.621 40.6902 131.35 40.6902C131.079 40.6902 130.813 40.6118 130.585 40.4644C130.358 40.317 130.178 40.1069 130.067 39.8594C129.955 40.1067 129.775 40.3166 129.548 40.4639C129.32 40.6112 129.055 40.6896 128.784 40.6896C128.512 40.6896 128.247 40.6112 128.019 40.4639C127.792 40.3166 127.612 40.1067 127.5 39.8594C127.389 40.1069 127.209 40.317 126.982 40.4644C126.754 40.6118 126.488 40.6902 126.217 40.6902C125.946 40.6902 125.68 40.6118 125.453 40.4644C125.225 40.317 125.045 40.1069 124.934 39.8594C124.823 40.1071 124.643 40.3174 124.415 40.465C124.187 40.6125 123.922 40.6911 123.65 40.6911C123.379 40.6911 123.114 40.6125 122.886 40.465C122.658 40.3174 122.478 40.1071 122.367 39.8594C122.256 40.1071 122.076 40.3174 121.848 40.4649C121.621 40.6124 121.355 40.6909 121.084 40.6909H120.768C120.29 41.2058 120.594 41.6409 121.775 41.6409V44.2844C121.775 46.7689 124.636 48.0112 127.497 48.0112C130.358 48.0112 133.219 46.7689 133.219 44.285V41.6409C134.402 41.6409 134.71 41.2064 134.236 40.6909V40.6915Z" fill="black"/>
<path fillRule="evenodd" clipRule="evenodd" d="M127.592 32.186C127.173 32.186 126.771 32.317 126.439 32.5485C126.045 32.3954 125.614 32.369 125.205 32.4732C124.795 32.5773 124.429 32.8068 124.157 33.1295C123.737 33.0835 123.314 33.1696 122.946 33.3758C122.578 33.5819 122.284 33.8979 122.104 34.2795C121.687 34.3435 121.3 34.5365 120.998 34.8313C120.696 35.126 120.493 35.508 120.419 35.9235C120.025 36.0966 119.696 36.3907 119.48 36.7634C119.274 37.1213 119.182 37.5335 119.217 37.945C118.888 38.2087 118.649 38.5689 118.535 38.975C118.42 39.3812 118.436 39.813 118.579 40.2099C118.33 40.5499 118.193 40.9594 118.187 41.3813C118.182 41.8031 118.309 42.216 118.549 42.5622C118.396 42.9553 118.37 43.3865 118.474 43.7954C118.578 44.2043 118.807 44.5705 119.129 44.8426C119.083 45.2621 119.169 45.6858 119.375 46.054C119.581 46.4222 119.898 46.7167 120.28 46.8962C120.344 47.3135 120.536 47.7004 120.831 48.0028C121.125 48.3052 121.507 48.5078 121.923 48.5825C122.092 48.9688 122.379 49.2925 122.741 49.508C123.104 49.7235 123.525 49.8201 123.946 49.7843C124.135 50.0209 124.376 50.2118 124.649 50.343C124.923 50.4741 125.222 50.5422 125.525 50.542C125.763 50.542 125.994 50.5003 126.212 50.4218C126.552 50.6708 126.961 50.8075 127.382 50.8129C127.803 50.8183 128.215 50.6919 128.561 50.4515C128.964 50.6084 129.405 50.6324 129.822 50.52C130.221 50.4127 130.577 50.186 130.843 49.8706C131.272 49.9194 131.705 49.8285 132.077 49.6116C132.434 49.4049 132.72 49.094 132.895 48.7206C133.322 48.6562 133.716 48.4562 134.02 48.1503C134.318 47.8533 134.508 47.4759 134.58 47.0765C134.975 46.9032 135.304 46.6089 135.52 46.236C135.726 45.8784 135.818 45.4663 135.783 45.0551C136.112 44.7914 136.351 44.4312 136.465 44.025C136.58 43.6188 136.564 43.187 136.42 42.7902C136.67 42.4501 136.807 42.0404 136.812 41.6185C136.818 41.1966 136.691 40.7835 136.45 40.4372C136.603 40.0442 136.629 39.6132 136.525 39.2044C136.421 38.7957 136.192 38.4297 135.87 38.1575C135.917 37.738 135.831 37.3143 135.625 36.946C135.419 36.5777 135.102 36.2832 134.72 36.1039C134.655 35.6778 134.456 35.2836 134.151 34.9789C133.859 34.6857 133.484 34.4897 133.077 34.4176C132.907 34.031 132.621 33.7072 132.258 33.4916C131.895 33.276 131.474 33.1793 131.054 33.2152C130.79 32.886 130.429 32.6476 130.023 32.5334C129.617 32.4191 129.185 32.4349 128.788 32.5783C128.441 32.3235 128.022 32.1861 127.592 32.186ZM127.592 33.1842C128.013 33.1842 128.374 33.4384 128.532 33.8009C128.54 33.8176 128.552 33.8318 128.567 33.8417C128.583 33.8516 128.601 33.8569 128.619 33.8569C128.632 33.8569 128.645 33.854 128.657 33.8484C128.669 33.8429 128.679 33.8348 128.688 33.8247C128.813 33.6747 128.979 33.5637 129.166 33.5047C129.352 33.4456 129.552 33.441 129.741 33.4914C130.148 33.6009 130.432 33.9402 130.491 34.3325C130.493 34.3478 130.499 34.3623 130.509 34.3746C130.519 34.3869 130.531 34.3965 130.545 34.4026C130.56 34.4088 130.575 34.4112 130.591 34.4096C130.606 34.4081 130.621 34.4026 130.634 34.3938C130.808 34.2717 131.015 34.2069 131.226 34.2069C131.37 34.2071 131.513 34.2379 131.645 34.2971C131.777 34.3564 131.894 34.4428 131.991 34.5507C132.087 34.6587 132.159 34.7857 132.202 34.9235C132.246 35.0613 132.26 35.2068 132.244 35.3503C132.242 35.3659 132.245 35.3815 132.251 35.3958C132.257 35.4101 132.266 35.4227 132.279 35.4323C132.291 35.4419 132.306 35.4482 132.321 35.4507C132.336 35.4533 132.352 35.4519 132.367 35.4468C132.55 35.379 132.75 35.3654 132.941 35.4076C133.132 35.4499 133.307 35.546 133.445 35.6849C133.743 35.9831 133.819 36.4188 133.674 36.7878C133.668 36.8024 133.667 36.8181 133.669 36.8334C133.671 36.8488 133.677 36.8634 133.687 36.8758C133.696 36.8882 133.708 36.8981 133.722 36.9046C133.736 36.911 133.752 36.9139 133.767 36.9128C133.965 36.8947 134.163 36.9341 134.338 37.0263C134.514 37.1185 134.658 37.2596 134.755 37.4324C134.852 37.6052 134.897 37.8023 134.884 38C134.871 38.1977 134.801 38.3874 134.683 38.5462C134.674 38.5588 134.668 38.5735 134.666 38.589C134.665 38.6044 134.667 38.62 134.673 38.6344C134.678 38.6487 134.688 38.6615 134.7 38.6713C134.712 38.6812 134.726 38.6878 134.741 38.6908C134.936 38.7248 135.117 38.8145 135.262 38.949C135.407 39.0835 135.511 39.2571 135.559 39.4489C135.608 39.6407 135.6 39.8425 135.537 40.03C135.474 40.2175 135.357 40.3827 135.202 40.5057C135.191 40.5156 135.181 40.5284 135.176 40.5428C135.17 40.5572 135.168 40.5728 135.17 40.5883C135.172 40.6036 135.177 40.6183 135.186 40.6309C135.196 40.6435 135.208 40.6537 135.221 40.6605C135.401 40.7436 135.553 40.8769 135.658 41.0442C135.764 41.2115 135.818 41.4058 135.816 41.6036C135.814 41.8013 135.754 41.9943 135.645 42.1591C135.536 42.3238 135.381 42.4535 135.199 42.5325C135.185 42.5385 135.172 42.5483 135.163 42.5606C135.153 42.573 135.147 42.5876 135.144 42.6031C135.142 42.6185 135.143 42.6344 135.149 42.6491C135.154 42.6638 135.163 42.677 135.175 42.6872C135.327 42.8141 135.439 42.9822 135.498 43.1714C135.556 43.3606 135.559 43.5626 135.505 43.7532C135.452 43.9438 135.344 44.1147 135.195 44.2455C135.047 44.3763 134.863 44.4613 134.667 44.4902C134.652 44.4929 134.638 44.4994 134.626 44.509C134.614 44.5187 134.604 44.5312 134.598 44.5455C134.592 44.5597 134.59 44.5752 134.591 44.5906C134.593 44.606 134.598 44.6208 134.607 44.6337C134.721 44.7963 134.786 44.9887 134.793 45.1874C134.8 45.3862 134.75 45.5827 134.647 45.7532C134.545 45.9236 134.395 46.0606 134.216 46.1475C134.037 46.2344 133.837 46.2674 133.639 46.2426C133.625 46.2428 133.61 46.2465 133.597 46.2534C133.584 46.2603 133.573 46.2702 133.564 46.2824C133.556 46.2944 133.551 46.3084 133.549 46.323C133.547 46.3376 133.548 46.3525 133.553 46.3664C133.621 46.5522 133.634 46.754 133.591 46.9471C133.547 47.1402 133.448 47.3165 133.306 47.4548C133.165 47.593 132.986 47.6872 132.792 47.726C132.597 47.7649 132.396 47.7466 132.212 47.6735C132.202 47.6693 132.191 47.6671 132.18 47.667C132.167 47.6671 132.155 47.6699 132.143 47.675C132.131 47.6802 132.121 47.6877 132.112 47.6971C132.103 47.7064 132.097 47.7175 132.093 47.7295C132.088 47.7415 132.087 47.7543 132.088 47.767C132.106 47.9643 132.066 48.1625 131.974 48.3378C131.881 48.513 131.74 48.6578 131.567 48.7546C131.395 48.8515 131.198 48.8962 131 48.8834C130.802 48.8705 130.612 48.8007 130.454 48.6825C130.439 48.671 130.42 48.6648 130.401 48.6646C130.379 48.6645 130.358 48.6721 130.341 48.686C130.324 48.6999 130.313 48.7193 130.309 48.7408C130.275 48.9357 130.185 49.1167 130.051 49.2619C129.916 49.407 129.743 49.5102 129.551 49.559C129.359 49.6077 129.157 49.6 128.97 49.5366C128.782 49.4733 128.617 49.3572 128.494 49.2021C128.486 49.1915 128.475 49.183 128.463 49.1772C128.45 49.1715 128.437 49.1686 128.423 49.1688C128.406 49.1685 128.389 49.1733 128.374 49.1824C128.359 49.1916 128.347 49.2049 128.339 49.2206C128.256 49.3997 128.123 49.5509 127.956 49.6562C127.788 49.7615 127.594 49.8162 127.397 49.814C127.199 49.8117 127.006 49.7525 126.842 49.6434C126.677 49.5344 126.547 49.3801 126.468 49.1991C126.461 49.1823 126.449 49.168 126.433 49.158C126.418 49.1479 126.4 49.1426 126.382 49.1426C126.368 49.1424 126.355 49.1453 126.343 49.1508C126.331 49.1563 126.321 49.1646 126.313 49.1747C126.187 49.3247 126.021 49.4356 125.834 49.4947C125.648 49.5537 125.448 49.5584 125.259 49.5081C125.066 49.4561 124.892 49.3489 124.759 49.1996C124.626 49.0503 124.54 48.8654 124.51 48.6676C124.508 48.6521 124.501 48.6375 124.492 48.6252C124.482 48.6128 124.47 48.6031 124.455 48.597C124.441 48.5909 124.425 48.5885 124.409 48.5901C124.394 48.5917 124.379 48.5973 124.366 48.6063C124.193 48.7277 123.985 48.7926 123.774 48.7926C123.63 48.7923 123.487 48.7615 123.355 48.7021C123.223 48.6428 123.106 48.5563 123.01 48.4483C122.914 48.3403 122.841 48.2133 122.798 48.0755C122.754 47.9376 122.74 47.7921 122.757 47.6485C122.758 47.6332 122.755 47.6178 122.749 47.6037C122.743 47.5896 122.733 47.5773 122.721 47.5678C122.709 47.5584 122.695 47.5521 122.679 47.5496C122.664 47.5471 122.649 47.5483 122.634 47.5533C122.45 47.6211 122.251 47.6347 122.06 47.5925C121.869 47.5503 121.694 47.454 121.555 47.3152C121.414 47.1736 121.317 46.9937 121.276 46.7976C121.236 46.6015 121.253 46.3978 121.327 46.2116C121.332 46.1971 121.334 46.1813 121.332 46.1659C121.33 46.1505 121.323 46.1359 121.314 46.1234C121.305 46.1109 121.292 46.101 121.278 46.0946C121.264 46.0882 121.248 46.0855 121.233 46.0866C121.036 46.1045 120.838 46.0649 120.662 45.9726C120.487 45.8803 120.343 45.7393 120.246 45.5666C120.149 45.394 120.104 45.1969 120.117 44.9994C120.13 44.8018 120.199 44.6122 120.317 44.4533C120.326 44.4406 120.332 44.4259 120.334 44.4105C120.335 44.3951 120.333 44.3795 120.328 44.3651C120.322 44.3507 120.312 44.338 120.3 44.3281C120.288 44.3183 120.274 44.3116 120.259 44.3087C120.064 44.2746 119.883 44.185 119.738 44.0505C119.593 43.9159 119.49 43.7424 119.441 43.5506C119.392 43.3587 119.4 43.1569 119.463 42.9694C119.526 42.7819 119.643 42.6168 119.798 42.4938C119.81 42.4838 119.819 42.4712 119.825 42.4568C119.83 42.4424 119.832 42.4268 119.831 42.4114C119.829 42.396 119.823 42.3813 119.814 42.3687C119.805 42.356 119.793 42.3458 119.779 42.339C119.6 42.2557 119.449 42.1225 119.343 41.9552C119.238 41.788 119.183 41.5938 119.185 41.3962C119.188 41.1985 119.247 41.0057 119.356 40.841C119.466 40.6762 119.62 40.5466 119.801 40.4676C119.863 40.4402 119.877 40.3557 119.825 40.3128C119.673 40.186 119.561 40.0178 119.502 39.8285C119.443 39.6393 119.441 39.4372 119.494 39.2465C119.548 39.0557 119.656 38.8846 119.805 38.7538C119.953 38.623 120.137 38.5381 120.333 38.5093C120.348 38.5066 120.362 38.5002 120.374 38.4906C120.387 38.481 120.396 38.4686 120.402 38.4544C120.408 38.4402 120.411 38.4247 120.409 38.4094C120.408 38.394 120.403 38.3793 120.394 38.3664C120.279 38.2038 120.215 38.0113 120.207 37.8125C120.2 37.6136 120.251 37.4169 120.353 37.2463C120.456 37.0758 120.606 36.9387 120.785 36.8518C120.964 36.7649 121.164 36.7319 121.361 36.7569C121.423 36.7569 121.469 36.6932 121.447 36.6337C121.379 36.4478 121.367 36.2463 121.411 36.0535C121.455 35.8606 121.553 35.6846 121.695 35.5465C121.837 35.4084 122.015 35.3142 122.209 35.2752C122.403 35.2362 122.604 35.254 122.788 35.3265C122.799 35.3307 122.81 35.3325 122.82 35.3325C122.833 35.3324 122.846 35.3296 122.857 35.3244C122.869 35.3193 122.879 35.3118 122.888 35.3024C122.897 35.293 122.903 35.282 122.908 35.27C122.912 35.258 122.913 35.2452 122.913 35.2325C122.895 35.0353 122.935 34.8372 123.027 34.6621C123.119 34.487 123.26 34.3424 123.433 34.2456C123.606 34.1488 123.803 34.1041 124 34.1167C124.198 34.1294 124.388 34.199 124.546 34.317C124.559 34.3259 124.574 34.3315 124.589 34.3333C124.605 34.3351 124.62 34.333 124.635 34.3272C124.649 34.3214 124.662 34.3121 124.672 34.3001C124.681 34.2881 124.688 34.2739 124.691 34.2587C124.725 34.0636 124.815 33.8825 124.949 33.7372C125.084 33.5919 125.258 33.4886 125.449 33.4399C125.641 33.3911 125.843 33.3989 126.031 33.4623C126.218 33.5258 126.384 33.6421 126.507 33.7973C126.515 33.8079 126.526 33.8165 126.538 33.8224C126.55 33.8283 126.563 33.8313 126.577 33.8313C126.594 33.8315 126.612 33.8267 126.626 33.8174C126.641 33.8081 126.653 33.7947 126.661 33.7789C126.824 33.4277 127.179 33.1842 127.592 33.1842Z" fill="black"/>
</g>
<path fillRule="evenodd" clipRule="evenodd" d="M151.958 46.275C152.101 46.4226 152.171 46.6131 152.171 46.8458C152.171 47.078 152.077 47.2685 151.889 47.4173C151.701 47.5649 151.458 47.6387 151.162 47.6387H150.854C150.316 47.6445 149.787 47.5047 149.322 47.2339C148.867 46.9715 148.491 46.5908 148.235 46.1321C147.973 45.6667 147.842 45.1435 147.842 44.5613V40.6435H147.054C146.815 40.6435 146.621 40.5798 146.473 40.453C146.402 40.3957 146.345 40.323 146.307 40.2405C146.268 40.158 146.249 40.0679 146.25 39.9768C146.25 39.7655 146.324 39.5964 146.473 39.4696C146.621 39.3429 146.815 39.2792 147.054 39.2792H147.842V36.9952C147.842 36.7625 147.921 36.572 148.082 36.4238C148.241 36.2756 148.446 36.2018 148.698 36.2018C148.948 36.2018 149.154 36.2756 149.314 36.4238C149.473 36.572 149.553 36.7625 149.553 36.9952V39.2792H151.008C151.248 39.2792 151.442 39.3429 151.59 39.4696C151.739 39.5964 151.813 39.7655 151.813 39.9774C151.813 40.1679 151.738 40.3262 151.59 40.4536C151.441 40.5798 151.248 40.6435 151.008 40.6435H149.554V44.5613C149.554 44.9845 149.679 45.3387 149.93 45.6244C150.182 45.9101 150.49 46.053 150.854 46.053H151.436C151.642 46.053 151.816 46.1268 151.958 46.275ZM160.772 39.4774C161.467 39.8468 162.052 40.3942 162.466 41.0637C162.883 41.7351 163.091 42.4833 163.091 43.3083V46.8458C163.091 47.078 163.008 47.2714 162.843 47.425C162.677 47.578 162.469 47.6548 162.218 47.6548C161.967 47.6548 161.759 47.578 161.593 47.425C161.512 47.352 161.449 47.2624 161.406 47.1624C161.363 47.0625 161.343 46.9545 161.345 46.8458V46.2589C160.944 46.7151 160.447 47.0778 159.891 47.3214C159.308 47.5777 158.678 47.7076 158.042 47.7024C157.221 47.7024 156.476 47.5119 155.808 47.131C155.149 46.7587 154.605 46.2129 154.234 45.553C153.852 44.8815 153.661 44.1333 153.661 43.3089C153.661 42.4833 153.866 41.7351 154.277 41.0637C154.688 40.3923 155.255 39.8637 155.98 39.4774C156.704 39.0917 157.506 38.8982 158.385 38.8982C159.263 38.8982 160.059 39.0917 160.771 39.4774H160.772ZM159.933 45.8863C160.385 45.6372 160.761 45.2697 161.02 44.8232C161.282 44.3738 161.414 43.869 161.414 43.3083C161.414 42.7476 161.283 42.2405 161.02 41.7857C160.763 41.3357 160.387 40.9651 159.933 40.7143C159.471 40.456 158.955 40.3262 158.385 40.3262C157.814 40.3262 157.298 40.456 156.836 40.7149C156.381 40.9668 156.003 41.3368 155.741 41.7857C155.472 42.2405 155.338 42.7476 155.338 43.3083C155.338 43.869 155.472 44.3738 155.74 44.8232C156.004 45.2688 156.382 45.6358 156.835 45.8863C157.298 46.1452 157.814 46.275 158.385 46.275C158.955 46.275 159.471 46.1452 159.933 45.8863H159.933ZM166.736 47.369C166.052 47.147 165.516 46.8565 165.127 46.497C165.057 46.4358 165.001 46.3602 164.963 46.2754C164.925 46.1905 164.905 46.0985 164.905 46.0054C164.905 45.7512 165.019 45.5452 165.248 45.3863C165.464 45.2381 165.664 45.1643 165.846 45.1643C166.074 45.1643 166.292 45.2595 166.497 45.45C166.714 45.672 167.039 45.8649 167.472 46.0292C167.916 46.1949 168.386 46.2782 168.859 46.275C169.509 46.275 170.014 46.1738 170.373 45.9732C170.733 45.7726 170.913 45.503 170.913 45.1643C170.913 44.8369 170.736 44.5643 170.382 44.3476C170.028 44.1304 169.429 43.9482 168.585 43.8C166.394 43.4089 165.299 42.5738 165.299 41.294C165.299 40.7756 165.464 40.3369 165.795 39.9774C166.126 39.6173 166.56 39.3476 167.096 39.1679C167.632 38.9881 168.203 38.8982 168.807 38.8982C169.549 38.8982 170.214 39.0095 170.801 39.2315C171.389 39.4536 171.854 39.7601 172.196 40.1518C172.345 40.3208 172.419 40.4899 172.419 40.6595C172.419 40.8393 172.321 41.003 172.127 41.1512C172.002 41.2357 171.842 41.278 171.648 41.278C171.353 41.2783 171.067 41.1713 170.844 40.9768C170.58 40.7452 170.271 40.5696 169.937 40.4607C169.617 40.3607 169.229 40.3101 168.773 40.3101C168.248 40.3101 167.817 40.3923 167.481 40.556C167.144 40.7202 166.976 40.95 166.976 41.2464C166.976 41.4577 167.033 41.6345 167.147 41.7774C167.261 41.9202 167.478 42.0524 167.798 42.1744C168.117 42.2958 168.579 42.4149 169.184 42.5315C170.428 42.7637 171.309 43.0863 171.828 43.4988C172.347 43.9113 172.607 44.4452 172.607 45.1006C172.607 45.5875 172.464 46.0292 172.179 46.4256C171.894 46.822 171.474 47.1339 170.921 47.3613C170.367 47.5887 169.703 47.7024 168.927 47.7024C168.151 47.7024 167.421 47.5911 166.736 47.369ZM181.9 46.9726C181.9 47.2054 181.798 47.4012 181.592 47.5595C181.436 47.6815 181.243 47.7485 181.044 47.75C180.793 47.75 180.588 47.6548 180.428 47.4643L177.176 43.7369L176.321 44.4345V46.8619C176.321 47.094 176.243 47.2821 176.09 47.425C175.936 47.5679 175.733 47.6393 175.482 47.6393C175.231 47.6393 175.029 47.5679 174.874 47.425C174.72 47.2821 174.643 47.094 174.643 46.8619V36.0274C174.643 35.7946 174.72 35.6071 174.874 35.4643C175.029 35.3214 175.231 35.25 175.482 35.25C175.733 35.25 175.936 35.3214 176.09 35.4643C176.243 35.6071 176.321 35.7946 176.321 36.0274V42.4833L180.48 39.0411C180.628 38.9042 180.805 38.8351 181.01 38.8351C181.249 38.8351 181.443 38.9196 181.592 39.0887C181.74 39.2262 181.814 39.3905 181.814 39.5804C181.814 39.8024 181.723 39.9827 181.54 40.1202L178.392 42.7214L181.712 46.497C181.838 46.6238 181.9 46.7827 181.9 46.9732V46.9726ZM189.987 39.4774C190.682 39.8466 191.267 40.3941 191.681 41.0637C192.098 41.7351 192.306 42.4833 192.306 43.3083V46.8458C192.306 47.078 192.223 47.2714 192.058 47.425C191.892 47.578 191.684 47.6548 191.433 47.6548C191.182 47.6548 190.974 47.578 190.808 47.425C190.728 47.352 190.664 47.2624 190.621 47.1625C190.578 47.0626 190.558 46.9545 190.56 46.8458V46.2589C190.159 46.7151 189.662 47.0777 189.105 47.3214C188.523 47.5778 187.893 47.7077 187.257 47.7024C186.436 47.7024 185.691 47.5119 185.023 47.131C184.364 46.7586 183.82 46.2129 183.449 45.553C183.067 44.8815 182.876 44.1333 182.876 43.3089C182.876 42.4833 183.081 41.7351 183.492 41.0637C183.902 40.3923 184.47 39.8637 185.195 39.4774C185.919 39.0917 186.721 38.8982 187.599 38.8982C188.478 38.8982 189.274 39.0917 189.987 39.4774ZM189.148 45.8863C189.6 45.637 189.976 45.2696 190.235 44.8232C190.498 44.3738 190.629 43.869 190.629 43.3083C190.629 42.7476 190.498 42.2405 190.235 41.7857C189.978 41.3358 189.602 40.9652 189.148 40.7143C188.686 40.456 188.17 40.3262 187.599 40.3262C187.029 40.3262 186.513 40.456 186.051 40.7149C185.596 40.9668 185.217 41.3367 184.955 41.7857C184.687 42.2405 184.553 42.7476 184.553 43.3083C184.553 43.869 184.687 44.3738 184.955 44.8232C185.219 45.2688 185.597 45.6358 186.051 45.8863C186.513 46.1452 187.029 46.275 187.599 46.275C188.17 46.275 188.686 46.1452 189.148 45.8863ZM203.448 35.472C203.607 35.6202 203.687 35.8161 203.687 36.0589V43.2923C203.687 44.1173 203.479 44.8655 203.063 45.5369C202.648 46.2064 202.063 46.7538 201.368 47.1232C200.655 47.5095 199.859 47.7024 198.98 47.7024C198.102 47.7024 197.301 47.5095 196.576 47.1232C195.851 46.7375 195.284 46.2083 194.873 45.5369C194.463 44.8655 194.257 44.1173 194.257 43.2929C194.257 42.4679 194.448 41.7196 194.83 41.0482C195.201 40.3881 195.746 39.8421 196.405 39.4696C197.072 39.0887 197.817 38.8982 198.638 38.8982C199.3 38.8982 199.916 39.0256 200.487 39.2792C201.043 39.5231 201.54 39.886 201.942 40.3423V36.0589C201.942 35.8155 202.024 35.6202 202.19 35.472C202.355 35.3238 202.563 35.25 202.814 35.25C203.077 35.25 203.288 35.3238 203.448 35.472ZM200.529 45.8863C200.983 45.6357 201.359 45.2649 201.616 44.8149C201.879 44.3607 202.01 43.853 202.01 43.2923C202.01 42.7321 201.879 42.2268 201.616 41.7774C201.357 41.3311 200.981 40.9639 200.529 40.7149C200.067 40.4554 199.551 40.3262 198.98 40.3262C198.41 40.3262 197.894 40.456 197.432 40.7149C196.979 40.9654 196.601 41.3321 196.336 41.7774C196.068 42.2268 195.934 42.7321 195.934 43.2923C195.934 43.853 196.068 44.3607 196.336 44.8155C196.599 45.2643 196.977 45.6343 197.432 45.8863C197.894 46.1452 198.41 46.275 198.98 46.275C199.551 46.275 200.067 46.1452 200.529 45.8863ZM214.777 43.6655C214.629 43.7976 214.441 43.8637 214.213 43.8637H207.709C207.835 44.6042 208.197 45.2012 208.796 45.656C209.395 46.1107 210.128 46.3381 210.995 46.3381C211.359 46.3346 211.719 46.2758 212.065 46.1637C212.436 46.0476 212.741 45.9048 212.98 45.7351C213.145 45.6174 213.343 45.5562 213.545 45.5607C213.762 45.5607 213.933 45.6143 214.059 45.7196C214.264 45.878 214.367 46.0577 214.367 46.2589C214.367 46.4494 214.276 46.6077 214.093 46.7351C213.705 47.0208 213.223 47.253 212.647 47.4327C212.07 47.6125 211.52 47.7024 210.995 47.7024C210.06 47.7024 209.221 47.5149 208.479 47.1393C207.738 46.7643 207.158 46.2429 206.742 45.5768C206.326 44.9101 206.117 44.1542 206.117 43.3089C206.117 42.4625 206.314 41.7036 206.708 41.0321C207.098 40.3648 207.667 39.8207 208.351 39.4619C209.052 39.0863 209.848 38.8982 210.739 38.8982C211.617 38.8982 212.376 39.078 213.015 39.4375C213.642 39.7854 214.154 40.3093 214.486 40.9446C214.829 41.5899 215 42.3304 215 43.1655C215 43.3667 214.926 43.5333 214.777 43.6655ZM208.71 40.8976C208.191 41.3202 207.863 41.8857 207.726 42.594H213.426C213.323 41.8857 213.038 41.3202 212.57 40.8976C212.102 40.4744 211.492 40.2625 210.739 40.2625C209.905 40.2625 209.23 40.4744 208.71 40.897V40.8976Z" fill="black"/>
</g>
<defs>
<clipPath id="clip0_401_515">
<rect width="50" height="50" fill="white" transform="translate(20 16)"/>
</clipPath>
<clipPath id="clip1_401_515">
<rect width="100" height="25" fill="white" transform="translate(115 29)"/>
</clipPath>
</defs>
</svg>
