<svg width="250" height="82" viewBox="0 0 250 82" fill="none" xmlns="http://www.w3.org/2000/svg">
<path fill-rule="evenodd" clip-rule="evenodd" d="M29.3696 24.898C30.9167 26.155 31.4971 26.0591 34.4024 25.8652L61.7919 24.2206C62.3728 24.2206 61.8898 23.6411 61.696 23.5448L57.1472 20.2564C56.2756 19.5797 55.1144 18.8047 52.8888 18.9986L26.3675 20.9329C25.4003 21.0288 25.2071 21.5125 25.5923 21.9001L29.3696 24.898ZM31.014 31.2811V60.0996C31.014 61.6484 31.7879 62.2278 33.5299 62.132L63.631 60.3902C65.3738 60.2944 65.568 59.2291 65.568 57.971V29.3459C65.568 28.0897 65.0847 27.4124 64.0179 27.509L32.562 29.3459C31.4011 29.4434 31.0139 30.0241 31.0139 31.2811H31.014ZM60.7296 32.827C60.9226 33.6982 60.7296 34.5687 59.8567 34.6666L58.4065 34.9556V56.2313C57.1472 56.908 55.986 57.295 55.0184 57.295C53.4692 57.295 53.0812 56.8111 51.9208 55.3613L42.434 40.4682V54.8777L45.436 55.555C45.436 55.555 45.436 57.295 43.014 57.295L36.3371 57.6823C36.1431 57.295 36.3371 56.3287 37.0144 56.1352L38.7567 55.6522V36.6001L36.3376 36.4063C36.1435 35.535 36.6268 34.2788 37.9828 34.1813L45.1455 33.6985L55.0184 48.7855V35.4391L52.5012 35.1502C52.308 34.0851 53.0812 33.3118 54.0492 33.2159L60.7296 32.827ZM24.1408 18.322L51.7271 16.2904C55.1148 15.9999 55.9864 16.1945 58.1156 17.7412L66.9215 23.9305C68.3745 24.9948 68.8589 25.2845 68.8589 26.4447V60.3902C68.8589 62.5177 68.0838 63.7759 65.3743 63.9683L33.3382 65.9029C31.3042 65.9999 30.3362 65.71 29.271 64.3553L22.7862 55.9416C21.6243 54.3928 21.1411 53.2341 21.1411 51.8786V21.7055C21.1411 19.9658 21.9163 18.5146 24.1408 18.322Z" fill="black"/>
<g clip-path="url(#clip0_401_1585)">
<path d="M112.075 25.4873L131.155 24.0781C133.499 23.877 134.101 24.0126 135.575 25.0839L141.666 29.3747C142.67 30.1126 143.005 30.3138 143.005 31.1172V54.6495C143.005 56.1242 142.469 56.9966 140.594 57.1299L118.437 58.4713C117.03 58.538 116.36 58.3368 115.623 57.3977L111.138 51.5656C110.333 50.492 110 49.6885 110 48.7495V27.8322C110 26.6264 110.536 25.6207 112.075 25.4873Z" fill="white"/>
<path fill-rule="evenodd" clip-rule="evenodd" d="M131.155 24.0781L112.075 25.4873C110.536 25.6207 110 26.6264 110 27.8322V48.7495C110 49.6885 110.333 50.492 111.138 51.5656L115.623 57.3977C116.36 58.3368 117.03 58.538 118.437 58.4713L140.594 57.1299C142.468 56.9966 143.005 56.1242 143.005 54.6495V31.1172C143.005 30.3552 142.703 30.1356 141.817 29.485C141.766 29.4483 141.715 29.4115 141.664 29.3747L135.575 25.0839C134.101 24.0126 133.499 23.877 131.155 24.0781ZM118.938 30.7322C117.129 30.854 116.718 30.8816 115.691 30.046L113.078 27.9678C112.813 27.6988 112.946 27.3632 113.615 27.2965L131.957 25.9563C133.498 25.8218 134.3 26.3586 134.902 26.8276L138.048 29.1069C138.183 29.1747 138.517 29.5759 138.115 29.5759L119.172 30.7161L118.938 30.7322ZM116.829 54.4483V34.4713C116.829 33.5988 117.097 33.1965 117.899 33.1287L139.655 31.8552C140.393 31.7885 140.726 32.2575 140.726 33.1287V52.9724C140.726 53.8449 140.592 54.5828 139.387 54.6495L118.568 55.8564C117.363 55.923 116.829 55.5219 116.829 54.4483ZM137.38 35.5426C137.514 36.146 137.38 36.7495 136.777 36.8184L135.774 37.0173V51.7667C134.902 52.2357 134.1 52.5035 133.43 52.5035C132.359 52.5035 132.091 52.1679 131.289 51.1633L124.726 40.8391V50.8276L126.802 51.2977C126.802 51.2977 126.802 52.5046 125.128 52.5046L120.51 52.7724C120.376 52.5035 120.51 51.8334 120.978 51.7L122.184 51.3656V38.1587L120.51 38.023C120.376 37.4196 120.71 36.5483 121.648 36.4805L126.602 36.1472L133.43 46.6046V37.3529L131.69 37.1529C131.555 36.4138 132.091 35.877 132.76 35.8115L137.38 35.5426Z" fill="black"/>
<path d="M157.626 48.4265V39.3345H157.783L164.34 48.4265H166.404V35.0656H164.108V44.1483H163.951L157.395 35.0656H155.322V48.4253H157.627L157.626 48.4265ZM172.891 48.6311C175.92 48.6311 177.762 46.6495 177.762 43.3621C177.762 40.0839 175.911 38.0931 172.891 38.0931C169.882 38.0931 168.021 40.0931 168.021 43.3621C168.021 46.6495 169.854 48.6311 172.891 48.6311ZM172.891 46.7046C171.29 46.7046 170.374 45.4828 170.374 43.3621C170.374 41.2506 171.29 40.0196 172.891 40.0196C174.484 40.0196 175.4 41.2506 175.4 43.3621C175.4 45.4828 174.494 46.7046 172.891 46.7046ZM179.86 35.8161V38.3621H178.259V40.1954H179.86V45.723C179.86 47.6862 180.787 48.4736 183.111 48.4736C183.554 48.4736 183.981 48.4276 184.314 48.3621V46.5656C184.036 46.5931 183.86 46.6115 183.536 46.6115C182.574 46.6115 182.148 46.1679 182.148 45.1679V40.1954H184.314V38.3621H182.148V35.815H179.86V35.8161ZM185.69 48.4265H187.977V38.2966H185.69V48.4265ZM186.829 36.6219C187.588 36.6219 188.199 36.0092 188.199 35.2415C188.199 34.4725 187.589 33.8518 186.829 33.8518C186.08 33.8518 185.459 34.4725 185.459 35.2415C185.459 36.0092 186.08 36.6207 186.829 36.6207V36.6219ZM194.252 48.6311C197.28 48.6311 199.122 46.6495 199.122 43.3621C199.122 40.0839 197.271 38.0931 194.252 38.0931C191.242 38.0931 189.381 40.0931 189.381 43.3621C189.381 46.6495 191.214 48.6311 194.252 48.6311ZM194.252 46.7046C192.65 46.7046 191.733 45.4828 191.733 43.3621C191.733 41.2506 192.65 40.0196 194.252 40.0196C195.844 40.0196 196.761 41.2506 196.761 43.3621C196.761 45.4828 195.853 46.7046 194.252 46.7046ZM200.489 48.4265H202.785V42.5288C202.785 41.038 203.648 40.0931 205.017 40.0931C206.415 40.0931 207.062 40.8713 207.062 42.4173V48.4265H209.36V41.8713C209.36 39.4541 208.128 38.0931 205.869 38.0931C204.359 38.0931 203.341 38.7874 202.859 39.9173H202.702V38.2966H200.489V48.4265Z" fill="black"/>
</g>
<defs>
<clipPath id="clip0_401_1585">
<rect width="100" height="34.4828" fill="white" transform="translate(110 24)"/>
</clipPath>
</defs>
</svg>
