<svg width="248" height="82" viewBox="0 0 248 82" fill="none" xmlns="http://www.w3.org/2000/svg">
<g clipPath="url(#clip0_401_3373)">
<path fillRule="evenodd" clipRule="evenodd" d="M20.8618 41.0002C20.8618 54.3318 31.6693 65.1385 45.0001 65.1385C58.331 65.1385 69.1385 54.3318 69.1385 41.0002C69.1385 27.6693 58.331 16.8618 45.0001 16.8618C31.6693 16.8618 20.8618 27.6693 20.8618 41.0002Z" fill="white"/>
<path fillRule="evenodd" clipRule="evenodd" d="M45 22.0344C55.475 22.0344 63.9659 30.526 63.9659 41.0002C63.9659 51.4752 55.4742 59.966 45 59.966C34.525 59.966 26.0342 51.4744 26.0342 41.0002C26.0342 30.5252 34.5259 22.0344 45 22.0344Z" fill="#1A8CFF"/>
<path opacity="0.5" d="M20 41C20 54.8083 31.1925 66 45 66C58.8075 66 70 54.8083 70 41C70 27.1925 58.8075 16 45 16C31.1925 16 20 27.1925 20 41ZM20.8617 41C20.8617 27.6708 31.6675 16.8617 45 16.8617C58.3325 16.8617 69.1383 27.67 69.1383 41C69.1383 54.33 58.3325 65.1383 45 65.1383C31.6667 65.1383 20.8617 54.33 20.8617 41Z" fill="black"/>
<path fillRule="evenodd" clipRule="evenodd" d="M69.1043 39.7064C69.1268 40.1347 69.1376 40.5656 69.1376 40.9997C69.1376 54.3306 58.331 65.1381 45.0001 65.1381C31.6693 65.1381 20.8618 54.3306 20.8618 40.9997C20.8618 40.5664 20.8735 40.1347 20.896 39.7064C21.5685 52.4364 32.1026 62.5514 45.0001 62.5514C57.7976 62.5514 68.2693 52.5914 69.0868 40.0006L69.1035 39.7064H69.1043ZM45.0001 19.4481C56.6651 19.4481 66.121 28.9039 66.121 40.5689C66.121 47.0897 63.1651 52.9206 58.521 56.7956C62.4018 53.1756 64.8276 48.0181 64.8276 42.2931C64.8276 31.3431 55.951 22.4656 45.0001 22.4656C34.0501 22.4656 25.1727 31.3422 25.1727 42.2931C25.1727 48.0181 27.5985 53.1764 31.4793 56.7956C26.8351 52.9206 23.8793 47.0897 23.8793 40.5689C23.8793 28.9039 33.3351 19.4481 45.0001 19.4481Z" fill="black" fillOpacity="0.052"/>
<path opacity="0.256" d="M45 22.0344C55.475 22.0344 63.9659 30.5277 63.9659 41.0002C63.9659 51.4735 55.4759 59.966 45 59.966C34.6292 59.966 26.2042 51.6427 26.0367 41.3135L26.0342 41.0002C26.0342 30.5277 34.525 22.0344 45 22.0344ZM45 22.8969C35.0017 22.8969 26.8967 31.0019 26.8967 41.0002C26.8967 50.9985 35.0017 59.1035 45 59.1035C54.9984 59.1035 63.1034 50.9985 63.1034 41.0002C63.1034 31.0019 54.9984 22.8969 45 22.8969Z" fill="black"/>
<path d="M45.0958 25.9139C43.1001 25.9066 41.1227 26.2943 39.2775 27.0547C37.4322 27.815 35.7557 28.933 34.3446 30.3443C32.9333 31.7554 31.8153 33.4319 31.055 35.2772C30.2946 37.1224 29.9069 39.0998 29.9142 41.0955C29.9142 49.3622 36.6992 56.0855 45.0958 56.0855C53.3317 56.0855 60.0858 49.3314 60.0858 41.0955C60.0858 32.6997 53.3633 25.9139 45.0958 25.9139ZM45.0958 26.7755C52.8558 26.7755 59.2242 33.1439 59.2242 41.0955C59.2242 48.8555 52.8558 55.2239 45.0958 55.2239C37.1442 55.2239 30.7758 48.8555 30.7758 41.0955C30.7686 39.2129 31.134 37.3476 31.8511 35.6069C32.5682 33.8663 33.6227 32.2847 34.9538 30.9535C36.285 29.6224 37.8665 28.5679 39.6072 27.8508C41.3478 27.1337 43.2132 26.7683 45.0958 26.7755Z" fill="black" fillOpacity="0.25"/>
<path fillRule="evenodd" clipRule="evenodd" d="M45.096 26.7757C52.856 26.7757 59.2243 33.144 59.2243 41.0957C59.2243 48.8557 52.856 55.224 45.096 55.224C37.1443 55.224 30.776 48.8557 30.776 41.0957C30.7687 39.2131 31.1342 37.3477 31.8512 35.607C32.5683 33.8663 33.6228 32.2848 34.9541 30.9537C36.2852 29.6225 37.8667 28.568 39.6074 27.8509C41.3481 27.1338 43.2135 26.7684 45.096 26.7757Z" fill="#F7F7F7"/>
<path fillRule="evenodd" clipRule="evenodd" d="M51.4657 40.9998C51.4794 41.8576 51.3222 42.7096 51.0034 43.5061C50.6845 44.3026 50.2103 45.0277 49.6085 45.6391C49.0066 46.2505 48.2891 46.7361 47.4977 47.0675C46.7064 47.3989 45.857 47.5695 44.9991 47.5694C44.1411 47.5693 43.2917 47.3984 42.5005 47.0669C41.7092 46.7353 40.9918 46.2495 40.3901 45.6379C39.7884 45.0264 39.3145 44.3011 38.9958 43.5045C38.6771 42.7079 38.5201 41.8559 38.5341 40.9981C38.5616 39.3013 39.255 37.6832 40.4647 36.493C41.6745 35.3028 43.3036 34.6359 45.0007 34.6361C46.6978 34.6363 48.3268 35.3037 49.5362 36.4942C50.7457 37.6847 51.4387 39.3029 51.4657 40.9998Z" fill="black" fillOpacity="0.05"/>
<path d="M44.9998 33.6725C43.0564 33.6725 41.1925 34.4446 39.8182 35.8188C38.444 37.1931 37.6719 39.0569 37.6719 41.0004C37.6719 42.9439 38.444 44.8078 39.8182 46.1821C41.1925 47.5563 43.0564 48.3283 44.9998 48.3283C46.9433 48.3283 48.8072 47.5563 50.1815 46.1821C51.5557 44.8078 52.3277 42.9439 52.3277 41.0004C52.3277 39.0569 51.5557 37.1931 50.1815 35.8188C48.8072 34.4446 46.9433 33.6725 44.9998 33.6725ZM44.9998 34.5342C45.8551 34.5247 46.7039 34.6849 47.4969 35.0057C48.2899 35.3264 49.0113 35.8013 49.6195 36.4028C50.2276 37.0043 50.7104 37.7206 51.0398 38.51C51.3693 39.2994 51.5388 40.1463 51.5386 41.0017C51.5385 41.8571 51.3686 42.7039 51.0389 43.4932C50.7091 44.2825 50.226 44.9986 49.6177 45.5998C49.0093 46.2011 48.2876 46.6757 47.4945 46.9962C46.7015 47.3167 45.8526 47.4766 44.9973 47.4667C43.2951 47.4469 41.6693 46.7567 40.4727 45.5459C39.2761 44.335 38.6053 42.7012 38.6057 40.9988C38.6061 39.2964 39.2779 37.6629 40.475 36.4527C41.6723 35.2424 43.2984 34.5531 45.0006 34.5342H44.9998Z" fill="white"/>
<path d="M45.0001 34.5339C45.8555 34.5244 46.7042 34.6847 47.4971 35.0054C48.2901 35.3262 49.0116 35.8011 49.6197 36.4026C50.2279 37.0041 50.7107 37.7203 51.0401 38.5097C51.3695 39.2992 51.5391 40.1461 51.539 41.0014C51.5388 41.8568 51.3689 42.7037 51.0391 43.493C50.7094 44.2822 50.2264 44.9982 49.618 45.5996C49.0095 46.2008 48.288 46.6755 47.4949 46.9959C46.7017 47.3164 45.853 47.4763 44.9976 47.4664C43.2954 47.4467 41.6695 46.7565 40.473 45.5456C39.2764 44.3347 38.6055 42.7009 38.606 40.9985C38.6065 39.2962 39.2781 37.6627 40.4754 36.4524C41.6725 35.2422 43.2987 34.5528 45.001 34.5339H45.0001ZM45.0001 35.3964C44.2642 35.3963 43.5355 35.5412 42.8557 35.8227C42.1758 36.1043 41.558 36.517 41.0377 37.0373C40.5174 37.5577 40.1046 38.1754 39.823 38.8553C39.5415 39.5352 39.3966 40.2639 39.3968 40.9997C39.3966 41.7357 39.5415 42.4643 39.823 43.1442C40.1046 43.8241 40.5174 44.4418 41.0377 44.9622C41.558 45.4825 42.1758 45.8952 42.8557 46.1768C43.5355 46.4583 44.2642 46.6032 45.0001 46.6031C45.736 46.6032 46.4646 46.4583 47.1445 46.1768C47.8245 45.8952 48.4422 45.4825 48.9625 44.9622C49.4829 44.4418 49.8955 43.8241 50.1771 43.1442C50.4587 42.4643 50.6035 41.7357 50.6035 40.9997C50.6035 40.2639 50.4587 39.5352 50.1771 38.8553C49.8955 38.1754 49.4829 37.5577 48.9625 37.0373C48.4422 36.517 47.8245 36.1043 47.1445 35.8227C46.4646 35.5412 45.736 35.3963 45.0001 35.3964Z" fill="black" fillOpacity="0.15"/>
<path d="M47.4041 29.7932H42.5958C41.5316 29.7932 40.6899 30.7265 40.6899 31.8498V36.5015C40.6899 36.9248 40.8424 37.334 41.1191 37.6407L41.8258 38.424C41.8424 38.4432 41.8424 38.494 41.8258 38.5123L41.1191 39.2957C40.8424 39.604 40.6899 40.0123 40.6899 40.4348V50.1498C40.6899 51.274 41.5316 52.2073 42.5966 52.2073H47.4041C48.4699 52.2073 49.3108 51.274 49.3108 50.1498V45.4982C49.313 45.0787 49.1602 44.6733 48.8816 44.3598L48.1749 43.5757C48.1583 43.5573 48.1583 43.5057 48.1749 43.4873L48.8816 42.704C49.1583 42.3965 49.3108 41.9882 49.3108 41.5648V31.8498C49.3108 30.7265 48.4691 29.7932 47.4041 29.7932ZM47.3491 30.6715C47.9566 30.6715 48.4491 31.2298 48.4491 31.9173V41.5615C48.4491 41.7815 48.3716 41.9923 48.2341 42.1482L47.5466 42.9265C47.4082 43.0909 47.3323 43.299 47.3323 43.514C47.3323 43.7289 47.4082 43.937 47.5466 44.1015L48.2341 44.8798C48.3716 45.0357 48.4483 45.2465 48.4483 45.4665V50.0832C48.4483 50.7707 47.9566 51.329 47.3491 51.329H42.6516C42.0441 51.329 41.5516 50.7707 41.5516 50.0832V40.439C41.5516 40.219 41.6291 40.0073 41.7666 39.8515L42.4541 39.0732C42.5925 38.9087 42.6684 38.7006 42.6684 38.4857C42.6684 38.2707 42.5925 38.0626 42.4541 37.8982L41.7666 37.1207C41.6261 36.9573 41.5497 36.7486 41.5516 36.5332V31.9165C41.5516 31.229 42.0441 30.6715 42.6516 30.6715H47.3483H47.3491Z" fill="white"/>
<path fillRule="evenodd" clipRule="evenodd" d="M41.5518 36.5266V31.9032C41.5518 31.2141 42.0443 30.6549 42.6518 30.6549H47.3485C47.956 30.6549 48.4485 31.2132 48.4485 31.9032V41.5616C48.4485 41.7824 48.371 41.9949 48.2335 42.1499L47.546 42.9299C47.4075 43.0946 47.3315 43.3027 47.3315 43.5178C47.3315 43.733 47.4075 43.9412 47.546 44.1057L48.2335 44.8857C48.371 45.0416 48.4476 45.2532 48.4476 45.4741V50.0974C48.4476 50.7866 47.956 51.3449 47.3485 51.3449H42.6518C42.0443 51.3449 41.5518 50.7866 41.5518 50.0974V40.4382C41.5518 40.2174 41.6293 40.0057 41.7668 39.8499L42.4543 39.0707C42.5928 38.906 42.6688 38.6977 42.6688 38.4824C42.6688 38.2672 42.5928 38.0588 42.4543 37.8941L41.7668 37.1141C41.6263 36.9507 41.55 36.742 41.5518 36.5266Z" fill="#0A2D4D"/>
<path d="M47.3493 30.6549C47.9568 30.6549 48.4493 31.2132 48.4493 31.9032V41.5616C48.4493 41.7824 48.3718 41.9949 48.2343 42.1499L47.5468 42.9299C47.4083 43.0946 47.3324 43.3027 47.3324 43.5178C47.3324 43.733 47.4083 43.9412 47.5468 44.1057L48.2343 44.8857C48.3718 45.0416 48.4485 45.2532 48.4485 45.4741V50.0974C48.4485 50.7866 47.9568 51.3449 47.3493 51.3449H42.6518C42.0443 51.3449 41.5518 50.7866 41.5518 50.0974V40.4382C41.5518 40.2174 41.6293 40.0057 41.7668 39.8499L42.4543 39.0707C42.5928 38.906 42.6688 38.6977 42.6688 38.4824C42.6688 38.2672 42.5928 38.0588 42.4543 37.8941L41.7668 37.1141C41.6263 36.9507 41.55 36.742 41.5518 36.5266V31.9032C41.5518 31.2141 42.0443 30.6549 42.6518 30.6549H47.3485H47.3493ZM47.2251 31.5407L42.7751 31.5349C42.601 31.5349 42.4376 31.6982 42.4168 31.9299L42.4143 31.9799V36.5632C42.4143 36.5766 42.4168 36.5882 42.421 36.5966L42.4268 36.6066L43.1468 37.3799C43.7093 37.9841 43.7285 38.9316 43.2051 39.5599L43.1468 39.6266L42.4268 40.3991C42.4213 40.4065 42.4175 40.4151 42.416 40.4241L42.4143 40.4424V50.0199C42.4143 50.2607 42.5668 50.4399 42.7385 50.4624L42.776 50.4649L47.226 50.4707C47.3993 50.4707 47.5635 50.3074 47.5843 50.0757L47.5868 50.0257V45.4432C47.5867 45.4318 47.5845 45.4205 47.5801 45.4099L47.5743 45.3999L46.8543 44.6266C46.5835 44.3312 46.4284 43.9478 46.4176 43.5471C46.407 43.1464 46.5413 42.7553 46.796 42.4457L46.8543 42.3799L47.5743 41.6066C47.58 41.5993 47.5837 41.5907 47.5851 41.5816L47.5868 41.5632V31.9866C47.5868 31.7449 47.4343 31.5657 47.2618 31.5432L47.2251 31.5407Z" fill="black" fillOpacity="0.4"/>
</g>
<g clipPath="url(#clip1_401_3373)">
<path fillRule="evenodd" clipRule="evenodd" d="M104.543 33.9715V44.5872C104.543 44.9188 104.564 44.9809 104.876 45.0014L106.58 45.1467V46.7846H99.2848V45.147L101.072 45.0017C101.363 44.9809 101.405 44.898 101.405 44.5872V37.4285C101.405 37.1314 101.18 37.1806 99.6179 37.7074L99.0415 36.0074L102.612 33.9715H104.543ZM111.432 34.0356H112.659C114.134 34.0356 115.361 34.3878 115.361 36.3781C115.361 38.7205 113.843 39.0314 112.472 39.0314H111.432V34.0356ZM112.949 41.2493H111.432V44.5664C111.432 44.8983 111.453 44.9396 111.765 44.9809L114.737 45.1467V46.7844H106.589V45.1467L107.899 45.0014C108.189 44.9604 108.232 44.8983 108.232 44.5872V33.9943C108.232 33.6835 108.19 33.6003 107.899 33.5795L106.589 33.4345V31.7761H113.636C117.481 31.7761 118.645 33.8077 118.645 36.1915C118.645 39.7983 116.463 41.2496 112.949 41.2496V41.2493ZM124.592 44.0485C124.114 44.4006 123.407 44.7949 122.7 44.7949C122.015 44.7949 121.516 44.4838 121.516 43.6544C121.516 42.8254 121.952 42.5143 123.178 42.4316L124.592 42.3279V44.0487V44.0485ZM134.147 40.0892C135.789 40.4621 137.639 41.0428 137.639 43.4681C137.639 45.9969 135.581 47.0336 132.942 47.0336C131.232 47.0336 129.561 46.6279 128.978 46.3658V46.7846H125.153L124.945 45.6653L124.841 45.6448C124.051 46.4117 123.012 47.0336 121.349 47.0336C118.731 47.0336 118.314 45.251 118.314 43.9653C118.314 41.8926 119.604 40.9391 122.202 40.7732L124.592 40.6074V39.4673C124.592 38.4929 124.488 37.8297 123.199 37.8297C122.202 37.8297 121.682 37.9747 121.682 39.2185L118.751 38.9695C118.751 36.1712 121.308 35.7769 123.22 35.7769C126.38 35.7769 127.647 36.6274 127.647 39.5294V44.5667C127.647 44.8983 127.668 44.9399 127.98 44.9812L128.826 45.1217V43.2812L131.05 43.4473L131.258 44.6288C131.278 44.8154 131.32 44.8983 131.507 44.9396C131.757 45.0228 132.318 45.147 133.108 45.147C134.209 45.147 134.833 44.8365 134.833 44.0693C134.833 43.2402 134.001 42.9912 132.942 42.8046C131.196 42.4938 128.909 42.1208 128.909 39.4052C128.909 36.8345 131.112 35.7769 133.502 35.7769C135.144 35.7769 136.745 36.1505 137.327 36.3781V39.3841L135.103 39.2393L134.895 38.161C134.875 37.9952 134.833 37.9126 134.688 37.871C134.417 37.7883 133.918 37.7052 133.357 37.7052C132.318 37.7052 131.736 38.0989 131.736 38.7621C131.736 39.6123 132.879 39.7986 134.147 40.0892ZM194.552 43.696C193.991 44.173 193.222 44.5875 192.515 44.5875C191.205 44.5875 190.624 43.4678 190.624 41.4573C190.624 39.6123 191.226 38.1818 192.765 38.1818C193.367 38.1818 194.033 38.4513 194.552 38.804V43.696ZM198.002 45.002L199 45.1473V46.7849H195.134L194.926 45.624L194.781 45.6029C193.908 46.453 192.889 47.0334 191.372 47.0334C188.92 47.0334 187.34 45.4787 187.34 41.5194C187.34 37.3527 189.439 35.7772 191.746 35.7772C192.952 35.7772 193.887 36.1918 194.677 36.7724V33.6211C194.677 33.4137 194.594 33.2687 194.407 33.2066L193.263 32.8126L193.492 31.1334H197.67V44.6077C197.67 44.9188 197.691 44.9604 198.002 45.0017V45.002ZM163 37.8086C162.71 37.8499 162.585 37.9539 162.502 38.2231L159.945 46.7844H156.661L155.04 39.8405H154.915L153.273 46.7846H149.532L146.912 38.2029C146.83 37.9539 146.725 37.9123 146.476 37.8502L146.274 37.8071V39.3841L144.05 39.2393L143.842 38.161C143.821 37.9952 143.779 37.9126 143.634 37.871C143.364 37.7883 142.865 37.7052 142.304 37.7052C141.265 37.7052 140.682 38.0989 140.682 38.7621C140.682 39.6123 141.826 39.7992 143.094 40.0892C144.736 40.4621 146.586 41.0428 146.586 43.4681C146.586 45.9972 144.528 47.0336 141.888 47.0336C139.996 47.0336 138.147 46.5359 137.772 46.2872V43.2815L139.996 43.4473L140.204 44.6288C140.225 44.8154 140.267 44.8983 140.454 44.9396C140.703 45.0228 141.265 45.147 142.055 45.147C143.156 45.147 143.779 44.8365 143.779 44.0693C143.779 43.2402 142.948 42.9912 141.888 42.8046C140.142 42.4938 137.856 42.1208 137.856 39.4052C137.856 36.8345 140.059 35.7769 142.449 35.7769C143.807 35.7769 145.135 36.0322 145.883 36.2496L145.936 35.9846H151.194V37.7052L150.03 37.8297L151.693 43.6544H151.839L153.689 36.2539H156.828L158.615 43.6544H158.74L160.299 37.8297L159.114 37.7052L159.384 35.9846H163.749V36.5957C163.49 36.9768 163.261 37.3782 163.067 37.796L163 37.8089V37.8086ZM184.493 38.3268C183.953 38.3268 183.309 38.7826 182.997 39.0524V44.5456C182.997 44.8772 183.018 44.9393 183.33 44.9604L185.387 45.1259V46.7846H178.59V45.1054L179.526 44.9809C179.817 44.9393 179.858 44.8772 179.858 44.5664V38.4923C179.858 38.2644 179.796 38.1194 179.589 38.0573L178.589 37.7069C178.556 37.6391 178.521 37.5735 178.487 37.5074L178.695 35.9844H182.353L182.602 37.6425H182.727C183.413 36.5855 184.328 35.7769 185.658 35.7769C186.136 35.7769 187.092 35.8599 187.466 35.9636V39.7365L184.972 39.6536L184.764 38.5547C184.722 38.3681 184.66 38.3268 184.493 38.3268Z" fill="#4E5F89"/>
<path fillRule="evenodd" clipRule="evenodd" d="M170.795 34.4188C174.571 34.4188 177.632 37.4801 177.632 41.2564C177.632 45.0328 174.571 48.094 170.795 48.094C167.018 48.094 163.957 45.0328 163.957 41.2564C163.957 37.4801 167.018 34.4188 170.795 34.4188Z" fill="#198CFF"/>
<path fillRule="evenodd" clipRule="evenodd" d="M162.248 41.2564C162.248 36.5359 166.074 32.7094 170.795 32.7094C175.515 32.7094 179.342 36.5359 179.342 41.2564C179.342 45.9772 175.515 49.8034 170.795 49.8034C166.074 49.8034 162.248 45.9772 162.248 41.2564ZM163.957 41.2564C163.957 45.0328 167.018 48.094 170.795 48.094C174.571 48.094 177.632 45.0328 177.632 41.2564C177.632 37.4801 174.571 34.4188 170.795 34.4188C167.018 34.4188 163.957 37.4801 163.957 41.2564Z" fill="white"/>
<path opacity="0.5" d="M161.963 41.2564C161.963 46.1342 165.917 50.0883 170.795 50.0883C175.672 50.0883 179.627 46.1342 179.627 41.2564C179.627 36.3789 175.672 32.4245 170.795 32.4245C165.917 32.4245 161.963 36.3789 161.963 41.2564ZM162.248 41.2564C162.248 36.5365 166.074 32.7094 170.795 32.7094C175.516 32.7094 179.342 36.5365 179.342 41.2564C179.342 45.9764 175.516 49.8034 170.795 49.8034C166.074 49.8034 162.248 45.9764 162.248 41.2564ZM164.242 41.2558C164.242 44.8746 167.176 47.808 170.795 47.808C174.414 47.808 177.348 44.8746 177.348 41.2558C177.348 37.6373 174.414 34.7037 170.795 34.7037C167.176 34.7037 164.242 37.6373 164.242 41.2558ZM163.957 41.2564C163.957 37.4806 167.018 34.4188 170.795 34.4188C174.571 34.4188 177.632 37.4806 177.632 41.2564C177.632 45.0322 174.572 48.094 170.795 48.094C167.018 48.094 163.957 45.0322 163.957 41.2564Z" fill="black"/>
<path fillRule="evenodd" clipRule="evenodd" d="M173.735 48.4012C176.336 47.2927 178.159 44.7183 178.159 41.7186C178.159 37.7066 174.898 34.4542 170.875 34.4542C166.853 34.4542 163.592 37.7066 163.592 41.7186C163.592 45.7186 166.834 48.9627 170.84 48.9818C170.828 48.9821 170.816 48.983 170.803 48.983C166.582 48.983 163.16 45.5696 163.16 41.359C163.16 37.1485 166.582 33.7351 170.803 33.7351C175.025 33.7351 178.447 37.1485 178.447 41.359C178.447 44.5337 176.501 47.2539 173.735 48.4012ZM170.656 49.0684C175.372 49.0684 179.195 45.2556 179.195 40.5525C179.195 40.1137 179.161 39.683 179.097 39.2622C179.256 39.9112 179.342 40.5887 179.342 41.2864C179.342 45.9901 175.519 49.8023 170.803 49.8023C166.527 49.8023 162.985 46.6676 162.362 42.5767C163.273 46.3023 166.64 49.0684 170.656 49.0684Z" fill="black" fillOpacity="0.1"/>
<path fillRule="evenodd" clipRule="evenodd" d="M170.795 36.1282C173.627 36.1282 175.923 38.4242 175.923 41.2564C175.923 44.0886 173.627 46.3846 170.795 46.3846C167.963 46.3846 165.667 44.0886 165.667 41.2564C165.667 38.4242 167.963 36.1282 170.795 36.1282Z" fill="#F2F2F2"/>
<path d="M170.795 36.1282C167.963 36.1282 165.667 38.4242 165.667 41.2564C165.667 44.0886 167.963 46.3846 170.795 46.3846C173.627 46.3846 175.923 44.0886 175.923 41.2564C175.923 38.4242 173.627 36.1282 170.795 36.1282ZM170.795 35.8433C173.784 35.8433 176.208 38.267 176.208 41.2564C176.208 44.2462 173.784 46.6695 170.795 46.6695C167.805 46.6695 165.382 44.2462 165.382 41.2564C165.382 38.267 167.805 35.8433 170.795 35.8433Z" fill="black" fillOpacity="0.25"/>
<path fillRule="evenodd" clipRule="evenodd" d="M173.074 41.2564C173.074 41.8609 172.834 42.4407 172.407 42.8681C171.979 43.2955 171.399 43.5356 170.795 43.5356C170.19 43.5356 169.61 43.2955 169.183 42.8681C168.756 42.4407 168.516 41.8609 168.516 41.2564C168.516 40.652 168.756 40.0722 169.183 39.6448C169.61 39.2174 170.19 38.9772 170.795 38.9772C171.399 38.9772 171.979 39.2174 172.407 39.6448C172.834 40.0722 173.074 40.652 173.074 41.2564Z" fill="black" fillOpacity="0.05"/>
<path d="M172.789 41.2564C172.789 40.7275 172.579 40.2203 172.205 39.8463C171.831 39.4722 171.324 39.2621 170.795 39.2621C170.266 39.2621 169.759 39.4722 169.385 39.8463C169.01 40.2203 168.801 40.7275 168.801 41.2564C168.801 41.7854 169.01 42.2926 169.385 42.6666C169.759 43.0406 170.266 43.2507 170.795 43.2507C171.324 43.2507 171.831 43.0406 172.205 42.6666C172.579 42.2926 172.789 41.7854 172.789 41.2564ZM173.074 41.2564C173.074 41.8609 172.834 42.4407 172.407 42.8681C171.979 43.2955 171.399 43.5356 170.795 43.5356C170.19 43.5356 169.61 43.2955 169.183 42.8681C168.756 42.4407 168.516 41.8609 168.516 41.2564C168.516 40.652 168.756 40.0722 169.183 39.6448C169.61 39.2174 170.19 38.9772 170.795 38.9772C171.399 38.9772 171.979 39.2174 172.407 39.6448C172.834 40.0722 173.074 40.652 173.074 41.2564Z" fill="black" fillOpacity="0.15"/>
<path d="M173.074 41.2564C173.074 40.652 172.834 40.0722 172.406 39.6448C171.979 39.2174 171.399 38.9772 170.795 38.9772C170.19 38.9772 169.61 39.2174 169.183 39.6448C168.756 40.0722 168.515 40.652 168.515 41.2564C168.515 41.8609 168.756 42.4406 169.183 42.8681C169.61 43.2955 170.19 43.5356 170.795 43.5356C171.399 43.5356 171.979 43.2955 172.406 42.8681C172.834 42.4406 173.074 41.8609 173.074 41.2564ZM173.359 41.2564C173.359 41.9365 173.089 42.5886 172.608 43.0695C172.127 43.5504 171.475 43.8205 170.795 43.8205C170.115 43.8205 169.462 43.5504 168.981 43.0695C168.501 42.5886 168.23 41.9365 168.23 41.2564C168.23 40.5764 168.501 39.9242 168.981 39.4433C169.462 38.9625 170.115 38.6923 170.795 38.6923C171.475 38.6923 172.127 38.9625 172.608 39.4433C173.089 39.9242 173.359 40.5764 173.359 41.2564Z" fill="white"/>
<path fillRule="evenodd" clipRule="evenodd" d="M169.655 40.2188V37.8376H171.934V41.8063L171.365 42.3351L171.934 42.8639V45.2451H169.655V41.2767L170.225 40.7476L169.655 40.2188Z" fill="white"/>
<path fillRule="evenodd" clipRule="evenodd" d="M169.655 39.9339V37.5527H171.934V41.5214L171.365 42.0502L171.934 42.5789V44.9601H169.655V40.9918L170.225 40.4627L169.655 39.9339Z" fill="#4D4D4D"/>
<path fillRule="evenodd" clipRule="evenodd" d="M169.94 40.1781V38.1226H171.649V41.6434L171.222 42.1314V42.4186L171.649 42.9624V44.9602H169.94V41.4331L170.367 40.9553V40.6664L169.94 40.1781Z" fill="#808080"/>
</g>
<defs>
<clipPath id="clip0_401_3373">
<rect width="50" height="50" fill="white" transform="translate(20 16)"/>
</clipPath>
<clipPath id="clip1_401_3373">
<rect width="100" height="19.0883" fill="white" transform="translate(99 31)"/>
</clipPath>
</defs>
</svg>
