<svg width="250" height="82" viewBox="0 0 250 82" fill="none" xmlns="http://www.w3.org/2000/svg">
<g clipPath="url(#clip0_401_208)">
<path d="M45 28.5C45 21.5964 50.5965 16 57.5 16C64.4035 16 70 21.5964 70 28.5C70 35.4035 64.4035 41 57.5 41C50.5965 41 45 35.4035 45 28.5Z" fill="#158D71"/>
<path d="M20 41H45V53.5C45 60.4035 39.4035 66 32.5 66C25.5964 66 20 60.4035 20 53.5V41Z" fill="#158D71"/>
<path d="M45 53.5C45 46.5965 50.5965 41 57.5 41C64.4035 41 70 46.5965 70 53.5V66H45V53.5Z" fill="#011936"/>
<path d="M20 28.5C20 21.5964 25.5964 16 32.5 16C39.4035 16 45 21.5964 45 28.5C45 35.4035 39.4035 41 32.5 41C25.5964 41 20 35.4035 20 28.5Z" fill="#011936"/>
</g>
<g clipPath="url(#clip1_401_208)">
<path d="M101.75 36.375C101.75 33.9588 103.709 32 106.125 32C108.541 32 110.5 33.9588 110.5 36.375C110.5 38.7912 108.541 40.75 106.125 40.75C103.709 40.75 101.75 38.7912 101.75 36.375Z" fill="#158D71"/>
<path d="M93 40.75H101.75V45.125C101.75 47.5412 99.7912 49.5 97.375 49.5C94.9588 49.5 93 47.5412 93 45.125V40.75Z" fill="#158D71"/>
<path d="M101.75 45.125C101.75 42.7088 103.709 40.75 106.125 40.75C108.541 40.75 110.5 42.7088 110.5 45.125V49.5H101.75V45.125Z" fill="#011936"/>
<path d="M93 36.375C93 33.9588 94.9588 32 97.375 32C99.7912 32 101.75 33.9588 101.75 36.375C101.75 38.7912 99.7912 40.75 97.375 40.75C94.9588 40.75 93 38.7912 93 36.375Z" fill="#011936"/>
<path d="M122.977 43.0375C122.96 44.805 121.595 45.4875 120.457 45.4875C119.32 45.4875 118.497 44.6125 118.497 43.23V38.54H116.975V43.265C116.957 45.5575 118.217 46.9225 120.265 46.9225C121.175 46.9225 122.487 46.4675 122.977 45.435V46.7125H124.5V38.54H122.977V43.0375Z" fill="black"/>
<path d="M129.456 46.9226C131.154 46.9226 132.624 45.9601 132.624 44.4376C132.624 43.5101 132.186 42.4951 130.489 42.0751L129.281 41.7776C128.756 41.6551 128.231 41.3576 128.231 40.7976C128.231 40.1676 128.756 39.6601 129.544 39.6601C130.191 39.6601 130.839 40.0801 130.856 40.7101H132.326C132.326 39.0651 130.891 38.3301 129.509 38.3301C127.864 38.3301 126.709 39.3976 126.709 40.7451C126.709 42.0576 127.496 42.7226 128.861 43.0901L129.981 43.3526C130.629 43.4926 131.101 43.8076 131.101 44.4201C131.101 45.0851 130.489 45.5926 129.456 45.5926C128.459 45.5926 127.846 45.0151 127.829 44.3151H126.411C126.481 45.9951 127.986 46.9226 129.456 46.9226Z" fill="black"/>
<path d="M142.293 42.6001C142.293 40.0101 140.561 38.3301 138.233 38.3301C135.906 38.3301 134.033 40.0101 134.033 42.6001C134.033 45.1901 135.906 46.9226 138.233 46.9226C139.808 46.9226 141.278 46.1526 141.978 44.7351L140.666 44.2101C140.193 45.0326 139.283 45.4876 138.286 45.4876C136.886 45.4876 135.836 44.7351 135.608 43.2826H142.258C142.276 43.0551 142.293 42.8276 142.293 42.6001ZM135.626 41.9701C135.871 40.5001 136.851 39.7651 138.233 39.7651C139.581 39.7651 140.578 40.5701 140.771 41.9701H135.626Z" fill="black"/>
<path d="M148.113 38.3301C147.028 38.3301 146.241 38.9601 145.821 40.3951V38.5401H144.281V46.7126H145.821V43.7201C145.821 41.5676 146.468 39.8001 148.096 39.8001C148.411 39.8001 148.848 39.8701 149.286 40.0801L149.531 38.6451C149.286 38.4876 148.691 38.3301 148.113 38.3301Z" fill="black"/>
<path d="M156.291 36.5451C156.886 36.5451 157.376 36.1076 157.376 35.5301C157.376 34.9526 156.886 34.5151 156.291 34.5151C155.713 34.5151 155.223 34.9526 155.223 35.5301C155.223 36.1076 155.713 36.5451 156.291 36.5451ZM157.061 46.7126V38.5401H155.538V46.7126H157.061Z" fill="black"/>
<path d="M163.856 38.3301C162.963 38.3301 161.633 38.7851 161.143 39.7826V38.5401H159.621V46.7126H161.143V42.2851C161.143 40.5176 162.508 39.8351 163.646 39.8351C164.783 39.8351 165.623 40.7101 165.623 42.0751V46.7126H167.146V41.9876C167.163 39.6951 165.886 38.3301 163.856 38.3301Z" fill="black"/>
<path d="M171.649 38.5402V35.4602H170.127V38.5402H168.657V39.8527H170.127V46.7127H171.649V39.8527H173.417V38.5402H171.649Z" fill="black"/>
<path d="M182.578 42.6001C182.578 40.0101 180.846 38.3301 178.518 38.3301C176.191 38.3301 174.318 40.0101 174.318 42.6001C174.318 45.1901 176.191 46.9226 178.518 46.9226C180.093 46.9226 181.563 46.1526 182.263 44.7351L180.951 44.2101C180.478 45.0326 179.568 45.4876 178.571 45.4876C177.171 45.4876 176.121 44.7351 175.893 43.2826H182.543C182.561 43.0551 182.578 42.8276 182.578 42.6001ZM175.911 41.9701C176.156 40.5001 177.136 39.7651 178.518 39.7651C179.866 39.7651 180.863 40.5701 181.056 41.9701H175.911Z" fill="black"/>
<path d="M188.398 38.3301C187.313 38.3301 186.526 38.9601 186.106 40.3951V38.5401H184.566V46.7126H186.106V43.7201C186.106 41.5676 186.753 39.8001 188.381 39.8001C188.696 39.8001 189.133 39.8701 189.571 40.0801L189.816 38.6451C189.571 38.4876 188.976 38.3301 188.398 38.3301Z" fill="black"/>
<path d="M194.413 44.77L191.893 38.54H190.266L193.661 46.7125H195.148L198.561 38.54H196.916L194.413 44.77Z" fill="black"/>
<path d="M200.817 36.5451C201.412 36.5451 201.902 36.1076 201.902 35.5301C201.902 34.9526 201.412 34.5151 200.817 34.5151C200.24 34.5151 199.75 34.9526 199.75 35.5301C199.75 36.1076 200.24 36.5451 200.817 36.5451ZM201.587 46.7126V38.5401H200.065V46.7126H201.587Z" fill="black"/>
<path d="M211.864 42.6001C211.864 40.0101 210.132 38.3301 207.804 38.3301C205.477 38.3301 203.604 40.0101 203.604 42.6001C203.604 45.1901 205.477 46.9226 207.804 46.9226C209.379 46.9226 210.849 46.1526 211.549 44.7351L210.237 44.2101C209.764 45.0326 208.854 45.4876 207.857 45.4876C206.457 45.4876 205.407 44.7351 205.179 43.2826H211.829C211.847 43.0551 211.864 42.8276 211.864 42.6001ZM205.197 41.9701C205.442 40.5001 206.422 39.7651 207.804 39.7651C209.152 39.7651 210.149 40.5701 210.342 41.9701H205.197Z" fill="black"/>
<path d="M222.044 44.35L219.944 38.54H218.457L216.374 44.35L214.292 38.54H212.647L215.762 46.7125H217.022L219.192 40.64L221.449 46.7125H222.727L225.772 38.54H224.127L222.044 44.35Z" fill="black"/>
<path d="M229.56 46.9226C231.258 46.9226 232.728 45.9601 232.728 44.4376C232.728 43.5101 232.29 42.4951 230.593 42.0751L229.385 41.7776C228.86 41.6551 228.335 41.3576 228.335 40.7976C228.335 40.1676 228.86 39.6601 229.648 39.6601C230.295 39.6601 230.943 40.0801 230.96 40.7101H232.43C232.43 39.0651 230.995 38.3301 229.613 38.3301C227.968 38.3301 226.813 39.3976 226.813 40.7451C226.813 42.0576 227.6 42.7226 228.965 43.0901L230.085 43.3526C230.733 43.4926 231.205 43.8076 231.205 44.4201C231.205 45.0851 230.593 45.5926 229.56 45.5926C228.563 45.5926 227.95 45.0151 227.933 44.3151H226.515C226.585 45.9951 228.09 46.9226 229.56 46.9226Z" fill="black"/>
</g>
<defs>
<clipPath id="clip0_401_208">
<rect width="50" height="50" fill="white" transform="translate(20 16)"/>
</clipPath>
<clipPath id="clip1_401_208">
<rect width="140" height="17.5" fill="white" transform="translate(93 32)"/>
</clipPath>
</defs>
</svg>
