<svg width="250" height="82" viewBox="0 0 250 82" fill="none" xmlns="http://www.w3.org/2000/svg">
<g clip-path="url(#clip0_401_51)">
<path d="M43.1081 31.9754V59.7734H20.0835L43.1081 31.9754ZM43.1081 22C43.1081 25.0533 41.8952 27.9815 39.7362 30.1404C37.5773 32.2994 34.6491 33.5123 31.5958 33.5123C28.5426 33.5123 25.6144 32.2994 23.4554 30.1404C21.2964 27.9815 20.0835 25.0533 20.0835 22H43.1081ZM46.9012 59.7759C46.9012 56.7227 48.114 53.7943 50.2732 51.6355C52.432 49.4764 55.3604 48.2635 58.4136 48.2635C61.4668 48.2635 64.3951 49.4764 66.5539 51.6355C68.7131 53.7943 69.9259 56.7227 69.9259 59.7759H46.9012ZM46.9012 49.8005V22H69.9308L46.9012 49.798V49.8005Z" fill="#03363D"/>
</g>
<g clip-path="url(#clip1_401_51)">
<path d="M157.931 47.536C159.218 47.536 160.505 47.0408 161.495 46.1498L163.277 48.0311C161.891 49.4173 160.01 50.2095 158.03 50.1105C153.772 50.1105 150.901 47.239 150.901 43.3772C150.802 39.7136 153.673 36.7431 157.337 36.644C157.436 36.644 157.535 36.644 157.634 36.644C161.891 36.644 164.366 39.9116 164.168 44.4664H153.97C154.267 46.4468 156.049 47.734 157.931 47.536ZM161 42.288C160.901 40.5057 159.416 39.1195 157.634 39.2185C155.752 39.1195 154.168 40.4067 153.97 42.288H161Z" fill="#072F35"/>
<path d="M91 47.4369L98.8218 39.5155H91.198V37.04H102.386V39.6145L94.5644 47.5359H102.485V50.0114H91V47.4369Z" fill="#072F35"/>
<path d="M111.792 47.5361C113.079 47.5361 114.367 47.041 115.357 46.1498L117.139 48.0311C115.753 49.5165 113.773 50.3086 111.792 50.2095C107.436 50.2095 104.664 47.338 104.664 43.4764C104.565 39.8127 107.436 36.8422 111.099 36.7432C111.198 36.7432 111.297 36.7432 111.396 36.7432C115.654 36.7432 118.129 40.0107 117.832 44.5656H107.832C108.129 46.447 109.911 47.7341 111.792 47.5361ZM114.862 42.2882C114.763 40.5058 113.277 39.1196 111.495 39.2186C109.713 39.1196 108.129 40.4068 107.832 42.2882H114.862Z" fill="#072F35"/>
<path d="M134.763 43.4762C134.565 39.9116 137.337 36.842 140.901 36.743C141 36.743 141.099 36.743 141.198 36.743C142.881 36.743 144.466 37.4361 145.456 38.7234V31H148.228V49.9124H145.456V48.1301C144.367 49.4172 142.782 50.2094 141.099 50.2094C137.535 50.2094 134.565 47.2389 134.664 43.6743C134.763 43.5752 134.763 43.4762 134.763 43.4762ZM145.654 43.4762C145.654 41.1988 143.773 39.4165 141.594 39.4165C139.317 39.4165 137.535 41.2978 137.535 43.4762C137.535 45.7536 139.416 47.5359 141.594 47.5359C143.872 47.5359 145.654 45.7536 145.654 43.4762Z" fill="#072F35"/>
<path d="M165.852 47.2385L168.327 45.8523C169.02 47.0405 170.307 47.7337 171.594 47.7337C173.178 47.7337 173.97 46.9415 173.97 46.0503C173.97 45.1592 172.485 44.7631 170.802 44.4661C168.624 43.971 166.347 43.2779 166.347 40.6044C166.347 38.525 168.327 36.6437 171.396 36.6437C173.475 36.5447 175.456 37.4358 176.644 39.1191L174.366 40.5054C173.673 39.5152 172.584 39.0201 171.495 39.0201C170.01 39.0201 169.317 39.7132 169.317 40.6044C169.317 41.4955 170.505 41.7926 172.386 42.1887C174.564 42.6838 176.941 43.3769 176.941 46.0503C176.941 47.8327 175.357 50.209 171.693 50.209C169.218 50.4072 166.941 49.2189 165.852 47.2385Z" fill="#072F35"/>
<path d="M183.871 44.1693L181.693 46.5457V49.9124H178.921V31H181.693V43.3772L187.535 36.9411H190.901L185.852 42.486L191 49.9124H187.931L183.871 44.1693Z" fill="#072F35"/>
<path d="M126.544 36.7432C123.277 36.7432 120.505 38.9215 120.505 42.3872V50.0115H123.277V42.7832C123.079 41.0999 124.267 39.6147 125.95 39.4166C126.148 39.4166 126.346 39.4166 126.544 39.4166C128.624 39.4166 129.614 40.7039 129.614 42.7832V50.0115H132.584V42.3872C132.584 38.8225 129.812 36.7432 126.544 36.7432Z" fill="#072F35"/>
</g>
<defs>
<clipPath id="clip0_401_51">
<rect width="50" height="37.931" fill="white" transform="translate(20 22)"/>
</clipPath>
<clipPath id="clip1_401_51">
<rect width="100" height="19.2308" fill="white" transform="translate(91 31)"/>
</clipPath>
</defs>
</svg>
