<svg width="250" height="82" viewBox="0 0 250 82" fill="none" xmlns="http://www.w3.org/2000/svg">
<g clip-path="url(#clip0_401_976)">
<path d="M69.8608 38.72C69.9293 39.4761 69.9767 40.2389 69.9767 41.0134C69.9767 40.2389 69.9293 39.4767 69.8608 38.72Z" fill="#56676E"/>
<path d="M32.8063 38.5879C32.8063 38.5879 25.8603 64.1803 53.7005 64.403C62.4355 61.1514 68.872 53.1792 69.8475 43.5678C69.9149 42.903 69.9349 42.2249 69.95 41.5456C69.9528 41.3668 69.9767 41.1931 69.9767 41.0133C69.9767 40.2393 69.9294 39.476 69.8609 38.7199C62.5057 67.6748 29.9667 56.3334 32.8063 38.5879Z" fill="#56676E"/>
<path d="M47.2016 29.0886C47.2016 29.0886 21.2807 21.8497 21.6794 50.1137C23.0081 53.5292 25.0701 56.6115 27.72 59.1432C27.8314 59.2484 27.9466 59.3481 28.0591 59.4516C28.8086 60.1427 29.5996 60.7873 30.4277 61.382C30.5563 61.4739 30.6771 61.5753 30.8063 61.6649C31.6822 62.2639 32.5956 62.8062 33.5407 63.2885C33.8152 63.4299 34.0975 63.5591 34.3759 63.6911C35.1893 64.074 36.0229 64.4123 36.8731 64.7044C37.0819 64.7757 37.2813 64.8648 37.4928 64.931C38.5121 65.2427 39.5505 65.4882 40.6014 65.666C40.9193 65.7217 41.2406 65.7685 41.5624 65.813C42.6527 65.9705 43.7521 66.0558 44.8536 66.0686C44.8959 66.0686 44.9366 66.0752 44.9789 66.0752C45.8096 66.0752 46.6298 66.0307 47.4388 65.9511C18.3553 59.0151 29.4099 26.494 47.2016 29.0886Z" fill="#56676E"/>
<path d="M57.3052 42.4923C57.3052 42.4923 63.4377 16.6381 35.833 17.7929C26.5763 21.4494 20.0234 30.4561 20.0234 41.0112C20.032 42.1478 20.1178 43.2826 20.2801 44.4076C26.0897 15.1571 59.1871 24.6304 57.3052 42.4923Z" fill="#56676E"/>
<path d="M44.0509 53.6179C44.0509 53.6179 70.0169 57.0077 68.3916 32.3201C64.8577 22.8173 55.733 16.0344 45.0002 16.0344C43.4804 16.0403 41.9644 16.1844 40.4707 16.4648C69.4039 20.0166 61.8838 53.8707 44.0509 53.6179Z" fill="#56676E"/>
<path d="M52.208 41.0139C52.208 42.3977 51.7977 43.7505 51.0288 44.901C50.26 46.0516 49.1672 46.9482 47.8887 47.4777C46.6102 48.0071 45.2034 48.1455 43.8462 47.8754C42.489 47.6053 41.2425 46.9388 40.2642 45.9601C39.2858 44.9815 38.6197 43.7347 38.35 42.3775C38.0803 41.0202 38.2192 39.6134 38.749 38.3351C39.2788 37.0567 40.1759 35.9643 41.3267 35.1958C42.4775 34.4273 43.8304 34.0174 45.2142 34.0178C47.0693 34.0183 48.8483 34.7556 50.1599 36.0675C51.4714 37.3796 52.2082 39.1588 52.208 41.0139Z" fill="#4E4F50"/>
</g>
<g clip-path="url(#clip1_401_976)">
<path d="M126.437 37.8098C126.47 38.1799 126.493 38.5534 126.493 38.9323C126.493 38.5532 126.47 38.1801 126.437 37.8098Z" fill="black"/>
<path d="M108.302 37.7451C108.302 37.7451 104.902 50.2702 118.527 50.3793C122.802 48.7879 125.952 44.8863 126.43 40.1824C126.463 39.8569 126.473 39.525 126.48 39.1925C126.481 39.1051 126.493 39.0202 126.493 38.932C126.493 38.5534 126.47 38.1798 126.436 37.8097C122.836 51.9806 106.912 46.43 108.302 37.7451Z" fill="black"/>
<path d="M115.347 33.0958C115.347 33.0958 102.661 29.5534 102.856 43.3861C103.506 45.0577 104.515 46.5661 105.812 47.8051C105.867 47.8567 105.923 47.9054 105.978 47.9562C106.345 48.2944 106.732 48.6099 107.137 48.9008C107.2 48.9458 107.259 48.9955 107.323 49.0394C107.751 49.3324 108.198 49.5979 108.661 49.8339C108.795 49.903 108.933 49.9663 109.07 50.0309C109.468 50.2184 109.876 50.3839 110.292 50.5268C110.394 50.5617 110.492 50.6054 110.595 50.6377C111.094 50.7903 111.602 50.9104 112.116 50.9975C112.272 51.0248 112.429 51.0477 112.587 51.0695C113.12 51.1464 113.658 51.1883 114.197 51.1946C114.218 51.1946 114.238 51.1977 114.259 51.1977C114.665 51.1977 115.067 51.1759 115.463 51.137C101.229 47.7425 106.639 31.8263 115.347 33.0962L115.347 33.0958Z" fill="black"/>
<path d="M120.292 39.6559C120.292 39.6559 123.293 27.0028 109.783 27.5679C105.252 29.3574 102.045 33.7653 102.045 38.9312C102.05 39.4875 102.092 40.0428 102.171 40.5934C105.014 26.2779 121.213 30.9141 120.292 39.6559Z" fill="black"/>
<path d="M113.804 45.1012C113.804 45.1012 126.513 46.76 125.717 34.6778C123.988 30.027 119.522 26.7073 114.269 26.7073C113.525 26.7102 112.783 26.7807 112.052 26.918C126.213 28.6564 122.532 45.2248 113.804 45.1012Z" fill="black"/>
<path d="M117.797 38.9326C117.797 39.8407 117.437 40.7116 116.794 41.3538C116.152 41.9959 115.281 42.3566 114.373 42.3566C113.465 42.3566 112.594 41.9959 111.952 41.3538C111.31 40.7116 110.949 39.8407 110.949 38.9326C110.949 38.0244 111.31 37.1535 111.952 36.5114C112.594 35.8692 113.465 35.5085 114.373 35.5085C115.281 35.5085 116.152 35.8692 116.794 36.5114C117.437 37.1535 117.797 38.0244 117.797 38.9326ZM132.544 48.8783V32.6374H134.98V36.6326C135.067 36.351 135.229 35.9831 135.468 35.5281C135.727 35.0517 136.096 34.5754 136.572 34.099C137.048 33.6226 137.644 33.222 138.358 32.8971C139.095 32.5506 139.961 32.3774 140.957 32.3774H141.119V34.8137H140.827C139.614 34.8137 138.564 35.1495 137.676 35.8208C136.81 36.4704 136.139 37.3257 135.662 38.3868C135.208 39.4263 134.98 40.5414 134.98 41.7324V48.8783H132.544ZM150.54 49.1381C148.894 49.1381 147.454 48.77 146.22 48.0339C144.986 47.2759 144.022 46.258 143.329 44.9805C142.658 43.7029 142.322 42.2953 142.322 40.7578C142.322 39.1988 142.647 37.791 143.297 36.5351C143.946 35.2575 144.877 34.2506 146.09 33.5143C147.303 32.7564 148.732 32.3774 150.378 32.3774C152.045 32.3774 153.474 32.7564 154.665 33.5143C155.878 34.2505 156.809 35.2575 157.459 36.5351C158.108 37.791 158.433 39.1986 158.433 40.7578V41.7322H144.823C144.953 42.6851 145.256 43.5621 145.733 44.3634C146.231 45.1429 146.891 45.771 147.714 46.2473C148.537 46.7019 149.49 46.9294 150.573 46.9294C151.72 46.9294 152.684 46.6804 153.464 46.1824C154.243 45.6626 154.849 45.0021 155.282 44.2008H157.946C157.383 45.6518 156.484 46.8427 155.25 47.7739C154.037 48.6835 152.468 49.1381 150.54 49.1381ZM144.856 39.4586H155.9C155.683 38.0726 155.098 36.9141 154.146 35.9829C153.193 35.0517 151.937 34.5862 150.378 34.5862C148.819 34.5862 147.563 35.0517 146.61 35.9829C145.679 36.9141 145.094 38.0726 144.856 39.4586ZM161.41 55.3097V32.6374H163.846V35.2359C164.452 34.3481 165.232 33.6551 166.185 33.1571C167.159 32.6374 168.318 32.3774 169.66 32.3774C171.241 32.3774 172.616 32.7564 173.786 33.5143C174.977 34.2505 175.897 35.2575 176.547 36.5351C177.196 37.791 177.521 39.1986 177.521 40.7578C177.521 42.2953 177.196 43.7029 176.547 44.9805C175.897 46.258 174.977 47.2759 173.786 48.0339C172.616 48.77 171.241 49.1381 169.66 49.1381C168.318 49.1381 167.159 48.8783 166.185 48.3586C165.232 47.8173 164.452 47.1134 163.846 46.2473V55.3097H161.41ZM169.336 46.9294C170.548 46.9294 171.577 46.6479 172.421 46.0848C173.288 45.5219 173.948 44.7748 174.403 43.8436C174.858 42.8909 175.085 41.8623 175.085 40.7578C175.085 39.6318 174.858 38.6032 174.403 37.672C173.948 36.7409 173.288 35.9938 172.421 35.4307C171.577 34.8678 170.548 34.5862 169.336 34.5862C168.145 34.5862 167.127 34.8678 166.282 35.4307C165.438 35.9938 164.799 36.7409 164.366 37.672C163.933 38.6032 163.716 39.6318 163.716 40.7578C163.716 41.8623 163.933 42.8909 164.366 43.8436C164.799 44.7748 165.438 45.5219 166.282 46.0848C167.127 46.6479 168.145 46.9294 169.336 46.9294ZM180.728 48.8783V26.1409H183.164V48.8783H180.728ZM187.292 29.9088V26.7256H189.923V29.9088H187.292ZM187.389 48.8783V32.6374H189.825V48.8783H187.389ZM195.805 48.8783V34.7811H192.491V32.6372H195.805V26.823H198.241V32.6374H201.976V34.7813H198.241V48.8783H195.805Z" fill="black"/>
</g>
<defs>
<clipPath id="clip0_401_976">
<rect width="50" height="50.1114" fill="white" transform="translate(20 16)"/>
</clipPath>
<clipPath id="clip1_401_976">
<rect width="100" height="29.3358" fill="white" transform="translate(102 26)"/>
</clipPath>
</defs>
</svg>
