<svg width="250" height="82" viewBox="0 0 250 82" fill="none" xmlns="http://www.w3.org/2000/svg">
<path fillRule="evenodd" clipRule="evenodd" d="M59.9245 18.4739C59.7378 18.4586 59.5445 18.498 59.37 18.5988L44.8904 26.9586L30.4108 18.5988C30.2519 18.507 30.0777 18.4662 29.9069 18.4711C29.7361 18.4662 29.5618 18.507 29.403 18.5988L21.9631 22.8942C21.6722 23.0622 21.5031 23.3602 21.487 23.6724C21.4763 23.7296 21.4707 23.7885 21.4707 23.8487V57.735C21.4707 57.7842 21.4745 57.8328 21.4817 57.8801C21.4595 58.2307 21.6324 58.5803 21.9572 58.7678L29.3971 63.0632C29.5792 63.1684 29.7815 63.2066 29.9757 63.1857C30.1699 63.2066 30.3722 63.1684 30.5542 63.0632L37.9941 58.7678C38.1514 58.677 38.2731 58.5482 38.3542 58.3997C38.4522 58.2497 38.5092 58.0706 38.5092 57.8781V41.5682L44.5748 45.0701C44.7494 45.1709 44.9425 45.2103 45.1292 45.195C45.3158 45.2103 45.5089 45.1709 45.6835 45.0701L51.5385 41.6897V57.8781C51.5385 57.9692 51.5513 58.0573 51.5751 58.1409C51.6297 58.3956 51.7879 58.6272 52.0313 58.7678L59.4711 63.0632C59.6497 63.1663 59.8476 63.2051 60.0383 63.1869C60.2289 63.2051 60.4269 63.1663 60.6054 63.0632L68.0454 58.7678C68.3735 58.5784 68.5466 58.2235 68.5201 57.8694C68.5263 57.8254 68.5295 57.7806 68.5295 57.7348V23.8487C68.5295 23.545 68.3876 23.2744 68.1666 23.0996C68.0982 23.0197 68.0151 22.9498 67.9188 22.8942L60.4789 18.5988C60.3044 18.498 60.1113 18.4586 59.9245 18.4739ZM66.6204 57.386V24.8316L45.2061 37.1951C45.0481 37.2864 44.8748 37.3273 44.7048 37.3229C44.5348 37.3273 44.3616 37.2864 44.2035 37.1951L23.3798 25.1725V57.3847L29.107 60.6913V35.7804C29.107 35.5111 29.2185 35.2679 29.3979 35.0944C29.6807 34.7011 30.2211 34.5786 30.6495 34.826L45.1291 43.1857L59.6088 34.826C60.0653 34.5623 60.6491 34.7188 60.9126 35.1754C60.956 35.2504 60.9881 35.3289 61.0092 35.4089C61.0575 35.5232 61.0842 35.6486 61.0842 35.7804V60.5823L66.6204 57.386ZM59.1751 60.6879L53.4476 57.381V40.6963C53.4476 40.6607 53.4457 40.6256 53.4419 40.5909L59.1751 37.2807V60.6879ZM36.6001 57.3682V40.6963C36.6001 40.622 36.6086 40.5497 36.6247 40.4801L31.016 37.242V60.5922L36.6001 57.3682ZM65.1294 23.4881L44.7048 35.2801L24.5165 23.6244L29.9069 20.5123L44.336 28.8429C44.5106 28.9436 44.7036 28.9831 44.8904 28.9678C45.0772 28.9831 45.2703 28.9436 45.4447 28.8429L59.9245 20.4831L65.1294 23.4881Z" fill="black"/>
<path d="M59.9245 18.4739L59.8943 18.8403L59.9245 18.8427L59.9545 18.8403L59.9245 18.4739ZM44.8904 26.9585L44.7066 27.2769L44.8904 27.3831L45.0742 27.2769L44.8904 26.9585ZM29.9069 18.4711L29.8963 18.8386L29.9069 18.8389L29.9175 18.8386L29.9069 18.4711ZM21.4869 23.6724L21.8483 23.7399L21.8528 23.7158L21.8541 23.6914L21.4869 23.6724ZM21.4816 57.8801L21.8486 57.9033L21.8511 57.8638L21.8451 57.8246L21.4816 57.8801ZM29.9757 63.1857L30.015 62.8202L29.9757 62.816L29.9364 62.8202L29.9757 63.1857ZM38.3542 58.3996L38.0464 58.1985L38.0385 58.2107L38.0316 58.2233L38.3542 58.3996ZM38.5092 41.5682L38.693 41.2498L38.1416 40.9313V41.5682H38.5092ZM45.1292 45.1949L45.1592 44.8285L45.1291 44.8261L45.0991 44.8285L45.1292 45.1949ZM51.5385 41.6896H51.9061V41.0529L51.3546 41.3713L51.5385 41.6896ZM51.5751 58.1408L51.9346 58.0638L51.932 58.0517L51.9286 58.0398L51.5751 58.1408ZM60.0383 63.1869L60.0732 62.821L60.0383 62.8176L60.0033 62.821L60.0383 63.1869ZM68.5201 57.8694L68.1561 57.818L68.1505 57.8573L68.1535 57.8967L68.5201 57.8694ZM68.1666 23.0995L67.8874 23.3388L67.9105 23.3658L67.9385 23.3879L68.1666 23.0995ZM66.6204 57.386L66.8042 57.7044L66.988 57.5982V57.386H66.6204ZM66.6204 24.8315H66.988V24.1947L66.4366 24.5131L66.6204 24.8315ZM44.7048 37.3229L44.7144 36.9548L44.6952 36.9552L44.7048 37.3229ZM23.3797 25.1725L23.5636 24.8541L23.0121 24.5357V25.1725H23.3797ZM23.3797 57.3846H23.0121V57.5969L23.1959 57.703L23.3797 57.3846ZM29.1069 60.6913L28.9231 61.0096L29.4746 61.328V60.6913H29.1069ZM29.3979 35.0944L29.6535 35.3585L29.6771 35.3357L29.6964 35.3089L29.3979 35.0944ZM45.1291 43.1857L44.9452 43.5041L45.1291 43.6102L45.3129 43.5041L45.1291 43.1857ZM61.0092 35.4089L60.6538 35.503L60.6604 35.5282L60.6705 35.5521L61.0092 35.4089ZM61.0842 60.5823H60.7166V61.2191L61.268 60.9007L61.0842 60.5823ZM53.4476 57.381H53.0799V57.5933L53.2638 57.6994L53.4476 57.381ZM59.1751 60.6879L58.9913 61.0063L59.5427 61.3246V60.6879H59.1751ZM53.4419 40.5908L53.258 40.2724L53.0501 40.3924L53.0764 40.631L53.4419 40.5908ZM59.1751 37.2807H59.5427V36.6439L58.9913 36.9623L59.1751 37.2807ZM36.6001 57.3682L36.7839 57.6866L36.9677 57.5804V57.3682H36.6001ZM36.6246 40.4801L36.9829 40.563L37.0442 40.2979L36.8085 40.1617L36.6246 40.4801ZM31.016 37.242L31.1998 36.9236L30.6484 36.6052V37.242H31.016ZM31.016 60.5921H30.6484V61.2289L31.1998 60.9105L31.016 60.5921ZM44.7048 35.2801L44.521 35.5985L44.7048 35.7046L44.8886 35.5985L44.7048 35.2801ZM65.1294 23.488L65.3132 23.8064L65.8646 23.488L65.3132 23.1696L65.1294 23.488ZM24.5165 23.6244L24.3326 23.306L23.7812 23.6244L24.3326 23.9428L24.5165 23.6244ZM29.9069 20.5122L30.0907 20.1938L29.9069 20.0877L29.723 20.1938L29.9069 20.5122ZM44.8904 28.9677L44.9204 28.6013L44.8904 28.5989L44.8604 28.6013L44.8904 28.9677ZM59.9245 20.483L60.1083 20.1646L59.9245 20.0585L59.7407 20.1646L59.9245 20.483ZM59.5538 18.9171C59.6616 18.8549 59.7798 18.8309 59.8943 18.8403L59.9545 18.1075C59.6957 18.0862 59.4276 18.141 59.1861 18.2803L59.5538 18.9171ZM45.0742 27.2769L59.5538 18.9171L59.1861 18.2803L44.7066 26.6401L45.0742 27.2769ZM30.2269 18.9171L44.7066 27.2769L45.0742 26.6401L30.5946 18.2803L30.2269 18.9171ZM29.9175 18.8386C30.0221 18.8355 30.1288 18.8604 30.2269 18.9171L30.5946 18.2803C30.375 18.1536 30.1332 18.0968 29.8963 18.1036L29.9175 18.8386ZM29.5868 18.9171C29.685 18.8604 29.7916 18.8355 29.8963 18.8386L29.9175 18.1036C29.6805 18.0968 29.4387 18.1536 29.2192 18.2803L29.5868 18.9171ZM22.1469 23.2125L29.5868 18.9171L29.2192 18.2803L21.7792 22.5758L22.1469 23.2125ZM21.8541 23.6914C21.8641 23.4983 21.9683 23.3156 22.1469 23.2125L21.7792 22.5758C21.3759 22.8086 21.1421 23.222 21.1198 23.6534L21.8541 23.6914ZM21.8383 23.8487C21.8383 23.8112 21.8418 23.7749 21.8483 23.7399L21.1255 23.6049C21.1107 23.6842 21.103 23.7657 21.103 23.8487H21.8383ZM21.8383 57.7349V23.8487H21.103V57.7349H21.8383ZM21.8451 57.8246C21.8407 57.7955 21.8383 57.7657 21.8383 57.7349H21.103C21.103 57.8029 21.1082 57.8699 21.1182 57.9355L21.8451 57.8246ZM22.141 58.4494C21.9418 58.3344 21.8349 58.1198 21.8486 57.9033L21.1147 57.8569C21.0841 58.3414 21.323 58.8261 21.7734 59.0861L22.141 58.4494ZM29.5809 62.7448L22.141 58.4494L21.7734 59.0861L29.2133 63.3816L29.5809 62.7448ZM29.9364 62.8202C29.8171 62.833 29.6932 62.8096 29.5809 62.7448L29.2133 63.3816C29.4651 63.527 29.7459 63.5802 30.015 63.5513L29.9364 62.8202ZM30.3704 62.7448C30.258 62.8096 30.1342 62.833 30.015 62.8202L29.9364 63.5513C30.2054 63.5802 30.4862 63.527 30.738 63.3816L30.3704 62.7448ZM37.8102 58.4494L30.3704 62.7448L30.738 63.3816L38.1779 59.0861L37.8102 58.4494ZM38.0316 58.2233C37.9819 58.3144 37.9074 58.3932 37.8102 58.4494L38.1779 59.0861C38.3952 58.9607 38.5642 58.7819 38.6769 58.5758L38.0316 58.2233ZM38.1416 57.878C38.1416 57.997 38.1066 58.1066 38.0464 58.1985L38.662 58.6007C38.7979 58.3929 38.8769 58.1441 38.8769 57.878H38.1416ZM38.1416 41.5682V57.878H38.8769V41.5682H38.1416ZM44.7586 44.7517L38.693 41.2498L38.3254 41.8866L44.391 45.3885L44.7586 44.7517ZM45.0991 44.8285C44.9845 44.8379 44.8663 44.8139 44.7586 44.7517L44.391 45.3885C44.6323 45.5279 44.9004 45.5826 45.1592 45.5614L45.0991 44.8285ZM45.4996 44.7517C45.3919 44.8139 45.2738 44.8379 45.1592 44.8285L45.0992 45.5614C45.3579 45.5826 45.626 45.5277 45.8673 45.3885L45.4996 44.7517ZM51.3546 41.3713L45.4996 44.7517L45.8673 45.3885L51.7223 42.008L51.3546 41.3713ZM51.9061 57.878V41.6896H51.1708V57.878H51.9061ZM51.9286 58.0398C51.9141 57.9889 51.9061 57.9347 51.9061 57.878H51.1708C51.1708 58.0036 51.1885 58.1258 51.2216 58.2419L51.9286 58.0398ZM52.2151 58.4494C52.0654 58.3629 51.9683 58.2211 51.9346 58.0638L51.2157 58.2179C51.2911 58.5701 51.5102 58.8914 51.8474 59.0861L52.2151 58.4494ZM59.6549 62.7448L52.2151 58.4494L51.8474 59.0861L59.2873 63.3816L59.6549 62.7448ZM60.0033 62.821C59.8863 62.8321 59.7651 62.8083 59.6549 62.7448L59.2873 63.3816C59.5342 63.5241 59.8089 63.578 60.0732 63.5529L60.0033 62.821ZM60.4216 62.7448C60.3114 62.8083 60.1902 62.8321 60.0732 62.821L60.0033 63.5529C60.2676 63.578 60.5424 63.5241 60.7892 63.3816L60.4216 62.7448ZM67.8616 58.4494L60.4216 62.7448L60.7892 63.3816L68.2292 59.0861L67.8616 58.4494ZM68.1535 57.8967C68.1698 58.1154 68.0627 58.3332 67.8616 58.4494L68.2292 59.0861C68.6841 58.8235 68.9233 58.3316 68.8867 57.842L68.1535 57.8967ZM68.1618 57.7348C68.1618 57.7633 68.1599 57.7911 68.1561 57.818L68.8842 57.9207C68.8927 57.8598 68.8971 57.7977 68.8971 57.7348H68.1618ZM68.1618 23.8487V57.7348H68.8971V23.8487H68.1618ZM67.9385 23.3879C68.0752 23.496 68.1618 23.6621 68.1618 23.8487H68.8971C68.8971 23.4278 68.7001 23.0527 68.3946 22.8112L67.9385 23.3879ZM67.7349 23.2125C67.7948 23.2471 67.8457 23.29 67.8874 23.3388L68.4458 22.8603C68.3505 22.7492 68.2355 22.6525 68.1026 22.5758L67.7349 23.2125ZM60.2951 18.9171L67.7349 23.2125L68.1026 22.5758L60.6627 18.2803L60.2951 18.9171ZM59.9545 18.8403C60.0691 18.8309 60.1873 18.8549 60.2951 18.9171L60.6627 18.2803C60.4214 18.141 60.1533 18.0862 59.8943 18.1075L59.9545 18.8403ZM66.988 57.386V24.8315H66.2527V57.386H66.988ZM66.4366 24.5131L45.0223 36.8767L45.3899 37.5135L66.8042 25.1499L66.4366 24.5131ZM45.0223 36.8767C44.9246 36.933 44.8185 36.9576 44.7144 36.9548L44.6952 37.6904C44.931 37.6966 45.1716 37.6396 45.3899 37.5135L45.0223 36.8767ZM44.6952 36.9552C44.5911 36.958 44.4849 36.933 44.3873 36.8767L44.0196 37.5135C44.238 37.6396 44.4786 37.6966 44.7144 37.6904L44.6952 36.9552ZM44.3873 36.8767L23.5636 24.8541L23.1959 25.4909L44.0196 37.5135L44.3873 36.8767ZM23.0121 25.1725V57.3846H23.7474V25.1725H23.0121ZM23.1959 57.703L28.9231 61.0096L29.2907 60.3729L23.5636 57.0663L23.1959 57.703ZM29.4746 60.6913V35.7804H28.7393V60.6913H29.4746ZM29.4746 35.7804C29.4746 35.6148 29.5427 35.4657 29.6535 35.3585L29.1423 34.8301C28.8942 35.0699 28.7393 35.4074 28.7393 35.7804H29.4746ZM29.6964 35.3089C29.87 35.0674 30.2025 34.9923 30.4657 35.1444L30.8333 34.5076C30.2397 34.1648 29.4914 34.3346 29.0994 34.8796L29.6964 35.3089ZM30.4657 35.1444L44.9452 43.5041L45.3129 42.8673L30.8333 34.5076L30.4657 35.1444ZM45.3129 43.5041L59.7926 35.1444L59.4249 34.5076L44.9452 42.8673L45.3129 43.5041ZM59.7926 35.1444C60.0733 34.9823 60.4321 35.0785 60.5942 35.3592L61.2311 34.9916C60.866 34.3591 60.0573 34.1424 59.4249 34.5076L59.7926 35.1444ZM60.5942 35.3592C60.6213 35.4058 60.6408 35.4541 60.6538 35.503L61.3646 35.3149C61.3352 35.2038 61.2908 35.0951 61.2311 34.9916L60.5942 35.3592ZM60.6705 35.5521C60.7001 35.6219 60.7166 35.6988 60.7166 35.7804H61.4519C61.4519 35.5986 61.4149 35.4244 61.3477 35.2657L60.6705 35.5521ZM60.7166 35.7804V60.5823H61.4519V35.7804H60.7166ZM61.268 60.9007L66.8042 57.7044L66.4366 57.0676L60.9004 60.2639L61.268 60.9007ZM53.2638 57.6994L58.9913 61.0063L59.3589 60.3694L53.6314 57.0626L53.2638 57.6994ZM53.0799 40.6963V57.381H53.8152V40.6963H53.0799ZM53.0764 40.631C53.0788 40.6523 53.0799 40.6742 53.0799 40.6963H53.8152C53.8152 40.6471 53.8126 40.5986 53.8073 40.5507L53.0764 40.631ZM58.9913 36.9623L53.258 40.2724L53.6257 40.9092L59.3589 37.5991L58.9913 36.9623ZM59.5427 60.6879V37.2807H58.8074V60.6879H59.5427ZM36.2324 40.6963V57.3682H36.9677V40.6963H36.2324ZM36.2666 40.3971C36.2442 40.4936 36.2324 40.5939 36.2324 40.6963H36.9677C36.9677 40.6501 36.973 40.6055 36.9829 40.563L36.2666 40.3971ZM30.8322 37.5604L36.4408 40.7985L36.8085 40.1617L31.1998 36.9236L30.8322 37.5604ZM31.3837 60.5921V37.242H30.6484V60.5921H31.3837ZM36.4163 57.0498L30.8322 60.2738L31.1998 60.9105L36.7839 57.6866L36.4163 57.0498ZM44.8886 35.5985L65.3132 23.8064L64.9455 23.1696L44.521 34.9617L44.8886 35.5985ZM24.3326 23.9428L44.521 35.5985L44.8886 34.9617L24.7003 23.306L24.3326 23.9428ZM29.723 20.1938L24.3326 23.306L24.7003 23.9428L30.0907 20.8306L29.723 20.1938ZM44.5198 28.5245L30.0907 20.1938L29.723 20.8306L44.1521 29.1613L44.5198 28.5245ZM44.8604 28.6013C44.7458 28.6107 44.6276 28.5867 44.5198 28.5245L44.1521 29.1613C44.3935 29.3007 44.6616 29.3554 44.9204 29.3342L44.8604 28.6013ZM45.2608 28.5245C45.1532 28.5867 45.0349 28.6107 44.9204 28.6013L44.8604 29.3342C45.1192 29.3554 45.3873 29.3007 45.6285 29.1613L45.2608 28.5245ZM59.7407 20.1646L45.2608 28.5245L45.6285 29.1613L60.1083 20.8014L59.7407 20.1646ZM65.3132 23.1696L60.1083 20.1646L59.7407 20.8014L64.9455 23.8064L65.3132 23.1696Z" fill="black"/>
<path d="M146.884 47.9312V33.9272H149.921L154.081 40.9487H154.159L158.319 33.9272H161.317V47.9312H158.681V38.2729H158.602L154.198 45.5874H154.003L149.599 38.2143H149.52V47.9312H146.884ZM168.602 48.1069C166.975 48.1069 165.728 47.6154 164.862 46.6323C163.983 45.6558 163.544 44.3634 163.544 42.7554C163.544 41.1473 163.983 39.8452 164.862 38.8492C165.741 37.853 166.988 37.355 168.602 37.355C170.204 37.355 171.444 37.853 172.323 38.8492C173.202 39.8452 173.642 41.1473 173.642 42.7554C173.642 44.3439 173.209 45.6297 172.343 46.6128C171.464 47.6089 170.217 48.1069 168.602 48.1069ZM168.602 45.7534C170.145 45.7534 170.917 44.754 170.917 42.7554C170.917 40.7241 170.145 39.7085 168.602 39.7085C167.053 39.7085 166.278 40.7241 166.278 42.7554C166.278 44.754 167.053 45.7534 168.602 45.7534ZM181.142 48.1069C179.898 48.1069 178.941 47.674 178.27 46.8081H178.183L177.909 47.9312H175.507V33.1265H178.183V38.6538H178.27C178.941 37.7879 179.898 37.355 181.142 37.355C182.463 37.355 183.505 37.853 184.266 38.8492C185.028 39.8452 185.409 41.1408 185.409 42.7358C185.409 44.3569 185.028 45.6558 184.266 46.6323C183.479 47.6154 182.437 48.1069 181.142 48.1069ZM178.642 44.8941C179.019 45.4669 179.602 45.7534 180.39 45.7534C181.177 45.7534 181.763 45.4735 182.147 44.9136C182.506 44.3602 182.685 43.6343 182.685 42.7358C182.685 41.8178 182.506 41.0822 182.147 40.5288C181.757 39.9819 181.171 39.7085 180.39 39.7085C179.589 39.7085 179.006 39.9885 178.642 40.5483C178.27 41.0887 178.085 41.8178 178.085 42.7358C178.085 43.6343 178.27 44.3537 178.642 44.8941ZM192.9 48.1069C191.656 48.1069 190.699 47.674 190.028 46.8081H189.94L189.667 47.9312H187.264V33.1265H189.94V38.6538H190.028C190.699 37.7879 191.656 37.355 192.9 37.355C194.221 37.355 195.263 37.853 196.024 38.8492C196.786 39.8452 197.167 41.1408 197.167 42.7358C197.167 44.3569 196.786 45.6558 196.024 46.6323C195.237 47.6154 194.195 48.1069 192.9 48.1069ZM190.4 44.8941C190.777 45.4669 191.36 45.7534 192.147 45.7534C192.935 45.7534 193.521 45.4735 193.905 44.9136C194.264 44.3602 194.442 43.6343 194.442 42.7358C194.442 41.8178 194.264 41.0822 193.905 40.5288C193.515 39.9819 192.928 39.7085 192.147 39.7085C191.346 39.7085 190.764 39.9885 190.4 40.5483C190.028 41.0887 189.843 41.8178 189.843 42.7358C189.843 43.6343 190.028 44.3537 190.4 44.8941ZM200.38 36.2319C199.826 36.2319 199.413 36.0854 199.14 35.7925C198.86 35.5125 198.72 35.1121 198.72 34.5913C198.72 34.103 198.86 33.7091 199.14 33.4097C199.42 33.1297 199.833 32.9897 200.38 32.9897C200.894 32.9897 201.301 33.1297 201.601 33.4097C201.893 33.7026 202.04 34.0965 202.04 34.5913C202.04 35.1187 201.893 35.519 201.601 35.7925C201.308 36.0854 200.901 36.2319 200.38 36.2319ZM199.022 47.9312V37.5307H201.698V47.9312H199.022ZM203.964 47.9312V37.5307H206.366L206.562 38.7124H206.64C207.33 37.8074 208.316 37.355 209.599 37.355C210.757 37.355 211.679 37.687 212.362 38.3511C213.046 39.0347 213.388 39.9559 213.388 41.1147V47.9312H210.702V41.8667C210.702 40.48 210.061 39.7866 208.778 39.7866C208.147 39.7866 207.635 40.0015 207.245 40.4312C206.842 40.8543 206.64 41.4338 206.64 42.1694V47.9312H203.964Z" fill="black"/>
<path fillRule="evenodd" clipRule="evenodd" d="M132.723 30.6912C132.635 30.684 132.545 30.7025 132.463 30.7497L125.672 34.6702L118.882 30.7497C118.808 30.7067 118.726 30.6876 118.646 30.6899C118.566 30.6876 118.484 30.7067 118.409 30.7497L114.92 32.7642C114.784 32.8429 114.705 32.9827 114.697 33.1291C114.692 33.1559 114.689 33.1836 114.689 33.2118V49.1033C114.689 49.1264 114.691 49.1491 114.695 49.1714C114.684 49.3358 114.765 49.4997 114.918 49.5876L118.407 51.602C118.492 51.6514 118.587 51.6693 118.678 51.6595C118.769 51.6693 118.864 51.6514 118.949 51.602L122.438 49.5876C122.512 49.5451 122.569 49.4847 122.607 49.415C122.653 49.3447 122.68 49.2607 122.68 49.1704V41.5216L125.524 43.1639C125.606 43.2111 125.697 43.2296 125.784 43.2225C125.872 43.2296 125.963 43.2111 126.044 43.1639L128.79 41.5786V49.1704C128.79 49.2131 128.796 49.2545 128.807 49.2936C128.833 49.4131 128.907 49.5217 129.021 49.5876L132.51 51.602C132.594 51.6504 132.687 51.6686 132.776 51.66C132.866 51.6686 132.959 51.6504 133.042 51.602L136.531 49.5876C136.685 49.4988 136.766 49.3324 136.754 49.1663C136.757 49.1457 136.758 49.1247 136.758 49.1032V33.2118C136.758 33.0694 136.692 32.9425 136.588 32.8605C136.556 32.823 136.517 32.7902 136.472 32.7642L132.983 30.7497C132.901 30.7025 132.811 30.684 132.723 30.6912ZM135.863 48.9396V33.6727L125.821 39.4708C125.746 39.5136 125.665 39.5328 125.585 39.5307C125.506 39.5328 125.424 39.5136 125.35 39.4708L115.585 33.8326V48.939L118.271 50.4897V38.8074C118.271 38.6811 118.323 38.567 118.407 38.4856C118.54 38.3012 118.793 38.2438 118.994 38.3598L125.784 42.2802L132.575 38.3598C132.789 38.2361 133.063 38.3095 133.186 38.5236C133.207 38.5588 133.222 38.5956 133.232 38.6331C133.254 38.6867 133.267 38.7456 133.267 38.8074V50.4386L135.863 48.9396ZM132.372 50.4881L129.686 48.9373V41.1127C129.686 41.096 129.685 41.0796 129.683 41.0633L132.372 39.5109V50.4881ZM121.785 48.9313V41.1127C121.785 41.0779 121.789 41.044 121.796 41.0114L119.166 39.4928V50.4432L121.785 48.9313ZM135.164 33.0427L125.585 38.5727L116.118 33.1066L118.646 31.6471L125.412 35.5539C125.494 35.6011 125.585 35.6196 125.672 35.6125C125.76 35.6196 125.851 35.6011 125.932 35.5539L132.723 31.6334L135.164 33.0427Z" fill="black"/>
<path d="M132.723 30.6912L132.709 30.8631L132.723 30.8642L132.737 30.8631L132.723 30.6912ZM125.673 34.6703L125.586 34.8196L125.673 34.8693L125.759 34.8196L125.673 34.6703ZM118.646 30.6899L118.641 30.8623L118.646 30.8624L118.651 30.8623L118.646 30.6899ZM114.697 33.1292L114.867 33.1608L114.869 33.1495L114.869 33.1381L114.697 33.1292ZM114.695 49.1714L114.867 49.1823L114.868 49.1637L114.865 49.1454L114.695 49.1714ZM118.678 51.6595L118.696 51.4882L118.678 51.4862L118.66 51.4882L118.678 51.6595ZM122.607 49.4151L122.463 49.3207L122.459 49.3264L122.456 49.3324L122.607 49.4151ZM122.68 41.5217L122.766 41.3724L122.508 41.223V41.5217H122.68ZM125.785 43.2225L125.799 43.0506L125.784 43.0495L125.77 43.0506L125.785 43.2225ZM128.79 41.5786H128.963V41.28L128.704 41.4293L128.79 41.5786ZM128.807 49.2937L128.976 49.2575L128.975 49.2519L128.973 49.2463L128.807 49.2937ZM132.776 51.6601L132.793 51.4885L132.776 51.4869L132.76 51.4885L132.776 51.6601ZM136.754 49.1664L136.583 49.1423L136.581 49.1607L136.582 49.1792L136.754 49.1664ZM136.588 32.8605L136.457 32.9727L136.468 32.9854L136.481 32.9958L136.588 32.8605ZM135.863 48.9397L135.949 49.089L136.036 49.0392V48.9397H135.863ZM135.863 33.6728H136.036V33.3741L135.777 33.5235L135.863 33.6728ZM125.586 39.5308L125.59 39.3582L125.581 39.3584L125.586 39.5308ZM115.585 33.8327L115.671 33.6834L115.412 33.5341V33.8327H115.585ZM115.585 48.9391H115.412V49.0386L115.499 49.0884L115.585 48.9391ZM118.271 50.4897L118.184 50.6391L118.443 50.7884V50.4897H118.271ZM118.407 38.4857L118.527 38.6095L118.538 38.5989L118.547 38.5863L118.407 38.4857ZM125.784 42.2802L125.698 42.4295L125.784 42.4793L125.871 42.4295L125.784 42.2802ZM133.232 38.6332L133.065 38.6773L133.068 38.6891L133.073 38.7004L133.232 38.6332ZM133.267 50.4386H133.094V50.7373L133.353 50.588L133.267 50.4386ZM129.686 48.9373H129.513V49.0369L129.599 49.0866L129.686 48.9373ZM132.372 50.4882L132.285 50.6375L132.544 50.7868V50.4882H132.372ZM129.683 41.0633L129.597 40.914L129.499 40.9703L129.512 41.0822L129.683 41.0633ZM132.372 39.511H132.544V39.2124L132.285 39.3617L132.372 39.511ZM121.785 48.9313L121.871 49.0806L121.957 49.0309V48.9313H121.785ZM121.796 41.0114L121.964 41.0503L121.993 40.926L121.882 40.8621L121.796 41.0114ZM119.166 39.4929L119.252 39.3435L118.994 39.1942V39.4929H119.166ZM119.166 50.4433H118.994V50.7419L119.252 50.5926L119.166 50.4433ZM125.586 38.5728L125.499 38.7221L125.586 38.7719L125.672 38.7221L125.586 38.5728ZM135.164 33.0427L135.25 33.192L135.509 33.0427L135.25 32.8934L135.164 33.0427ZM116.118 33.1067L116.032 32.9573L115.773 33.1067L116.032 33.256L116.118 33.1067ZM118.646 31.6472L118.732 31.4978L118.646 31.4481L118.56 31.4978L118.646 31.6472ZM125.673 35.6125L125.687 35.4407L125.673 35.4395L125.658 35.4407L125.673 35.6125ZM132.723 31.6335L132.809 31.4842L132.723 31.4344L132.637 31.4842L132.723 31.6335ZM132.549 30.8991C132.6 30.8699 132.655 30.8587 132.709 30.8631L132.737 30.5194C132.616 30.5095 132.49 30.5351 132.377 30.6005L132.549 30.8991ZM125.759 34.8196L132.549 30.8991L132.377 30.6005L125.586 34.5209L125.759 34.8196ZM118.796 30.8991L125.586 34.8196L125.759 34.5209L118.968 30.6005L118.796 30.8991ZM118.651 30.8623C118.7 30.8609 118.75 30.8725 118.796 30.8991L118.968 30.6005C118.865 30.541 118.752 30.5144 118.641 30.5176L118.651 30.8623ZM118.496 30.8991C118.542 30.8725 118.592 30.8609 118.641 30.8623L118.651 30.5176C118.54 30.5144 118.426 30.541 118.323 30.6005L118.496 30.8991ZM115.007 32.9135L118.496 30.8991L118.323 30.6005L114.834 32.6149L115.007 32.9135ZM114.869 33.1381C114.874 33.0475 114.923 32.9619 115.007 32.9135L114.834 32.6149C114.645 32.7241 114.535 32.918 114.525 33.1203L114.869 33.1381ZM114.862 33.2119C114.862 33.1943 114.864 33.1772 114.867 33.1608L114.528 33.0975C114.521 33.1347 114.517 33.1729 114.517 33.2119H114.862ZM114.862 49.1033V33.2119H114.517V49.1033H114.862ZM114.865 49.1454C114.863 49.1317 114.862 49.1177 114.862 49.1033H114.517C114.517 49.1352 114.52 49.1666 114.524 49.1974L114.865 49.1454ZM115.004 49.4384C114.91 49.3844 114.86 49.2838 114.867 49.1823L114.523 49.1605C114.508 49.3877 114.62 49.6151 114.831 49.737L115.004 49.4384ZM118.493 51.4528L115.004 49.4384L114.831 49.737L118.321 51.7514L118.493 51.4528ZM118.66 51.4882C118.604 51.4942 118.546 51.4832 118.493 51.4528L118.321 51.7514C118.439 51.8196 118.57 51.8446 118.696 51.831L118.66 51.4882ZM118.863 51.4528C118.81 51.4832 118.752 51.4942 118.696 51.4882L118.66 51.831C118.786 51.8446 118.917 51.8196 119.036 51.7514L118.863 51.4528ZM122.352 49.4384L118.863 51.4528L119.036 51.7514L122.525 49.737L122.352 49.4384ZM122.456 49.3324C122.433 49.3751 122.398 49.412 122.352 49.4384L122.525 49.737C122.627 49.6782 122.706 49.5943 122.759 49.4977L122.456 49.3324ZM122.508 49.1704C122.508 49.2262 122.491 49.2776 122.463 49.3207L122.752 49.5093C122.815 49.4119 122.852 49.2952 122.852 49.1704H122.508ZM122.508 41.5217V49.1704H122.852V41.5217H122.508ZM125.611 43.0146L122.766 41.3724L122.594 41.671L125.438 43.3133L125.611 43.0146ZM125.77 43.0506C125.717 43.0551 125.661 43.0438 125.611 43.0146L125.438 43.3133C125.552 43.3786 125.677 43.4043 125.799 43.3944L125.77 43.0506ZM125.958 43.0146C125.908 43.0438 125.852 43.0551 125.799 43.0506L125.77 43.3944C125.892 43.4043 126.018 43.3786 126.131 43.3133L125.958 43.0146ZM128.704 41.4293L125.958 43.0146L126.131 43.3133L128.876 41.728L128.704 41.4293ZM128.963 49.1704V41.5786H128.618V49.1704H128.963ZM128.973 49.2463C128.966 49.2224 128.963 49.197 128.963 49.1704H128.618C128.618 49.2293 128.626 49.2866 128.642 49.3411L128.973 49.2463ZM129.108 49.4384C129.037 49.3978 128.992 49.3313 128.976 49.2575L128.639 49.3298C128.674 49.495 128.777 49.6457 128.935 49.737L129.108 49.4384ZM132.597 51.4528L129.108 49.4384L128.935 49.737L132.424 51.7514L132.597 51.4528ZM132.76 51.4885C132.705 51.4937 132.648 51.4826 132.597 51.4528L132.424 51.7514C132.54 51.8182 132.669 51.8435 132.793 51.8317L132.76 51.4885ZM132.956 51.4528C132.904 51.4826 132.848 51.4937 132.793 51.4885L132.76 51.8317C132.884 51.8435 133.013 51.8182 133.129 51.7514L132.956 51.4528ZM136.445 49.4384L132.956 51.4528L133.129 51.7514L136.618 49.737L136.445 49.4384ZM136.582 49.1792C136.59 49.2817 136.54 49.3839 136.445 49.4384L136.618 49.737C136.831 49.6138 136.943 49.3831 136.926 49.1535L136.582 49.1792ZM136.586 49.1033C136.586 49.1166 136.585 49.1297 136.583 49.1423L136.925 49.1904C136.929 49.1619 136.931 49.1328 136.931 49.1033H136.586ZM136.586 33.2119V49.1033H136.931V33.2119H136.586ZM136.481 32.9958C136.545 33.0465 136.586 33.1244 136.586 33.2119H136.931C136.931 33.0145 136.838 32.8386 136.695 32.7253L136.481 32.9958ZM136.386 32.9135C136.414 32.9297 136.438 32.9499 136.457 32.9727L136.719 32.7483C136.675 32.6963 136.621 32.6509 136.558 32.6149L136.386 32.9135ZM132.897 30.8991L136.386 32.9135L136.558 32.6149L133.069 30.6005L132.897 30.8991ZM132.737 30.8631C132.791 30.8587 132.846 30.8699 132.897 30.8991L133.069 30.6005C132.956 30.5351 132.83 30.5095 132.709 30.5194L132.737 30.8631ZM136.036 48.9397V33.6728H135.691V48.9397H136.036ZM135.777 33.5235L125.734 39.3215L125.907 39.6202L135.949 33.8221L135.777 33.5235ZM125.734 39.3215C125.689 39.348 125.639 39.3595 125.59 39.3582L125.581 39.7031C125.692 39.706 125.804 39.6793 125.907 39.6202L125.734 39.3215ZM125.581 39.3584C125.532 39.3597 125.482 39.348 125.437 39.3215L125.264 39.6202C125.367 39.6793 125.479 39.706 125.59 39.7031L125.581 39.3584ZM125.437 39.3215L115.671 33.6834L115.499 33.982L125.264 39.6202L125.437 39.3215ZM115.412 33.8327V48.9391H115.757V33.8327H115.412ZM115.499 49.0884L118.184 50.6391L118.357 50.3404L115.671 48.7897L115.499 49.0884ZM118.443 50.4897V38.8074H118.098V50.4897H118.443ZM118.443 38.8074C118.443 38.7297 118.475 38.6598 118.527 38.6095L118.287 38.3617C118.171 38.4742 118.098 38.6325 118.098 38.8074H118.443ZM118.547 38.5863C118.628 38.4731 118.784 38.4378 118.908 38.5091L119.08 38.2105C118.802 38.0497 118.451 38.1294 118.267 38.385L118.547 38.5863ZM118.908 38.5091L125.698 42.4295L125.871 42.1309L119.08 38.2105L118.908 38.5091ZM125.871 42.4295L132.661 38.5091L132.489 38.2105L125.698 42.1309L125.871 42.4295ZM132.661 38.5091C132.793 38.4331 132.961 38.4782 133.037 38.6099L133.336 38.4375C133.165 38.1409 132.785 38.0393 132.489 38.2105L132.661 38.5091ZM133.037 38.6099C133.05 38.6317 133.059 38.6544 133.065 38.6773L133.398 38.5891C133.385 38.537 133.364 38.486 133.336 38.4375L133.037 38.6099ZM133.073 38.7004C133.087 38.7331 133.094 38.7691 133.094 38.8074H133.439C133.439 38.7222 133.422 38.6404 133.39 38.566L133.073 38.7004ZM133.094 38.8074V50.4386H133.439V38.8074H133.094ZM133.353 50.588L135.949 49.089L135.777 48.7904L133.181 50.2893L133.353 50.588ZM129.599 49.0866L132.285 50.6375L132.458 50.3388L129.772 48.788L129.599 49.0866ZM129.513 41.1128V48.9373H129.858V41.1128H129.513ZM129.512 41.0822C129.513 41.0922 129.513 41.1024 129.513 41.1128H129.858C129.858 41.0897 129.857 41.067 129.854 41.0445L129.512 41.0822ZM132.285 39.3617L129.597 40.914L129.769 41.2126L132.458 39.6603L132.285 39.3617ZM132.544 50.4882V39.511H132.199V50.4882H132.544ZM121.612 41.1128V48.9313H121.957V41.1128H121.612ZM121.628 40.9725C121.618 41.0177 121.612 41.0648 121.612 41.1128H121.957C121.957 41.0911 121.96 41.0702 121.964 41.0503L121.628 40.9725ZM119.08 39.6422L121.71 41.1607L121.882 40.8621L119.252 39.3435L119.08 39.6422ZM119.338 50.4433V39.4929H118.994V50.4433H119.338ZM121.698 48.782L119.08 50.294L119.252 50.5926L121.871 49.0806L121.698 48.782ZM125.672 38.7221L135.25 33.192L135.078 32.8934L125.499 38.4235L125.672 38.7221ZM116.032 33.256L125.499 38.7221L125.672 38.4235L116.204 32.9573L116.032 33.256ZM118.56 31.4978L116.032 32.9573L116.204 33.256L118.732 31.7965L118.56 31.4978ZM125.499 35.4046L118.732 31.4978L118.56 31.7965L125.326 35.7033L125.499 35.4046ZM125.658 35.4407C125.605 35.4451 125.549 35.4338 125.499 35.4046L125.326 35.7033C125.44 35.7686 125.565 35.7943 125.687 35.7844L125.658 35.4407ZM125.846 35.4046C125.796 35.4338 125.74 35.4451 125.687 35.4407L125.658 35.7844C125.78 35.7943 125.906 35.7686 126.019 35.7033L125.846 35.4046ZM132.637 31.4842L125.846 35.4046L126.019 35.7033L132.809 31.7828L132.637 31.4842ZM135.25 32.8934L132.809 31.4842L132.637 31.7828L135.078 33.192L135.25 32.8934Z" fill="black"/>
</svg>
