<svg width="250" height="82" viewBox="0 0 250 82" fill="none" xmlns="http://www.w3.org/2000/svg">
<g clip-path="url(#clip0_401_2787)">
<path d="M31.9201 15H23.212C22.4359 15 21.6915 15.3083 21.1427 15.8571C20.594 16.4059 20.2856 17.1501 20.2856 17.9262V35.3426C20.2856 35.7268 20.3613 36.1074 20.5084 36.4624C20.6555 36.8174 20.871 37.14 21.1427 37.4117C21.4145 37.6835 21.7371 37.8991 22.0921 38.0461C22.4471 38.1932 22.8277 38.2689 23.212 38.2689H31.9201C35.0058 38.2689 37.965 37.0431 40.1469 34.8612C42.3288 32.6793 43.5545 29.7201 43.5545 26.6345C43.5545 23.5488 42.3288 20.5894 40.1469 18.4076C37.965 16.2257 35.0058 15 31.9201 15Z" fill="#F4C345"/>
<path d="M39.6764 20.8175H30.9683C30.584 20.8175 30.2035 20.8932 29.8485 21.0402C29.4934 21.1873 29.1708 21.4028 28.8991 21.6746C28.6274 21.9463 28.4118 22.2689 28.2647 22.624C28.1177 22.979 28.042 23.3596 28.042 23.7439V41.1601C28.042 41.9361 28.3503 42.6805 28.8991 43.2294C29.4479 43.7781 30.1922 44.0864 30.9683 44.0864H39.6764C41.2043 44.0864 42.7172 43.7855 44.1288 43.2008C45.5403 42.6161 46.8229 41.7591 47.9033 40.6787C48.9836 39.5984 49.8406 38.3158 50.4253 36.9043C51.01 35.4927 51.3109 33.9798 51.3109 32.4519C51.3109 29.3663 50.0851 26.4071 47.9033 24.2252C45.7213 22.0433 42.7621 20.8175 39.6764 20.8175Z" fill="#FF7E69"/>
<path d="M47.4328 26.6346H38.7247C38.3404 26.6346 37.9599 26.7103 37.6049 26.8573C37.2498 27.0044 36.9272 27.2199 36.6555 27.4917C36.3837 27.7634 36.1681 28.086 36.0211 28.4411C35.8741 28.7961 35.7983 29.1765 35.7983 29.5608V46.9771C35.7983 47.7532 36.1067 48.4976 36.6555 49.0464C37.2043 49.5953 37.9485 49.9035 38.7247 49.9035H47.4328C50.5184 49.9035 53.4777 48.6777 55.6597 46.4958C57.8415 44.3139 59.0672 41.3546 59.0672 38.269C59.0672 35.1834 57.8415 32.224 55.6597 30.0422C53.4777 27.8603 50.5184 26.6346 47.4328 26.6346Z" fill="#391145"/>
<path d="M55.1892 32.4518H46.481C45.7049 32.4518 44.9606 32.76 44.4118 33.3088C43.863 33.8576 43.5547 34.602 43.5547 35.3781V52.7943C43.5547 53.5705 43.863 54.3148 44.4117 54.8636C44.9606 55.4124 45.7049 55.7207 46.481 55.7207H55.1892C58.2748 55.7207 61.2341 54.4948 63.4159 52.3129C65.5979 50.1311 66.8236 47.1719 66.8236 44.0862C66.8236 41.0006 65.5979 38.0414 63.4159 35.8594C61.2341 33.6776 58.2748 32.4518 55.1892 32.4518Z" fill="#52A8CE"/>
<path d="M55.8273 66.7831L59.9017 62.8447C60.2556 62.5029 60.6832 62.2472 61.1517 62.0971C61.6201 61.947 62.1167 61.9066 62.6032 61.9789L68.1135 62.7962C68.2913 62.8233 68.4733 62.7972 68.6364 62.7211C68.7996 62.6449 68.9364 62.5222 69.0299 62.3684C69.1232 62.2146 69.1691 62.0364 69.1614 61.8566C69.1538 61.6768 69.093 61.5032 68.9869 61.3578L55.929 43.549C55.8151 43.3935 55.655 43.2781 55.4717 43.219C55.2883 43.1599 55.0911 43.1601 54.9079 43.2197C54.7247 43.2792 54.565 43.3949 54.4514 43.5505C54.3378 43.7061 54.2763 43.8935 54.2754 44.0862V66.1294C54.2762 66.3088 54.3296 66.4842 54.4292 66.6334C54.5288 66.7827 54.67 66.8994 54.8353 66.9691C55.0007 67.0387 55.1828 67.0583 55.3593 67.0253C55.5356 66.9922 55.6983 66.9079 55.8273 66.7831Z" fill="#391145"/>
</g>
<g clip-path="url(#clip1_401_2787)">
<path d="M125.136 42.7902L125.338 43.9866H127.174V34.8658H125.054V38.0996C124.71 37.4007 124.059 36.9861 123.064 36.9861C122.021 36.9861 121.168 37.4599 120.706 38.4549C120.47 38.9643 120.351 39.5802 120.351 40.362V40.5634C120.351 42.9324 121.382 44.1169 123.052 44.1169C124.118 44.1169 124.793 43.5957 125.136 42.7902ZM123.762 42.2809C123.028 42.2809 122.519 41.7953 122.519 40.5515V40.3975C122.519 39.3196 122.993 38.7629 123.798 38.7629C124.58 38.7629 125.077 39.3552 125.077 40.3975V40.5515C125.077 41.7123 124.556 42.2809 123.762 42.2809Z" fill="#391145"/>
<path d="M135.008 41.8072H132.722C132.568 42.1981 132.224 42.4587 131.62 42.4587C130.779 42.4587 130.317 42.0322 130.21 41.1794H135.055V40.4094C135.055 39.1539 134.593 38.0878 133.574 37.4482C133.065 37.1284 132.402 36.9744 131.596 36.9744C130.163 36.9744 129.097 37.5548 128.505 38.6209C128.209 39.142 128.066 39.7698 128.066 40.5161V40.7174C128.066 42.8496 129.168 44.1644 131.561 44.1644C133.574 44.1644 134.629 43.2523 135.008 41.8072ZM131.62 38.609C132.425 38.609 132.828 39.0473 132.923 39.8291H130.21C130.353 38.9999 130.826 38.609 131.62 38.609Z" fill="#391145"/>
<path d="M138.91 44.1762C140.343 44.1762 141.267 43.7261 141.741 43.0154C141.966 42.6482 142.085 42.2455 142.085 41.7835C142.085 40.978 141.741 40.5042 141.232 40.2199C140.711 39.9357 140.083 39.8172 139.479 39.7343C138.46 39.604 137.88 39.5329 137.88 39.1065C137.88 38.7748 138.116 38.5261 138.78 38.5261C139.419 38.5261 139.787 38.763 139.881 39.2605H142.002C141.8 37.8746 140.888 36.9625 138.803 36.9625C136.849 36.9625 135.807 37.8864 135.807 39.2368C135.807 40.0659 136.138 40.5397 136.659 40.8122C137.169 41.0965 137.797 41.2031 138.389 41.286C138.958 41.3452 139.479 41.4163 139.763 41.5703C139.917 41.6532 139.988 41.7716 139.988 41.9256C139.988 42.3047 139.704 42.5297 139.017 42.5297C138.306 42.5297 137.892 42.2455 137.749 41.6887H135.522C135.747 43.276 136.849 44.1762 138.91 44.1762Z" fill="#391145"/>
<path d="M144.016 36.7255C144.904 36.7255 145.307 36.4412 145.307 35.6594C145.307 34.854 144.869 34.5815 144.016 34.5815C143.14 34.5815 142.725 34.854 142.725 35.6594C142.725 36.4649 143.069 36.7255 144.016 36.7255ZM142.891 37.1638V43.9866H145.13V37.1519C145.047 37.1993 144.751 37.2585 144.431 37.2704C144.277 37.2822 144.146 37.2941 144.016 37.2941C143.779 37.2941 143.424 37.2704 143.151 37.2349C143.009 37.223 142.938 37.1993 142.891 37.1638Z" fill="#391145"/>
<path d="M149.146 46.8887H149.24C151.846 46.8887 152.948 45.9411 152.948 44.4368C152.948 43.1457 152.083 42.3757 150.152 42.3757H148.683C147.937 42.3757 147.724 42.2928 147.724 42.0559C147.724 41.8782 147.807 41.7835 148.174 41.7242C148.352 41.7124 148.612 41.6887 148.956 41.6887H149.359C151.42 41.6887 152.593 40.8832 152.593 39.3315V39.2841C152.593 38.2418 151.965 37.5429 150.792 37.306C151.787 37.306 152.308 37.1757 152.509 36.7848C152.616 36.5835 152.675 36.2992 152.675 35.932V35.7306H150.354V35.9675C150.354 36.536 150.295 36.8204 150.01 36.927C149.868 36.9862 149.643 37.0217 149.323 37.0336L149.146 37.0454C147.357 37.1046 146.196 37.8509 146.196 39.3078V39.3197C146.196 40.291 146.646 40.8951 147.499 41.2149C146.551 41.4163 146.018 41.9375 146.018 42.7429C146.018 43.4891 146.504 43.9511 147.38 44.0933C146.362 44.2828 145.9 44.7329 145.9 45.4199C145.9 46.0359 146.22 46.4741 147.156 46.711C147.629 46.8413 148.293 46.8887 149.146 46.8887ZM149.382 40.2673C148.743 40.2673 148.34 39.9948 148.34 39.3907V39.3434C148.34 38.6919 148.79 38.3957 149.394 38.3957C149.998 38.3957 150.437 38.6327 150.437 39.3315V39.3789C150.437 39.983 150.034 40.2673 149.382 40.2673ZM149.418 45.3725H149.122C148.186 45.3725 147.854 45.1001 147.854 44.7803V44.7684C147.854 44.4012 148.281 44.1762 148.992 44.1406H150.046C150.839 44.1406 151.088 44.342 151.088 44.6618C151.088 45.0764 150.626 45.3725 149.418 45.3725Z" fill="#391145"/>
<path d="M155.666 43.9867V40.3976C155.666 39.45 155.963 38.8341 156.792 38.8341C157.585 38.8341 157.798 39.3789 157.798 40.2318V43.9867H159.978V39.6158C159.978 37.9457 159.184 36.9744 157.645 36.9744C156.579 36.9744 155.88 37.4837 155.512 38.2773L155.311 37.1165H153.475V43.9867H155.666Z" fill="#391145"/>
<path d="M163.965 44.1762C165.398 44.1762 166.322 43.7261 166.796 43.0154C167.021 42.6482 167.139 42.2455 167.139 41.7835C167.139 40.978 166.796 40.5042 166.287 40.2199C165.766 39.9357 165.138 39.8172 164.534 39.7343C163.515 39.604 162.934 39.5329 162.934 39.1065C162.934 38.7748 163.171 38.5261 163.835 38.5261C164.474 38.5261 164.842 38.763 164.936 39.2605H167.057C166.855 37.8746 165.943 36.9625 163.858 36.9625C161.904 36.9625 160.861 37.8864 160.861 39.2368C160.861 40.0659 161.193 40.5397 161.715 40.8122C162.224 41.0965 162.852 41.2031 163.444 41.286C164.012 41.3452 164.534 41.4163 164.818 41.5703C164.972 41.6532 165.043 41.7716 165.043 41.9256C165.043 42.3047 164.759 42.5297 164.072 42.5297C163.361 42.5297 162.946 42.2455 162.804 41.6887H160.577C160.802 43.276 161.904 44.1762 163.965 44.1762Z" fill="#391145"/>
<path d="M172.281 43.9866V41.9848H171.842C171.155 41.9848 170.859 41.9137 170.729 41.5465C170.682 41.357 170.646 41.0609 170.646 40.67V39.0235H172.281V37.1164H170.646V35.3989H168.869C168.857 35.6832 168.834 36.0504 168.798 36.3347C168.739 36.9269 168.573 37.1046 168.123 37.1638C167.886 37.2112 167.72 37.2349 167.448 37.2349V39.0235H168.609V41.0964C168.609 42.5297 168.845 43.3351 169.592 43.7142C169.971 43.8919 170.492 43.9866 171.191 43.9866H172.281Z" fill="#391145"/>
<path d="M173.186 43.9867H175.389V40.9425C175.389 40.1133 175.531 39.6513 175.981 39.45C176.218 39.3434 176.538 39.2842 176.952 39.2842H177.758V37.0217H177.367C176.123 37.0217 175.436 37.4482 175.211 38.5261L174.915 37.1165H173.186V43.9867Z" fill="#391145"/>
<path d="M179.783 36.7255C180.671 36.7255 181.074 36.4412 181.074 35.6594C181.074 34.854 180.636 34.5815 179.783 34.5815C178.906 34.5815 178.492 34.854 178.492 35.6594C178.492 36.4649 178.835 36.7255 179.783 36.7255ZM178.657 37.1638V43.9866H180.896V37.1519C180.813 37.1993 180.517 37.2585 180.197 37.2704C180.043 37.2822 179.913 37.2941 179.783 37.2941C179.546 37.2941 179.191 37.2704 178.918 37.2349C178.776 37.223 178.705 37.1993 178.657 37.1638Z" fill="#391145"/>
<path d="M186.204 44.117C187.246 44.117 188.087 43.6432 188.549 42.6482C188.786 42.1388 188.904 41.5229 188.904 40.7411V40.5397C188.904 38.1707 187.886 36.9744 186.192 36.9744C185.149 36.9744 184.462 37.4955 184.119 38.301L183.918 37.1165H182.082V46.332H184.202V42.9917C184.545 43.7024 185.185 44.117 186.204 44.117ZM185.469 42.3165C184.688 42.3165 184.178 41.748 184.178 40.6819V40.5279C184.178 39.3671 184.699 38.7985 185.481 38.7985C186.227 38.7985 186.772 39.3197 186.772 40.5397V40.7056C186.772 41.7835 186.263 42.3165 185.469 42.3165Z" fill="#391145"/>
<path d="M196.639 41.8072H194.353C194.199 42.1981 193.856 42.4587 193.252 42.4587C192.411 42.4587 191.949 42.0322 191.842 41.1794H196.687V40.4094C196.687 39.1539 196.225 38.0878 195.206 37.4482C194.697 37.1284 194.033 36.9744 193.228 36.9744C191.795 36.9744 190.729 37.5548 190.136 38.6209C189.84 39.142 189.698 39.7698 189.698 40.5161V40.7174C189.698 42.8496 190.8 44.1644 193.193 44.1644C195.206 44.1644 196.26 43.2523 196.639 41.8072ZM193.252 38.609C194.057 38.609 194.46 39.0473 194.555 39.8291H191.842C191.984 38.9999 192.458 38.609 193.252 38.609Z" fill="#391145"/>
<path d="M101.459 31H98.2015C97.9112 31 97.6328 31.1153 97.4275 31.3206C97.2223 31.5259 97.1069 31.8042 97.1069 32.0945V38.609C97.1069 38.7528 97.1352 38.8952 97.1903 39.0279C97.2453 39.1607 97.3259 39.2814 97.4275 39.383C97.5292 39.4847 97.6498 39.5653 97.7826 39.6203C97.9154 39.6753 98.0578 39.7036 98.2015 39.7036H101.459C102.613 39.7036 103.72 39.2451 104.536 38.429C105.352 37.6129 105.811 36.506 105.811 35.3518C105.811 34.1976 105.352 33.0907 104.536 32.2746C103.72 31.4585 102.613 31 101.459 31Z" fill="#F4C345"/>
<path d="M104.36 33.176H101.103C100.959 33.176 100.817 33.2043 100.684 33.2593C100.551 33.3143 100.431 33.395 100.329 33.4966C100.227 33.5983 100.147 33.7189 100.092 33.8517C100.037 33.9845 100.008 34.1269 100.008 34.2706V40.7851C100.008 41.0753 100.124 41.3538 100.329 41.5591C100.534 41.7644 100.813 41.8797 101.103 41.8797H104.36C104.932 41.8797 105.498 41.7671 106.025 41.5484C106.553 41.3297 107.033 41.0091 107.437 40.605C107.841 40.2009 108.162 39.7212 108.381 39.1932C108.599 38.6652 108.712 38.0993 108.712 37.5278C108.712 36.3737 108.253 35.2668 107.437 34.4507C106.621 33.6345 105.514 33.176 104.36 33.176Z" fill="#FF7E69"/>
<path d="M107.261 35.3519H104.004C103.861 35.3519 103.718 35.3802 103.585 35.4352C103.453 35.4902 103.332 35.5709 103.23 35.6725C103.129 35.7741 103.048 35.8948 102.993 36.0276C102.938 36.1604 102.91 36.3027 102.91 36.4464V42.9609C102.91 43.2512 103.025 43.5297 103.23 43.7349C103.436 43.9402 103.714 44.0556 104.004 44.0556H107.261C108.416 44.0556 109.523 43.597 110.339 42.7809C111.155 41.9648 111.613 40.8579 111.613 39.7037C111.613 38.5496 111.155 37.4426 110.339 36.6265C109.523 35.8104 108.416 35.3519 107.261 35.3519Z" fill="#391145"/>
<path d="M110.162 37.5278H106.905C106.615 37.5278 106.336 37.6431 106.131 37.8484C105.926 38.0537 105.811 38.3321 105.811 38.6224V45.1369C105.811 45.4272 105.926 45.7056 106.131 45.9109C106.336 46.1162 106.615 46.2315 106.905 46.2315H110.162C111.317 46.2315 112.423 45.7729 113.24 44.9568C114.056 44.1407 114.514 43.0338 114.514 41.8796C114.514 40.7255 114.056 39.6186 113.24 38.8025C112.423 37.9863 111.317 37.5278 110.162 37.5278Z" fill="#52A8CE"/>
<path d="M110.401 50.3693L111.925 48.8961C112.058 48.7683 112.218 48.6727 112.393 48.6165C112.568 48.5604 112.754 48.5452 112.936 48.5723L114.997 48.878C115.063 48.8881 115.131 48.8784 115.192 48.8499C115.254 48.8214 115.305 48.7755 115.34 48.718C115.375 48.6604 115.392 48.5938 115.389 48.5265C115.386 48.4593 115.363 48.3944 115.324 48.34L110.439 41.6786C110.397 41.6205 110.337 41.5773 110.268 41.5552C110.2 41.5331 110.126 41.5332 110.057 41.5555C109.989 41.5777 109.929 41.621 109.887 41.6792C109.844 41.7374 109.821 41.8075 109.821 41.8796V50.1248C109.821 50.1919 109.841 50.2575 109.878 50.3133C109.916 50.3691 109.968 50.4128 110.03 50.4388C110.092 50.4649 110.16 50.4722 110.226 50.4599C110.292 50.4475 110.353 50.416 110.401 50.3693Z" fill="#391145"/>
</g>
<defs>
<clipPath id="clip0_401_2787">
<rect width="50" height="52.0408" fill="white" transform="translate(20 15)"/>
</clipPath>
<clipPath id="clip1_401_2787">
<rect width="100" height="19.4656" fill="white" transform="translate(97 31)"/>
</clipPath>
</defs>
</svg>
