<svg width="250" height="82" viewBox="0 0 250 82" fill="none" xmlns="http://www.w3.org/2000/svg">
<g clipPath="url(#clip0_401_852)">
<path fillRule="evenodd" clipRule="evenodd" d="M64.9025 52.3917C63.546 54.7456 61.331 56.4828 58.7217 57.2391C59.0947 55.9589 59.2851 54.6325 59.2874 53.299C59.2874 46.6584 54.7108 41.0886 48.5676 39.5719C49.841 38.3265 51.4134 37.4295 53.1337 36.9672C54.4605 36.6061 55.8459 36.5131 57.2091 36.6935C58.5722 36.874 59.8857 37.3244 61.0728 38.0183C66.0691 40.9198 67.7868 47.3672 64.9025 52.3917ZM45.2191 63.8204C42.4863 63.8204 39.8868 62.7287 37.9582 60.8646C39.2463 60.5483 40.4827 60.0499 41.6301 59.3844C47.3467 56.0652 49.8545 49.2975 48.0926 43.1902C52.467 44.4506 55.6816 48.5006 55.6816 53.299C55.6816 59.0995 50.9874 63.8204 45.2191 63.8204ZM25.5347 52.3917C24.1686 50.0115 23.815 47.2073 24.4535 44.599C25.3697 45.5571 26.4158 46.3818 27.5613 47.049C29.69 48.2889 32.1094 48.942 34.5728 48.9417C36.4735 48.9402 38.3543 48.5537 40.1018 47.8057C41.8492 47.0578 43.4272 45.9638 44.7405 44.5896C45.8379 49.0271 43.9566 53.8454 39.8275 56.2433C38.2447 57.1653 36.4456 57.6509 34.6139 57.6506C32.7714 57.6514 30.9614 57.1654 29.367 56.2419C27.7726 55.3185 26.4504 53.9903 25.5342 52.3917H25.5347ZM25.5342 29.5344C26.8907 27.1805 29.1061 25.4433 31.7155 24.687C31.3417 25.9675 31.1509 27.2943 31.1488 28.6282C31.1488 35.2652 35.7233 40.8334 41.8634 42.3527C38.5905 45.5329 33.4957 46.3068 29.3644 43.9079C26.9436 42.5016 25.2129 40.2334 24.4894 37.5183C24.13 36.1842 24.0372 34.7923 24.2165 33.4223C24.3958 32.0523 24.8436 30.7312 25.5342 29.5344ZM45.2191 18.1058C47.953 18.1058 50.5499 19.1964 52.4769 21.0589C51.19 21.378 49.9545 21.8771 48.8071 22.5417C45.5519 24.4323 43.2238 27.4829 42.2519 31.1339C41.5858 33.6282 41.6165 36.2574 42.3405 38.7355C37.9681 37.474 34.7561 33.4245 34.7561 28.6282C34.7561 22.8261 39.4493 18.1058 45.2191 18.1058ZM64.9025 29.5344C66.2702 31.9178 66.6243 34.7251 65.9816 37.3365C65.0678 36.3743 64.0224 35.5463 62.8764 34.8771C59.6212 32.9881 55.8301 32.486 52.1993 33.4641C49.7141 34.1336 47.4625 35.4772 45.6931 37.3464C45.2593 35.6133 45.274 33.7983 45.7358 32.0725C46.4582 29.3579 48.1894 27.0886 50.6103 25.6829C53.0306 24.2782 55.8499 23.9047 58.5493 24.6318C61.2488 25.3594 63.5045 27.1006 64.9025 29.5344ZM68.0259 27.7219C66.1467 24.4485 63.1129 22.1073 59.4821 21.1292C58.6239 20.8992 57.7459 20.7506 56.8597 20.6855C54.2556 16.8345 49.8842 14.4792 45.2191 14.4792C40.3874 14.4792 36.1181 16.9423 33.5837 20.6839C28.9624 21.0256 24.7452 23.6558 22.4118 27.7209C20.5316 30.9938 20.0332 34.8073 21.0051 38.4584C21.2363 39.3206 21.5476 40.1593 21.9348 40.9636C19.9207 45.1579 20.078 50.1422 22.4108 54.2058C24.8264 58.4131 29.0806 60.8969 33.5691 61.2344C36.1733 65.0886 40.5535 67.448 45.2186 67.448C50.0499 67.448 54.3191 64.9844 56.853 61.2422C61.4743 60.9006 65.6915 58.2714 68.0254 54.2058C70.4415 49.9975 70.454 45.048 68.4988 40.9704C70.5155 36.774 70.3592 31.7876 68.0254 27.7219" fill="#0092FF"/>
</g>
<g clipPath="url(#clip1_401_852)">
<path d="M121.466 38.0656C120.094 38.0656 119.215 38.5056 119.215 39.2901C119.215 40.0746 120.138 40.4192 121.51 40.5585C123.46 40.7199 125.989 41.0425 125.989 43.6162C125.989 45.4492 124.209 46.7543 121.488 46.7543C119.771 46.7543 118.121 46.3878 116.668 44.9213L117.825 43.4548C118.796 44.4007 120.106 44.9279 121.469 44.9213C122.648 44.9213 123.805 44.5767 123.805 43.6529C123.805 42.7289 122.904 42.4247 121.34 42.2853C119.367 42.124 117.031 41.552 117.031 39.3523C117.031 37.1527 119.456 36.3351 121.425 36.3351C122.897 36.3072 124.335 36.7674 125.503 37.6402L124.346 38.9492C123.514 38.3508 122.5 38.0399 121.466 38.0656ZM133.297 44.8259C134.409 44.8259 135.699 44.4594 136.363 43.7591L137.801 45.0642C136.708 46.2118 134.884 46.7543 133.256 46.7543C129.782 46.7543 127.554 44.7233 127.554 41.5448C127.554 38.5275 129.867 36.3351 133.211 36.3351C136.322 36.3351 138.465 38.0436 138.465 41.4677C138.465 41.7463 138.443 42.0506 138.421 42.3513H129.856C130.041 43.8984 131.339 44.8259 133.297 44.8259ZM133.211 38.1866C131.606 38.1866 130.212 39.0114 129.874 40.6208H136.285C136.159 39.0298 135.047 38.1866 133.211 38.1866ZM148.691 40.9398C148.691 39.2314 147.66 38.2453 145.84 38.2453C145.441 38.242 145.045 38.3185 144.678 38.4699C144.31 38.6214 143.979 38.8447 143.703 39.1259C143.425 39.4098 143.208 39.7452 143.066 40.1122C142.923 40.4792 142.858 40.8703 142.873 41.2624V46.516H140.649V36.577H142.666L142.795 37.9629C143.677 36.9243 144.98 36.3277 146.351 36.3351C148.902 36.3351 150.897 37.8238 150.897 40.9215V46.5162H148.672L148.691 40.9398H148.691ZM164.381 46.5162H162.301L162.171 44.9432C161.342 46.1247 159.962 46.8074 158.509 46.7543C155.442 46.7543 153.107 44.8444 153.107 41.5448C153.107 38.1645 155.398 36.3351 158.464 36.3351C159.751 36.3351 161.486 36.918 162.171 38.106V32.4525H164.396L164.381 46.516V46.5162ZM155.312 41.5448C155.312 43.5573 156.77 44.8259 158.649 44.8259C160.476 44.8259 161.957 43.3618 161.957 41.5557C161.957 39.7498 160.476 38.2855 158.649 38.2855C156.77 38.2855 155.312 39.5321 155.312 41.5448ZM168.497 32.1887C168.673 32.1745 168.851 32.197 169.018 32.2545C169.186 32.312 169.338 32.4034 169.467 32.5226C169.596 32.6429 169.699 32.788 169.768 32.9489C169.837 33.1097 169.871 33.2827 169.869 33.4571C169.816 34.1676 169.217 34.7175 168.497 34.7175C167.776 34.7175 167.178 34.1678 167.125 33.4571C167.122 33.2827 167.156 33.1097 167.226 32.9489C167.295 32.788 167.397 32.6429 167.527 32.5226C167.655 32.4034 167.808 32.312 167.975 32.2545C168.142 32.197 168.32 32.1745 168.497 32.1887ZM169.591 46.5162H167.366V36.5771H169.591V46.5162ZM180.606 40.9398C180.606 39.2314 179.579 38.2453 177.755 38.2453C177.355 38.2415 176.96 38.3176 176.592 38.4689C176.225 38.6202 175.893 38.8434 175.617 39.1248C175.339 39.4088 175.122 39.7444 174.98 40.1116C174.838 40.4788 174.773 40.8702 174.789 41.2624V46.516H172.564V36.577H174.577L174.707 37.9629C175.59 36.9243 176.894 36.3276 178.266 36.3351C180.817 36.3351 182.812 37.8238 182.812 40.9215V46.5162H180.587L180.606 40.9398ZM187.873 38.2049C188.559 37.0169 190.298 36.3351 191.58 36.3351C194.624 36.3351 196.942 38.1682 196.942 41.5448C196.942 44.8444 194.454 46.7543 191.562 46.7543C190.231 46.7543 188.711 46.2118 187.873 44.9432L187.747 46.5162H185.667V32.4525H187.891L187.873 38.2049ZM188.003 41.5448C187.995 41.982 188.078 42.4161 188.247 42.8213C188.415 43.2266 188.666 43.5946 188.983 43.9036C189.298 44.2096 189.673 44.4494 190.087 44.608C190.501 44.7667 190.943 44.8409 191.388 44.8259C193.319 44.8259 194.724 43.5575 194.724 41.5448C194.724 39.5321 193.312 38.2855 191.388 38.2855C190.945 38.2711 190.505 38.345 190.093 38.5025C189.681 38.6601 189.306 38.8979 188.992 39.2015C188.675 39.508 188.424 39.8732 188.254 40.2757C188.084 40.6781 187.999 41.1096 188.003 41.5448ZM201.591 46.5162H199.366V32.4525H201.591V46.5162H201.591ZM206.715 41.9885C206.715 43.6785 207.723 44.8444 209.588 44.8444C209.984 44.8482 210.377 44.7725 210.742 44.622C211.107 44.4715 211.436 44.2494 211.709 43.9696C211.985 43.6871 212.199 43.3534 212.339 42.9884C212.479 42.6234 212.542 42.2346 212.525 41.8453V36.577H214.731V46.516H212.74L212.61 45.145C211.71 46.207 210.366 46.8006 208.965 46.7543C206.37 46.7543 204.516 45.0056 204.516 42.0067V36.5771H206.722L206.715 41.9885ZM222.836 44.8259C223.948 44.8259 225.234 44.4594 225.902 43.7591L227.337 45.0642C226.243 46.2118 224.423 46.7543 222.791 46.7543C219.321 46.7543 217.089 44.7233 217.089 41.5448C217.089 38.5275 219.406 36.3351 222.75 36.3351C225.857 36.3351 228 38.0436 228 41.4677C228 41.7463 227.978 42.0506 227.96 42.3513H219.384C219.58 43.8984 220.885 44.8259 222.836 44.8259H222.836ZM222.751 38.1866C221.141 38.1866 219.747 39.0114 219.414 40.6208H225.82C225.687 39.0298 224.571 38.1866 222.75 38.1866H222.751Z" fill="#091E3F"/>
<path fillRule="evenodd" clipRule="evenodd" d="M109.135 45.5973C108.641 46.431 107.836 47.0463 106.888 47.3141C107.023 46.8607 107.092 46.3909 107.093 45.9187C107.093 43.5667 105.43 41.594 103.196 41.0569C103.659 40.6158 104.231 40.2981 104.856 40.1344C105.339 40.0065 105.842 39.9735 106.338 40.0374C106.833 40.1013 107.311 40.2608 107.742 40.5066C109.559 41.5343 110.183 43.8178 109.135 45.5973ZM101.979 49.6451C100.986 49.6451 100.041 49.2584 99.3394 48.5982C99.8077 48.4862 100.257 48.3097 100.674 48.074C102.752 46.8984 103.664 44.5014 103.024 42.3384C104.614 42.7848 105.782 44.2192 105.782 45.9187C105.782 47.9731 104.076 49.6451 101.979 49.6451ZM94.823 45.5973C94.3264 44.7543 94.1978 43.7611 94.43 42.8373C94.763 43.1767 95.1433 43.4687 95.5598 43.7051C96.3336 44.1442 97.2131 44.3755 98.1087 44.3754C98.7997 44.3749 99.4834 44.238 100.119 43.9731C100.754 43.7082 101.328 43.3207 101.805 42.834C102.204 44.4057 101.52 46.1122 100.019 46.9614C99.4435 47.288 98.7895 47.46 98.1236 47.4599C97.4538 47.4601 96.7958 47.288 96.2162 46.961C95.6366 46.6339 95.1559 46.1635 94.8228 45.5973H94.823ZM94.8228 37.5018C95.316 36.6682 96.1213 36.0529 97.0699 35.785C96.9341 36.2385 96.8647 36.7085 96.8639 37.1809C96.8639 39.5315 98.5269 41.5037 100.759 42.0417C99.5692 43.1681 97.7171 43.4422 96.2152 42.5926C95.3352 42.0945 94.706 41.2911 94.443 40.3295C94.3123 39.857 94.2786 39.364 94.3438 38.8788C94.409 38.3936 94.5718 37.9257 94.8228 37.5018ZM101.979 33.4541C102.973 33.4541 103.917 33.8404 104.617 34.5C104.15 34.613 103.7 34.7898 103.283 35.0252C102.1 35.6948 101.254 36.7752 100.9 38.0683C100.658 38.9518 100.669 39.883 100.932 40.7606C99.343 40.3138 98.1753 38.8796 98.1753 37.1809C98.1753 35.1259 99.8815 33.4541 101.979 33.4541ZM109.135 37.5018C109.632 38.346 109.761 39.3402 109.527 40.2651C109.195 39.9244 108.815 39.6311 108.398 39.3941C107.215 38.725 105.836 38.5472 104.517 38.8936C103.613 39.1308 102.795 39.6066 102.151 40.2687C101.994 39.6548 101.999 39.012 102.167 38.4007C102.429 37.4393 103.059 36.6356 103.939 36.1377C104.819 35.6402 105.844 35.508 106.825 35.7655C107.806 36.0232 108.626 36.6398 109.135 37.5018ZM110.27 36.8599C109.587 35.7005 108.484 34.8714 107.164 34.5249C106.852 34.4435 106.533 34.3908 106.211 34.3678C105.264 33.0038 103.675 32.1697 101.979 32.1697C100.222 32.1697 98.6704 33.042 97.7491 34.3672C96.0691 34.4882 94.536 35.4198 93.6877 36.8595C93.0042 38.0187 92.823 39.3694 93.1763 40.6625C93.2604 40.9678 93.3735 41.2649 93.5143 41.5498C92.7821 43.0353 92.8393 44.8006 93.6874 46.2398C94.5655 47.7299 96.1121 48.6097 97.7438 48.7292C98.6905 50.0942 100.283 50.9299 101.979 50.9299C103.735 50.9299 105.287 50.0573 106.208 48.732C107.888 48.6109 109.421 47.6798 110.27 46.2398C111.148 44.7493 111.153 42.9963 110.442 41.5522C111.175 40.0659 111.118 38.2998 110.27 36.8599" fill="#0092FF"/>
</g>
<defs>
<clipPath id="clip0_401_852">
<rect width="50" height="53.6458" fill="white" transform="translate(20 14)"/>
</clipPath>
<clipPath id="clip1_401_852">
<rect width="135" height="19" fill="white" transform="translate(93 32)"/>
</clipPath>
</defs>
</svg>
