<svg width="250" height="82" viewBox="0 0 250 82" fill="none" xmlns="http://www.w3.org/2000/svg">
<g clip-path="url(#clip0_401_366)">
<path d="M45.0002 66.0004C58.8074 66.0004 70.0004 54.8074 70.0004 41.0002C70.0004 27.193 58.8074 16 45.0002 16C31.193 16 20 27.193 20 41.0002C20 54.8074 31.193 66.0004 45.0002 66.0004Z" fill="#34E0A1"/>
<path d="M60.4417 36.1228L63.4586 32.8408H56.7685C53.4193 30.5529 49.3745 29.2205 45.0004 29.2205C40.6316 29.2205 36.598 30.5559 33.2545 32.8408H26.5479L29.5644 36.1228C27.7152 37.81 26.5561 40.2404 26.5561 42.9386C26.5561 48.0308 30.6845 52.1592 35.7768 52.1592C38.1959 52.1592 40.3995 51.2262 42.0446 49.7011L45 52.919L47.9555 49.7041C49.6006 51.2292 51.8019 52.1592 54.2207 52.1592C59.3129 52.1592 63.447 48.0308 63.447 42.9386C63.4496 40.2374 62.2905 37.8074 60.4413 36.1228H60.4417ZM35.7794 49.1787C32.3323 49.1787 29.5393 46.3856 29.5393 42.9386C29.5393 39.4915 32.3327 36.6985 35.7794 36.6985C39.2264 36.6985 42.0195 39.4919 42.0195 42.9386C42.0195 46.3853 39.2261 49.1787 35.7794 49.1787ZM45.003 42.7571C45.003 38.6507 42.0169 35.1257 38.0756 33.62C40.2071 32.729 42.5449 32.2348 45.0004 32.2348C47.4556 32.2348 49.7964 32.729 51.9279 33.62C47.9896 35.1287 45.0034 38.6507 45.0034 42.7571H45.003ZM54.2237 49.1787C50.7766 49.1787 47.9836 46.3856 47.9836 42.9386C47.9836 39.4915 50.777 36.6985 54.2237 36.6985C57.6708 36.6985 60.4638 39.4919 60.4638 42.9386C60.4638 46.3853 57.6704 49.1787 54.2237 49.1787ZM54.2237 39.6648C52.4162 39.6648 50.9525 41.1284 50.9525 42.9359C50.9525 44.7431 52.4162 46.2068 54.2237 46.2068C56.0309 46.2068 57.4945 44.7431 57.4945 42.9359C57.4945 41.1314 56.0309 39.6648 54.2237 39.6648ZM39.0506 42.9386C39.0506 44.7457 37.5869 46.2094 35.7794 46.2094C33.9722 46.2094 32.5086 44.7457 32.5086 42.9386C32.5086 41.131 33.9722 39.6674 35.7794 39.6674C37.5865 39.6648 39.0506 41.131 39.0506 42.9386Z" fill="black"/>
</g>
<g clip-path="url(#clip1_401_366)">
<path d="M126.727 38.531V37.1706H124.642V45.264H126.727V40.4111C126.727 39.5323 127.291 39.1006 128.17 39.1006H129.311V37.1707H128.336C127.573 37.1706 126.909 37.569 126.727 38.531ZM131.265 33.9695C130.552 33.9695 130.005 34.5331 130.005 35.2466C130.005 35.9435 130.552 36.5071 131.265 36.5071C131.979 36.5071 132.526 35.9435 132.526 35.2466C132.526 34.5331 131.979 33.9695 131.265 33.9695ZM130.225 45.264H132.306V37.1706H130.225V45.264ZM142.219 41.2173C142.219 43.5278 140.346 45.4007 138.035 45.4007C137.103 45.4007 136.257 45.0951 135.579 44.579V47.6399H133.498V37.1706H135.579V37.8556C136.257 37.3395 137.103 37.0339 138.035 37.0339C140.346 37.0339 142.219 38.9068 142.219 41.2173ZM140.124 41.2173C140.124 39.9628 139.106 38.9448 137.852 38.9448C136.597 38.9448 135.579 39.9628 135.579 41.2173C135.579 42.4719 136.597 43.4898 137.852 43.4898C139.106 43.4898 140.124 42.4731 140.124 41.2173ZM178.387 40.5074L177.173 40.1744C176.374 39.9663 176.064 39.7214 176.064 39.2992C176.064 38.8878 176.501 38.6 177.127 38.6C177.723 38.6 178.19 38.99 178.19 39.4895V39.5358H180.108V39.4895C180.108 38.0209 178.911 37.0339 177.127 37.0339C175.361 37.0339 174.078 38.0197 174.078 39.3789C174.078 40.436 174.778 41.2327 176.001 41.5633L177.164 41.8808C178.047 42.1258 178.375 42.3969 178.375 42.8833C178.375 43.3958 177.901 43.7407 177.195 43.7407C176.459 43.7407 175.963 43.2745 175.963 42.5824V42.536H173.927V42.5824C173.927 44.2425 175.264 45.4031 177.178 45.4031C179.023 45.4031 180.361 44.2698 180.361 42.7097C180.361 41.9439 180.019 40.9426 178.387 40.5074ZM149.601 37.1706H151.682V45.264H149.601V44.579C148.923 45.0951 148.077 45.4007 147.145 45.4007C144.835 45.4007 142.962 43.5278 142.962 41.2173C142.962 38.9067 144.835 37.0339 147.145 37.0339C148.077 37.0339 148.923 37.3395 149.601 37.8556V37.1706ZM149.601 41.2173C149.601 39.9616 148.583 38.9448 147.328 38.9448C146.074 38.9448 145.056 39.9628 145.056 41.2173C145.056 42.4719 146.074 43.4898 147.328 43.4898C148.584 43.4898 149.601 42.4731 149.601 41.2173ZM159.196 34.2905H161.277V45.2652H159.196V44.5802C158.518 45.0963 157.673 45.4019 156.74 45.4019C154.43 45.4019 152.557 43.529 152.557 41.2185C152.557 38.9079 154.43 37.0351 156.74 37.0351C157.673 37.0351 158.518 37.3407 159.196 37.8567V34.2905ZM159.196 41.2173C159.196 39.9628 158.178 38.9448 156.923 38.9448C155.669 38.9448 154.651 39.9628 154.651 41.2173C154.651 42.4719 155.668 43.4898 156.923 43.4898C158.178 43.4898 159.196 42.4731 159.196 41.2173ZM170.939 45.264H173.02V37.1706H170.939V45.264ZM171.979 33.9695C171.266 33.9695 170.719 34.5331 170.719 35.2466C170.719 35.9435 171.266 36.5071 171.979 36.5071C172.693 36.5071 173.24 35.9435 173.24 35.2466C173.24 34.5331 172.693 33.9695 171.979 33.9695ZM189.356 41.2173C189.356 43.5278 187.483 45.4007 185.173 45.4007C182.862 45.4007 180.989 43.5278 180.989 41.2173C180.989 38.9068 182.862 37.0339 185.173 37.0339C187.483 37.0339 189.356 38.9068 189.356 41.2173ZM187.445 41.2173C187.445 39.9628 186.427 38.9448 185.173 38.9448C183.918 38.9448 182.9 39.9628 182.9 41.2173C182.9 42.4719 183.917 43.4898 185.173 43.4898C186.427 43.4898 187.445 42.4731 187.445 41.2173ZM125.662 34.2905H117.679V36.1468H120.634V45.264H122.708V36.1468H125.663V34.2905H125.662ZM166.032 43.0474L164.181 37.1707H161.995L164.772 45.264H167.276L170.069 37.1707H167.884L166.032 43.0474ZM192.405 38.531V37.1706H190.319V45.264H192.405V40.4111C192.405 39.5323 192.969 39.1006 193.847 39.1006H194.989V37.1707H194.014C193.25 37.1706 192.588 37.569 192.405 38.531Z" fill="black"/>
<path d="M105.643 51.2857C111.521 51.2857 116.286 46.5207 116.286 40.6428C116.286 34.765 111.521 30 105.643 30C99.7649 30 95 34.765 95 40.6428C95 46.5207 99.7649 51.2857 105.643 51.2857Z" fill="#34E0A1"/>
<path d="M112.216 38.5666L113.5 37.1693H110.652C109.227 36.1954 107.505 35.6282 105.643 35.6282C103.783 35.6282 102.066 36.1966 100.642 37.1693H97.7871L99.0714 38.5666C98.2842 39.2848 97.7907 40.3194 97.7907 41.4681C97.7907 43.6359 99.5483 45.3934 101.716 45.3934C102.746 45.3934 103.684 44.9963 104.385 44.347L105.643 45.7169L106.901 44.3482C107.601 44.9975 108.538 45.3934 109.568 45.3934C111.736 45.3934 113.496 43.6359 113.496 41.4681C113.497 40.3182 113.003 39.2836 112.216 38.5666ZM101.717 44.1246C100.25 44.1246 99.0607 42.9355 99.0607 41.4681C99.0607 40.0007 100.25 38.8115 101.717 38.8115C103.185 38.8115 104.374 40.0007 104.374 41.4681C104.374 42.9355 103.185 44.1246 101.717 44.1246ZM105.644 41.3908C105.644 39.6427 104.373 38.142 102.695 37.5011C103.602 37.1217 104.597 36.9113 105.643 36.9113C106.688 36.9113 107.684 37.1217 108.592 37.5011C106.915 38.1432 105.644 39.6428 105.644 41.3908ZM109.569 44.1246C108.102 44.1246 106.913 42.9355 106.913 41.4681C106.913 40.0007 108.102 38.8115 109.569 38.8115C111.037 38.8115 112.226 40.0007 112.226 41.4681C112.226 42.9355 111.037 44.1246 109.569 44.1246ZM109.569 40.0744C108.8 40.0744 108.177 40.6975 108.177 41.4669C108.177 42.2363 108.8 42.8594 109.569 42.8594C110.339 42.8594 110.962 42.2363 110.962 41.4669C110.962 40.6987 110.339 40.0744 109.569 40.0744ZM103.11 41.4681C103.11 42.2375 102.487 42.8606 101.717 42.8606C100.948 42.8606 100.325 42.2375 100.325 41.4681C100.325 40.6987 100.948 40.0756 101.717 40.0756C102.487 40.0744 103.11 40.6987 103.11 41.4681Z" fill="black"/>
</g>
<defs>
<clipPath id="clip0_401_366">
<rect width="50" height="50" fill="white" transform="translate(20 16)"/>
</clipPath>
<clipPath id="clip1_401_366">
<rect width="100" height="21.3007" fill="white" transform="translate(95 30)"/>
</clipPath>
</defs>
</svg>
