<svg width="250" height="82" viewBox="0 0 250 82" fill="none" xmlns="http://www.w3.org/2000/svg">
<g clip-path="url(#clip0_401_191)">
<path d="M30.0841 9.06738H60.1432C65.7502 9.06738 70.16 13.4772 69.9492 18.8903V51.7571C69.9492 57.1618 65.5479 61.5716 60.1347 61.5716H53.5243L57.133 73.1905L39.7047 61.5716H30.0926C24.4855 61.5716 20.0757 57.1618 20.0757 51.5548V18.8988C20.0673 13.4772 24.4771 9.06738 30.0841 9.06738ZM41.7621 45.1382C40.7418 44.5733 39.9239 43.7554 39.3084 42.6762C38.6929 41.5969 38.3894 40.2984 38.3894 38.7892V21.2765C38.3894 21.0067 38.3303 20.7959 38.2039 20.661C38.0858 20.5177 37.8835 20.4502 37.5968 20.4502H33.1196C33.0184 20.4502 32.9172 20.4671 32.8244 20.5092C32.7317 20.5514 32.6474 20.6104 32.5884 20.6947C32.445 20.8549 32.3691 21.0657 32.3776 21.2849V38.7217C32.3776 41.5126 32.9509 43.8482 34.0976 45.7453C35.2443 47.634 36.7789 49.0421 38.7182 49.9696C40.6491 50.8971 42.8076 51.3524 45.1853 51.3524C47.5715 51.3524 49.73 50.8971 51.6609 49.9949C53.5917 49.0927 55.1263 47.7015 56.273 45.8128C57.4197 43.9241 57.9931 41.58 57.9931 38.7807V21.2934C57.9931 21.1838 57.9762 21.0741 57.9341 20.9645C57.8919 20.8634 57.8329 20.7622 57.757 20.6863C57.5968 20.5261 57.386 20.4418 57.1162 20.4418H52.8497C52.5968 20.4418 52.386 20.5177 52.2342 20.6779C52.074 20.8381 51.9981 21.0404 51.9981 21.2934V38.7892C51.9981 40.1972 51.6946 41.4536 51.0875 42.5413C50.4804 43.6374 49.6626 44.4806 48.6255 45.0792C47.5884 45.6779 46.4416 45.973 45.1938 45.973C43.9206 45.9814 42.7823 45.7032 41.7621 45.1382Z" fill="#2B52FD"/>
</g>
<g clip-path="url(#clip1_401_191)">
<path fill-rule="evenodd" clip-rule="evenodd" d="M146.822 45.4655V32.1374C146.822 29.9116 145.015 28.0918 142.776 28.0918H106.471C104.245 28.0918 102.425 29.8986 102.425 32.1374V45.4655C102.425 47.6911 104.232 49.511 106.471 49.511H132.76L139.883 54.2636L138.456 49.511H142.802C145.015 49.4979 146.835 47.6911 146.822 45.4655ZM110.097 41.4853C110.307 41.8519 110.582 42.14 110.935 42.3232C111.289 42.5197 111.669 42.6113 112.101 42.6113C112.533 42.6113 112.925 42.5066 113.279 42.3102C113.632 42.1007 113.92 41.8127 114.117 41.4461C114.326 41.0664 114.431 40.6475 114.431 40.163V34.1798C114.431 34.0881 114.457 34.0227 114.51 33.9703C114.562 33.9179 114.627 33.8917 114.719 33.8917H116.172C116.264 33.8917 116.343 33.9179 116.395 33.9703C116.421 33.9965 116.447 34.0358 116.46 34.0619C116.473 34.1012 116.487 34.1405 116.473 34.1798V40.15C116.473 41.1057 116.277 41.9043 115.884 42.559C115.492 43.2005 114.968 43.6849 114.313 43.986C113.659 44.3002 112.912 44.4442 112.101 44.4442C111.289 44.4442 110.556 44.2871 109.888 43.9729C109.22 43.6587 108.697 43.1743 108.304 42.5328C107.911 41.8912 107.715 41.0926 107.715 40.1369V34.1798C107.715 34.1012 107.741 34.0358 107.793 33.9834C107.819 33.9572 107.846 33.931 107.872 33.9179C107.898 33.9048 107.937 33.8917 107.976 33.8917H109.508C109.6 33.8917 109.678 33.9179 109.718 33.9703C109.757 34.0227 109.783 34.0881 109.783 34.1798V40.163C109.783 40.6736 109.888 41.1188 110.097 41.4853ZM117.848 42.5197C117.848 42.559 117.861 42.6113 117.874 42.6506C117.901 42.703 117.927 42.7553 117.953 42.8077C118.28 43.3183 118.725 43.7242 119.275 44.0122C119.825 44.3002 120.454 44.4442 121.147 44.4442C121.697 44.4442 122.234 44.3395 122.745 44.1431C123.255 43.9336 123.661 43.6325 123.988 43.2136C124.303 42.8077 124.46 42.3102 124.46 41.721C124.46 41.1057 124.263 40.5427 123.871 40.0583C123.478 39.5607 122.889 39.2073 122.09 38.9585C121.985 38.9192 121.894 38.893 121.802 38.8669C121.71 38.8407 121.632 38.8145 121.566 38.8014C121.174 38.6967 120.886 38.605 120.702 38.5265C120.519 38.4479 120.362 38.3563 120.257 38.2515C120.139 38.1337 120.087 37.9897 120.087 37.7933C120.087 37.5446 120.192 37.3482 120.401 37.1911C120.611 37.0339 120.899 36.9553 121.265 36.9553C121.619 36.9553 121.907 37.0208 122.143 37.1386C122.378 37.2565 122.601 37.4529 122.823 37.7017C122.902 37.7933 122.967 37.8457 123.046 37.8457C123.098 37.8457 123.164 37.8195 123.229 37.754L124.054 37.0732C124.146 36.9946 124.198 36.9292 124.198 36.8637C124.198 36.8113 124.159 36.7328 124.093 36.628C123.779 36.2353 123.386 35.8949 122.915 35.633C122.444 35.3581 121.881 35.2272 121.213 35.2272C120.598 35.2272 120.061 35.345 119.589 35.5938C119.118 35.8425 118.765 36.1567 118.503 36.5495C118.254 36.9423 118.123 37.3351 118.123 37.7409C118.123 38.2384 118.215 38.6705 118.411 39.024C118.608 39.3775 118.896 39.6786 119.288 39.9274C119.681 40.1761 120.192 40.3987 120.833 40.5951C121.108 40.6736 121.278 40.726 121.318 40.7391C121.632 40.8307 121.868 40.9093 122.012 40.9748C122.169 41.0402 122.287 41.1188 122.365 41.2366C122.457 41.3544 122.496 41.5115 122.496 41.721C122.496 41.9174 122.417 42.1007 122.273 42.2578C122.116 42.4149 121.933 42.5328 121.697 42.6244C121.475 42.703 121.226 42.7553 120.99 42.7553C120.598 42.7553 120.27 42.6637 120.008 42.4804C119.747 42.2971 119.498 42.0483 119.275 41.7341C119.197 41.6294 119.118 41.577 119.027 41.577C118.974 41.577 118.922 41.6032 118.869 41.6294L117.966 42.2709C117.887 42.3494 117.848 42.428 117.848 42.5197ZM132.63 41.7734C132.708 41.7734 132.76 41.7996 132.8 41.865L133.52 42.7423C133.572 42.8208 133.611 42.8863 133.611 42.9517C133.611 43.0303 133.572 43.0957 133.507 43.1612C132.983 43.6194 132.472 43.9467 131.949 44.1562C131.438 44.3526 130.875 44.4573 130.286 44.4573C129.487 44.4573 128.728 44.2478 128.021 43.842C127.314 43.423 126.751 42.8732 126.332 42.1661C125.913 41.4592 125.704 40.6998 125.704 39.875C125.704 39.0371 125.9 38.2646 126.293 37.5707C126.686 36.8637 127.222 36.3138 127.916 35.8949C128.61 35.4759 129.383 35.2796 130.234 35.2796C130.928 35.2796 131.608 35.4498 132.289 35.7902C132.97 36.1305 133.533 36.6411 133.978 37.3351C134.423 38.029 134.646 38.88 134.646 39.8881C134.646 40.1107 134.62 40.2809 134.567 40.3856C134.515 40.4903 134.436 40.5558 134.358 40.5689C134.266 40.5951 134.122 40.6082 133.939 40.5951H127.654C127.746 41.014 127.929 41.3806 128.178 41.6948C128.427 42.009 128.741 42.2578 129.108 42.428C129.474 42.5982 129.867 42.6899 130.286 42.6899C130.613 42.6899 130.888 42.6506 131.137 42.5852C131.373 42.5197 131.569 42.4411 131.726 42.3494C131.909 42.2447 132.08 42.1269 132.237 41.9959L132.446 41.8388C132.512 41.7865 132.577 41.7734 132.63 41.7734ZM129.16 37.2303C128.82 37.4005 128.532 37.6362 128.283 37.9242C128.034 38.2123 127.851 38.5396 127.72 38.9061H132.708C132.499 38.3301 132.171 37.8588 131.739 37.5053C131.307 37.1517 130.797 36.9815 130.234 36.9815C129.867 36.9684 129.5 37.0601 129.16 37.2303ZM137.552 35.345H136.544C136.361 35.345 136.269 35.4498 136.269 35.6461V43.9991C136.269 44.1955 136.361 44.2871 136.544 44.2871H137.984C138.181 44.2871 138.272 44.1955 138.272 43.9991V39.1025C138.272 38.6574 138.351 38.2908 138.521 37.9897C138.691 37.6886 138.901 37.466 139.176 37.322C139.438 37.1779 139.726 37.0994 140.027 37.0994C140.328 37.0994 140.603 37.1517 140.865 37.2565C141.127 37.3744 141.375 37.5053 141.611 37.6624C141.689 37.7148 141.768 37.754 141.833 37.754C141.912 37.754 141.964 37.7148 142.03 37.6362L142.685 36.7066C142.737 36.6411 142.763 36.5757 142.763 36.5102C142.763 36.4186 142.711 36.3269 142.606 36.2222C142.344 35.9996 142.004 35.7771 141.585 35.5676C141.179 35.3581 140.734 35.2534 140.249 35.2534C139.804 35.2534 139.398 35.3581 139.032 35.5676C138.665 35.7771 138.364 36.0651 138.128 36.4448L137.984 35.6723C137.958 35.5283 137.919 35.4367 137.84 35.3974C137.775 35.3581 137.683 35.345 137.552 35.345Z" fill="#3B5BF4"/>
<path d="M149.401 33.8916H156.89C157.073 33.8916 157.165 33.9833 157.165 34.1665V35.4889C157.165 35.6722 157.073 35.7769 156.89 35.7769H154.127V44.012C154.127 44.1953 154.036 44.287 153.852 44.287H152.347C152.163 44.287 152.072 44.1953 152.072 44.012V35.7638H149.388C149.204 35.7638 149.113 35.6722 149.113 35.4758V34.1665C149.126 33.9833 149.218 33.8916 149.401 33.8916Z" fill="#3B5BF4"/>
<path d="M163.855 41.7731C163.934 41.7731 163.986 41.7993 164.025 41.8648L164.745 42.742C164.798 42.8205 164.837 42.886 164.837 42.9515C164.837 43.03 164.798 43.0955 164.732 43.1609C164.209 43.6192 163.698 43.9465 163.174 44.1559C162.651 44.3654 162.101 44.4571 161.512 44.4571C160.713 44.4571 159.954 44.2476 159.247 43.8417C158.54 43.4228 157.977 42.8729 157.558 42.1659C157.139 41.4589 156.929 40.6996 156.929 39.8748C156.929 39.0368 157.126 38.2644 157.518 37.5705C157.911 36.8635 158.448 36.3136 159.142 35.8946C159.836 35.4757 160.608 35.2793 161.459 35.2793C162.153 35.2793 162.847 35.4495 163.515 35.7899C164.196 36.1303 164.758 36.6409 165.204 37.3348C165.649 38.0287 165.871 38.8797 165.871 39.8878C165.871 40.1104 165.845 40.2806 165.793 40.3853C165.74 40.4901 165.662 40.5555 165.583 40.5686C165.492 40.5948 165.348 40.6079 165.164 40.6079H158.893C158.985 41.0269 159.168 41.3934 159.417 41.7077C159.666 42.0219 159.98 42.2707 160.346 42.4409C160.713 42.6111 161.106 42.7027 161.538 42.7027C161.865 42.7027 162.14 42.6634 162.389 42.598C162.624 42.5325 162.821 42.454 162.978 42.3623C163.161 42.2576 163.331 42.1398 163.489 42.0088L163.698 41.8517C163.724 41.7862 163.79 41.7731 163.855 41.7731ZM160.373 37.2301C160.032 37.4003 159.744 37.6359 159.495 37.924C159.247 38.212 159.063 38.5393 158.932 38.9059H163.934C163.724 38.3298 163.397 37.8585 162.965 37.505C162.533 37.1515 162.022 36.9813 161.446 36.9813C161.08 36.9682 160.7 37.0599 160.373 37.2301Z" fill="#3B5BF4"/>
<path d="M166.473 42.6504C166.46 42.6112 166.447 42.5588 166.447 42.5195C166.447 42.4279 166.487 42.3493 166.565 42.2708L167.455 41.59C167.495 41.5507 167.547 41.5245 167.613 41.5376C167.704 41.5376 167.796 41.59 167.861 41.6947C168.084 42.0089 168.333 42.2577 168.595 42.441C168.856 42.6243 169.183 42.7159 169.576 42.7159C169.825 42.7159 170.061 42.6766 170.283 42.585C170.519 42.4933 170.716 42.3755 170.86 42.2184C171.004 42.0613 171.082 41.878 171.082 41.6816C171.082 41.4722 171.043 41.315 170.951 41.1972C170.86 41.0794 170.742 41.0008 170.598 40.9354C170.454 40.8699 170.218 40.7913 169.904 40.6997C169.851 40.6866 169.695 40.6473 169.42 40.5556C168.777 40.3593 168.267 40.1367 167.874 39.8879C167.482 39.6392 167.194 39.3381 166.997 38.9846C166.801 38.6311 166.709 38.1991 166.709 37.7015C166.709 37.2956 166.84 36.9029 167.089 36.5101C167.338 36.1173 167.704 35.8031 168.175 35.5544C168.646 35.3056 169.183 35.1877 169.799 35.1877C170.454 35.1877 171.029 35.3187 171.501 35.5937C171.972 35.8686 172.365 36.1959 172.679 36.5887C172.758 36.6803 172.784 36.7589 172.784 36.8243C172.784 36.8898 172.731 36.9683 172.64 37.0338L171.815 37.7146C171.737 37.767 171.684 37.8062 171.632 37.8062C171.566 37.8062 171.488 37.7539 171.409 37.6622C171.2 37.4135 170.964 37.2302 170.729 37.0993C170.493 36.9814 170.192 36.916 169.851 36.916C169.485 36.916 169.196 36.9945 168.987 37.1516C168.777 37.3087 168.673 37.5051 168.673 37.7539C168.673 37.9502 168.725 38.0943 168.843 38.2122C168.961 38.33 169.105 38.4216 169.289 38.4871C169.471 38.5656 169.773 38.6442 170.152 38.762C170.231 38.7751 170.31 38.8013 170.388 38.8275C170.48 38.8537 170.571 38.8798 170.676 38.9191C171.475 39.1548 172.064 39.5214 172.457 40.0189C172.85 40.5164 173.046 41.0663 173.046 41.6816C173.046 42.2577 172.889 42.7552 172.575 43.1741C172.26 43.58 171.841 43.8943 171.331 44.1037C170.82 44.3132 170.283 44.4179 169.733 44.4048C169.04 44.4048 168.411 44.2608 167.861 43.9728C167.311 43.6848 166.879 43.2789 166.539 42.7683C166.526 42.7552 166.5 42.7028 166.473 42.6504Z" fill="#3B5BF4"/>
<path d="M177.851 35.4104C178.047 35.4104 178.152 35.5152 178.152 35.7115V36.8637C178.152 36.9554 178.126 37.0339 178.061 37.0863C177.995 37.1386 177.916 37.1648 177.825 37.1648H176.816V41.5246C176.816 41.8388 176.869 42.0876 176.987 42.284C177.105 42.4673 177.301 42.572 177.576 42.5851L177.799 42.5982C177.956 42.6113 178.061 42.6506 178.1 42.7291C178.139 42.8077 178.165 42.8993 178.152 42.9909V43.9859C178.152 44.2217 177.969 44.3395 177.615 44.3395C177.066 44.3395 176.581 44.2348 176.162 44.0253C175.73 43.8158 175.403 43.5146 175.167 43.1219C174.932 42.7291 174.814 42.2709 174.814 41.7472V37.1779H174.002C173.923 37.1779 173.845 37.1517 173.792 37.0994C173.727 37.047 173.701 36.9684 173.701 36.8768V35.7377C173.701 35.633 173.727 35.5544 173.792 35.489C173.845 35.4366 173.923 35.4104 174.002 35.4104H174.814V33.9441C174.814 33.8393 174.827 33.7739 174.866 33.7215C174.905 33.6691 174.984 33.643 175.089 33.6037L176.516 33.1847C176.542 33.1716 176.568 33.1716 176.594 33.1716C176.62 33.1716 176.66 33.1847 176.686 33.1978C176.712 33.2109 176.738 33.2371 176.751 33.2633C176.791 33.3157 176.804 33.3942 176.804 33.4858V35.3973L177.851 35.4104Z" fill="#3B5BF4"/>
<path d="M180.064 32.1504H181.281C181.543 32.1504 181.673 32.2944 181.673 32.5955V33.8262C181.673 33.9702 181.648 34.075 181.582 34.1274C181.517 34.1797 181.412 34.219 181.281 34.219H180.064C179.775 34.219 179.631 34.0881 179.631 33.8262V32.5955C179.631 32.2944 179.775 32.1504 180.064 32.1504ZM179.775 35.4235C179.828 35.3711 179.893 35.3449 179.971 35.3449H181.451C181.53 35.3449 181.595 35.3711 181.648 35.4235C181.7 35.4759 181.726 35.5413 181.726 35.633V43.999C181.726 44.1824 181.635 44.2871 181.451 44.2871H179.971C179.789 44.2871 179.697 44.1955 179.697 43.999V35.633C179.697 35.5413 179.723 35.4759 179.775 35.4235Z" fill="#3B5BF4"/>
<path d="M185.183 44.2085C185.104 44.2609 184.999 44.2871 184.908 44.2871H183.625C183.428 44.2871 183.324 44.1823 183.324 43.986V35.6329C183.324 35.4366 183.428 35.3318 183.625 35.3318H184.567C184.659 35.3318 184.764 35.3711 184.829 35.4366C184.908 35.502 184.96 35.5937 184.986 35.6853L185.104 36.6935C185.445 36.2091 185.851 35.8555 186.335 35.6198C186.819 35.3842 187.343 35.2664 187.88 35.2664C188.416 35.2664 188.94 35.3973 189.451 35.6722C189.961 35.9471 190.38 36.3662 190.721 36.9291C191.048 37.4921 191.218 38.1991 191.218 39.037V43.9729C191.218 44.1693 191.127 44.2609 190.943 44.2609H189.543C189.346 44.2609 189.241 44.1693 189.241 43.9729V39.1025C189.241 38.7621 189.163 38.4478 188.993 38.1467C188.822 37.8456 188.587 37.5968 188.299 37.4135C187.997 37.2302 187.67 37.1386 187.304 37.1386C186.99 37.1386 186.675 37.2171 186.374 37.3873C186.06 37.5575 185.811 37.7932 185.615 38.1074C185.418 38.4216 185.314 38.7883 185.314 39.1941V43.9598C185.301 44.0776 185.261 44.1431 185.183 44.2085Z" fill="#3B5BF4"/>
<path d="M200.933 45.1251C200.54 45.8321 200.016 46.3689 199.335 46.7355C198.655 47.1021 197.869 47.2723 196.992 47.2723C196.403 47.2723 195.827 47.1675 195.264 46.9712C194.687 46.7748 194.203 46.4998 193.797 46.1594C193.719 46.0939 193.68 46.0285 193.68 45.9499C193.68 45.8975 193.706 45.8321 193.771 45.7404L194.36 44.8894C194.426 44.7978 194.505 44.7454 194.609 44.7454C194.687 44.7454 194.766 44.7716 194.858 44.8371C195.473 45.2691 196.233 45.4786 197.162 45.4786C197.634 45.4786 198.053 45.3738 198.419 45.1644C198.785 44.968 199.087 44.6669 199.284 44.3003C199.493 43.9337 199.597 43.5147 199.597 43.0434V43.0172C199.205 43.4362 198.785 43.7504 198.354 43.9599C197.922 44.1694 197.411 44.2741 196.835 44.2741C196.062 44.2741 195.33 44.0908 194.662 43.6981C193.981 43.3183 193.444 42.7815 193.038 42.1008C192.632 41.42 192.423 40.6475 192.436 39.7834C192.436 38.9717 192.632 38.2123 193.038 37.5184C193.444 36.8245 193.981 36.2615 194.662 35.8426C195.342 35.4236 196.062 35.2141 196.835 35.2141C197.948 35.2141 198.903 35.6462 199.702 36.4972L199.82 35.6723C199.833 35.5414 199.872 35.4498 199.925 35.3974C199.977 35.345 200.056 35.3188 200.16 35.3188H201.286C201.457 35.3188 201.548 35.4236 201.548 35.62V42.4935C201.509 43.554 201.312 44.4181 200.933 45.1251ZM199.284 38.4349C199.047 38.0159 198.734 37.6755 198.328 37.4267C197.922 37.178 197.476 37.0471 196.966 37.0471C196.442 37.0471 195.984 37.178 195.578 37.4267C195.172 37.6755 194.871 38.0159 194.635 38.448C194.413 38.88 194.295 39.3383 194.295 39.8488C194.295 40.3856 194.413 40.8569 194.649 41.276C194.884 41.6949 195.211 42.0222 195.617 42.2579C196.023 42.4935 196.482 42.6113 196.979 42.6113C197.476 42.6113 197.922 42.4935 198.314 42.2448C198.707 41.996 199.022 41.6556 199.257 41.2367C199.48 40.8046 199.597 40.3463 199.597 39.8488C199.624 39.3252 199.506 38.8538 199.284 38.4349Z" fill="#3B5BF4"/>
</g>
<defs>
<clipPath id="clip0_401_191">
<rect width="50" height="64.2496" fill="white" transform="translate(20 9)"/>
</clipPath>
<clipPath id="clip1_401_191">
<rect width="100" height="26.3158" fill="white" transform="translate(102 28)"/>
</clipPath>
</defs>
</svg>
