<svg width="250" height="82" viewBox="0 0 250 82" fill="none" xmlns="http://www.w3.org/2000/svg">
<path d="M24.3416 22.4067C24.3416 29.1433 28.576 33.1515 37.0531 35.2651L46.0361 37.3113C54.0589 39.1216 58.9448 43.6182 58.9448 50.9443C59.0072 54.1359 57.9509 57.2516 55.9533 59.769C55.9533 52.46 52.1048 48.5106 42.8218 46.1361L34.0017 44.1657C26.9388 42.5825 21.4873 38.886 21.4873 30.9284C21.4502 27.8555 22.4543 24.8576 24.3416 22.4067Z" fill="#DD4E3B"/>
<path opacity="0.7" d="M50.4334 49.1505C54.2647 51.5587 55.9447 54.9269 55.9447 59.7604C52.7734 63.7519 47.2019 65.9919 40.6533 65.9919C29.6303 65.9919 21.916 60.6616 20.2017 51.3988H30.7875C32.1503 55.6513 35.7589 57.6217 40.5761 57.6217C46.4563 57.6217 50.3647 54.5396 50.4419 49.1335" fill="#E78376"/>
<path opacity="0.7" d="M29.8445 32.3935C28.0949 31.372 26.6595 29.9042 25.6906 28.1459C24.7218 26.3875 24.2556 24.4043 24.3416 22.4067C27.4016 18.449 32.7246 16.0322 39.2131 16.0322C50.4418 16.0322 56.939 21.8593 58.5418 30.061H48.359C47.2361 26.8275 44.4246 24.3097 39.2989 24.3097C33.8217 24.3097 30.0845 27.4422 29.8702 32.3935" fill="#E78376"/>
<g clip-path="url(#clip0_401_915)">
<path opacity="0.7" d="M161.653 38.0105V50.4605H157.561V40.136L161.653 38.0105Z" fill="#E78376"/>
<path opacity="0.7" d="M106.89 50.7735L116.452 45.7736L115.273 42.72L108.978 45.6559L106.89 50.7735Z" fill="#E78376"/>
<path opacity="0.5" d="M157.561 40.1254L167.935 34.8163L166.183 31.8521L157.561 36.0653V40.1254Z" fill="#EEA69D"/>
<path opacity="0.7" d="M128.343 37.0247V50.4606H124.441V31.3259L128.343 37.0247Z" fill="#E78376"/>
<path opacity="0.5" d="M112.802 36.2819L106.889 50.7736L103.848 48.1558L110.893 31.3259L112.802 36.2819Z" fill="#EEA69D"/>
<path d="M110.894 31.3259H114.924L122.38 50.4606H118.254L110.894 31.3259Z" fill="#DD4E3B"/>
<path d="M128.947 31.3259L137.541 44.3987V50.4606L124.441 31.3259H128.947Z" fill="#DD4E3B"/>
<path d="M148.963 31.3259H144.901V50.4639H148.963V31.3259Z" fill="#DD4E3B"/>
<path d="M157.561 34.8164H151.31V31.3259H165.871L167.936 34.8164H161.653H157.561Z" fill="#DD4E3B"/>
<path opacity="0.5" d="M179.927 43.1997V50.4605H175.896V43.1997" fill="#EEA69D"/>
<path d="M175.896 43.1997L182.717 31.3259H186.999L179.927 43.1997H175.896Z" fill="#DD4E3B"/>
<path opacity="0.7" d="M175.896 43.1997L168.885 31.3259H173.296L178.045 39.4627L175.896 43.1997Z" fill="#E78376"/>
<path d="M88.7173 33.5342C88.7173 36.1987 90.3921 37.7841 93.7451 38.6201L97.2982 39.4294C100.471 40.1455 102.404 41.9241 102.404 44.8218C102.429 46.0841 102.011 47.3165 101.221 48.3122C101.221 45.4213 99.6985 43.8592 96.0268 42.9199L92.5381 42.1406C89.7445 41.5144 87.5883 40.0523 87.5883 36.9048C87.5736 35.6893 87.9708 34.5036 88.7173 33.5342Z" fill="#DD4E3B"/>
<path opacity="0.7" d="M137.542 43.4162V31.3259H141.444V50.4606H137.542V43.4162Z" fill="#E78376"/>
<path opacity="0.7" d="M99.0373 44.1122C100.553 45.0647 101.217 46.397 101.217 48.3088C99.9628 49.8875 97.7591 50.7735 95.1689 50.7735C90.809 50.7735 87.7577 48.6652 87.0796 45.0014H91.2666C91.8057 46.6835 93.233 47.4628 95.1384 47.4628C97.4642 47.4628 99.0101 46.2437 99.0406 44.1055" fill="#E78376"/>
<path opacity="0.7" d="M90.8939 37.4842C90.2019 37.0801 89.6342 36.4995 89.251 35.8041C88.8677 35.1086 88.6833 34.3241 88.7174 33.534C89.9277 31.9686 92.0331 31.0127 94.5996 31.0127C99.0409 31.0127 101.611 33.3175 102.245 36.5616H98.217C97.7729 35.2826 96.6609 34.2867 94.6335 34.2867C92.4671 34.2867 90.9889 35.5257 90.9041 37.4842" fill="#E78376"/>
</g>
<defs>
<clipPath id="clip0_401_915">
<rect width="100" height="19.7767" fill="white" transform="translate(87 31)"/>
</clipPath>
</defs>
</svg>
