<svg width="250" height="82" viewBox="0 0 250 82" fill="none" xmlns="http://www.w3.org/2000/svg">
<g clipPath="url(#clip0_401_106)">
<path d="M49.3887 59.3334C42.9999 61.0926 28.5924 60.2408 26.2776 60.2408H20.9258L29.7406 50.2963C32.1295 47.6112 33.4443 47.0556 36.0184 47.0556C38.5924 47.0556 44.8517 47.3149 48.2036 47.0556C52.8997 46.7834 57.4863 45.528 61.6665 43.3704C67.1295 39.9261 68.2221 37.8149 68.2221 37.8149C68.2221 37.8149 70.1665 53.6112 49.3887 59.3334Z" fill="#3363E7"/>
<path d="M67.5739 31.4258C68.5739 25.3332 65.1295 23.6665 65.1295 23.6665C65.1295 23.6665 65.3702 28.6295 56.111 29.685C48.0184 30.6109 20.9258 29.9072 20.9258 29.9072L29.648 39.9072C30.3439 40.9241 31.2824 41.7513 32.3786 42.3139C33.4747 42.8766 34.6939 43.1568 35.9258 43.1294C40.0926 43.3002 44.2658 43.2383 48.4258 42.9442C53.7262 42.6524 58.8473 40.9241 63.2406 37.9443C65.4278 36.369 66.968 34.0523 67.5739 31.4258Z" fill="#3363E7"/>
</g>
<g clipPath="url(#clip1_401_106)">
<path d="M110.398 48.75C107.703 49.4922 101.625 49.1328 100.648 49.1328H98.3906L102.109 44.9375C103.117 43.8047 103.672 43.5703 104.758 43.5703C105.844 43.5703 108.484 43.6797 109.898 43.5703C111.88 43.4554 113.815 42.9258 115.578 42.0156C117.883 40.5625 118.344 39.6719 118.344 39.6719C118.344 39.6719 119.164 46.3359 110.398 48.75Z" fill="#3363E7"/>
<path d="M118.07 36.9766C118.492 34.4062 117.039 33.7031 117.039 33.7031C117.039 33.7031 117.141 35.7969 113.234 36.2422C109.82 36.6328 98.3906 36.3359 98.3906 36.3359L102.07 40.5547C102.364 40.9837 102.76 41.3326 103.222 41.57C103.685 41.8074 104.199 41.9256 104.719 41.914C106.477 41.9861 108.237 41.96 109.992 41.8359C112.228 41.7128 114.389 40.9837 116.242 39.7266C117.165 39.062 117.815 38.0846 118.07 36.9766Z" fill="#3363E7"/>
<path d="M142.578 33.8985H144.992L138.82 49.2188H138.18L133.359 37.2266L128.484 49.2188H127.852V49.1407L121.703 33.8985H124.172L128.219 44.0548L132.305 33.8985H134.5L138.602 44.0548L142.578 33.8985ZM147.312 49.1563H149.711V33.8985H147.312V49.1563ZM159.203 40.8594L157.562 39.8907C156.983 39.5693 156.456 39.1609 156 38.6797C155.704 38.3542 155.538 37.9319 155.531 37.4922C155.531 37.2649 155.588 37.0412 155.697 36.8418C155.807 36.6424 155.965 36.4738 156.156 36.3516C156.646 36.0284 157.226 35.8671 157.812 35.8907C158.455 35.9131 159.087 36.0627 159.672 36.3309C160.257 36.5991 160.782 36.9806 161.219 37.4532L161.43 37.6563V34.8204L161.375 34.7813C160.335 34.0705 159.103 33.6943 157.844 33.7032C156.647 33.6511 155.476 34.0593 154.57 34.8438C154.154 35.2156 153.824 35.674 153.604 36.1869C153.384 36.6998 153.279 37.2547 153.297 37.8125C153.29 38.5789 153.525 39.3279 153.969 39.9532C154.582 40.7279 155.341 41.3755 156.203 41.8594L157.836 42.8516C159.102 43.6329 159.75 44.4766 159.75 45.3438C159.755 45.5961 159.701 45.846 159.592 46.0738C159.484 46.3016 159.324 46.5011 159.125 46.6563C158.682 47.0102 158.129 47.1982 157.562 47.1876C156.788 47.1581 156.032 46.9478 155.353 46.5733C154.675 46.1989 154.094 45.6708 153.656 45.0313L153.43 44.7501V47.8751H153.484C154.64 48.7902 156.065 49.3007 157.539 49.3282C158.725 49.3755 159.883 48.9577 160.766 48.1641C161.177 47.7783 161.502 47.3089 161.717 46.7875C161.933 46.266 162.035 45.7046 162.016 45.1407C162.016 43.4141 161.07 41.9688 159.203 40.8594ZM163.797 36.0469H168.328V49.1563H170.734V36.0469H175.352V33.875H163.797V36.0469ZM177.953 49.1641H180.352V33.8985H177.953V49.1641ZM197.727 49.1641H195.266L193.266 44.7188H187.016L185.109 49.1563H182.625L182.703 48.9844L189.211 33.8125H190.883L197.727 49.1641ZM190.031 37.5547L187.969 42.5469H192.258L190.031 37.5547Z" fill="#3363E7"/>
</g>
<defs>
<clipPath id="clip0_401_106">
<rect width="50" height="38.8889" fill="white" transform="translate(20 22)"/>
</clipPath>
<clipPath id="clip1_401_106">
<rect width="100" height="16.4062" fill="white" transform="translate(98 33)"/>
</clipPath>
</defs>
</svg>
