<svg width="250" height="82" viewBox="0 0 250 82" fill="none" xmlns="http://www.w3.org/2000/svg">
<g clipPath="url(#clip0_401_2212)">
<path d="M26.7441 26.8369H21.0474V54.7508H26.7441V26.8369Z" fill="black"/>
<path d="M39.0903 16.2012H33.3936V37.4689H39.0903V16.2012Z" fill="black"/>
<path d="M39.0903 44.1191H33.3936V65.3869H39.0903V44.1191Z" fill="#31D891"/>
<path d="M51.4306 26.8369H45.7339V54.7508H51.4306V26.8369Z" fill="#31D891"/>
</g>
<g clipPath="url(#clip1_401_2212)">
<path d="M105.237 30.4146H100.813V52.0889H105.237V30.4146Z" fill="black"/>
<path d="M114.823 22.1562H110.4V38.67H114.823V22.1562Z" fill="black"/>
<path d="M114.823 43.8336H110.4V60.3474H114.823V43.8336Z" fill="#31D891"/>
<path d="M124.405 30.4146H119.981V52.0889H124.405V30.4146Z" fill="#31D891"/>
<path d="M149.382 52.0752V42.45H138.321V52.0752H135.326V30.4099H138.321V39.6693H149.382V30.4099H152.378V52.0752H149.382Z" fill="black"/>
<path d="M168.52 47.8876C167.695 50.4851 165.341 52.5319 161.922 52.5319C157.981 52.5319 154.527 49.6603 154.527 44.6795C154.527 40.0652 157.857 36.9172 161.555 36.9172C166.078 36.9172 168.614 40.0337 168.614 44.6186C168.615 44.9252 168.595 45.2315 168.553 45.535H157.487C157.548 48.1625 159.443 49.9997 161.917 49.9997C164.301 49.9997 165.493 48.6861 166.043 47.035L168.52 47.8876ZM165.615 43.2125C165.554 41.1041 164.179 39.4545 161.582 39.4545C159.169 39.4545 157.702 41.3182 157.579 43.2125H165.615Z" fill="black"/>
<path d="M174.494 43.6718L178.466 43.0918C179.353 42.9687 179.597 42.5105 179.597 41.9921C179.597 40.5567 178.65 39.3646 176.42 39.3646C174.403 39.3646 173.272 40.6175 173.088 42.3294L170.339 41.6872C170.644 38.8756 173.18 36.9219 176.358 36.9219C180.757 36.9219 182.47 39.4276 182.47 42.3V49.6613C182.46 50.4695 182.521 51.2772 182.652 52.0747H179.842C179.73 51.4187 179.678 50.7535 179.689 50.088C179.048 51.1282 177.58 52.5329 174.953 52.5329C171.958 52.5329 170.032 50.4553 170.032 48.1342C170.032 45.5053 171.958 44.0382 174.494 43.6718ZM179.597 45.7801V45.1086L175.105 45.7801C173.883 45.9642 172.966 46.6658 172.966 47.9795C172.966 49.0792 173.883 50.118 175.35 50.118C177.702 50.1195 179.597 48.9883 179.597 45.7801Z" fill="black"/>
<path d="M185.179 57.8817V37.3771H187.96V39.6696C188.755 38.2034 190.497 37.0414 192.88 37.0414C197.279 37.0414 199.633 40.4335 199.633 44.7113C199.633 49.0814 197.096 52.4728 192.788 52.4728C190.527 52.4728 188.816 51.4039 188.023 50.0887V57.8817H185.179ZM192.36 39.578C189.733 39.578 187.991 41.7773 187.991 44.7097C187.991 47.7347 189.733 49.9047 192.36 49.9047C195.019 49.9047 196.7 47.7347 196.7 44.7097C196.7 41.7773 195.05 39.578 192.36 39.578Z" fill="black"/>
</g>
<defs>
<clipPath id="clip0_401_2212">
<rect width="31.8182" height="50" fill="white" transform="translate(20 16)"/>
</clipPath>
<clipPath id="clip1_401_2212">
<rect width="100" height="38.8235" fill="white" transform="translate(100 22)"/>
</clipPath>
</defs>
</svg>
