<svg width="250" height="82" viewBox="0 0 250 82" fill="none" xmlns="http://www.w3.org/2000/svg">
<g clipPath="url(#clip0_401_1003)">
<path d="M45 66C58.8071 66 70 54.8071 70 41C70 27.1929 58.8071 16 45 16C31.1929 16 20 27.1929 20 41C20 54.8071 31.1929 66 45 66Z" fill="#FF4500"/>
<path d="M61.6749 40.9999C61.6799 41.3424 61.6374 41.6843 61.5474 42.0149C61.4574 42.3455 61.3211 42.6624 61.1424 42.9549C60.9643 43.2474 60.7455 43.5136 60.493 43.7455C60.2405 43.9774 59.9568 44.1724 59.6499 44.3249C59.6568 44.4161 59.6624 44.508 59.6655 44.5999C59.673 44.7831 59.673 44.9666 59.6655 45.1499C59.6624 45.2418 59.6568 45.3336 59.6499 45.4249C59.6499 51.0249 53.1249 55.5749 45.0749 55.5749C37.0249 55.5749 30.4999 51.0249 30.4999 45.4249C30.493 45.3336 30.4874 45.2418 30.4843 45.1499C30.4767 44.9666 30.4767 44.7831 30.4843 44.5999C30.4874 44.508 30.493 44.4161 30.4999 44.3249C30.0191 44.1039 29.5921 43.7811 29.2484 43.3788C28.9047 42.9764 28.6525 42.5043 28.5093 41.9949C28.3663 41.4853 28.3358 40.9507 28.42 40.4281C28.5042 39.9056 28.701 39.4076 28.9968 38.9686C29.2923 38.5298 29.6798 38.1605 30.1323 37.8863C30.5848 37.6122 31.0916 37.4398 31.6174 37.3811C32.1433 37.3222 32.6757 37.3783 33.1777 37.5456C33.6798 37.7128 34.1394 37.9873 34.5249 38.3499C35.2404 37.8649 35.9901 37.4323 36.768 37.0555C37.5461 36.6793 38.3505 36.3593 39.1749 36.0993C39.9993 35.8393 40.8418 35.6399 41.6949 35.5018C42.548 35.3636 43.4105 35.288 44.2749 35.2749L46.1249 26.5999C46.1455 26.4993 46.1861 26.4043 46.2443 26.3193C46.3018 26.2349 46.3761 26.1624 46.4618 26.1068C46.548 26.0511 46.6443 26.013 46.7455 25.9943C46.8461 25.9761 46.9499 25.978 47.0499 25.9999L53.1749 27.2249C53.793 26.163 55.0905 25.708 56.2361 26.1505C57.3818 26.593 58.0368 27.8024 57.7805 29.0036C57.5249 30.2049 56.4336 31.0424 55.2074 30.9793C53.9805 30.9161 52.9811 29.9711 52.8499 28.7499L47.4999 27.6249L45.8749 35.4249C46.7286 35.443 47.5805 35.523 48.423 35.6636C50.1102 35.9449 51.7479 36.4682 53.2855 37.2174C54.0535 37.5911 54.7935 38.0197 55.4999 38.4999C56.0078 38.0123 56.646 37.6821 57.3374 37.5493C58.0288 37.4159 58.7441 37.4856 59.3968 37.7499C60.0495 38.014 60.6119 38.4614 61.0161 39.038C61.4204 39.6147 61.6492 40.2961 61.6749 40.9999ZM36.8649 44.4568C36.9911 44.7599 37.1749 45.0355 37.4074 45.2674C37.6393 45.4999 37.9149 45.6836 38.218 45.8099C38.5214 45.9354 38.8466 45.9999 39.1749 45.9999C40.1861 45.9999 41.0974 45.3905 41.4849 44.4568C41.8718 43.5224 41.6574 42.4474 40.9424 41.7324C40.2274 41.0174 39.1524 40.803 38.218 41.1899C37.2843 41.5774 36.6749 42.4886 36.6749 43.4999C36.6749 43.828 36.7393 44.153 36.8649 44.4568ZM51.1836 50.458C51.3118 50.333 51.3849 50.1624 51.3874 49.9836C51.3899 49.8043 51.3205 49.6318 51.1955 49.5036C51.0705 49.3755 50.8999 49.3024 50.7211 49.2999C50.5418 49.2974 50.3693 49.3668 50.2249 49.4749C49.849 49.7445 49.4509 49.9818 49.0349 50.1843C48.6189 50.3868 48.1865 50.5538 47.7424 50.6836C47.2986 50.813 46.8443 50.9049 46.3849 50.958C45.9249 51.0111 45.4618 51.0249 44.9999 50.9999C44.5386 51.0205 44.0761 51.0018 43.618 50.9443C43.1598 50.8873 42.7073 50.7911 42.2655 50.6568C41.823 50.523 41.3936 50.3518 40.9805 50.1455C40.5674 49.9393 40.1724 49.698 39.7999 49.4249C39.6705 49.3186 39.5061 49.2643 39.3386 49.2724C39.1711 49.2805 39.013 49.3511 38.8943 49.4693C38.7761 49.588 38.7055 49.7461 38.6974 49.9136C38.6893 50.0811 38.7436 50.2455 38.8499 50.3749C39.2893 50.7061 39.7561 50.9986 40.2455 51.2499C40.7349 51.5011 41.2455 51.7093 41.7705 51.873C42.2955 52.0368 42.8336 52.1549 43.3793 52.2268C43.9249 52.298 44.4755 52.3224 45.0249 52.2999C45.5743 52.3224 46.1249 52.298 46.6705 52.2268C47.7633 52.083 48.8233 51.7526 49.8043 51.2499C50.2936 50.9986 50.7605 50.7061 51.1999 50.3749L51.1836 50.458ZM50.7249 46.1999C51.0636 46.2036 51.3999 46.138 51.713 46.008C52.0261 45.8774 52.3093 45.6849 52.5455 45.4418C52.7818 45.1986 52.9655 44.9099 53.0868 44.593C53.2081 44.2765 53.2636 43.9386 53.2499 43.5999C53.2499 42.5886 52.6405 41.6774 51.7068 41.2899C50.7724 40.903 49.6974 41.1174 48.9824 41.8324C48.2674 42.5474 48.053 43.6224 48.4399 44.5568C48.8274 45.4905 49.7386 46.0999 50.7499 46.0999L50.7249 46.1999Z" fill="white"/>
</g>
<g clipPath="url(#clip1_401_1003)">
<path d="M196.226 38.0246C197.428 38.0246 198.403 37.0501 198.403 35.848C198.403 34.6459 197.428 33.6714 196.226 33.6714C195.024 33.6714 194.049 34.6459 194.049 35.848C194.049 37.0501 195.024 38.0246 196.226 38.0246Z" fill="#FF4500"/>
<path d="M165.138 45.1293C166.205 45.1293 166.821 44.3284 166.78 43.5481C166.76 43.1375 166.719 42.8705 166.678 42.6652C166.021 39.8315 163.721 37.7371 160.99 37.7371C157.746 37.7371 155.117 40.6734 155.117 44.2874C155.117 47.9014 157.746 50.8377 160.99 50.8377C163.023 50.8377 164.481 50.0985 165.528 48.928C166.041 48.3531 165.939 47.4701 165.323 47.0389C164.809 46.6899 164.173 46.8131 163.7 47.2032C163.249 47.5933 162.386 48.3736 160.99 48.3736C159.347 48.3736 157.951 46.9568 157.643 45.0882H165.138V45.1293ZM160.969 40.2217C162.448 40.2217 163.721 41.3716 164.193 42.9527H157.746C158.218 41.351 159.491 40.2217 160.969 40.2217Z" fill="#222222"/>
<path d="M155.24 39.0308C155.24 38.4147 154.788 37.9219 154.213 37.8193C152.427 37.5523 150.743 38.2094 149.778 39.4209V39.2566C149.778 38.4969 149.162 38.0246 148.546 38.0246C147.868 38.0246 147.314 38.579 147.314 39.2566V49.3183C147.314 49.9754 147.807 50.5503 148.464 50.5914C149.183 50.6324 149.778 50.078 149.778 49.3593V44.1642C149.778 41.8644 151.503 39.9753 153.885 40.2423C153.967 40.2423 154.049 40.2423 154.131 40.2423C154.747 40.2012 155.24 39.6673 155.24 39.0308Z" fill="#222222"/>
<path d="M197.458 40.3451C197.458 39.6675 196.903 39.113 196.226 39.113C195.548 39.113 194.994 39.6675 194.994 40.3451C194.994 40.3861 194.994 48.9693 194.994 49.3595C194.994 50.0371 195.548 50.5915 196.226 50.5915C196.903 50.5915 197.458 50.0371 197.458 49.3595C197.458 48.9899 197.458 40.4067 197.458 40.3451Z" fill="#222222"/>
<path d="M179.142 33.5277C179.142 32.8501 178.587 32.2957 177.909 32.2957C177.232 32.2957 176.677 32.8501 176.677 33.5277V39.0102C175.836 38.1683 174.788 37.7577 173.536 37.7577C170.291 37.7577 167.663 40.694 167.663 44.308C167.663 47.922 170.291 50.8583 173.536 50.8583C174.788 50.8583 175.856 50.4271 176.698 49.5852C176.801 50.1602 177.314 50.5914 177.909 50.5914C178.587 50.5914 179.142 50.0369 179.142 49.3593V33.5277ZM173.556 48.4148C171.667 48.4148 170.148 46.5873 170.148 44.308C170.148 42.0492 171.667 40.2012 173.556 40.2012C175.445 40.2012 176.965 42.0287 176.965 44.308C176.965 46.5873 175.425 48.4148 173.556 48.4148Z" fill="#222222"/>
<path d="M191.996 33.5277C191.996 32.8501 191.442 32.2957 190.764 32.2957C190.086 32.2957 189.532 32.8501 189.532 33.5277V39.0102C188.69 38.1683 187.643 37.7577 186.39 37.7577C183.146 37.7577 180.518 40.694 180.518 44.308C180.518 47.922 183.146 50.8583 186.39 50.8583C187.643 50.8583 188.711 50.4271 189.552 49.5852C189.655 50.1602 190.169 50.5914 190.764 50.5914C191.442 50.5914 191.996 50.0369 191.996 49.3593V33.5277ZM186.39 48.4148C184.501 48.4148 182.982 46.5873 182.982 44.308C182.982 42.0492 184.501 40.2012 186.39 40.2012C188.279 40.2012 189.799 42.0287 189.799 44.308C189.799 46.5873 188.279 48.4148 186.39 48.4148Z" fill="#222222"/>
<path d="M203.7 49.3798V40.2216H204.788C205.363 40.2216 205.877 39.7904 205.918 39.1949C205.959 38.5584 205.445 38.0245 204.829 38.0245H203.7V36.2997C203.7 35.6426 203.207 35.0676 202.55 35.0266C201.831 34.9855 201.236 35.5399 201.236 36.2586V38.045H200.209C199.634 38.045 199.121 38.4762 199.08 39.0717C199.039 39.7083 199.552 40.2422 200.168 40.2422H201.215V49.4003C201.215 50.0779 201.77 50.6323 202.448 50.6323C203.166 50.5913 203.7 50.0574 203.7 49.3798Z" fill="#222222"/>
<path d="M123.207 58.4148C132.711 58.4148 140.415 50.7107 140.415 41.2074C140.415 31.704 132.711 24 123.207 24C113.704 24 106 31.704 106 41.2074C106 50.7107 113.704 58.4148 123.207 58.4148Z" fill="#FF4500"/>
<path d="M134.686 41.2073C134.686 39.811 133.556 38.7021 132.181 38.7021C131.503 38.7021 130.887 38.9691 130.435 39.4003C128.71 38.1683 126.349 37.3674 123.721 37.2648L124.871 31.8849L128.608 32.6857C128.649 33.6303 129.429 34.39 130.394 34.39C131.38 34.39 132.181 33.5892 132.181 32.6036C132.181 31.618 131.38 30.8171 130.394 30.8171C129.696 30.8171 129.08 31.2278 128.793 31.8233L124.624 30.9403C124.501 30.9198 124.378 30.9403 124.296 31.0019C124.193 31.0635 124.131 31.1662 124.111 31.2894L122.838 37.2853C120.168 37.3674 117.766 38.1683 116.021 39.4208C115.569 38.9896 114.953 38.7227 114.275 38.7227C112.879 38.7227 111.77 39.852 111.77 41.2278C111.77 42.2545 112.386 43.1169 113.248 43.5071C113.207 43.7535 113.187 43.9999 113.187 44.2668C113.187 48.1272 117.684 51.2689 123.228 51.2689C128.772 51.2689 133.269 48.1477 133.269 44.2668C133.269 44.0204 133.248 43.7535 133.207 43.5071C134.07 43.1169 134.686 42.234 134.686 41.2073ZM117.478 42.9937C117.478 42.0081 118.279 41.2073 119.265 41.2073C120.251 41.2073 121.051 42.0081 121.051 42.9937C121.051 43.9794 120.251 44.7802 119.265 44.7802C118.279 44.8007 117.478 43.9794 117.478 42.9937ZM127.478 47.7371C126.246 48.9691 123.906 49.0512 123.228 49.0512C122.53 49.0512 120.189 48.9486 118.977 47.7371C118.793 47.5523 118.793 47.2648 118.977 47.08C119.162 46.8952 119.45 46.8952 119.634 47.08C120.415 47.8603 122.057 48.1272 123.228 48.1272C124.398 48.1272 126.062 47.8603 126.821 47.08C127.006 46.8952 127.294 46.8952 127.478 47.08C127.643 47.2648 127.643 47.5523 127.478 47.7371ZM127.15 44.8007C126.164 44.8007 125.363 43.9999 125.363 43.0143C125.363 42.0286 126.164 41.2278 127.15 41.2278C128.136 41.2278 128.936 42.0286 128.936 43.0143C128.936 43.9794 128.136 44.8007 127.15 44.8007Z" fill="white"/>
</g>
<defs>
<clipPath id="clip0_401_1003">
<rect width="50" height="50" fill="white" transform="translate(20 16)"/>
</clipPath>
<clipPath id="clip1_401_1003">
<rect width="100" height="34.4969" fill="white" transform="translate(106 24)"/>
</clipPath>
</defs>
</svg>
