<svg width="250" height="82" viewBox="0 0 250 82" fill="none" xmlns="http://www.w3.org/2000/svg">
<g clipPath="url(#clip0_401_2974)">
<path d="M60.625 16H29.375C24.1973 16 20 20.1973 20 25.375V56.625C20 61.8027 24.1973 66 29.375 66H60.625C65.8027 66 70 61.8027 70 56.625V25.375C70 20.1973 65.8027 16 60.625 16Z" fill="url(#paint0_linear_401_2974)"/>
<path d="M44.5548 56.4675C38.5047 55.697 34.2741 51.734 32.7502 45.3933C32.6137 44.8209 32.5 42.8834 32.5 41.1001C32.5 37.2252 32.9322 35.3317 34.3651 32.6237C36.0937 29.3653 39.1188 26.9655 42.8034 25.9307C45.169 25.2702 49.9227 25.1822 52.2882 25.7546C53.6301 26.0848 56.9509 27.4939 57.1556 27.8241C57.201 27.8902 57.1556 28.5507 57.0419 29.2773C56.4505 33.086 56.223 34.4731 56.0866 34.5832C56.0184 34.6492 55.2678 34.297 54.4034 33.8126C52.4473 32.6457 51.0372 32.2274 48.7399 32.0954C43.5313 31.7651 40.4608 35.0675 40.4608 40.9679C40.4608 44.3805 41.2114 46.406 43.0309 48.0353C45.1234 49.9066 47.8074 50.501 50.9234 49.7746C52.5611 49.4003 53.5619 48.9599 55.1085 48.0132C55.7909 47.5949 56.4278 47.3307 56.4959 47.4408C56.6097 47.6169 57.1556 50.7653 57.4513 52.8789C57.565 53.7816 57.565 53.8035 56.4733 54.486C53.7211 56.1593 48.6945 56.996 44.5548 56.4675Z" fill="white"/>
</g>
<g clipPath="url(#clip1_401_2974)">
<path d="M170.887 43.8599V36.3199H172.036C173.161 36.3199 173.184 36.3199 173.216 36.5023C173.24 36.5975 173.303 36.9067 173.359 37.1921L173.461 37.6995L174 37.2079C174.982 36.3279 175.941 36.0108 177.224 36.1534C178.911 36.3437 180.099 37.5092 180.598 39.4596C180.756 40.1098 180.788 40.4111 180.788 41.4655C180.78 43.7014 180.273 45.1364 179.093 46.1988C177.984 47.2058 176.44 47.5467 174.649 47.1899C174.261 47.1106 173.873 47.0155 173.802 46.9838C173.667 46.9283 173.66 47.0551 173.66 48.9104C173.66 50.0045 173.628 50.9163 173.588 50.9401C173.525 50.9797 173.248 51.0273 171.957 51.2255C171.695 51.2651 171.347 51.3206 171.188 51.3524L170.887 51.4079V43.8599ZM176.265 44.9858C176.994 44.7559 177.493 44.2009 177.833 43.2415C178.04 42.6786 178.031 40.7361 177.826 40.1018C177.636 39.4914 177.271 39.0315 176.788 38.7857C175.957 38.3496 175.006 38.6113 174.119 39.5072L173.66 39.9829V42.3139V44.6369L173.905 44.7717C174.222 44.9303 175.022 45.1047 175.489 45.1127C175.695 45.1206 176.044 45.0571 176.265 44.9858Z" fill="black"/>
<path d="M96.1978 47.3405C94.091 47.063 92.6178 45.6359 92.0871 43.3524C92.0396 43.1463 92 42.4486 92 41.8064C92 40.411 92.1505 39.7291 92.6495 38.7539C93.2514 37.5805 94.3048 36.7163 95.588 36.3437C96.4117 36.1058 98.067 36.0741 98.8907 36.2802C99.3581 36.3992 100.514 36.9066 100.586 37.0255C100.602 37.0493 100.586 37.2872 100.546 37.5488C100.34 38.9204 100.261 39.4199 100.213 39.4596C100.19 39.4834 99.9283 39.3565 99.6273 39.1821C98.9462 38.7619 98.4551 38.6112 97.6552 38.5637C95.8414 38.4447 94.7721 39.634 94.7721 41.7588C94.7721 42.9878 95.0335 43.7172 95.6671 44.3039C96.3958 44.9778 97.3304 45.1919 98.4155 44.9302C98.9858 44.7954 99.3343 44.6369 99.8729 44.2959C100.111 44.1453 100.332 44.0502 100.356 44.0898C100.396 44.1532 100.586 45.287 100.689 46.0482C100.728 46.3732 100.728 46.3812 100.348 46.6269C99.3897 47.2295 97.6393 47.5308 96.1978 47.3405Z" fill="black"/>
<path d="M111.952 47.3405C111.318 47.2375 110.558 46.9679 110.138 46.6983C109.773 46.4684 109.061 45.7945 108.831 45.4615C108.57 45.0809 108.237 44.3198 108.079 43.7489C107.849 42.8689 107.849 40.7361 108.079 39.8957C108.585 38.088 109.766 36.7877 111.35 36.312C111.769 36.1852 112.118 36.1534 112.894 36.1455C113.789 36.1455 113.963 36.1693 114.494 36.3596C115.904 36.867 116.838 37.9294 117.266 39.5072C117.448 40.2049 117.591 41.5448 117.528 42.0047L117.48 42.3456L114.066 42.3615L110.653 42.3852L110.676 42.7817C110.724 43.8599 111.453 44.8272 112.419 45.1285C113.013 45.3029 113.948 45.3108 114.637 45.1364C115.27 44.9699 116.347 44.4863 116.791 44.1533C117.108 43.9234 117.235 44.0027 117.29 44.4625C117.314 44.6686 117.377 45.1285 117.425 45.4773C117.512 46.0879 117.504 46.1116 117.33 46.2464C116.87 46.5873 116.031 46.96 115.167 47.1978C114.526 47.3722 112.664 47.4515 111.952 47.3405ZM114.811 40.4269C114.811 40.1415 114.613 39.4834 114.423 39.1187C114.058 38.3972 113.512 38.0642 112.72 38.0642C111.777 38.0642 110.851 39.0473 110.716 40.189L110.669 40.6013H112.744H114.811V40.4269Z" fill="black"/>
<path d="M121.226 47.3486C120.347 47.1583 119.555 46.5081 119.238 45.7074C118.969 45.0414 118.969 43.7094 119.238 43.0354C119.499 42.3615 120.204 41.64 120.933 41.2833C122.01 40.7679 122.826 40.5538 125.028 40.2288L125.464 40.1574L125.456 39.7134C125.44 38.762 124.909 38.3814 123.61 38.3814C122.739 38.3814 122.137 38.5004 121.091 38.8651C120.133 39.206 120.094 39.206 120.022 38.8175C119.864 37.9771 119.737 37.0732 119.777 37.0098C119.856 36.875 121.139 36.4707 122.089 36.2725C122.881 36.106 125.131 36.106 125.772 36.2725C127.238 36.661 127.998 37.4538 128.196 38.8175C128.236 39.1267 128.275 41.085 128.275 43.2812V47.182H127.103H125.923L125.836 46.7777C125.78 46.5557 125.741 46.2941 125.741 46.1831C125.741 45.9373 125.582 45.9373 125.345 46.191C125.036 46.524 124.315 46.9601 123.761 47.1662C123.365 47.3168 123.048 47.3644 122.375 47.3882C121.899 47.3961 121.377 47.3882 121.226 47.3486ZM124.331 45.0255C124.576 44.9145 124.941 44.6687 125.139 44.4864L125.503 44.1454V42.9958V41.8462L125.091 41.9017C123.737 42.0761 122.478 42.6232 122.082 43.2099C121.606 43.8917 121.693 44.6846 122.28 45.1048C122.509 45.2713 122.604 45.2871 123.206 45.2634C123.729 45.2396 123.982 45.192 124.331 45.0255Z" fill="black"/>
<path d="M141.225 47.3406C140.584 47.2454 139.475 46.9124 138.841 46.627C138.334 46.3971 138.327 46.3891 138.366 46.1354C138.619 44.5576 138.683 44.2009 138.738 44.1374C138.77 44.1057 139.007 44.2009 139.261 44.3515C140.275 44.9699 141.328 45.2791 142.493 45.3029C143.237 45.3188 143.419 45.295 143.736 45.1444C144.187 44.9382 144.394 44.6448 144.394 44.2009C144.394 43.5745 143.895 43.2257 142.453 42.8451C139.974 42.1949 139.158 41.6955 138.707 40.5458C138.564 40.1811 138.508 38.9205 138.612 38.5003C138.865 37.4933 139.728 36.6609 140.861 36.3199C141.558 36.1138 143.649 36.09 144.488 36.2803C145.178 36.4389 146.239 36.7877 146.295 36.8749C146.318 36.9146 146.302 37.1762 146.255 37.4616C146.215 37.7471 146.136 38.2228 146.096 38.5161C146.049 38.8095 145.985 39.0791 145.946 39.1187C145.906 39.1583 145.685 39.087 145.455 38.9681C144.18 38.3259 142.453 38.0325 141.716 38.3417C141.075 38.6033 140.901 39.2773 141.352 39.7133C141.574 39.9354 142.746 40.4428 143.031 40.4428C143.213 40.4428 144.695 40.9185 145.098 41.1008C146.405 41.7034 146.968 42.5518 146.968 43.9472C146.968 45.6518 146.12 46.7697 144.473 47.2216C143.91 47.3723 141.938 47.4436 141.225 47.3406Z" fill="black"/>
<path d="M152.789 47.3643C152.33 47.3167 151.427 47.0393 150.967 46.8014C150.342 46.4922 149.423 45.5091 149.082 44.8034C148.591 43.7807 148.512 43.3525 148.512 41.8302C148.52 40.308 148.607 39.8243 149.067 38.8809C149.724 37.5409 150.809 36.6609 152.282 36.2803C152.963 36.0979 154.666 36.1059 155.363 36.2803C155.902 36.423 156.971 36.8829 157.05 37.0097C157.106 37.1049 156.789 39.3486 156.702 39.4438C156.67 39.4834 156.543 39.4358 156.417 39.3565C155.712 38.8491 154.761 38.5399 153.946 38.5399C152.258 38.5399 151.245 39.7609 151.245 41.7985C151.245 43.3525 151.87 44.407 153.042 44.8589C154.017 45.2316 155.355 44.9858 156.433 44.2484L156.789 44.0027L156.86 44.185C157.011 44.5497 157.217 46.2385 157.13 46.3812C157.011 46.5715 156.116 47.0076 155.466 47.182C154.896 47.3406 153.431 47.4436 152.789 47.3643Z" fill="black"/>
<path d="M162.571 47.3486C162.04 47.2455 161.248 46.9601 160.915 46.7539C160.401 46.4289 159.735 45.755 159.442 45.2713C158.737 44.1138 158.5 43.1148 158.555 41.5132C158.595 40.2447 158.706 39.7452 159.173 38.8096C159.751 37.6362 160.749 36.764 161.977 36.3597C162.515 36.1853 162.745 36.1536 163.64 36.1536C164.535 36.1536 164.749 36.1773 165.287 36.3518C166.88 36.883 167.98 38.0485 168.519 39.8086C168.685 40.3319 168.709 40.5697 168.709 41.7511C168.709 42.9245 168.685 43.1782 168.527 43.7332C168.036 45.422 166.943 46.6192 165.422 47.1424C164.947 47.3089 164.638 47.3565 163.878 47.3803C163.355 47.3961 162.769 47.3803 162.571 47.3486ZM164.4 45.0335C165.089 44.859 165.755 43.9314 165.977 42.8452C166.119 42.1554 166.04 40.8552 165.826 40.1812C165.485 39.1426 164.701 38.4687 163.743 38.3973C163.125 38.3498 162.365 38.659 162.024 39.0871C161.454 39.8086 161.264 40.4904 161.264 41.7907C161.264 42.6153 161.296 42.8769 161.446 43.3368C161.961 44.859 162.911 45.4061 164.4 45.0335Z" fill="black"/>
<path d="M186.57 47.3721C185.991 47.2929 185.009 46.9361 184.589 46.6506C182.997 45.5724 182.269 43.7885 182.395 41.3148C182.459 40.1889 182.593 39.6656 183.053 38.7063C183.623 37.5408 184.51 36.7638 185.746 36.3595C186.269 36.185 186.522 36.1533 187.322 36.1533C188.843 36.1454 189.754 36.4942 190.633 37.4219C191.552 38.405 191.979 39.6101 191.987 41.2751L191.995 42.3058L188.573 42.3296L185.144 42.3455V42.6309C185.144 43.0432 185.35 43.6933 185.619 44.1135C186.427 45.398 188.344 45.6517 190.244 44.724C190.601 44.5575 191.053 44.3197 191.258 44.1928C191.465 44.0739 191.654 44.0025 191.686 44.0263C191.765 44.1056 192.027 45.9926 191.979 46.1194C191.916 46.2939 190.403 47.0074 189.738 47.1898C189.152 47.3484 187.227 47.4594 186.57 47.3721ZM189.302 40.5219C189.373 40.403 189.199 39.6973 188.985 39.2137C188.779 38.7539 188.304 38.2782 187.924 38.1513C186.72 37.7549 185.603 38.5477 185.231 40.07C185.184 40.2762 185.16 40.4823 185.184 40.5299C185.255 40.6329 189.239 40.625 189.302 40.5219Z" fill="black"/>
<path d="M102.898 45.1741C102.875 45.1037 102.851 42.4284 102.851 39.2216C102.851 32.8563 102.827 33.2211 103.294 32.9084C103.397 32.8395 103.793 32.5346 104.174 32.2233C104.562 31.9025 105.037 31.5098 105.251 31.3316L105.623 31.0262V39.087V47.1558H104.237H102.898V45.1741Z" fill="black"/>
<path d="M130.889 41.7508V36.3198H132.038C133.162 36.3198 133.186 36.3198 133.226 36.5022C133.242 36.5973 133.321 37.0175 133.392 37.4298C133.455 37.8421 133.535 38.2068 133.559 38.2464C133.582 38.2861 133.717 38.1434 133.859 37.9293C134.16 37.4853 134.984 36.6925 135.348 36.5101C135.871 36.2326 136.861 36.0423 136.98 36.1929C137.035 36.2643 137.336 38.0086 137.408 38.6587C137.424 38.7856 137.36 38.8252 137.067 38.8807C135.816 39.1106 134.936 39.5705 134.168 40.3871L133.661 40.9184L133.646 44.0342L133.622 47.1422L132.26 47.166L130.889 47.1819V41.7508Z" fill="black"/>
</g>
<defs>
<linearGradient id="paint0_linear_401_2974" x1="21.5625" y1="19.125" x2="68.4375" y2="66" gradientUnits="userSpaceOnUse">
<stop stopColor="#DEBF4B"/>
<stop offset="0.192708" stopColor="#6FAA72"/>
<stop offset="0.657004" stopColor="#4967BD"/>
</linearGradient>
<clipPath id="clip0_401_2974">
<rect width="50" height="50" fill="white" transform="translate(20 16)"/>
</clipPath>
<clipPath id="clip1_401_2974">
<rect width="100" height="20.4082" fill="white" transform="translate(92 31)"/>
</clipPath>
</defs>
</svg>
