<svg width="250" height="82" viewBox="0 0 250 82" fill="none" xmlns="http://www.w3.org/2000/svg">
<g clip-path="url(#clip0_401_1052)">
<path d="M127.86 41.3346C127.898 42.0713 128.227 42.7629 128.774 43.2573C129.322 43.7516 130.044 44.0084 130.781 43.9712C131.359 43.9654 131.931 43.8371 132.456 43.5947C132.982 43.3522 133.451 43.0012 133.831 42.5648C133.854 42.5263 133.886 42.4938 133.924 42.4699C133.962 42.4461 134.005 42.4314 134.05 42.4272C134.095 42.423 134.14 42.4294 134.182 42.4458C134.224 42.4621 134.261 42.4881 134.291 42.5216L135.345 43.6619C135.382 43.6894 135.412 43.7243 135.434 43.7641C135.456 43.804 135.469 43.848 135.473 43.8934C135.477 43.9387 135.472 43.9844 135.457 44.0276C135.443 44.0707 135.419 44.1103 135.388 44.1439C135.169 44.5036 133.655 46.4281 130.536 46.4281C127.417 46.4281 124.849 44.3633 124.849 40.8525C124.831 40.1301 124.958 39.4114 125.222 38.739C125.487 38.0666 125.884 37.4542 126.39 36.9382C126.896 36.4222 127.501 36.0131 128.168 35.7351C128.834 35.4572 129.551 35.3161 130.273 35.3202C133.698 35.3202 135.41 37.3849 135.41 40.9856C135.41 41.081 135.372 41.1725 135.305 41.24C135.237 41.3074 135.146 41.3453 135.05 41.3453H127.856L127.86 41.3346ZM132.626 39.6439C132.583 38.6331 131.946 37.6223 130.385 37.6223C129.111 37.6223 128.144 38.259 127.903 39.6439H132.622H132.626Z" fill="#018EF5"/>
<path d="M181.324 41.295C181.343 41.6601 181.434 42.0179 181.592 42.3479C181.749 42.6779 181.971 42.9735 182.242 43.218C182.514 43.4626 182.832 43.6511 183.177 43.7729C183.521 43.8948 183.887 43.9475 184.252 43.9281C184.831 43.9222 185.402 43.7939 185.928 43.5515C186.453 43.3091 186.922 42.9581 187.302 42.5216C187.326 42.4831 187.358 42.4507 187.395 42.4268C187.433 42.4029 187.477 42.3882 187.522 42.384C187.566 42.3799 187.612 42.3862 187.653 42.4026C187.695 42.419 187.733 42.4449 187.763 42.4784L188.817 43.6187C188.853 43.6463 188.883 43.6811 188.905 43.7209C188.927 43.7608 188.941 43.8048 188.945 43.8502C188.949 43.8955 188.943 43.9413 188.928 43.9844C188.914 44.0276 188.891 44.0672 188.86 44.1007C188.64 44.4604 187.126 46.3849 184.007 46.3849C180.888 46.3849 178.32 44.3202 178.32 40.8094C178.304 40.089 178.433 39.3729 178.698 38.703C178.964 38.0332 179.36 37.4233 179.865 36.9093C180.371 36.3954 180.973 35.9877 181.638 35.7104C182.303 35.4332 183.017 35.2919 183.737 35.295C187.162 35.295 188.874 37.3597 188.874 40.9604C188.874 41.0558 188.836 41.1473 188.769 41.2148C188.701 41.2822 188.61 41.3202 188.514 41.3202H181.32L181.324 41.295ZM186.086 39.6115C186.043 38.6007 185.406 37.5899 183.845 37.5899C182.572 37.5899 181.604 38.2266 181.363 39.6115H186.086Z" fill="#018EF5"/>
<path d="M145.813 46.266C145.676 46.2851 145.536 46.2722 145.405 46.2282C145.273 46.1841 145.154 46.1102 145.056 46.0123C144.958 45.9143 144.884 45.7949 144.84 45.6636C144.796 45.5322 144.783 45.3924 144.802 45.2552V44.3344H144.737C144.432 45.0826 143.55 46.4207 141.399 46.4207C138.349 46.4207 136.482 44.1365 136.482 40.8883C136.482 37.3308 138.568 35.2876 141.421 35.2876C143.507 35.2876 144.496 36.4279 144.658 36.8236H144.701V35.7912C144.697 35.7499 144.702 35.7082 144.715 35.669C144.729 35.6298 144.751 35.5942 144.781 35.5649C144.81 35.5355 144.846 35.5132 144.885 35.4994C144.924 35.4856 144.966 35.4809 145.007 35.4854H146.982C147.023 35.4828 147.064 35.4889 147.102 35.5033C147.14 35.5178 147.175 35.5402 147.204 35.5691C147.233 35.5981 147.255 35.6328 147.27 35.6711C147.284 35.7094 147.29 35.7504 147.288 35.7912V43.9279H148.108C148.148 43.9224 148.189 43.9267 148.228 43.9405C148.267 43.9543 148.301 43.9771 148.329 44.0071C148.357 44.0371 148.377 44.0733 148.388 44.1127C148.399 44.1521 148.4 44.1936 148.392 44.2336V45.9459C148.397 45.9853 148.393 46.0253 148.38 46.0631C148.368 46.1009 148.348 46.1355 148.321 46.1646C148.294 46.1937 148.261 46.2166 148.224 46.2317C148.187 46.2467 148.147 46.2535 148.108 46.2516H145.795L145.813 46.266ZM144.496 40.9099C144.496 38.8451 143.378 37.7912 141.978 37.7912C140.421 37.7912 139.367 39.0214 139.367 40.9315C139.367 42.8416 140.486 43.9818 141.978 43.9818C143.313 43.9818 144.496 42.9495 144.496 40.9063V40.9099Z" fill="#018EF5"/>
<path d="M124.148 38.0396C124.556 37.1788 125.154 36.4213 125.896 35.8238C125.921 35.7963 125.939 35.7627 125.948 35.7263C125.957 35.6899 125.956 35.6519 125.946 35.6158C125.936 35.5798 125.917 35.5469 125.89 35.5203C125.864 35.4938 125.831 35.4744 125.795 35.4641C125.302 35.3668 124.801 35.3162 124.299 35.313C120.72 35.313 119.864 38.1691 119.864 38.1691H119.777V35.7302C119.777 35.6492 119.745 35.5714 119.688 35.5141C119.63 35.4567 119.553 35.4245 119.471 35.4245H116.198C116.117 35.4245 116.039 35.4567 115.982 35.5141C115.925 35.5714 115.892 35.6492 115.892 35.7302V37.4425C115.888 37.4837 115.893 37.5255 115.906 37.5647C115.92 37.6038 115.942 37.6394 115.972 37.6688C116.001 37.6982 116.037 37.7205 116.076 37.7343C116.115 37.7481 116.157 37.7528 116.198 37.7482H117.277V43.8957H116.482C116.441 43.8897 116.398 43.8934 116.358 43.9066C116.319 43.9199 116.282 43.9423 116.253 43.9719C116.223 44.0016 116.201 44.0378 116.187 44.0777C116.174 44.1175 116.17 44.1599 116.176 44.2015V45.9137C116.174 45.9546 116.18 45.9955 116.194 46.0338C116.209 46.0721 116.231 46.1068 116.26 46.1358C116.289 46.1647 116.324 46.1872 116.362 46.2016C116.4 46.216 116.441 46.2221 116.482 46.2195H120.943C121.024 46.2195 121.101 46.1873 121.159 46.1299C121.216 46.0726 121.248 45.9948 121.248 45.9137V44.2015C121.248 44.1204 121.216 44.0426 121.159 43.9853C121.101 43.9279 121.024 43.8957 120.943 43.8957H120.184V41.2159C120.184 39.7231 121.982 38.0108 123.921 38.1943C123.97 38.1957 124.019 38.1815 124.059 38.1537C124.1 38.1259 124.131 38.086 124.148 38.0396Z" fill="#018EF5"/>
<path d="M159.594 43.8812V32.3057C159.6 32.2641 159.596 32.2217 159.583 32.1819C159.569 32.142 159.547 32.1058 159.517 32.0761C159.488 32.0464 159.452 32.0241 159.412 32.0109C159.372 31.9976 159.33 31.9939 159.288 31.9999H156.05C156.008 31.9926 155.963 31.9952 155.922 32.0076C155.88 32.0199 155.842 32.0418 155.81 32.0713C155.778 32.1008 155.753 32.1373 155.737 32.178C155.722 32.2186 155.716 32.2623 155.719 32.3057V34.0179C155.716 34.0613 155.722 34.105 155.737 34.1456C155.753 34.1862 155.778 34.2227 155.81 34.2523C155.842 34.2818 155.88 34.3036 155.922 34.316C155.963 34.3284 156.008 34.331 156.05 34.3237H156.77V35.9064C156.77 36.3668 156.813 36.8057 156.813 36.8057H156.77C156.572 36.3884 155.716 35.2481 153.741 35.2481C150.691 35.2481 148.734 37.5323 148.734 40.7589C148.734 44.338 150.82 46.3596 153.673 46.3596C155.737 46.3596 156.813 45.0215 156.989 44.5826H157.032V45.6618C157.032 45.8106 157.091 45.9534 157.197 46.0586C157.302 46.1638 157.445 46.2229 157.594 46.2229H159.14C159.258 46.2229 159.37 46.1763 159.453 46.0934C159.536 46.0104 159.583 45.8978 159.583 45.7805V43.892L159.594 43.8812ZM154.237 43.9028C152.658 43.9028 151.626 42.6294 151.626 40.7409C151.626 38.8524 152.745 37.7121 154.237 37.7121C155.576 37.7121 156.755 38.7014 156.755 40.7625C156.755 42.8237 155.666 43.9028 154.237 43.9028Z" fill="#018EF5"/>
<path d="M177.824 43.91H177.015V39.1438C177.015 36.8812 175.741 35.2805 173.371 35.2805C171 35.2805 170.252 36.7949 170.054 37.0791C169.525 35.982 168.45 35.2805 166.892 35.2805C164.453 35.2805 163.687 36.9712 163.576 37.169H163.511V35.8956C163.523 35.8306 163.518 35.7637 163.498 35.7009C163.477 35.6381 163.442 35.5813 163.394 35.5357C163.346 35.49 163.288 35.457 163.224 35.4394C163.16 35.4219 163.093 35.4204 163.029 35.4352H161.446C161.319 35.4352 161.198 35.4856 161.108 35.5753C161.018 35.6651 160.968 35.7867 160.968 35.9136V45.5755C160.968 45.6624 160.985 45.7485 161.018 45.8288C161.052 45.9091 161.1 45.982 161.162 46.0435C161.223 46.1049 161.296 46.1537 161.376 46.187C161.457 46.2202 161.543 46.2374 161.63 46.2374H164.669C164.709 46.2374 164.749 46.2294 164.786 46.2141C164.823 46.1987 164.857 46.1762 164.885 46.1478C164.914 46.1194 164.936 46.0857 164.952 46.0486C164.967 46.0115 164.975 45.9717 164.975 45.9316V44.2158C164.981 44.1742 164.977 44.1318 164.964 44.092C164.951 44.0521 164.929 44.0159 164.899 43.9862C164.869 43.9565 164.833 43.9342 164.793 43.9209C164.753 43.9077 164.711 43.904 164.669 43.91H163.907V39.2517C164.022 38.8308 164.275 38.4606 164.625 38.1999C164.975 37.9392 165.402 37.803 165.838 37.8129C167.245 37.8129 167.637 38.7338 167.637 40.0755V45.9676C167.636 46.0014 167.643 46.035 167.655 46.0664C167.668 46.0978 167.686 46.1264 167.71 46.1505C167.734 46.1746 167.762 46.1937 167.794 46.2068C167.825 46.2198 167.858 46.2266 167.892 46.2266H171.353C171.394 46.2292 171.434 46.2231 171.473 46.2087C171.511 46.1943 171.546 46.1718 171.575 46.1429C171.604 46.1139 171.626 46.0792 171.64 46.0409C171.655 46.0026 171.661 45.9616 171.658 45.9208V44.2158C171.665 44.1742 171.661 44.1318 171.648 44.092C171.634 44.0521 171.612 44.0159 171.582 43.9862C171.553 43.9565 171.516 43.9342 171.476 43.9209C171.436 43.9077 171.394 43.904 171.353 43.91H170.565V39.4963C170.554 39.3558 170.533 39.2163 170.5 39.0791C170.633 38.7042 170.88 38.3811 171.208 38.1561C171.536 37.9312 171.926 37.816 172.324 37.8273C173.709 37.8273 174.122 38.7481 174.122 40.0899V45.2266C174.122 45.4946 174.229 45.7517 174.418 45.9413C174.608 46.1308 174.865 46.2374 175.133 46.2374H177.831C177.912 46.2374 177.99 46.2051 178.047 46.1478C178.104 46.0904 178.137 46.0127 178.137 45.9316V44.2158C178.143 44.1735 178.139 44.1304 178.126 44.0899C178.112 44.0494 178.089 44.0127 178.058 43.9829C178.028 43.953 177.991 43.9308 177.95 43.9181C177.909 43.9055 177.866 43.9027 177.824 43.91Z" fill="#018EF5"/>
<path d="M108.806 34.3704H103.572C102.697 34.3701 101.847 34.6677 101.163 35.2142C100.48 35.7608 100.002 36.5236 99.8094 37.3776C99.6167 36.5236 99.1392 35.7608 98.4554 35.2142C97.7716 34.6677 96.9222 34.3701 96.0468 34.3704H90.8166C90.3396 34.3704 89.8822 34.5599 89.5449 34.8971C89.2076 35.2344 89.0181 35.6919 89.0181 36.1689V45.3776C89.0181 45.8546 89.2076 46.312 89.5449 46.6493C89.8822 46.9866 90.3396 47.1761 90.8166 47.1761H94.1764C98.0037 47.1761 99.1475 48.097 99.6943 49.9927C99.7 50.0148 99.7131 50.0344 99.7314 50.0481C99.7497 50.0618 99.7722 50.0689 99.7951 50.0682H99.8166C99.8395 50.0689 99.8619 50.0618 99.8802 50.0481C99.8986 50.0344 99.9116 50.0148 99.9173 49.9927C100.468 48.097 101.612 47.1761 105.435 47.1761H108.795C109.272 47.1761 109.73 46.9866 110.067 46.6493C110.404 46.312 110.594 45.8546 110.594 45.3776V36.1689C110.594 35.6938 110.406 35.2379 110.071 34.9009C109.736 34.564 109.281 34.3732 108.806 34.3704ZM98.0828 44.3092C98.0828 44.3262 98.0795 44.3431 98.073 44.3588C98.0665 44.3745 98.0569 44.3888 98.0449 44.4008C98.0329 44.4128 98.0186 44.4224 98.0029 44.4289C97.9872 44.4354 97.9704 44.4387 97.9533 44.4387H91.9461C91.9291 44.4387 91.9123 44.4354 91.8966 44.4289C91.8809 44.4224 91.8666 44.4128 91.8546 44.4008C91.8425 44.3888 91.833 44.3745 91.8265 44.3588C91.82 44.3431 91.8166 44.3262 91.8166 44.3092V43.4531C91.8166 43.4361 91.82 43.4193 91.8265 43.4035C91.833 43.3878 91.8425 43.3735 91.8546 43.3615C91.8666 43.3495 91.8809 43.34 91.8966 43.3335C91.9123 43.327 91.9291 43.3236 91.9461 43.3236H97.9533C97.9704 43.3236 97.9872 43.327 98.0029 43.3335C98.0186 43.34 98.0329 43.3495 98.0449 43.3615C98.0569 43.3735 98.0665 43.3878 98.073 43.4035C98.0795 43.4193 98.0828 43.4361 98.0828 43.4531V44.3092ZM98.0828 42.0286C98.0828 42.063 98.0692 42.0959 98.0449 42.1202C98.0206 42.1445 97.9877 42.1581 97.9533 42.1581H91.9461C91.9118 42.1581 91.8788 42.1445 91.8546 42.1202C91.8303 42.0959 91.8166 42.063 91.8166 42.0286V41.1725C91.8166 41.1382 91.8303 41.1052 91.8546 41.0809C91.8788 41.0567 91.9118 41.043 91.9461 41.043H97.9533C97.9877 41.043 98.0206 41.0567 98.0449 41.0809C98.0692 41.1052 98.0828 41.1382 98.0828 41.1725V42.0286ZM98.0828 39.7481C98.0828 39.7824 98.0692 39.8153 98.0449 39.8396C98.0206 39.8639 97.9877 39.8776 97.9533 39.8776H91.9461C91.9118 39.8776 91.8788 39.8639 91.8546 39.8396C91.8303 39.8153 91.8166 39.7824 91.8166 39.7481V38.892C91.8166 38.8576 91.8303 38.8247 91.8546 38.8004C91.8788 38.7761 91.9118 38.7625 91.9461 38.7625H97.9533C97.9877 38.7625 98.0206 38.7761 98.0449 38.8004C98.0692 38.8247 98.0828 38.8576 98.0828 38.892V39.7481ZM107.795 44.3056C107.795 44.3226 107.792 44.3395 107.785 44.3552C107.779 44.3709 107.769 44.3852 107.757 44.3972C107.745 44.4092 107.731 44.4188 107.715 44.4253C107.699 44.4318 107.683 44.4351 107.666 44.4351H101.658C101.641 44.4351 101.625 44.4318 101.609 44.4253C101.593 44.4188 101.579 44.4092 101.567 44.3972C101.555 44.3852 101.545 44.3709 101.539 44.3552C101.532 44.3395 101.529 44.3226 101.529 44.3056V43.4495C101.529 43.4325 101.532 43.4157 101.539 43.3999C101.545 43.3842 101.555 43.3699 101.567 43.3579C101.579 43.3459 101.593 43.3364 101.609 43.3299C101.625 43.3234 101.641 43.32 101.658 43.32H107.666C107.683 43.32 107.699 43.3234 107.715 43.3299C107.731 43.3364 107.745 43.3459 107.757 43.3579C107.769 43.3699 107.779 43.3842 107.785 43.3999C107.792 43.4157 107.795 43.4325 107.795 43.4495V44.3056ZM107.795 42.025C107.795 42.0594 107.781 42.0923 107.757 42.1166C107.733 42.1409 107.7 42.1545 107.666 42.1545H101.658C101.624 42.1545 101.591 42.1409 101.567 42.1166C101.543 42.0923 101.529 42.0594 101.529 42.025V41.1689C101.529 41.1346 101.543 41.1016 101.567 41.0774C101.591 41.0531 101.624 41.0394 101.658 41.0394H107.666C107.7 41.0394 107.733 41.0531 107.757 41.0774C107.781 41.1016 107.795 41.1346 107.795 41.1689V42.025ZM107.795 39.7445C107.795 39.7788 107.781 39.8117 107.757 39.836C107.733 39.8603 107.7 39.874 107.666 39.874H101.658C101.624 39.874 101.591 39.8603 101.567 39.836C101.543 39.8117 101.529 39.7788 101.529 39.7445V38.892C101.529 38.8576 101.543 38.8247 101.567 38.8004C101.591 38.7761 101.624 38.7625 101.658 38.7625H107.666C107.7 38.7625 107.733 38.7761 107.757 38.8004C107.781 38.8247 107.795 38.8576 107.795 38.892V39.7481V39.7445Z" fill="#018EF5"/>
</g>
<path d="M65.857 23H53.728C51.6994 22.9994 49.7309 23.6979 48.1462 24.9805C46.5615 26.2632 45.455 28.0536 45.0083 30.0577C44.5618 28.0536 43.4552 26.2632 41.8705 24.9805C40.2858 23.6979 38.3173 22.9994 36.2887 23H24.1681C23.0626 23 22.0025 23.4447 21.2208 24.2363C20.4391 25.028 20 26.1016 20 27.2211V48.8333C20 49.9528 20.4391 51.0264 21.2208 51.8181C22.0025 52.6097 23.0626 53.0544 24.1681 53.0544H31.954C40.8237 53.0544 43.4745 55.2156 44.7416 59.6647C44.7548 59.7167 44.7852 59.7626 44.8276 59.7948C44.87 59.827 44.922 59.8437 44.9751 59.842H45.0251C45.0781 59.8437 45.13 59.827 45.1725 59.7948C45.2149 59.7626 45.2452 59.7167 45.2584 59.6647C46.5338 55.2156 49.1848 53.0544 58.0461 53.0544H65.8319C66.9374 53.0544 67.9976 52.6097 68.7793 51.8181C69.5609 51.0264 70 49.9528 70 48.8333V27.2211C70.0001 26.106 69.5644 25.0362 68.7881 24.2453C68.0118 23.4544 66.9581 23.0067 65.857 23ZM41.0071 46.326C41.0071 46.3658 40.9992 46.4054 40.9842 46.4422C40.9691 46.4791 40.947 46.5126 40.9191 46.5408C40.8913 46.5691 40.8582 46.5915 40.8218 46.6067C40.7854 46.622 40.7464 46.6299 40.707 46.6299H26.7856C26.7462 46.6299 26.7072 46.622 26.6708 46.6067C26.6344 46.5915 26.6013 46.5691 26.5734 46.5408C26.5455 46.5126 26.5234 46.4791 26.5083 46.4422C26.4932 46.4054 26.4855 46.3658 26.4855 46.326V44.3167C26.4855 44.2768 26.4932 44.2373 26.5083 44.2004C26.5234 44.1635 26.5455 44.13 26.5734 44.1018C26.6013 44.0736 26.6344 44.0512 26.6708 44.0359C26.7072 44.0206 26.7462 44.0128 26.7856 44.0128H40.707C40.7464 44.0128 40.7854 44.0206 40.8218 44.0359C40.8582 44.0512 40.8913 44.0736 40.9191 44.1018C40.947 44.13 40.9691 44.1635 40.9842 44.2004C40.9992 44.2373 41.0071 44.2768 41.0071 44.3167V46.326ZM41.0071 40.9736C41.0071 41.0542 40.9754 41.1314 40.9191 41.1884C40.8628 41.2454 40.7866 41.2775 40.707 41.2775H26.7856C26.706 41.2775 26.6297 41.2454 26.5734 41.1884C26.5171 41.1314 26.4855 41.0542 26.4855 40.9736V38.9643C26.4855 38.8837 26.5171 38.8064 26.5734 38.7494C26.6297 38.6924 26.706 38.6604 26.7856 38.6604H40.707C40.7866 38.6604 40.8628 38.6924 40.9191 38.7494C40.9754 38.8064 41.0071 38.8837 41.0071 38.9643V40.9736ZM41.0071 35.6212C41.0071 35.7018 40.9754 35.7791 40.9191 35.836C40.8628 35.893 40.7866 35.9251 40.707 35.9251H26.7856C26.706 35.9251 26.6297 35.893 26.5734 35.836C26.5171 35.7791 26.4855 35.7018 26.4855 35.6212V33.6119C26.4855 33.5313 26.5171 33.454 26.5734 33.397C26.6297 33.34 26.706 33.308 26.7856 33.308H40.707C40.7866 33.308 40.8628 33.34 40.9191 33.397C40.9754 33.454 41.0071 33.5313 41.0071 33.6119V35.6212ZM63.5146 46.3175C63.5146 46.3574 63.5067 46.397 63.4917 46.4338C63.4767 46.4707 63.4545 46.5042 63.4266 46.5324C63.3988 46.5606 63.3657 46.583 63.3293 46.5983C63.2929 46.6136 63.2539 46.6214 63.2145 46.6214H49.2932C49.2537 46.6214 49.2147 46.6136 49.1783 46.5983C49.1419 46.583 49.1088 46.5606 49.0809 46.5324C49.0531 46.5042 49.0309 46.4707 49.0158 46.4338C49.0007 46.397 48.9931 46.3574 48.9931 46.3175V44.3083C48.9931 44.2683 49.0007 44.2288 49.0158 44.1919C49.0309 44.155 49.0531 44.1215 49.0809 44.0933C49.1088 44.0651 49.1419 44.0427 49.1783 44.0275C49.2147 44.0122 49.2537 44.0043 49.2932 44.0043H63.2145C63.2539 44.0043 63.2929 44.0122 63.3293 44.0275C63.3657 44.0427 63.3988 44.0651 63.4266 44.0933C63.4545 44.1215 63.4767 44.155 63.4917 44.1919C63.5067 44.2288 63.5146 44.2683 63.5146 44.3083V46.3175ZM63.5146 40.9651C63.5146 41.0458 63.4829 41.123 63.4266 41.18C63.3704 41.237 63.2941 41.269 63.2145 41.269H49.2932C49.2136 41.269 49.1372 41.237 49.0809 41.18C49.0247 41.123 48.9931 41.0458 48.9931 40.9651V38.9559C48.9931 38.8752 49.0247 38.7979 49.0809 38.7409C49.1372 38.6839 49.2136 38.652 49.2932 38.652H63.2145C63.2941 38.652 63.3704 38.6839 63.4266 38.7409C63.4829 38.7979 63.5146 38.8752 63.5146 38.9559V40.9651ZM63.5146 35.6127C63.5146 35.6933 63.4829 35.7706 63.4266 35.8276C63.3704 35.8846 63.2941 35.9167 63.2145 35.9167H49.2932C49.2136 35.9167 49.1372 35.8846 49.0809 35.8276C49.0247 35.7706 48.9931 35.6933 48.9931 35.6127V33.6119C48.9931 33.5313 49.0247 33.454 49.0809 33.397C49.1372 33.34 49.2136 33.308 49.2932 33.308H63.2145C63.2941 33.308 63.3704 33.34 63.4266 33.397C63.4829 33.454 63.5146 33.5313 63.5146 33.6119V35.6212V35.6127Z" fill="#018EF5"/>
<defs>
<clipPath id="clip0_401_1052">
<rect width="100" height="18.3453" fill="white" transform="translate(89 32)"/>
</clipPath>
</defs>
</svg>
