<svg width="250" height="82" viewBox="0 0 250 82" fill="none" xmlns="http://www.w3.org/2000/svg">
<mask id="mask0_401_622" style="mask-type:alpha" maskUnits="userSpaceOnUse" x="20" y="16" width="41" height="50">
<path d="M21.5507 62.0734L20.0018 20.8022C19.9506 19.4392 20.9958 18.2841 22.3571 18.199L57.461 16.005C58.8467 15.9184 60.0403 16.9715 60.1269 18.3571C60.1301 18.4093 60.1318 18.4616 60.1318 18.5139V63.4861C60.1318 64.8745 59.0062 66 57.6179 66C57.5802 66 57.5426 65.9991 57.5051 65.9975L23.95 64.4904C22.6432 64.4318 21.5998 63.3806 21.5507 62.0734Z" fill="white"/>
</mask>
<g mask="url(#mask0_401_622)">
<path d="M21.5507 62.0734L20.0018 20.8022C19.9506 19.4392 20.9958 18.2841 22.3571 18.199L57.461 16.005C58.8467 15.9184 60.0403 16.9715 60.1269 18.3571C60.1301 18.4093 60.1318 18.4616 60.1318 18.5139V63.4861C60.1318 64.8745 59.0062 66 57.6179 66C57.5802 66 57.5426 65.9991 57.5051 65.9975L23.95 64.4904C22.6432 64.4318 21.5998 63.3806 21.5507 62.0734Z" fill="#FF4785"/>
<path d="M49.6341 22.1458L49.8739 16.3788L54.6947 16L54.9024 21.9473C54.9096 22.1543 54.7477 22.328 54.5407 22.3352C54.4521 22.3383 54.3652 22.3099 54.2956 22.255L52.4365 20.7905L50.2354 22.4601C50.0704 22.5853 49.8351 22.553 49.71 22.388C49.6574 22.3186 49.6305 22.2329 49.6341 22.1458Z" fill="white"/>
<path d="M43.4688 34.8461C43.4688 35.8241 50.0568 35.3554 50.9411 34.6684C50.9411 28.0081 47.3674 24.5083 40.8234 24.5083C34.2793 24.5083 30.6127 28.0626 30.6127 33.394C30.6127 42.6796 43.1439 42.8574 43.1439 47.9222C43.1439 49.344 42.4478 50.1881 40.9161 50.1881C38.9204 50.1881 38.1314 49.1689 38.2243 45.7035C38.2243 44.9516 30.6127 44.7172 30.3806 45.7035C29.7897 54.1015 35.0219 56.5237 41.009 56.5237C46.8105 56.5237 51.3589 53.4314 51.3589 47.8334C51.3589 37.8814 38.642 38.1479 38.642 33.2164C38.642 31.217 40.1271 30.9505 41.009 30.9505C41.9373 30.9505 43.608 31.1141 43.4688 34.8461Z" fill="white"/>
</g>
<g clipPath="url(#clip0_401_622)">
<path fillRule="evenodd" clipRule="evenodd" d="M117.64 46.8314C116.787 46.8314 115.965 46.7167 115.176 46.4874C114.387 46.2581 113.731 45.9407 113.208 45.5354L114.008 43.7594C115.096 44.5167 116.317 44.8954 117.672 44.8954C118.376 44.8954 118.917 44.7807 119.296 44.5514C119.675 44.3221 119.864 44.0047 119.864 43.5994C119.864 43.2367 119.691 42.9541 119.344 42.7514C118.997 42.5487 118.381 42.3514 117.496 42.1594C116.504 41.9567 115.712 41.7114 115.12 41.4234C114.528 41.1354 114.096 40.7807 113.824 40.3594C113.552 39.9381 113.416 39.4181 113.416 38.7994C113.416 38.1167 113.605 37.5087 113.984 36.9754C114.363 36.4421 114.893 36.0234 115.576 35.7194C116.259 35.4154 117.048 35.2634 117.944 35.2634C118.744 35.2634 119.515 35.3808 120.256 35.6154C120.997 35.8501 121.587 36.1647 122.024 36.5594L121.224 38.3354C120.189 37.5781 119.101 37.1994 117.96 37.1994C117.309 37.1994 116.797 37.3247 116.424 37.5754C116.051 37.8261 115.864 38.1701 115.864 38.6074C115.864 38.8634 115.936 39.0741 116.08 39.2394C116.224 39.4047 116.464 39.5514 116.8 39.6794C117.136 39.8074 117.613 39.9407 118.232 40.0794C119.683 40.3994 120.725 40.8101 121.36 41.3114C121.995 41.8127 122.312 42.5061 122.312 43.3914C122.312 44.4581 121.901 45.2981 121.08 45.9114C120.259 46.5247 119.112 46.8314 117.64 46.8314ZM128.104 45.0394C128.349 45.0394 128.605 45.0234 128.872 44.9914L128.744 46.7514C128.435 46.7941 128.125 46.8154 127.816 46.8154C126.621 46.8154 125.749 46.5541 125.2 46.0314C124.651 45.5087 124.376 44.7141 124.376 43.6474V40.6394H122.888V38.8314H124.376V36.5274H126.792V38.8314H128.76V40.6394H126.792V43.6314C126.792 44.5701 127.229 45.0394 128.104 45.0394ZM133.72 46.8154C132.888 46.8154 132.157 46.6474 131.528 46.3114C130.899 45.9754 130.413 45.5007 130.072 44.8874C129.731 44.2741 129.56 43.5514 129.56 42.7194C129.56 41.8874 129.731 41.1647 130.072 40.5514C130.413 39.9381 130.899 39.4661 131.528 39.1354C132.157 38.8047 132.888 38.6394 133.72 38.6394C134.552 38.6394 135.283 38.8047 135.912 39.1354C136.541 39.4661 137.027 39.9381 137.368 40.5514C137.709 41.1647 137.88 41.8874 137.88 42.7194C137.88 43.5514 137.709 44.2741 137.368 44.8874C137.027 45.5007 136.541 45.9754 135.912 46.3114C135.283 46.6474 134.552 46.8154 133.72 46.8154ZM133.72 44.9754C134.893 44.9754 135.48 44.2234 135.48 42.7194C135.48 41.9621 135.328 41.3967 135.024 41.0234C134.72 40.6501 134.285 40.4634 133.72 40.4634C132.547 40.4634 131.96 41.2154 131.96 42.7194C131.96 44.2234 132.547 44.9754 133.72 44.9754ZM144.568 40.6234L143.208 40.7674C142.536 40.8314 142.062 41.0207 141.784 41.3354C141.507 41.6501 141.368 42.0687 141.368 42.5914V46.6874H138.952V38.8314H141.272V40.1594C141.667 39.2527 142.483 38.7567 143.72 38.6714L144.424 38.6234L144.568 40.6234ZM151.588 38.8474H153.956L149.22 49.5674H146.772L148.276 46.2554L145.044 38.8474H147.556L149.54 43.8394L151.588 38.8474ZM159.556 38.6394C160.239 38.6394 160.842 38.8047 161.364 39.1354C161.887 39.4661 162.295 39.9381 162.588 40.5514C162.882 41.1647 163.028 41.8767 163.028 42.6874C163.028 43.4981 162.882 44.2154 162.588 44.8394C162.295 45.4634 161.884 45.9487 161.356 46.2954C160.828 46.6421 160.228 46.8154 159.556 46.8154C159.012 46.8154 158.522 46.7007 158.084 46.4714C157.647 46.2421 157.311 45.9247 157.076 45.5194V46.6874H154.692V35.4074H157.108V39.8874C157.343 39.4927 157.676 39.1861 158.108 38.9674C158.54 38.7487 159.023 38.6394 159.556 38.6394ZM158.852 44.9754C159.418 44.9754 159.855 44.7754 160.164 44.3754C160.474 43.9754 160.628 43.4127 160.628 42.6874C160.628 41.9727 160.474 41.4261 160.164 41.0474C159.855 40.6687 159.418 40.4794 158.852 40.4794C158.287 40.4794 157.85 40.6741 157.54 41.0634C157.231 41.4527 157.076 42.0047 157.076 42.7194C157.076 43.4447 157.231 44.0021 157.54 44.3914C157.85 44.7807 158.287 44.9754 158.852 44.9754ZM168.276 46.8154C167.444 46.8154 166.714 46.6474 166.084 46.3114C165.455 45.9754 164.97 45.5007 164.628 44.8874C164.287 44.2741 164.116 43.5514 164.116 42.7194C164.116 41.8874 164.287 41.1647 164.628 40.5514C164.97 39.9381 165.455 39.4661 166.084 39.1354C166.714 38.8047 167.444 38.6394 168.276 38.6394C169.108 38.6394 169.839 38.8047 170.468 39.1354C171.098 39.4661 171.583 39.9381 171.924 40.5514C172.266 41.1647 172.436 41.8874 172.436 42.7194C172.436 43.5514 172.266 44.2741 171.924 44.8874C171.583 45.5007 171.098 45.9754 170.468 46.3114C169.839 46.6474 169.108 46.8154 168.276 46.8154ZM168.276 44.9754C169.45 44.9754 170.036 44.2234 170.036 42.7194C170.036 41.9621 169.884 41.3967 169.58 41.0234C169.276 40.6501 168.842 40.4634 168.276 40.4634C167.103 40.4634 166.516 41.2154 166.516 42.7194C166.516 44.2234 167.103 44.9754 168.276 44.9754ZM177.284 46.8154C176.452 46.8154 175.722 46.6474 175.092 46.3114C174.463 45.9754 173.978 45.5007 173.636 44.8874C173.295 44.2741 173.124 43.5514 173.124 42.7194C173.124 41.8874 173.295 41.1647 173.636 40.5514C173.978 39.9381 174.463 39.4661 175.092 39.1354C175.722 38.8047 176.452 38.6394 177.284 38.6394C178.116 38.6394 178.847 38.8047 179.476 39.1354C180.106 39.4661 180.591 39.9381 180.932 40.5514C181.274 41.1647 181.444 41.8874 181.444 42.7194C181.444 43.5514 181.274 44.2741 180.932 44.8874C180.591 45.5007 180.106 45.9754 179.476 46.3114C178.847 46.6474 178.116 46.8154 177.284 46.8154ZM177.284 44.9754C178.458 44.9754 179.044 44.2234 179.044 42.7194C179.044 41.9621 178.892 41.3967 178.588 41.0234C178.284 40.6501 177.85 40.4634 177.284 40.4634C176.111 40.4634 175.524 41.2154 175.524 42.7194C175.524 44.2234 176.111 44.9754 177.284 44.9754ZM191 46.6874H188.04L185.032 43.1834V46.6874H182.616V35.4074H185.032V42.1914L187.928 38.8474H190.808L187.512 42.5914L191 46.6874Z" fill="#333333"/>
<mask id="mask1_401_622" style="mask-type:alpha" maskUnits="userSpaceOnUse" x="91" y="31" width="17" height="20">
<path d="M91.6203 49.4293L91.0007 32.9209C90.9803 32.3757 91.3983 31.9136 91.9428 31.8796L105.984 31.002C106.539 30.9674 107.016 31.3886 107.051 31.9429C107.052 31.9637 107.053 31.9847 107.053 32.0056V49.9944C107.053 50.5498 106.602 51 106.047 51C106.032 51 106.017 50.9997 106.002 50.999L92.58 50.3962C92.0573 50.3727 91.6399 49.9522 91.6203 49.4293Z" fill="white"/>
</mask>
<g mask="url(#mask1_401_622)">
<path d="M91.6203 49.4293L91.0007 32.9209C90.9803 32.3757 91.3983 31.9136 91.9428 31.8796L105.984 31.002C106.539 30.9674 107.016 31.3886 107.051 31.9429C107.052 31.9637 107.053 31.9847 107.053 32.0056V49.9944C107.053 50.5498 106.602 51 106.047 51C106.032 51 106.017 50.9997 106.002 50.999L92.58 50.3962C92.0573 50.3727 91.6399 49.9522 91.6203 49.4293Z" fill="#FF4785"/>
<path d="M102.854 33.4583L102.95 31.1515L104.878 31L104.961 33.3789C104.964 33.4617 104.899 33.5312 104.816 33.5341C104.781 33.5353 104.746 33.5239 104.718 33.502L103.975 32.9162L103.094 33.5841C103.028 33.6341 102.934 33.6212 102.884 33.5552C102.863 33.5274 102.852 33.4932 102.854 33.4583Z" fill="white"/>
<path d="M100.387 38.5382C100.387 38.9294 103.023 38.7419 103.376 38.4671C103.376 35.803 101.947 34.4031 99.3292 34.4031C96.7115 34.4031 95.2449 35.8248 95.2449 37.9574C95.2449 41.6716 100.257 41.7427 100.257 43.7687C100.257 44.3374 99.9789 44.675 99.3663 44.675C98.568 44.675 98.2524 44.2673 98.2895 42.8812C98.2895 42.5805 95.2449 42.4867 95.1521 42.8812C94.9157 46.2404 97.0086 47.2093 99.4034 47.2093C101.724 47.2093 103.543 45.9724 103.543 43.7331C103.543 39.7523 98.4566 39.859 98.4566 37.8863C98.4566 37.0866 99.0507 36.98 99.4034 36.98C99.7747 36.98 100.443 37.0454 100.387 38.5382Z" fill="white"/>
</g>
</g>
<defs>
<clipPath id="clip0_401_622">
<rect width="100" height="20" fill="white" transform="translate(91 31)"/>
</clipPath>
</defs>
</svg>
