<svg width="250" height="82" viewBox="0 0 250 82" fill="none" xmlns="http://www.w3.org/2000/svg">
<g clip-path="url(#clip0_401_2510)">
<path fill-rule="evenodd" clip-rule="evenodd" d="M41.0093 20.6257C43.1353 18.4581 46.6123 18.4581 48.7371 20.6257L68.1644 40.4313C70.288 42.5965 70.288 46.1441 68.1644 48.3118L54.5768 62.1632C53.583 63.1765 52.2094 63.8025 50.6939 63.8025H39.0549C37.6742 63.8025 36.4143 63.2838 35.4476 62.4274L21.5927 48.3009C19.4691 46.1345 19.4691 42.5893 21.5927 40.4216L41.0093 20.6257ZM48.1964 56.7821L46.2586 58.7579C46.1166 58.9027 45.9202 58.992 45.7037 58.992H44.0438C43.8463 58.992 43.6676 58.9184 43.528 58.7953L41.5523 56.7797C41.2506 56.4721 41.2506 55.9667 41.5523 55.6567L44.3219 52.8328C44.6259 52.5228 45.1228 52.5228 45.4245 52.8328L48.1964 55.6579C48.5005 55.9667 48.5005 56.4721 48.1964 56.7821ZM48.1964 44.933L40.4474 52.834C40.3042 52.9788 40.109 53.068 39.8937 53.068H38.2326C38.0362 53.068 37.8552 52.9944 37.718 52.8714L35.7411 50.857C35.4382 50.547 35.4382 50.0403 35.7411 49.7327L44.3219 40.9837C44.6259 40.6749 45.1228 40.6749 45.4257 40.9837L48.1964 43.8088C48.5005 44.1176 48.5005 44.6243 48.1964 44.933ZM48.1964 33.084L34.6372 46.9089C34.4929 47.0536 34.2977 47.1429 34.0824 47.1429H32.4225C32.2261 47.1429 32.0452 47.0693 31.9079 46.9463L29.9298 44.9306C29.627 44.623 29.627 44.1164 29.9298 43.8064L44.3219 29.1334C44.6259 28.8234 45.1205 28.8234 45.4245 29.1334L48.1964 31.9597C48.5005 32.2685 48.5005 32.7752 48.1964 33.084Z" fill="#26A943"/>
</g>
<g clip-path="url(#clip1_401_2510)">
<path fill-rule="evenodd" clip-rule="evenodd" d="M109.827 26.9926C111.125 25.6691 113.248 25.6691 114.545 26.9926L126.406 39.0844C127.702 40.4063 127.702 42.5722 126.406 43.8956L118.11 52.3523C117.503 52.9709 116.665 53.3531 115.739 53.3531H108.634C107.791 53.3531 107.021 53.0364 106.431 52.5135L97.9724 43.889C96.6759 42.5663 96.6759 40.4019 97.9724 39.0785L109.827 26.9926ZM114.215 49.0669L113.032 50.2733C112.945 50.3616 112.825 50.4161 112.693 50.4161H111.679C111.559 50.4161 111.45 50.3712 111.364 50.2961L110.158 49.0655C109.974 48.8777 109.974 48.5691 110.158 48.3799L111.849 46.6558C112.035 46.4666 112.338 46.4666 112.522 46.6558L114.215 48.3806C114.4 48.5691 114.4 48.8777 114.215 49.0669ZM114.215 41.8328L109.484 46.6566C109.396 46.7449 109.277 46.7994 109.146 46.7994H108.132C108.012 46.7994 107.901 46.7545 107.817 46.6794L106.61 45.4495C106.425 45.2602 106.425 44.9509 106.61 44.7631L111.849 39.4216C112.035 39.2331 112.338 39.2331 112.523 39.4216L114.215 41.1464C114.4 41.3349 114.4 41.6443 114.215 41.8328ZM114.215 34.5986L105.936 43.0391C105.848 43.1275 105.729 43.182 105.598 43.182H104.584C104.464 43.182 104.354 43.1371 104.27 43.0619L103.062 41.8313C102.878 41.6435 102.878 41.3342 103.062 41.1449L111.849 32.1867C112.035 31.9975 112.337 31.9975 112.522 32.1867L114.215 33.9122C114.4 34.1008 114.4 34.4101 114.215 34.5986Z" fill="#26A943"/>
<path d="M183.778 37.1107V32.0336H180.188V50.4331H183.778V37.649L188.179 49.6082C188.281 49.8653 188.33 50.1488 188.33 50.4331C188.33 51.2579 187.876 52.0039 186.941 52.107C186.233 52.1335 185.526 52.0555 184.844 51.9782V54.9947C185.576 55.072 186.308 55.1228 187.043 55.1228C189.492 55.1228 190.757 54.2464 191.541 52.107L197 37.1107H193.285L190.428 46.2331H190.379L187.42 37.1107H183.778Z" fill="#2E2E2E"/>
<path d="M141.716 32.1367C141.11 32.1109 140.453 32.0336 139.821 32.0336C136.889 32.0336 135.449 33.709 135.449 36.0789V37.1107H133.3V39.5579H135.449V50.4331H139.037V39.5579H141.515V37.1107H139.037V36.3109C139.037 35.2033 139.416 34.7901 140.401 34.7901C140.832 34.7901 141.286 34.8174 141.716 34.8689V32.1367Z" fill="#2E2E2E"/>
<path fill-rule="evenodd" clip-rule="evenodd" d="M179.404 32.0336V50.4331H175.991V48.7311H175.941C175.107 50.1753 173.666 50.7932 171.973 50.7932C168.39 50.7932 166.476 47.9623 166.158 44.6608H156.758C156.86 47.0056 157.945 48.0359 159.968 48.0359C161.407 48.0359 162.571 47.133 162.798 46.3104H165.958C164.946 49.4801 162.798 50.7932 159.841 50.7932C156.021 50.7932 153.549 48.3114 153.21 44.6608H143.968C144.069 47.0056 145.156 48.0359 147.177 48.0359C148.617 48.0359 149.781 47.133 150.007 46.3104H153.167C152.157 49.4801 150.007 50.7932 147.051 50.7932C142.93 50.7932 140.377 47.907 140.377 43.7836C140.377 39.7899 143.082 36.7498 147.051 36.7498C150.651 36.7498 152.761 39.2478 153.287 42.3726C153.846 39.0954 156.357 36.7498 159.841 36.7498C163.62 36.7498 165.756 39.5004 166.143 42.8395C166.418 39.5844 168.35 36.7498 171.898 36.7498C173.438 36.7498 174.955 37.4192 175.764 38.7331H175.816V32.0336H179.404ZM146.95 39.5063C144.624 39.5063 144.044 41.3107 143.968 42.3417H149.806C149.477 40.4851 148.694 39.5063 146.95 39.5063ZM156.758 42.3417C156.834 41.3107 157.415 39.5063 159.74 39.5063C161.484 39.5063 162.268 40.4851 162.596 42.3417H156.758ZM175.941 43.7328C175.941 41.5684 175.183 39.5063 172.857 39.5063C170.508 39.5063 169.698 41.5942 169.698 43.7586C169.698 45.8464 170.633 48.0359 172.857 48.0359C175.209 48.0359 175.941 45.923 175.941 43.7328Z" fill="#2E2E2E"/>
</g>
<defs>
<clipPath id="clip0_401_2510">
<rect width="50" height="44.8276" fill="white" transform="translate(20 19)"/>
</clipPath>
<clipPath id="clip1_401_2510">
<rect width="100" height="29.1228" fill="white" transform="translate(97 26)"/>
</clipPath>
</defs>
</svg>
