<svg width="250" height="82" viewBox="0 0 250 82" fill="none" xmlns="http://www.w3.org/2000/svg">
<g clip-path="url(#clip0_401_1374)">
<path d="M20 41C20 27.1928 31.1928 16 45 16C55.1518 16 63.8903 22.0509 67.8057 30.7428L34.7428 63.8057C33.3241 63.1666 31.9757 62.3989 30.7124 61.5176L51.23 41H45L27.3223 58.6776C22.7982 54.1535 20 47.9035 20 41Z" fill="black"/>
<path d="M70 41.0086L45.0086 66C58.8089 65.9954 69.9954 54.8089 70 41.0086Z" fill="black"/>
</g>
<g clip-path="url(#clip1_401_1374)">
<path d="M103 41.0127C103 36.5874 106.587 33 111.013 33C114.266 33 117.067 34.9394 118.322 37.7252L107.725 48.3221C107.27 48.1173 106.838 47.8712 106.433 47.5888L113.009 41.0127H111.013L105.347 46.6785C103.897 45.2285 103 43.2253 103 41.0127Z" fill="black"/>
<path d="M119.025 41.0155L111.015 49.0254C115.439 49.0239 119.024 45.4386 119.025 41.0155Z" fill="black"/>
<path fill-rule="evenodd" clip-rule="evenodd" d="M123.274 35.4355V46.3824H124.805V42.9892H127.091C129.169 42.9681 130.861 41.396 130.861 39.3333C130.861 37.045 129.214 35.4355 127.099 35.4355H123.274ZM129.396 39.2315C129.396 40.5141 128.349 41.6412 127.072 41.6479C126.675 41.6477 126.278 41.6478 125.882 41.6479C125.523 41.648 125.164 41.648 124.805 41.6479V36.7857L127.061 36.7858C128.343 36.7858 129.396 37.8814 129.396 39.2315Z" fill="black"/>
<path d="M192.308 46.3827V35.4357L193.247 35.4356C193.532 35.4355 193.724 35.4355 193.846 35.4356V46.3827H192.308Z" fill="black"/>
<path d="M133.194 46.3828V35.442C132.923 35.4419 132.684 35.4419 132.251 35.4419L131.656 35.4419V46.3828H133.194Z" fill="black"/>
<path fill-rule="evenodd" clip-rule="evenodd" d="M142.673 46.3827V38.1872H141.134V39.3411H141.104C140.468 38.4091 139.462 37.9653 138.264 37.9653C135.853 37.9653 133.974 39.7997 133.974 42.4181C133.974 44.785 135.927 46.5898 138.323 46.5898C139.492 46.5898 140.528 46.0868 141.104 45.1104H141.134V46.3827H142.673ZM138.308 45.1844C136.77 45.1844 135.513 43.8382 135.513 42.2997C135.513 40.6873 136.77 39.3707 138.308 39.3707C140.01 39.3707 141.164 40.7021 141.164 42.2997C141.164 43.853 139.906 45.1844 138.308 45.1844Z" fill="black"/>
<path d="M151.256 46.3827V41.4713C151.256 39.2079 149.807 37.9653 147.839 37.9653C146.892 37.9653 146.049 38.276 145.443 39.06H145.413V38.1872H143.875V46.3827H145.517V41.9003C145.517 40.3618 146.33 39.3707 147.676 39.3707C149.038 39.3707 149.718 40.1843 149.718 41.9151V46.3827H151.256Z" fill="black"/>
<path fill-rule="evenodd" clip-rule="evenodd" d="M160.373 42.892C160.408 42.6362 160.408 42.4152 160.408 42.1814C160.408 39.8293 158.574 37.9653 156.163 37.9653C153.988 37.9653 152.035 39.7701 152.035 42.3589C152.035 44.5483 153.899 46.5898 156.207 46.5898C157.967 46.5898 159.506 45.4951 160.142 43.8086H158.603C158.13 44.6814 157.228 45.1844 156.266 45.1844C155.021 45.1844 153.949 44.3281 153.584 42.9893H160.356C160.362 42.958 160.368 42.9251 160.373 42.892ZM153.587 41.648C153.764 40.3061 154.985 39.3707 156.207 39.3707C157.486 39.3707 158.681 40.3195 158.857 41.648H153.587Z" fill="black"/>
<path d="M171.602 38.1714H173.315C173.054 36.8274 171.519 35.4358 169.456 35.4358C167.297 35.4358 165.642 36.6703 165.642 38.5247C165.642 40.0219 166.712 40.9404 168.441 41.4079L169.712 41.7546C170.862 42.0593 171.753 42.4647 171.753 43.4208C171.753 44.4714 170.75 45.1649 169.368 45.1649C168.267 45.1649 167.328 44.7323 167.056 43.8276H165.346C165.626 45.4858 167.102 46.5885 169.379 46.5885C171.906 46.5885 173.361 45.2594 173.361 43.4365C173.361 41.4981 171.629 40.7197 170.264 40.3835L169.213 40.1104C168.373 39.895 167.255 39.4598 167.26 38.4301C167.26 37.5161 168.095 36.7858 169.419 36.7858C170.551 36.7858 171.383 37.3247 171.602 38.1714Z" fill="black"/>
<path d="M182.111 43.8275C181.429 45.5829 179.898 46.5898 178.129 46.5898C175.777 46.5898 173.928 44.6962 173.928 42.3589C173.928 39.8885 175.717 37.9653 178.114 37.9653C179.921 37.9653 181.575 39.0638 182.119 40.7486H180.385C179.922 39.8837 179.205 39.3707 178.159 39.3707C176.546 39.3707 175.466 40.5985 175.466 42.2701C175.466 43.8974 176.575 45.1844 178.129 45.1844C179.122 45.1844 179.93 44.6821 180.377 43.8275H182.111Z" fill="black"/>
<path fill-rule="evenodd" clip-rule="evenodd" d="M191.103 38.1872V46.3827H189.565V45.1104H189.536C188.958 46.0868 187.923 46.5898 186.754 46.5898C184.358 46.5898 182.405 44.785 182.405 42.4181C182.405 39.7997 184.284 37.9653 186.695 37.9653C187.893 37.9653 188.899 38.4091 189.536 39.3411H189.565V38.1872H191.103ZM183.944 42.2997C183.944 43.8382 185.201 45.1844 186.74 45.1844C188.337 45.1844 189.594 43.853 189.594 42.2997C189.594 40.7021 188.441 39.3707 186.74 39.3707C185.201 39.3707 183.944 40.6873 183.944 42.2997Z" fill="black"/>
<path fill-rule="evenodd" clip-rule="evenodd" d="M202.967 42.8472C202.996 42.6102 202.996 42.4015 202.996 42.1815V42.1814C202.996 42.1446 202.996 42.1081 202.995 42.0716C202.988 41.7759 202.951 41.4883 202.889 41.2117C202.773 40.7029 202.568 40.2311 202.289 39.8138C201.54 38.6935 200.258 37.9653 198.751 37.9653C196.576 37.9653 194.624 39.7701 194.624 42.3589C194.624 42.6326 194.652 42.9039 194.708 43.1693C195.096 45.0268 196.776 46.5898 198.795 46.5898C200.555 46.5898 202.094 45.4951 202.73 43.8086H201.191C201.133 43.9178 201.067 44.0211 200.995 44.1184C200.492 44.7993 199.696 45.1844 198.854 45.1844C197.609 45.1844 196.537 44.3281 196.172 42.9893H202.944C202.947 42.9767 202.949 42.9637 202.951 42.9506H202.952C202.957 42.9155 202.962 42.8811 202.967 42.8472ZM196.197 41.5087C196.438 40.2418 197.616 39.3707 198.795 39.3707C200.074 39.3707 201.269 40.3195 201.445 41.648H196.175C196.181 41.6011 196.188 41.5546 196.197 41.5087Z" fill="black"/>
<path d="M163.147 38.1889H164.866V39.5312H163.147V44.1132C163.147 44.9175 163.537 45.1415 163.972 45.1824C164.003 45.1832 164.03 45.1843 164.054 45.1855C164.319 45.1997 164.526 45.1593 164.653 45.1176C164.833 45.5268 165.077 45.9014 165.38 46.2306C164.846 46.5515 164.213 46.6122 163.735 46.5835C163.505 46.5715 163.281 46.5331 163.07 46.4684C162.128 46.1817 161.832 45.5054 161.725 45.2283L161.732 45.228C161.651 44.9951 161.607 44.7321 161.609 44.4388V39.5312H160.4V38.1889H161.609V35.4358H163.147V38.1889Z" fill="black"/>
</g>
<defs>
<clipPath id="clip0_401_1374">
<rect width="50" height="50" fill="white" transform="translate(20 16)"/>
</clipPath>
<clipPath id="clip1_401_1374">
<rect width="100" height="16.0254" fill="white" transform="translate(103 33)"/>
</clipPath>
</defs>
</svg>
