<svg width="250" height="82" viewBox="0 0 250 82" fill="none" xmlns="http://www.w3.org/2000/svg">
<g clip-path="url(#clip0_401_1840)">
<path d="M45 66C58.8071 66 70 54.8071 70 41C70 27.1929 58.8071 16 45 16C31.1929 16 20 27.1929 20 41C20 54.8071 31.1929 66 45 66Z" fill="#192D41"/>
<path fill-rule="evenodd" clip-rule="evenodd" d="M50.5022 23.1692C54.7433 24.5412 57.8153 27.0302 59.6483 30.5792C60.8964 32.9956 61.329 34.6722 61.4485 37.5546C61.6166 41.6089 60.685 45.4554 58.5004 49.7261C57.0516 52.5585 55.4381 54.7907 53.0348 57.2875C51.0367 59.3633 50.5064 59.6824 49.9616 59.1377C49.485 58.661 49.7778 58.1295 51.5709 56.2172C55.6456 51.8707 58.233 47.1724 59.2975 42.1878C59.7497 40.0701 59.7107 36.3207 59.2168 34.4381C57.9608 29.6508 54.345 26.1043 49.3701 24.78C47.313 24.2325 43.8504 24.2394 41.7419 24.7954C36.439 26.1935 32.6713 29.8529 31.0892 35.1416C30.6385 36.6483 30.5688 37.2249 30.5637 39.4851C30.5522 44.7566 32.1383 48.8334 35.618 52.4757C36.9332 53.8521 39.8103 56.033 40.0261 55.817C40.0759 55.7674 39.895 55.4365 39.6244 55.0817C39.3539 54.7268 38.8464 53.8307 38.4966 53.0902C37.9634 51.9614 37.8601 51.5199 37.8572 50.3577C37.8543 49.2297 37.779 48.8884 37.4524 48.5238C35.5346 46.383 35.0832 42.7776 36.3807 39.9626C37.0031 38.6124 37.0043 38.6046 36.6775 37.8398C36.1915 36.7021 36.2381 34.9417 36.7842 33.8138C37.7412 31.8369 40.345 29.9852 43.0915 29.3284C44.6275 28.961 48.0402 28.8991 49.3386 29.2149C49.8136 29.3304 50.2332 29.3937 50.2713 29.3556C50.3093 29.3176 50.2404 29.0999 50.1184 28.8717C49.9485 28.5543 49.9522 28.3892 50.134 28.1701C50.6157 27.5898 51.1512 27.9487 51.8956 29.35C52.2904 30.0933 52.6163 30.8473 52.6195 31.0257C52.6286 31.5041 49.7776 33.0456 49.3636 32.7863C48.8284 32.451 48.8773 31.8178 49.4616 31.5114C49.9854 31.2371 49.9802 31.2336 48.7336 31.0165C43.5668 30.1168 38.1365 32.6502 38.1498 35.9543C38.1547 37.1448 38.3294 37.2218 39.406 36.5077C43.5686 33.7472 51.4303 34.2744 53.3904 37.4458C53.9323 38.3228 53.9126 39.6224 53.3442 40.4701C51.5657 43.1228 44.4927 43.6444 40.1348 41.4446C39.5066 41.1274 38.8786 40.7305 38.7392 40.5627C38.5998 40.3948 38.4234 40.2573 38.3473 40.2573C38.123 40.2573 37.8049 41.0975 37.5622 42.3311C37.2771 43.7801 37.5317 45.1514 38.3524 46.5877L38.9359 47.6089L39.6871 46.9658C41.7282 45.2187 45.184 44.3869 48.379 44.8734C50.4332 45.1861 51.4886 45.5753 52.4012 46.3562C53.9253 47.6608 53.9122 49.4017 52.3676 50.8255C51.1794 51.9207 49.6697 52.4377 47.3168 52.5546C44.951 52.6724 43.1319 52.3245 41.1747 51.3803C40.4132 51.0129 39.7522 50.75 39.706 50.796C39.6601 50.8421 39.7676 51.3348 39.9452 51.8909C40.3655 53.2071 41.8219 55.1216 43.6417 56.7504C44.6971 57.695 45.0968 58.1817 45.0968 58.522C45.0968 59.6568 43.3576 59.5029 40.2989 58.0977C34.2863 55.3355 29.963 49.5145 28.8736 42.7143C28.5711 40.8263 28.7371 36.5523 29.1755 34.9485C30.4302 30.3574 33.6572 26.3929 37.8574 24.2827C40.6033 22.9031 42.612 22.4898 46.1585 22.5742C48.4697 22.6292 49.0989 22.7153 50.5022 23.1692ZM39.7105 38.5934C40.1605 38.0512 41.5622 37.3593 42.9925 36.9734C44.8865 36.4624 48.3796 36.5299 49.7946 37.1048C50.9859 37.5892 52.0466 38.433 52.0466 38.8971C52.0466 39.0954 51.7819 39.4805 51.4583 39.7527C49.3676 41.512 43.124 41.2998 40.2087 39.3707C39.5915 38.9622 39.5099 38.8349 39.7105 38.5934ZM40.4636 48.751C40.4636 48.3141 42.8242 47.1017 44.2101 46.827C47.3603 46.2023 51.4707 47.0882 51.6257 48.4251C51.8271 50.1626 47.3802 51.2813 43.8697 50.3763C42.6784 50.0691 40.4636 49.0122 40.4636 48.751Z" fill="#F1AE0E"/>
</g>
<g clip-path="url(#clip1_401_1840)">
<path d="M151.838 38.1612C150.288 38.1612 149.262 38.8122 147.888 39.9043V32.1964L147.512 32L142.763 34.246V34.5899L144.6 35.7194V49.7482C146.288 50.4842 147.8 50.6806 149.35 50.6806C152.812 50.6806 156.225 48.3237 156.225 43.9058C156.212 40.6036 154.35 38.1612 151.838 38.1612ZM150.088 48.9741C149.163 48.9741 148.462 48.5568 147.875 47.8446V40.8245C148.543 40.6648 149.226 40.5785 149.912 40.5669C151.6 40.5669 152.712 41.941 152.712 44.7281C152.725 47.4281 151.863 48.9741 150.088 48.9741ZM166.775 48.446V42.9604C166.775 39.8432 165.575 38.1489 162.563 38.1489C160.613 38.1489 159.012 38.8489 157.613 40.223L158.15 41.2914C159.175 40.641 160.15 40.2482 161.15 40.2482C162.812 40.2482 163.463 41.2295 163.463 43.1446V43.6482C158.513 44.1511 157.075 45.7835 157.075 47.8942C157.075 49.9683 158.538 50.6806 159.912 50.6806C161.088 50.6806 162.288 50.177 163.463 49.3914V50.3734H168.188V48.582H166.9L166.775 48.4468V48.446ZM163.487 48.4101C162.984 48.5568 162.463 48.6439 161.938 48.6676C160.963 48.6676 160.276 48.1892 160.312 47.1209C160.338 45.8568 161.262 45.2432 163.488 45.0468V48.4101H163.487ZM176.15 48.7288C174.175 48.7288 172.312 47.1583 172.312 43.6353C172.312 41.1317 173.088 39.7813 174.55 39.7813C175.15 39.7813 175.612 40.0022 176.125 40.4317L178.3 43.2914H178.675V38.7755C177.602 38.3817 176.468 38.1742 175.325 38.1619C171.312 38.1619 168.825 41.0216 168.825 44.7036C168.825 48.3007 171.112 50.6568 174.688 50.6568C176.338 50.6821 177.939 50.101 179.188 49.0237L178.65 48.0424C177.788 48.5331 177.063 48.7295 176.15 48.7295V48.7288ZM192.225 48.582L188.363 43.2424L193.425 38.6647V38.4439H187.1V38.6885L188.738 40.2604L185.075 44.0899L189.475 50.3856H194V48.5827H192.225V48.582Z" fill="#192D41"/>
<path d="M184.837 48.446V32.1971L184.437 32L179.712 34.246V34.577L181.55 35.7065V48.4468L181.4 48.582H180.112V50.3856H186.275V48.5827H184.988L184.837 48.4475V48.446ZM96.9374 33.8532H94V50.4108H103.937V47.7468H96.9374V33.8532ZM110.3 38.1856C106.675 38.1856 103.937 40.8741 103.937 44.4331C103.937 47.9928 106.675 50.705 110.3 50.705C113.925 50.705 116.688 48.005 116.688 44.4331C116.688 40.8619 113.95 38.1856 110.3 38.1856ZM110.3 48.1029C108.275 48.1029 106.75 46.5324 106.75 44.4453C106.75 42.359 108.276 40.8 110.3 40.8C112.3 40.8 113.876 42.3957 113.876 44.4331C113.876 46.5194 112.35 48.1029 110.3 48.1029ZM124 38.1734C120.375 38.1734 117.637 40.8619 117.637 44.4209C117.637 47.9806 120.375 50.6928 124 50.6928C127.625 50.6928 130.388 47.9928 130.388 44.4209C130.388 40.8489 127.637 38.1734 124 38.1734ZM124 48.0784C121.975 48.0784 120.45 46.5072 120.45 44.4209C120.45 42.3345 121.976 40.7878 124 40.7878C126 40.7878 127.576 42.3835 127.576 44.4209C127.576 46.5072 126.037 48.0784 124 48.0784ZM142.175 38.4561H138.35L134.712 42.1626V33.2518H131.9V50.3856H134.713V45.1201L139.637 50.3863H143.325L137.025 43.6353L142.175 38.4554V38.4561Z" fill="#192D41"/>
</g>
<defs>
<clipPath id="clip0_401_1840">
<rect width="50" height="50" fill="white" transform="translate(20 16)"/>
</clipPath>
<clipPath id="clip1_401_1840">
<rect width="100" height="18.705" fill="white" transform="translate(94 32)"/>
</clipPath>
</defs>
</svg>
