<svg width="250" height="82" viewBox="0 0 250 82" fill="none" xmlns="http://www.w3.org/2000/svg">
<g clipPath="url(#clip0_401_169)">
<path d="M30.2447 31.9972C38.3911 24.0211 51.599 24.0211 59.7454 31.9972L60.726 32.9571C61.1332 33.3559 61.1332 34.0025 60.726 34.4013L57.3721 37.685C57.1684 37.8844 56.8382 37.8844 56.6345 37.685L55.2854 36.364C49.6021 30.7997 40.388 30.7997 34.7048 36.364L33.26 37.7787C33.0563 37.9781 32.7261 37.9781 32.5224 37.7787L29.1686 34.495C28.7612 34.0962 28.7612 33.4496 29.1686 33.0508L30.2447 31.9972ZM66.6816 38.7882L69.6666 41.7108C70.0739 42.1095 70.0739 42.7562 69.6666 43.1549L56.2072 56.333C55.7999 56.7318 55.1395 56.7318 54.7322 56.333L45.1796 46.9802C45.0776 46.8804 44.9126 46.8804 44.8108 46.9802L35.2583 56.333C34.851 56.7318 34.1907 56.7318 33.7833 56.333L20.3236 43.1548C19.9162 42.7559 19.9162 42.1094 20.3236 41.7106L23.3085 38.7881C23.7158 38.3893 24.3762 38.3893 24.7836 38.7881L34.3363 48.141C34.4382 48.2407 34.6033 48.2407 34.7051 48.141L44.2574 38.7881C44.6648 38.3893 45.3251 38.3892 45.7324 38.788C45.7324 38.788 45.7324 38.788 45.7324 38.7881L55.2853 48.141C55.3871 48.2407 55.5521 48.2407 55.6539 48.141L65.2065 38.7882C65.6139 38.3894 66.2743 38.3894 66.6816 38.7882Z" fill="#3B99FC"/>
</g>
<g clipPath="url(#clip1_401_169)">
<path fillRule="evenodd" clipRule="evenodd" d="M148.105 41.9255L146.732 46.8641H145.305L143.392 39.6365H144.959L146.096 44.8707H146.136L147.489 39.6365H148.766L150.118 44.8707H150.158L151.301 39.6365H152.868L150.95 46.8641H149.522L148.15 41.9255H148.105ZM154.952 45.8925C155.588 45.8925 156.114 45.4767 156.114 44.8957V44.505L154.982 44.5751C154.436 44.6152 154.125 44.8606 154.125 45.2413C154.125 45.642 154.456 45.8925 154.952 45.8925ZM154.471 46.9493C153.449 46.9493 152.673 46.2881 152.673 45.3214C152.673 44.3447 153.424 43.7787 154.762 43.6986L156.114 43.6184V43.2628C156.114 42.7619 155.763 42.4714 155.212 42.4714C154.666 42.4714 154.321 42.7419 154.251 43.1376H152.913C152.968 42.0957 153.855 41.3795 155.277 41.3795C156.655 41.3795 157.552 42.0907 157.552 43.1726V46.8641H156.139V46.0427H156.109C155.808 46.6137 155.142 46.9493 154.471 46.9493ZM158.528 46.8641V39.6365H159.991V46.8641H158.528ZM161.013 46.8641V39.6365H162.475V46.8641H161.013ZM165.871 42.4614C165.23 42.4614 164.769 42.9473 164.719 43.6184H166.998C166.968 42.9323 166.522 42.4614 165.871 42.4614ZM167.018 45.2212H168.36C168.2 46.2731 167.239 46.9794 165.911 46.9794C164.258 46.9794 163.267 45.9225 163.267 44.2045C163.267 42.4915 164.268 41.3795 165.856 41.3795C167.419 41.3795 168.406 42.4364 168.406 44.0692V44.515H164.704V44.6052C164.704 45.3715 165.19 45.8975 165.936 45.8975C166.472 45.8975 166.883 45.632 167.018 45.2212ZM169.548 40.2576H171.01V41.4947H172.002V42.5966H171.01V45.1662C171.01 45.5769 171.211 45.7722 171.641 45.7722C171.772 45.7722 171.907 45.7622 171.997 45.7472V46.8241C171.847 46.8591 171.596 46.8842 171.301 46.8842C170.038 46.8842 169.548 46.4635 169.548 45.4166V42.5966H168.791V41.4947H169.548V40.2576ZM176.124 46.9894C174.02 46.9894 172.703 45.5819 172.703 43.2478C172.703 40.9187 174.03 39.5112 176.124 39.5112C177.862 39.5112 179.185 40.6132 179.3 42.231H177.827C177.687 41.3445 177.006 40.7635 176.124 40.7635C174.982 40.7635 174.246 41.7201 174.246 43.2428C174.246 44.7855 174.972 45.7372 176.129 45.7372C177.026 45.7372 177.672 45.2112 177.832 44.3548H179.305C179.134 45.9676 177.897 46.9894 176.124 46.9894ZM182.575 46.9794C180.953 46.9794 179.916 45.9375 179.916 44.1744C179.916 42.4364 180.967 41.3795 182.575 41.3795C184.183 41.3795 185.235 42.4314 185.235 44.1744C185.235 45.9426 184.198 46.9794 182.575 46.9794ZM182.575 45.8624C183.292 45.8624 183.747 45.2563 183.747 44.1794C183.747 43.1125 183.287 42.4965 182.575 42.4965C181.865 42.4965 181.398 43.1125 181.398 44.1794C181.398 45.2563 181.854 45.8624 182.575 45.8624ZM185.987 46.8641V41.4947H187.399V42.4514H187.429C187.714 41.7853 188.281 41.3946 189.107 41.3946C190.299 41.3946 190.97 42.1458 190.97 43.4031V46.8641H189.507V43.7086C189.507 43.0074 189.177 42.6066 188.521 42.6066C187.865 42.6066 187.449 43.0875 187.449 43.7837V46.8641H185.987ZM191.897 46.8641V41.4947H193.309V42.4514H193.34C193.625 41.7853 194.191 41.3946 195.017 41.3946C196.209 41.3946 196.881 42.1458 196.881 43.4031V46.8641H195.418V43.7086C195.418 43.0074 195.087 42.6066 194.431 42.6066C193.775 42.6066 193.359 43.0875 193.359 43.7837V46.8641H191.897ZM200.217 42.4614C199.575 42.4614 199.115 42.9473 199.065 43.6184H201.344C201.313 42.9323 200.868 42.4614 200.217 42.4614ZM201.364 45.2212H202.706C202.546 46.2731 201.584 46.9794 200.257 46.9794C198.603 46.9794 197.612 45.9225 197.612 44.2045C197.612 42.4915 198.614 41.3795 200.202 41.3795C201.764 41.3795 202.751 42.4364 202.751 44.0692V44.515H199.05V44.6052C199.05 45.3715 199.536 45.8975 200.282 45.8975C200.817 45.8975 201.228 45.632 201.364 45.2212ZM208.381 43.4932H207.024C206.939 42.9273 206.563 42.5265 205.962 42.5265C205.24 42.5265 204.79 43.1376 204.79 44.1744C204.79 45.2313 205.24 45.8323 205.967 45.8323C206.553 45.8323 206.933 45.4818 207.024 44.8957H208.386C208.311 46.1629 207.364 46.9794 205.952 46.9794C204.334 46.9794 203.307 45.9275 203.307 44.1744C203.307 42.4514 204.334 41.3795 205.941 41.3795C207.394 41.3795 208.316 42.2761 208.381 43.4932ZM209.483 40.2576H210.945V41.4947H211.937V42.5966H210.945V45.1662C210.945 45.5769 211.146 45.7722 211.577 45.7722C211.707 45.7722 211.842 45.7622 211.932 45.7472V46.8241C211.782 46.8591 211.531 46.8842 211.236 46.8842C209.974 46.8842 209.483 46.4635 209.483 45.4166V42.5966H208.727V41.4947H209.483V40.2576Z" fill="#3999FB"/>
<path d="M117.449 36.1897C121.782 31.9475 128.807 31.9475 133.14 36.1897L133.661 36.7003C133.878 36.9124 133.878 37.2563 133.661 37.4684L131.877 39.2149C131.769 39.321 131.593 39.321 131.485 39.2149L130.767 38.5123C127.745 35.5528 122.844 35.5528 119.821 38.5123L119.053 39.2647C118.944 39.3708 118.769 39.3708 118.66 39.2647L116.877 37.5182C116.66 37.3061 116.66 36.9622 116.877 36.7501L117.449 36.1897ZM136.829 39.8017L138.416 41.3561C138.633 41.5682 138.633 41.9121 138.416 42.1243L131.258 49.1332C131.041 49.3454 130.69 49.3454 130.473 49.1332L125.392 44.1587C125.338 44.1057 125.25 44.1057 125.196 44.1587L120.116 49.1332C119.899 49.3454 119.548 49.3454 119.331 49.1332L112.172 42.1241C111.956 41.9121 111.956 41.5681 112.172 41.356L113.76 39.8016C113.977 39.5895 114.328 39.5895 114.544 39.8016L119.625 44.7762C119.679 44.8292 119.767 44.8292 119.821 44.7762L124.902 39.8016C125.119 39.5895 125.47 39.5895 125.686 39.8016V39.8016L130.767 44.7762C130.822 44.8292 130.909 44.8292 130.963 44.7762L136.044 39.8017C136.261 39.5896 136.612 39.5896 136.829 39.8017Z" fill="#3B99FC"/>
</g>
<defs>
<clipPath id="clip0_401_169">
<rect width="50" height="30.6701" fill="white" transform="translate(20 26)"/>
</clipPath>
<clipPath id="clip1_401_169">
<rect width="100" height="16.3125" fill="white" transform="translate(112 33)"/>
</clipPath>
</defs>
</svg>
