<svg width="250" height="82" viewBox="0 0 250 82" fill="none" xmlns="http://www.w3.org/2000/svg">
<path d="M49.6002 26.4864C49.5436 28.7369 47.9575 31.9438 45.2952 31.9438C43.6523 31.9438 42.2929 30.5935 42.2929 28.9619V28.9057C42.2361 26.2613 41.0467 23.9546 39.1773 22.323C37.7612 21.1415 36.0051 20.3538 34.0791 20.1288C35.7219 18.4409 38.0444 17.4282 40.5934 17.4282C43.8223 17.4282 46.7679 19.2849 48.4673 21.9854C49.2604 23.3357 49.6569 24.9673 49.6002 26.4864Z" fill="#175FFF"/>
<path d="M39.0642 26.7114C40.4802 28.5117 41.3301 31.9437 39.2908 33.6316C37.9879 34.7006 36.1186 34.5318 35.0423 33.294C33.2862 31.3248 30.8504 30.3121 28.4146 30.2559C26.5453 30.1996 24.6759 30.7622 23.0898 31.8312C23.2598 29.5245 24.3361 27.2177 26.3187 25.5861C28.8678 23.5044 32.4365 22.8856 35.4954 24.1233C36.9116 24.6297 38.1578 25.5299 39.0642 26.7114Z" fill="#175FFF"/>
<path d="M31.1336 33.5755C33.3428 34.0256 36.2884 36.1635 35.8352 38.7516C35.552 40.3832 33.9659 41.4522 32.3232 41.1709H32.2665C29.6608 40.777 27.1117 41.5647 25.2423 43.0838C23.8262 44.2089 22.6932 45.8407 22.1834 47.6972C20.8239 45.7843 20.2008 43.3651 20.5973 40.8334C21.2204 37.6263 23.5429 34.9258 26.7152 33.8568C28.1313 33.4067 29.7174 33.2942 31.1336 33.5755Z" fill="#175FFF"/>
<path d="M29.4908 43.9274C31.4734 42.8586 35.0988 42.6334 36.4017 44.884C37.2514 46.2905 36.7415 48.147 35.3254 48.9911C33.0595 50.3413 31.6433 52.5355 31.1335 54.9547C30.7937 56.7551 30.9636 58.668 31.8133 60.4122C29.5474 59.8495 27.4515 58.3868 26.2053 56.1926C24.5625 53.3232 24.6192 49.7788 26.3186 46.9657C27.1116 45.6716 28.1879 44.6026 29.4908 43.9274Z" fill="#175FFF"/>
<path d="M34.9285 52.8734C35.7782 50.7917 38.384 48.3161 40.8198 49.2163C42.4059 49.779 43.199 51.523 42.6325 53.0422C41.7827 55.5176 42.1227 58.1057 43.3123 60.2438C44.2186 61.8753 45.5781 63.1694 47.3342 64.0132C45.1815 65.0259 42.689 65.2511 40.31 64.3509C37.1944 63.2255 34.9285 60.4688 34.4187 57.2055C34.2488 55.7428 34.4187 54.2236 34.9285 52.8734Z" fill="#175FFF"/>
<path d="M44.8987 56.2488C44.1623 54.1109 44.5589 50.5663 47.0512 49.6661C48.6373 49.1036 50.3368 49.8913 50.9033 51.4665C51.8662 53.8859 53.7922 55.6863 56.1147 56.5865C57.8141 57.2615 59.7968 57.374 61.666 56.924C60.7031 59.0618 58.8904 60.8061 56.5112 61.7063C53.3956 62.8315 49.827 62.1563 47.3912 59.962C46.2583 58.8932 45.352 57.6553 44.8987 56.2488Z" fill="#175FFF"/>
<path d="M54.7552 52.4796C52.8293 51.2981 50.79 48.3161 52.1495 46.0658C52.9993 44.6592 54.812 44.1529 56.2847 44.9406C58.6072 46.1783 61.2129 46.3471 63.5922 45.5594C65.3481 44.9406 66.9343 43.8152 68.0672 42.24C68.6902 44.4904 68.4637 46.966 67.1608 49.1602C65.5181 52.0294 62.3458 53.7736 59.0604 53.6611C57.4743 53.6611 55.9449 53.2673 54.7552 52.4796Z" fill="#175FFF"/>
<path d="M59.853 43.3084C57.5871 43.6461 54.1317 42.6332 53.6786 40.0453C53.3386 38.4699 54.4715 36.8945 56.1144 36.6132H56.1709C58.7767 36.1069 60.8726 34.5316 62.1188 32.4499C63.0819 30.8745 63.5349 29.0179 63.3651 27.105C65.2911 28.399 66.7638 30.4807 67.1603 32.9562C67.7269 36.1632 66.424 39.5389 63.8749 41.5643C62.6853 42.4645 61.2692 43.1397 59.853 43.3084Z" fill="#175FFF"/>
<path d="M57.8138 33.0691C56.2844 34.7569 52.9988 36.2197 50.9596 34.5319C49.6567 33.4629 49.4867 31.6063 50.563 30.3123C52.2057 28.2868 52.8288 25.6988 52.4322 23.2795C52.1492 21.4791 51.2994 19.735 49.9399 18.3285C52.2624 18.1034 54.6982 18.7786 56.6809 20.4102C59.2299 22.4918 60.4195 25.9238 59.7397 29.1308C59.4565 30.5936 58.7767 32.0001 57.8138 33.0691Z" fill="#175FFF"/>
<g clipPath="url(#clip0_401_2160)">
<path d="M182.332 31.8573C183.635 31.8573 184.646 30.8254 184.646 29.529C184.646 28.2589 183.635 27.2271 182.332 27.2271C181.056 27.2271 179.992 28.2589 179.992 29.529C179.966 30.8254 181.056 31.8573 182.332 31.8573Z" fill="#2C3242"/>
<path d="M162.388 33.4711H165.872V35.5878C166.749 34.3177 168.691 33.1536 170.977 33.1536C175.312 33.1536 178.609 36.8313 178.609 41.3558C178.609 45.8538 175.312 49.5579 170.977 49.5579C168.691 49.5579 166.776 48.3938 165.872 47.1238V55.8286H162.388V33.4711ZM170.339 36.3021C167.52 36.3021 165.579 38.4982 165.579 41.3558C165.579 44.1868 167.52 46.4094 170.339 46.4094C173.131 46.4094 175.073 44.2133 175.073 41.3558C175.073 38.5247 173.131 36.3021 170.339 36.3021Z" fill="#2C3242"/>
<path d="M186.64 33.4711H190.124V35.6142C191.081 34.0267 192.889 33.1536 194.937 33.1536C198.606 33.1536 201 35.7465 201 39.7418V49.2404H197.516V40.3239C197.516 37.8367 196.239 36.3286 194.219 36.3286C191.905 36.3286 190.124 38.1278 190.124 41.488V49.2404H186.64V33.4711Z" fill="#2C3242"/>
<path d="M135.849 33.1538C133.802 33.1538 131.994 34.0269 131.036 35.6145V27.2271H127.553V49.2407H131.036V41.4883C131.036 38.128 132.818 36.3288 135.131 36.3288C137.152 36.3288 138.429 37.837 138.429 40.3241V49.2407H141.912V39.742C141.886 35.7467 139.519 33.1538 135.849 33.1538Z" fill="#2C3242"/>
<path d="M184.034 33.4712H180.551V49.2406H184.034V33.4712Z" fill="#2C3242"/>
<path d="M152.15 49.5579C147.47 49.5579 143.854 45.9331 143.854 41.3558C143.854 36.7784 147.47 33.1536 152.15 33.1536C156.83 33.1536 160.447 36.7784 160.447 41.3558C160.447 45.9331 156.83 49.5579 152.15 49.5579ZM152.15 46.33C154.942 46.33 156.91 44.1603 156.91 41.3558C156.91 38.5512 154.942 36.3815 152.15 36.3815C149.332 36.3815 147.364 38.5512 147.364 41.3558C147.364 44.1603 149.332 46.33 152.15 46.33Z" fill="#2C3242"/>
<path d="M114.867 31.4441C114.84 32.4984 114.097 34.0008 112.85 34.0008C112.08 34.0008 111.444 33.3682 111.444 32.6038V32.5775C111.417 31.3387 110.86 30.2581 109.984 29.4937C109.321 28.9402 108.498 28.5712 107.596 28.4658C108.365 27.6751 109.453 27.2007 110.647 27.2007C112.16 27.2007 113.54 28.0705 114.336 29.3356C114.708 29.9682 114.893 30.7325 114.867 31.4441Z" fill="#175FFF"/>
<path d="M109.931 31.5494C110.594 32.3928 110.992 34.0006 110.037 34.7913C109.427 35.292 108.551 35.213 108.047 34.6331C107.224 33.7106 106.083 33.2362 104.942 33.2099C104.066 33.1835 103.19 33.4471 102.447 33.9478C102.527 32.8672 103.031 31.7866 103.96 31.0222C105.154 30.047 106.826 29.7571 108.259 30.3369C108.922 30.5742 109.506 30.9959 109.931 31.5494Z" fill="#175FFF"/>
<path d="M106.216 34.7652C107.251 34.9761 108.631 35.9776 108.418 37.1901C108.286 37.9544 107.543 38.4552 106.773 38.3234H106.746C105.526 38.1389 104.332 38.5079 103.456 39.2195C102.792 39.7466 102.262 40.5111 102.023 41.3808C101.386 40.4847 101.094 39.3513 101.28 38.1653C101.572 36.6629 102.66 35.3978 104.146 34.897C104.809 34.6861 105.552 34.6334 106.216 34.7652Z" fill="#175FFF"/>
<path d="M105.446 39.6146C106.375 39.1139 108.073 39.0084 108.684 40.0627C109.082 40.7216 108.843 41.5913 108.18 41.9868C107.118 42.6193 106.455 43.6472 106.216 44.7805C106.057 45.624 106.136 46.5201 106.534 47.3372C105.473 47.0736 104.491 46.3884 103.907 45.3604C103.138 44.0162 103.164 42.3558 103.96 41.0379C104.332 40.4317 104.836 39.9309 105.446 39.6146Z" fill="#175FFF"/>
<path d="M107.994 43.8055C108.392 42.8303 109.613 41.6705 110.754 42.0923C111.497 42.3559 111.868 43.1729 111.603 43.8846C111.205 45.0442 111.364 46.2567 111.921 47.2583C112.346 48.0226 112.983 48.6288 113.805 49.0241C112.797 49.4986 111.629 49.6041 110.515 49.1823C109.055 48.6551 107.994 47.3637 107.755 45.835C107.675 45.1497 107.755 44.438 107.994 43.8055Z" fill="#175FFF"/>
<path d="M112.664 45.3867C112.319 44.3852 112.505 42.7246 113.672 42.3029C114.415 42.0394 115.212 42.4084 115.477 43.1463C115.928 44.2798 116.83 45.1232 117.918 45.5449C118.714 45.8611 119.643 45.9138 120.519 45.703C120.068 46.7045 119.219 47.5216 118.104 47.9434C116.645 48.4705 114.973 48.1542 113.832 47.1262C113.301 46.6255 112.876 46.0456 112.664 45.3867Z" fill="#175FFF"/>
<path d="M117.282 43.6212C116.379 43.0676 115.424 41.6707 116.061 40.6165C116.459 39.9576 117.308 39.7203 117.998 40.0894C119.086 40.6692 120.307 40.7483 121.421 40.3793C122.244 40.0894 122.987 39.5621 123.518 38.8242C123.81 39.8785 123.704 41.0382 123.093 42.0661C122.324 43.4103 120.837 44.2274 119.298 44.1747C118.555 44.1747 117.839 43.9902 117.282 43.6212Z" fill="#175FFF"/>
<path d="M119.67 39.3247C118.608 39.4829 116.99 39.0084 116.777 37.796C116.618 37.058 117.149 36.32 117.918 36.1882H117.945C119.166 35.951 120.148 35.213 120.731 34.2378C121.182 33.4998 121.395 32.63 121.315 31.7339C122.217 32.3401 122.907 33.3153 123.093 34.475C123.359 35.9774 122.748 37.5588 121.554 38.5076C120.997 38.9293 120.333 39.2457 119.67 39.3247Z" fill="#175FFF"/>
<path d="M118.715 34.5278C117.998 35.3185 116.459 36.0038 115.504 35.213C114.893 34.7123 114.814 33.8425 115.318 33.2363C116.087 32.2874 116.379 31.075 116.193 29.9417C116.061 29.0982 115.663 28.2812 115.026 27.6223C116.114 27.5168 117.255 27.8331 118.184 28.5975C119.378 29.5727 119.935 31.1804 119.617 32.6828C119.484 33.3681 119.166 34.027 118.715 34.5278Z" fill="#175FFF"/>
</g>
<defs>
<clipPath id="clip0_401_2160">
<rect width="100" height="28.8288" fill="white" transform="translate(101 27)"/>
</clipPath>
</defs>
</svg>
