<svg width="250" height="82" viewBox="0 0 250 82" fill="none" xmlns="http://www.w3.org/2000/svg">
<g clipPath="url(#clip0_401_2688)">
<path fillRule="evenodd" clipRule="evenodd" d="M70 47.7143L57.5 54.8572V40.5715L45 33.3393L57.5 26.2858L70 33.4286V47.7143Z" fill="#230078"/>
<path fillRule="evenodd" clipRule="evenodd" d="M45 33.4286L32.5 40.5714V26.2857L20 19.1429L32.5 12L45 19.1429V33.4286Z" fill="#230078"/>
<path fillRule="evenodd" clipRule="evenodd" d="M45 62L32.5 69.1428V54.8571L20 47.7143L32.5 40.5714L45 47.7143V62Z" fill="#230078"/>
</g>
<g clipPath="url(#clip1_401_2688)">
<path fillRule="evenodd" clipRule="evenodd" d="M144.649 45.6486H142.135V38.0432H144.649C145.704 38.0432 146.574 38.3957 147.238 39.0947C147.903 39.7996 148.234 40.7185 148.234 41.8497C148.234 42.9742 147.903 43.8998 147.238 44.598C146.574 45.2962 145.704 45.6486 144.649 45.6486ZM144.649 35.5525H139.618V48.1401H144.649C146.376 48.1401 147.836 47.5301 148.994 46.325C150.152 45.12 150.743 43.6137 150.743 41.8497C150.743 40.079 150.153 38.5727 148.994 37.3677C147.836 36.1626 146.376 35.5525 144.649 35.5525ZM156.602 45.996C155.938 45.996 155.37 45.7745 154.934 45.3247C154.492 44.875 154.263 44.2993 154.263 43.6061C154.263 42.9196 154.492 42.3439 154.934 41.8942C155.37 41.4444 155.938 41.2229 156.602 41.2229C157.266 41.2229 157.834 41.4444 158.276 41.8942C158.727 42.3439 158.956 42.9196 158.956 43.6061C158.956 44.2993 158.727 44.875 158.276 45.3247C157.834 45.7745 157.266 45.996 156.602 45.996ZM160.01 40.2125C159.081 39.2902 157.937 38.8253 156.602 38.8253C155.267 38.8253 154.123 39.2902 153.201 40.2125C152.278 41.1347 151.813 42.2777 151.813 43.6061C151.813 44.9412 152.278 46.085 153.201 47.0072C154.123 47.9287 155.267 48.3936 156.602 48.3936C157.937 48.3936 159.081 47.9287 160.01 47.0072C160.933 46.0842 161.404 44.9412 161.404 43.6061C161.404 42.2777 160.932 41.1347 160.01 40.2125ZM171.056 38.9092L167.73 48.1401H164.793L161.436 38.9092H164.129L166.239 45.0024L168.364 38.9092H171.056ZM173.624 42.6981C173.765 42.1896 174.015 41.7835 174.385 41.4964C174.776 41.1935 175.277 41.0382 175.875 41.0382C176.376 41.0382 176.833 41.1859 177.232 41.4746C177.601 41.7465 177.859 42.1526 177.992 42.6981H173.624ZM175.875 38.8253C174.48 38.8253 173.322 39.2826 172.429 40.1907C171.536 41.1053 171.087 42.2483 171.087 43.6061C171.087 44.9781 171.544 46.1287 172.444 47.0366C173.351 47.9363 174.562 48.3936 176.052 48.3936C177.786 48.3936 179.113 47.7449 179.999 46.4534L180.05 46.3871L178.066 45.2441L178.029 45.2945C177.593 45.871 176.937 46.1589 176.089 46.1589C174.783 46.1589 173.986 45.6571 173.669 44.6316H180.36L180.375 44.5645C180.433 44.2329 180.464 43.9082 180.464 43.6061C180.464 42.2634 180.027 41.1196 179.165 40.2049C178.302 39.2902 177.195 38.8253 175.875 38.8253ZM185.188 41.4511V45.0881C185.188 45.375 185.254 45.5824 185.395 45.7074C185.535 45.84 185.749 45.9138 186.029 45.9364C186.155 45.9432 186.294 45.9432 186.442 45.9432C186.648 45.9432 186.877 45.9364 187.128 45.9213H187.202V48.1494L187.135 48.157C186.707 48.2081 186.302 48.2307 185.94 48.2307C184.959 48.2307 184.221 48.0537 183.741 47.6995C183.07 47.2128 182.739 46.3343 182.739 45.0881V41.4511H181.014V39.1887H182.739V37.3047L185.188 36.5596V39.1887H186.888V41.4511H185.188ZM192.569 46.0548C191.876 46.0548 191.301 45.8198 190.858 45.3692C190.409 44.9194 190.18 44.3219 190.18 43.6061C190.18 42.8978 190.409 42.3004 190.858 41.8505C191.301 41.3923 191.884 41.1641 192.57 41.1641C193.257 41.1641 193.839 41.3923 194.297 41.8505C194.746 42.307 194.975 42.8978 194.975 43.6061C194.975 44.3219 194.746 44.9194 194.297 45.3692C193.839 45.819 193.264 46.0548 192.569 46.0548ZM195.003 38.9092V40.0043C194.31 39.2222 193.33 38.8253 192.142 38.8253C190.939 38.8253 189.884 39.2902 189.028 40.2125C188.166 41.1347 187.73 42.2777 187.73 43.6061C187.73 44.9412 188.166 46.085 189.029 47.0072C189.885 47.9295 190.932 48.3936 192.142 48.3936C193.33 48.3936 194.31 47.911 195.003 47.1289V48.1401H197.521V38.9092H195.003ZM199.348 37.2217C199.209 37.0885 199.099 36.9282 199.024 36.7506C198.949 36.5731 198.911 36.3821 198.914 36.1895C198.914 35.7968 199.059 35.4477 199.348 35.1573C199.638 34.8586 199.979 34.7134 200.372 34.7134C200.778 34.7134 201.126 34.8586 201.415 35.1565C201.705 35.4477 201.851 35.7968 201.851 36.1886C201.851 36.5822 201.705 36.9305 201.415 37.2208C201.279 37.3589 201.117 37.4682 200.937 37.542C200.758 37.6157 200.565 37.6527 200.372 37.6504C200.181 37.6514 199.992 37.6139 199.816 37.5402C199.64 37.4665 199.481 37.3582 199.348 37.2217ZM199.199 48.1401H201.716V38.9092H199.199V48.1401ZM203.395 48.1401H205.912V34.7134H203.395V48.1401Z" fill="#230078"/>
<path fillRule="evenodd" clipRule="evenodd" d="M129.548 44.7835L123.673 48.1401V41.4268L117.799 38.0332L123.673 34.7134L129.548 38.0701V44.7835ZM117.798 38.0701L111.924 41.4268V34.7134L106.051 31.3567L111.925 28L117.798 31.3567V38.0701ZM117.798 51.4968L111.924 54.8535L111.925 48.1401L106.051 44.7835L111.924 41.4268L117.798 44.7835V51.4968Z" fill="#230078"/>
</g>
<defs>
<clipPath id="clip0_401_2688">
<rect width="50" height="57.1429" fill="white" transform="translate(20 12)"/>
</clipPath>
<clipPath id="clip1_401_2688">
<rect width="100" height="26.8535" fill="white" transform="translate(106 28)"/>
</clipPath>
</defs>
</svg>
