<svg width="250" height="82" viewBox="0 0 250 82" fill="none" xmlns="http://www.w3.org/2000/svg">
<g clipPath="url(#clip0_401_3352)">
<path d="M32.7221 57.5737C32.3676 57.6138 32.0365 57.7705 31.7809 58.0193C31.5292 58.2647 31.3698 58.5893 31.3294 58.9384C31.3294 58.9605 31.3294 58.9825 31.3265 59.0061V58.984C31.3227 59.025 31.3208 59.0663 31.3206 59.1075V63.7458C31.3208 63.95 31.2795 64.1524 31.1991 64.3402C31.1187 64.528 31.0009 64.6975 30.8529 64.8384C30.552 65.1309 30.1476 65.2927 29.7279 65.2884H21.5912C21.3793 65.2883 21.1695 65.2468 20.9735 65.1664C20.6874 65.0502 20.4415 64.8528 20.2662 64.5987C20.0938 64.3475 20.001 64.0503 20 63.7458V40.1502C20.0044 32.6913 23.5176 26.034 29.0235 21.6502L29.0279 21.6458C29.1294 21.5663 29.2294 21.4869 29.3309 21.4105L29.3485 21.3958C29.5515 21.2399 29.7574 21.0869 29.9662 20.9399L30.0191 20.9002L30.2985 20.7031L30.3279 20.6825C30.4309 20.6105 30.5338 20.5413 30.6382 20.4708L30.6941 20.434L30.95 20.2619L31.0265 20.2134C31.2853 20.0472 31.5471 19.8855 31.8118 19.7281L31.8235 19.7208C31.9794 19.6266 32.1397 19.534 32.3029 19.4443L32.3162 19.4369C32.4779 19.3458 32.6426 19.2561 32.8074 19.1678L32.8132 19.1649C35.0193 17.9937 37.3888 17.1614 39.8426 16.6958H39.85L40.1147 16.6472L40.1471 16.6413L40.3941 16.5972L40.4456 16.5899L40.6809 16.5531L40.7485 16.5428L40.9691 16.5105L41.0515 16.4987C41.1215 16.4883 41.1916 16.4785 41.2618 16.4693L41.3529 16.4575L41.5559 16.4325L41.6588 16.4208L41.85 16.3987L41.9647 16.3869L42.1456 16.3693L42.2691 16.3575L42.4456 16.3428L42.5779 16.3325L42.7485 16.3178L42.8882 16.309L43.0515 16.2987L43.2015 16.2899L43.3574 16.2825L43.5176 16.2752L43.6647 16.2693L43.8412 16.2634L43.9735 16.2605L44.175 16.2546H44.5941C58.1824 16.2546 69.1824 26.9546 69.1868 40.1546V63.7458C69.1872 63.95 69.1462 64.1521 69.066 64.34C68.9859 64.5278 68.8684 64.6974 68.7206 64.8384C68.4196 65.1309 68.0153 65.2927 67.5956 65.2884H59.4588C59.0382 65.2884 58.6338 65.1266 58.3353 64.8369C58.1884 64.6956 58.0713 64.5262 57.9909 64.3387C57.9106 64.1513 57.8687 63.9497 57.8676 63.7458V59.1031C57.8676 58.6943 57.6985 58.3016 57.4 58.0119C57.0984 57.7212 56.6954 57.5593 56.2765 57.5605H44.5941L32.7221 57.5722V57.5737ZM57.8691 39.1649C57.8691 32.0428 51.925 26.2693 44.5941 26.2693C43.4763 26.2696 42.3626 26.4064 41.2779 26.6766C39.3037 27.1691 37.4679 28.1056 35.9103 29.4149C34.4767 30.6154 33.3211 32.1133 32.5235 33.8046C31.7338 35.4816 31.325 37.3127 31.3265 39.1663C31.3265 46.2884 37.2632 52.0605 44.5912 52.0605C51.925 52.0605 57.8676 46.2884 57.8676 39.1649H57.8691Z" fill="#171A1E"/>
</g>
<path d="M213.076 43.0789V42.6216H207.917C205.173 42.6216 203.383 43.8876 203.383 45.9614C203.383 47.7905 204.881 48.9517 207.22 48.9517C210.918 48.9517 213.075 46.7255 213.075 43.0789H213.076ZM216 39.6313V51.0643H213.076V48.0002C212.087 50.041 209.636 51.341 206.782 51.341C202.907 51.341 200.383 49.2352 200.383 45.9973C200.383 42.6196 203.272 40.4692 207.735 40.4692H211.903C212.716 40.4692 213.076 40.0827 213.076 39.5196C213.076 37.0925 211.283 35.4391 208.136 35.4391C205.427 35.4391 203.311 37.0585 203.164 38.9925H200.383C200.713 35.5711 204.077 33.0487 208.209 33.0487C213.002 33.0546 216 35.6895 216 39.6293V39.6313ZM193.586 42.1983C193.586 38.1886 191.17 35.5886 187.476 35.5886C183.782 35.5886 181.331 38.1895 181.331 42.1983C181.331 46.208 183.768 48.8138 187.476 48.8138C191.184 48.8138 193.586 46.1992 193.586 42.1983ZM178.333 42.1983C178.333 37.0284 181.478 33.0565 187.219 33.0565C189.819 33.0565 192.231 34.3225 193.328 36.2148V24.1555H196.255V51.0633H193.328V48.1439C192.245 50.0789 189.808 51.342 187.219 51.342C181.478 51.342 178.333 47.3672 178.333 42.1973V42.1983ZM171.707 43.0798V42.6226H166.561C163.818 42.6226 162.025 43.8886 162.025 45.9624C162.025 47.7915 163.525 48.9526 165.868 48.9526C169.54 48.9526 171.707 46.7264 171.707 43.0798ZM174.634 39.6313V51.0643H171.707V48.0002C170.72 50.041 168.27 51.341 165.416 51.341C161.54 51.341 159.017 49.2352 159.017 45.9973C159.017 42.6196 161.906 40.4692 166.366 40.4692H170.537C171.35 40.4692 171.707 40.0827 171.707 39.5196C171.707 37.0925 169.917 35.4391 166.77 35.4391C164.061 35.4391 161.941 37.0585 161.795 38.9925H159.017C159.344 35.5711 162.71 33.0487 166.843 33.0487C171.633 33.0546 174.634 35.6895 174.634 39.6293V39.6313Z" fill="#171A1E"/>
<path d="M124.399 51.4465C124.165 51.4729 123.946 51.5764 123.778 51.7407C123.612 51.9027 123.506 52.1169 123.48 52.3475C123.48 52.3621 123.48 52.3766 123.478 52.3922V52.3776C123.475 52.4047 123.474 52.4319 123.474 52.4592V55.5213C123.474 55.6561 123.447 55.7896 123.394 55.9137C123.341 56.0377 123.263 56.1496 123.165 56.2427C122.966 56.4357 122.699 56.5425 122.422 56.5397H117.05C116.911 56.5396 116.772 56.5123 116.643 56.4591C116.454 56.3825 116.291 56.2522 116.176 56.0844C116.062 55.9186 116.001 55.7224 116 55.5213V39.9436C116.003 35.0194 118.322 30.6242 121.957 27.73L121.96 27.7271C122.027 27.6746 122.093 27.6222 122.16 27.5717L122.172 27.562C122.306 27.4591 122.442 27.3581 122.58 27.261L122.615 27.2348L122.799 27.1047L122.818 27.0911C122.886 27.0436 122.954 26.9979 123.023 26.9513L123.06 26.9271L123.229 26.8135L123.28 26.7814C123.45 26.6717 123.623 26.5649 123.798 26.461L123.806 26.4562C123.909 26.3941 124.015 26.3329 124.122 26.2737L124.131 26.2688C124.238 26.2086 124.347 26.1494 124.455 26.0911L124.459 26.0892C125.916 25.316 127.48 24.7665 129.1 24.4591H129.105L129.28 24.4271L129.301 24.4232L129.464 24.3941L129.498 24.3892L129.653 24.3649L129.698 24.3581L129.844 24.3368L129.898 24.329C129.944 24.3222 129.991 24.3157 130.037 24.3096L130.097 24.3018L130.231 24.2853L130.299 24.2776L130.425 24.263L130.501 24.2552L130.62 24.2436L130.702 24.2358L130.818 24.2261L130.906 24.2193L131.018 24.2096L131.111 24.2038L131.218 24.197L131.317 24.1911L131.42 24.1863L131.526 24.1814L131.623 24.1776L131.74 24.1737L131.827 24.1717L131.96 24.1678H132.237C141.208 24.1678 148.47 31.2319 148.473 39.9465V55.5213C148.473 55.656 148.446 55.7895 148.393 55.9135C148.34 56.0376 148.263 56.1495 148.165 56.2427C147.966 56.4357 147.699 56.5425 147.422 56.5397H142.05C141.773 56.5397 141.506 56.4329 141.309 56.2417C141.212 56.1483 141.134 56.0364 141.081 55.9127C141.028 55.789 141.001 55.6559 141 55.5213V52.4562C141 52.1863 140.888 51.9271 140.691 51.7359C140.492 51.5439 140.226 51.437 139.95 51.4378H132.237L124.399 51.4456V51.4465ZM141.001 39.2931C141.001 34.5912 137.077 30.7795 132.237 30.7795C131.499 30.7797 130.764 30.87 130.048 31.0484C128.744 31.3736 127.532 31.9918 126.504 32.8562C125.557 33.6488 124.794 34.6376 124.268 35.7543C123.747 36.8614 123.477 38.0702 123.478 39.2941C123.478 43.996 127.397 47.8067 132.235 47.8067C137.077 47.8067 141 43.996 141 39.2931H141.001Z" fill="#171A1E"/>
<defs>
<clipPath id="clip0_401_3352">
<rect width="50" height="50" fill="white" transform="translate(20 16)"/>
</clipPath>
</defs>
</svg>
