<svg width="250" height="82" viewBox="0 0 250 82" fill="none" xmlns="http://www.w3.org/2000/svg">
<g clip-path="url(#clip0_401_1038)">
<path d="M45 66C58.8071 66 70 54.8071 70 41C70 27.1929 58.8071 16 45 16C31.1929 16 20 27.1929 20 41C20 54.8071 31.1929 66 45 66Z" fill="black"/>
<path fill-rule="evenodd" clip-rule="evenodd" d="M56.0914 52.9869V49.1019C56.0914 48.3269 55.6677 47.9375 54.9658 47.9375C54.1321 47.9375 53.4452 48.5562 53.4158 49.3069V52.9819H52.007V49.0975C52.007 48.3225 51.5833 47.9325 50.8814 47.9325C50.0477 47.9325 49.3608 48.5513 49.3314 49.3019V52.9769H47.9227V46.9037H49.1902L49.3314 47.4206L49.4002 47.4837L49.4677 47.4206C49.7508 47.0306 50.4527 46.7725 51.0177 46.7725C52.0314 46.7725 52.7627 47.1725 53.1333 47.8056L53.4839 47.4156C53.8352 47.0256 54.5414 46.7675 55.1027 46.7675C56.6527 46.7675 57.5002 47.6737 57.5002 48.9656V52.9769H56.0914V52.9869ZM34.6514 34.0706H34.3927V38.2625H33.0083V28.5H36.3714C37.8827 28.5 39.2083 29.5037 39.2083 31.2394C39.2083 32.9106 37.7946 33.9781 36.2833 33.9781L39.3933 37.9894V38.2581H37.8146L34.6514 34.0706ZM36.4496 32.6869C37.2102 32.6869 37.9071 32.1556 37.9071 31.2931C37.9071 30.4306 37.2102 29.8994 36.4496 29.8994H34.4221V32.6869H36.4496Z" fill="white" stroke="white" stroke-width="0.2"/>
<path fill-rule="evenodd" clip-rule="evenodd" d="M32.5723 52.6704L56.466 28.7766L57.2241 29.5335L33.3304 53.4272L32.5723 52.6704Z" fill="white" stroke="white" stroke-width="0.6"/>
</g>
<g clip-path="url(#clip1_401_1038)">
<path d="M90.6449 35.9048C90.7727 35.9539 90.8182 36.2495 90.8182 37.0311V38.0908H90.0037C88.7994 38.0908 87.9628 38.3083 87.4558 38.7534C86.6005 39.5044 86.5951 39.5327 86.5253 43.5832L86.4621 47.2448L85.2311 47.2809L84 47.317V41.6307V35.9443H85.1348H86.2697L86.3477 36.4319C86.4826 37.275 86.583 37.3241 87.1198 36.8096C87.6609 36.2912 88.1909 35.9961 88.8886 35.8249C89.3376 35.7148 90.2588 35.7567 90.6449 35.9048Z" fill="black"/>
<path fill-rule="evenodd" clip-rule="evenodd" d="M98.3301 35.9699C99.3999 36.2397 100.428 36.9595 101.188 37.9704C101.959 38.9964 102.465 40.9587 102.18 41.82L102.036 42.2576H97.7368H93.4374L93.5203 42.7759C93.7719 44.3488 95.1384 45.3475 97.0051 45.3226C98.0844 45.3082 98.7875 45.0114 99.4057 44.3091L99.9082 43.7383L100.856 44.1513C101.377 44.3786 101.803 44.6359 101.803 44.7231C101.803 44.9826 100.714 46.1153 100.062 46.5335C97.1095 48.4281 93.133 47.398 91.6331 44.3504C90.5219 42.0921 90.8889 39.2484 92.5099 37.5565C94.0066 35.9945 96.1309 35.4153 98.3301 35.9699ZM93.7285 39.779C94.0564 38.9163 94.7856 38.2712 95.7347 38.0038C97.3186 37.5576 99.2801 38.4509 99.5995 39.7639L99.684 40.1111H96.6431H93.6023L93.7285 39.779Z" fill="black"/>
<path fill-rule="evenodd" clip-rule="evenodd" d="M110.728 36.0186C111.088 36.118 111.64 36.3955 111.954 36.6355C112.269 36.8755 112.549 37.0312 112.577 36.9816C112.605 36.932 112.698 36.6762 112.783 36.413L112.937 35.9349L114.03 35.9711L115.124 36.0075V41.6262V47.2449L114.023 47.2813L112.921 47.3177L112.837 46.9657C112.647 46.17 112.572 46.1303 112.051 46.5493C111.315 47.1406 110.247 47.4658 109.063 47.4592C105.706 47.4407 103.175 44.969 103.154 41.6893C103.142 39.68 103.898 38.1199 105.449 36.9543C106.934 35.839 108.848 35.4998 110.728 36.0186ZM106.707 38.8167C107.246 38.3123 107.598 38.1287 108.432 37.9168C108.571 37.8816 109.027 37.8704 109.446 37.8918C110.75 37.9589 111.873 38.7038 112.508 39.9216C112.95 40.7685 112.985 42.2774 112.584 43.1478C111.941 44.544 110.804 45.2878 109.313 45.2878C108.088 45.2878 107.313 45.0012 106.595 44.2837C105.886 43.575 105.591 42.788 105.591 41.6084C105.591 40.4123 105.943 39.5308 106.707 38.8167Z" fill="black"/>
<path fill-rule="evenodd" clip-rule="evenodd" d="M128.54 38.1225L128.507 47.2449L127.426 47.2811L126.345 47.3172L126.164 46.7429L125.982 46.1686L125.353 46.617C123.781 47.7383 121.215 47.7482 119.325 46.6404C118.602 46.2169 117.56 45.0992 117.169 44.3284C116.708 43.4178 116.554 42.7197 116.557 41.5606C116.562 39.8183 117.129 38.536 118.434 37.3153C119.371 36.4398 120.282 36.0265 121.727 35.822C123.046 35.6351 124.912 36.0775 125.488 36.7136C126.026 37.3086 126.045 37.1797 126.045 32.9773V29H127.309H128.572L128.54 38.1225ZM119.378 39.7841C119.888 38.814 120.59 38.2585 121.689 37.9542C122.282 37.7902 123.542 37.9067 124.168 38.1836C124.867 38.4928 125.565 39.1929 125.947 39.9688C126.179 40.4394 126.234 40.7617 126.233 41.6263C126.231 42.5417 126.182 42.7923 125.897 43.3308C125.201 44.6456 124.159 45.2806 122.69 45.2851C121.059 45.2901 120.022 44.7047 119.393 43.423C119.083 42.7917 119.038 42.5548 119.039 41.5631C119.04 40.5766 119.085 40.342 119.378 39.7841Z" fill="black"/>
<path d="M133.325 39.6691C134.103 41.683 134.788 43.41 134.848 43.507C134.924 43.628 135.43 42.4671 136.458 39.8138L137.958 35.9444H139.134H140.31L140.059 36.6073C139.922 36.9718 138.512 40.594 136.926 44.6565L134.043 52.0429L132.869 52.0794C131.792 52.1128 131.701 52.0972 131.759 51.89C131.794 51.7657 132.228 50.6246 132.722 49.3541C133.217 48.0837 133.621 46.9757 133.621 46.892C133.62 46.77 132.137 42.9796 129.569 36.5397L129.329 35.9355L130.62 35.9715L131.912 36.0075L133.325 39.6691Z" fill="black"/>
<path d="M148.371 36.0248C148.882 36.165 149.213 36.374 149.751 36.8948L150.459 37.5803L151.129 36.9458C152.18 35.9525 153.272 35.615 154.755 35.8251C156.263 36.0386 157.315 36.791 157.913 38.0844C158.164 38.6274 158.181 38.8979 158.218 42.9882L158.257 47.3174L157.019 47.2812L155.78 47.2449L155.717 43.1354C155.661 39.4929 155.629 38.9876 155.432 38.6873C154.999 38.0276 154.023 37.7348 153.042 37.9703C152.22 38.1674 151.263 39.0483 151.059 39.7954C150.974 40.1044 150.92 41.6626 150.92 43.8088L150.919 47.3171L149.688 47.281L148.457 47.2449L148.394 43.1354C148.338 39.4929 148.305 38.9876 148.109 38.6873C147.393 37.5967 145.416 37.6593 144.327 38.8072C143.659 39.5104 143.596 39.9413 143.596 43.7886V47.308H142.396H141.197V41.6213V35.9346L142.3 35.9711C143.288 36.0038 143.409 36.0339 143.452 36.2601C143.478 36.399 143.552 36.6496 143.616 36.817L143.731 37.1214L144.137 36.7375C145.159 35.7708 146.576 35.5323 148.371 36.0248Z" fill="black"/>
<path fill-rule="evenodd" clip-rule="evenodd" d="M166.991 36.0302C167.323 36.1348 167.877 36.4103 168.222 36.6423L168.849 37.0642L168.99 36.5043L169.131 35.9445H170.252H171.374V41.6312V47.318L170.269 47.2815L169.164 47.245L168.996 46.7134L168.827 46.1819L168.191 46.6197C166.597 47.7165 164.095 47.7571 162.298 46.7154C160.987 45.9548 159.948 44.6248 159.567 43.2186C159.274 42.1343 159.355 40.4668 159.752 39.4364C160.813 36.6855 164.123 35.1276 166.991 36.0302ZM161.83 41.1369C162.022 39.5075 162.842 38.4969 164.366 38.0151C166.061 37.4791 167.861 38.2468 168.702 39.8643C169.105 40.6398 169.123 40.7314 169.073 41.7526C169.013 42.9532 168.761 43.5882 168.067 44.2825C167.385 44.9641 166.538 45.2853 165.419 45.2867C164.572 45.2878 164.353 45.2368 163.662 44.8776C162.324 44.1816 161.637 42.7785 161.83 41.1369Z" fill="black"/>
<path d="M179.581 35.8226C180.812 36.0159 181.821 36.5636 182.724 37.5288C183.148 37.9819 183.495 38.4233 183.495 38.5097C183.495 38.5962 183.064 38.8803 182.537 39.1411L181.578 39.6154L181.089 39.0601C179.792 37.5867 177.165 37.543 175.872 38.9733C174.558 40.4279 174.61 43.1098 175.979 44.4387C176.884 45.3177 178.664 45.5935 179.901 45.0466C180.689 44.6977 180.95 44.4613 181.237 43.8358C181.609 43.0265 181.597 43.0151 180.396 43.0151H179.318L179.355 42.0366L179.391 41.0581L181.564 41.0236L183.736 40.989L183.883 41.4822C183.997 41.8598 183.996 42.177 183.881 42.8356C183.671 44.0449 183.191 44.9776 182.34 45.8305C179.57 48.606 174.653 47.7664 173.009 44.2373C171.831 41.7073 172.607 38.4083 174.723 36.9525C176.26 35.8945 177.783 35.5405 179.581 35.8226Z" fill="black"/>
</g>
<defs>
<clipPath id="clip0_401_1038">
<rect width="50" height="50" fill="white" transform="translate(20 16)"/>
</clipPath>
<clipPath id="clip1_401_1038">
<rect width="100" height="23.1061" fill="white" transform="translate(84 29)"/>
</clipPath>
</defs>
</svg>
