<svg width="250" height="82" viewBox="0 0 250 82" fill="none" xmlns="http://www.w3.org/2000/svg">
<g clipPath="url(#clip0_401_782)">
<path d="M30.8871 19.4867L44.9496 18L59.0121 19.4867L69.8992 34.1017L44.9496 63.1552L20 34.1017L30.8871 19.4867Z" fill="#FDB300"/>
<path d="M30.1058 34.1016L44.9496 63.1551L20 34.1016H30.1058Z" fill="#EA6C00"/>
<path d="M59.7936 34.1016L44.9498 63.1551L69.8994 34.1016H59.7936Z" fill="#EA6C00"/>
<path d="M30.106 34.1016H59.7935L44.9497 63.1551L30.106 34.1016Z" fill="#FDAD00"/>
<path d="M44.9497 18L30.8872 19.4867L30.106 34.1017L44.9497 18Z" fill="#FDD231"/>
<path d="M44.9497 18L59.0122 19.4867L59.7935 34.1017L44.9497 18Z" fill="#FDD231"/>
<path d="M69.8994 34.1015L59.0122 19.4866L59.7936 34.1015H69.8994Z" fill="#FDAD00"/>
<path d="M20 34.1015L30.8871 19.4866L30.1058 34.1015H20Z" fill="#FDAD00"/>
<path d="M44.9497 18L30.106 34.1017H59.7935L44.9497 18Z" fill="#FEEEB7"/>
</g>
<g clipPath="url(#clip1_401_782)">
<path fillRule="evenodd" clipRule="evenodd" d="M128.912 45.0429L128.893 44.7859H128.636H127.036H126.746L126.758 45.075C126.89 48.2965 129.062 50.4303 132.924 50.4303C136.608 50.4303 139.113 48.5163 139.113 45.6192C139.113 44.0526 138.57 42.9441 137.534 42.187C136.738 41.6046 135.785 41.2763 134.205 40.9338C134.1 40.9109 133.99 40.8875 133.858 40.8598C133.78 40.8433 133.499 40.7845 133.514 40.7877C130.645 40.1863 129.736 39.6639 129.736 38.1081C129.736 36.4993 131.051 35.4748 133.258 35.4748C135.405 35.4748 136.761 36.7859 136.824 38.8499L136.833 39.1192H137.102H138.68H138.964L138.958 38.835C138.883 35.6177 136.725 33.4525 133.236 33.4525C129.816 33.4525 127.558 35.5103 127.558 38.1748C127.558 39.7369 128.101 40.8247 129.138 41.5515C129.928 42.1053 130.843 42.3988 132.458 42.7248C132.534 42.7401 132.613 42.7558 132.707 42.7745C132.765 42.786 132.83 42.799 132.954 42.8233C134.482 43.1257 135.156 43.3122 135.771 43.6699C136.534 44.1138 136.913 44.748 136.913 45.7303C136.913 47.4358 135.479 48.4081 132.969 48.4081C130.565 48.4081 129.074 47.2028 128.912 45.0429ZM143.613 33.1748V32.897H143.336H141.758H141.48V33.1748V49.8414V50.1192H141.758H143.336H143.613V49.8414V46.8698L145.859 44.6827L149.869 50.0085L149.952 50.1192H150.091H152.047H152.606L152.268 49.6735L147.37 43.2225L151.887 38.7272L152.364 38.2525H151.691H149.58H149.464L149.383 38.3346L143.613 44.1452V33.1748ZM163.547 44.9192H163.807L163.824 44.6587C163.827 44.6129 163.831 44.5372 163.835 44.446C163.838 44.3738 163.841 44.3034 163.843 44.2369C163.846 44.1648 163.847 44.0992 163.847 44.0414C163.847 40.5548 161.537 37.9859 158.124 37.9859C154.718 37.9859 152.291 40.7205 152.291 44.1748C152.291 47.7293 154.608 50.3859 158.147 50.3859C160.822 50.3859 162.889 48.7983 163.634 46.3901L163.746 46.0303H163.369H161.724H161.528L161.462 46.2152C160.995 47.5332 159.729 48.4081 158.169 48.4081C156.13 48.4081 154.708 47.0076 154.452 44.9192H163.547ZM154.516 43.0748C154.877 41.2048 156.252 39.9636 158.124 39.9636C160.054 39.9636 161.386 41.1641 161.678 43.0748H154.516ZM170.847 40.1414H171.124V39.8636V38.5303V38.2525H170.847H168.524V35.3081V35.0303H168.247H166.669H166.391V35.3081V38.2525H164.513H164.236V38.5303V39.8636V40.1414H164.513H166.391V46.797C166.391 48.9803 167.524 50.1636 169.602 50.1636C169.965 50.1636 170.278 50.1419 170.54 50.1054C170.703 50.0829 170.815 50.0596 170.877 50.0424L171.08 49.9859V49.7748V48.3525V48.0079L170.743 48.0811C170.73 48.084 170.702 48.0896 170.664 48.0969C170.597 48.1092 170.524 48.1217 170.445 48.1333C170.243 48.163 170.043 48.182 169.858 48.1853C169.839 48.1857 169.821 48.1859 169.802 48.1859C168.892 48.1859 168.524 47.7582 168.524 46.6859V40.1414H170.847ZM177.48 50.3859C180.433 50.3859 182.518 48.5173 183.041 45.8732L183.107 45.5414H182.769H181.169H180.955L180.9 45.7478C180.452 47.4352 179.234 48.4081 177.48 48.4081C175.291 48.4081 173.78 46.6809 173.78 44.197C173.78 41.6938 175.288 39.9636 177.48 39.9636C179.234 39.9636 180.452 40.9365 180.9 42.6239L180.955 42.8303H181.169H182.769H183.107L183.041 42.4986C182.518 39.8544 180.433 37.9859 177.48 37.9859C174.05 37.9859 171.624 40.7398 171.624 44.197C171.624 47.6351 174.053 50.3859 177.48 50.3859ZM187.036 33.1748V32.897H186.758H185.18H184.902V33.1748V49.8414V50.1192H185.18H186.758H187.036V49.8414V43.1525C187.036 41.1145 188.276 39.9192 190.158 39.9192C191.955 39.9192 192.858 40.9596 192.858 42.9303V49.8414V50.1192H193.136H194.713H194.991V49.8414V42.6192C194.991 39.8355 193.267 37.9859 190.424 37.9859C188.962 37.9859 187.786 38.5217 187.036 39.2908V33.1748Z" fill="black"/>
<path fillRule="evenodd" clipRule="evenodd" d="M100.53 30.7491L107.673 30L114.816 30.7491L120.346 38.1128L107.673 52.7513L95 38.1128L100.53 30.7491Z" fill="#FDB300"/>
<path fillRule="evenodd" clipRule="evenodd" d="M100.133 38.1128L107.673 52.7514L95 38.1128H100.133Z" fill="#EA6C00"/>
<path fillRule="evenodd" clipRule="evenodd" d="M115.213 38.1128L107.673 52.7514L120.346 38.1128H115.213Z" fill="#EA6C00"/>
<path fillRule="evenodd" clipRule="evenodd" d="M100.133 38.1128H115.213L107.673 52.7514L100.133 38.1128Z" fill="#FDAD00"/>
<path fillRule="evenodd" clipRule="evenodd" d="M107.673 30L100.53 30.7489L100.133 38.1127L107.673 30Z" fill="#FDD231"/>
<path fillRule="evenodd" clipRule="evenodd" d="M107.673 30L114.816 30.7489L115.213 38.1127L107.673 30Z" fill="#FDD231"/>
<path fillRule="evenodd" clipRule="evenodd" d="M120.346 38.1128L114.816 30.749L115.213 38.1128H120.346Z" fill="#FDAD00"/>
<path fillRule="evenodd" clipRule="evenodd" d="M95 38.1128L100.53 30.749L100.133 38.1128H95Z" fill="#FDAD00"/>
<path fillRule="evenodd" clipRule="evenodd" d="M107.673 30L100.133 38.1127H115.213L107.673 30Z" fill="#FEEEB7"/>
</g>
<defs>
<clipPath id="clip0_401_782">
<rect width="50" height="45.1777" fill="white" transform="translate(20 18)"/>
</clipPath>
<clipPath id="clip1_401_782">
<rect width="100" height="22.7513" fill="white" transform="translate(95 30)"/>
</clipPath>
</defs>
</svg>
