<svg width="250" height="82" viewBox="0 0 250 82" fill="none" xmlns="http://www.w3.org/2000/svg">
<path d="M38.6758 51.375L20 63.5647V31.1897L38.6758 19V51.375Z" fill="#4341DC"/>
<path d="M68.8338 51.375L50.1582 63.5647V31.1897L68.8338 19V51.375Z" fill="#00B6B6"/>
<g clip-path="url(#clip0_401_540)">
<path d="M137.075 43.3624C137.075 43.7588 136.961 44.0973 136.735 44.3682C136.509 44.6394 136.206 44.7712 135.808 44.7712C135.357 44.7712 135.009 44.6294 134.775 44.3502C134.537 44.068 134.417 43.6223 134.417 43.0256V39.8626H138.209V38.1432H134.417V34.8123L132.467 36.0854V38.1432H130.695V39.8626H132.467V43.1142C132.467 44.2126 132.765 45.0797 133.353 45.6912C133.941 46.3036 134.767 46.6142 135.808 46.6142C136.466 46.6142 137.041 46.4682 137.515 46.18C137.989 45.8919 138.36 45.4961 138.619 45.0038C138.876 44.5125 139.007 43.9602 139.007 43.3624H137.075Z" fill="#364372"/>
<path d="M145.887 44.0057C145.528 44.3073 145.151 44.5396 144.769 44.6958C144.389 44.8516 144.015 44.9304 143.659 44.9304C143.238 44.9304 142.908 44.8394 142.678 44.6601C142.45 44.482 142.339 44.2544 142.339 43.9647C142.339 43.64 142.463 43.3928 142.72 43.2089C142.98 43.0225 143.379 42.9282 143.907 42.9282H146.379V43.5244C146.225 43.699 146.061 43.8596 145.887 44.0057ZM146.603 38.4248C146.046 38.1321 145.354 37.9836 144.545 37.9836C143.83 37.9836 143.189 38.1108 142.641 38.3615C142.09 38.6128 141.64 38.9712 141.305 39.4266C140.969 39.8825 140.762 40.4232 140.691 41.0334L142.639 41.0519C142.718 40.6224 142.926 40.2931 143.259 40.0735C143.595 39.851 144.028 39.7382 144.545 39.7382C145.128 39.7382 145.586 39.8847 145.903 40.174C146.218 40.4617 146.379 40.8548 146.379 41.342V41.4393H143.818C142.722 41.4393 141.857 41.6761 141.246 42.1432C140.63 42.6144 140.324 43.2632 140.336 44.0724C140.348 44.6023 140.492 45.0641 140.764 45.445C141.035 45.8251 141.408 46.1183 141.871 46.3166C142.331 46.5141 142.843 46.6141 143.393 46.6141C143.943 46.6141 144.47 46.5019 144.96 46.2807C145.448 46.0606 145.872 45.7794 146.218 45.4448C146.274 45.3904 146.328 45.3357 146.379 45.2805V46.4546H148.328V41.4129C148.328 40.7434 148.18 40.1455 147.886 39.6363C147.591 39.1263 147.16 38.7186 146.603 38.4248Z" fill="#364372"/>
<path d="M155.603 37.9836C154.886 37.9836 154.222 38.1685 153.63 38.5334C153.18 38.8106 152.799 39.207 152.493 39.7159V38.1431H150.543V46.4547H152.493V43.2559C152.493 42.4999 152.602 41.8581 152.816 41.3483C153.029 40.8424 153.328 40.4583 153.706 40.2062C154.084 39.9544 154.525 39.8267 155.018 39.8267C155.658 39.8267 156.149 40.0106 156.478 40.3736C156.809 40.7381 156.976 41.2608 156.976 41.9268V46.4547H158.925V41.4483C158.925 40.3253 158.615 39.4577 158.003 38.8693C157.391 38.2816 156.584 37.9836 155.603 37.9836Z" fill="#364372"/>
<path d="M166.674 44.4518C166.289 44.6755 165.831 44.7889 165.314 44.7889C164.83 44.7889 164.383 44.6867 163.986 44.4855C163.591 44.2851 163.281 43.992 163.064 43.6147C162.846 43.2366 162.735 42.7942 162.735 42.2991C162.735 41.7927 162.846 41.347 163.063 40.9746C163.281 40.603 163.591 40.3132 163.986 40.1127C164.383 39.9113 164.83 39.8091 165.314 39.8091C165.832 39.8091 166.289 39.9227 166.674 40.1464C167.057 40.3699 167.36 40.6693 167.572 41.0364C167.785 41.4036 167.892 41.8165 167.892 42.2637V42.3346C167.892 42.7703 167.785 43.1804 167.572 43.5531C167.36 43.9258 167.057 44.2281 166.674 44.4518ZM167.892 35.5349V39.3404C167.581 38.9454 167.205 38.6323 166.769 38.4069C166.224 38.1263 165.592 37.9838 164.888 37.9838C164.09 37.9838 163.368 38.1624 162.74 38.5144C162.113 38.8672 161.613 39.3731 161.254 40.0183C160.897 40.6628 160.715 41.4302 160.715 42.2991C160.715 43.1561 160.897 43.9175 161.254 44.562C161.613 45.2074 162.113 45.7162 162.74 46.0744C163.367 46.4325 164.089 46.6142 164.888 46.6142C165.592 46.6142 166.228 46.4657 166.778 46.1729C167.208 45.9441 167.581 45.6315 167.892 45.2409V46.4547H169.842V34.2627L167.92 35.5166L167.892 35.5349Z" fill="#364372"/>
<path d="M196.248 39.5496C195.978 39.0389 195.6 38.6458 195.125 38.3813C194.65 38.1176 194.1 37.9836 193.491 37.9836C192.702 37.9836 191.984 38.1957 191.356 38.6143C190.916 38.9078 190.56 39.3364 190.291 39.8932C190.1 39.396 189.814 38.9899 189.436 38.68C188.872 38.218 188.185 37.9836 187.395 37.9836C186.893 37.9836 186.414 38.0714 185.972 38.2449C185.527 38.4192 185.131 38.7053 184.795 39.0951C184.674 39.2357 184.563 39.3929 184.461 39.5666V38.1431H182.512V46.4547H184.461V43.2559C184.461 42.4987 184.555 41.8559 184.742 41.3454C184.925 40.8402 185.192 40.4564 185.534 40.2048C185.877 39.9538 186.3 39.8267 186.792 39.8267C187.361 39.8267 187.81 40.0104 188.127 40.3729C188.446 40.7376 188.608 41.2602 188.608 41.9268V46.4547H190.558V43.2559C190.558 42.4987 190.652 41.8559 190.838 41.3454C191.021 40.84 191.288 40.4561 191.631 40.2048C191.973 39.9538 192.397 39.8267 192.888 39.8267C193.457 39.8267 193.906 40.0104 194.223 40.3729C194.542 40.7376 194.704 41.2602 194.704 41.9268V46.4547H196.654V41.4483C196.654 40.6976 196.517 40.0589 196.248 39.5496Z" fill="#364372"/>
<path d="M174.07 40.9635C174.276 40.5738 174.569 40.2627 174.942 40.0395C175.314 39.8161 175.753 39.7027 176.248 39.7027C176.742 39.7027 177.17 39.807 177.519 40.0131C177.868 40.2191 178.14 40.5003 178.329 40.8487C178.43 41.0363 178.504 41.2396 178.552 41.457H173.871C173.921 41.2838 173.987 41.119 174.07 40.9635ZM178.59 43.7599C178.5 43.9244 178.379 44.0886 178.223 44.2493C178.042 44.4371 177.795 44.5963 177.491 44.7227C177.187 44.8486 176.799 44.9127 176.336 44.9127C175.807 44.9127 175.343 44.7993 174.959 44.5756C174.575 44.3522 174.276 44.0387 174.07 43.6437C173.957 43.427 173.874 43.1936 173.823 42.9459H180.616V42.3698C180.616 41.5601 180.432 40.8138 180.068 40.1514C179.704 39.489 179.189 38.9563 178.539 38.5684C177.888 38.1804 177.117 37.9836 176.248 37.9836C175.426 37.9836 174.668 38.171 173.993 38.5408C173.319 38.9107 172.772 39.4247 172.367 40.0684C171.961 40.7133 171.755 41.4638 171.755 42.2989C171.755 43.1574 171.961 43.9199 172.367 44.5647C172.773 45.2095 173.329 45.7175 174.022 46.0753C174.712 46.4329 175.497 46.614 176.354 46.614C177.163 46.614 177.868 46.4842 178.453 46.2278C179.038 45.9712 179.519 45.6198 179.884 45.183C180.238 44.7593 180.478 44.2801 180.601 43.7599H178.59Z" fill="#364372"/>
<path d="M106.765 45.9281L97 52.3018V35.3737L106.765 29V45.9281Z" fill="#4341DC"/>
<path d="M122.534 45.9281L112.769 52.3018V35.3737L122.534 29V45.9281Z" fill="#00B6B6"/>
</g>
<defs>
<clipPath id="clip0_401_540">
<rect width="100" height="23.5294" fill="white" transform="translate(97 29)"/>
</clipPath>
</defs>
</svg>
