<svg width="250" height="82" viewBox="0 0 250 82" fill="none" xmlns="http://www.w3.org/2000/svg">
<g clip-path="url(#clip0_401_245)">
<path d="M32.9312 18.7558C34.5717 18.4154 38.3161 17.6575 41.2515 17.071C47.8554 15.7513 51.5076 15.6586 53.8121 16.7519C55.9251 17.7547 67.8537 31.7558 69.0655 34.6553C69.5262 35.7581 69.9031 37.4761 69.9031 38.4738C69.9031 40.8334 64.4734 57.8862 63.1138 59.7963C61.288 62.362 59.3588 63.1384 50.6222 64.8233C40.3104 66.8115 38.2442 66.8637 35.5571 65.2047C33.1104 63.694 21.8498 50.38 20.7082 47.648C19.4262 44.5789 19.7149 42.6497 22.9902 32.4171C26.5481 21.303 27.597 19.862 32.9312 18.7558Z" fill="#DD6461"/>
<path d="M55.156 35.1678C53.6138 34.4656 53.1998 31.9128 54.4279 30.6847C55.3621 29.7504 56.5694 29.8426 57.7824 30.9403C59.12 32.151 59.0852 33.5195 57.684 34.7881C56.7537 35.6296 56.3144 35.6959 55.156 35.1678Z" fill="#613433"/>
<path d="M33.8099 39.5611C31.5672 39.5611 30.3801 36.7549 31.9559 35.179C32.3267 34.8083 33.161 34.5049 33.8099 34.5049C36.0526 34.5049 37.2396 37.3111 35.6638 38.8869C35.293 39.2577 34.4587 39.5611 33.8099 39.5611Z" fill="#613433"/>
<path fill-rule="evenodd" clip-rule="evenodd" d="M45.5144 42.3724C39.0459 43.6679 38.0234 44.1982 38.0234 46.2572C38.0234 48.3404 41.5656 51.6168 44.3903 52.1471C46.6251 52.5662 50.3779 51.7561 52.4291 50.4123C55.3083 48.5258 56.9937 43.5876 55.3268 41.9207C54.4184 41.0123 51.6746 41.1387 45.5144 42.3724ZM46.2819 51.3466C50.7453 51.3207 55.5234 47.832 53.6549 45.9629C52.615 44.9235 48.3043 44.5258 45.9094 45.2482C43.4189 45.9994 40.8324 47.837 40.8324 48.8544C40.8324 50.0011 43.8066 51.3612 46.2819 51.3466Z" fill="#613433"/>
<path d="M53.655 45.9629C55.5235 47.832 50.7454 51.3208 46.282 51.3466C43.8067 51.3612 40.8325 50.0011 40.8325 48.8545C40.8325 47.8371 43.419 45.9994 45.9095 45.2483C48.3044 44.5258 52.6151 44.9236 53.655 45.9629Z" fill="#AB4F4F"/>
</g>
<g clip-path="url(#clip1_401_245)">
<path d="M99.7719 33.0022C100.377 32.8784 101.759 32.6028 102.842 32.3895C105.279 31.9096 106.627 31.8759 107.478 32.2734C108.257 32.6381 112.659 37.7297 113.106 38.7841C113.276 39.1851 113.415 39.8099 113.415 40.1727C113.415 41.0308 111.412 47.2322 110.91 47.9268C110.236 48.8598 109.524 49.1422 106.3 49.7549C102.495 50.4779 101.733 50.4969 100.741 49.8936C99.8381 49.3442 95.6826 44.5025 95.2613 43.509C94.7882 42.3929 94.8948 41.6913 96.1035 37.9702C97.4164 33.9285 97.8035 33.4044 99.7719 33.0022Z" fill="#DD6461"/>
<path d="M107.973 38.9704C107.404 38.715 107.251 37.7867 107.705 37.3401C108.049 37.0003 108.495 37.0338 108.942 37.433C109.436 37.8733 109.423 38.371 108.906 38.8323C108.563 39.1383 108.401 39.1624 107.973 38.9704Z" fill="#613433"/>
<path d="M100.096 40.5682C99.2688 40.5682 98.8307 39.5477 99.4122 38.9747C99.549 38.8398 99.8569 38.7295 100.096 38.7295C100.924 38.7295 101.362 39.75 100.781 40.323C100.644 40.4579 100.336 40.5682 100.096 40.5682Z" fill="#613433"/>
<path fill-rule="evenodd" clip-rule="evenodd" d="M104.415 41.5905C102.028 42.0616 101.651 42.2545 101.651 43.0033C101.651 43.7608 102.958 44.9523 104 45.1452C104.825 45.2976 106.21 45.003 106.967 44.5143C108.029 43.8282 108.651 42.0324 108.036 41.4263C107.701 41.0959 106.688 41.1419 104.415 41.5905ZM104.698 44.854C106.346 44.8446 108.109 43.5759 107.419 42.8962C107.036 42.5182 105.445 42.3736 104.561 42.6363C103.642 42.9095 102.687 43.5778 102.687 43.9477C102.687 44.3647 103.785 44.8593 104.698 44.854Z" fill="#613433"/>
<path d="M107.419 42.8962C108.109 43.5759 106.346 44.8446 104.698 44.854C103.785 44.8593 102.688 44.3647 102.688 43.9477C102.688 43.5777 103.642 42.9095 104.561 42.6363C105.445 42.3736 107.036 42.5182 107.419 42.8962Z" fill="#AB4F4F"/>
<path d="M126.482 35.6857C126.482 35.4007 126.558 35.1838 126.709 35.0351C126.872 34.874 127.08 34.7935 127.331 34.7935C127.583 34.7935 127.784 34.874 127.935 35.0351C128.086 35.1838 128.161 35.4007 128.161 35.6857V43.1027C128.161 43.8711 128.054 44.5465 127.841 45.1289C127.627 45.7114 127.319 46.1947 126.916 46.5789C126.526 46.9631 126.049 47.2543 125.483 47.4526C124.929 47.6385 124.307 47.7314 123.615 47.7314C122.936 47.7314 122.314 47.6385 121.748 47.4526C121.194 47.2543 120.716 46.9631 120.314 46.5789C119.924 46.1947 119.622 45.7114 119.409 45.1289C119.195 44.5465 119.088 43.8711 119.088 43.1027V35.6857C119.088 35.4007 119.163 35.1838 119.314 35.0351C119.478 34.874 119.685 34.7935 119.937 34.7935C120.188 34.7935 120.389 34.874 120.54 35.0351C120.691 35.1838 120.767 35.4007 120.767 35.6857V43.1027C120.767 44.1313 121.024 44.9059 121.54 45.4264C122.068 45.9345 122.766 46.1885 123.634 46.1885C124.489 46.1885 125.175 45.9345 125.69 45.4264C126.218 44.9059 126.482 44.1313 126.482 43.1027V35.6857Z" fill="#343A40"/>
<path d="M133.682 47.7313C132.99 47.7313 132.362 47.6322 131.796 47.4339C131.242 47.2356 130.777 47.0063 130.4 46.7461C130.148 46.5726 130.022 46.3557 130.022 46.0955C130.022 45.9096 130.092 45.7485 130.23 45.6122C130.368 45.4635 130.544 45.3891 130.758 45.3891C130.834 45.3891 130.909 45.4015 130.985 45.4263C131.073 45.4511 131.173 45.4944 131.286 45.5564C131.651 45.7671 132.035 45.953 132.437 46.1141C132.839 46.2628 133.298 46.3371 133.814 46.3371C134.468 46.3371 134.958 46.2132 135.285 45.9654C135.625 45.7175 135.795 45.3953 135.795 44.9987C135.795 44.6269 135.675 44.3419 135.436 44.1436C135.21 43.9454 134.738 43.809 134.022 43.7347L133.078 43.6417C132.186 43.5426 131.513 43.2823 131.06 42.861C130.607 42.4273 130.381 41.851 130.381 41.1322C130.381 40.2771 130.67 39.6141 131.249 39.1432C131.827 38.6599 132.651 38.4182 133.72 38.4182C134.248 38.4182 134.738 38.4802 135.191 38.6041C135.657 38.7156 136.065 38.8706 136.417 39.0688C136.732 39.2299 136.889 39.4468 136.889 39.7194C136.889 39.9053 136.82 40.0665 136.681 40.2028C136.556 40.3267 136.398 40.3887 136.21 40.3887C136.046 40.3887 135.858 40.3391 135.644 40.2399C135.342 40.1036 135.021 39.9921 134.682 39.9053C134.355 39.8186 134.009 39.7752 133.644 39.7752C133.078 39.7752 132.651 39.8929 132.362 40.1284C132.072 40.3515 131.928 40.6427 131.928 41.0021C131.928 41.3615 132.054 41.6403 132.305 41.8386C132.556 42.0245 133.022 42.1484 133.701 42.2104L134.644 42.3033C135.587 42.4025 136.273 42.6689 136.7 43.1027C137.14 43.524 137.36 44.1003 137.36 44.8314C137.36 45.7113 137.046 46.4177 136.417 46.9506C135.801 47.4711 134.889 47.7313 133.682 47.7313Z" fill="#343A40"/>
<path d="M146.57 46.4301C146.658 46.5788 146.702 46.7275 146.702 46.8762C146.702 47.0869 146.627 47.2666 146.476 47.4153C146.325 47.5516 146.13 47.6198 145.891 47.6198C145.614 47.6198 145.382 47.4896 145.193 47.2294L144.835 46.6717H144.816C144.514 47.0063 144.143 47.2666 143.703 47.4525C143.263 47.6384 142.709 47.7313 142.043 47.7313C141.024 47.7313 140.238 47.5021 139.685 47.0435C139.132 46.5726 138.855 45.9096 138.855 45.0545C138.855 44.125 139.157 43.4373 139.761 42.9911C140.377 42.5326 141.251 42.3033 142.382 42.3033H144.439C144.514 42.3033 144.552 42.2661 144.552 42.1918V41.7642C144.552 41.1322 144.388 40.6489 144.061 40.3143C143.734 39.9797 143.175 39.8124 142.382 39.8124C142.03 39.8124 141.684 39.862 141.345 39.9611C141.018 40.0479 140.748 40.147 140.534 40.2585C140.358 40.3453 140.207 40.3887 140.081 40.3887C139.867 40.3887 139.698 40.3329 139.572 40.2214C139.459 40.0974 139.402 39.9301 139.402 39.7194C139.402 39.5955 139.427 39.4778 139.478 39.3663C139.54 39.2547 139.641 39.1618 139.779 39.0874C140.069 38.9015 140.44 38.7466 140.892 38.6227C141.358 38.4864 141.905 38.4182 142.533 38.4182C143.753 38.4182 144.646 38.6971 145.212 39.2547C145.791 39.8124 146.08 40.6427 146.08 41.7456V44.943C146.08 45.1784 146.092 45.3581 146.118 45.482C146.143 45.5936 146.187 45.7175 146.25 45.8538L146.57 46.4301ZM142.269 46.3929C142.974 46.3929 143.527 46.2442 143.929 45.9468C144.344 45.6369 144.552 45.2032 144.552 44.6455V43.6603C144.552 43.586 144.514 43.5488 144.439 43.5488H142.628C141.848 43.5488 141.276 43.6665 140.911 43.902C140.559 44.125 140.383 44.4906 140.383 44.9987C140.383 45.4696 140.546 45.8228 140.873 46.0583C141.2 46.2814 141.666 46.3929 142.269 46.3929Z" fill="#343A40"/>
<path d="M149.334 47.6199C149.108 47.6199 148.919 47.5455 148.768 47.3968C148.617 47.2481 148.542 47.0436 148.542 46.7834V35.63C148.542 35.3697 148.617 35.1652 148.768 35.0165C148.919 34.8678 149.108 34.7935 149.334 34.7935C149.561 34.7935 149.749 34.8678 149.9 35.0165C150.051 35.1652 150.127 35.3697 150.127 35.63V39.608H150.145C150.359 39.261 150.667 38.976 151.07 38.7529C151.485 38.5299 152.032 38.4183 152.711 38.4183C153.478 38.4183 154.125 38.6166 154.654 39.0132C155.194 39.3973 155.584 39.9426 155.823 40.649C155.936 41.0084 156.018 41.374 156.068 41.7457C156.119 42.1175 156.144 42.5575 156.144 43.0656C156.144 43.5861 156.119 44.0322 156.068 44.404C156.018 44.7758 155.936 45.1413 155.823 45.5007C155.584 46.2071 155.194 46.7586 154.654 47.1551C154.125 47.5393 153.478 47.7314 152.711 47.7314C152.032 47.7314 151.485 47.6261 151.07 47.4154C150.667 47.1923 150.359 46.9011 150.145 46.5417H150.127V46.7834C150.127 47.0436 150.051 47.2481 149.9 47.3968C149.749 47.5455 149.561 47.6199 149.334 47.6199ZM152.333 46.2815C152.837 46.2815 153.251 46.1637 153.578 45.9283C153.918 45.6804 154.163 45.3334 154.314 44.8873C154.402 44.6394 154.459 44.373 154.484 44.088C154.509 43.8029 154.522 43.4621 154.522 43.0656C154.522 42.6814 154.509 42.3468 154.484 42.0618C154.459 41.7767 154.402 41.5103 154.314 41.2624C154.163 40.8163 153.918 40.4755 153.578 40.24C153.251 39.9922 152.837 39.8683 152.333 39.8683C151.818 39.8683 151.39 39.9922 151.051 40.24C150.724 40.4755 150.485 40.8163 150.334 41.2624C150.246 41.5103 150.189 41.7767 150.164 42.0618C150.139 42.3468 150.127 42.6814 150.127 43.0656C150.127 43.4621 150.139 43.8029 150.164 44.088C150.189 44.373 150.246 44.6394 150.334 44.8873C150.485 45.3334 150.724 45.6804 151.051 45.9283C151.39 46.1637 151.818 46.2815 152.333 46.2815Z" fill="#343A40"/>
<path d="M158.918 36.8382C158.629 36.8382 158.384 36.7391 158.183 36.5408C157.981 36.3425 157.881 36.1009 157.881 35.8159C157.881 35.5308 157.981 35.2892 158.183 35.0909C158.384 34.8926 158.629 34.7935 158.918 34.7935C159.207 34.7935 159.453 34.8926 159.654 35.0909C159.855 35.2892 159.956 35.5308 159.956 35.8159C159.956 36.1009 159.855 36.3425 159.654 36.5408C159.453 36.7391 159.207 36.8382 158.918 36.8382ZM158.126 39.3663C158.126 39.1061 158.201 38.9016 158.352 38.7529C158.503 38.6042 158.692 38.5299 158.918 38.5299C159.145 38.5299 159.333 38.6042 159.484 38.7529C159.635 38.9016 159.71 39.1061 159.71 39.3663V46.7834C159.71 47.0436 159.635 47.2481 159.484 47.3968C159.333 47.5455 159.145 47.6199 158.918 47.6199C158.692 47.6199 158.503 47.5455 158.352 47.3968C158.201 47.2481 158.126 47.0436 158.126 46.7834V39.3663Z" fill="#343A40"/>
<path d="M164.408 47.6199C163.591 47.6199 163.019 47.4278 162.692 47.0436C162.365 46.647 162.201 46.046 162.201 45.2405V35.63C162.201 35.3697 162.277 35.1652 162.428 35.0165C162.578 34.8678 162.767 34.7935 162.994 34.7935C163.22 34.7935 163.408 34.8678 163.559 35.0165C163.71 35.1652 163.786 35.3697 163.786 35.63V45.1475C163.786 45.5193 163.849 45.7858 163.974 45.9469C164.113 46.0956 164.339 46.1699 164.654 46.1699C164.88 46.1699 165.056 46.2381 165.182 46.3744C165.32 46.5107 165.389 46.6842 165.389 46.8949C165.389 47.1056 165.32 47.2791 165.182 47.4154C165.043 47.5517 164.842 47.6199 164.578 47.6199H164.408Z" fill="#343A40"/>
<path d="M167.734 36.8382C167.445 36.8382 167.199 36.7391 166.998 36.5408C166.797 36.3425 166.696 36.1009 166.696 35.8159C166.696 35.5308 166.797 35.2892 166.998 35.0909C167.199 34.8926 167.445 34.7935 167.734 34.7935C168.023 34.7935 168.268 34.8926 168.469 35.0909C168.671 35.2892 168.771 35.5308 168.771 35.8159C168.771 36.1009 168.671 36.3425 168.469 36.5408C168.268 36.7391 168.023 36.8382 167.734 36.8382ZM166.942 39.3663C166.942 39.1061 167.017 38.9016 167.168 38.7529C167.319 38.6042 167.508 38.5299 167.734 38.5299C167.96 38.5299 168.149 38.6042 168.3 38.7529C168.451 38.9016 168.526 39.1061 168.526 39.3663V46.7834C168.526 47.0436 168.451 47.2481 168.3 47.3968C168.149 47.5455 167.96 47.6199 167.734 47.6199C167.508 47.6199 167.319 47.5455 167.168 47.3968C167.017 47.2481 166.942 47.0436 166.942 46.7834V39.3663Z" fill="#343A40"/>
<path d="M173.771 47.6199C172.841 47.6199 172.187 47.4154 171.809 47.0064C171.432 46.5975 171.243 45.9283 171.243 44.9988V39.9984C171.243 39.924 171.206 39.8868 171.13 39.8868H170.621C170.407 39.8868 170.237 39.8311 170.112 39.7195C169.998 39.5956 169.942 39.4407 169.942 39.2548C169.942 39.0689 169.998 38.9202 170.112 38.8087C170.237 38.6848 170.407 38.6228 170.621 38.6228H171.13C171.206 38.6228 171.243 38.5856 171.243 38.5113V36.5594C171.243 36.2992 171.319 36.0947 171.47 35.946C171.621 35.7973 171.809 35.7229 172.036 35.7229C172.262 35.7229 172.451 35.7973 172.602 35.946C172.752 36.0947 172.828 36.2992 172.828 36.5594V38.5113C172.828 38.5856 172.866 38.6228 172.941 38.6228H174.129C174.343 38.6228 174.507 38.6848 174.62 38.8087C174.746 38.9202 174.809 39.0689 174.809 39.2548C174.809 39.4407 174.746 39.5956 174.62 39.7195C174.507 39.8311 174.343 39.8868 174.129 39.8868H172.941C172.866 39.8868 172.828 39.924 172.828 39.9984V44.943C172.828 45.414 172.91 45.7362 173.073 45.9097C173.237 46.0832 173.557 46.1699 174.035 46.1699C174.287 46.1699 174.475 46.2381 174.601 46.3744C174.739 46.5107 174.809 46.6842 174.809 46.8949C174.809 47.1056 174.739 47.2791 174.601 47.4154C174.463 47.5517 174.249 47.6199 173.96 47.6199H173.771Z" fill="#343A40"/>
<path d="M176.872 50.8729C176.62 50.8729 176.425 50.8047 176.287 50.6684C176.161 50.5321 176.098 50.3586 176.098 50.1479C176.098 49.9372 176.161 49.7637 176.287 49.6274C176.425 49.4911 176.62 49.4229 176.872 49.4229C177.236 49.4229 177.538 49.33 177.777 49.1441C178.016 48.9706 178.236 48.6174 178.437 48.0845L178.739 47.2666L175.664 39.6265C175.639 39.5646 175.62 39.5026 175.608 39.4406C175.595 39.3787 175.589 39.3167 175.589 39.2547C175.589 39.0441 175.664 38.8706 175.815 38.7342C175.966 38.5979 176.155 38.5298 176.381 38.5298C176.746 38.5298 176.997 38.7157 177.136 39.0874L179.494 45.2404H179.531L181.795 39.0874C181.921 38.7157 182.166 38.5298 182.531 38.5298C182.77 38.5298 182.958 38.5979 183.096 38.7342C183.235 38.8706 183.304 39.0441 183.304 39.2547C183.304 39.3167 183.298 39.3787 183.285 39.4406C183.273 39.5026 183.254 39.5646 183.229 39.6265L179.833 48.4006C179.632 48.9086 179.431 49.3176 179.23 49.6274C179.041 49.9496 178.833 50.2037 178.607 50.3896C178.393 50.5755 178.154 50.6994 177.89 50.7614C177.639 50.8357 177.349 50.8729 177.022 50.8729H176.872Z" fill="#343A40"/>
<path d="M184.956 35.6857C184.956 35.4007 185.031 35.1838 185.182 35.0351C185.346 34.874 185.553 34.7935 185.805 34.7935C186.056 34.7935 186.257 34.874 186.408 35.0351C186.559 35.1838 186.634 35.4007 186.634 35.6857V40.2586C186.634 40.333 186.672 40.3702 186.748 40.3702H192.312C192.388 40.3702 192.426 40.333 192.426 40.2586V35.6857C192.426 35.4007 192.501 35.1838 192.652 35.0351C192.815 34.874 193.023 34.7935 193.274 34.7935C193.526 34.7935 193.727 34.874 193.878 35.0351C194.029 35.1838 194.104 35.4007 194.104 35.6857V46.7276C194.104 47.0126 194.029 47.2357 193.878 47.3968C193.727 47.5455 193.526 47.6199 193.274 47.6199C193.023 47.6199 192.815 47.5455 192.652 47.3968C192.501 47.2357 192.426 47.0126 192.426 46.7276V42.0246C192.426 41.9502 192.388 41.913 192.312 41.913H186.748C186.672 41.913 186.634 41.9502 186.634 42.0246V46.7276C186.634 47.0126 186.559 47.2357 186.408 47.3968C186.257 47.5455 186.056 47.6199 185.805 47.6199C185.553 47.6199 185.346 47.5455 185.182 47.3968C185.031 47.2357 184.956 47.0126 184.956 46.7276V35.6857Z" fill="#343A40"/>
<path d="M203.75 46.7833C203.75 47.0435 203.674 47.248 203.523 47.3967C203.373 47.5454 203.184 47.6198 202.958 47.6198C202.731 47.6198 202.543 47.5454 202.392 47.3967C202.241 47.248 202.165 47.0435 202.165 46.7833V46.523H202.146C201.933 46.87 201.618 47.1613 201.203 47.3967C200.788 47.6198 200.273 47.7313 199.656 47.7313C198.676 47.7313 197.909 47.4277 197.355 46.8205C196.814 46.2132 196.544 45.4015 196.544 44.3853V39.3663C196.544 39.106 196.619 38.9016 196.77 38.7528C196.921 38.6041 197.11 38.5298 197.336 38.5298C197.563 38.5298 197.751 38.6041 197.902 38.7528C198.053 38.9016 198.128 39.106 198.128 39.3663V44.0135C198.128 44.7323 198.292 45.29 198.619 45.6866C198.946 46.0831 199.449 46.2814 200.128 46.2814C200.744 46.2814 201.235 46.0893 201.599 45.7051C201.977 45.3086 202.165 44.7757 202.165 44.1065V39.3663C202.165 39.106 202.241 38.9016 202.392 38.7528C202.543 38.6041 202.731 38.5298 202.958 38.5298C203.184 38.5298 203.373 38.6041 203.523 38.7528C203.674 38.9016 203.75 39.106 203.75 39.3663V46.7833Z" fill="#343A40"/>
<path d="M207.071 47.6199C206.845 47.6199 206.656 47.5455 206.505 47.3968C206.354 47.2481 206.279 47.0436 206.279 46.7834V35.63C206.279 35.3697 206.354 35.1652 206.505 35.0165C206.656 34.8678 206.845 34.7935 207.071 34.7935C207.297 34.7935 207.486 34.8678 207.637 35.0165C207.788 35.1652 207.863 35.3697 207.863 35.63V39.608H207.882C208.096 39.261 208.404 38.976 208.806 38.7529C209.221 38.5299 209.769 38.4183 210.448 38.4183C211.215 38.4183 211.862 38.6166 212.391 39.0132C212.931 39.3973 213.321 39.9426 213.56 40.649C213.673 41.0084 213.755 41.374 213.805 41.7457C213.856 42.1175 213.881 42.5575 213.881 43.0656C213.881 43.5861 213.856 44.0322 213.805 44.404C213.755 44.7758 213.673 45.1413 213.56 45.5007C213.321 46.2071 212.931 46.7586 212.391 47.1551C211.862 47.5393 211.215 47.7314 210.448 47.7314C209.769 47.7314 209.221 47.6261 208.806 47.4154C208.404 47.1923 208.096 46.9011 207.882 46.5417H207.863V46.7834C207.863 47.0436 207.788 47.2481 207.637 47.3968C207.486 47.5455 207.297 47.6199 207.071 47.6199ZM210.07 46.2815C210.573 46.2815 210.988 46.1637 211.315 45.9283C211.655 45.6804 211.9 45.3334 212.051 44.8873C212.139 44.6394 212.196 44.373 212.221 44.088C212.246 43.8029 212.258 43.4621 212.258 43.0656C212.258 42.6814 212.246 42.3468 212.221 42.0618C212.196 41.7767 212.139 41.5103 212.051 41.2624C211.9 40.8163 211.655 40.4755 211.315 40.24C210.988 39.9922 210.573 39.8683 210.07 39.8683C209.555 39.8683 209.127 39.9922 208.788 40.24C208.461 40.4755 208.222 40.8163 208.071 41.2624C207.983 41.5103 207.926 41.7767 207.901 42.0618C207.876 42.3468 207.863 42.6814 207.863 43.0656C207.863 43.4621 207.876 43.8029 207.901 44.088C207.926 44.373 207.983 44.6394 208.071 44.8873C208.222 45.3334 208.461 45.6804 208.788 45.9283C209.127 46.1637 209.555 46.2815 210.07 46.2815Z" fill="#343A40"/>
</g>
<defs>
<clipPath id="clip0_401_245">
<rect width="50" height="50.5618" fill="white" transform="translate(20 16)"/>
</clipPath>
<clipPath id="clip1_401_245">
<rect width="119" height="19" fill="white" transform="translate(95 32)"/>
</clipPath>
</defs>
</svg>
