<svg width="250" height="82" viewBox="0 0 250 82" fill="none" xmlns="http://www.w3.org/2000/svg">
<g clip-path="url(#clip0_401_638)">
<path fill-rule="evenodd" clip-rule="evenodd" d="M157.598 32.0512C157.054 32.2765 156.675 32.9102 156.761 33.45C156.995 34.9232 159.07 34.9105 159.305 33.4343C159.372 33.0126 159.32 32.861 158.987 32.4989C158.549 32.024 158.051 31.8634 157.598 32.0512ZM152.39 39.0921V45.7093H153.365H154.34V39.0921V32.4748H153.365H152.39V39.0921ZM173.701 39.0921V45.7093H174.676H175.651V43.0117C175.651 41.5282 175.714 39.9765 175.791 39.5638C176.036 38.2556 176.731 37.6101 177.993 37.5188C179.013 37.445 179.795 37.8048 180.268 38.5653C180.584 39.0735 180.597 39.2082 180.639 42.4007L180.683 45.7093H181.733H182.782L182.72 42.2614C182.67 39.4876 182.612 38.6893 182.424 38.1787C181.863 36.6605 180.523 35.7703 178.805 35.7738C177.735 35.7759 176.586 36.159 176.126 36.6669C175.994 36.8132 175.833 36.9327 175.768 36.9327C175.703 36.9327 175.651 35.9297 175.651 34.7038V32.4748H174.676H173.701V39.0921ZM113.812 33.4439C112.878 33.7665 111.821 34.8031 111.595 35.6199C111.226 36.947 111.546 38.1782 112.469 38.9891C113.081 39.5259 113.601 39.7561 115.258 40.2223C117.395 40.8234 117.988 41.2636 117.988 42.2509C117.988 43.4403 117.213 44.1055 115.829 44.1057C114.763 44.1058 114.131 43.7563 113.744 42.9526L113.461 42.3658H112.451C111.464 42.3658 111.441 42.3735 111.441 42.7186C111.441 44.0626 112.827 45.3714 114.616 45.7176C117.325 46.2417 119.714 44.8493 120.013 42.5713C120.141 41.5902 119.888 40.7848 119.222 40.0631C118.63 39.4206 117.97 39.116 115.581 38.3858C114.047 37.9167 113.531 37.4858 113.531 36.6745C113.531 35.8601 113.773 35.4426 114.432 35.1238C115.654 34.532 117.111 34.9895 117.576 36.1107C117.74 36.5083 117.761 36.5148 118.84 36.5148C120.114 36.5148 120.142 36.4714 119.607 35.3229C119.198 34.4441 118.284 33.6467 117.377 33.3771C116.408 33.0895 114.749 33.1205 113.812 33.4439ZM122.723 34.6342V35.8183H122.166H121.609V36.6541V37.49H122.159H122.709L122.751 40.7289C122.798 44.3687 122.864 44.6587 123.789 45.2885C124.231 45.5893 124.483 45.641 125.739 45.6875L127.18 45.7409V44.8891V44.0376H126.306C124.773 44.0376 124.812 44.1298 124.812 40.5469V37.49H125.996H127.18V36.7238V35.9576H125.996H124.812V34.7038V33.45H123.768H122.723V34.6342ZM185.54 34.6342V35.8183H184.982H184.425V36.6541V37.49H184.973H185.521L185.565 40.7986C185.615 44.5166 185.662 44.7214 186.615 45.3104C187.055 45.5821 187.374 45.6438 188.569 45.6879L189.997 45.7409V44.8891V44.0376H189.123C187.589 44.0376 187.629 44.1298 187.629 40.5469V37.49H188.813H189.997V36.7238V35.9576H188.813H187.629V34.7038V33.45H186.584H185.54V34.6342ZM132.244 35.8159C131.382 35.9983 130.303 36.5931 129.691 37.224C127.797 39.1758 127.892 42.7411 129.886 44.5723C130.937 45.5379 131.602 45.777 133.239 45.7779C134.484 45.7788 134.725 45.7359 135.509 45.3737C136.503 44.9149 137.404 44.0119 137.917 42.9621C138.194 42.3958 138.244 42.0769 138.248 40.8309C138.253 39.4509 138.227 39.3117 137.795 38.4352C136.997 36.8118 135.61 35.9062 133.699 35.7606C133.216 35.724 132.562 35.7487 132.244 35.8159ZM144.856 35.8018C144.207 35.9379 143.227 36.4464 142.754 36.8936L142.379 37.2475L142.336 36.5678L142.292 35.8879H141.317H140.343L140.306 43.1669L140.27 50.4458H141.316H142.362V47.4389V44.4321L142.885 44.8426C143.801 45.563 144.315 45.7547 145.496 45.8169C146.928 45.8923 147.982 45.5283 148.852 44.6584C151.881 41.6286 150.224 36.0867 146.192 35.7639C145.733 35.7272 145.132 35.7442 144.856 35.8018ZM164.612 35.822C163.204 36.176 162.092 37.089 161.417 38.4462C161.135 39.0126 160.976 39.5974 160.965 40.7576C160.953 41.9179 161.122 42.487 161.488 43.2017C161.986 44.1746 162.716 44.9355 163.603 45.4072C164.215 45.7331 164.458 45.7777 165.622 45.7782C167.049 45.7789 167.4 45.6625 168.443 44.8426L168.965 44.4321V45.6189C168.965 46.9534 168.836 47.4115 168.295 47.9902C167.775 48.5455 167.165 48.7741 166.2 48.7741C165.146 48.7741 164.014 48.2266 163.685 47.5573C163.466 47.1132 163.453 47.1086 162.438 47.1056L161.414 47.1024L161.509 47.4855C161.697 48.2383 162.045 48.788 162.719 49.3936C163.666 50.2453 164.519 50.5159 166.249 50.5136C167.453 50.512 167.746 50.4629 168.414 50.1513C169.479 49.6544 170.287 49.0946 170.745 48.1622C170.745 48.1622 170.985 47.6557 170.985 47.3113C170.985 45.227 171.025 41.5585 171.025 41.5585L171.066 35.8059L170.05 35.8468L169.035 35.8879L168.965 36.5605L168.895 37.233L168.496 36.8143C167.705 35.985 165.85 35.511 164.612 35.822ZM156.987 40.7576V45.7093H158.033H159.08L159.043 40.7986L159.006 35.8879L157.996 35.847L156.987 35.806V40.7576ZM134.393 37.7063C135.609 38.2147 136.227 39.2424 136.229 40.7638C136.231 41.5049 136.15 41.9122 135.895 42.4614C134.918 44.5604 131.834 44.6674 130.798 42.6381C130.431 41.9182 130.304 40.6316 130.514 39.7572C130.932 38.0123 132.783 37.0339 134.393 37.7063ZM146.731 37.8358C148.848 38.8522 148.86 42.6245 146.749 43.7247C145.516 44.3674 144.288 44.1865 143.318 43.219C142.611 42.5138 142.364 41.8834 142.363 40.7799C142.361 39.3875 142.954 38.3417 144.065 37.777C144.783 37.4123 145.9 37.4369 146.731 37.8358ZM167.224 37.7541C168.363 38.2815 168.994 39.3499 169.008 40.7771C169.034 43.322 166.832 44.8412 164.705 43.7464C163.707 43.2327 163.204 42.3625 163.137 41.0328C163.076 39.8346 163.263 39.1808 163.86 38.501C164.704 37.539 166.093 37.2306 167.224 37.7541Z" fill="black"/>
<path d="M99 50.0923C103.971 50.0923 108 46.0628 108 41.0923C108 36.1217 103.971 32.0923 99 32.0923C94.0294 32.0923 90 36.1217 90 41.0923C90 46.0628 94.0294 50.0923 99 50.0923Z" fill="#139EF3"/>
<path fill-rule="evenodd" clip-rule="evenodd" d="M98.9999 35.3477C99.2332 35.3477 99.4223 35.5348 99.4223 35.7657V36.1002H102.386C103.152 36.1002 103.774 36.7151 103.774 37.4738V38.7263C103.774 38.8688 103.831 39.0055 103.933 39.1064L104.167 39.3384C104.426 39.5949 104.426 40.0109 104.167 40.2674L103.933 40.4995C103.831 40.6003 103.774 40.737 103.774 40.8796V42.0365C103.774 42.2674 103.584 42.4546 103.351 42.4546C103.118 42.4546 102.929 42.2674 102.929 42.0365V40.8796C102.929 40.5152 103.075 40.1659 103.335 39.9083L103.442 39.8029L103.335 39.6976C103.075 39.44 102.929 39.0906 102.929 38.7263V37.4738C102.929 37.1769 102.685 36.9363 102.386 36.9363H95.6142C95.3143 36.9363 95.0711 37.1769 95.0711 37.4738V38.7263C95.0711 39.0906 94.9249 39.44 94.6645 39.6976L94.5581 39.8029L94.6645 39.9083C94.9249 40.1659 95.0711 40.5152 95.0711 40.8796V41.9768C95.0711 42.2736 95.3143 42.5143 95.6142 42.5143H101.48C102.247 42.5143 102.868 43.1293 102.868 43.8879V46.0379C102.868 46.7965 102.247 47.4115 101.48 47.4115H96.7005C95.9339 47.4115 95.3125 46.7965 95.3125 46.0379V45.0346C95.3125 44.8037 95.5016 44.6165 95.7349 44.6165C95.9683 44.6165 96.1574 44.8037 96.1574 45.0346V46.0379C96.1574 46.3347 96.4006 46.5754 96.7005 46.5754H101.48C101.78 46.5754 102.023 46.3347 102.023 46.0379V43.8879C102.023 43.591 101.78 43.3504 101.48 43.3504H95.6142C94.8476 43.3504 94.2262 42.7354 94.2262 41.9768V40.8796C94.2262 40.737 94.169 40.6003 94.0671 40.4995L93.8326 40.2674C93.5734 40.0109 93.5734 39.5949 93.8326 39.3384L94.0671 39.1064C94.169 39.0055 94.2262 38.8688 94.2262 38.7263V37.4738C94.2262 36.7151 94.8476 36.1002 95.6142 36.1002H98.5774V35.7657C98.5774 35.5348 98.7666 35.3477 98.9999 35.3477Z" fill="white"/>
<path d="M97.3724 39.9433C97.7425 39.9433 98.0426 39.6004 98.0426 39.1773C98.0426 38.7543 97.7425 38.4114 97.3724 38.4114C97.0022 38.4114 96.7021 38.7543 96.7021 39.1773C96.7021 39.6004 97.0022 39.9433 97.3724 39.9433Z" fill="white"/>
<path d="M100.628 39.9433C100.998 39.9433 101.298 39.6004 101.298 39.1773C101.298 38.7543 100.998 38.4114 100.628 38.4114C100.258 38.4114 99.9575 38.7543 99.9575 39.1773C99.9575 39.6004 100.258 39.9433 100.628 39.9433Z" fill="white"/>
<path fill-rule="evenodd" clip-rule="evenodd" d="M99 34.4955C98.8096 34.4955 98.6553 34.6627 98.6553 34.8689C98.6553 35.0752 98.8096 35.2424 99 35.2424C99.1904 35.2424 99.3447 35.0752 99.3447 34.8689C99.3447 34.6627 99.1904 34.4955 99 34.4955ZM97.8511 34.8689C97.8511 34.1815 98.3655 33.6243 99 33.6243C99.6346 33.6243 100.149 34.1815 100.149 34.8689C100.149 35.5564 99.6346 36.1136 99 36.1136C98.3655 36.1136 97.8511 35.5564 97.8511 34.8689Z" fill="white"/>
</g>
<path d="M45 66C58.8071 66 70 54.8071 70 41C70 27.1929 58.8071 16 45 16C31.1929 16 20 27.1929 20 41C20 54.8071 31.1929 66 45 66Z" fill="#139EF3"/>
<path fill-rule="evenodd" clip-rule="evenodd" d="M45.0001 25.0425C45.6482 25.0425 46.1735 25.5624 46.1735 26.2037V27.1327H54.4046C56.5341 27.1327 58.2603 28.8411 58.2603 30.9483V34.4275C58.2603 34.8235 58.4193 35.2033 58.7023 35.4833L59.3536 36.1278C60.0737 36.8405 60.0737 37.9959 59.3536 38.7085L58.7023 39.3531C58.4193 39.6331 58.2603 40.0129 58.2603 40.4089V43.6226C58.2603 44.264 57.735 44.7839 57.0869 44.7839C56.4388 44.7839 55.9134 44.264 55.9134 43.6226V40.4089C55.9134 39.3969 56.3196 38.4264 57.0427 37.7108L57.3384 37.4182L57.0427 37.1256C56.3196 36.41 55.9134 35.4395 55.9134 34.4275V30.9483C55.9134 30.1238 55.2379 29.4553 54.4046 29.4553H35.5955C34.7622 29.4553 34.0867 30.1238 34.0867 30.9483V34.4275C34.0867 35.4395 33.6805 36.41 32.9574 37.1256L32.6617 37.4182L32.9574 37.7108C33.6805 38.4264 34.0867 39.3969 34.0867 40.4089V43.4567C34.0867 44.2813 34.7622 44.9498 35.5955 44.9498H51.89C54.0195 44.9498 55.7458 46.6581 55.7458 48.7654V54.7375C55.7458 56.8448 54.0195 58.5531 51.89 58.5531H38.613C36.4836 58.5531 34.7573 56.8448 34.7573 54.7375V51.9505C34.7573 51.3092 35.2827 50.7893 35.9308 50.7893C36.5789 50.7893 37.1042 51.3092 37.1042 51.9505V54.7375C37.1042 55.5621 37.7798 56.2306 38.613 56.2306H51.89C52.7233 56.2306 53.3988 55.5621 53.3988 54.7375V48.7654C53.3988 47.9408 52.7233 47.2723 51.89 47.2723H35.5955C33.4661 47.2723 31.7398 45.564 31.7398 43.4567V40.4089C31.7398 40.0129 31.5808 39.6331 31.2979 39.3531L30.6465 38.7085C29.9264 37.9959 29.9264 36.8405 30.6465 36.1278L31.2979 35.4833C31.5808 35.2033 31.7398 34.8235 31.7398 34.4275V30.9483C31.7398 28.8411 33.4661 27.1327 35.5955 27.1327H43.8266V26.2037C43.8266 25.5624 44.352 25.0425 45.0001 25.0425Z" fill="white"/>
<path d="M40.4789 37.8085C41.5071 37.8085 42.3406 36.856 42.3406 35.6809C42.3406 34.5058 41.5071 33.5532 40.4789 33.5532C39.4507 33.5532 38.6172 34.5058 38.6172 35.6809C38.6172 36.856 39.4507 37.8085 40.4789 37.8085Z" fill="white"/>
<path d="M49.5214 37.8085C50.5496 37.8085 51.3831 36.856 51.3831 35.6809C51.3831 34.5058 50.5496 33.5532 49.5214 33.5532C48.4932 33.5532 47.6597 34.5058 47.6597 35.6809C47.6597 36.856 48.4932 37.8085 49.5214 37.8085Z" fill="white"/>
<path fill-rule="evenodd" clip-rule="evenodd" d="M45.0001 22.6756C44.4713 22.6756 44.0426 23.14 44.0426 23.7128C44.0426 24.2857 44.4713 24.7501 45.0001 24.7501C45.5289 24.7501 45.9575 24.2857 45.9575 23.7128C45.9575 23.14 45.5289 22.6756 45.0001 22.6756ZM41.8086 23.7128C41.8086 21.8033 43.2375 20.2554 45.0001 20.2554C46.7627 20.2554 48.1916 21.8033 48.1916 23.7128C48.1916 25.6223 46.7627 27.1703 45.0001 27.1703C43.2375 27.1703 41.8086 25.6223 41.8086 23.7128Z" fill="white"/>
<defs>
<clipPath id="clip0_401_638">
<rect width="100" height="19.515" fill="white" transform="translate(90 31)"/>
</clipPath>
</defs>
</svg>
