<svg width="250" height="82" viewBox="0 0 250 82" fill="none" xmlns="http://www.w3.org/2000/svg">
<g clip-path="url(#clip0_401_2949)">
<path d="M54.1417 52.1742L54.3962 51.2943C54.6995 50.2476 54.5867 49.2799 54.0779 48.569C53.6095 47.9142 52.8293 47.5285 51.8815 47.4837L33.9324 47.2566C33.8767 47.2555 33.822 47.2413 33.7729 47.2152C33.7236 47.1891 33.6813 47.1518 33.6492 47.1063C33.6178 47.0592 33.5978 47.0055 33.5907 46.9494C33.5838 46.8932 33.59 46.8362 33.6088 46.7829C33.6396 46.695 33.6955 46.618 33.7696 46.5615C33.8438 46.505 33.9327 46.4714 34.0258 46.4648L52.1412 46.2353C54.2902 46.1366 56.6168 44.3943 57.4313 42.2695L58.4644 39.5721C58.5068 39.458 58.5165 39.3344 58.4924 39.2152C57.3194 33.9427 52.6104 30 46.9801 30C41.7926 30 37.3879 33.3458 35.808 37.9962C34.7403 37.1954 33.4092 36.8273 32.0815 36.9655C29.5928 37.2125 27.5917 39.2148 27.3454 41.7021C27.2822 42.3231 27.3284 42.9505 27.4822 43.5556C23.4166 43.674 20.1562 47.0024 20.1562 51.0938C20.1568 51.459 20.1838 51.8237 20.237 52.1851C20.2488 52.2685 20.2902 52.345 20.3537 52.4005C20.4171 52.4561 20.4986 52.4869 20.5829 52.4874L53.7203 52.4915C53.7234 52.4917 53.7265 52.4917 53.7296 52.4915C53.8234 52.4898 53.914 52.4581 53.9883 52.401C54.0625 52.3438 54.1163 52.2644 54.1417 52.1742Z" fill="#F6821F"/>
<path d="M60.1208 39.7677C59.9545 39.7677 59.7887 39.7719 59.6237 39.7802C59.5971 39.7821 59.5709 39.7879 59.546 39.7972C59.5028 39.812 59.4637 39.837 59.4322 39.8702C59.4007 39.9033 59.3777 39.9436 59.3652 39.9876L58.6595 42.4235C58.356 43.4703 58.4689 44.4371 58.9782 45.1481C59.4462 45.8036 60.2265 46.1884 61.174 46.2333L65.0005 46.4628C65.0543 46.4646 65.1069 46.4789 65.1543 46.5046C65.2016 46.5303 65.2422 46.5666 65.273 46.6108C65.3048 46.6581 65.3251 46.7121 65.332 46.7686C65.3391 46.8252 65.3327 46.8825 65.3135 46.9361C65.2827 47.0239 65.2268 47.1007 65.1529 47.1572C65.0791 47.2137 64.9901 47.2474 64.8974 47.2542L60.9216 47.4838C58.763 47.5833 56.4368 49.3248 55.623 51.4495L55.3358 52.1997C55.3239 52.231 55.3194 52.2648 55.323 52.2982C55.3266 52.3315 55.3381 52.3637 55.3566 52.3917C55.3751 52.4198 55.3998 52.4431 55.4291 52.4597C55.4583 52.4762 55.4912 52.4857 55.5247 52.4871C55.5284 52.4871 55.5317 52.4871 55.5353 52.4871H69.2156C69.2951 52.4878 69.3727 52.4625 69.4365 52.4149C69.5002 52.3674 69.5467 52.3004 69.5687 52.2239C69.8111 51.3597 69.9336 50.4665 69.9327 49.5689C69.9311 44.1562 65.5387 39.7677 60.1208 39.7677Z" fill="#FBAD41"/>
</g>
<g clip-path="url(#clip1_401_2949)">
<path d="M198.774 45.2902L199.018 44.4453C199.309 43.4404 199.201 42.5113 198.712 41.8287C198.263 41.2 197.513 40.8297 196.604 40.7867L179.37 40.5686C179.316 40.5676 179.264 40.554 179.217 40.5289C179.169 40.5038 179.129 40.468 179.098 40.4243C179.068 40.3791 179.049 40.3275 179.042 40.2737C179.035 40.2198 179.041 40.165 179.059 40.1138C179.089 40.0294 179.143 39.9555 179.214 39.9012C179.285 39.847 179.37 39.8147 179.46 39.8084L196.853 39.588C198.916 39.4933 201.15 37.8204 201.932 35.7804L202.924 33.1904C202.965 33.0809 202.974 32.9623 202.951 32.8478C201.825 27.7855 197.303 24 191.898 24C186.917 24 182.688 27.2124 181.171 31.6774C180.146 30.9086 178.868 30.5551 177.593 30.6878C175.203 30.925 173.282 32.8474 173.046 35.2355C172.985 35.8318 173.029 36.4342 173.177 37.0152C169.273 37.1289 166.143 40.3246 166.143 44.2528C166.144 44.6035 166.169 44.9537 166.221 45.3007C166.232 45.3807 166.272 45.4542 166.333 45.5075C166.394 45.5608 166.472 45.5904 166.553 45.5909L198.369 45.5949C198.372 45.595 198.375 45.595 198.378 45.5949C198.468 45.5932 198.555 45.5628 198.626 45.508C198.698 45.453 198.749 45.3767 198.774 45.2902Z" fill="#F6821F"/>
<path d="M204.515 33.3783C204.355 33.3783 204.196 33.3823 204.038 33.3903C204.012 33.3921 203.987 33.3976 203.963 33.4066C203.922 33.4208 203.884 33.4449 203.854 33.4767C203.824 33.5085 203.801 33.5472 203.789 33.5894L203.112 35.9282C202.821 36.9333 202.929 37.8616 203.418 38.5442C203.867 39.1736 204.616 39.543 205.526 39.5861L209.2 39.8065C209.252 39.8082 209.302 39.822 209.348 39.8466C209.393 39.8713 209.432 39.9062 209.462 39.9486C209.492 39.994 209.512 40.0459 209.518 40.1001C209.525 40.1544 209.519 40.2095 209.501 40.2609C209.471 40.3452 209.417 40.419 209.346 40.4732C209.276 40.5275 209.19 40.5598 209.101 40.5664L205.284 40.7868C203.211 40.8823 200.978 42.5544 200.196 44.5944L199.921 45.3147C199.909 45.3447 199.905 45.3771 199.908 45.4092C199.912 45.4413 199.923 45.4721 199.941 45.4991C199.958 45.526 199.982 45.5484 200.01 45.5643C200.038 45.5801 200.07 45.5893 200.102 45.5906C200.106 45.5906 200.109 45.5906 200.112 45.5906H213.247C213.324 45.5913 213.398 45.567 213.459 45.5213C213.52 45.4756 213.565 45.4114 213.586 45.3379C213.819 44.5082 213.936 43.6506 213.936 42.7888C213.934 37.5919 209.717 33.3783 204.515 33.3783Z" fill="#FBAD41"/>
<path d="M125.123 49.4801H127.364V55.597H131.28V57.5588H125.123V49.4801Z" fill="#222222"/>
<path d="M133.6 53.5427V53.5197C133.6 51.2 135.471 49.3182 137.966 49.3182C140.461 49.3182 142.309 51.1767 142.309 53.4965V53.5197C142.309 55.8395 140.437 57.7201 137.943 57.7201C135.449 57.7201 133.6 55.8624 133.6 53.5427ZM140.022 53.5427V53.5197C140.022 52.3556 139.179 51.338 137.943 51.338C136.719 51.338 135.898 52.3307 135.898 53.4965V53.5197C135.898 54.684 136.742 55.7011 137.966 55.7011C139.202 55.7011 140.022 54.7084 140.022 53.5427Z" fill="#222222"/>
<path d="M145.051 54.0158V49.4797H147.327V53.9699C147.327 55.1341 147.916 55.6894 148.816 55.6894C149.717 55.6894 150.306 55.1586 150.306 54.0274V49.4797H152.582V53.9568C152.582 56.5653 151.092 57.7073 148.793 57.7073C146.495 57.7073 145.051 56.5432 145.051 54.0146" fill="#222222"/>
<path d="M156.011 49.4803H159.129C162.017 49.4803 163.692 51.1421 163.692 53.4732V53.4968C163.692 55.8275 161.994 57.5591 159.083 57.5591H156.011V49.4803ZM159.164 55.573C160.504 55.573 161.393 54.8357 161.393 53.5298V53.5069C161.393 52.2147 160.504 51.4642 159.164 51.4642H158.252V55.5737L159.164 55.573Z" fill="#222222"/>
<path d="M166.949 49.4801H173.417V51.4426H169.19V52.8155H173.013V54.6735H169.19V57.5588H166.949V49.4801Z" fill="#222222"/>
<path d="M176.534 49.4801H178.775V55.597H182.691V57.5588H176.534V49.4801Z" fill="#222222"/>
<path d="M188.546 49.4222H190.705L194.148 57.5588H191.746L191.156 56.1159H188.037L187.46 57.5588H185.104L188.546 49.4222ZM190.509 54.3736L189.608 52.0766L188.696 54.3736H190.509Z" fill="#222222"/>
<path d="M197.034 49.4797H200.857C202.094 49.4797 202.948 49.8033 203.49 50.3571C203.965 50.8189 204.207 51.4437 204.207 52.2389V52.2616C204.207 53.4962 203.547 54.3158 202.544 54.7425L204.473 57.5591H201.885L200.256 55.112H199.275V57.5591H197.034V49.4797ZM200.753 53.358C201.516 53.358 201.955 52.9885 201.955 52.3998V52.3769C201.955 51.742 201.493 51.4193 200.741 51.4193H199.275V53.3595L200.753 53.358Z" fill="#222222"/>
<path d="M207.44 49.4801H213.942V51.3848H209.658V52.6075H213.539V54.3736H209.658V55.6549H214V57.5588H207.44V49.4801Z" fill="#222222"/>
<path d="M120.217 54.4895C119.903 55.1985 119.243 55.7007 118.365 55.7007C117.141 55.7007 116.298 54.685 116.298 53.5194V53.4962C116.298 52.3319 117.118 51.3377 118.342 51.3377C119.265 51.3377 119.968 51.9051 120.265 52.6769H122.627C122.249 50.7542 120.558 49.3186 118.365 49.3186C115.87 49.3186 114 51.2015 114 53.5194V53.5424C114 55.8621 115.847 57.7209 118.342 57.7209C120.476 57.7209 122.144 56.3402 122.584 54.4899L120.217 54.4895Z" fill="#222222"/>
</g>
<defs>
<clipPath id="clip0_401_2949">
<rect width="50" height="22.6644" fill="white" transform="translate(20 30)"/>
</clipPath>
<clipPath id="clip1_401_2949">
<rect width="100" height="33.7209" fill="white" transform="translate(114 24)"/>
</clipPath>
</defs>
</svg>
