<svg width="250" height="82" viewBox="0 0 250 82" fill="none" xmlns="http://www.w3.org/2000/svg">
<g clipPath="url(#clip0_401_2279)">
<path d="M45 16C31.1933 16 20 27.1925 20 41H70C70 27.1925 58.8076 16 45 16Z" fill="#129C78"/>
<path d="M45 66.0001C58.8076 66.0001 70 54.807 70 41.0001H20C20 54.807 31.1933 66.0001 45 66.0001Z" fill="#129C78"/>
<path opacity="0.2" fillRule="evenodd" clipRule="evenodd" d="M49.9326 44.7178C49.6835 44.7178 49.4374 44.7729 49.2119 44.879C48.8721 45.039 48.5949 45.3073 48.424 45.6419C48.2532 45.9764 48.1982 46.3582 48.2677 46.7274C48.4151 47.5458 49.1847 48.1063 50.0167 48.1063H52.6358L54.1544 47.8934C51.7247 51.458 47.5068 53.0974 42.8946 52.3737C39.1407 51.7839 35.9181 49.2448 34.5507 45.6972C31.4649 37.6433 37.3468 29.9541 45.0109 29.9541C49.006 29.9541 52.5079 32.2928 54.5166 35.1162V35.1776C54.7699 35.5498 55.16 35.8067 55.6018 35.892C56.0439 35.9773 56.5018 35.884 56.8752 35.6327C57.2225 35.3923 57.4663 35.0292 57.5567 34.6164C57.6475 34.2037 57.5784 33.7719 57.3633 33.4081H57.3761C55.9571 31.1854 53.9646 29.3864 51.6092 28.2006C49.2536 27.0148 46.622 26.486 43.9912 26.6699C36.6867 27.162 30.7716 33.1435 30.3516 40.456C29.8633 48.9668 36.6144 55.9158 45.0109 55.9158C47.1063 55.9241 49.1788 55.479 51.0861 54.6109C52.9932 53.7431 54.6903 52.4728 56.0607 50.8876L55.7423 52.6718V54.2829C55.7423 55.1132 56.3018 55.8836 57.1212 56.031C57.3663 56.0774 57.6183 56.0691 57.8597 56.0066C58.1011 55.9445 58.3258 55.8297 58.5176 55.6705C58.7097 55.5116 58.864 55.3119 58.9699 55.0862C59.0761 54.8606 59.1311 54.6145 59.1308 54.3652V44.7178H49.9326Z" fill="black"/>
<path fillRule="evenodd" clipRule="evenodd" d="M49.9326 44.3888C49.6835 44.3888 49.4374 44.4439 49.2119 44.55C48.8721 44.71 48.5949 44.9783 48.424 45.3129C48.2532 45.6474 48.1982 46.0292 48.2677 46.3984C48.4151 47.2168 49.1847 47.7774 50.0167 47.7774H52.6358L54.1544 47.5644C51.7247 51.129 47.5068 52.7684 42.8946 52.0448C39.1407 51.455 35.9181 48.9158 34.5507 45.3682C31.4649 37.3144 37.3468 29.6251 45.0109 29.6251C49.006 29.6251 52.5079 31.9638 54.5166 34.7872V34.8486C54.7699 35.2208 55.16 35.4777 55.6018 35.563C56.0439 35.6483 56.5018 35.5551 56.8752 35.3037C57.2225 35.0633 57.4663 34.7002 57.5567 34.2875C57.6475 33.8747 57.5784 33.443 57.3633 33.0791H57.3761C55.9571 30.8564 53.9646 29.0574 51.6092 27.8716C49.2536 26.6858 46.622 26.157 43.9912 26.3409C36.6867 26.833 30.7716 32.8146 30.3516 40.127C29.8633 48.6377 36.6144 55.5869 45.0109 55.5869C47.1063 55.5951 49.1788 55.15 51.0861 54.2819C52.9932 53.4142 54.6903 52.1438 56.0607 50.5586L55.7423 52.3428V53.954C55.7423 54.7842 56.3018 55.5546 57.1212 55.702C57.3663 55.7484 57.6183 55.7402 57.8597 55.6777C58.1011 55.6155 58.3258 55.5007 58.5176 55.3415C58.7097 55.1826 58.864 54.9829 58.9699 54.7573C59.0761 54.5316 59.1311 54.2855 59.1308 54.0362V44.3888H49.9326Z" fill="white"/>
</g>
<g clipPath="url(#clip1_401_2279)">
<path fillRule="evenodd" clipRule="evenodd" d="M128.411 46.8443C128.043 46.7037 127.802 46.4075 127.802 46.0124C127.802 45.5333 128.198 45.1389 128.679 45.1389C128.821 45.1389 128.934 45.1668 129.033 45.2092C129.656 45.4911 130.32 45.6601 131.127 45.6601C132.598 45.6601 133.291 44.9555 133.291 43.6019V43.2353C132.654 43.9969 131.962 44.4617 130.816 44.4617C129.047 44.4617 127.448 43.1788 127.448 40.9373V40.9093C127.448 38.6535 129.075 37.3849 130.816 37.3849C131.99 37.3849 132.683 37.8782 133.263 38.5125V38.4982C133.263 37.9204 133.744 37.4414 134.338 37.4414C134.932 37.4414 135.413 37.9204 135.413 38.5125V43.3764C135.413 44.73 135.088 45.7167 134.451 46.351C133.744 47.056 132.654 47.3661 131.183 47.3661C130.179 47.3661 129.302 47.1971 128.411 46.8443ZM133.291 40.9373V40.9093C133.291 39.8799 132.485 39.161 131.438 39.161C130.391 39.161 129.599 39.8799 129.599 40.9093V40.9373C129.599 41.9805 130.391 42.6855 131.438 42.6855C132.485 42.6855 133.291 41.9666 133.291 40.9373Z" fill="#0E101A"/>
<path fillRule="evenodd" clipRule="evenodd" d="M128.411 46.8442C128.043 46.7037 127.802 46.4074 127.802 46.0123C127.802 45.5333 128.198 45.1388 128.679 45.1388C128.821 45.1388 128.934 45.1668 129.033 45.2091C129.656 45.491 130.32 45.66 131.127 45.66C132.598 45.66 133.291 44.9555 133.291 43.6019V43.2353C132.654 43.9969 131.962 44.4616 130.816 44.4616C129.047 44.4616 127.448 43.1787 127.448 40.9373V40.9092C127.448 38.6534 129.075 37.3848 130.816 37.3848C131.99 37.3848 132.683 37.8781 133.263 38.5124V38.4982C133.263 37.9203 133.744 37.4413 134.338 37.4413C134.932 37.4413 135.413 37.9203 135.413 38.5124V43.3763C135.413 44.73 135.088 45.7166 134.451 46.3509C133.744 47.0559 132.654 47.3661 131.183 47.3661C130.179 47.3661 129.302 47.1971 128.411 46.8442ZM133.291 40.9373V40.9092C133.291 39.8798 132.485 39.1609 131.438 39.1609C130.391 39.1609 129.599 39.8798 129.599 40.9092V40.9373C129.599 41.9804 130.391 42.6855 131.438 42.6855C132.485 42.6855 133.291 41.9666 133.291 40.9373ZM136.63 38.5124C136.63 37.9203 137.111 37.4413 137.705 37.4413C138.299 37.4413 138.78 37.9203 138.78 38.5124V38.8505C139.092 38.1178 139.601 37.4413 140.238 37.4413C140.903 37.4413 141.284 37.8781 141.284 38.4839C141.284 39.048 140.917 39.3865 140.478 39.4853C139.389 39.7393 138.78 40.5707 138.78 42.0933V44.0951C138.78 44.6872 138.299 45.1668 137.705 45.1668C137.111 45.1668 136.63 44.6872 136.63 44.0951V38.5124ZM141.03 42.9109V42.883C141.03 41.2336 142.289 40.4719 144.086 40.4719C144.849 40.4719 145.401 40.5987 145.939 40.7819V40.6551C145.939 39.7673 145.387 39.2735 144.312 39.2735C143.718 39.2735 143.237 39.3585 142.827 39.4853C142.699 39.5275 142.615 39.5419 142.515 39.5419C142.02 39.5419 141.624 39.1609 141.624 38.6672C141.624 38.2868 141.864 37.9627 142.204 37.8354C142.883 37.5818 143.619 37.4413 144.623 37.4413C145.797 37.4413 146.646 37.7513 147.183 38.2869C147.749 38.8505 148.004 39.6828 148.004 40.698V44.1374C148.004 44.7157 147.538 45.1668 146.957 45.1668C146.335 45.1668 145.925 44.73 145.925 44.2784V44.2641C145.401 44.8425 144.68 45.2228 143.633 45.2228C142.204 45.2228 141.03 44.4057 141.03 42.9109ZM145.967 42.4177V42.0369C145.599 41.8678 145.119 41.7548 144.595 41.7548C143.675 41.7548 143.11 42.1214 143.11 42.7985V42.8264C143.11 43.4048 143.591 43.7428 144.283 43.7428C145.288 43.7428 145.967 43.193 145.967 42.4177ZM149.151 38.5124C149.151 37.9203 149.631 37.4413 150.226 37.4413C150.82 37.4413 151.301 37.9203 151.301 38.5124V38.5975C151.796 37.9627 152.447 37.3848 153.536 37.3848C154.526 37.3848 155.276 37.8215 155.672 38.5832C156.337 37.8078 157.13 37.3848 158.162 37.3848C159.761 37.3848 160.723 38.3434 160.723 40.1624V44.0951C160.723 44.6872 160.242 45.1668 159.647 45.1668C159.053 45.1668 158.572 44.6872 158.572 44.0951V40.867C158.572 39.8519 158.119 39.33 157.313 39.33C156.507 39.33 156.012 39.8519 156.012 40.867V44.0951C156.012 44.6872 155.531 45.1668 154.937 45.1668C154.342 45.1668 153.861 44.6872 153.861 44.0951V40.867C153.861 39.8519 153.409 39.33 152.603 39.33C151.796 39.33 151.301 39.8519 151.301 40.867V44.0951C151.301 44.6872 150.82 45.1668 150.226 45.1668C149.631 45.1668 149.151 44.6872 149.151 44.0951V38.5124ZM161.883 38.5124C161.883 37.9203 162.364 37.4413 162.959 37.4413C163.553 37.4413 164.034 37.9203 164.034 38.5124V38.5975C164.528 37.9627 165.18 37.3848 166.269 37.3848C167.259 37.3848 168.009 37.8215 168.405 38.5832C169.07 37.8078 169.862 37.3848 170.895 37.3848C172.493 37.3848 173.455 38.3434 173.455 40.1624V44.0951C173.455 44.6872 172.975 45.1668 172.38 45.1668C171.786 45.1668 171.305 44.6872 171.305 44.0951V40.867C171.305 39.8519 170.852 39.33 170.046 39.33C169.239 39.33 168.744 39.8519 168.744 40.867V44.0951C168.744 44.6872 168.264 45.1668 167.669 45.1668C167.075 45.1668 166.594 44.6872 166.594 44.0951V40.867C166.594 39.8519 166.142 39.33 165.335 39.33C164.528 39.33 164.034 39.8519 164.034 40.867V44.0951C164.034 44.6872 163.553 45.1668 162.959 45.1668C162.364 45.1668 161.883 44.6872 161.883 44.0951V38.5124ZM174.163 42.9109V42.883C174.163 41.2336 175.423 40.4719 177.219 40.4719C177.983 40.4719 178.535 40.5987 179.072 40.7819V40.6551C179.072 39.7673 178.521 39.2735 177.445 39.2735C176.851 39.2735 176.37 39.3585 175.96 39.4853C175.833 39.5275 175.748 39.5419 175.649 39.5419C175.153 39.5419 174.758 39.1609 174.758 38.6672C174.758 38.2868 174.998 37.9627 175.337 37.8354C176.017 37.5818 176.752 37.4413 177.757 37.4413C178.931 37.4413 179.78 37.7513 180.317 38.2869C180.883 38.8505 181.137 39.6828 181.137 40.698V44.1374C181.137 44.7157 180.671 45.1668 180.091 45.1668C179.468 45.1668 179.058 44.73 179.058 44.2784V44.2641C178.535 44.8425 177.813 45.2228 176.767 45.2228C175.337 45.2228 174.163 44.4057 174.163 42.9109ZM179.101 42.4177V42.0369C178.733 41.8678 178.252 41.7548 177.729 41.7548C176.809 41.7548 176.243 42.1214 176.243 42.7985V42.8264C176.243 43.4048 176.724 43.7428 177.417 43.7428C178.421 43.7428 179.101 43.193 179.101 42.4177ZM182.284 38.5124C182.284 37.9203 182.765 37.4413 183.359 37.4413C183.953 37.4413 184.434 37.9203 184.434 38.5124V38.8505C184.745 38.1178 185.255 37.4413 185.892 37.4413C186.557 37.4413 186.938 37.8781 186.938 38.4839C186.938 39.048 186.571 39.3865 186.131 39.4853C185.043 39.7393 184.434 40.5707 184.434 42.0933V44.0951C184.434 44.6872 183.953 45.1668 183.359 45.1668C182.765 45.1668 182.284 44.6872 182.284 44.0951V38.5124ZM187.59 35.7771C187.59 35.185 188.07 34.7059 188.664 34.7059C189.259 34.7059 189.74 35.185 189.74 35.7771V44.0951C189.74 44.6872 189.259 45.1668 188.664 45.1668C188.07 45.1668 187.59 44.6872 187.59 44.0951V35.7771ZM191.452 47.1828C191.14 47.0703 190.772 46.8162 190.772 46.295C190.772 45.7731 191.183 45.4203 191.622 45.4203C191.79 45.4203 191.89 45.4488 191.975 45.4768C192.158 45.5333 192.272 45.5618 192.428 45.5618C192.809 45.5618 192.994 45.491 193.192 45.1103L193.263 44.9413L190.674 38.9635C190.617 38.8224 190.561 38.6112 190.561 38.4702C190.561 37.8639 191.027 37.4413 191.622 37.4413C192.158 37.4413 192.47 37.7371 192.653 38.2441L194.295 42.6432L195.88 38.2583C196.049 37.8078 196.36 37.4413 196.913 37.4413C197.463 37.4413 197.931 37.8639 197.931 38.4278C197.931 38.5975 197.874 38.8368 197.831 38.9355L195.186 45.2655C194.549 46.802 193.913 47.3803 192.626 47.3803C192.144 47.3803 191.805 47.31 191.452 47.1828Z" fill="#0E101A"/>
<path d="M109.709 29.5859C103.243 29.5859 98 34.8281 98 41.2951H121.418C121.418 34.8281 116.176 29.5859 109.709 29.5859Z" fill="#4CA385"/>
<path d="M109.709 53.0041C116.176 53.0041 121.418 47.7616 121.418 41.295H98C98 47.7616 103.243 53.0041 109.709 53.0041Z" fill="#4CA385"/>
<g filter="url(#filter0_d_401_2279)">
<path fillRule="evenodd" clipRule="evenodd" d="M112.019 42.8822C111.902 42.8822 111.787 42.908 111.682 42.9577C111.522 43.0327 111.393 43.1583 111.313 43.315C111.233 43.4717 111.207 43.6505 111.239 43.8235C111.308 44.2068 111.669 44.4693 112.059 44.4693H113.285L113.997 44.3695C112.859 46.0391 110.883 46.807 108.723 46.4681C106.965 46.1918 105.455 45.0026 104.815 43.3409C103.37 39.5688 106.124 35.9674 109.714 35.9674C111.585 35.9674 113.225 37.0628 114.166 38.3851V38.4139C114.285 38.5882 114.467 38.7086 114.674 38.7486C114.882 38.7885 115.096 38.7448 115.271 38.6271C115.434 38.5145 115.548 38.3444 115.59 38.1511C115.633 37.9577 115.6 37.7555 115.499 37.5851H115.505C114.841 36.5441 113.908 35.7015 112.804 35.1461C111.701 34.5907 110.469 34.3431 109.236 34.4292C105.815 34.6597 103.045 37.4613 102.848 40.8861C102.619 44.8723 105.781 48.127 109.714 48.127C110.695 48.1309 111.666 47.9223 112.559 47.5159C113.453 47.1094 114.248 46.5145 114.889 45.7719L114.74 46.6076V47.3623C114.74 47.751 115.002 48.1119 115.386 48.1809C115.501 48.2027 115.619 48.1987 115.732 48.1695C115.845 48.1404 115.95 48.0866 116.04 48.0121C116.13 47.9376 116.202 47.8441 116.252 47.7385C116.302 47.6327 116.327 47.5174 116.327 47.4007V42.8822H112.019Z" fill="white"/>
</g>
</g>
<defs>
<filter id="filter0_d_401_2279" x="102.435" y="34.4125" width="14.2927" height="14.8851" filterUnits="userSpaceOnUse" colorInterpolationFilters="sRGB">
<feFlood floodOpacity="0" result="BackgroundImageFix"/>
<feColorMatrix in="SourceAlpha" type="matrix" values="0 0 0 0 0 0 0 0 0 0 0 0 0 0 0 0 0 0 127 0" result="hardAlpha"/>
<feOffset dy="0.701726"/>
<feGaussianBlur stdDeviation="0.200493"/>
<feColorMatrix type="matrix" values="0 0 0 0 0 0 0 0 0 0 0 0 0 0 0 0 0 0 0.15 0"/>
<feBlend mode="normal" in2="BackgroundImageFix" result="effect1_dropShadow_401_2279"/>
<feBlend mode="normal" in="SourceGraphic" in2="effect1_dropShadow_401_2279" result="shape"/>
</filter>
<clipPath id="clip0_401_2279">
<rect width="50" height="50" fill="white" transform="translate(20 16)"/>
</clipPath>
<clipPath id="clip1_401_2279">
<rect width="100" height="24.5902" fill="white" transform="translate(98 29)"/>
</clipPath>
</defs>
</svg>
