<svg width="250" height="82" viewBox="0 0 250 82" fill="none" xmlns="http://www.w3.org/2000/svg">
<g clipPath="url(#clip0_401_1429)">
<path fillRule="evenodd" clipRule="evenodd" d="M33.0717 16.932C31.5111 17.4482 29.7071 18.2391 29.0626 18.6906C27.9556 19.4658 27.801 19.4421 26.252 18.2608C25.0611 17.3522 23.9823 17.0103 22.3066 17.0103H20V41.7578V66.505H24.0404H28.0808V58.2492V49.9931L30.4798 51.176C38.8606 55.3083 48.849 52.7113 54.0763 45.0406C60.5818 35.4952 56.9136 22.4633 46.3611 17.6325C42.5586 15.8916 37.0919 15.6037 33.0717 16.932ZM43.9899 25.2103C47.6944 27.1537 49.4692 30.5538 49.2066 35.2043C48.9611 39.5477 47.2889 42.1659 43.5813 44.0139C34.1631 48.7068 24.6975 39.1502 29.4056 29.7017C32.0556 24.3835 38.5823 22.3734 43.9899 25.2103Z" fill="#001D45"/>
<path d="M55.2114 52.8689L62.4791 47.5775C66.4766 44.6674 69.8044 42.281 69.8735 42.2744C69.9427 42.2679 69.9998 44.6492 69.9998 47.5658V52.8689H62.6054H55.2114Z" fill="#005DE1"/>
</g>
<g clipPath="url(#clip1_401_1429)">
<path d="M191.828 35.2382V35.2644C190.828 34.5528 189.652 34.1303 188.427 34.0432C187.203 33.956 185.979 34.2075 184.888 34.7701C183.797 35.3327 182.882 36.1848 182.243 37.2329C181.605 38.281 181.267 39.4846 181.267 40.712C181.267 41.9393 181.605 43.143 182.243 44.1911C182.882 45.2392 183.797 46.0912 184.888 46.6539C185.979 47.2165 187.203 47.468 188.427 47.3808C189.652 47.2936 190.828 46.8711 191.828 46.1596V47.3977H194.64V33.1929L191.828 35.2382ZM187.955 44.5906C187.193 44.5917 186.448 44.3691 185.813 43.9504C185.177 43.5317 184.678 42.9352 184.379 42.2354C184.079 41.5355 183.992 40.763 184.128 40.0139C184.264 39.2648 184.617 38.5722 185.143 38.0222C185.669 37.4722 186.346 37.089 187.088 36.9204C187.831 36.7517 188.606 36.805 189.319 37.0736C190.031 37.3422 190.649 37.8143 191.095 38.4311C191.541 39.0479 191.796 39.7823 191.828 40.5429V40.8644C191.789 41.8656 191.364 42.8127 190.642 43.5073C189.92 44.2019 188.956 44.5901 187.955 44.5906ZM180.488 47.3953V43.3525L174.917 47.3953H180.488ZM198.881 30.1287L196.059 32.1715V34.9977L198.878 32.9477L198.881 30.1287ZM196.059 36.7572L196.055 47.3953H198.867L198.878 34.7072L196.059 36.7572Z" fill="#0068E5"/>
<path d="M135.314 34.0239C133.992 34.0239 132.7 34.4159 131.6 35.1503C130.501 35.8847 129.644 36.9286 129.138 38.15C128.632 39.3714 128.499 40.7154 128.757 42.0122C129.014 43.309 129.65 44.5002 130.585 45.4354C131.52 46.3707 132.71 47.0078 134.007 47.2663C135.304 47.5248 136.648 47.3931 137.87 46.8878C139.091 46.3825 140.136 45.5263 140.871 44.4275C141.606 43.3286 141.999 42.0365 142 40.7144C142.001 39.836 141.828 38.9661 141.492 38.1544C141.157 37.3427 140.664 36.6051 140.044 35.9838C139.423 35.3625 138.685 34.8696 137.874 34.5333C137.062 34.197 136.193 34.0239 135.314 34.0239ZM135.314 44.5906C134.546 44.591 133.795 44.3635 133.155 43.9368C132.516 43.51 132.018 42.9033 131.724 42.1933C131.43 41.4834 131.353 40.7021 131.503 39.9485C131.654 39.1948 132.024 38.5027 132.568 37.9596C133.111 37.4166 133.804 37.0471 134.558 36.8978C135.312 36.7486 136.093 36.8264 136.802 37.1213C137.512 37.4163 138.118 37.9151 138.544 38.5547C138.97 39.1943 139.197 39.9459 139.195 40.7144C139.193 41.7427 138.784 42.7282 138.056 43.4548C137.329 44.1815 136.343 44.5899 135.314 44.5906ZM120.529 34.0239C119.366 34.0248 118.223 34.3291 117.213 34.9066C116.204 35.4842 115.363 36.3151 114.773 37.3173C114.183 38.3195 113.864 39.4582 113.849 40.6211C113.833 41.784 114.121 42.9308 114.685 43.9483C115.248 44.9657 116.067 45.8186 117.061 46.4227C118.055 47.0268 119.189 47.3612 120.352 47.3928C121.514 47.4245 122.665 47.1524 123.69 46.6033C124.715 46.0542 125.58 45.2472 126.198 44.262L123.762 42.8572C123.369 43.4496 122.821 43.9225 122.177 44.2244C121.534 44.5263 120.82 44.6455 120.113 44.5691C119.406 44.4927 118.734 44.2235 118.17 43.7911C117.606 43.3586 117.172 42.7794 116.914 42.1167H127.069C127.28 41.1415 127.27 40.1314 127.039 39.1606C126.809 38.1897 126.364 37.2829 125.737 36.5065C125.11 35.7302 124.317 35.104 123.417 34.674C122.516 34.244 121.531 34.021 120.533 34.0215L120.529 34.0239ZM120.529 36.8263C121.311 36.8269 122.076 37.0641 122.721 37.5069C123.366 37.9497 123.863 38.5772 124.145 39.3072H116.914C116.952 39.2041 116.995 39.1041 117.043 39.0072C117.361 38.3537 117.857 37.8028 118.473 37.4172C119.089 37.0316 119.802 36.8269 120.529 36.8263ZM105.743 34.0239C104.336 34.0218 102.965 34.4661 101.826 35.2929L100.752 34.4763C100.652 34.4024 100.531 34.3623 100.407 34.362H99.0143L99 52.2382H101.812V46.1263C102.666 46.7441 103.654 47.1513 104.695 47.3146C105.736 47.4779 106.801 47.3927 107.804 47.0659C108.806 46.7392 109.716 46.1801 110.461 45.4344C111.206 44.6887 111.764 43.7774 112.09 42.775C112.415 41.7725 112.499 40.7073 112.335 39.6662C112.17 38.6251 111.762 37.6377 111.143 36.7844C110.524 35.9312 109.712 35.2363 108.774 34.7566C107.835 34.2768 106.797 34.0258 105.743 34.0239ZM105.743 44.5906C104.974 44.591 104.223 44.3635 103.584 43.9368C102.945 43.51 102.447 42.9033 102.153 42.1933C101.859 41.4834 101.782 40.7021 101.932 39.9485C102.082 39.1948 102.453 38.5027 102.996 37.9596C103.54 37.4166 104.233 37.0471 104.986 36.8978C105.74 36.7486 106.521 36.8264 107.231 37.1213C107.941 37.4163 108.547 37.9151 108.973 38.5547C109.399 39.1943 109.625 39.9459 109.624 40.7144C109.623 41.7428 109.213 42.7287 108.485 43.4556C107.758 44.1823 106.771 44.5906 105.743 44.5906ZM150.126 34.0239C148.727 34.0213 147.363 34.4604 146.229 35.2787L145.164 34.4763C145.065 34.4021 144.943 34.362 144.819 34.362H143.426L143.412 52.2382H146.226V46.1477C147.082 46.76 148.071 47.1615 149.111 47.3195C150.152 47.4776 151.215 47.3877 152.215 47.0572C153.214 46.7268 154.121 46.1651 154.862 45.4178C155.603 44.6706 156.158 43.7589 156.48 42.757C156.802 41.755 156.883 40.6911 156.717 39.6519C156.55 38.6126 156.141 37.6274 155.522 36.7763C154.902 35.9252 154.091 35.2323 153.154 34.7541C152.216 34.2758 151.179 34.0256 150.126 34.0239ZM150.126 44.5906C149.357 44.5925 148.605 44.3661 147.965 43.9402C147.325 43.5144 146.826 42.9081 146.531 42.1983C146.236 41.4884 146.158 40.707 146.307 39.9529C146.457 39.1987 146.826 38.5059 147.37 37.9622C147.913 37.4184 148.606 37.0482 149.36 36.8984C150.114 36.7486 150.895 36.8259 151.605 37.1207C152.315 37.4154 152.922 37.9142 153.348 38.554C153.775 39.1937 154.001 39.9456 154 40.7144C153.999 41.7416 153.59 42.7264 152.864 43.453C152.138 44.1796 151.153 44.5887 150.126 44.5906ZM175.688 42.1144C176.044 40.4882 175.782 38.7878 174.953 37.3442C174.124 35.9006 172.787 34.8172 171.203 34.3049C169.62 33.7926 167.902 33.888 166.384 34.5726C164.867 35.2572 163.659 36.4819 162.995 38.0084C162.33 39.5349 162.258 41.2539 162.792 42.8307C163.326 44.4075 164.427 45.7293 165.882 46.5387C167.336 47.3481 169.04 47.5872 170.661 47.2095C172.283 46.8318 173.705 45.8643 174.652 44.4953L172.383 42.8572C171.99 43.4496 171.442 43.9225 170.799 44.2244C170.155 44.5262 169.441 44.6453 168.735 44.5686C168.028 44.4919 167.356 44.2224 166.792 43.7896C166.229 43.3567 165.795 42.7772 165.538 42.1144H175.688ZM169.152 36.8263C169.935 36.8269 170.699 37.0641 171.345 37.5069C171.99 37.9497 172.487 38.5772 172.769 39.3072H165.538C165.576 39.2041 165.619 39.1041 165.667 39.0072C165.985 38.3537 166.481 37.8028 167.097 37.4172C167.713 37.0316 168.425 36.8269 169.152 36.8263ZM158.233 30.1287H161.048V47.3953H158.233V30.1287Z" fill="#00204E"/>
</g>
<defs>
<clipPath id="clip0_401_1429">
<rect width="50" height="50.5051" fill="white" transform="translate(20 16)"/>
</clipPath>
<clipPath id="clip1_401_1429">
<rect width="100" height="22.381" fill="white" transform="translate(99 30)"/>
</clipPath>
</defs>
</svg>
