<svg width="250" height="82" viewBox="0 0 250 82" fill="none" xmlns="http://www.w3.org/2000/svg">
<g clip-path="url(#clip0_401_1527)">
<path d="M70 45C70 58.8064 58.8064 70 45 70C31.1937 70 20 58.8064 20 45C20 31.1937 31.1937 20 45 20C58.8092 20 70 31.1937 70 45Z" fill="#2081E2"/>
<path d="M32.3341 45.84L32.4419 45.6704L38.9454 35.4965C39.0405 35.3476 39.2639 35.363 39.3358 35.5248C40.4223 37.9597 41.3598 40.988 40.9206 42.8733C40.7331 43.649 40.2194 44.6995 39.6415 45.6704C39.567 45.8117 39.4848 45.9504 39.3975 46.084C39.3564 46.1456 39.287 46.1816 39.2125 46.1816H32.5241C32.3443 46.1816 32.239 45.9864 32.3341 45.84Z" fill="white"/>
<path d="M61.3222 47.7305V49.341C61.3222 49.4334 61.2657 49.5156 61.1835 49.5515C60.6801 49.7673 58.9566 50.5584 58.24 51.555C56.4112 54.1004 55.014 57.74 51.8906 57.74H38.8605C34.2424 57.74 30.5 53.9848 30.5 49.3512V49.2022C30.5 49.0789 30.6001 48.9788 30.7234 48.9788H37.9872C38.131 48.9788 38.2364 49.1123 38.2236 49.2536C38.1722 49.7262 38.2595 50.2091 38.483 50.6483C38.9145 51.5242 39.8083 52.0713 40.774 52.0713H44.37V49.2639H40.8151C40.6328 49.2639 40.525 49.0533 40.6303 48.9043C40.6688 48.8452 40.7125 48.7836 40.7586 48.7143C41.0951 48.2365 41.5754 47.4942 42.0532 46.6492C42.3794 46.079 42.6953 45.4702 42.9496 44.8589C43.001 44.7485 43.0421 44.6354 43.0832 44.525C43.1525 44.3298 43.2245 44.1474 43.2758 43.965C43.3272 43.8109 43.3682 43.6491 43.4093 43.4975C43.5301 42.9787 43.5814 42.4291 43.5814 41.8589C43.5814 41.6354 43.5712 41.4016 43.5506 41.1782C43.5403 40.9342 43.5096 40.6902 43.4787 40.4461C43.4582 40.2304 43.4196 40.0172 43.3785 39.7938C43.3272 39.4676 43.2552 39.1439 43.173 38.8177L43.1448 38.6945C43.0831 38.471 43.0318 38.2578 42.9599 38.0343C42.757 37.3331 42.5232 36.6499 42.2766 36.0103C42.1867 35.756 42.084 35.5121 41.9813 35.2681C41.8298 34.9008 41.6756 34.5669 41.5343 34.2509C41.4624 34.1071 41.4008 33.976 41.3391 33.8425C41.2698 33.6909 41.1979 33.5394 41.1259 33.3956C41.0746 33.2852 41.0155 33.1824 40.9744 33.0796L40.5352 32.268C40.4735 32.1575 40.5763 32.0265 40.697 32.0599L43.4454 32.8048H43.4531C43.4582 32.8048 43.4608 32.8074 43.4633 32.8074L43.8255 32.9075L44.2236 33.0206L44.37 33.0617V31.4281C44.37 30.6395 45.0018 30 45.7827 30C46.1731 30 46.5276 30.1592 46.7819 30.4186C47.0361 30.6781 47.1954 31.0325 47.1954 31.4281V33.8528L47.4882 33.9349C47.5113 33.9427 47.5344 33.953 47.555 33.9684C47.6269 34.0223 47.7296 34.1019 47.8606 34.1995C47.9634 34.2817 48.0738 34.3819 48.2073 34.4846C48.4719 34.6978 48.7878 34.9727 49.1346 35.2886C49.227 35.3682 49.317 35.4504 49.3992 35.5326C49.8461 35.9487 50.3469 36.4367 50.8247 36.9761C50.9583 37.1277 51.0892 37.2818 51.2228 37.4436C51.3563 37.608 51.4977 37.7698 51.6209 37.9316C51.7827 38.1474 51.9574 38.3708 52.109 38.6045C52.1809 38.715 52.2631 38.828 52.3324 38.9384C52.5276 39.2338 52.6997 39.5395 52.8641 39.8451C52.9335 39.9864 53.0054 40.1405 53.067 40.292C53.2494 40.7004 53.3932 41.1166 53.4856 41.5326C53.5139 41.6226 53.5345 41.7202 53.5448 41.8075V41.8281C53.5756 41.9513 53.5858 42.0823 53.5961 42.2159C53.6372 42.6423 53.6166 43.0686 53.5242 43.4975C53.4857 43.6799 53.4343 43.852 53.3727 44.0344C53.311 44.2091 53.2493 44.3914 53.1698 44.5635C53.0156 44.9205 52.8333 45.2775 52.6175 45.6115C52.5482 45.7347 52.466 45.8658 52.3838 45.989C52.2939 46.12 52.2014 46.2433 52.1192 46.364C52.0062 46.5182 51.8855 46.6799 51.7622 46.8238C51.6517 46.9753 51.5387 47.1269 51.4154 47.2605C51.2433 47.4634 51.079 47.656 50.9069 47.841C50.8042 47.9617 50.6937 48.0849 50.5807 48.1954C50.4703 48.3186 50.3572 48.4291 50.2544 48.5319C50.0824 48.704 49.9386 48.8375 49.8178 48.948L49.5353 49.2074C49.4942 49.2433 49.4403 49.2639 49.3838 49.2639H47.1954V52.0713H49.9488C50.5652 52.0713 51.1509 51.8529 51.6235 51.4522C51.7853 51.311 52.4917 50.6997 53.3264 49.7776C53.3547 49.7467 53.3907 49.7236 53.4318 49.7134L61.0371 47.5147C61.1784 47.4736 61.3222 47.5815 61.3222 47.7305Z" fill="white"/>
</g>
<g clip-path="url(#clip1_401_1527)">
<path d="M133.333 50.2863C132.304 50.2863 131.357 50.0556 130.494 49.5941C129.641 49.1326 128.96 48.4906 128.45 47.668C127.951 46.8354 127.702 45.9024 127.702 44.8692C127.702 43.8359 127.951 42.9079 128.45 42.0853C128.96 41.2627 129.641 40.6207 130.494 40.1592C131.357 39.6978 132.304 39.467 133.333 39.467C134.363 39.467 135.304 39.6978 136.157 40.1592C137.02 40.6207 137.696 41.2627 138.185 42.0853C138.684 42.9079 138.934 43.8359 138.934 44.8692C138.934 45.9024 138.684 46.8354 138.185 47.668C137.686 48.4906 137.01 49.1326 136.157 49.5941C135.304 50.0556 134.363 50.2863 133.333 50.2863ZM133.333 47.9389C134.207 47.9389 134.904 47.658 135.424 47.0962C135.954 46.5344 136.219 45.7921 136.219 44.8692C136.219 43.9362 135.954 43.1939 135.424 42.6421C134.904 42.0803 134.207 41.7994 133.333 41.7994C132.449 41.7994 131.742 42.0753 131.212 42.627C130.692 43.1788 130.432 43.9262 130.432 44.8692C130.432 45.8021 130.692 46.5495 131.212 47.1113C131.742 47.663 132.449 47.9389 133.333 47.9389Z" fill="#04111D"/>
<path d="M143.086 42.9732C143.346 42.582 143.704 42.266 144.162 42.0252C144.62 41.7844 145.155 41.6641 145.769 41.6641C146.486 41.6641 147.136 41.8396 147.719 42.1907C148.301 42.5419 148.759 43.0434 149.092 43.6955C149.435 44.3476 149.607 45.105 149.607 45.9677C149.607 46.8304 149.435 47.5929 149.092 48.255C148.759 48.907 148.301 49.4136 147.719 49.7748C147.136 50.1259 146.486 50.3014 145.769 50.3014C145.166 50.3014 144.63 50.1811 144.162 49.9403C143.704 49.6995 143.346 49.3885 143.086 49.0073V52.679H140.418V41.7844H143.086V42.9732ZM146.892 45.9677C146.892 45.3257 146.705 44.8241 146.33 44.4629C145.966 44.0918 145.514 43.9062 144.973 43.9062C144.443 43.9062 143.99 44.0918 143.616 44.4629C143.252 44.8341 143.07 45.3407 143.07 45.9827C143.07 46.6248 143.252 47.1314 143.616 47.5026C143.99 47.8737 144.443 48.0593 144.973 48.0593C145.504 48.0593 145.956 47.8737 146.33 47.5026C146.705 47.1214 146.892 46.6097 146.892 45.9677Z" fill="#04111D"/>
<path d="M159.212 45.8473C159.212 46.0881 159.196 46.3389 159.165 46.5997H153.128C153.169 47.1214 153.341 47.5226 153.642 47.8035C153.954 48.0744 154.334 48.2098 154.781 48.2098C155.447 48.2098 155.91 47.9389 156.17 47.3972H159.009C158.863 47.949 158.598 48.4455 158.213 48.887C157.839 49.3283 157.366 49.6745 156.794 49.9252C156.222 50.176 155.582 50.3014 154.875 50.3014C154.022 50.3014 153.263 50.1259 152.597 49.7748C151.932 49.4237 151.412 48.9221 151.037 48.27C150.663 47.6179 150.476 46.8555 150.476 45.9827C150.476 45.11 150.658 44.3476 151.022 43.6955C151.396 43.0434 151.916 42.5419 152.582 42.1907C153.247 41.8396 154.012 41.6641 154.875 41.6641C155.717 41.6641 156.466 41.8346 157.121 42.1757C157.776 42.5168 158.286 43.0033 158.65 43.6353C159.025 44.2673 159.212 45.0047 159.212 45.8473ZM156.482 45.1702C156.482 44.7288 156.326 44.3777 156.014 44.1168C155.702 43.856 155.312 43.7256 154.844 43.7256C154.396 43.7256 154.017 43.851 153.705 44.1018C153.403 44.3526 153.216 44.7087 153.143 45.1702H156.482Z" fill="#04111D"/>
<path d="M165.923 41.6941C166.942 41.6941 167.754 42.0151 168.357 42.6571C168.97 43.2891 169.277 44.1619 169.277 45.2754V50.181H166.625V45.6215C166.625 45.0597 166.474 44.6234 166.173 44.3124C165.871 44.0014 165.466 43.8459 164.956 43.8459C164.446 43.8459 164.041 44.0014 163.739 44.3124C163.438 44.6234 163.287 45.0597 163.287 45.6215V50.181H160.619V41.7844H163.287V42.8979C163.557 42.5267 163.921 42.2358 164.379 42.0251C164.836 41.8044 165.351 41.6941 165.923 41.6941Z" fill="#04111D"/>
<path d="M175.093 50.2863C174.293 50.2863 173.575 50.1609 172.94 49.9101C172.306 49.6593 171.797 49.2882 171.412 48.7966C171.037 48.305 170.84 47.7132 170.819 47.021H173.658C173.7 47.4122 173.84 47.7132 174.079 47.9238C174.319 48.1245 174.63 48.2248 175.015 48.2248C175.411 48.2248 175.722 48.1395 175.951 47.969C176.18 47.7884 176.295 47.5426 176.295 47.2316C176.295 46.9708 176.201 46.7551 176.014 46.5846C175.837 46.414 175.613 46.2736 175.343 46.1633C175.083 46.0529 174.709 45.9275 174.22 45.7871C173.512 45.5764 172.935 45.3657 172.488 45.1551C172.041 44.9444 171.656 44.6334 171.334 44.2221C171.011 43.8108 170.85 43.2741 170.85 42.612C170.85 41.6289 171.219 40.8615 171.958 40.3097C172.696 39.7479 173.658 39.467 174.844 39.467C176.05 39.467 177.022 39.7479 177.761 40.3097C178.499 40.8615 178.895 41.6339 178.947 42.627H176.061C176.04 42.286 175.91 42.0201 175.671 41.8295C175.431 41.6289 175.125 41.5286 174.75 41.5286C174.428 41.5286 174.168 41.6139 173.97 41.7844C173.773 41.9449 173.674 42.1806 173.674 42.4916C173.674 42.8327 173.84 43.0985 174.173 43.2891C174.506 43.4798 175.026 43.6854 175.733 43.9061C176.44 44.1368 177.012 44.3575 177.449 44.5682C177.896 44.7789 178.281 45.0848 178.603 45.4861C178.926 45.8874 179.087 46.404 179.087 47.036C179.087 47.6379 178.926 48.1846 178.603 48.6762C178.292 49.1678 177.834 49.559 177.231 49.8499C176.628 50.1408 175.915 50.2863 175.093 50.2863Z" fill="#04111D"/>
<path d="M188.934 45.8473C188.934 46.0881 188.919 46.3389 188.888 46.5997H182.85C182.892 47.1214 183.063 47.5226 183.365 47.8035C183.677 48.0744 184.057 48.2098 184.504 48.2098C185.17 48.2098 185.632 47.9389 185.892 47.3972H188.731C188.586 47.949 188.321 48.4455 187.936 48.887C187.562 49.3283 187.088 49.6745 186.516 49.9252C185.944 50.176 185.305 50.3014 184.598 50.3014C183.745 50.3014 182.985 50.1259 182.32 49.7748C181.654 49.4237 181.134 48.9221 180.76 48.27C180.385 47.6179 180.198 46.8555 180.198 45.9827C180.198 45.11 180.38 44.3476 180.744 43.6955C181.119 43.0434 181.639 42.5419 182.304 42.1907C182.97 41.8396 183.734 41.6641 184.598 41.6641C185.44 41.6641 186.189 41.8346 186.844 42.1757C187.499 42.5168 188.009 43.0033 188.373 43.6353C188.747 44.2673 188.934 45.0047 188.934 45.8473ZM186.204 45.1702C186.204 44.7288 186.048 44.3777 185.736 44.1168C185.424 43.856 185.034 43.7256 184.566 43.7256C184.119 43.7256 183.739 43.851 183.427 44.1018C183.126 44.3526 182.939 44.7087 182.866 45.1702H186.204Z" fill="#04111D"/>
<path d="M189.812 45.9677C189.812 45.105 189.978 44.3476 190.311 43.6955C190.654 43.0434 191.117 42.5419 191.699 42.1907C192.282 41.8396 192.932 41.6641 193.649 41.6641C194.263 41.6641 194.799 41.7844 195.256 42.0252C195.724 42.266 196.083 42.582 196.332 42.9732V41.7844H199V50.1811H196.332V48.9923C196.073 49.3835 195.709 49.6995 195.24 49.9403C194.783 50.1811 194.247 50.3014 193.634 50.3014C192.926 50.3014 192.282 50.1259 191.699 49.7748C191.117 49.4136 190.654 48.907 190.311 48.255C189.978 47.5929 189.812 46.8304 189.812 45.9677ZM196.332 45.9827C196.332 45.3407 196.145 44.8341 195.771 44.4629C195.407 44.0918 194.96 43.9062 194.429 43.9062C193.899 43.9062 193.446 44.0918 193.072 44.4629C192.708 44.8241 192.526 45.3257 192.526 45.9677C192.526 46.6097 192.708 47.1214 193.072 47.5026C193.446 47.8737 193.899 48.0593 194.429 48.0593C194.96 48.0593 195.407 47.8737 195.771 47.5026C196.145 47.1314 196.332 46.6248 196.332 45.9827Z" fill="#04111D"/>
<path d="M121.779 45.3895C121.779 51.6794 116.679 56.779 110.39 56.779C104.1 56.779 99 51.6794 99 45.3895C99 39.0996 104.1 34 110.39 34C116.681 34 121.779 39.0996 121.779 45.3895Z" fill="#2081E2"/>
<path d="M104.619 45.7721L104.668 45.6949L107.631 41.0599C107.675 40.992 107.776 40.999 107.809 41.0727C108.304 42.182 108.731 43.5617 108.531 44.4206C108.446 44.774 108.212 45.2526 107.948 45.6949C107.914 45.7593 107.877 45.8225 107.837 45.8833C107.819 45.9114 107.787 45.9278 107.753 45.9278H104.706C104.624 45.9278 104.576 45.8388 104.619 45.7721Z" fill="white"/>
<path d="M117.826 46.6336V47.3673C117.826 47.4094 117.8 47.4468 117.763 47.4632C117.533 47.5615 116.748 47.9219 116.422 48.376C115.588 49.5356 114.952 51.1937 113.529 51.1937H107.593C105.489 51.1937 103.784 49.4829 103.784 47.3719V47.3041C103.784 47.2479 103.829 47.2023 103.885 47.2023H107.195C107.26 47.2023 107.308 47.2631 107.302 47.3275C107.279 47.5428 107.319 47.7628 107.421 47.9629C107.617 48.3619 108.024 48.6112 108.464 48.6112H110.103V47.3322H108.483C108.4 47.3322 108.351 47.2362 108.399 47.1683C108.416 47.1414 108.436 47.1134 108.457 47.0818C108.611 46.8641 108.829 46.5259 109.047 46.1409C109.196 45.8812 109.34 45.6038 109.455 45.3253C109.479 45.275 109.498 45.2235 109.516 45.1732C109.548 45.0843 109.581 45.0012 109.604 44.9181C109.628 44.8479 109.646 44.7742 109.665 44.7051C109.72 44.4688 109.743 44.2183 109.743 43.9586C109.743 43.8568 109.739 43.7503 109.729 43.6485C109.725 43.5373 109.711 43.4261 109.697 43.315C109.687 43.2167 109.67 43.1196 109.651 43.0178C109.628 42.8691 109.595 42.7217 109.557 42.5731L109.544 42.5169C109.516 42.4151 109.493 42.318 109.46 42.2162C109.368 41.8967 109.261 41.5855 109.149 41.2941C109.108 41.1783 109.061 41.0671 109.014 40.9559C108.945 40.7886 108.875 40.6365 108.811 40.4925C108.778 40.427 108.75 40.3673 108.722 40.3065C108.69 40.2374 108.657 40.1684 108.625 40.1029C108.601 40.0526 108.574 40.0057 108.556 39.9589L108.356 39.5892C108.327 39.5388 108.374 39.4792 108.429 39.4944L109.681 39.8337H109.685C109.687 39.8337 109.688 39.8349 109.69 39.8349L109.855 39.8805L110.036 39.932L110.103 39.9507V39.2065C110.103 38.8473 110.39 38.5559 110.746 38.5559C110.924 38.5559 111.086 38.6285 111.201 38.7466C111.317 38.8648 111.39 39.0263 111.39 39.2065V40.3112L111.523 40.3486C111.534 40.3521 111.544 40.3568 111.554 40.3638C111.586 40.3884 111.633 40.4247 111.693 40.4691C111.74 40.5066 111.79 40.5522 111.851 40.599C111.971 40.6961 112.115 40.8214 112.273 40.9653C112.315 41.0016 112.356 41.039 112.394 41.0765C112.597 41.266 112.826 41.4883 113.043 41.7341C113.104 41.8031 113.164 41.8733 113.225 41.947C113.285 42.0219 113.35 42.0957 113.406 42.1694C113.48 42.2677 113.559 42.3695 113.628 42.476C113.661 42.5263 113.699 42.5778 113.73 42.6281C113.819 42.7627 113.897 42.9019 113.972 43.0412C114.004 43.1055 114.037 43.1757 114.065 43.2448C114.148 43.4308 114.213 43.6204 114.256 43.81C114.268 43.8509 114.278 43.8954 114.282 43.9352V43.9445C114.296 44.0007 114.301 44.0604 114.306 44.1212C114.325 44.3155 114.315 44.5097 114.273 44.7051C114.256 44.7882 114.232 44.8666 114.204 44.9497C114.176 45.0293 114.148 45.1124 114.112 45.1908C114.041 45.3534 113.958 45.5161 113.86 45.6682C113.828 45.7244 113.791 45.784 113.754 45.8402C113.713 45.8999 113.67 45.956 113.633 46.0111C113.582 46.0813 113.527 46.155 113.47 46.2205C113.42 46.2896 113.369 46.3586 113.312 46.4194C113.234 46.5119 113.159 46.5996 113.081 46.6839C113.034 46.7389 112.984 46.7951 112.932 46.8454C112.882 46.9015 112.83 46.9519 112.783 46.9987C112.705 47.0771 112.64 47.1379 112.585 47.1882L112.456 47.3064C112.437 47.3228 112.413 47.3322 112.387 47.3322H111.39V48.6112H112.644C112.925 48.6112 113.192 48.5117 113.407 48.3291C113.481 48.2648 113.803 47.9863 114.183 47.5662C114.196 47.5521 114.212 47.5416 114.231 47.537L117.696 46.5353C117.76 46.5166 117.826 46.5657 117.826 46.6336Z" fill="white"/>
</g>
<defs>
<clipPath id="clip0_401_1527">
<rect width="50" height="50" fill="white" transform="translate(20 20)"/>
</clipPath>
<clipPath id="clip1_401_1527">
<rect width="100" height="22.779" fill="white" transform="translate(99 34)"/>
</clipPath>
</defs>
</svg>
