<svg width="250" height="82" viewBox="0 0 250 82" fill="none" xmlns="http://www.w3.org/2000/svg">
<g clip-path="url(#clip0_401_2873)">
<path fill-rule="evenodd" clip-rule="evenodd" d="M47.0264 64.5435C47.0264 65.348 47.6785 66.0001 48.483 66.0001H68.5854C69.3899 66.0001 70.0469 65.3461 69.9967 64.5431C69.2752 52.9926 60.034 43.7513 48.4834 43.0298C47.6804 42.9796 47.0264 43.6366 47.0264 44.4411V64.5435Z" fill="#254078"/>
<path fill-rule="evenodd" clip-rule="evenodd" d="M42.973 44.4839C42.973 43.6794 42.3208 43.0272 41.5163 43.0272H21.414C20.6095 43.0272 19.9525 43.6812 20.0027 44.4842C20.7242 56.0347 29.9654 65.2761 41.516 65.9976C42.319 66.0477 42.973 65.3907 42.973 64.5862V44.4839Z" fill="#254078"/>
<path fill-rule="evenodd" clip-rule="evenodd" d="M42.973 37.5163C42.973 38.3208 42.3208 38.973 41.5163 38.973H21.414C20.6095 38.973 19.9525 38.319 20.0027 37.516C20.7242 25.9654 29.9654 16.7242 41.516 16.0027C42.319 15.9525 42.973 16.6095 42.973 17.414V37.5163Z" fill="#FF62FD"/>
<path fill-rule="evenodd" clip-rule="evenodd" d="M47.0264 17.4567C47.0264 16.6522 47.6785 16 48.483 16H68.5854C69.3899 16 70.0469 16.654 69.9967 17.457C69.2752 29.0076 60.034 38.2488 48.4834 38.9703C47.6804 39.0205 47.0264 38.3635 47.0264 37.559V17.4567Z" fill="#0078FF"/>
</g>
<path fill-rule="evenodd" clip-rule="evenodd" d="M119.432 51.3301C119.432 51.7002 119.732 52.0002 120.102 52.0002H129.349C129.719 52.0002 130.022 51.6994 129.999 51.33C129.667 46.0168 125.416 41.7657 120.102 41.4339C119.733 41.4108 119.432 41.713 119.432 42.0831V51.3301Z" fill="#254078"/>
<path fill-rule="evenodd" clip-rule="evenodd" d="M117.568 42.1027C117.568 41.7326 117.268 41.4326 116.898 41.4326H107.65C107.28 41.4326 106.978 41.7335 107.001 42.1028C107.333 47.4161 111.584 51.6671 116.897 51.999C117.267 52.022 117.568 51.7198 117.568 51.3498V42.1027Z" fill="#254078"/>
<path fill-rule="evenodd" clip-rule="evenodd" d="M117.568 38.8975C117.568 39.2676 117.268 39.5676 116.898 39.5676H107.65C107.28 39.5676 106.978 39.2667 107.001 38.8974C107.333 33.5841 111.584 29.3331 116.897 29.0012C117.267 28.9782 117.568 29.2804 117.568 29.6504V38.8975Z" fill="#FF62FD"/>
<path fill-rule="evenodd" clip-rule="evenodd" d="M119.432 29.6701C119.432 29.3 119.732 29 120.102 29H129.349C129.719 29 130.022 29.3009 129.999 29.6702C129.667 34.9835 125.416 39.2345 120.102 39.5664C119.733 39.5894 119.432 39.2872 119.432 38.9171V29.6701Z" fill="#0078FF"/>
<path d="M146.877 41.9644C146.571 43.265 145.902 44.3233 144.869 45.1393C143.836 45.9426 142.651 46.3443 141.312 46.3443C139.731 46.3443 138.385 45.796 137.276 44.6994C136.18 43.6029 135.631 42.2577 135.631 40.6639C135.631 39.0955 136.173 37.7631 137.257 36.6665C138.341 35.57 139.667 35.0217 141.235 35.0217C142.612 35.0217 143.824 35.4297 144.869 36.2458C145.915 37.0618 146.578 38.1392 146.858 39.4781H143.645C143.186 38.4835 142.396 37.9862 141.273 37.9862C140.534 37.9862 139.941 38.2476 139.495 38.7704C139.048 39.2932 138.825 39.9307 138.825 40.683C138.825 41.448 139.055 42.0919 139.514 42.6147C139.986 43.1247 140.598 43.3797 141.35 43.3797C142.383 43.3797 143.148 42.908 143.645 41.9644H146.877ZM153.903 38.2157C153.087 38.2412 152.462 38.3879 152.029 38.6556C151.608 38.9106 151.398 39.4143 151.398 40.1666V46H148.223V35.3851H151.206V36.5135H151.245C151.755 35.519 152.641 35.0217 153.903 35.0217V38.2157ZM165.808 46H162.634V44.8524H162.595C162.328 45.3625 161.9 45.745 161.314 46C160.74 46.2423 160.134 46.3634 159.497 46.3634C157.903 46.3634 156.615 45.8215 155.633 44.7377C154.652 43.6539 154.161 42.3023 154.161 40.683C154.161 39.1019 154.658 37.7631 155.653 36.6665C156.647 35.57 157.929 35.0217 159.497 35.0217C160.134 35.0217 160.734 35.1492 161.295 35.4042C161.869 35.6465 162.302 36.0163 162.595 36.5135H162.634V35.3851H165.808V46ZM162.634 40.683C162.634 39.9052 162.379 39.2613 161.869 38.7513C161.371 38.2412 160.734 37.9862 159.956 37.9862C159.191 37.9862 158.56 38.254 158.062 38.7895C157.578 39.3123 157.336 39.9562 157.336 40.7212C157.336 41.4608 157.591 42.0919 158.101 42.6147C158.611 43.1375 159.236 43.3989 159.975 43.3989C160.74 43.3989 161.371 43.1375 161.869 42.6147C162.379 42.0919 162.634 41.448 162.634 40.683ZM178.472 37.795H176.942V46H173.767V37.795H171.032V46H167.857V37.795H166.671V35.3851H167.857V35.0982C167.857 32.9306 169.208 31.8468 171.912 31.8468H172.39V34.2375H172.026C171.886 34.2375 171.752 34.2567 171.625 34.2949C171.497 34.3204 171.363 34.4161 171.223 34.5818C171.096 34.7476 171.032 34.9643 171.032 35.2321V35.3851H173.767V31.8468H176.942V35.3851H178.472V37.795Z" fill="#121212"/>
<defs>
<clipPath id="clip0_401_2873">
<rect width="50" height="50" fill="white" transform="translate(20 16)"/>
</clipPath>
</defs>
</svg>
