<svg width="250" height="82" viewBox="0 0 250 82" fill="none" xmlns="http://www.w3.org/2000/svg">
<g clipPath="url(#clip0_401_2836)">
<path d="M59.0556 46.6835C59.1911 46.9217 59.2367 47.2009 59.1832 47.47C58.668 49.8108 57.4145 51.9241 55.6077 53.4988C55.5086 53.5738 55.4253 53.6676 55.3624 53.7747C55.3398 53.8238 55.3282 53.8771 55.3282 53.9311C55.3282 53.9852 55.3398 54.0385 55.3624 54.0874C55.3985 54.1294 55.4439 54.1624 55.495 54.1836C55.5462 54.205 55.6015 54.2141 55.6568 54.2102C55.9185 54.1405 56.1714 54.0417 56.4111 53.9158C57.4709 53.3138 58.4073 52.5168 59.1709 51.5668C59.6309 51.0088 60.0847 50.4506 60.5201 49.8741C61.3401 48.7355 61.947 47.4576 62.3111 46.1024C62.6421 45.0047 62.9242 43.8945 63.2677 42.7968C63.408 42.3942 63.5782 42.0027 63.7768 41.6255C63.8567 41.5092 63.9492 41.4023 64.0527 41.3065H64.1386C64.2244 41.5947 64.3288 41.8708 64.39 42.1651C64.5505 43.0909 64.5732 44.0353 64.4576 44.9679C64.3303 46.1815 64.0817 47.3792 63.7155 48.5433C63.4589 49.2588 63.1127 49.9388 62.6852 50.5671C61.6105 52.3385 60.3412 53.9841 58.9011 55.4735C57.8401 56.498 56.6932 57.4295 55.4727 58.2579C55.3838 58.3035 55.3029 58.3636 55.2336 58.4358C55.1623 58.5217 55.1252 58.6308 55.1294 58.7424C55.155 58.7923 55.1924 58.835 55.2383 58.8671C55.2842 58.8992 55.3374 58.9195 55.393 58.9264C55.6495 58.9247 55.905 58.8918 56.1535 58.8282C57.2867 58.5017 58.3465 57.9603 59.2752 57.2336C61.8727 55.3186 63.9823 52.8183 65.4326 49.9355C66.3568 48.0545 66.9561 46.0308 67.205 43.9497C67.3542 42.6361 67.3686 41.3106 67.248 39.9941C67.1427 39.3194 67.1635 38.6311 67.3092 37.9641C67.3479 37.8112 67.4035 37.663 67.4748 37.5224C67.6405 37.2035 67.8797 37.1852 68.0391 37.5224C68.2068 37.8417 68.3306 38.1821 68.4071 38.5344C68.7438 40.2214 68.8491 41.9462 68.7199 43.6615C68.4818 46.4483 67.7812 49.1759 66.647 51.7324C65.4982 54.3647 63.7733 56.7058 61.5995 58.5829C60.8942 59.1962 60.2197 59.8095 59.4898 60.3861C58.6133 61.0233 57.6742 61.57 56.6871 62.0173C54.5091 63.0994 52.1911 63.8735 49.7998 64.3171C48.3342 64.5715 46.8459 64.6703 45.3595 64.6115C44.6299 64.6115 43.8938 64.5626 43.1641 64.5258C41.5141 64.4344 39.8862 64.1038 38.3312 63.5444C36.0795 62.7609 33.9153 61.7455 31.8733 60.5149C29.492 59.0547 27.461 57.0886 25.9244 54.7559C25.1658 53.6589 24.505 52.4974 23.9496 51.2847C23.9213 51.2127 23.8757 51.1488 23.8169 51.0985C23.7581 51.0483 23.6878 51.0132 23.6123 50.9965C23.209 50.8962 22.8338 50.7055 22.515 50.4388C22.1963 50.1721 21.9423 49.8364 21.7724 49.4571C21.3176 48.3465 20.9646 47.1971 20.7176 46.0227C20.2681 44.1268 20.0275 42.1876 20 40.2394C20.0184 39.0059 20.1312 37.7758 20.3373 36.5595C20.5701 34.9071 20.9814 33.2847 21.5639 31.7208C22.0791 30.3521 22.8032 29.0715 23.7104 27.9245C24.2378 27.2621 24.6733 26.52 25.1884 25.8454C28.458 21.5242 33.139 18.4859 38.4171 17.2593C39.4352 17.014 40.4533 16.7564 41.4836 16.5663C42.4035 16.3946 43.3235 16.2842 44.2679 16.1983C45.3595 16.1002 46.4512 16.0143 47.5491 16.0021C51.9532 15.9407 56.2676 17.2502 59.8947 19.7493C60.308 19.9993 60.6805 20.3117 60.9985 20.6753C61.2335 20.9615 61.3899 21.3039 61.4524 21.6689C61.4767 21.7547 61.5258 21.8315 61.5935 21.8897C62.4582 22.7237 63.3782 23.5149 64.1755 24.4103C65.4424 25.7945 66.3594 27.4622 66.8494 29.2737C67.0739 30.0053 67.1521 30.774 67.0795 31.5359C67.0068 32.2977 66.7848 33.0379 66.4262 33.7139C65.8264 34.7238 64.9829 35.5673 63.973 36.1671C62.8495 36.9315 61.5018 37.2965 60.1461 37.2035C58.8786 37.1456 57.6756 36.6291 56.7608 35.75C55.7995 34.7512 54.7753 33.815 53.6942 32.9473C52.9829 32.4076 52.2468 31.8986 51.5048 31.4141C50.6077 30.875 49.6139 30.5167 48.5794 30.3592C47.4026 30.144 46.2041 30.0719 45.01 30.1446C42.3995 30.1943 39.8738 31.0799 37.8038 32.6714C36.2526 33.8433 34.9758 35.3398 34.0628 37.0564C33.5457 38.0979 33.2196 39.2238 33.0999 40.3805C33.0001 41.0939 32.9427 41.8127 32.9282 42.533C32.986 44.5864 33.5215 46.598 34.4921 48.4083C35.2092 49.8127 36.1636 51.0824 37.3132 52.1618C38.3824 53.1226 39.567 53.9467 40.8397 54.6148C42.2882 55.4002 43.8879 55.8664 45.5314 55.9826C47.6895 56.2079 49.8695 55.8808 51.8667 55.032C52.8238 54.582 53.7052 53.9862 54.4792 53.2656C55.8162 52.1158 56.9377 50.7367 57.7911 49.1933C58.11 48.6353 58.3308 48.022 58.6006 47.4333C58.6803 47.2555 58.7723 47.0776 58.8642 46.9059C58.9192 46.8244 58.9833 46.75 59.0556 46.6835Z" fill="#8F2FA9"/>
</g>
<g clipPath="url(#clip1_401_2836)">
<path d="M108.394 42.1658C108.43 42.2292 108.442 42.3035 108.428 42.3751C108.291 42.998 107.957 43.5604 107.476 43.9795C107.45 43.9995 107.428 44.0244 107.411 44.0529C107.405 44.066 107.402 44.0802 107.402 44.0946C107.402 44.109 107.405 44.1231 107.411 44.1362C107.421 44.1473 107.433 44.1561 107.446 44.1618C107.46 44.1675 107.475 44.1699 107.489 44.1688C107.559 44.1503 107.626 44.124 107.69 44.0905C107.972 43.9303 108.221 43.7182 108.425 43.4654C108.547 43.3169 108.668 43.1683 108.784 43.0149C109.002 42.7119 109.163 42.3718 109.26 42.0111C109.348 41.719 109.423 41.4235 109.515 41.1314C109.552 41.0243 109.597 40.9201 109.65 40.8197C109.672 40.7888 109.696 40.7603 109.724 40.7348H109.747C109.769 40.8115 109.797 40.885 109.813 40.9633C109.856 41.2097 109.862 41.461 109.831 41.7092C109.798 42.0322 109.731 42.3509 109.634 42.6607C109.566 42.8511 109.474 43.0321 109.36 43.1993C109.074 43.6707 108.736 44.1087 108.353 44.505C108.07 44.7777 107.765 45.0256 107.44 45.246C107.417 45.2582 107.395 45.2742 107.377 45.2934C107.358 45.3163 107.348 45.3453 107.349 45.375C107.356 45.3883 107.366 45.3996 107.378 45.4082C107.39 45.4167 107.404 45.4221 107.419 45.424C107.487 45.4235 107.555 45.4148 107.621 45.3978C107.923 45.3109 108.205 45.1669 108.452 44.9735C109.144 44.4638 109.705 43.7984 110.091 43.0312C110.337 42.5306 110.496 41.9921 110.563 41.4382C110.602 41.0886 110.606 40.7359 110.574 40.3855C110.546 40.206 110.552 40.0228 110.59 39.8453C110.601 39.8046 110.615 39.7652 110.634 39.7277C110.679 39.6429 110.742 39.638 110.785 39.7277C110.829 39.8127 110.862 39.9033 110.883 39.9971C110.972 40.446 111 40.905 110.966 41.3615C110.902 42.1032 110.716 42.8291 110.414 43.5094C110.108 44.21 109.649 44.833 109.071 45.3325C108.883 45.4958 108.704 45.659 108.509 45.8124C108.276 45.982 108.026 46.1275 107.764 46.2465C107.184 46.5345 106.567 46.7405 105.931 46.8586C105.541 46.9263 105.144 46.9526 104.749 46.9369C104.555 46.9369 104.359 46.9239 104.165 46.9141C103.726 46.8898 103.292 46.8018 102.878 46.6529C102.279 46.4444 101.703 46.1742 101.16 45.8467C100.526 45.4581 99.9856 44.9349 99.5767 44.3141C99.3748 44.0221 99.1989 43.713 99.0511 43.3903C99.0436 43.3711 99.0314 43.3541 99.0158 43.3407C99.0001 43.3274 98.9814 43.318 98.9613 43.3136C98.854 43.2869 98.7542 43.2361 98.6693 43.1652C98.5845 43.0942 98.5169 43.0048 98.4717 42.9039C98.3507 42.6083 98.2567 42.3025 98.191 41.9899C98.0713 41.4854 98.0073 40.9693 98 40.4508C98.0049 40.1225 98.0349 39.7952 98.0898 39.4715C98.1517 39.0317 98.2612 38.6 98.4162 38.1838C98.5533 37.8195 98.746 37.4787 98.9874 37.1734C99.1278 36.9972 99.2437 36.7997 99.3808 36.6201C100.251 35.4701 101.497 34.6616 102.901 34.3351C103.172 34.2699 103.443 34.2013 103.717 34.1507C103.962 34.105 104.207 34.0756 104.458 34.0528C104.749 34.0267 105.039 34.0038 105.332 34.0005C106.504 33.9842 107.652 34.3327 108.617 34.9978C108.727 35.0643 108.826 35.1475 108.911 35.2442C108.973 35.3204 109.015 35.4115 109.032 35.5087C109.038 35.5315 109.051 35.5519 109.069 35.5674C109.299 35.7894 109.544 35.9999 109.756 36.2382C110.094 36.6066 110.338 37.0504 110.468 37.5325C110.528 37.7272 110.549 37.9318 110.529 38.1346C110.51 38.3373 110.451 38.5343 110.355 38.7142C110.196 38.9829 109.971 39.2074 109.703 39.3671C109.404 39.5705 109.045 39.6676 108.684 39.6429C108.347 39.6275 108.027 39.49 107.783 39.256C107.527 38.9902 107.255 38.7411 106.967 38.5102C106.778 38.3665 106.582 38.2311 106.384 38.1021C106.146 37.9587 105.881 37.8633 105.606 37.8214C105.293 37.7641 104.974 37.7449 104.656 37.7643C103.961 37.7775 103.289 38.0132 102.738 38.4367C102.325 38.7486 101.985 39.1469 101.743 39.6037C101.605 39.8809 101.518 40.1805 101.486 40.4883C101.46 40.6782 101.444 40.8695 101.441 41.0612C101.456 41.6077 101.598 42.143 101.857 42.6248C102.048 42.9985 102.302 43.3365 102.608 43.6237C102.892 43.8794 103.207 44.0987 103.546 44.2765C103.932 44.4855 104.357 44.6096 104.795 44.6405C105.369 44.7005 105.949 44.6134 106.481 44.3875C106.735 44.2678 106.97 44.1092 107.176 43.9175C107.532 43.6115 107.83 43.2444 108.057 42.8337C108.142 42.6852 108.201 42.522 108.273 42.3653C108.294 42.318 108.318 42.2706 108.343 42.225C108.358 42.2033 108.375 42.1835 108.394 42.1658Z" fill="#8F2FA9"/>
<path d="M120.401 43.7624C118.665 43.7624 117.502 42.4697 117.502 40.6809C117.502 38.8921 118.665 37.5994 120.401 37.5994C120.879 37.6044 121.348 37.7202 121.773 37.9377C122.198 38.1552 122.566 38.4685 122.849 38.8529C122.861 38.8741 122.878 38.8921 122.899 38.9055C122.919 38.9189 122.942 38.9271 122.967 38.9297C122.991 38.9322 123.016 38.929 123.038 38.9202C123.061 38.9114 123.081 38.8972 123.097 38.879L124.482 37.6908C124.514 37.6615 124.534 37.6214 124.539 37.5782C124.544 37.535 124.533 37.4915 124.508 37.4558C123.659 36.2154 122.223 35.5886 120.408 35.5886C117.307 35.5886 115.263 37.8997 115.263 40.6809C115.263 43.4882 117.313 45.7993 120.408 45.7993C122.223 45.7993 123.75 45.0289 124.508 43.906C124.533 43.8705 124.544 43.8269 124.539 43.7835C124.535 43.7402 124.514 43.7002 124.482 43.671L123.084 42.5285C123.069 42.5106 123.05 42.4966 123.028 42.4879C123.007 42.4792 122.983 42.476 122.96 42.4786C122.937 42.4812 122.914 42.4895 122.895 42.5027C122.876 42.516 122.86 42.5338 122.849 42.5546C122.561 42.9298 122.191 43.2335 121.766 43.4418C121.341 43.6502 120.874 43.7577 120.401 43.7559V43.7624Z" fill="#8F2FA9"/>
<path d="M129.848 42.7276C129.848 43.5241 129.378 43.9942 128.542 43.9942C127.707 43.9942 127.21 43.5241 127.21 42.7276V38.2621C127.21 38.2188 127.193 38.1773 127.163 38.1467C127.132 38.1161 127.09 38.0989 127.047 38.0989H125.35C125.306 38.0989 125.265 38.1161 125.234 38.1467C125.204 38.1773 125.187 38.2188 125.187 38.2621V42.806C125.187 44.7907 126.349 45.783 127.811 45.783C128.856 45.783 129.561 45.1432 129.861 44.177V45.4174C129.863 45.46 129.881 45.5001 129.911 45.5302C129.942 45.5603 129.982 45.5783 130.024 45.5807H131.735C131.778 45.5807 131.82 45.5634 131.85 45.5328C131.881 45.5022 131.898 45.4607 131.898 45.4174V38.2621C131.898 38.2188 131.881 38.1773 131.85 38.1467C131.82 38.1161 131.778 38.0989 131.735 38.0989H130.018C129.974 38.0989 129.933 38.1161 129.902 38.1467C129.872 38.1773 129.854 38.2188 129.854 38.2621L129.848 42.7276Z" fill="#8F2FA9"/>
<path d="M136.579 39.6886C136.579 39.7318 136.596 39.7734 136.627 39.804C136.658 39.8346 136.699 39.8517 136.742 39.8517H137.839V43.3576C137.839 44.7678 138.557 45.5904 140.059 45.5904H141.456C141.499 45.5904 141.541 45.5732 141.571 45.5426C141.602 45.512 141.619 45.4705 141.619 45.4272V43.9582C141.621 43.9363 141.618 43.9142 141.611 43.8935C141.603 43.8728 141.592 43.854 141.576 43.8384C141.56 43.8228 141.542 43.8109 141.521 43.8034C141.5 43.7959 141.478 43.793 141.456 43.7951H140.508C140.038 43.7951 139.881 43.6318 139.881 43.2336V39.855H141.435C141.478 39.855 141.519 39.8378 141.55 39.8072C141.581 39.7766 141.598 39.7351 141.598 39.6918V38.2686C141.598 38.2253 141.581 38.1838 141.55 38.1532C141.519 38.1226 141.478 38.1054 141.435 38.1054H139.881V35.951C139.881 35.9077 139.864 35.8661 139.833 35.8355C139.803 35.8049 139.761 35.7877 139.718 35.7877H137.983C137.961 35.7857 137.939 35.7886 137.918 35.7961C137.897 35.8036 137.878 35.8155 137.863 35.8311C137.847 35.8467 137.835 35.8655 137.828 35.8862C137.82 35.9069 137.818 35.929 137.82 35.951V38.0923H136.723C136.679 38.0923 136.638 38.1095 136.607 38.1401C136.577 38.1707 136.56 38.2122 136.56 38.2555L136.579 39.6886Z" fill="#8F2FA9"/>
<path d="M147.423 42.7276C147.423 43.5241 146.953 43.9942 146.117 43.9942C145.281 43.9942 144.786 43.5241 144.786 42.7276V38.2621C144.786 38.2188 144.768 38.1773 144.738 38.1467C144.707 38.1161 144.666 38.0989 144.622 38.0989H142.925C142.881 38.0989 142.84 38.1161 142.809 38.1467C142.779 38.1773 142.762 38.2188 142.762 38.2621V42.806C142.762 44.7907 143.924 45.783 145.386 45.783C146.431 45.783 147.136 45.1432 147.436 44.177V45.4174C147.438 45.46 147.456 45.5001 147.487 45.5302C147.517 45.5603 147.557 45.5783 147.599 45.5807H149.31C149.353 45.5807 149.395 45.5634 149.425 45.5328C149.456 45.5022 149.473 45.4607 149.473 45.4174V38.2621C149.473 38.2188 149.456 38.1773 149.425 38.1467C149.395 38.1161 149.353 38.0989 149.31 38.0989H147.593C147.55 38.0989 147.508 38.1161 147.477 38.1467C147.447 38.1773 147.429 38.2188 147.429 38.2621L147.423 42.7276Z" fill="#8F2FA9"/>
<path d="M151.144 45.4174C151.144 45.4607 151.161 45.5022 151.192 45.5328C151.222 45.5634 151.264 45.5807 151.307 45.5807H152.992C153.035 45.5807 153.076 45.5634 153.107 45.5328C153.138 45.5022 153.155 45.4607 153.155 45.4174V41.3175C153.155 40.2859 153.808 40.0901 154.722 40.0901H155.401C155.444 40.0901 155.486 40.0729 155.516 40.0423C155.547 40.0117 155.564 39.9702 155.564 39.9269V38.2621C155.564 38.2188 155.547 38.1773 155.516 38.1467C155.486 38.1161 155.444 38.0989 155.401 38.0989H155.238C154.141 38.0989 153.462 38.6081 153.149 39.8486V38.2686C153.149 38.2253 153.131 38.1838 153.101 38.1532C153.07 38.1226 153.028 38.1054 152.985 38.1054H151.301C151.257 38.1054 151.216 38.1226 151.185 38.1532C151.155 38.1838 151.138 38.2253 151.138 38.2686L151.144 45.4174Z" fill="#8F2FA9"/>
<path fillRule="evenodd" clipRule="evenodd" d="M163.183 41.843C163.183 39.6102 161.851 37.7953 159.449 37.7953C157.19 37.7953 155.714 39.6102 155.714 41.843C155.714 44.1541 157.36 45.8777 159.866 45.8777C161.224 45.8777 162.387 45.277 162.935 44.4806C162.949 44.4619 162.96 44.4406 162.965 44.4178C162.971 44.395 162.972 44.3713 162.968 44.3481C162.965 44.3249 162.957 44.3027 162.944 44.2828C162.931 44.2629 162.915 44.2458 162.896 44.2325L161.753 43.214C161.737 43.2001 161.719 43.1896 161.699 43.1833C161.678 43.177 161.657 43.1751 161.636 43.1775C161.616 43.18 161.595 43.1868 161.577 43.1977C161.559 43.2084 161.543 43.2229 161.531 43.2401C161.336 43.5216 161.074 43.7502 160.768 43.9052C160.463 44.0602 160.124 44.1368 159.781 44.128C158.815 44.128 157.927 43.671 157.797 42.4175H163.02C163.042 42.4195 163.064 42.4167 163.085 42.4092C163.105 42.4017 163.124 42.3897 163.139 42.3742C163.155 42.3586 163.167 42.3398 163.174 42.3191C163.182 42.2983 163.185 42.2762 163.183 42.2543V41.843ZM161.12 40.8604C160.976 40.0509 160.376 39.5417 159.462 39.5417C158.561 39.5417 157.96 40.0444 157.816 40.8604H161.12Z" fill="#8F2FA9"/>
<path fillRule="evenodd" clipRule="evenodd" d="M165.906 45.4337C165.898 45.4513 165.896 45.4703 165.898 45.4892C165.899 45.508 165.906 45.5262 165.916 45.5422C165.926 45.5581 165.94 45.5714 165.956 45.5809C165.973 45.5905 165.991 45.596 166.01 45.5969H168.008C168.058 45.5984 168.106 45.5832 168.147 45.5536C168.187 45.524 168.216 45.4818 168.229 45.4337L169.026 43.2662H173.048L173.864 45.4337C173.877 45.4818 173.906 45.524 173.947 45.5536C173.987 45.5832 174.036 45.5984 174.086 45.5969H176.123C176.142 45.596 176.16 45.5905 176.177 45.5809C176.193 45.5714 176.207 45.5581 176.217 45.5422C176.227 45.5262 176.233 45.508 176.235 45.4892C176.237 45.4703 176.234 45.4513 176.227 45.4337L172.571 35.9412C172.556 35.8979 172.528 35.8606 172.49 35.8347C172.453 35.8088 172.408 35.7958 172.362 35.7975H169.764C169.716 35.7928 169.668 35.8045 169.628 35.8305C169.588 35.8566 169.557 35.8956 169.542 35.9412L165.906 45.4337ZM171.029 37.8442L169.712 41.3991H172.349L171.029 37.8442Z" fill="#8F2FA9"/>
<path d="M177.376 45.4174C177.376 45.4607 177.393 45.5022 177.424 45.5328C177.454 45.5634 177.496 45.5806 177.539 45.5806H179.237C179.28 45.5806 179.322 45.5634 179.352 45.5328C179.383 45.5022 179.4 45.4607 179.4 45.4174V40.8604C179.4 40.1293 179.805 39.6722 180.575 39.6722C181.345 39.6722 181.776 40.1293 181.776 40.8604V45.4174C181.776 45.4607 181.793 45.5022 181.824 45.5328C181.855 45.5634 181.896 45.5806 181.939 45.5806H183.65C183.693 45.5806 183.735 45.5634 183.766 45.5328C183.796 45.5022 183.813 45.4607 183.813 45.4174V40.8604C183.813 40.1293 184.231 39.6722 184.989 39.6722C185.746 39.6722 186.19 40.1293 186.19 40.8604V45.4174C186.192 45.4599 186.21 45.5001 186.24 45.5302C186.27 45.5603 186.31 45.5783 186.353 45.5806H188.05C188.093 45.5806 188.135 45.5634 188.166 45.5328C188.196 45.5022 188.214 45.4607 188.214 45.4174V40.7951C188.214 38.8627 187.071 37.8834 185.615 37.8834C184.388 37.8834 183.761 38.6799 183.435 39.6788C183.343 39.1805 183.081 38.7294 182.694 38.4022C182.308 38.0749 181.819 37.8916 181.313 37.8834C180.242 37.8834 179.759 38.5363 179.393 39.5025V38.2621C179.393 38.2188 179.376 38.1773 179.345 38.1466C179.315 38.116 179.274 38.0989 179.23 38.0989H177.533C177.489 38.0989 177.448 38.116 177.417 38.1466C177.387 38.1773 177.37 38.2188 177.37 38.2621L177.376 45.4174Z" fill="#8F2FA9"/>
<path fillRule="evenodd" clipRule="evenodd" d="M197.993 41.8397C197.993 39.6461 196.701 37.8834 194.625 37.8834C193.267 37.8834 192.222 38.6016 191.896 39.62V38.2621C191.896 38.2188 191.879 38.1773 191.848 38.1466C191.817 38.116 191.776 38.0989 191.733 38.0989H190.029C189.985 38.0989 189.944 38.116 189.913 38.1466C189.883 38.1773 189.865 38.2188 189.865 38.2621V48.3161C189.865 48.3594 189.883 48.4009 189.913 48.4315C189.944 48.4621 189.985 48.4793 190.029 48.4793H191.739C191.782 48.4793 191.824 48.4621 191.854 48.4315C191.885 48.4009 191.902 48.3594 191.902 48.3161V44.0725C192.229 45.091 193.273 45.7961 194.631 45.7961C196.707 45.7961 198 44.0464 198 41.8397H197.993ZM195.826 41.8397C195.826 40.5471 195.043 39.6722 193.867 39.6722C192.679 39.6722 191.896 40.521 191.896 41.8267C191.896 43.1324 192.692 43.9942 193.867 43.9942C195.043 43.9942 195.826 43.1324 195.826 41.8397Z" fill="#8F2FA9"/>
<path d="M135.448 35.2654L133.726 35.2687C133.704 35.2667 133.682 35.2695 133.661 35.277C133.64 35.2845 133.622 35.2964 133.606 35.312C133.59 35.3276 133.578 35.3464 133.571 35.3671C133.563 35.3878 133.561 35.4099 133.563 35.4319V45.4206C133.563 45.4639 133.58 45.5054 133.61 45.536C133.641 45.5666 133.683 45.5838 133.726 45.5838H135.448C135.491 45.5838 135.533 45.5666 135.563 45.536C135.594 45.5054 135.611 45.4639 135.611 45.4206V35.4286C135.613 35.4067 135.61 35.3846 135.603 35.3639C135.595 35.3431 135.583 35.3243 135.568 35.3088C135.552 35.2932 135.533 35.2812 135.513 35.2737C135.492 35.2662 135.47 35.2634 135.448 35.2654Z" fill="#8F2FA9"/>
</g>
<defs>
<clipPath id="clip0_401_2836">
<rect width="50" height="50" fill="white" transform="translate(20 16)"/>
</clipPath>
<clipPath id="clip1_401_2836">
<rect width="100" height="14.5161" fill="white" transform="translate(98 34)"/>
</clipPath>
</defs>
</svg>
