<svg width="250" height="82" viewBox="0 0 250 82" fill="none" xmlns="http://www.w3.org/2000/svg">
<path d="M67.0859 18.4285L48.3145 32.3142L51.8145 24.1285L67.0859 18.4285Z" fill="#E17726" stroke="#E17726" strokeWidth="0.25" strokeLinecap="round" strokeLinejoin="round"/>
<path d="M23.8002 18.4285L42.4001 32.4285L39.0716 24.1428L23.8002 18.4285ZM60.3287 50.6142L55.3287 58.2428L66.0287 61.1856L69.0859 50.7856L60.3287 50.6142ZM21.8145 50.7856L24.8573 61.1856L35.5287 58.2428L30.5573 50.6142L21.8145 50.7856Z" fill="#E27625" stroke="#E27625" strokeWidth="0.25" strokeLinecap="round" strokeLinejoin="round"/>
<path d="M34.9568 37.7285L31.9854 42.2142L42.5568 42.6999L42.2139 31.3142L34.9568 37.7428V37.7285ZM55.9282 37.7428L48.5568 31.1714L48.3139 42.6999L58.8854 42.2142L55.9282 37.7428ZM35.5282 58.2428L41.9425 55.1571L36.4282 50.8714L35.5282 58.2428ZM48.9568 55.1428L55.3282 58.2428L54.4711 50.8571L48.9568 55.1428Z" fill="#E27625" stroke="#E27625" strokeWidth="0.25" strokeLinecap="round" strokeLinejoin="round"/>
<path d="M55.3288 58.2429L48.9574 55.1572L49.4717 59.3001L49.4145 61.0572L55.3288 58.2429ZM35.5288 58.2429L41.4717 61.0572L41.4288 59.3001L41.9431 55.1572L35.5288 58.2429Z" fill="#D5BFB2" stroke="#D5BFB2" strokeWidth="0.25" strokeLinecap="round" strokeLinejoin="round"/>
<path d="M41.5714 48.1142L36.2856 46.5713L40.0285 44.8571L41.5856 48.1142H41.5714ZM49.2999 48.1142L50.8714 44.8428L54.6285 46.5571L49.2999 48.1285V48.1142Z" fill="#233447" stroke="#233447" strokeWidth="0.25" strokeLinecap="round" strokeLinejoin="round"/>
<path d="M35.5286 58.2427L36.4571 50.6141L30.5571 50.7855L35.5286 58.2427ZM54.4286 50.6141L55.3286 58.2427L60.3286 50.7855L54.4286 50.6141ZM58.9 42.2141L48.3286 42.6998L49.3 48.1284L50.8714 44.8427L54.6286 46.557L58.9 42.2141ZM36.2857 46.5713L40.0286 44.857L41.5857 48.1141L42.5714 42.6855L32 42.2141L36.2857 46.5713Z" fill="#CC6228" stroke="#CC6228" strokeWidth="0.25" strokeLinecap="round" strokeLinejoin="round"/>
<path d="M32 42.2141L36.4286 50.857L36.2857 46.5713L32 42.2141ZM54.6286 46.5713L54.4571 50.857L58.8857 42.2141L54.6286 46.5713ZM42.5714 42.6998L41.5714 48.1284L42.8286 54.5284L43.1143 46.0855L42.5714 42.6998ZM48.3143 42.6998L47.8 46.0713L48.0571 54.5284L49.3 48.1141L48.3143 42.6855V42.6998Z" fill="#E27525" stroke="#E27525" strokeWidth="0.25" strokeLinecap="round" strokeLinejoin="round"/>
<path d="M49.3001 48.1144L48.0572 54.5287L48.9572 55.1571L54.4572 50.8714L54.6286 46.5715L49.3001 48.1144ZM36.2858 46.5715L36.4286 50.8572L41.9429 55.143L42.8286 54.5287L41.5858 48.1144L36.2715 46.5715H36.2858Z" fill="#F5841F" stroke="#F5841F" strokeWidth="0.25" strokeLinecap="round" strokeLinejoin="round"/>
<path d="M49.4288 61.0572L49.4717 59.3001L48.986 58.9001H41.9002L41.4288 59.3001L41.4717 61.0572L35.5288 58.2429L37.6145 59.9572L41.8288 62.8572H49.0431L53.2717 59.9429L55.3288 58.2429L49.4145 61.0572H49.4288Z" fill="#C0AC9D" stroke="#C0AC9D" strokeWidth="0.25" strokeLinecap="round" strokeLinejoin="round"/>
<path d="M48.9573 55.1429L48.0573 54.5286H42.8287L41.943 55.1571L41.4287 59.3L41.9001 58.9H48.9859L49.4716 59.3L48.9573 55.1571V55.1429Z" fill="#161616" stroke="#161616" strokeWidth="0.25" strokeLinecap="round" strokeLinejoin="round"/>
<path d="M67.8859 33.2142L69.4573 25.5713L67.0858 18.4285L48.943 31.857L55.9287 37.7285L65.7859 40.5999L67.9573 38.0713L67.0144 37.3856L68.5144 36.0142L67.3716 35.1285L68.8716 33.9856L67.8716 33.2142H67.8859ZM21.4287 25.557L23.0287 33.2142L22.0001 33.9713L23.5287 35.1142L22.3859 36.0142L23.8716 37.3856L22.9287 38.0713L25.1001 40.5999L34.9573 37.7428L41.943 31.8428L23.8001 18.4285L21.4287 25.557Z" fill="#763E1A" stroke="#763E1A" strokeWidth="0.25" strokeLinecap="round" strokeLinejoin="round"/>
<path d="M65.7859 40.6001L55.9287 37.743L58.9001 42.2144L54.4716 50.8572L60.3287 50.7858H69.0859L65.7859 40.6001ZM34.9573 37.7287L25.1002 40.6001L21.8145 50.7858H30.5716L36.4287 50.8572L32.0002 42.2144L34.9716 37.7287H34.9573ZM48.3144 42.7001L48.9573 31.843L51.8144 24.1287H39.0716L41.9287 31.843L42.5716 42.7001L42.8144 46.1001V54.5287H48.0573L48.0859 46.1001L48.3144 42.7001Z" fill="#F5841F" stroke="#F5841F" strokeWidth="0.25" strokeLinecap="round" strokeLinejoin="round"/>
<path d="M182.942 40.6742C182.425 40.337 181.861 40.0928 181.326 39.7905C180.977 39.5986 180.605 39.4242 180.303 39.1742C179.791 38.7556 179.896 37.9242 180.43 37.5637C181.204 37.0521 182.477 37.337 182.617 38.3835C182.617 38.4067 182.64 38.4242 182.663 38.4242H183.826C183.855 38.4242 183.878 38.4009 183.867 38.366C183.856 38.0369 183.775 37.7137 183.629 37.4188C183.482 37.1238 183.273 36.8639 183.018 36.6567C182.544 36.2918 181.964 36.0935 181.367 36.0928C178.297 36.0928 178.012 39.3428 179.669 40.366C179.861 40.4823 181.483 41.2963 182.053 41.6509C182.634 42.0056 182.808 42.6567 182.564 43.1626C182.332 43.6335 181.75 43.9591 181.157 43.9184C180.518 43.8835 180.018 43.5347 179.843 42.994C179.814 42.8951 179.797 42.7033 179.797 42.6277C179.796 42.6158 179.79 42.6047 179.782 42.5962C179.773 42.5877 179.762 42.5824 179.75 42.5812H178.489C178.471 42.5812 178.448 42.6044 178.448 42.6277C178.448 43.5347 178.675 44.0405 179.291 44.4998C179.872 44.9358 180.512 45.1219 181.163 45.1219C182.89 45.1219 183.779 44.1451 183.954 43.1393C184.117 42.1509 183.826 41.2614 182.942 40.6742ZM128.175 36.2614H127C126.992 36.2624 126.983 36.2657 126.976 36.2707C126.969 36.2758 126.963 36.2826 126.96 36.2904L125.925 39.6974C125.925 39.7098 125.92 39.7216 125.911 39.7303C125.902 39.739 125.89 39.744 125.878 39.744C125.866 39.744 125.854 39.739 125.845 39.7303C125.837 39.7216 125.832 39.7098 125.832 39.6974L124.797 36.2904C124.791 36.2672 124.773 36.2614 124.75 36.2614H122.826C122.803 36.2614 122.779 36.2846 122.779 36.3021V44.9998C122.779 45.023 122.803 45.0463 122.826 45.0463H124.087C124.111 45.0463 124.134 45.023 124.134 44.9998V38.3835C124.134 38.3312 124.21 38.3253 124.221 38.3719L125.268 41.8021L125.343 42.0347C125.343 42.0637 125.361 42.0695 125.384 42.0695H126.355C126.378 42.0695 126.39 42.0521 126.396 42.0405L126.471 41.7963L127.518 38.366C127.529 38.3195 127.605 38.3312 127.605 38.3835V44.994C127.605 45.0172 127.628 45.0405 127.651 45.0405H128.913C128.936 45.0405 128.96 45.0172 128.96 44.994V36.3021C128.96 36.2846 128.936 36.2614 128.913 36.2614H128.175ZM163.628 36.2614C163.618 36.2614 163.609 36.2642 163.601 36.2693C163.593 36.2745 163.586 36.2818 163.582 36.2904L162.547 39.6974C162.547 39.7098 162.542 39.7216 162.533 39.7303C162.525 39.739 162.512 39.744 162.5 39.744C162.488 39.744 162.476 39.739 162.467 39.7303C162.458 39.7216 162.454 39.7098 162.454 39.6974L161.419 36.2904C161.419 36.2672 161.401 36.2614 161.378 36.2614H159.46C159.436 36.2614 159.413 36.2846 159.413 36.3021V44.9998C159.413 45.023 159.436 45.0463 159.46 45.0463H160.721C160.739 45.0463 160.762 45.023 160.762 44.9998V38.3835C160.762 38.3312 160.837 38.3253 160.855 38.3719L161.901 41.8021L161.971 42.0347C161.983 42.0637 161.994 42.0695 162.018 42.0695H162.983C162.992 42.0689 163.001 42.0659 163.01 42.0608C163.018 42.0558 163.025 42.0487 163.029 42.0405L163.105 41.7963L164.151 38.366C164.163 38.3195 164.239 38.3312 164.239 38.3835V44.994C164.239 45.0172 164.262 45.0405 164.285 45.0405H165.547C165.57 45.0405 165.593 45.0172 165.593 44.994V36.3021C165.593 36.2846 165.57 36.2614 165.547 36.2614H163.628ZM147.355 36.2614H141.396C141.378 36.2614 141.355 36.2846 141.355 36.3021V37.3951C141.355 37.4184 141.378 37.4416 141.396 37.4416H143.704V44.9998C143.704 45.0288 143.727 45.0521 143.744 45.0521H145.006C145.029 45.0521 145.053 45.0288 145.053 45.0056V37.4358H147.355C147.378 37.4358 147.401 37.4126 147.401 37.3893V36.3021C147.401 36.2846 147.39 36.2614 147.355 36.2614ZM154.797 45.0463H155.948C155.977 45.0463 156 45.0114 155.989 44.9881L153.617 36.2614C153.617 36.2381 153.599 36.2265 153.576 36.2265H151.919C151.91 36.2281 151.901 36.2322 151.894 36.2383C151.887 36.2445 151.881 36.2524 151.878 36.2614L149.506 44.9823C149.494 45.0114 149.518 45.0405 149.547 45.0405H150.698C150.721 45.0405 150.733 45.0288 150.744 45.0114L151.43 42.4765C151.436 42.4533 151.454 42.4474 151.477 42.4474H154.012C154.035 42.4474 154.053 42.4591 154.058 42.4765L154.744 45.0114C154.756 45.0288 154.779 45.0463 154.791 45.0463H154.797ZM151.785 41.2033L152.704 37.8021C152.704 37.7897 152.709 37.7779 152.717 37.7692C152.726 37.7605 152.738 37.7556 152.75 37.7556C152.763 37.7556 152.774 37.7605 152.783 37.7692C152.792 37.7779 152.797 37.7897 152.797 37.8021L153.715 41.2033C153.727 41.2323 153.704 41.2614 153.675 41.2614H151.832C151.797 41.2614 151.773 41.2323 151.785 41.2033ZM174.372 45.0463H175.523C175.553 45.0463 175.576 45.0114 175.57 44.9881L173.198 36.2556C173.186 36.2323 173.175 36.2207 173.151 36.2207H171.506C171.496 36.2212 171.486 36.2249 171.478 36.2311C171.469 36.2373 171.463 36.2458 171.46 36.2556L169.087 44.9765C169.082 45.0056 169.105 45.0346 169.134 45.0346H170.279C170.303 45.0346 170.32 45.023 170.326 45.0056L171.012 42.4707C171.023 42.4474 171.035 42.4416 171.058 42.4416H173.599C173.617 42.4416 173.634 42.4533 173.64 42.4707L174.332 45.0056C174.332 45.023 174.355 45.0405 174.372 45.0405V45.0463ZM171.361 41.2033L172.285 37.8021C172.289 37.7932 172.294 37.7855 172.302 37.7801C172.31 37.7747 172.319 37.7717 172.329 37.7717C172.338 37.7717 172.347 37.7747 172.355 37.7801C172.363 37.7855 172.369 37.7932 172.372 37.8021L173.297 41.2033C173.297 41.2323 173.279 41.2614 173.25 41.2614H171.407C171.378 41.2614 171.349 41.2323 171.361 41.2033ZM134.082 43.7556V41.0579C134.082 41.0347 134.099 41.0114 134.122 41.0114H137.483C137.506 41.0114 137.529 40.9881 137.529 40.9707V39.8835C137.528 39.8716 137.523 39.8605 137.514 39.852C137.506 39.8435 137.495 39.8382 137.483 39.837H134.128C134.105 39.837 134.087 39.8137 134.087 39.7905V37.4881C134.087 37.4649 134.105 37.4416 134.128 37.4416H137.954C137.977 37.4416 138 37.4184 138 37.3951V36.3137C137.999 36.3018 137.994 36.2907 137.985 36.2822C137.977 36.2738 137.966 36.2685 137.954 36.2672H132.779C132.767 36.2685 132.756 36.2738 132.748 36.2822C132.739 36.2907 132.734 36.3018 132.733 36.3137V44.9998C132.733 45.023 132.756 45.0463 132.779 45.0463H138.111C138.134 45.0463 138.157 45.023 138.157 44.9998V43.8486C138.156 43.8367 138.151 43.8256 138.142 43.8171C138.134 43.8087 138.123 43.8033 138.111 43.8021H134.122C134.099 43.7963 134.087 43.7788 134.087 43.7498L134.082 43.7556ZM194.465 44.9707L190.105 40.4707C190.098 40.4624 190.094 40.4522 190.094 40.4416C190.094 40.431 190.098 40.4208 190.105 40.4126L194.029 36.3428C194.039 36.3381 194.047 36.3297 194.051 36.3194C194.055 36.309 194.054 36.2976 194.05 36.2875C194.045 36.2775 194.037 36.2697 194.026 36.2659C194.016 36.2621 194.004 36.2626 193.994 36.2672H192.39C192.372 36.2672 192.367 36.273 192.361 36.2846L189.029 39.7323C189.023 39.7376 189.015 39.741 189.007 39.7423C188.999 39.7437 188.991 39.7428 188.983 39.7398C188.975 39.7369 188.969 39.7319 188.964 39.7255C188.958 39.7191 188.955 39.7114 188.954 39.7033V36.3137C188.953 36.3018 188.947 36.2907 188.939 36.2822C188.93 36.2738 188.919 36.2685 188.907 36.2672H187.646C187.634 36.2685 187.622 36.2738 187.614 36.2822C187.605 36.2907 187.6 36.3018 187.599 36.3137V45.0056C187.599 45.0288 187.622 45.0521 187.646 45.0521H188.907C188.93 45.0521 188.954 45.0288 188.954 45.0056V41.18C188.954 41.1393 189.006 41.1219 189.029 41.1509L192.808 45.0346C192.815 45.0423 192.822 45.0483 192.832 45.0521H194.442C194.471 45.0463 194.5 44.994 194.465 44.9707Z" fill="#161616"/>
<path d="M114.163 31.5813L106.523 37.2325L107.948 33.9011L114.163 31.5813Z" fill="#E17726" stroke="#E17726" strokeWidth="0.25" strokeLinecap="round" strokeLinejoin="round"/>
<path d="M96.5464 31.5813L104.116 37.279L102.762 33.9069L96.5464 31.5813ZM111.413 44.6801L109.378 47.7848L113.732 48.9825L114.977 44.7499L111.413 44.6801ZM95.7383 44.7499L96.9767 48.9825L101.32 47.7848L99.2964 44.6801L95.7383 44.7499Z" fill="#E27625" stroke="#E27625" strokeWidth="0.25" strokeLinecap="round" strokeLinejoin="round"/>
<path d="M101.087 39.4359L99.8779 41.2615L104.18 41.4592L104.041 36.8255L101.087 39.4417V39.4359ZM109.622 39.4417L106.622 36.7673L106.523 41.4592L110.826 41.2615L109.622 39.4417ZM101.32 47.7848L103.93 46.529L101.686 44.7848L101.32 47.7848ZM106.785 46.5231L109.378 47.7848L109.029 44.779L106.785 46.5231Z" fill="#E27625" stroke="#E27625" strokeWidth="0.25" strokeLinecap="round" strokeLinejoin="round"/>
<path d="M109.378 47.7849L106.785 46.5291L106.994 48.2151L106.971 48.9302L109.378 47.7849ZM101.32 47.7849L103.738 48.9302L103.721 48.2151L103.93 46.5291L101.32 47.7849Z" fill="#D5BFB2" stroke="#D5BFB2" strokeWidth="0.25" strokeLinecap="round" strokeLinejoin="round"/>
<path d="M103.779 43.6629L101.628 43.035L103.151 42.3374L103.785 43.6629H103.779ZM106.924 43.6629L107.564 42.3315L109.093 43.0292L106.924 43.6688V43.6629Z" fill="#233447" stroke="#233447" strokeWidth="0.25" strokeLinecap="round" strokeLinejoin="round"/>
<path d="M101.32 47.7847L101.698 44.6801L99.2964 44.7498L101.32 47.7847ZM109.011 44.6801L109.378 47.7847L111.413 44.7498L109.011 44.6801ZM110.831 41.2615L106.529 41.4591L106.924 43.6685L107.564 42.3312L109.093 43.0289L110.831 41.2615ZM101.628 43.0347L103.151 42.3371L103.785 43.6626L104.186 41.4533L99.8836 41.2615L101.628 43.0347Z" fill="#CC6228" stroke="#CC6228" strokeWidth="0.25" strokeLinecap="round" strokeLinejoin="round"/>
<path d="M99.8838 41.2615L101.686 44.7789L101.628 43.0347L99.8838 41.2615ZM109.093 43.0347L109.023 44.7789L110.826 41.2615L109.093 43.0347ZM104.186 41.4591L103.779 43.6685L104.291 46.2731L104.407 42.8371L104.186 41.4591ZM106.523 41.4591L106.314 42.8312L106.419 46.2731L106.924 43.6626L106.523 41.4533V41.4591Z" fill="#E27525" stroke="#E27525" strokeWidth="0.25" strokeLinecap="round" strokeLinejoin="round"/>
<path d="M106.924 43.6628L106.419 46.2733L106.785 46.5291L109.023 44.7849L109.093 43.0349L106.924 43.6628ZM101.628 43.0349L101.686 44.7791L103.93 46.5233L104.291 46.2733L103.785 43.6628L101.622 43.0349H101.628Z" fill="#F5841F" stroke="#F5841F" strokeWidth="0.25" strokeLinecap="round" strokeLinejoin="round"/>
<path d="M106.977 48.9303L106.994 48.2151L106.797 48.0524H103.913L103.721 48.2151L103.738 48.9303L101.32 47.7849L102.169 48.4826L103.884 49.6628H106.82L108.541 48.4768L109.378 47.7849L106.971 48.9303H106.977Z" fill="#C0AC9D" stroke="#C0AC9D" strokeWidth="0.25" strokeLinecap="round" strokeLinejoin="round"/>
<path d="M106.785 46.5232L106.418 46.2732H104.29L103.93 46.529L103.721 48.2151L103.913 48.0523H106.796L106.994 48.2151L106.785 46.529V46.5232Z" fill="#161616" stroke="#161616" strokeWidth="0.25" strokeLinecap="round" strokeLinejoin="round"/>
<path d="M114.489 37.5987L115.128 34.4883L114.163 31.5813L106.779 37.0464L109.622 39.436L113.634 40.6046L114.518 39.5755L114.134 39.2964L114.744 38.7383L114.279 38.3778L114.89 37.9127L114.483 37.5987H114.489ZM95.5815 34.4825L96.2327 37.5987L95.8141 37.9069L96.4362 38.372L95.9711 38.7383L96.5757 39.2964L96.192 39.5755L97.0757 40.6046L101.087 39.4418L103.93 37.0406L96.5467 31.5813L95.5815 34.4825Z" fill="#763E1A" stroke="#763E1A" strokeWidth="0.25" strokeLinecap="round" strokeLinejoin="round"/>
<path d="M113.634 40.6048L109.622 39.442L110.831 41.2618L109.029 44.7793L111.413 44.7502H114.977L113.634 40.6048ZM101.087 39.4362L97.0755 40.6048L95.7383 44.7502H99.3022L101.686 44.7793L99.8836 41.2618L101.093 39.4362H101.087ZM106.523 41.4595L106.785 37.0409L107.948 33.9014H102.762L103.924 37.0409L104.186 41.4595L104.285 42.8432V46.2734H106.419L106.43 42.8432L106.523 41.4595Z" fill="#F5841F" stroke="#F5841F" strokeWidth="0.25" strokeLinecap="round" strokeLinejoin="round"/>
</svg>
