<svg width="250" height="82" viewBox="0 0 250 82" fill="none" xmlns="http://www.w3.org/2000/svg">
<g clip-path="url(#clip0_401_1155)">
<path d="M36.0663 44.1505C38.8381 44.1532 41.5477 43.3298 43.8496 41.7859C46.1565 40.238 47.9527 38.0413 49.0121 35.4733C50.0727 32.9019 50.3515 30.0748 49.8138 27.3457C49.2763 24.6166 47.9458 22.1066 45.9892 20.1296C44.0388 18.1591 41.5446 16.8155 38.826 16.2706C36.1074 15.7258 33.2881 16.0046 30.7288 17.0713C28.1659 18.1383 25.9776 19.9423 24.4413 22.2546C22.6415 24.9631 21.8311 28.2097 22.1469 31.4463C22.4626 34.683 23.8853 37.7117 26.1747 40.0213C27.4699 41.3269 29.0104 42.3638 30.7075 43.0725C32.4047 43.7811 34.2272 44.1473 36.0663 44.1505Z" fill="#F4C222"/>
<path d="M53.1167 64.0749V47.2166L69.8875 64.0749H53.1167Z" fill="#5C5CE5"/>
<path d="M69.8877 30.3705L36.3627 64.0747H22.0835L69.8877 16.0164V30.3705Z" fill="#E54C4C"/>
</g>
<g clip-path="url(#clip1_401_1155)">
<path d="M114.712 38.5119C116.042 38.5132 117.343 38.1181 118.448 37.3769C119.555 36.6339 120.417 35.5796 120.926 34.3469C121.435 33.1126 121.569 31.7557 121.311 30.4457C121.053 29.1357 120.414 27.9309 119.475 26.9819C118.539 26.0361 117.341 25.3912 116.037 25.1296C114.732 24.8681 113.378 25.0019 112.15 25.5139C110.92 26.0261 109.869 26.892 109.132 28.0019C108.268 29.302 107.879 30.8604 108.031 32.414C108.182 33.9676 108.865 35.4213 109.964 36.5299C110.586 37.1567 111.325 37.6544 112.14 37.9945C112.954 38.3347 113.828 38.5105 114.711 38.5119H114.712Z" fill="#F4C222"/>
<path d="M122.896 48.0759V39.9839L130.946 48.0759H122.896Z" fill="#5C5CE5"/>
<path d="M130.946 31.8981L114.854 48.0761H108L130.946 25.0081V31.8981Z" fill="#E54C4C"/>
<path fill-rule="evenodd" clip-rule="evenodd" d="M146.054 25.0081H148.989C151.026 25.0277 152.974 25.8494 154.41 27.2951C155.851 28.7451 156.667 30.7011 156.685 32.7451C156.679 34.7738 155.875 36.7187 154.445 38.1581C153.02 39.5933 151.083 40.4037 149.06 40.4111H144.795V48.0761H140.175V25.0081H144.795V35.8381H148.989C149.805 35.8381 150.588 35.5121 151.165 34.9321C151.743 34.3509 152.067 33.5646 152.067 32.7451C152.067 31.9255 151.743 31.1393 151.165 30.5581C150.88 30.2711 150.541 30.0433 150.167 29.8878C149.794 29.7323 149.393 29.6522 148.989 29.6521H144.795L146.054 25.0081ZM157.802 48.0761H162.422V31.6221H157.802V48.0761ZM172.911 31.6221L177.521 48.0611L182.141 31.6211H186.689L179.607 57.0001H175.012L177.522 48.0761H172.91L168.29 31.6221L167.016 36.1861H162.42L163.742 31.6221H172.91H172.911Z" fill="#001133"/>
</g>
<defs>
<clipPath id="clip0_401_1155">
<rect width="50" height="50" fill="white" transform="translate(20 16)"/>
</clipPath>
<clipPath id="clip1_401_1155">
<rect width="79" height="32" fill="white" transform="translate(108 25)"/>
</clipPath>
</defs>
</svg>
