<svg width="250" height="82" viewBox="0 0 250 82" fill="none" xmlns="http://www.w3.org/2000/svg">
<g clip-path="url(#clip0_401_948)">
<path d="M20 20.5814C20 18.0512 22.0512 16 24.5814 16H42.5019C45.0321 16 47.0833 18.0512 47.0833 20.5814V24.126C47.0833 25.3911 46.0577 26.4167 44.7927 26.4167H22.2907C21.0256 26.4167 20 25.3911 20 24.126V20.5814Z" fill="black"/>
<path d="M20 34.9574C20 33.6923 21.0256 32.6667 22.2907 32.6667H65.4185C67.9487 32.6667 70 34.7179 70 37.2482V49.1261C70 50.3911 68.9744 51.4167 67.7094 51.4167H24.5814C22.0512 51.4167 20 49.3655 20 46.8353V34.9574Z" fill="black"/>
<path d="M42.9165 59.9574C42.9165 58.6924 43.9421 57.6667 45.2071 57.6667H67.7092C68.9742 57.6667 69.9998 58.6924 69.9998 59.9574V61.4186C69.9998 63.9488 67.9486 66.0001 65.4184 66.0001H47.498C44.9678 66.0001 42.9165 63.9488 42.9165 61.4186V59.9574Z" fill="black"/>
</g>
<g clip-path="url(#clip1_401_948)">
<path d="M109 31.9634C109 30.8791 109.879 30 110.963 30H118.644C119.728 30 120.607 30.8791 120.607 31.9635V33.4826C120.607 34.0248 120.168 34.4643 119.625 34.4643H109.982C109.44 34.4643 109 34.0248 109 33.4826V31.9634Z" fill="black"/>
<path d="M109 38.1245C109 37.5824 109.44 37.1428 109.982 37.1428H128.465C129.549 37.1428 130.429 38.0219 130.429 39.1063V44.1968C130.429 44.739 129.989 45.1785 129.447 45.1785H110.963C109.879 45.1785 109 44.2994 109 43.2151V38.1245Z" fill="black"/>
<path d="M118.821 48.8389C118.821 48.2967 119.261 47.8572 119.803 47.8572H129.447C129.989 47.8572 130.428 48.2967 130.428 48.8389V49.4651C130.428 50.5495 129.549 51.4286 128.465 51.4286H120.785C119.7 51.4286 118.821 50.5495 118.821 49.4651V48.8389Z" fill="black"/>
<path d="M142.568 43.1615H144.631L148.464 49.4268H153.157L148.907 42.7192C151.265 41.9084 152.641 40.0903 152.641 37.4613C152.641 33.7758 150.061 31.7856 145.909 31.7856H138.464V49.4268H142.568V43.1615ZM142.568 39.82V35.25H145.688C147.629 35.25 148.612 36.0854 148.612 37.535C148.612 38.96 147.629 39.82 145.688 39.82H142.568Z" fill="black"/>
<path d="M160.217 49.6971C162.797 49.6971 165.155 48.395 166.114 45.9134L162.821 44.8568C162.453 45.9871 161.495 46.5768 160.266 46.5768C158.767 46.5768 157.711 45.5694 157.441 43.8003H166.212V42.7684C166.212 39.1075 164.074 36.2083 160.143 36.2083C156.409 36.2083 153.657 39.1075 153.657 42.9404C153.657 46.9699 156.31 49.6971 160.217 49.6971ZM160.094 39.255C161.544 39.255 162.305 40.2377 162.33 41.3925H157.563C157.956 39.9675 158.89 39.255 160.094 39.255Z" fill="black"/>
<path d="M168.441 45.9625C168.441 48.6161 169.841 49.5497 172.642 49.5497C173.576 49.5497 174.313 49.4761 175.001 49.3778V46.1591C174.559 46.2082 174.337 46.2328 173.871 46.2328C172.888 46.2328 172.323 46.0363 172.323 44.9552V39.7218H174.853V36.4786H172.323V32.8914H168.441V36.4786H166.794V39.7218H168.441V45.9625Z" fill="black"/>
<path d="M189.064 42.965C189.064 38.9355 186.386 36.2083 182.578 36.2083C178.745 36.2083 176.091 38.9355 176.091 42.965C176.091 46.9944 178.745 49.6971 182.578 49.6971C186.386 49.6971 189.064 46.9944 189.064 42.965ZM179.998 42.965C179.998 40.7045 181.005 39.4269 182.578 39.4269C184.15 39.4269 185.158 40.7045 185.158 42.965C185.158 45.2254 184.15 46.503 182.578 46.503C181.005 46.503 179.998 45.2254 179.998 42.965Z" fill="black"/>
<path d="M203.221 42.965C203.221 38.9355 200.543 36.2083 196.735 36.2083C192.902 36.2083 190.248 38.9355 190.248 42.965C190.248 46.9944 192.902 49.6971 196.735 49.6971C200.543 49.6971 203.221 46.9944 203.221 42.965ZM194.155 42.965C194.155 40.7045 195.162 39.4269 196.735 39.4269C198.307 39.4269 199.314 40.7045 199.314 42.965C199.314 45.2254 198.307 46.503 196.735 46.503C195.162 46.503 194.155 45.2254 194.155 42.965Z" fill="black"/>
<path d="M209 31.7856H205.069V49.4268H209V31.7856Z" fill="black"/>
</g>
<defs>
<clipPath id="clip0_401_948">
<rect width="50" height="50" fill="white" transform="translate(20 16)"/>
</clipPath>
<clipPath id="clip1_401_948">
<rect width="100" height="21.4286" fill="white" transform="translate(109 30)"/>
</clipPath>
</defs>
</svg>
