<svg width="250" height="82" viewBox="0 0 250 82" fill="none" xmlns="http://www.w3.org/2000/svg">
<g clip-path="url(#clip0_401_73)">
<path d="M21.2735 39.6925C20.2052 41.4029 19.7574 46.7821 20.1297 50.3485C20.2592 51.5247 20.475 52.5066 20.7825 53.0947C21.2088 53.9041 21.9263 54.3896 22.7411 54.4166C23.2644 54.4436 23.5935 54.3519 33.4402 51.1848C33.4402 51.1848 37.8159 49.7873 37.8374 49.7766C38.9273 49.496 39.6665 48.4925 39.7366 47.2137C39.8068 45.8973 39.1323 44.7372 38.0101 44.3218C38.0101 44.3218 34.9239 43.0647 34.9185 43.0647C24.3327 38.6998 23.8579 38.5271 23.3238 38.5217C22.5037 38.4947 21.7807 38.9048 21.2735 39.6925ZM44.9486 72.2215C45.1213 71.7251 45.1428 71.3852 45.1698 61.0368C45.1698 61.0368 45.1914 56.4669 45.1968 56.4183C45.2669 55.2961 44.5439 54.2763 43.357 53.8177C42.1322 53.3483 40.8157 53.6397 40.0765 54.5569C40.0765 54.5569 37.9184 57.1197 37.9076 57.1197C30.4943 65.8279 30.1813 66.2326 30.0033 66.7452C29.89 67.0473 29.8522 67.371 29.8846 67.6948C29.9278 68.1588 30.1382 68.612 30.4835 69.0382C32.2046 71.0831 40.4488 74.1153 43.0818 73.6621C44.0044 73.5056 44.668 72.9931 44.9486 72.2215ZM61.6798 68.6228C64.1671 67.63 69.5895 60.7347 69.9726 58.0747C70.1074 57.1521 69.8161 56.3536 69.1794 55.8464C68.764 55.5335 68.4457 55.4094 58.599 52.1775C58.599 52.1775 54.2827 50.7531 54.2233 50.7262C53.1766 50.3215 51.9842 50.6992 51.1857 51.6865C50.3494 52.7009 50.2253 54.0443 50.8944 55.0533L52.6317 57.8805C58.4749 67.371 58.9227 68.0401 59.3436 68.3692C59.991 68.8817 60.8165 68.9681 61.6798 68.6228ZM56.5919 44.1923C67.7766 41.4838 68.2136 41.3381 68.6507 41.0468C69.3305 40.5882 69.6704 39.8274 69.6111 38.8994C69.6111 38.8724 69.6165 38.84 69.6111 38.8077C69.3251 36.056 64.5124 28.9125 62.1384 27.7525C61.2967 27.3478 60.455 27.3748 59.759 27.8442C59.3274 28.1247 59.0091 28.551 53.0201 36.7466C53.0201 36.7466 50.317 40.4317 50.2847 40.4695C49.5725 41.3381 49.5617 42.5791 50.2577 43.6474C50.9807 44.7534 52.2 45.2876 53.3169 44.98C53.3169 44.98 53.2737 45.061 53.2629 45.0718C53.8133 44.8613 54.7952 44.6185 56.5919 44.1923ZM45.364 34.9553C45.1698 30.5203 43.8371 10.7785 43.6807 9.86664C43.4541 9.03575 42.8066 8.44765 41.8786 8.21025C39.019 7.50345 28.1041 10.5627 26.0808 12.6453C25.428 13.3251 25.1906 14.156 25.3848 14.8952C25.7031 15.548 39.2295 36.8276 39.2295 36.8276C41.2258 40.0702 42.8606 39.563 43.3947 39.3958C43.9235 39.2393 45.5475 38.7321 45.364 34.9553Z" fill="#FF1919"/>
</g>
<g clip-path="url(#clip1_401_73)">
<path d="M193.448 35.0294C192.912 33.9265 192.192 32.9193 191.318 32.0498C191.142 31.8826 190.955 31.7288 190.755 31.5898C190.605 31.4755 190.448 31.3696 190.286 31.2725H190.253L190.211 31.2481C190.035 31.1547 189.855 31.0704 189.671 30.9955H189.623C189.161 30.8161 188.668 30.7238 188.17 30.7234H187.964C187.417 30.7576 186.883 30.9016 186.398 31.148C185.823 31.4476 185.295 31.8273 184.831 32.2755H184.802L184.774 32.3036C184.756 32.3241 184.736 32.3425 184.713 32.3585L184.623 32.4414C184.305 32.7355 183.986 33.0539 183.615 33.4261L183.353 33.6945C183.02 34.0213 182.69 34.3508 182.364 34.6829C182.465 32.9429 182.575 31.1615 182.663 29.3935C182.663 29.1677 182.686 28.9335 182.705 28.7114C182.771 27.939 182.787 27.1618 182.752 26.387V26.1979C182.705 25.3145 182.631 23.9833 181.733 22.8424C181.074 21.9932 179.759 21 177.255 21C176.689 21.0038 176.123 21.0453 175.562 21.1245C174.641 21.2529 173.732 21.4578 172.845 21.737C170.06 22.635 168.451 24.0382 168.047 25.9453C167.751 27.3583 168.282 28.5882 168.629 29.402L168.703 29.5777C169.018 30.2915 169.38 30.9833 169.787 31.6495L170.126 32.2438C170.989 33.7843 171.863 35.3189 172.748 36.8474L171.405 36.3874L171.063 36.2679C170.566 36.0885 170.126 35.936 169.717 35.8066L169.605 35.7749L169.525 35.7517H169.449C168.831 35.5486 168.186 35.4355 167.535 35.4161H167.433C166.919 35.414 166.41 35.5141 165.936 35.7102C165.412 35.9274 164.942 36.252 164.556 36.6632C164.428 36.8119 164.306 36.9658 164.191 37.1244L164.163 37.161L164.135 37.2025C163.898 37.5563 163.704 37.9364 163.558 38.3348V38.3629C163.16 39.5143 162.961 40.7232 162.971 41.9392C161.775 37.3355 157.854 33.9324 153.228 33.9324C151.549 33.9377 149.902 34.3798 148.453 35.2136C147.637 34.5361 146.611 34.1503 145.542 34.1192C144.474 34.0883 143.426 34.4138 142.571 35.0428V32.6208C142.542 31.4008 142.032 30.2392 141.148 29.3806C140.265 28.522 139.076 28.0332 137.833 28.0171C136.573 28.0217 135.366 28.5168 134.477 29.3939C133.589 30.2711 133.091 31.4583 133.094 32.6952V37.7271C132.976 37.5745 132.849 37.4283 132.715 37.2891C131.35 35.8867 129.633 34.8623 127.737 34.3192C125.827 33.7918 123.806 33.7935 121.897 34.3242H121.846C120.306 34.7199 118.883 35.4642 117.69 36.4973C117.313 35.7198 116.718 35.0636 115.975 34.6056C115.233 34.1475 114.372 33.9064 113.495 33.9105C113.05 33.9105 112.609 33.9739 112.182 34.0984C109.836 34.7939 108.898 37.0317 108.326 38.3665C108.274 38.491 108.227 38.6069 108.177 38.7167C108.035 39.0486 107.9 39.3427 107.791 39.5781C107.682 39.8062 107.582 40.0383 107.491 40.2736C107.425 40.453 107.369 40.5762 107.304 40.7336C106.913 39.9535 106.517 39.1755 106.117 38.3995L105.881 37.9114C105.29 36.6668 104.404 34.7988 102.2 34.1448C101.101 33.8152 99.9164 33.898 98.8763 34.3771C97.8361 34.8562 97.0144 35.6974 96.5705 36.7376C95.5051 39.2096 96.8278 41.3913 97.5365 42.5614C98.0437 43.3911 98.6951 44.4892 99.3055 45.6326C99.5666 46.0926 99.666 46.2866 100.243 47.3859L100.327 47.5385L101.06 48.9197C101.234 49.2369 101.425 49.6005 101.65 50.0252C101.89 50.4852 102.162 50.9817 102.462 51.5345C102.411 51.604 102.359 51.6772 102.298 51.7467L102.256 51.7968L102.19 51.7651C101.722 51.5318 101.226 51.3583 100.713 51.2489C100.351 51.1667 99.9813 51.1249 99.6101 51.1245C98.798 51.1242 98.0002 51.3338 97.2968 51.7322C96.5934 52.1306 96.0094 52.7037 95.6033 53.394C95.1977 54.0892 94.9895 54.8786 95.0004 55.6798C95.0113 56.4809 95.241 57.2645 95.6655 57.9489C97.0715 60.2501 99.9383 61.0883 102.167 61.0883C102.758 61.0908 103.348 61.031 103.925 60.9089C108.931 59.8413 111.098 55.1071 112.68 51.6504L112.998 50.9549C113.324 50.2214 113.663 49.4936 114.016 48.772L114.331 48.0948C114.65 49.1024 115.119 50.0583 115.723 50.9317C116.096 51.4759 116.512 51.9896 116.971 52.4655C117.437 52.9328 117.944 53.3586 118.487 53.7405C119.033 54.1139 119.618 54.436 120.227 54.702C120.849 54.9875 121.499 55.2023 122.169 55.3475C122.579 55.4463 122.997 55.522 123.417 55.572C123.802 55.6123 124.188 55.6293 124.576 55.6233H124.917C126.307 55.6247 127.686 55.3911 128.995 54.9326C129.597 54.7373 130.18 54.4873 130.736 54.1871C131.723 53.624 132.535 52.8051 133.08 51.82C133.225 52.9432 133.78 53.9766 134.643 54.7279C135.506 55.4792 136.617 55.897 137.771 55.9039C138.786 55.9039 139.773 55.5805 140.586 54.9827V56.4383C140.586 57.6715 141.086 58.8543 141.974 59.7264C142.863 60.5984 144.068 61.0883 145.324 61.0883C146.581 61.0883 147.786 60.5984 148.674 59.7264C149.563 58.8543 150.062 57.6715 150.062 56.4383V55.1681C151.061 55.5098 152.113 55.6842 153.172 55.683C158.736 55.683 163.262 50.8207 163.272 44.8443C163.386 45.2067 163.544 45.5545 163.741 45.8814C164.039 46.3427 164.429 46.7392 164.891 47.0455C165.553 47.4794 166.327 47.7205 167.123 47.741H167.489C168.108 47.7264 168.724 47.6401 169.322 47.4836H169.422L172.015 46.9077C171.608 47.4604 171.208 47.9985 170.824 48.5329L170.608 48.8318C170.295 49.2552 170.026 49.6286 169.787 49.9873L169.722 50.0886L169.674 50.1581L169.652 50.1898V50.2228C169.28 50.7541 168.989 51.3357 168.788 51.9493C168.624 52.4687 168.573 53.0163 168.639 53.5563C168.711 54.1078 168.904 54.6386 169.201 55.112V55.1352C169.309 55.3011 169.431 55.4622 169.552 55.5951L169.581 55.6233L169.605 55.6549C169.735 55.8075 169.881 55.9502 170.027 56.0881C170.199 56.2552 170.384 56.409 170.581 56.5493C171.508 57.1716 172.523 57.6597 173.592 57.9989C174.503 58.2966 175.449 58.4747 176.406 58.5284H176.68C176.836 58.53 176.992 58.5223 177.148 58.5052C177.343 58.4894 177.537 58.4638 177.729 58.4271H177.814C178.01 58.382 178.205 58.3258 178.395 58.2612H178.423C178.95 58.0693 179.43 57.7713 179.831 57.3864C180.217 57.0007 180.518 56.5419 180.717 56.0381C180.945 55.4343 181.08 54.8013 181.121 54.159V54.0761C181.124 54.0485 181.124 54.0207 181.121 53.9931V53.887C181.163 53.427 181.183 53.0036 181.205 52.5057V51.798L181.365 52.0823L181.548 52.4191C181.802 52.8791 182.017 53.2659 182.242 53.6344L182.298 53.7259L182.35 53.8089V53.8369L182.375 53.8735C182.734 54.4202 183.173 54.9107 183.677 55.3328C184.082 55.705 184.56 55.9892 185.085 56.1662H185.114C185.52 56.3004 185.946 56.3687 186.375 56.3687C186.508 56.3687 186.641 56.3602 186.773 56.3455H186.817C187.018 56.3236 187.218 56.2907 187.417 56.2443H187.5C187.693 56.1955 187.883 56.1333 188.068 56.0613C188.289 55.9795 188.504 55.8819 188.711 55.7708C189.551 55.3106 190.323 54.7423 191.01 54.0809C191.82 53.3159 192.514 52.4416 193.073 51.4845C193.289 51.103 193.453 50.6958 193.562 50.2728V50.1948C193.608 50.0038 193.642 49.8102 193.665 49.6152V49.5542C193.718 49.0071 193.654 48.4552 193.477 47.9338C193.292 47.4185 192.998 46.9477 192.614 46.5526C192.159 46.0894 191.639 45.6925 191.07 45.3739H191.037L191 45.3519L190.925 45.3105L190.831 45.2495C190.457 45.0335 190.039 44.7895 189.598 44.5783L189.232 44.3843C188.649 44.065 188.059 43.7579 187.463 43.4631L190.034 42.8786H190.133C190.864 42.7433 191.567 42.4963 192.22 42.1466C192.925 41.7859 193.512 41.2369 193.914 40.5628C194.177 40.093 194.338 39.5745 194.383 39.0389C194.589 37.377 193.877 35.9079 193.45 35.0294H193.448Z" fill="white" fill-opacity="0.96"/>
<path d="M174.069 44.0512L175.617 43.6997C175.649 43.6924 175.704 43.6802 175.768 43.6594C176.196 43.5469 176.562 43.276 176.79 42.9036C177.018 42.5313 177.09 42.0866 176.99 41.6633L176.984 41.6365C176.933 41.4337 176.843 41.242 176.721 41.0715C176.547 40.8556 176.333 40.6749 176.089 40.5395C175.802 40.3791 175.502 40.2427 175.192 40.132L173.495 39.5232C172.543 39.1754 171.59 38.8374 170.628 38.5067C170.005 38.2896 169.477 38.098 169.018 37.9577C168.931 37.934 168.844 37.9079 168.758 37.8796C168.204 37.7136 167.813 37.6441 167.484 37.6416C167.264 37.6336 167.044 37.6728 166.841 37.7563C166.629 37.8466 166.438 37.9796 166.282 38.1468C166.204 38.2333 166.131 38.3238 166.063 38.4177C165.93 38.6174 165.821 38.831 165.737 39.0546C165.422 39.9685 165.265 40.9278 165.272 41.8927C165.278 42.7639 165.302 43.8828 165.791 44.6417C165.909 44.8369 166.067 45.0053 166.254 45.1359C166.602 45.3713 166.953 45.4031 167.32 45.4287C167.867 45.4666 168.395 45.336 168.923 45.2152L174.065 44.0499L174.069 44.0512ZM191.337 35.9871C190.915 35.1167 190.346 34.3219 189.656 33.6359C189.567 33.5486 189.471 33.4678 189.37 33.3943C189.277 33.3255 189.18 33.2616 189.079 33.2027C188.976 33.1472 188.87 33.0971 188.761 33.0526C188.546 32.9698 188.316 32.9324 188.086 32.9428C187.866 32.955 187.651 33.016 187.455 33.1173C187.161 33.2613 186.841 33.4932 186.416 33.8799C186.358 33.9372 186.284 34.0019 186.218 34.0629C185.868 34.3863 185.477 34.7853 185.014 35.2489C184.296 35.9603 183.592 36.6753 182.89 37.3964L181.634 38.6751C181.405 38.9084 181.196 39.1602 181.009 39.428C180.85 39.6546 180.737 39.9094 180.677 40.1784C180.644 40.385 180.649 40.5958 180.693 40.8007L180.699 40.8275C180.798 41.2503 181.061 41.6189 181.431 41.8556C181.802 42.0923 182.252 42.1786 182.686 42.0965C182.738 42.0892 182.79 42.0794 182.841 42.0672L189.531 40.5493C190.06 40.4297 190.595 40.3199 191.068 40.0491C191.387 39.8697 191.689 39.6903 191.896 39.3291C192.007 39.1302 192.074 38.9107 192.093 38.6849C192.196 37.7893 191.72 36.7729 191.337 35.9871ZM179.359 38.7483C179.843 38.1504 179.843 37.2597 179.886 36.5301C180.033 34.0959 180.185 31.6616 180.309 29.2263C180.355 28.3038 180.455 27.3935 180.399 26.4638C180.353 25.6975 180.348 24.8166 179.855 24.187C178.984 23.0766 177.127 23.1681 175.86 23.3414C175.47 23.3944 175.082 23.466 174.698 23.5561C174.312 23.6464 173.93 23.7453 173.557 23.8636C172.341 24.2541 170.632 24.9715 170.343 26.3466C170.179 27.1239 170.567 27.9182 170.865 28.6284C171.23 29.4873 171.726 30.2622 172.178 31.0711C173.375 33.2076 174.593 35.3319 175.809 37.4574C176.172 38.0919 176.567 38.8947 177.269 39.2242C177.316 39.2438 177.363 39.2608 177.412 39.2766C177.727 39.3938 178.071 39.4157 178.398 39.3413L178.456 39.3291C178.759 39.2474 179.033 39.0851 179.248 38.8618C179.288 38.8252 179.324 38.7886 179.36 38.7483H179.359ZM178.778 45.2652C178.589 45.004 178.321 44.8082 178.011 44.7058C177.702 44.6035 177.367 44.5998 177.055 44.6954C176.982 44.7191 176.91 44.7481 176.841 44.782C176.734 44.8355 176.633 44.8979 176.537 44.9687C176.263 45.1803 176.018 45.426 175.809 45.6996C175.756 45.7667 175.706 45.8557 175.642 45.9144L174.565 47.3663C173.955 48.1814 173.353 48.9977 172.758 49.8262C172.367 50.3618 172.031 50.8145 171.764 51.2135C171.715 51.2891 171.662 51.3721 171.615 51.4404C171.296 51.9236 171.115 52.2775 171.022 52.5922C170.952 52.8014 170.93 53.023 170.957 53.2414C170.987 53.4683 171.065 53.6867 171.186 53.8832C171.251 53.9808 171.321 54.076 171.395 54.1675C171.556 54.3495 171.737 54.5132 171.936 54.6556C172.679 55.1632 173.492 55.5279 174.347 55.8098C175.06 56.0416 175.799 56.1807 176.548 56.2222C176.676 56.2283 176.804 56.2259 176.93 56.2149C177.049 56.2041 177.165 56.1878 177.281 56.1661C177.397 56.1396 177.512 56.107 177.624 56.0685C177.843 55.988 178.043 55.8633 178.209 55.7025C178.367 55.5475 178.489 55.3608 178.565 55.1546C178.689 54.8495 178.771 54.464 178.825 53.8905C178.829 53.8088 178.842 53.7111 178.85 53.6221C178.893 53.1462 178.912 52.585 178.943 51.9285C178.996 50.917 179.037 49.9103 179.069 48.9013L179.139 47.1052C179.155 46.6928 179.141 46.234 179.024 45.8228C178.973 45.6253 178.89 45.4371 178.778 45.2652ZM190.927 48.0752C190.704 47.8324 190.386 47.592 189.884 47.2944C189.812 47.2541 189.725 47.2016 189.647 47.1552C189.23 46.9075 188.726 46.6488 188.138 46.3353C187.234 45.8472 186.33 45.3738 185.417 44.9028L183.804 44.0634C183.721 44.0389 183.637 43.9803 183.557 43.9425C183.247 43.7871 182.918 43.6719 182.577 43.5997C182.46 43.5775 182.341 43.5652 182.221 43.5631C182.144 43.5627 182.067 43.5672 181.99 43.5765C181.668 43.6254 181.369 43.7732 181.137 43.9986C180.905 44.2241 180.751 44.5158 180.698 44.832C180.674 45.0334 180.681 45.2372 180.721 45.4348C180.799 45.857 180.991 46.2731 181.19 46.6378L182.05 48.2228C182.53 49.116 183.015 50.0043 183.512 50.8901C183.833 51.4672 184.1 51.9614 184.35 52.3714C184.397 52.4483 184.451 52.5313 184.492 52.6032C184.796 53.095 185.04 53.4049 185.287 53.6282C185.452 53.7838 185.65 53.9016 185.867 53.9733C186.084 54.045 186.313 54.0688 186.54 54.043C186.659 54.0289 186.776 54.0085 186.893 53.982C187.13 53.9195 187.36 53.8307 187.577 53.7172C188.232 53.3572 188.835 52.9142 189.371 52.3994C190.015 51.7772 190.584 51.0988 191.027 50.3228C191.09 50.2129 191.142 50.0994 191.187 49.9811C191.228 49.8728 191.264 49.7624 191.294 49.6504C191.321 49.5357 191.34 49.421 191.354 49.3051C191.377 49.0773 191.349 48.8475 191.276 48.6304C191.202 48.4221 191.084 48.2321 190.927 48.074V48.0752Z" fill="#FF1A1A"/>
<path fill-rule="evenodd" clip-rule="evenodd" d="M135.401 32.6635C135.401 31.3579 136.484 30.2915 137.792 30.2915C139.081 30.2915 140.128 31.3579 140.184 32.683V51.1977C140.184 52.5032 139.1 53.5697 137.792 53.5697C137.476 53.5695 137.163 53.5079 136.871 53.3883C136.579 53.2688 136.315 53.0936 136.093 52.873C135.87 52.6525 135.695 52.3908 135.576 52.1033C135.457 51.8157 135.398 51.5079 135.401 51.1977V32.6635ZM133.177 44.1001C133.159 44.4673 133.065 45.1482 132.58 45.6448C132.057 46.1779 131.347 46.306 130.936 46.306C129.226 46.3158 127.517 46.3207 125.808 46.3244C124.098 46.3292 122.389 46.3342 120.68 46.3427C120.829 46.8027 121.127 47.5018 121.8 48.1448C122.21 48.5317 122.603 48.7513 122.772 48.844C122.977 48.9721 123.687 49.3406 124.564 49.3406C125.499 49.3406 126.321 49.0454 127.125 48.6414L127.191 48.6073C127.751 48.323 128.326 48.0301 128.937 47.924C129.533 47.8325 130.17 47.9423 130.636 48.3474C131.197 48.8257 131.422 49.5236 131.215 50.2411C130.973 51.0501 130.282 51.7492 129.553 52.1714C129.136 52.4109 128.699 52.6138 128.246 52.7778C127.089 53.1805 125.867 53.3679 124.64 53.3305C124.342 53.3305 124.024 53.3305 123.705 53.2939C123.37 53.2573 123.034 53.1829 122.716 53.1097C122.2 52.9998 121.698 52.8332 121.22 52.6131C120.742 52.4051 120.286 52.1526 119.857 51.859C119.429 51.5572 119.029 51.2187 118.662 50.8475C118.297 50.4717 117.965 50.066 117.671 49.6347C116.663 48.1266 116.195 46.2695 116.289 44.4673C116.363 42.7029 116.961 40.9374 118.045 39.5037C118.162 39.3231 118.298 39.1706 118.426 39.0266C118.482 38.9632 118.536 38.9022 118.587 38.8411C119.925 37.2354 121.713 36.7279 122.45 36.5179L122.491 36.5057C123.987 36.0888 125.572 36.0888 127.068 36.5057C127.424 36.5985 129.423 37.2049 130.973 38.8411C131.048 38.9144 131.254 39.1535 131.515 39.5037C132.178 40.3899 132.665 41.3908 132.951 42.454L132.953 42.4638C133.065 42.8676 133.177 43.4192 133.177 44.0988V44.1001ZM122.211 41.0667C121.473 41.6555 120.96 42.4716 120.754 43.3826H128.899C128.68 42.4723 128.161 41.6582 127.424 41.0655C126.681 40.4809 125.76 40.1574 124.808 40.1467C123.861 40.156 122.945 40.4798 122.21 41.0655L122.211 41.0667ZM153.186 36.1934C151.057 36.1934 149.113 37.1317 147.731 38.6581V38.602C147.703 37.989 147.431 37.4113 146.974 36.9932C146.516 36.5753 145.909 36.3506 145.284 36.3676C144.659 36.3845 144.066 36.6418 143.633 37.084C143.199 37.5261 142.96 38.1178 142.967 38.7314V56.4004C142.966 56.7095 143.027 57.0157 143.146 57.3015C143.266 57.5873 143.442 57.847 143.664 58.0658C143.886 58.2846 144.151 58.458 144.442 58.5762C144.732 58.6943 145.044 58.7548 145.359 58.7542C145.674 58.7546 145.986 58.694 146.276 58.5758C146.567 58.4576 146.831 58.2842 147.053 58.0654C147.275 57.8467 147.451 57.587 147.571 57.3012C147.69 57.0154 147.751 56.7093 147.75 56.4004V50.8841C149.132 52.3923 151.057 53.3489 153.205 53.3489C157.484 53.3489 160.958 49.542 160.958 44.7979C160.94 40.0552 157.465 36.1934 153.186 36.1934ZM152.141 49.5054C149.711 49.5054 147.731 47.4274 147.731 44.8358C147.731 42.2247 149.693 40.1467 152.141 40.1467C154.569 40.1467 156.549 42.2247 156.549 44.8358C156.53 47.4274 154.569 49.5054 152.141 49.5054ZM112.702 46.0303L111.918 47.7227C111.562 48.4572 111.207 49.2113 110.871 49.9654L110.546 50.673C109.052 53.9333 107.281 57.8036 103.417 58.6248C101.548 59.0299 98.7275 58.4784 97.6807 56.7494C96.6352 55.0034 98.1855 52.9986 100.184 53.4586C100.5 53.527 100.81 53.6782 101.123 53.832C101.644 54.0882 102.172 54.3457 102.744 54.2311C103.286 54.1395 103.622 53.7527 104.052 53.2561C104.649 52.5765 104.911 51.859 105.023 51.4356L104.996 51.3722C104.987 51.3503 104.977 51.3287 104.967 51.3075C104.481 50.4168 104.056 49.6213 103.701 48.9563C103.502 48.5807 103.301 48.2061 103.098 47.8325L102.284 46.3146C101.688 45.2043 101.588 45.0213 101.324 44.5417C100.743 43.4654 100.133 42.4047 99.4933 41.3607C98.8021 40.2199 98.0922 38.9522 98.6716 37.6088C98.8893 37.0887 99.2982 36.6678 99.8172 36.4296C100.336 36.1914 100.927 36.1532 101.474 36.3227C102.676 36.6802 103.209 37.804 103.706 38.8533C103.797 39.0437 103.885 39.2316 103.977 39.411C104.781 40.974 105.565 42.537 106.349 44.1001C106.419 44.255 106.523 44.466 106.653 44.7248C106.767 44.9542 106.9 45.2214 107.041 45.5154L107.248 45.9401C107.329 46.106 107.4 46.2475 107.452 46.361C107.816 45.4703 108.186 44.5832 108.554 43.6949C108.923 42.8079 109.292 41.9208 109.656 41.0289C109.666 40.9801 109.753 40.7898 109.885 40.503C109.996 40.2602 110.137 39.9491 110.292 39.5952L110.449 39.2206C110.934 38.0615 111.519 36.6668 112.814 36.2861C113.274 36.1551 113.764 36.168 114.216 36.3228C114.668 36.4776 115.059 36.7667 115.336 37.15C115.616 37.5356 115.728 37.9773 115.747 38.419C115.762 39.3951 115.282 40.442 114.869 41.3401C114.769 41.5597 114.673 41.7695 114.589 41.9672L114.539 42.0745C114.425 42.3271 114.114 43.0104 113.58 44.1367C113.387 44.5393 113.202 44.9444 113.014 45.3532L112.702 46.0303Z" fill="black"/>
</g>
<defs>
<clipPath id="clip0_401_73">
<rect width="50" height="65.8241" fill="white" transform="translate(20 8)"/>
</clipPath>
<clipPath id="clip1_401_73">
<rect width="100" height="40.1515" fill="white" transform="translate(95 21)"/>
</clipPath>
</defs>
</svg>
