<svg width="250" height="82" viewBox="0 0 250 82" fill="none" xmlns="http://www.w3.org/2000/svg">
<g clipPath="url(#clip0_401_653)">
<path d="M44.8732 59.1202C51.3055 59.1202 56.5199 53.9058 56.5199 47.4736C56.5199 41.0413 51.3055 35.8269 44.8732 35.8269C38.441 35.8269 33.2266 41.0413 33.2266 47.4736C33.2266 53.9058 38.441 59.1202 44.8732 59.1202Z" fill="url(#paint0_linear_401_653)"/>
<path d="M20.3135 34L26.5669 41.4067C26.6813 41.5412 26.8213 41.6517 26.9788 41.7317C27.1363 41.8117 27.3081 41.8596 27.4842 41.8726C27.6604 41.8856 27.8374 41.8635 28.0049 41.8076C28.1725 41.7516 28.3272 41.663 28.4602 41.5467C38.5868 32.4667 51.1268 32.4667 61.2802 41.5467C61.4132 41.663 61.5679 41.7516 61.7354 41.8076C61.903 41.8635 62.08 41.8856 62.2562 41.8726C62.4323 41.8596 62.6041 41.8117 62.7616 41.7317C62.9191 41.6517 63.0591 41.5412 63.1735 41.4067L69.4335 34C69.6606 33.7308 69.7718 33.3827 69.7431 33.0317C69.7144 32.6808 69.548 32.3554 69.2802 32.1267C54.5802 19.2667 35.1602 19.2667 20.4669 32.1267C20.1991 32.3554 20.0327 32.6808 20.004 33.0317C19.9752 33.3827 20.0865 33.7308 20.3135 34Z" fill="#2684FF"/>
</g>
<g clipPath="url(#clip1_401_653)">
<path d="M115.042 45.2823C112.925 45.2823 111.942 44.8656 111.091 44.4319V42.9016C112.108 43.4357 113.675 43.8182 115.124 43.8182C116.773 43.8182 117.396 43.1686 117.396 42.2008C117.396 41.233 116.796 40.7179 114.713 40.2179C112.25 39.6175 111.146 38.7671 111.146 36.9679C111.146 35.2633 112.445 34.002 114.997 34.002C116.58 34.002 117.597 34.3807 118.347 34.8012V36.3012C117.304 35.7268 116.128 35.4392 114.938 35.4679C113.504 35.4679 112.654 35.9679 112.654 36.9679C112.654 37.8675 113.355 38.3182 115.286 38.8012C117.603 39.3845 118.904 40.127 118.904 42.1004C118.892 44.0001 117.758 45.2823 115.042 45.2823Z" fill="#253858"/>
<path d="M123.958 43.7159C124.261 43.7069 124.563 43.6676 124.858 43.5985V44.9849C124.544 45.0746 124.219 45.1193 123.892 45.1175C122.108 45.1175 121.241 44.0682 121.241 42.5171V38.1175H119.894V36.7917H121.244V35.0171H122.644V36.7841H124.86V38.1099H122.644V42.483C122.642 43.2159 123.076 43.7159 123.958 43.7159Z" fill="#253858"/>
<path d="M132.015 43.6157C131.481 44.7161 130.481 45.2824 129.199 45.2824C126.983 45.2824 125.866 43.3998 125.866 40.9491C125.866 38.5987 127.032 36.6157 129.366 36.6157C130.582 36.6157 131.515 37.165 132.017 38.2483V36.7843H133.451V45.1176H132.015V43.6157ZM129.582 43.9491C130.866 43.9491 132.015 43.1328 132.015 41.2824V40.6157C132.015 38.7653 130.966 37.9491 129.743 37.9491C128.125 37.9491 127.292 39.0153 127.292 40.9491C127.292 42.9491 128.091 43.9491 129.576 43.9491H129.582Z" fill="#253858"/>
<path d="M138.909 43.7159C139.213 43.7069 139.514 43.6676 139.809 43.5985V44.9849C139.495 45.0746 139.17 45.1193 138.843 45.1175C137.059 45.1175 136.192 44.0682 136.192 42.5171V38.1175H134.841V36.7917H136.192V35.0171H137.591V36.7841H139.807V38.1099H137.591V42.483C137.591 43.2159 138.025 43.7159 138.909 43.7159Z" fill="#253858"/>
<path d="M141.476 36.7842H142.909V41.8164C142.909 43.3164 143.51 43.983 144.875 43.983C146.201 43.983 147.125 43.1005 147.125 41.4168V36.7842H148.559V45.1175H147.125V43.7501C146.87 44.2232 146.489 44.6167 146.025 44.8874C145.56 45.158 145.03 45.2953 144.493 45.2842C142.576 45.2842 141.476 43.9584 141.476 41.6667V36.7842Z" fill="#253858"/>
<path d="M153.341 45.2822C152.34 45.3054 151.347 45.094 150.442 44.6648V43.1496C151.354 43.6561 152.374 43.9361 153.417 43.9659C154.517 43.9659 155.084 43.5152 155.084 42.8656C155.084 42.2159 154.601 41.8656 153.017 41.483C151.167 41.0322 150.385 40.3163 150.385 38.9489C150.385 37.4981 151.502 36.6156 153.402 36.6156C154.326 36.606 155.239 36.8129 156.068 37.2197V38.7027C155.068 38.2027 154.252 37.9451 153.37 37.9451C152.32 37.9451 151.752 38.3125 151.752 38.9621C151.752 39.5455 152.152 39.9091 153.686 40.2879C155.536 40.7387 156.47 41.4243 156.47 42.8712C156.476 44.2273 155.576 45.2822 153.341 45.2822Z" fill="#253858"/>
<path d="M159.559 43.6591V48.375H158.125V36.7841H159.559V38.2841C160.093 37.1837 161.093 36.6174 162.375 36.6174C164.591 36.6174 165.708 38.5 165.708 40.9508C165.708 43.3011 164.542 45.2841 162.208 45.2841C160.992 45.2822 160.059 44.733 159.559 43.6591ZM161.992 37.9602C160.708 37.9602 159.559 38.7765 159.559 40.6269V41.2936C159.559 43.1439 160.608 43.9602 161.831 43.9602C163.449 43.9602 164.282 42.8939 164.282 40.9602C164.275 38.9489 163.475 37.9508 161.991 37.9508L161.992 37.9602Z" fill="#253858"/>
<path d="M173.025 43.6157C172.491 44.7161 171.491 45.2824 170.208 45.2824C167.992 45.2824 166.875 43.3998 166.875 40.9491C166.875 38.5987 168.042 36.6157 170.375 36.6157C171.591 36.6157 172.525 37.165 173.027 38.2483V36.7843H174.46V45.1176H173.027L173.025 43.6157ZM170.591 43.9491C171.875 43.9491 173.025 43.1328 173.025 41.2824V40.6157C173.025 38.7653 171.975 37.9491 170.752 37.9491C169.134 37.9491 168.301 39.0153 168.301 40.9491C168.309 42.9491 169.108 43.9491 170.591 43.9491Z" fill="#253858"/>
<path d="M182.241 43.6157C181.706 44.7161 180.706 45.2824 179.424 45.2824C177.223 45.2824 176.125 43.3998 176.125 40.9491C176.125 38.5987 177.275 36.6157 179.591 36.6157C180.807 36.6157 181.741 37.165 182.242 38.2483V36.7843H183.642V44.36C183.642 46.8108 182.492 48.4604 179.509 48.4604C178.502 48.4916 177.496 48.3408 176.542 48.0153V46.6157C177.475 46.9368 178.454 47.1056 179.441 47.1157C181.525 47.1157 182.241 45.9983 182.241 44.4491V43.6157ZM179.807 43.9491C181.091 43.9491 182.241 43.1328 182.241 41.2824V40.6157C182.241 38.7653 181.191 37.9491 179.968 37.9491C178.35 37.9491 177.517 39.0153 177.517 40.9491C177.525 42.9491 178.324 43.9491 179.809 43.9491H179.807Z" fill="#253858"/>
<path d="M189.792 45.2822C186.675 45.2822 185.309 43.483 185.309 40.9262C185.309 38.4091 186.709 36.6099 189.243 36.6099C191.809 36.6099 192.841 38.394 192.841 40.9262V41.5758H186.75C186.951 42.9924 187.868 43.9091 189.834 43.9091C190.7 43.9129 191.56 43.7641 192.375 43.4697V44.7955C191.692 45.1496 190.641 45.2822 189.792 45.2822ZM186.743 40.358H191.391C191.307 38.8087 190.606 37.9243 189.175 37.9243C187.658 37.9167 186.892 38.8996 186.75 40.3504L186.743 40.358Z" fill="#253858"/>
<path d="M100.067 45.1138C101.894 45.1138 103.375 43.6324 103.375 41.805C103.375 39.9777 101.894 38.4963 100.067 38.4963C98.2392 38.4963 96.7578 39.9777 96.7578 41.805C96.7578 43.6324 98.2392 45.1138 100.067 45.1138Z" fill="url(#paint1_linear_401_653)"/>
<path d="M93.0892 37.9773L94.8657 40.0815C94.8982 40.1197 94.938 40.1511 94.9828 40.1738C95.0275 40.1966 95.0763 40.2102 95.1263 40.2139C95.1764 40.2176 95.2267 40.2113 95.2743 40.1954C95.3219 40.1795 95.3658 40.1543 95.4036 40.1213C98.2805 37.5417 101.843 37.5417 104.727 40.1213C104.765 40.1543 104.809 40.1795 104.857 40.1954C104.904 40.2113 104.955 40.2176 105.005 40.2139C105.055 40.2102 105.104 40.1966 105.148 40.1738C105.193 40.1511 105.233 40.1197 105.265 40.0815L107.044 37.9773C107.108 37.9009 107.14 37.802 107.132 37.7023C107.124 37.6025 107.076 37.5101 107 37.4451C102.824 33.7917 97.307 33.7917 93.1328 37.4451C93.0567 37.5101 93.0094 37.6025 93.0013 37.7023C92.9931 37.802 93.0247 37.9009 93.0892 37.9773Z" fill="#2684FF"/>
</g>
<defs>
<linearGradient id="paint0_linear_401_653" x1="44.8732" y1="55.1136" x2="44.8732" y2="34.4802" gradientUnits="userSpaceOnUse">
<stop stopColor="#2684FF"/>
<stop offset="0.82" stopColor="#0052CC"/>
</linearGradient>
<linearGradient id="paint1_linear_401_653" x1="100.067" y1="43.9755" x2="100.067" y2="38.1138" gradientUnits="userSpaceOnUse">
<stop stopColor="#2684FF"/>
<stop offset="0.82" stopColor="#0052CC"/>
</linearGradient>
<clipPath id="clip0_401_653">
<rect width="50" height="37.3333" fill="white" transform="translate(20 22)"/>
</clipPath>
<clipPath id="clip1_401_653">
<rect width="100" height="14.5833" fill="white" transform="translate(93 34)"/>
</clipPath>
</defs>
</svg>
