<svg width="250" height="82" viewBox="0 0 250 82" fill="none" xmlns="http://www.w3.org/2000/svg">
<g clipPath="url(#clip0_401_877)">
<path fillRule="evenodd" clipRule="evenodd" d="M63.5031 23.001L59.5392 26.3451H64.5765L43.3237 42.9945V47.8625L66.773 28.8169V32.9526L69.9932 30.2028V23.001H63.5031Z" fill="url(#paint0_linear_401_877)"/>
<path fillRule="evenodd" clipRule="evenodd" d="M63.4263 43.9423V56.3074H23.4051V29.686H47.8436L51.9211 26.4729H20.1846V59.5204H66.6468V41.4049L63.4269 43.9423" fill="url(#paint1_linear_401_877)"/>
<path fillRule="evenodd" clipRule="evenodd" d="M28.3267 34.7329L43.323 42.9951V47.8606L28.3267 38.0377V34.7327" fill="url(#paint2_linear_401_877)"/>
</g>
<g clipPath="url(#clip1_401_877)">
<path d="M172.362 44.2135C173.182 44.4755 173.558 44.6721 173.558 45.7041C173.558 46.867 173.149 47.0801 171.674 47.0801C170.888 47.0801 170.233 47.0638 168.087 47.0145L167.956 48.5216C169.594 48.8491 170.937 48.8819 171.625 48.8819C174.525 48.8819 175.639 48.2923 175.639 45.7203C175.639 44.066 175.098 43.0012 173.313 42.4279L171.134 41.7562C170.249 41.4777 169.873 41.2485 169.873 40.2493C169.873 39.037 170.381 38.9551 171.757 38.9551C172.87 38.9551 174.181 38.988 175.115 39.0207L175.245 37.5629C174.033 37.2516 172.772 37.186 171.691 37.186C168.988 37.186 167.809 37.6283 167.809 40.2166C167.809 41.9038 168.415 42.952 170.086 43.4927L172.362 44.2135Z" fill="#242322"/>
<path d="M178.372 44.1149C178.421 42.4277 178.88 42.0018 180.256 42.0018C181.484 42.0018 181.845 42.3294 181.845 43.1812C181.845 43.607 181.763 44.1149 181.124 44.1149H178.372ZM181.681 45.5072C183.172 45.5072 183.827 44.6554 183.827 43.2139C183.827 41.3956 182.778 40.4292 180.174 40.4292C177.455 40.4292 176.292 41.4775 176.292 44.6554C176.292 47.7023 177.389 48.8817 180.305 48.8817C181.32 48.8817 182.762 48.7507 183.614 48.3409L183.434 47.0634C182.467 47.178 181.32 47.2599 180.551 47.2599C179.175 47.2599 178.569 46.9652 178.405 45.5072H181.681Z" fill="#242322"/>
<path d="M186.481 40.6588H184.81V48.6853H186.808V43.0993C187.906 42.4769 188.643 42.1165 189.446 42.1165C190.085 42.1165 190.298 42.3622 190.298 43.2631V48.6851H192.296V42.6567C192.296 41.2153 191.51 40.429 190.085 40.429C188.922 40.429 187.759 40.9695 186.612 41.8377L186.481 40.6584" fill="#242322"/>
<path d="M198.979 46.3591C198.095 46.9489 197.669 47.1946 196.866 47.1946C195.801 47.1946 195.359 46.7196 195.359 44.6063C195.359 42.4441 195.801 42.0509 196.981 42.0509C197.702 42.0509 198.258 42.1984 198.979 42.3785V46.3591ZM200.978 37.2188H198.979V39.5285C198.979 40.0855 198.996 40.6096 199.061 41.1339C198.275 40.6424 197.341 40.4294 196.391 40.4294C194.36 40.4294 193.312 41.4287 193.312 44.6231C193.312 47.342 194.098 48.8818 196.129 48.8818C197.439 48.8818 198.52 48.2593 199.241 47.5876L199.405 48.6854H200.978V37.2188" fill="#242322"/>
<path d="M204.105 44.1149C204.154 42.4277 204.613 42.0018 205.989 42.0018C207.217 42.0018 207.577 42.3294 207.577 43.1812C207.577 43.607 207.495 44.1149 206.857 44.1149H204.105ZM207.414 45.5072C208.904 45.5072 209.56 44.6554 209.56 43.2139C209.56 41.3956 208.511 40.4292 205.907 40.4292C203.188 40.4292 202.024 41.4775 202.024 44.6554C202.024 47.7023 203.122 48.8817 206.038 48.8817C207.053 48.8817 208.495 48.7507 209.347 48.3409L209.166 47.0634C208.2 47.178 207.053 47.2599 206.283 47.2599C204.907 47.2599 204.301 46.9652 204.137 45.5072H207.414Z" fill="#242322"/>
<path d="M215.98 40.4294H215.587C214.538 40.4294 213.375 40.9373 212.278 41.8382L212.098 40.6588H210.542V48.6852H212.54V43.0174C213.686 42.5588 214.424 42.2965 215.194 42.2965H215.767L215.98 40.4292" fill="#242322"/>
<path fillRule="evenodd" clipRule="evenodd" d="M150.577 26.0007L147.413 28.6701H151.434L134.469 41.9599V45.8457L153.187 30.6431V33.9443L155.757 31.7493V26.0007H150.577Z" fill="url(#paint3_linear_401_877)"/>
<path fillRule="evenodd" clipRule="evenodd" d="M150.515 42.7167V52.5867H118.57V31.3369H138.077L141.332 28.7722H115.999V55.1514H153.086V40.6912L150.516 42.7167" fill="url(#paint4_linear_401_877)"/>
<path fillRule="evenodd" clipRule="evenodd" d="M122.498 35.3654L134.468 41.9605V45.8442L122.498 38.0034V35.3652" fill="url(#paint5_linear_401_877)"/>
</g>
<defs>
<linearGradient id="paint0_linear_401_877" x1="70.0161" y1="23.0233" x2="44.2496" y2="48.7897" gradientUnits="userSpaceOnUse">
<stop stopColor="#F57724"/>
<stop offset="1" stopColor="#ED1E24"/>
</linearGradient>
<linearGradient id="paint1_linear_401_877" x1="55.9321" y1="30.4802" x2="23.5389" y2="62.8736" gradientUnits="userSpaceOnUse">
<stop stopColor="#F57724"/>
<stop offset="1" stopColor="#ED1E24"/>
</linearGradient>
<linearGradient id="paint2_linear_401_877" x1="38.7251" y1="38.3978" x2="33.7055" y2="43.4174" gradientUnits="userSpaceOnUse">
<stop stopColor="#F57724"/>
<stop offset="1" stopColor="#ED1E24"/>
</linearGradient>
<linearGradient id="paint3_linear_401_877" x1="155.776" y1="26.0185" x2="135.208" y2="46.5858" gradientUnits="userSpaceOnUse">
<stop stopColor="#F57724"/>
<stop offset="1" stopColor="#ED1E24"/>
</linearGradient>
<linearGradient id="paint4_linear_401_877" x1="144.533" y1="31.971" x2="118.677" y2="57.8279" gradientUnits="userSpaceOnUse">
<stop stopColor="#F57724"/>
<stop offset="1" stopColor="#ED1E24"/>
</linearGradient>
<linearGradient id="paint5_linear_401_877" x1="130.798" y1="38.2908" x2="126.792" y2="42.2976" gradientUnits="userSpaceOnUse">
<stop stopColor="#F57724"/>
<stop offset="1" stopColor="#ED1E24"/>
</linearGradient>
<clipPath id="clip0_401_877">
<rect width="50" height="36.6171" fill="white" transform="translate(20 23)"/>
</clipPath>
<clipPath id="clip1_401_877">
<rect width="100" height="29.2285" fill="white" transform="translate(116 26)"/>
</clipPath>
</defs>
</svg>
