<svg width="250" height="82" viewBox="0 0 250 82" fill="none" xmlns="http://www.w3.org/2000/svg">
<g clip-path="url(#clip0_401_963)">
<path d="M45 66C58.8073 66 70 54.8073 70 41C70 27.1929 58.8073 16 45 16C31.1929 16 20 27.1929 20 41C20 54.8073 31.1929 66 45 66Z" fill="#1D1D1B"/>
<path d="M35.624 53.5033H42.7611V44.5482H44.4368L49.5114 53.5033H57.0623L51.0853 43.1574C53.7108 42.1398 55.5969 40.152 55.5969 36.5835V36.441C55.5969 31.1628 51.9605 28.5034 45.4205 28.5034H35.624V53.5033ZM42.7611 39.901V33.8901H45.1016C47.4083 33.8901 48.6702 34.6974 48.6702 36.7191V36.8616C48.6702 38.8901 47.4829 39.901 45.0677 39.901H42.7611Z" fill="white"/>
</g>
<g clip-path="url(#clip1_401_963)">
<path d="M95.0001 50.9201H100.684V43.7877H102.021L106.061 50.9201H112.079L107.315 42.6732C109.404 41.8653 110.909 40.2772 110.909 37.4354V37.3239C110.909 33.1169 108.011 30.9995 102.801 30.9995H95L95.0001 50.9201ZM100.684 40.0821V35.29H102.55C104.389 35.29 105.392 35.9308 105.392 37.5467V37.6582C105.392 39.2741 104.445 40.0821 102.523 40.0821H100.684Z" fill="black"/>
<path d="M120.406 51.2551C124.808 51.2551 127.343 49.3884 127.789 46.1008H123.108C122.913 47.076 122.217 47.8282 120.573 47.8282C118.79 47.8282 117.676 46.7138 117.536 44.7914H127.789V43.4819C127.789 38.244 124.362 35.9595 120.378 35.9595C115.976 35.9595 112.494 38.9127 112.494 43.5933V43.8162C112.494 48.5804 115.837 51.2551 120.406 51.2551ZM117.592 41.9774C117.843 40.2222 118.874 39.247 120.378 39.247C121.994 39.247 122.858 40.2222 122.941 41.9774H117.592Z" fill="black"/>
<path d="M135.772 51.2551C139.812 51.2551 142.375 49.6949 142.375 46.2401C142.375 43.1197 140.425 42.061 136.385 41.5595C134.602 41.3366 133.933 41.058 133.933 40.3615C133.933 39.6928 134.491 39.2192 135.577 39.2192C136.719 39.2192 137.249 39.6928 137.444 40.6679H141.957C141.623 37.1853 139.115 35.9595 135.521 35.9595C132.15 35.9595 129.281 37.5197 129.281 40.7515C129.281 43.7884 130.924 44.9307 134.825 45.4322C136.831 45.7108 137.527 46.0451 137.527 46.7416C137.527 47.466 136.97 47.9396 135.744 47.9396C134.323 47.9396 133.85 47.3546 133.683 46.2959H129.085C129.197 49.5277 131.621 51.2551 135.772 51.2551Z" fill="black"/>
<path d="M150.194 51.2549C151.364 51.2549 152.312 51.0041 152.952 50.837V47.0479C152.507 47.2151 152.089 47.2986 151.531 47.2986C150.584 47.2986 150.055 46.825 150.055 45.7663V39.7483H152.924V36.3493H150.055V33.3125H145.068V36.3493H143.312V39.7483H145.068V46.2399C145.068 49.6668 146.906 51.2549 150.194 51.2549Z" fill="black"/>
<path d="M155.228 50.92H160.215V44.0105C160.215 41.6701 161.887 40.7229 164.924 40.8065V36.1537C162.667 36.1258 161.135 37.0731 160.215 39.2462V36.3487H155.228V50.92Z" fill="black"/>
<path d="M174.141 51.2551C178.543 51.2551 181.078 49.3884 181.524 46.1008H176.843C176.648 47.076 175.952 47.8282 174.308 47.8282C172.525 47.8282 171.411 46.7138 171.271 44.7914H181.524V43.4819C181.524 38.244 178.097 35.9595 174.113 35.9595C169.711 35.9595 166.229 38.9127 166.229 43.5933V43.8162C166.229 48.5804 169.572 51.2551 174.141 51.2551ZM171.327 41.9774C171.578 40.2222 172.609 39.247 174.113 39.247C175.729 39.247 176.593 40.2222 176.676 41.9774H171.327Z" fill="black"/>
<path d="M187.892 51.2551C190.232 51.2551 191.514 50.28 192.21 49.2212V50.9208H197.058V41.4759C197.058 37.6032 194.495 35.9595 190.483 35.9595C186.499 35.9595 183.741 37.6869 183.518 41.1973H188.198C188.31 40.2779 188.811 39.4699 190.176 39.4699C191.764 39.4699 192.099 40.3893 192.099 41.7824V42.1167H190.706C185.858 42.1167 182.96 43.454 182.96 46.8809C182.96 49.9735 185.273 51.2551 187.892 51.2551ZM189.619 47.8839C188.449 47.8839 187.892 47.3546 187.892 46.5187C187.892 45.3207 188.783 44.9307 190.789 44.9307H192.099V45.8222C192.099 47.076 191.04 47.8839 189.619 47.8839Z" fill="black"/>
<path d="M199.9 50.92H204.887V42.4781C204.887 40.89 205.779 40.0263 207.116 40.0263C208.259 40.0263 208.983 40.7507 208.983 42.2274V50.92H213.914V42.4781C213.914 40.89 214.806 40.0263 216.143 40.0263C217.286 40.0263 218.01 40.7507 218.01 42.2274V50.92H222.997V41.3915C222.997 37.7418 220.991 35.9587 218.233 35.9587C216.394 35.9587 214.667 36.6831 213.413 38.3827C212.716 36.7946 211.379 35.9587 209.457 35.9587C207.2 35.9587 205.668 37.1845 204.887 38.5777V36.3488H199.9V50.92Z" fill="black"/>
</g>
<defs>
<clipPath id="clip0_401_963">
<rect width="50" height="50" fill="white" transform="translate(20 16)"/>
</clipPath>
<clipPath id="clip1_401_963">
<rect width="128" height="21" fill="white" transform="translate(95 31)"/>
</clipPath>
</defs>
</svg>
