<svg width="250" height="82" viewBox="0 0 250 82" fill="none" xmlns="http://www.w3.org/2000/svg">
<path d="M46.491 28.6406C46.6942 28.4384 46.9899 28.3466 47.2671 28.3466C47.5443 28.3466 47.8399 28.4384 48.0432 28.6406C48.2465 28.8426 48.3388 29.1366 48.3388 29.4122C48.3388 29.7062 48.2465 29.9817 48.0432 30.1839C47.8399 30.3859 47.5443 30.4778 47.2671 30.4778C46.9899 30.4778 46.6942 30.3859 46.491 30.1839C46.2877 29.9817 46.1953 29.6877 46.1953 29.4122C46.1953 29.1366 46.2877 28.8426 46.491 28.6406ZM52.6998 38.1758C52.6628 37.349 52.4226 36.4672 51.7943 35.8792C51.0921 35.2363 50.0758 34.9239 49.1334 34.9239H44.9203C44.4953 34.9239 44.1442 34.6115 44.1442 34.2258C44.1442 33.895 44.366 33.6378 44.6616 33.546C44.6616 33.546 44.7356 33.5276 44.8094 33.5092C45.5671 33.8767 46.4171 34.0237 47.2671 34.0237C48.5606 34.0237 49.8725 33.6378 50.8334 32.7559C51.7574 31.8924 52.2008 30.6799 52.2008 29.4489C52.2008 28.218 51.7574 27.0054 50.8334 26.1419C50.5562 25.8847 50.2606 25.6826 49.928 25.4989C50.815 25.701 51.7388 25.4438 52.3857 24.3598L50.5932 23.0737L49.0965 25.1498C48.5051 24.9661 47.8953 24.8742 47.2671 24.8742C45.9736 24.8742 44.6616 25.26 43.7008 26.1419C42.7768 27.0054 42.3333 28.218 42.3333 29.4489C42.3333 30.6799 42.7583 31.8924 43.7008 32.7559C43.7746 32.8294 43.867 32.9029 43.9594 32.9764C43.867 33.0315 43.7931 33.0683 43.7931 33.0683C43.442 33.252 43.0355 33.5643 42.6105 34.0052C42.0192 34.6299 41.4279 35.5669 41.4279 36.7979C41.4279 36.7979 41.354 39.4435 44.4029 39.4435H46.6203C47.1377 39.4435 47.6551 39.7742 47.6551 40.2702C47.6551 40.454 47.5997 40.6193 47.5073 40.7663H51.7574C52.3671 40.0865 52.7182 39.076 52.6998 38.1758Z" fill="#A876F5"/>
<path d="M57.2639 28.6407C57.4672 28.4386 57.7628 28.3468 58.04 28.3468C58.3172 28.3468 58.6129 28.4386 58.8161 28.6407C59.0193 28.8428 59.1117 29.1367 59.1117 29.4123C59.1117 29.7063 59.0193 29.9819 58.8161 30.184C58.6129 30.3861 58.3172 30.478 58.04 30.478C57.7628 30.478 57.4672 30.3861 57.2639 30.184C57.0606 29.9819 56.9682 29.688 56.9682 29.4123C56.9498 29.1367 57.0606 28.8428 57.2639 28.6407ZM64.7663 38.176C64.7293 37.3492 64.4888 36.4673 63.8607 35.8794C63.1583 35.2364 62.1423 34.924 61.1998 34.924L56.303 34.8873C55.9889 34.8873 55.7672 34.7036 55.7672 34.4096C55.7672 34.1708 55.878 33.8217 56.1737 33.7666C56.7465 33.9504 57.3748 34.0422 57.9846 34.0422C59.2781 34.0422 60.5901 33.6564 61.5507 32.7745C62.4748 31.911 62.9182 30.6984 62.9182 29.4675C62.9182 28.2365 62.4748 27.024 61.5507 26.1605C61.2737 25.9033 60.9781 25.7012 60.6456 25.5174C61.5323 25.7195 62.4564 25.4623 63.1029 24.3784L61.3106 23.0923L59.8139 25.1684C59.2226 24.9846 58.6129 24.8928 57.9846 24.8928C56.691 24.8928 55.3791 25.2786 54.4182 26.1605C53.4943 27.024 53.0508 28.2365 53.0508 29.4675C53.0508 30.6984 53.4943 31.911 54.4182 32.7745C54.6954 33.0317 54.991 33.2522 55.3237 33.4175C55.1019 33.5829 54.8802 33.785 54.6584 34.0238C54.0671 34.6485 53.4758 35.5855 53.4758 36.8164C53.4758 36.8164 53.4019 39.462 56.4508 39.462H58.6683C59.1857 39.462 59.703 39.7927 59.703 40.2888C59.703 40.4725 59.6476 40.6379 59.5552 40.7848H63.8053C64.4518 40.0867 64.8033 39.0762 64.7663 38.176Z" fill="#A876F5"/>
<path d="M69.903 36.8163V32.8479C68.9977 32.9582 68.6649 32.3151 68.6649 31.6904V22.0266H64.1377V32.407C64.1377 33.693 64.3224 34.777 64.8031 35.4568C65.5236 36.4857 66.5031 37.1654 68.4247 37.1654C68.7942 37.147 69.3857 37.0736 69.903 36.8163Z" fill="#A876F5"/>
<path d="M36.4941 32.003C36.2169 32.2786 35.8473 32.3888 35.4778 32.3888C35.1082 32.3888 34.7386 32.2786 34.4615 32.003C34.2027 31.7458 34.0734 31.3784 34.0734 30.9926C34.0734 30.6068 34.2027 30.2577 34.4615 29.9821C34.7386 29.7065 35.1082 29.5963 35.4778 29.5963C35.8473 29.5963 36.2169 29.7065 36.4941 29.9821C36.7527 30.2393 36.8821 30.6068 36.8821 30.9926C36.8821 31.3784 36.7527 31.7274 36.4941 32.003ZM39.8757 26.6199C38.7115 25.4257 37.1039 24.9297 35.5147 24.9297C33.9256 24.9297 32.318 25.4441 31.1538 26.6199C30.0082 27.7774 29.4907 29.3942 29.4907 31.0477C29.4907 32.7012 30.0266 34.3179 31.1538 35.4754C32.318 36.6696 33.9256 37.1656 35.5147 37.1656C37.1039 37.1656 38.7115 36.6512 39.8757 35.4754C41.0213 34.3179 41.5387 32.7012 41.5387 31.0477C41.5387 29.3942 41.0028 27.7774 39.8757 26.6199Z" fill="#A876F5"/>
<path d="M27.8277 32.8663C27.0701 32.8663 26.756 32.6275 26.4788 32.2784C26.294 32.0395 26.2016 31.7088 26.2016 31.2679V29.2286H28.7332V25.5541H26.2201V22.0266H22.9864V23.3494C22.9864 24.8192 21.8592 25.995 20.4733 25.995C20.3624 25.995 20.2701 25.995 20.1592 25.9767V29.2286H21.8592V32.4988C21.8592 33.7849 22.0994 34.777 22.5614 35.4568C23.282 36.4857 24.0766 37.1654 26.0353 37.1654C27.1625 37.1654 28.1234 36.9082 28.7332 36.5591V32.7193C28.5114 32.8112 28.1973 32.8663 27.8277 32.8663Z" fill="#A876F5"/>
<path d="M26.4862 53.7156C26.9479 53.5135 27.3356 53.2196 27.6686 52.8522C27.983 52.4847 28.2415 52.0621 28.4074 51.5661C28.5739 51.0884 28.6665 50.5556 28.6665 49.9677C28.6665 49.3981 28.5739 48.8837 28.4074 48.3876C28.2415 47.8916 27.983 47.469 27.6686 47.1016C27.3543 46.7341 26.9479 46.4586 26.4862 46.2381C26.0239 46.036 25.5064 45.9258 24.8968 45.9258C24.3239 45.9258 23.7883 46.0176 23.3447 46.2197C22.8824 46.4218 22.4947 46.6974 22.1622 47.0465C21.8479 47.3956 21.5888 47.8181 21.4043 48.3141C21.2197 48.8103 21.1457 49.3614 21.1457 49.9493C21.1457 50.5556 21.2378 51.1067 21.4043 51.5845C21.5888 52.0805 21.8292 52.5031 22.1622 52.8522C22.4761 53.2012 22.8824 53.4768 23.3447 53.6789C23.8064 53.881 24.3239 53.9728 24.8968 53.9728C25.5064 54.0096 26.0239 53.9177 26.4862 53.7156ZM20.0181 45.0806H21.2197V47.2302C21.367 46.9363 21.5521 46.6423 21.7739 46.3483C21.9957 46.0543 22.2729 45.7972 22.6053 45.5767C22.9191 45.3562 23.2894 45.1725 23.7144 45.0439C24.1207 44.9153 24.6011 44.8418 25.1 44.8418C25.8207 44.8418 26.4862 44.9704 27.0771 45.2276C27.6686 45.4848 28.1676 45.8523 28.5926 46.3116C28.9989 46.7709 29.3319 47.3221 29.5532 47.9467C29.775 48.5714 29.8856 49.2512 29.8856 49.9861C29.8856 50.7209 29.775 51.4007 29.5532 52.0254C29.3319 52.65 29.0176 53.2012 28.5926 53.6605C28.1862 54.1198 27.6686 54.4873 27.0771 54.7445C26.4862 55.0017 25.8207 55.1303 25.1 55.1303C24.5824 55.1303 24.1207 55.0568 23.7144 54.9282C23.308 54.7996 22.9378 54.6159 22.6239 54.3954C22.3096 54.1749 22.0324 53.9177 21.7926 53.6238C21.5521 53.3298 21.3489 53.0358 21.2011 52.7419V58.8048H20V45.0806H20.0181Z" fill="#A876F5"/>
<path d="M33.2119 41.1489H31.9741V54.9098H33.2119V41.1489Z" fill="#A876F5"/>
<path d="M38.497 50.28C37.7395 50.3535 37.2033 50.574 36.8895 50.923C36.5752 51.2721 36.4092 51.6763 36.4092 52.1356C36.4092 52.7051 36.5938 53.1461 36.9635 53.4768C37.3326 53.8075 37.8874 53.9728 38.6076 53.9728C39.1624 53.9728 39.6613 53.881 40.0863 53.6972C40.5113 53.5135 40.881 53.2563 41.1762 52.944C41.472 52.6316 41.6938 52.2826 41.8416 51.8967C41.9895 51.5109 42.0635 51.1067 42.0635 50.7026V49.8942L38.497 50.28ZM35.9283 46.2748C36.1129 45.9809 36.372 45.742 36.6863 45.5216C37.0002 45.3011 37.3885 45.1357 37.8321 45.0255C38.2752 44.9153 38.8113 44.8418 39.4395 44.8418C40.7518 44.8418 41.7305 45.1357 42.3592 45.742C42.9874 46.3483 43.3012 47.2486 43.3012 48.4612V54.9098H42.1007V52.797C41.8044 53.5503 41.3241 54.1198 40.6959 54.5056C40.0491 54.8915 39.3289 55.0935 38.497 55.0935C37.9613 55.0935 37.4805 55.0201 37.0555 54.8731C36.6491 54.7261 36.298 54.524 36.0209 54.2484C35.7438 53.9912 35.5406 53.6789 35.3927 53.3114C35.2448 52.944 35.1709 52.5582 35.1709 52.1356C35.1709 51.217 35.4666 50.5188 36.0762 50.0412C36.6677 49.5635 37.4252 49.2695 38.331 49.1776L41.6198 48.8654C41.9523 48.8286 42.1188 48.6816 42.1188 48.4612V48.1121C42.1188 47.4507 41.9156 46.9179 41.5092 46.5321C41.1028 46.1462 40.4369 45.9441 39.5135 45.9441C37.8321 45.9441 36.8709 46.5688 36.6124 47.7998L35.5406 47.2302C35.6145 46.8628 35.7438 46.5504 35.9283 46.2748Z" fill="#A876F5"/>
<path d="M47.8474 45.5032C48.457 45.0623 49.1958 44.8418 50.083 44.8418C51.3394 44.8418 52.282 45.246 52.8916 46.036C53.5011 46.826 53.8155 47.8732 53.8155 49.1776V54.9098H52.5777V49.0858C52.5777 48.1121 52.3373 47.3404 51.857 46.7893C51.3767 46.2381 50.7112 45.9625 49.8426 45.9625C49.2144 45.9625 48.6788 46.0728 48.2538 46.3116C47.8288 46.5504 47.4772 46.8628 47.2187 47.267C46.9602 47.6712 46.7756 48.1488 46.6644 48.6632C46.5538 49.1961 46.4985 49.7472 46.4985 50.3351V54.8731H45.2969V45.0806H46.4612V47.267C46.7756 46.5321 47.2373 45.9441 47.8474 45.5032Z" fill="#A876F5"/>
<g clip-path="url(#clip0_401_406)">
<path d="M144.822 37.4756C145.051 37.2481 145.384 37.1446 145.696 37.1446C146.008 37.1446 146.341 37.2481 146.569 37.4756C146.798 37.7031 146.902 38.034 146.902 38.3442C146.902 38.6752 146.798 38.9854 146.569 39.213C146.341 39.4404 146.008 39.5439 145.696 39.5439C145.384 39.5439 145.051 39.4404 144.822 39.213C144.593 38.9854 144.489 38.6545 144.489 38.3442C144.489 38.034 144.593 37.7031 144.822 37.4756ZM151.812 48.2098C151.77 47.2791 151.499 46.2864 150.792 45.6245C150.002 44.9007 148.858 44.549 147.797 44.549H143.054C142.575 44.549 142.18 44.1974 142.18 43.7631C142.18 43.3908 142.43 43.1012 142.763 42.9979C142.763 42.9979 142.846 42.9772 142.929 42.9565C143.782 43.3701 144.739 43.5356 145.696 43.5356C147.152 43.5356 148.629 43.1012 149.711 42.1085C150.751 41.1364 151.25 39.7713 151.25 38.3856C151.25 36.9999 150.751 35.6348 149.711 34.6628C149.398 34.3732 149.066 34.1457 148.691 33.9389C149.69 34.1664 150.73 33.8768 151.458 32.6565L149.44 31.2087L147.755 33.5459C147.089 33.3391 146.403 33.2356 145.696 33.2356C144.24 33.2356 142.763 33.67 141.681 34.6628C140.641 35.6348 140.142 36.9999 140.142 38.3856C140.142 39.7713 140.62 41.1364 141.681 42.1085C141.764 42.1912 141.868 42.2739 141.972 42.3567C141.868 42.4187 141.785 42.4601 141.785 42.4601C141.39 42.6669 140.932 43.0185 140.454 43.5149C139.788 44.2181 139.122 45.2729 139.122 46.6587C139.122 46.6587 139.039 49.637 142.471 49.637H144.968C145.55 49.637 146.133 50.0093 146.133 50.5676C146.133 50.7745 146.07 50.9606 145.966 51.1261H150.751C151.437 50.3609 151.832 49.2233 151.812 48.2098Z" fill="#A876F5"/>
<path d="M156.95 37.4759C157.179 37.2484 157.512 37.145 157.824 37.145C158.136 37.145 158.469 37.2484 158.697 37.4759C158.926 37.7034 159.03 38.0343 159.03 38.3445C159.03 38.6755 158.926 38.9857 158.697 39.2133C158.469 39.4407 158.136 39.5442 157.824 39.5442C157.512 39.5442 157.179 39.4407 156.95 39.2133C156.721 38.9857 156.617 38.6548 156.617 38.3445C156.596 38.0343 156.721 37.7034 156.95 37.4759ZM165.396 48.2101C165.354 47.2794 165.083 46.2867 164.376 45.6248C163.586 44.901 162.442 44.5493 161.381 44.5493L155.868 44.508C155.515 44.508 155.265 44.3012 155.265 43.9702C155.265 43.7013 155.39 43.3084 155.723 43.2463C156.368 43.4532 157.075 43.5566 157.761 43.5566C159.217 43.5566 160.694 43.1222 161.776 42.1295C162.816 41.1574 163.315 39.7923 163.315 38.4066C163.315 37.0209 162.816 35.6558 161.776 34.6837C161.464 34.3942 161.131 34.1667 160.757 33.9598C161.755 34.1874 162.795 33.8978 163.523 32.6775L161.506 31.2297L159.821 33.5669C159.155 33.36 158.469 33.2566 157.761 33.2566C156.305 33.2566 154.828 33.691 153.746 34.6837C152.706 35.6558 152.207 37.0209 152.207 38.4066C152.207 39.7923 152.706 41.1574 153.746 42.1295C154.058 42.419 154.391 42.6672 154.766 42.8534C154.516 43.0395 154.266 43.267 154.017 43.5359C153.351 44.2391 152.686 45.2939 152.686 46.6797C152.686 46.6797 152.602 49.6579 156.035 49.6579H158.531C159.113 49.6579 159.696 50.0302 159.696 50.5887C159.696 50.7955 159.633 50.9816 159.529 51.1471H164.314C165.042 50.3612 165.437 49.2236 165.396 48.2101Z" fill="#A876F5"/>
<path d="M171.178 46.6793V42.2118C170.159 42.3359 169.784 41.6121 169.784 40.9088V30.0298H164.688V41.7155C164.688 43.1633 164.896 44.3836 165.437 45.1488C166.248 46.307 167.351 47.0722 169.514 47.0722C169.93 47.0516 170.596 46.9689 171.178 46.6793Z" fill="#A876F5"/>
<path d="M133.568 41.2609C133.256 41.5711 132.84 41.6952 132.424 41.6952C132.008 41.6952 131.592 41.5711 131.28 41.2609C130.989 40.9713 130.843 40.5577 130.843 40.1234C130.843 39.689 130.989 39.2961 131.28 38.9858C131.592 38.6756 132.008 38.5515 132.424 38.5515C132.84 38.5515 133.256 38.6756 133.568 38.9858C133.859 39.2754 134.005 39.689 134.005 40.1234C134.005 40.5577 133.859 40.9507 133.568 41.2609ZM137.375 35.2009C136.064 33.8565 134.255 33.2981 132.466 33.2981C130.677 33.2981 128.867 33.8772 127.556 35.2009C126.267 36.5039 125.684 38.324 125.684 40.1855C125.684 42.0468 126.287 43.8669 127.556 45.1699C128.867 46.5143 130.677 47.0727 132.466 47.0727C134.255 47.0727 136.064 46.4936 137.375 45.1699C138.665 43.8669 139.247 42.0468 139.247 40.1855C139.247 38.324 138.644 36.5039 137.375 35.2009Z" fill="#A876F5"/>
<path d="M183.826 45.0871C184.346 44.8596 184.782 44.5287 185.157 44.1151C185.511 43.7014 185.802 43.2257 185.989 42.6673C186.177 42.1295 186.281 41.5297 186.281 40.8679C186.281 40.2267 186.177 39.6476 185.989 39.0891C185.802 38.5307 185.511 38.055 185.157 37.6414C184.803 37.2277 184.346 36.9175 183.826 36.6693C183.306 36.4418 182.723 36.3177 182.037 36.3177C181.392 36.3177 180.789 36.4211 180.29 36.6486C179.769 36.8761 179.333 37.1863 178.959 37.5793C178.605 37.9723 178.313 38.448 178.105 39.0064C177.897 39.5649 177.814 40.1853 177.814 40.8472C177.814 41.5297 177.918 42.1502 178.105 42.688C178.313 43.2463 178.584 43.7221 178.959 44.1151C179.312 44.508 179.769 44.8183 180.29 45.0457C180.809 45.2733 181.392 45.3766 182.037 45.3766C182.723 45.4181 183.306 45.3146 183.826 45.0871ZM176.545 35.3663H177.897V37.7862C178.063 37.4553 178.272 37.1244 178.521 36.7933C178.771 36.4624 179.083 36.1729 179.457 35.9247C179.811 35.6765 180.227 35.4697 180.706 35.3249C181.163 35.1802 181.704 35.0974 182.266 35.0974C183.077 35.0974 183.826 35.2422 184.491 35.5318C185.157 35.8213 185.719 36.235 186.197 36.752C186.655 37.2691 187.03 37.8896 187.279 38.5928C187.529 39.296 187.653 40.0612 187.653 40.8886C187.653 41.7159 187.529 42.4811 187.279 43.1843C187.03 43.8875 186.676 44.508 186.197 45.0251C185.74 45.5421 185.157 45.9558 184.491 46.2454C183.826 46.5349 183.077 46.6797 182.266 46.6797C181.683 46.6797 181.163 46.5969 180.706 46.4521C180.248 46.3074 179.832 46.1006 179.478 45.8524C179.124 45.6042 178.812 45.3146 178.542 44.9837C178.272 44.6528 178.043 44.3218 177.877 43.9909V50.8162H176.524V35.3663H176.545Z" fill="#A876F5"/>
<path d="M191.398 30.9402H190.004V46.4315H191.398V30.9402Z" fill="#A876F5"/>
<path d="M197.347 41.2194C196.495 41.3022 195.891 41.5504 195.538 41.9433C195.184 42.3363 194.997 42.7913 194.997 43.3084C194.997 43.9496 195.205 44.446 195.621 44.8182C196.037 45.1905 196.661 45.3766 197.472 45.3766C198.096 45.3766 198.658 45.2733 199.137 45.0664C199.615 44.8596 200.031 44.57 200.364 44.2184C200.696 43.8668 200.946 43.4739 201.113 43.0395C201.279 42.6052 201.362 42.1502 201.362 41.6952V40.7851L197.347 41.2194ZM194.456 36.7106C194.664 36.3797 194.955 36.1108 195.309 35.8627C195.662 35.6145 196.099 35.4283 196.599 35.3042C197.098 35.1802 197.701 35.0974 198.408 35.0974C199.886 35.0974 200.987 35.4283 201.695 36.1108C202.402 36.7933 202.756 37.8069 202.756 39.1719V46.4315H201.404V44.053C201.071 44.9009 200.53 45.5421 199.823 45.9765C199.095 46.4108 198.284 46.6383 197.347 46.6383C196.744 46.6383 196.203 46.5556 195.725 46.3901C195.267 46.2247 194.872 45.9971 194.56 45.6869C194.248 45.3974 194.019 45.0457 193.853 44.6321C193.686 44.2184 193.603 43.7841 193.603 43.3084C193.603 42.2742 193.936 41.4883 194.622 40.9506C195.288 40.4129 196.141 40.0819 197.161 39.9785L200.863 39.6269C201.237 39.5856 201.425 39.4201 201.425 39.1719V38.7789C201.425 38.0344 201.196 37.4345 200.738 37.0002C200.281 36.5659 199.531 36.3384 198.492 36.3384C196.599 36.3384 195.517 37.0416 195.226 38.4274L194.019 37.7862C194.102 37.3725 194.248 37.0209 194.456 36.7106Z" fill="#A876F5"/>
<path d="M207.874 35.842C208.56 35.3456 209.392 35.0974 210.39 35.0974C211.805 35.0974 212.866 35.5524 213.552 36.4418C214.238 37.3311 214.592 38.51 214.592 39.9785V46.4315H213.199V39.8751C213.199 38.7789 212.928 37.9102 212.387 37.2898C211.847 36.6693 211.098 36.3591 210.12 36.3591C209.413 36.3591 208.81 36.4832 208.331 36.752C207.853 37.0209 207.457 37.3725 207.166 37.8275C206.875 38.2826 206.667 38.8203 206.542 39.3994C206.417 39.9992 206.355 40.6197 206.355 41.2815V46.3902H205.002V35.3663H206.313V37.8275C206.667 37.0002 207.187 36.3384 207.874 35.842Z" fill="#A876F5"/>
<path d="M123.812 42.2325C122.959 42.2325 122.606 41.9637 122.293 41.5707C122.085 41.3018 121.981 40.9295 121.981 40.4331V38.1374H124.831V34.0008H122.002V30.0298H118.362V31.5189C118.362 33.1735 117.093 34.4972 115.533 34.4972C115.408 34.4972 115.304 34.4972 115.179 34.4766V38.1374H117.093V41.8189C117.093 43.2667 117.363 44.3836 117.883 45.1488C118.695 46.307 119.589 47.0722 121.794 47.0722C123.063 47.0722 124.145 46.7827 124.831 46.3897V42.067C124.582 42.1705 124.228 42.2325 123.812 42.2325Z" fill="#A876F5"/>
</g>
<defs>
<clipPath id="clip0_401_406">
<rect width="100" height="21.5569" fill="white" transform="translate(115 30)"/>
</clipPath>
</defs>
</svg>
