<svg width="250" height="82" viewBox="0 0 250 82" fill="none" xmlns="http://www.w3.org/2000/svg">
<path d="M36.3737 40.5579L52.7474 56.6763H20L36.3737 40.5579Z" fill="#FF2638"/>
<path d="M20 24.4395L36.3737 40.5579L52.7474 24.4395H20Z" fill="#FFC600"/>
<path d="M36.3765 40.5579L52.7501 56.6763L69.1238 40.5579L52.7501 24.4395L36.3765 40.5579Z" fill="#0079F2"/>
<g clipPath="url(#clip0_401_1201)">
<path d="M112.41 41.3408L117.821 46.6669H107L112.41 41.3408Z" fill="#FF2638"/>
<path d="M107 36.0149L112.41 41.341L117.821 36.0149H107Z" fill="#FFC600"/>
<path d="M112.411 41.341L117.822 46.6671L123.232 41.341L117.822 36.0149L112.411 41.341Z" fill="#0079F2"/>
<path d="M204.915 38.5391C204.915 38.6165 204.808 38.6504 204.757 38.5913C204.362 38.1313 203.708 37.7826 202.813 37.7826C200.876 37.7826 199.775 39.3461 199.775 41.2391C199.775 43.12 200.876 44.6826 202.813 44.6826C203.72 44.6826 204.429 44.3652 204.869 43.8174C204.918 43.7565 205.029 43.7896 205.029 43.8678V44.453C205.029 44.4965 205.063 44.5313 205.106 44.5313H206.342C206.386 44.5313 206.421 44.4965 206.421 44.453V35.0783C206.421 35.0575 206.413 35.0376 206.398 35.0229C206.383 35.0082 206.363 35 206.342 35H204.992C204.971 35.0002 204.952 35.0086 204.937 35.0232C204.922 35.0379 204.915 35.0577 204.915 35.0783V38.5391ZM204.977 41.2391C204.977 42.4217 204.282 43.3487 203.129 43.3487C201.99 43.3487 201.282 42.4209 201.282 41.2391C201.282 40.0322 201.99 39.1174 203.129 39.1174C204.282 39.1174 204.977 40.0322 204.977 41.2391ZM199.4 37.9565C199.4 37.937 199.393 37.9182 199.379 37.9038C199.366 37.8895 199.348 37.8807 199.329 37.8791C199.281 37.8754 199.232 37.8731 199.184 37.8722C198.254 37.8722 197.712 38.2452 197.414 38.6104C197.363 38.6713 197.248 38.6383 197.248 38.5583V38.013C197.248 37.9924 197.24 37.9727 197.225 37.958C197.21 37.9434 197.191 37.935 197.17 37.9348H195.933C195.912 37.935 195.893 37.9434 195.878 37.958C195.863 37.9727 195.855 37.9924 195.855 38.013V44.453C195.855 44.4965 195.89 44.5313 195.933 44.5313H197.284C197.305 44.531 197.324 44.5227 197.339 44.5081C197.354 44.4934 197.362 44.4737 197.362 44.453V41.1C197.362 39.8287 197.995 39.2696 199.058 39.2696C199.149 39.2696 199.244 39.2783 199.31 39.2843C199.322 39.2856 199.333 39.2844 199.343 39.2811C199.354 39.2777 199.364 39.2722 199.372 39.2648C199.381 39.2575 199.388 39.2485 199.392 39.2384C199.397 39.2283 199.4 39.2173 199.4 39.2061V37.9565ZM193.022 41.4435C193.033 41.4419 193.044 41.4426 193.055 41.4458C193.066 41.4489 193.076 41.4544 193.084 41.4617C193.093 41.469 193.099 41.4781 193.104 41.4883C193.109 41.4985 193.111 41.5096 193.111 41.5209V41.8496C193.111 42.7391 192.516 43.5017 191.301 43.5017C190.579 43.5017 190.135 43.26 190.135 42.6374C190.135 42.18 190.44 41.8374 191.364 41.6965L193.022 41.4443V41.4435ZM190.997 44.6835C191.934 44.6835 192.638 44.4104 193.095 43.8748C193.144 43.8157 193.253 43.8487 193.256 43.927C193.275 44.3052 193.329 44.5304 193.339 44.5304H194.651C194.707 44.5304 194.746 44.473 194.729 44.42C194.637 44.1313 194.579 43.6635 194.579 43.2852V40.2478C194.579 38.7357 193.668 37.7826 191.744 37.7826C189.806 37.7826 189.012 38.7983 188.855 39.9209C188.854 39.9317 188.855 39.9426 188.859 39.953C188.862 39.9633 188.867 39.9729 188.875 39.981C188.882 39.9891 188.891 39.9956 188.901 40.0001C188.91 40.0046 188.921 40.0069 188.932 40.007H190.248C190.286 40.007 190.317 39.9791 190.326 39.9417C190.449 39.3704 190.913 39.0287 191.706 39.0287C192.604 39.0287 193.111 39.4348 193.111 40.2357V40.2696C193.111 40.2884 193.104 40.3065 193.092 40.3207C193.08 40.3349 193.063 40.3442 193.044 40.347L191.212 40.6043C189.478 40.8452 188.694 41.5696 188.694 42.6878C188.694 43.8183 189.364 44.6835 190.997 44.6835ZM184.707 44.6835C186.808 44.6835 188.124 43.0948 188.124 41.24C188.124 39.3843 186.808 37.7826 184.707 37.7826C182.618 37.7826 181.302 39.3843 181.302 41.2391C181.302 43.0948 182.618 44.6826 184.707 44.6826V44.6835ZM182.809 41.24C182.809 39.9557 183.618 39.1174 184.707 39.1174C185.809 39.1174 186.618 39.9557 186.618 41.2391C186.618 42.5104 185.809 43.3487 184.707 43.3487C183.618 43.3487 182.809 42.5104 182.809 41.2391V41.24ZM175.755 38.5913C175.705 38.6504 175.599 38.6165 175.599 38.5391V35.0783C175.599 35.0575 175.591 35.0376 175.576 35.0229C175.561 35.0082 175.541 35 175.521 35H174.17C174.149 35 174.13 35.0082 174.115 35.0229C174.1 35.0376 174.092 35.0575 174.092 35.0783V44.4522C174.092 44.4957 174.127 44.5304 174.17 44.5304H175.407C175.45 44.5304 175.485 44.4957 175.485 44.4522V43.8609C175.485 43.7826 175.593 43.7496 175.642 43.8104C176.091 44.3626 176.801 44.6835 177.7 44.6835C179.649 44.6835 180.75 43.12 180.75 41.24C180.75 39.3461 179.649 37.7826 177.7 37.7826C176.815 37.7826 176.154 38.1313 175.755 38.5913ZM175.548 41.2391C175.548 40.0322 176.243 39.1174 177.395 39.1174C178.535 39.1174 179.244 40.0322 179.244 41.2391C179.244 42.4217 178.535 43.3487 177.395 43.3487C176.244 43.3487 175.548 42.4209 175.548 41.2391ZM172.813 43.2878C172.813 43.2756 172.809 43.2636 172.804 43.2527C172.798 43.2418 172.791 43.2322 172.781 43.2247C172.771 43.2171 172.76 43.2118 172.748 43.209C172.736 43.2062 172.724 43.2061 172.712 43.2087C172.625 43.2261 172.491 43.2478 172.345 43.2478C171.826 43.2478 171.611 42.993 171.611 42.4722V39.22C171.611 39.1994 171.62 39.1797 171.634 39.1652C171.649 39.1507 171.669 39.1426 171.689 39.1426H172.761C172.804 39.1426 172.839 39.1078 172.839 39.0643V38.0148C172.839 37.994 172.831 37.9741 172.816 37.9594C172.801 37.9448 172.781 37.9365 172.761 37.9365H171.689C171.678 37.9365 171.668 37.9345 171.659 37.9306C171.649 37.9266 171.64 37.9209 171.633 37.9136C171.626 37.9063 171.62 37.8977 171.616 37.8882C171.612 37.8787 171.61 37.8685 171.61 37.8583V36.2991C171.61 36.2785 171.602 36.2587 171.588 36.2441C171.573 36.2294 171.553 36.2211 171.533 36.2209H170.182C170.162 36.2209 170.142 36.2291 170.127 36.2438C170.112 36.2585 170.104 36.2784 170.104 36.2991V37.8591C170.104 37.8694 170.102 37.8796 170.098 37.8891C170.094 37.8986 170.089 37.9072 170.081 37.9145C170.074 37.9217 170.065 37.9275 170.056 37.9314C170.046 37.9354 170.036 37.9374 170.026 37.9374H169.182C169.162 37.9374 169.142 37.9455 169.127 37.96C169.113 37.9745 169.104 37.9942 169.104 38.0148V39.0661C169.104 39.1096 169.139 39.1443 169.182 39.1443H170.026C170.069 39.1443 170.104 39.1791 170.104 39.2217V42.6261C170.104 43.8713 170.687 44.5704 172.029 44.5704C172.401 44.5704 172.649 44.5287 172.755 44.507C172.772 44.5033 172.787 44.4941 172.797 44.4807C172.808 44.4674 172.813 44.4509 172.813 44.4339V43.2878ZM162.189 41.2391C162.189 43.1452 163.53 44.6826 165.467 44.6826C167.368 44.6826 168.354 43.3904 168.566 42.2304C168.568 42.2195 168.567 42.2082 168.564 42.1975C168.561 42.1867 168.556 42.1768 168.549 42.1683C168.542 42.1598 168.533 42.153 168.523 42.1485C168.512 42.1439 168.501 42.1416 168.49 42.1417H167.097C167.08 42.1419 167.063 42.1478 167.049 42.1584C167.035 42.1691 167.025 42.184 167.021 42.2009C166.826 42.88 166.242 43.3487 165.454 43.3487C164.378 43.3487 163.695 42.4722 163.695 41.2391C163.695 39.9939 164.378 39.1174 165.454 39.1174C166.242 39.1174 166.826 39.5861 167.021 40.2652C167.03 40.3 167.062 40.3243 167.097 40.3243H168.49C168.501 40.3245 168.512 40.3222 168.523 40.3176C168.533 40.313 168.542 40.3063 168.549 40.2978C168.556 40.2893 168.561 40.2794 168.564 40.2686C168.567 40.2579 168.568 40.2466 168.566 40.2357C168.354 39.0757 167.368 37.7835 165.467 37.7835C163.53 37.7835 162.189 39.3209 162.189 41.2391ZM159.652 41.7348C159.652 42.8148 159.07 43.387 158.134 43.387C157.222 43.387 156.855 42.7896 156.855 41.8878V38.013C156.855 37.9923 156.847 37.9724 156.833 37.9577C156.818 37.943 156.798 37.9348 156.777 37.9348H155.427C155.406 37.9348 155.386 37.943 155.371 37.9577C155.357 37.9724 155.349 37.9923 155.349 38.013V42.0913C155.349 43.6287 156.172 44.6826 157.766 44.6826C158.651 44.6826 159.255 44.3496 159.594 43.9365C159.645 43.8739 159.767 43.9096 159.767 43.9904V44.453C159.767 44.4965 159.802 44.5313 159.845 44.5313H161.081C161.124 44.5313 161.159 44.4965 161.159 44.453V38.013C161.159 37.9923 161.151 37.9724 161.136 37.9577C161.121 37.943 161.101 37.9348 161.081 37.9348H159.73C159.709 37.9348 159.69 37.943 159.675 37.9577C159.66 37.9724 159.652 37.9923 159.652 38.013V41.7348ZM152.687 38.5391C152.687 38.6165 152.58 38.6504 152.529 38.5913C152.134 38.1313 151.48 37.7826 150.585 37.7826C148.649 37.7826 147.547 39.3461 147.547 41.2391C147.547 43.12 148.649 44.6826 150.585 44.6826C151.491 44.6826 152.2 44.3652 152.641 43.8174C152.69 43.7565 152.8 43.7896 152.8 43.8678V44.453C152.8 44.4965 152.835 44.5313 152.878 44.5313H154.115C154.158 44.5313 154.193 44.4965 154.193 44.453V35.0783C154.193 35.0575 154.185 35.0376 154.17 35.0229C154.155 35.0082 154.135 35 154.115 35H152.764C152.743 35 152.723 35.0082 152.709 35.0229C152.694 35.0376 152.686 35.0575 152.686 35.0783V38.5391H152.687ZM152.749 41.2391C152.749 42.4217 152.054 43.3487 150.902 43.3487C149.762 43.3487 149.053 42.4209 149.053 41.2391C149.053 40.0322 149.762 39.1174 150.902 39.1174C152.053 39.1174 152.749 40.0322 152.749 41.2391ZM143.522 44.6835C145.623 44.6835 146.939 43.0948 146.939 41.24C146.939 39.3835 145.624 37.7826 143.522 37.7826C141.434 37.7826 140.117 39.3843 140.117 41.2391C140.117 43.0948 141.434 44.6826 143.522 44.6826V44.6835ZM141.623 41.24C141.623 39.9557 142.433 39.1174 143.522 39.1174C144.623 39.1174 145.433 39.9557 145.433 41.2391C145.433 42.5104 144.623 43.3487 143.522 43.3487C142.433 43.3487 141.623 42.5104 141.623 41.2391V41.24ZM139.944 37.9565C139.944 37.937 139.937 37.9182 139.924 37.9038C139.91 37.8895 139.892 37.8807 139.873 37.8791C139.825 37.8754 139.777 37.8731 139.729 37.8722C138.799 37.8722 138.256 38.2452 137.958 38.6104C137.908 38.6713 137.793 38.6383 137.793 38.5583V38.013C137.793 37.9923 137.785 37.9724 137.77 37.9577C137.755 37.943 137.735 37.9348 137.715 37.9348H136.478C136.457 37.9348 136.437 37.943 136.423 37.9577C136.408 37.9724 136.4 37.9923 136.4 38.013V44.453C136.4 44.4965 136.435 44.5313 136.478 44.5313H137.829C137.872 44.5313 137.907 44.4965 137.907 44.453V41.1C137.907 39.8287 138.539 39.2696 139.602 39.2696C139.694 39.2696 139.789 39.2783 139.855 39.2843C139.866 39.2856 139.877 39.2844 139.888 39.2811C139.898 39.2777 139.908 39.2722 139.917 39.2648C139.925 39.2575 139.932 39.2485 139.937 39.2384C139.941 39.2283 139.944 39.2173 139.944 39.2061V37.9565ZM130.318 43.9322C130.318 43.8539 130.426 43.82 130.477 43.88C130.875 44.3452 131.536 44.6835 132.42 44.6835C134.369 44.6835 135.47 43.12 135.47 41.24C135.47 39.3461 134.369 37.7826 132.42 37.7826C131.52 37.7826 130.81 38.1139 130.361 38.6609C130.312 38.7209 130.204 38.687 130.204 38.6087V38.013C130.204 37.9923 130.196 37.9724 130.181 37.9577C130.167 37.943 130.147 37.9348 130.126 37.9348H128.89C128.869 37.9348 128.85 37.943 128.835 37.9577C128.82 37.9724 128.812 37.9923 128.812 38.013V47.0957C128.812 47.1391 128.847 47.1739 128.89 47.1739H130.241C130.284 47.1739 130.319 47.1391 130.319 47.0957V43.9322H130.318ZM130.268 41.2391C130.268 40.0191 130.963 39.0913 132.115 39.0913C133.255 39.0913 133.964 40.0191 133.964 41.2391C133.964 42.4217 133.255 43.3487 132.115 43.3487C130.964 43.3487 130.268 42.4209 130.268 41.2391Z" fill="#000C2C"/>
</g>
<defs>
<clipPath id="clip0_401_1201">
<rect width="100" height="12.1739" fill="white" transform="translate(107 35)"/>
</clipPath>
</defs>
</svg>
