<svg width="250" height="82" viewBox="0 0 250 82" fill="none" xmlns="http://www.w3.org/2000/svg">
<g clipPath="url(#clip0_401_671)">
<path d="M51.822 28.9426C50.8801 28.0005 49.3527 28.0005 48.4114 28.9426L33.0619 44.2923C31.1771 46.1755 28.1235 46.1755 26.24 44.2923C24.3547 42.4083 24.3547 39.3543 26.24 37.4693L41.2941 22.4158C39.4103 20.5314 36.3555 20.5314 34.4717 22.4158L22.8279 34.0593C19.0606 37.8273 19.0606 43.9353 22.8279 47.7037C26.5961 51.4719 32.7039 51.4719 36.4721 47.7037L51.822 32.3538C52.7633 31.4119 52.7633 29.8845 51.822 28.9426ZM56.9385 23.8264C53.1703 20.0579 47.0625 20.0579 43.2943 23.8264L27.9451 39.1754C27.0038 40.1167 27.0038 41.6451 27.9451 42.5866C28.8871 43.5285 30.4137 43.5285 31.3558 42.5866L46.7063 27.2376C48.5901 25.3533 51.6437 25.3533 53.5271 27.2376C54.47 28.179 55.9968 28.179 56.9387 27.2376C57.8806 26.2948 57.8806 24.7683 56.9387 23.8264H56.9385ZM62.0554 39.1754C61.1135 38.2345 59.5857 38.2345 58.6438 39.1754L43.2943 54.5249C41.4105 56.4087 38.3559 56.4087 36.4721 54.5249C35.5308 53.5836 34.0038 53.5836 33.0619 54.5249C32.1186 55.4672 32.1186 56.9946 33.0619 57.9355C36.8285 61.7037 42.9379 61.7037 46.7061 57.9355L62.0554 42.5866C62.9967 41.6453 62.9967 40.1169 62.0554 39.1754ZM67.1725 34.0595C63.4043 30.2919 57.2955 30.2919 53.5283 34.0595L38.1778 49.4094C37.2359 50.3503 37.2359 51.8787 38.1778 52.82C39.1203 53.7625 40.6477 53.7625 41.589 52.82L56.9385 37.4705C58.8217 35.5863 61.8769 35.5863 63.7603 37.4705C65.6441 39.3545 65.6441 42.4085 63.7603 44.2925L48.7063 59.3469C50.5901 61.2301 53.6433 61.2301 55.5287 59.3469L67.1725 47.7035C70.9397 43.9349 70.9397 37.8271 67.1725 34.0595Z" fill="#1A1918"/>
</g>
<g clipPath="url(#clip1_401_671)">
<path d="M101.698 41.6587L107.334 36.0287C107.715 35.65 108.23 35.4374 108.767 35.4374C109.304 35.4374 109.819 35.65 110.2 36.0287L110.638 36.4667L111.516 35.5887L111.078 35.1487C110.464 34.5358 109.632 34.1917 108.764 34.1917C107.896 34.1917 107.064 34.5358 106.45 35.1487L100.818 40.7807L101.698 41.6587Z" fill="black"/>
<path d="M109.222 37.8828L108.344 37.0048L102.706 42.6428C102.325 43.0234 101.809 43.2371 101.27 43.2369C100.732 43.2367 100.215 43.0227 99.8348 42.6418C99.4542 42.2609 99.2405 41.7445 99.2407 41.2061C99.2409 40.6677 99.455 40.1514 99.8358 39.7708L104.7 34.9068L103.822 34.0288L98.9578 38.8928C98.6482 39.1953 98.4016 39.5562 98.2324 39.9546C98.0633 40.353 97.9748 40.7811 97.9722 41.2139C97.9696 41.6467 98.053 42.0758 98.2174 42.4762C98.3818 42.8767 98.624 43.2405 98.93 43.5466C99.236 43.8527 99.5997 44.0951 100 44.2597C100.4 44.4243 100.829 44.5078 101.262 44.5054C101.695 44.503 102.123 44.4147 102.522 44.2458C102.92 44.0767 103.281 43.8303 103.584 43.5208L109.222 37.8828ZM114.834 38.8928C114.219 38.2804 113.387 37.9366 112.52 37.9366C111.652 37.9366 110.82 38.2804 110.206 38.8928L104.568 44.5308L105.446 45.4088L111.084 39.7708C111.368 39.4874 111.729 39.2944 112.123 39.2164C112.517 39.1384 112.925 39.1788 113.295 39.3324C113.666 39.4861 113.983 39.7461 114.206 40.0797C114.429 40.4133 114.548 40.8056 114.548 41.2068C114.549 41.4741 114.496 41.7389 114.393 41.9856C114.29 42.2322 114.139 42.4557 113.948 42.6428L109.09 47.5068L109.97 48.3848L114.834 43.5208C115.447 42.9067 115.791 42.0744 115.791 41.2068C115.791 40.3392 115.447 39.507 114.834 38.8928Z" fill="black"/>
<path d="M112.094 40.7549L106.456 46.3909C106.075 46.771 105.558 46.9844 105.02 46.9844C104.482 46.9844 103.965 46.771 103.584 46.3909L103.146 45.9509L102.268 46.8289L102.706 47.2689C103.32 47.8813 104.153 48.2251 105.02 48.2251C105.888 48.2251 106.72 47.8813 107.334 47.2689L112.972 41.6289L112.094 40.7549Z" fill="black"/>
<path d="M120.94 42.7229C120.997 43.0574 121.179 43.3575 121.45 43.5629C121.759 43.7773 122.131 43.8835 122.508 43.865C122.866 43.8878 123.22 43.7821 123.508 43.567C123.622 43.4717 123.713 43.3515 123.774 43.2157C123.835 43.0798 123.864 42.9318 123.86 42.7829C123.864 42.6437 123.831 42.5058 123.765 42.3829C123.7 42.2714 123.609 42.1763 123.502 42.105C123.373 42.0194 123.233 41.9521 123.085 41.905L122.53 41.737L122 41.5929C121.706 41.5151 121.42 41.41 121.145 41.2789C120.91 41.1676 120.692 41.022 120.5 40.847C120.328 40.6873 120.191 40.493 120.1 40.277C120.002 40.0392 119.954 39.7839 119.96 39.5269C119.957 39.2422 120.018 38.9605 120.14 38.7029C120.256 38.4522 120.43 38.2319 120.645 38.0589C120.883 37.8688 121.155 37.7256 121.445 37.6369C121.786 37.5292 122.141 37.4772 122.498 37.4829C123.232 37.4829 123.814 37.6563 124.244 38.0029C124.456 38.1743 124.633 38.3864 124.763 38.6268C124.892 38.8672 124.973 39.131 125 39.4029L123.8 39.5009C123.74 39.2256 123.586 38.9799 123.364 38.8069C123.094 38.6268 122.773 38.5397 122.45 38.5589C122.144 38.541 121.842 38.6301 121.595 38.8109C121.497 38.8877 121.418 38.9865 121.364 39.0994C121.311 39.2122 121.285 39.3361 121.288 39.4609C121.283 39.5941 121.314 39.726 121.378 39.8429C121.442 39.9509 121.53 40.0426 121.635 40.1109C121.764 40.1945 121.902 40.2617 122.048 40.3109C122.21 40.3709 122.394 40.435 122.598 40.5009L123.105 40.6589C123.422 40.7589 123.708 40.8629 123.964 40.9709C124.199 41.071 124.418 41.2059 124.614 41.3709C124.79 41.5201 124.93 41.7066 125.025 41.917C125.128 42.1651 125.177 42.4324 125.17 42.7009C125.173 43.0149 125.104 43.3254 124.97 43.6089C124.839 43.8812 124.649 44.1206 124.414 44.3089C124.16 44.5093 123.872 44.6612 123.564 44.757C123.212 44.8662 122.846 44.9196 122.478 44.915C121.827 44.9392 121.184 44.7587 120.642 44.3989C120.388 44.2155 120.176 43.981 120.018 43.7107C119.861 43.4403 119.762 43.1399 119.728 42.8289L120.94 42.7229ZM130.23 37.5029C130.733 37.4964 131.232 37.5888 131.7 37.7749C132.126 37.9459 132.512 38.2065 132.83 38.5389C133.148 38.878 133.395 39.278 133.555 39.7149C133.731 40.1953 133.819 40.7035 133.814 41.215C133.821 41.7358 133.728 42.2532 133.54 42.7389C133.364 43.1804 133.099 43.5808 132.762 43.915L133.714 45.0289V45.375H132.514L131.848 44.5609C131.606 44.6764 131.354 44.7662 131.094 44.8289C130.813 44.8889 130.527 44.9185 130.24 44.917C129.731 44.92 129.226 44.8221 128.755 44.6289C128.331 44.4568 127.948 44.1956 127.634 43.8629C127.319 43.5254 127.076 43.1274 126.92 42.6929C126.747 42.2174 126.661 41.7148 126.665 41.2089C126.66 40.6998 126.747 40.1938 126.92 39.7149C127.077 39.279 127.322 38.8801 127.64 38.5429C127.956 38.2104 128.34 37.9486 128.765 37.7749C129.23 37.5866 129.728 37.4941 130.23 37.5029ZM130.22 38.5749C129.889 38.5699 129.562 38.6382 129.262 38.7749C128.985 38.9025 128.741 39.0905 128.548 39.3249C128.346 39.5708 128.194 39.8533 128.1 40.157C127.995 40.495 127.944 40.8472 127.948 41.2009C127.944 41.5578 127.997 41.9129 128.105 42.2529C128.202 42.5593 128.356 42.8449 128.558 43.095C128.751 43.3323 128.995 43.5236 129.272 43.655C129.572 43.7927 129.899 43.861 130.23 43.855C130.56 43.8582 130.886 43.7899 131.188 43.655C131.463 43.5301 131.707 43.3448 131.902 43.1129C132.106 42.8667 132.259 42.5826 132.354 42.277C132.463 41.9289 132.517 41.5658 132.514 41.2009C132.517 40.8413 132.463 40.4836 132.354 40.1409C132.258 39.8371 132.104 39.5545 131.902 39.3089C131.705 39.077 131.46 38.8913 131.184 38.7649C130.88 38.632 130.551 38.5671 130.22 38.5749ZM138.528 43.905C138.75 43.9186 138.973 43.8835 139.18 43.802C139.387 43.7204 139.574 43.5944 139.728 43.4329C140.012 43.1196 140.154 42.6383 140.154 41.9889V37.6409H141.4V42.0289C141.409 42.4785 141.342 42.9263 141.2 43.3529C141.085 43.6946 140.891 44.0044 140.634 44.257C140.378 44.4985 140.069 44.6754 139.732 44.7729C138.946 44.9901 138.117 44.9901 137.332 44.7729C136.995 44.6754 136.687 44.4984 136.434 44.257C136.177 44.0038 135.983 43.6943 135.868 43.3529C135.725 42.9263 135.658 42.4785 135.668 42.0289V37.6409H136.918V41.9889C136.918 42.637 137.06 43.1183 137.345 43.4329C137.497 43.5923 137.681 43.717 137.885 43.7985C138.089 43.8799 138.308 43.9162 138.528 43.905ZM142.648 44.4289L145.178 37.6489H147.053L149.555 44.4289V44.7689H148.325L147.61 42.7329H144.523L143.8 44.7689H142.64L142.648 44.4289ZM144.9 41.6689H147.253L146.865 40.537C146.714 40.095 146.592 39.7369 146.498 39.4549C146.403 39.1729 146.324 38.9329 146.25 38.7209H145.944L145.824 39.0589C145.784 39.1709 145.74 39.2969 145.69 39.4349C145.64 39.5729 145.585 39.7329 145.525 39.9129C145.465 40.0929 145.393 40.2989 145.308 40.537L144.9 41.6689ZM156.543 44.7689H155.344L153.17 41.9689H152.37V44.7689H151.138V37.6409H153.452C153.798 37.6403 154.144 37.6651 154.488 37.7149C154.806 37.7612 155.11 37.8788 155.378 38.0589C155.94 38.4296 156.222 38.9883 156.222 39.7349C156.227 40.0243 156.178 40.3121 156.075 40.5829C155.989 40.811 155.859 41.0201 155.693 41.1989C155.535 41.367 155.349 41.5063 155.144 41.6109C154.937 41.7163 154.719 41.7963 154.493 41.8489L156.543 44.4289V44.7689ZM152.365 40.897H153.448C153.84 40.9179 154.23 40.8277 154.573 40.637C154.712 40.5445 154.823 40.4168 154.895 40.267C154.968 40.1172 154.999 39.9508 154.985 39.7849C155.002 39.6203 154.971 39.4545 154.897 39.3065C154.823 39.1586 154.709 39.0346 154.568 38.9489C154.22 38.7763 153.835 38.6951 153.448 38.7129H152.365V40.897ZM158.132 37.6409H162.748V38.7329H159.348V40.5989H162.504V41.6709H159.354V43.6709H162.818V44.7689H158.132V37.6409ZM165.577 42.7229C165.635 43.0574 165.818 43.3575 166.088 43.5629C166.397 43.777 166.769 43.8832 167.145 43.865C167.504 43.8878 167.858 43.7821 168.145 43.567C168.26 43.4717 168.351 43.3515 168.412 43.2157C168.473 43.0798 168.503 42.9318 168.498 42.7829C168.501 42.6437 168.469 42.5058 168.404 42.3829C168.338 42.2714 168.248 42.1763 168.139 42.105C168.01 42.0194 167.871 41.9521 167.724 41.905L167.168 41.737L166.632 41.5889C166.338 41.5111 166.052 41.406 165.777 41.275C165.542 41.1636 165.324 41.018 165.132 40.8429C164.959 40.6832 164.823 40.489 164.732 40.2729C164.633 40.0212 164.585 39.7522 164.592 39.4819C164.599 39.2116 164.66 38.9453 164.771 38.6989C164.889 38.4487 165.062 38.2284 165.277 38.0549C165.515 37.8648 165.786 37.7216 166.077 37.6329C166.418 37.5252 166.773 37.4732 167.13 37.4789C167.864 37.4789 168.447 37.6523 168.877 37.9989C169.09 38.1704 169.266 38.3825 169.395 38.6229C169.525 38.8633 169.605 39.1272 169.632 39.3989L168.432 39.4969C168.373 39.2222 168.22 38.9766 168 38.8029C167.73 38.6225 167.409 38.5354 167.086 38.5549C166.78 38.537 166.478 38.6261 166.232 38.8069C166.133 38.8839 166.054 38.9828 166.001 39.0957C165.948 39.2085 165.922 39.3322 165.925 39.4569C165.92 39.5899 165.95 39.7218 166.013 39.8389C166.078 39.9469 166.166 40.0386 166.271 40.107C166.4 40.1905 166.538 40.2577 166.683 40.307C166.845 40.367 167.03 40.4309 167.236 40.497L167.742 40.655C168.059 40.755 168.345 40.8589 168.6 40.967C168.835 41.0671 169.054 41.2019 169.25 41.367C169.425 41.5161 169.566 41.7026 169.662 41.9129C169.765 42.1612 169.813 42.4284 169.806 42.697C169.809 43.0109 169.741 43.3215 169.606 43.605C169.476 43.8777 169.286 44.1171 169.05 44.305C168.796 44.5037 168.507 44.6542 168.2 44.7489C167.847 44.8582 167.48 44.9115 167.112 44.907C166.46 44.9309 165.819 44.7505 165.275 44.3909C165.024 44.208 164.813 43.9747 164.656 43.7057C164.5 43.4368 164.4 43.1382 164.365 42.8289L165.577 42.7229ZM171.582 37.6409H174.182C174.594 37.6303 175.004 37.6877 175.398 37.8109C175.697 37.903 175.97 38.0625 176.198 38.2769C176.397 38.4715 176.547 38.7117 176.633 38.9769C176.725 39.257 176.771 39.5502 176.768 39.8449C176.775 40.177 176.713 40.507 176.583 40.8129C176.466 41.0804 176.285 41.3142 176.054 41.4929C175.801 41.68 175.514 41.8158 175.209 41.8929C174.843 41.987 174.466 42.032 174.088 42.027H172.827V44.7689H171.586L171.582 37.6409ZM172.824 40.957H174.013C174.215 40.9585 174.416 40.9403 174.613 40.9029C174.782 40.8714 174.943 40.8098 175.089 40.7209C175.224 40.6367 175.334 40.5179 175.407 40.377C175.488 40.2115 175.527 40.0289 175.521 39.8449C175.527 39.6565 175.488 39.4693 175.407 39.2989C175.336 39.1562 175.228 39.0353 175.094 38.9489C174.95 38.8595 174.79 38.7978 174.624 38.7669C174.425 38.7292 174.225 38.7112 174.024 38.7129H172.813L172.824 40.957ZM177.112 44.4289L179.644 37.6489H181.519L184.019 44.4289V44.7689H182.8L182.086 42.7329H178.988L178.274 44.7689H177.112V44.4289ZM179.365 41.6689H181.718L181.33 40.537C181.177 40.095 181.056 39.7369 180.963 39.4549L180.715 38.7209H180.4L180.28 39.0589C180.239 39.1709 180.195 39.2969 180.145 39.4349C180.095 39.5729 180.042 39.7329 179.982 39.9129C179.921 40.0929 179.85 40.2989 179.763 40.537L179.365 41.6689ZM191.583 42.8829C191.471 43.1618 191.322 43.4253 191.144 43.667C190.957 43.9147 190.735 44.132 190.482 44.3109C190.207 44.5035 189.904 44.6506 189.583 44.747C189.215 44.8573 188.832 44.9112 188.448 44.907C187.951 44.9145 187.458 44.8198 187 44.6289C186.58 44.4538 186.201 44.1921 185.889 43.8609C185.576 43.5223 185.335 43.1236 185.18 42.6889C185.01 42.2162 184.925 41.7172 184.93 41.215C184.925 40.7127 185.01 40.2136 185.18 39.7409C185.335 39.3044 185.578 38.9042 185.894 38.5649C186.207 38.2303 186.588 37.9646 187.009 37.7849C187.469 37.5915 187.965 37.4955 188.463 37.5029C189.157 37.4783 189.842 37.669 190.424 38.0489C190.94 38.4009 191.332 38.908 191.542 39.4969L190.28 39.7449C190.122 39.3985 189.873 39.1018 189.559 38.8869C189.228 38.6721 188.839 38.5633 188.444 38.5749C188.119 38.5679 187.798 38.6363 187.506 38.7749C187.236 38.9073 186.999 39.0979 186.812 39.3329C186.615 39.5834 186.468 39.8692 186.38 40.175C186.277 40.5114 186.227 40.8613 186.23 41.2129C186.227 41.5668 186.278 41.919 186.383 42.257C186.477 42.5597 186.629 42.8414 186.83 43.087C187.025 43.3175 187.269 43.5025 187.544 43.6289C187.842 43.7661 188.168 43.8344 188.498 43.8289C188.906 43.8454 189.309 43.7266 189.644 43.4909C189.938 43.275 190.178 42.9927 190.344 42.667L191.583 42.8829ZM193.262 37.6409H197.877V38.7329H194.477V40.5989H197.639V41.6709H194.483V43.6709H197.948V44.7689H193.262V37.6409Z" fill="black"/>
</g>
<defs>
<clipPath id="clip0_401_671">
<rect width="50" height="39.84" fill="white" transform="translate(20 21)"/>
</clipPath>
<clipPath id="clip1_401_671">
<rect width="100" height="14.4578" fill="white" transform="translate(98 34)"/>
</clipPath>
</defs>
</svg>
