<svg width="250" height="82" viewBox="0 0 250 82" fill="none" xmlns="http://www.w3.org/2000/svg">
<path d="M41.9073 26.6452C41.8583 26.5629 41.7902 26.4936 41.7088 26.4432C41.6274 26.3928 41.5351 26.3627 41.4396 26.3557C41.3102 26.3618 41.1854 26.4052 41.0802 26.4807C39.7573 27.5609 37.9458 32.1442 36.4614 38.1827L37.775 38.1994C40.3708 38.2286 43.05 38.2609 45.7 38.3036C45 35.5369 44.3458 33.1661 43.7354 31.2536C43.2997 29.6541 42.6864 28.1084 41.9073 26.6452Z" fill="#1C56EE"/>
<path d="M44.8552 15C31.1281 15 20 26.5792 20 40.8625C20 55.1458 31.1281 66.7229 44.8552 66.7229C58.5823 66.7229 69.7104 55.1448 69.7104 40.8625C69.7104 26.5802 58.5813 15 44.8552 15ZM62.7229 41.3302L62.7167 41.3365C62.6906 41.3573 62.6635 41.3802 62.6344 41.4L62.6073 41.4208L62.549 41.4562C62.5312 41.4679 62.5127 41.4788 62.4938 41.4885C62.3068 41.5917 62.0968 41.6457 61.8833 41.6458H50.1042C50.2 42.051 50.3031 42.5125 50.4167 43.0146C51.0615 45.9156 52.775 53.6219 54.5958 53.6219H54.6896C56.1135 53.6219 56.8385 51.4823 58.4292 46.7948L58.449 46.7365C58.7052 45.9833 58.9927 45.1344 59.3063 44.2365L59.3854 44.0063C59.4304 43.8819 59.5176 43.7773 59.6319 43.7107C59.746 43.6441 59.88 43.6196 60.0104 43.6417C60.1423 43.669 60.2608 43.7407 60.3459 43.8451C60.4311 43.9495 60.4778 44.0799 60.4781 44.2146C60.4782 44.272 60.4701 44.3292 60.4542 44.3844L60.3875 44.6146C60.2219 45.1729 60.0458 45.9333 59.8417 46.8125C58.8938 50.9021 57.4604 57.0792 53.7854 57.0792H53.7583C51.3844 57.0594 49.9667 53.1094 49.3563 51.4219C48.2208 48.2687 47.3594 44.9062 46.5344 41.6521H35.701L33.451 49.1396L33.4167 49.1125C33.2895 49.327 33.0946 49.4931 32.8626 49.5846C32.6306 49.676 32.3748 49.6877 32.1354 49.6177C31.8941 49.5409 31.6836 49.3891 31.5347 49.1843C31.3856 48.9795 31.306 48.7324 31.3073 48.4792V48.4385L31.4438 47.5917C31.7563 45.6677 32.126 43.6677 32.5521 41.6479H27.9844L27.9677 41.6302C27.5596 41.5519 27.1909 41.3354 26.9235 41.0173C26.6562 40.6991 26.5065 40.2985 26.4997 39.8831C26.4928 39.4676 26.6292 39.0624 26.8859 38.7355C27.1427 38.4087 27.5041 38.1803 27.9094 38.0885C28.0868 38.0688 28.2653 38.0611 28.4438 38.0656H28.6667C30.1177 38.0917 31.6615 38.1146 33.3438 38.1365C35.7292 28.0385 38.5 22.9062 41.5708 22.8958C44.8635 22.8958 47.3063 30.699 49.2604 38.3312L49.2688 38.3625C53.2875 38.4469 57.5698 38.5708 61.7323 38.8833L61.9073 38.9C61.974 38.9018 62.0403 38.9077 62.1063 38.9177H62.1625C62.4125 38.973 62.6415 39.0985 62.8225 39.2796C63.0035 39.4606 63.1291 39.6896 63.1844 39.9396C63.2431 40.1914 63.2312 40.4546 63.1498 40.7C63.0683 40.9454 62.9206 41.1635 62.7229 41.3302Z" fill="#1C56EE"/>
<g clip-path="url(#clip0_401_3282)">
<path d="M115.184 34.8817C115.163 34.8472 115.135 34.8181 115.101 34.797C115.067 34.7758 115.028 34.7632 114.988 34.7603C114.934 34.7629 114.881 34.781 114.837 34.8127C114.283 35.2655 113.523 37.1869 112.901 39.7183L113.452 39.7253C114.54 39.7375 115.663 39.7511 116.774 39.769C116.48 38.6092 116.206 37.6153 115.95 36.8135C115.768 36.143 115.511 35.495 115.184 34.8817Z" fill="#3260E7"/>
<path d="M116.42 30C110.665 30 106 34.8541 106 40.8419C106 46.8297 110.665 51.683 116.42 51.683C122.174 51.683 126.839 46.8293 126.839 40.8419C126.839 34.8546 122.174 30 116.42 30ZM123.91 41.038L123.907 41.0406C123.897 41.0493 123.885 41.059 123.873 41.0672L123.862 41.076L123.837 41.0908C123.83 41.0957 123.822 41.1003 123.814 41.1044C123.736 41.1476 123.648 41.1703 123.558 41.1703H118.62C118.66 41.3402 118.703 41.5336 118.751 41.7441C119.021 42.9603 119.74 46.1908 120.503 46.1908H120.542C121.139 46.1908 121.443 45.2939 122.11 43.3288L122.118 43.3044C122.226 42.9886 122.346 42.6328 122.478 42.2563L122.511 42.1598C122.53 42.1077 122.566 42.0638 122.614 42.0359C122.662 42.008 122.718 41.9977 122.773 42.007C122.828 42.0184 122.878 42.0485 122.914 42.0923C122.949 42.136 122.969 42.1907 122.969 42.2472C122.969 42.2712 122.966 42.2952 122.959 42.3183L122.931 42.4148C122.862 42.6489 122.788 42.9677 122.702 43.3362C122.305 45.0507 121.704 47.6402 120.163 47.6402H120.152C119.157 47.6319 118.562 45.976 118.307 45.2686C117.831 43.9467 117.469 42.5371 117.124 41.1729H112.582L111.639 44.3118L111.624 44.3004C111.571 44.3903 111.489 44.46 111.392 44.4983C111.295 44.5367 111.188 44.5416 111.087 44.5122C110.986 44.48 110.898 44.4164 110.836 44.3305C110.773 44.2447 110.74 44.1411 110.74 44.0349V44.0179L110.797 43.6629C110.928 42.8563 111.083 42.0179 111.262 41.1712H109.347L109.34 41.1638C109.169 41.1309 109.015 41.0402 108.902 40.9068C108.79 40.7734 108.728 40.6055 108.725 40.4314C108.722 40.2572 108.779 40.0873 108.887 39.9503C108.994 39.8133 109.146 39.7175 109.316 39.679C109.39 39.6707 109.465 39.6676 109.54 39.6694H109.633C110.241 39.6803 110.889 39.69 111.594 39.6991C112.594 35.4659 113.755 33.3144 115.043 33.31C116.423 33.31 117.447 36.5812 118.266 39.7808L118.27 39.7939C119.955 39.8293 121.75 39.8812 123.495 40.0122L123.568 40.0192C123.596 40.02 123.624 40.0224 123.652 40.0266H123.675C123.78 40.0498 123.876 40.1024 123.952 40.1783C124.028 40.2542 124.08 40.3502 124.103 40.455C124.128 40.5606 124.123 40.6709 124.089 40.7738C124.055 40.8767 123.993 40.9681 123.91 41.038Z" fill="#3260E7"/>
<path d="M132.621 43.5542L131.795 45.6782H129.396L133.961 34.5865H136.08L140.631 45.6782H138.245L137.419 43.5542H132.621ZM135.004 37.3926L133.446 41.4306H136.593L135.004 37.3926Z" fill="#3260E7"/>
<path d="M154.156 41.4144V45.6781H151.99V41.6083C151.99 40.376 151.414 39.7113 150.4 39.7113C150.113 39.7243 149.833 39.8099 149.588 39.9602C149.343 40.1105 149.14 40.3206 148.998 40.5707C149.035 40.8504 149.055 41.1319 149.059 41.414V45.6777H146.895V41.6078C146.895 40.3755 146.318 39.7109 145.29 39.7109C145.015 39.7396 144.751 39.8339 144.521 39.9859C144.29 40.1379 144.099 40.3431 143.965 40.5843V45.676H141.799V37.9118H143.965V38.3825C144.202 38.1378 144.489 37.9472 144.807 37.8237C145.125 37.7002 145.466 37.6467 145.806 37.6668C146.261 37.6601 146.711 37.7557 147.124 37.9466C147.536 38.1374 147.901 38.4187 148.191 38.7694C148.537 38.4024 148.959 38.114 149.427 37.9238C149.894 37.7336 150.398 37.646 150.902 37.6668C152.723 37.6668 154.156 39.1441 154.156 41.4144Z" fill="#3260E7"/>
<path d="M163.677 41.803C163.677 44.0567 162.025 45.8401 159.968 45.8401C159.216 45.8551 158.477 45.6403 157.849 45.2244V49.424H155.683V37.9113H157.849V38.3655C158.477 37.9496 159.216 37.7348 159.968 37.7498C162.027 37.7498 163.677 39.517 163.677 41.803ZM161.543 41.803C161.575 41.3583 161.458 40.9155 161.211 40.5441C160.965 40.1728 160.601 39.8938 160.179 39.751C159.757 39.6082 159.299 39.6096 158.877 39.755C158.456 39.9005 158.094 40.1817 157.85 40.5546V43.0362C158.046 43.3194 158.31 43.5492 158.618 43.7049C158.925 43.8607 159.266 43.9374 159.611 43.9284C159.877 43.9166 160.139 43.8521 160.381 43.7387C160.622 43.6253 160.839 43.4653 161.019 43.2677C161.198 43.0702 161.337 42.8391 161.427 42.5877C161.517 42.3363 161.556 42.0696 161.543 41.803Z" fill="#3260E7"/>
<path d="M167.059 45.6782H164.894V34.1664H167.059V45.6782Z" fill="#3260E7"/>
<path d="M169.008 35.1716C169.003 34.9979 169.034 34.8251 169.097 34.6632C169.16 34.5014 169.255 34.3539 169.377 34.2295C169.498 34.105 169.643 34.0061 169.803 33.9385C169.963 33.871 170.135 33.8362 170.309 33.8362C170.483 33.8362 170.655 33.871 170.815 33.9385C170.975 34.0061 171.12 34.105 171.241 34.2295C171.363 34.3539 171.458 34.5014 171.521 34.6632C171.585 34.8251 171.615 34.9979 171.61 35.1716C171.61 35.5168 171.473 35.8478 171.229 36.0918C170.985 36.3358 170.654 36.473 170.309 36.473C169.964 36.473 169.633 36.3358 169.389 36.0918C169.145 35.8478 169.008 35.5168 169.008 35.1716ZM171.407 37.9114V45.6782H169.241V37.9114H171.407Z" fill="#3260E7"/>
<path d="M179.275 45.565C178.634 45.8078 177.952 45.9287 177.266 45.9214C175.459 45.9214 174.275 44.5921 174.275 42.5816V39.8087H172.703V37.9113H174.275V35.1393H176.425V37.9113H179.121V39.8083H176.425V42.565C176.407 42.7403 176.428 42.9175 176.487 43.0833C176.547 43.2492 176.644 43.3993 176.77 43.5225C176.896 43.6457 177.048 43.7388 177.215 43.7947C177.383 43.8506 177.56 43.8679 177.735 43.8454C178.163 43.8295 178.587 43.7587 178.997 43.6349L179.275 45.565Z" fill="#3260E7"/>
<path d="M187.97 45.6781H185.804V45.1266C185.212 45.6409 184.454 45.9226 183.67 45.9192C181.705 45.9192 180.397 44.4436 180.397 42.1904V37.9109H182.563V41.9808C182.563 43.2131 183.156 43.8786 184.169 43.8786C184.497 43.8484 184.814 43.7453 185.097 43.577C185.38 43.4087 185.622 43.1794 185.805 42.9056V37.9113H187.971L187.97 45.6781Z" fill="#3260E7"/>
<path d="M197.164 45.6786H194.998V45.2249C194.371 45.6406 193.632 45.8554 192.879 45.8406C190.822 45.8406 189.155 44.0734 189.155 41.7873C189.155 39.5336 190.822 37.7502 192.879 37.7502C193.632 37.7354 194.371 37.9502 194.999 38.3659V34.1664H197.164L197.164 45.6786ZM194.998 43.0363V40.5542C194.802 40.2709 194.538 40.041 194.23 39.8852C193.923 39.7295 193.581 39.6528 193.237 39.662C192.97 39.6723 192.708 39.7357 192.465 39.8485C192.223 39.9613 192.005 40.1212 191.826 40.319C191.646 40.5167 191.507 40.7482 191.418 41.0001C191.328 41.252 191.29 41.5192 191.305 41.786C191.305 42.9376 192.1 43.9432 193.237 43.9432C193.583 43.9529 193.926 43.8748 194.234 43.7161C194.542 43.5574 194.805 43.3238 194.998 43.0363Z" fill="#3260E7"/>
<path d="M205.953 42.3712H200.45C200.502 42.8384 200.731 43.2679 201.092 43.5699C201.452 43.872 201.915 44.0234 202.384 43.9926C202.627 44.0189 202.873 43.9786 203.095 43.8757C203.318 43.7728 203.508 43.6114 203.645 43.4087H205.905C205.5 44.9004 204.098 45.9218 202.336 45.9218C199.937 45.9218 198.316 44.1227 198.316 41.8039C198.316 39.4022 199.922 37.6668 202.275 37.6668C204.409 37.6668 205.999 39.2389 205.999 41.6406C206.002 41.8854 205.987 42.1301 205.952 42.3725L205.953 42.3712ZM200.467 41.041H203.849C203.723 40.0686 203.163 39.5336 202.29 39.5336C201.854 39.5151 201.426 39.6589 201.089 39.9373C200.753 40.2157 200.531 40.6089 200.467 41.041Z" fill="#3260E7"/>
</g>
<defs>
<clipPath id="clip0_401_3282">
<rect width="100" height="21.8341" fill="white" transform="translate(106 30)"/>
</clipPath>
</defs>
</svg>
