<svg width="250" height="82" viewBox="0 0 250 82" fill="none" xmlns="http://www.w3.org/2000/svg">
<g clipPath="url(#clip0_401_125)">
<path d="M92.9891 33.7262C93.3243 33.4469 93.7712 33.4469 94.1064 33.7821C94.8885 34.5642 95.7265 35.4022 96.5086 36.1843L95.3354 37.4133L93.8271 35.9049C93.6595 35.7374 93.436 35.7374 93.2125 35.8491C93.2125 35.8491 93.2125 35.8491 93.1567 35.9049C91.369 37.6368 89.6371 39.4245 87.8494 41.2122C87.6818 41.3798 87.6259 41.6591 87.7935 41.8267L87.8494 41.8826C89.5254 43.5586 91.2014 45.2346 92.8773 46.9105C92.9891 47.0781 93.1567 47.1899 93.3243 47.3016C93.4919 47.3575 93.7153 47.3016 93.8271 47.1899L95.2796 45.7374L96.4528 46.9664L94.2181 49.201C94.0505 49.3686 93.8829 49.4804 93.7153 49.5921C93.3801 49.7038 93.0449 49.5921 92.8215 49.3686C90.4751 47.0223 88.0729 44.62 85.7265 42.2737C85.3913 41.9385 85.3913 41.3798 85.7265 41.0446C88.1846 38.5307 90.5868 36.1284 92.9891 33.7262Z" fill="#9187F6"/>
<path d="M98.9105 33.7263C99.2457 33.3911 99.8044 33.3911 100.14 33.7263L107.235 40.8212C107.458 41.0447 107.57 41.3799 107.458 41.7151C107.346 41.9386 107.179 42.1062 107.011 42.2737L100.363 48.9777C100.195 49.1453 100.028 49.3129 99.8044 49.4246C99.4692 49.5363 99.134 49.4246 98.9105 49.2011L96.5083 46.8548L95.3351 45.6816L91.7597 42.1062C91.4245 41.771 91.4245 41.2123 91.7597 40.933L95.2793 37.4134L96.5083 36.1843C97.2904 35.3464 98.1284 34.5642 98.9105 33.7263Z" fill="#8313DD"/>
<path d="M110.754 35.7373C111.033 35.2346 111.704 35.1228 112.151 35.4022C112.262 35.458 112.374 35.5698 112.43 35.6815C112.542 35.8491 112.598 36.0725 112.653 36.296L114.274 42.8323C114.329 43.1116 114.385 43.391 114.497 43.6703L116.564 36.2401C116.62 35.8491 116.843 35.5697 117.179 35.3463C117.514 35.1787 117.961 35.2346 118.24 35.458C118.408 35.6256 118.519 35.8491 118.631 36.0725C119.357 38.5865 120.028 41.1005 120.81 43.6144C121.424 41.1563 122.039 38.6424 122.598 36.1843C122.653 35.9049 122.765 35.6256 122.989 35.4022C123.436 35.067 124.106 35.1228 124.441 35.5697C124.497 35.6256 124.497 35.6815 124.553 35.7373C124.72 36.0725 124.72 36.5195 124.553 36.8547C123.715 40.039 122.821 43.2234 121.983 46.4077C121.927 46.7988 121.648 47.1898 121.257 47.3574C120.922 47.4692 120.586 47.4133 120.251 47.2457C120.028 47.0222 119.86 46.687 119.748 46.3519C119.078 43.8938 118.352 41.3798 117.681 38.9217C116.955 41.4357 116.229 43.9496 115.558 46.5195C115.447 46.9105 115.223 47.2457 114.832 47.4133C114.497 47.525 114.106 47.4692 113.827 47.2457C113.603 47.0222 113.436 46.687 113.38 46.3519C112.542 43.1675 111.648 39.9831 110.81 36.7988C110.586 36.5195 110.642 36.1284 110.754 35.7373ZM125.894 36.2401C125.894 35.6815 126.285 35.2346 126.843 35.2346C127.402 35.2346 127.849 35.6256 127.849 36.1843C127.849 37.3575 127.849 38.5306 127.849 39.6479C128.296 39.0893 128.91 38.7541 129.637 38.6424C130.307 38.5306 130.977 38.6424 131.536 38.9776C132.262 39.3686 132.765 40.039 132.933 40.8211C133.045 41.4357 133.1 42.0502 133.045 42.6647C133.045 43.9496 133.045 45.2345 133.045 46.4636C133.045 47.0222 132.653 47.4692 132.095 47.4692C131.536 47.4692 131.089 47.0781 131.089 46.5195C131.089 45.0669 131.089 43.5586 131.089 42.106C131.145 41.4357 130.754 40.8211 130.195 40.4859C129.581 40.2625 128.91 40.3742 128.408 40.7653C128.072 41.1563 127.905 41.715 127.905 42.2178V46.4077C127.905 46.6312 127.849 46.8546 127.737 47.0222C127.402 47.4692 126.788 47.5809 126.285 47.2457C126.173 47.1898 126.117 47.0781 126.061 47.0222C125.894 46.7429 125.894 46.4077 125.894 46.0725C125.894 42.8323 125.894 39.5362 125.894 36.2401ZM135.279 35.2904C135.894 35.067 136.564 35.4022 136.788 36.0167C136.843 36.1284 136.843 36.2401 136.843 36.4077C136.899 37.0781 136.396 37.5809 135.726 37.6368C135.67 37.6368 135.614 37.6368 135.614 37.6368C134.944 37.6368 134.441 37.0781 134.441 36.4077C134.497 35.9049 134.776 35.458 135.279 35.2904ZM161.089 35.2904C161.704 35.0111 162.43 35.2904 162.709 35.9049C162.765 35.9608 162.765 36.0725 162.765 36.1843C162.877 36.7988 162.486 37.4692 161.816 37.5809C161.76 37.5809 161.704 37.5809 161.648 37.5809C160.978 37.6368 160.419 37.0781 160.419 36.4636C160.363 35.9608 160.642 35.5139 161.089 35.2904ZM181.76 35.2904C182.151 35.1787 182.542 35.2904 182.821 35.5139C183.045 35.7373 183.1 36.0725 183.1 36.3519V44.8435C183.1 45.0669 183.156 45.3463 183.324 45.5139C183.603 45.7373 183.994 45.6256 184.33 45.8491C184.721 46.1843 184.721 46.7429 184.385 47.134C184.33 47.1898 184.274 47.2457 184.218 47.3016C183.324 47.5809 182.374 47.4133 181.648 46.7988C181.313 46.296 181.089 45.6256 181.145 45.0111C181.145 42.2178 181.145 39.4245 181.145 36.5753C181.145 36.296 181.145 36.0167 181.201 35.7932C181.257 35.5698 181.48 35.3463 181.76 35.2904ZM140.363 39.6479C140.922 38.9776 141.76 38.6424 142.598 38.6424C143.547 38.5865 144.441 39.0334 145 39.7597C145.559 39.1451 146.285 38.7541 147.123 38.6424C147.961 38.4748 148.855 38.6424 149.581 39.1451C150.419 39.7597 150.922 40.8211 150.81 41.8826C150.81 43.4468 150.81 44.9552 150.81 46.5195C150.81 47.0222 150.419 47.4133 149.916 47.4692C149.413 47.5809 148.911 47.1898 148.799 46.687C148.799 46.6312 148.799 46.5753 148.799 46.5753C148.799 45.1228 148.799 43.6144 148.799 42.1619C148.855 41.2681 148.24 40.4859 147.346 40.4301C146.899 40.3742 146.397 40.5418 146.061 40.877C145.726 41.2681 145.559 41.715 145.559 42.2178V46.3519C145.559 46.6312 145.503 46.8546 145.335 47.0781C145 47.4692 144.33 47.5809 143.883 47.2457C143.603 47.0222 143.492 46.687 143.547 46.3519C143.547 44.9552 143.547 43.5027 143.547 42.106C143.603 41.2122 142.933 40.4859 142.039 40.4301C141.536 40.4301 141.089 40.5977 140.754 40.9329C140.419 41.3239 140.251 41.8267 140.307 42.3295V46.4077C140.307 46.6312 140.251 46.9105 140.139 47.0781C139.804 47.525 139.134 47.6368 138.687 47.3016C138.575 47.2457 138.519 47.134 138.464 47.0781C138.352 46.9105 138.296 46.687 138.296 46.4077V39.8155C138.296 39.5362 138.352 39.2569 138.575 39.0334C138.855 38.7541 139.302 38.6982 139.693 38.81C140.028 38.9776 140.307 39.2569 140.363 39.6479ZM155.223 38.6982C156.341 38.5865 157.458 38.8658 158.408 39.4245C158.799 39.7038 158.911 40.2066 158.687 40.5977C158.631 40.6535 158.631 40.7094 158.575 40.7653C158.296 41.0446 157.849 41.0446 157.514 40.877C156.732 40.4301 155.838 40.2625 154.944 40.4301C154.553 40.4859 154.218 40.877 154.218 41.2681C154.218 41.6032 154.497 41.8826 154.832 41.9943C155.782 42.2736 156.788 42.106 157.682 42.4971C158.352 42.7206 158.855 43.2792 159.078 43.9496C159.302 44.6759 159.19 45.4021 158.911 46.0725C158.464 46.8546 157.737 47.3574 156.899 47.525C155.559 47.8044 154.106 47.6368 152.877 47.0222C152.542 46.9105 152.318 46.687 152.095 46.4077C151.871 45.9608 152.095 45.458 152.486 45.1787C152.821 45.0111 153.212 45.0669 153.492 45.2904C154.05 45.6815 154.665 45.9049 155.335 45.9608C155.894 46.0725 156.508 45.9049 156.955 45.5697C157.29 45.2904 157.346 44.7317 157.011 44.3965C156.955 44.3407 156.844 44.2289 156.732 44.1731C155.838 43.8379 154.832 44.0055 153.938 43.6703C153.268 43.5027 152.709 42.9999 152.43 42.3295C152.095 41.3798 152.318 40.2625 152.989 39.5362C153.603 38.9776 154.385 38.6424 155.223 38.6424V38.6982ZM167.402 38.6982C168.464 38.5306 169.469 38.8658 170.307 39.4803C170.698 39.7038 170.922 40.1507 170.922 40.5977C170.922 41.0446 170.531 41.4357 170.028 41.4357C169.972 41.4357 169.972 41.4357 169.916 41.4357C169.413 41.3798 169.134 40.8211 168.687 40.6535C167.961 40.3183 167.123 40.4859 166.62 41.0446C166.229 41.6591 166.061 42.3854 166.117 43.1116C166.117 43.8379 166.117 44.6759 166.564 45.2904C167.067 45.8491 167.905 46.0167 168.631 45.7373C169.19 45.5697 169.469 44.8435 170.084 44.8993C170.587 44.9552 170.922 45.3463 170.922 45.8491C170.922 45.9049 170.922 46.0167 170.866 46.0725C170.587 46.6312 170.14 47.0222 169.637 47.2457C168.799 47.6368 167.849 47.7485 166.955 47.525C166.061 47.3574 165.223 46.8546 164.776 46.0725C164.274 45.1787 164.106 44.1172 164.162 43.1116C164.106 42.0502 164.33 41.0446 164.832 40.1507C165.391 39.3127 166.341 38.7541 167.402 38.6982ZM173.324 39.1451C174.05 38.81 174.832 38.6982 175.614 38.6982C176.452 38.6424 177.29 38.81 178.017 39.2569C178.855 39.9273 179.302 40.9329 179.19 41.9943C179.19 42.944 179.19 43.9496 179.19 44.8993C179.19 45.5697 179.86 45.9608 179.749 46.6312C179.693 47.1898 179.19 47.525 178.631 47.4692C178.575 47.4692 178.519 47.4692 178.408 47.4133C178.017 47.3016 177.849 46.9105 177.626 46.6312C177.011 47.3016 176.117 47.6368 175.223 47.5809C174.441 47.6368 173.603 47.4692 172.933 47.0222C172.43 46.6312 172.095 46.0725 172.039 45.4021C171.871 44.62 172.095 43.782 172.654 43.1675C173.324 42.553 174.162 42.2736 175.056 42.2736C175.782 42.2736 176.508 42.2736 177.235 42.2736C177.346 41.715 177.179 41.1563 176.788 40.7653C176.397 40.4859 175.95 40.3742 175.447 40.3742C174.888 40.3742 174.33 40.4859 173.827 40.7094C173.492 40.877 173.1 40.877 172.765 40.6535C172.43 40.3742 172.374 39.9273 172.598 39.5921C172.765 39.3686 172.933 39.201 173.212 39.1451H173.324ZM174.441 44.0055C173.938 44.2848 173.827 44.9552 174.106 45.458C174.162 45.5697 174.274 45.6815 174.385 45.7932C174.832 46.0167 175.391 46.0725 175.838 45.9608C176.341 45.9608 176.844 45.6815 177.123 45.2345C177.29 44.7876 177.29 44.2848 177.235 43.782C176.732 43.782 176.229 43.782 175.782 43.782C175.335 43.7262 174.888 43.8379 174.441 44.0055ZM135.335 38.81C135.67 38.6982 136.061 38.81 136.341 39.0334C136.564 39.2569 136.676 39.5362 136.62 39.8155V46.5195C136.62 46.9664 136.341 47.3574 135.894 47.4692C135.391 47.6368 134.832 47.3574 134.665 46.8546C134.665 46.7988 134.609 46.687 134.609 46.6312C134.609 44.3407 134.609 42.106 134.609 39.8155C134.665 39.3686 134.944 38.9776 135.335 38.81ZM161.257 38.8658C161.648 38.7541 162.095 38.8658 162.374 39.201C162.542 39.5362 162.598 39.9273 162.542 40.2625C162.542 42.3295 162.542 44.3965 162.542 46.5195C162.542 46.9105 162.318 47.3016 161.983 47.4692C161.592 47.6368 161.145 47.525 160.81 47.2457C160.642 47.0222 160.531 46.687 160.587 46.4077C160.587 44.2289 160.587 41.9943 160.587 39.8155C160.587 39.3686 160.866 38.9776 161.257 38.8658Z" fill="#303395"/>
</g>
<path d="M37.0563 23.5704C37.8172 22.9363 38.8317 22.9363 39.5926 23.6972C41.3679 25.4726 43.2701 27.3748 45.0455 29.1501L42.3824 31.94L38.9585 28.5161C38.5781 28.1356 38.0708 28.1357 37.5636 28.3893C37.5636 28.3893 37.5636 28.3893 37.4368 28.5161C33.3787 32.4473 29.4475 36.5053 25.3895 40.5633C25.0091 40.9437 24.8823 41.5778 25.2627 41.9582L25.3895 42.0851C29.1939 45.8894 32.9983 49.6938 36.8027 53.4982C37.0563 53.8786 37.4368 54.1323 37.8172 54.3859C38.1976 54.5127 38.7049 54.3859 38.9585 54.1323L42.2556 50.8351L44.9187 53.625L39.8462 58.6975C39.4658 59.078 39.0853 59.3316 38.7049 59.5852C37.944 59.8388 37.1831 59.5852 36.6759 59.078C31.3497 53.7518 25.8968 48.2989 20.5707 42.9727C19.8098 42.2119 19.8098 40.9437 20.5707 40.1829C26.1504 34.4763 31.6034 29.0233 37.0563 23.5704Z" fill="#9187F6"/>
<path d="M50.498 23.5707C51.2589 22.8098 52.527 22.8098 53.2879 23.5707L69.3931 39.6759C69.9003 40.1832 70.154 40.944 69.9003 41.7049C69.6467 42.2122 69.2663 42.5926 68.8858 42.973L53.7951 58.1906C53.4147 58.571 53.0343 58.9514 52.527 59.2051C51.7661 59.4587 51.0052 59.2051 50.498 58.6978L45.045 53.3717L42.382 50.7086L34.266 42.5926C33.5051 41.8317 33.5051 40.5636 34.266 39.9295L42.2552 31.9403L45.045 29.1504C46.8204 27.2482 48.7226 25.4729 50.498 23.5707Z" fill="#8313DD"/>
<defs>
<clipPath id="clip0_401_125">
<rect width="100" height="16.7598" fill="white" transform="translate(85 33)"/>
</clipPath>
</defs>
</svg>
