<svg width="250" height="82" viewBox="0 0 250 82" fill="none" xmlns="http://www.w3.org/2000/svg">
<g clip-path="url(#clip0_401_1980)">
<path d="M32.2612 62.813C33.1866 63.7086 32.5299 65.2533 31.2164 65.2533H22.9478C22.1771 65.2633 21.434 64.9671 20.8814 64.43C20.3288 63.8927 20.0118 63.1583 20 62.3877V54.3877C20 53.1041 21.5896 52.4698 22.5224 53.3727L32.2612 62.813Z" fill="#0A1551"/>
<path d="M45.1639 63.433C44.5841 62.8573 44.1238 62.1725 43.8097 61.4181C43.4957 60.6637 43.334 59.8547 43.334 59.0375C43.334 58.2203 43.4957 57.4112 43.8097 56.6569C44.1238 55.9025 44.5841 55.2177 45.1639 54.642L53.9848 45.8808C55.1617 44.7132 56.7524 44.0581 58.4102 44.0581C60.068 44.0581 61.6586 44.7132 62.8356 45.8808C63.4155 46.4565 63.8757 47.1413 64.1897 47.8957C64.5038 48.65 64.6655 49.4592 64.6655 50.2763C64.6655 51.0935 64.5038 51.9025 64.1897 52.6569C63.8757 53.4113 63.4155 54.0961 62.8356 54.6718L54.0147 63.433C52.8377 64.6006 51.2471 65.2557 49.5893 65.2557C47.9315 65.2557 46.3408 64.6006 45.1639 63.433Z" fill="#FFB629"/>
<path d="M21.8656 41.4104C21.2857 40.8347 20.8255 40.1499 20.5114 39.3956C20.1973 38.6412 20.0356 37.8321 20.0356 37.0149C20.0356 36.1978 20.1973 35.3887 20.5114 34.6343C20.8255 33.8799 21.2857 33.1951 21.8656 32.6194L36.7089 17.8657C37.8858 16.6981 39.4764 16.043 41.1343 16.043C42.792 16.043 44.3827 16.6981 45.5596 17.8657C46.1395 18.4414 46.5997 19.1262 46.9137 19.8806C47.2278 20.635 47.3896 21.444 47.3896 22.2612C47.3896 23.0783 47.2278 23.8874 46.9137 24.6418C46.5997 25.3962 46.1395 26.0809 45.5596 26.6567L30.7089 41.4104C29.5322 42.5757 27.9432 43.2294 26.2872 43.2294C24.6312 43.2294 23.0422 42.5757 21.8656 41.4104Z" fill="#0099FF"/>
<path d="M33.9998 51.9329C33.4199 51.3572 32.9597 50.6724 32.6457 49.918C32.3316 49.1636 32.1699 48.3545 32.1699 47.5374C32.1699 46.7203 32.3316 45.9112 32.6457 45.1568C32.9597 44.4024 33.4199 43.7176 33.9998 43.1419L54.0521 23.2165C55.229 22.0489 56.8196 21.3938 58.4775 21.3938C60.1352 21.3938 61.7259 22.0489 62.9028 23.2165C63.4827 23.7922 63.9429 24.4771 64.257 25.2314C64.571 25.9858 64.7328 26.7949 64.7328 27.6121C64.7328 28.4291 64.571 29.2382 64.257 29.9926C63.9429 30.7471 63.4827 31.4318 62.9028 32.0076L42.8506 51.9329C41.6737 53.1005 40.083 53.7556 38.4252 53.7556C36.7674 53.7556 35.1767 53.1005 33.9998 51.9329Z" fill="#FF6100"/>
</g>
<g clip-path="url(#clip1_401_1980)">
<path fill-rule="evenodd" clip-rule="evenodd" d="M166.967 45.8064C166.662 45.8102 166.359 45.7534 166.076 45.6393C165.793 45.5251 165.536 45.356 165.319 45.1415C164.883 44.7056 164.588 44.0435 164.588 43.1497C164.588 42.2451 164.883 41.5857 165.319 41.1497C165.537 40.9374 165.795 40.7703 166.077 40.6581C166.361 40.5458 166.663 40.4907 166.967 40.4958C167.588 40.4958 168.18 40.7138 168.616 41.1497C169.052 41.5857 169.343 42.2451 169.343 43.1497C169.343 44.0544 169.052 44.7138 168.616 45.1497C168.398 45.3621 168.14 45.5291 167.857 45.6414C167.574 45.7536 167.271 45.8088 166.967 45.8037V45.8064ZM166.967 37.6048C163.812 37.6048 161.422 39.9263 161.422 43.1497C161.422 46.3514 163.812 48.6947 166.967 48.6947C170.122 48.6947 172.512 46.3514 172.512 43.1497C172.512 39.9263 170.122 37.6048 166.967 37.6048ZM140.733 45.8827C140.428 45.8865 140.125 45.8297 139.842 45.7156C139.559 45.6014 139.301 45.4323 139.084 45.2178C138.648 44.7819 138.357 44.1225 138.357 43.2287C138.357 42.3241 138.651 41.662 139.084 41.2287C139.303 41.0156 139.561 40.8478 139.844 40.7351C140.128 40.6224 140.431 40.567 140.735 40.5721C141.357 40.5721 141.948 40.7928 142.384 41.226C142.82 41.662 143.111 42.3241 143.111 43.226C143.111 44.1307 142.817 44.7928 142.384 45.226C142.166 45.4392 141.907 45.6069 141.624 45.7197C141.341 45.8324 141.038 45.8878 140.733 45.8827ZM140.733 37.6811C137.58 37.6811 135.191 40.0053 135.191 43.226C135.191 46.4304 137.58 48.771 140.733 48.771C143.888 48.771 146.278 46.4277 146.278 43.226C146.278 40.0053 143.888 37.6838 140.735 37.6838L140.733 37.6811ZM181.133 48.6593H184.28V42.4086C184.28 41.8909 184.444 41.4413 184.727 41.1252C184.885 40.9542 185.077 40.8194 185.292 40.73C185.506 40.6407 185.738 40.5989 185.97 40.6075C186.537 40.6075 186.923 40.7982 187.171 41.087C187.425 41.3813 187.553 41.8091 187.553 42.3269V48.6593H190.681V42.4086C190.681 41.9045 190.844 41.4549 191.128 41.1306C191.281 40.9598 191.47 40.8245 191.68 40.7341C191.891 40.6438 192.119 40.6005 192.349 40.6075C192.929 40.6075 193.313 40.7982 193.558 41.087C193.809 41.3813 193.934 41.8091 193.934 42.3269V48.6593H197V41.7656C197 40.3568 196.537 39.3296 195.804 38.6593C195.076 37.9917 194.106 37.6947 193.133 37.6947C192.438 37.6947 191.804 37.8146 191.234 38.1007C190.746 38.3459 190.319 38.7056 189.943 39.207C189.335 38.2179 188.226 37.6947 186.918 37.6947C185.959 37.6947 184.855 38.0762 184.158 38.8119V37.9508H181.133V48.6593ZM179.948 37.959V41.1661L179.703 41.117C179.411 41.0598 179.158 41.038 178.923 41.038C178.256 41.038 177.662 41.2015 177.237 41.5993C176.814 41.9944 176.523 42.6511 176.523 43.7083V48.6593H173.384V37.9508H176.441V38.9862C177.196 38.0761 178.37 37.8963 179.109 37.8963C179.343 37.8963 179.558 37.9208 179.763 37.9399L179.948 37.959ZM123.354 43.4985H126.422L126.458 43.5339C126.479 43.5557 126.496 43.5884 126.498 43.6239C126.512 43.9119 126.582 44.1944 126.706 44.455C126.829 44.7155 127.003 44.9489 127.218 45.1415C127.622 45.4711 128.13 45.6451 128.651 45.632C128.94 45.6417 129.227 45.5884 129.492 45.476C129.758 45.3635 129.997 45.1945 130.191 44.9808C130.568 44.5234 130.764 43.9438 130.744 43.3514V34.3813H134.062V43.444C134.062 46.3459 131.842 48.771 128.673 48.771C127.092 48.771 125.763 48.2451 124.831 47.3323C123.921 46.4413 123.379 45.1688 123.354 43.6211V43.4985ZM160.978 35.8337L161.152 35.8854V33.4549L161.071 33.4195C160.895 33.3495 160.711 33.301 160.523 33.2751C160.291 33.2369 160.019 33.2124 159.741 33.2124C158.659 33.2124 157.444 33.5721 156.814 34.2179C156.185 34.8609 155.836 35.7792 155.836 36.88V37.3923H154.256V40.1824H155.836V48.6593H159.011V40.1824H161.152V37.3923H159.011V36.9181C159.011 36.425 159.182 36.1388 159.403 35.9754C159.639 35.815 159.919 35.7338 160.204 35.7438C160.613 35.7438 160.853 35.7982 160.978 35.8337ZM153.12 46.1552L153.283 46.1034V48.5421L153.207 48.5802C153.092 48.6347 152.907 48.6865 152.692 48.7247C152.474 48.7601 152.22 48.7846 151.956 48.7846C150.943 48.7846 149.804 48.425 149.212 47.7765C148.621 47.1307 148.294 46.2097 148.294 45.1061V40.1824H146.809V37.4059H148.294V34.3977H151.272V37.4086H153.283V40.1879H151.272V45.068C151.272 45.5639 151.436 45.85 151.643 46.0162C151.855 46.1879 152.136 46.2478 152.395 46.2478C152.779 46.2478 153.003 46.1933 153.12 46.1579V46.1552Z" fill="#0A1551"/>
<path d="M101.477 49.0925C101.815 49.4195 101.575 49.9835 101.095 49.9835H98.0763C97.7949 49.9872 97.5236 49.8791 97.3218 49.6829C97.12 49.4868 97.0043 49.2186 97 48.9372V46.0162C97 45.5476 97.5804 45.316 97.921 45.6457L101.477 49.0925Z" fill="#0A1551"/>
<path d="M106.188 49.3189C105.976 49.1086 105.808 48.8586 105.694 48.5832C105.579 48.3077 105.52 48.0123 105.52 47.7139C105.52 47.4156 105.579 47.1202 105.694 46.8447C105.808 46.5693 105.976 46.3193 106.188 46.109L109.409 42.9101C109.839 42.4838 110.419 42.2446 111.025 42.2446C111.63 42.2446 112.211 42.4838 112.64 42.9101C112.852 43.1204 113.02 43.3704 113.135 43.6458C113.25 43.9213 113.309 44.2167 113.309 44.515C113.309 44.8134 113.25 45.1088 113.135 45.3842C113.02 45.6597 112.852 45.9097 112.64 46.1199L109.42 49.3189C108.99 49.7451 108.409 49.9844 107.804 49.9844C107.199 49.9844 106.618 49.7451 106.188 49.3189Z" fill="#FFB629"/>
<path d="M97.6813 41.2779C97.4696 41.0676 97.3016 40.8176 97.1869 40.5422C97.0722 40.2667 97.0132 39.9713 97.0132 39.673C97.0132 39.3746 97.0722 39.0792 97.1869 38.8037C97.3016 38.5283 97.4696 38.2783 97.6813 38.068L103.101 32.6811C103.531 32.2548 104.111 32.0156 104.717 32.0156C105.322 32.0156 105.903 32.2548 106.333 32.6811C106.544 32.8913 106.712 33.1414 106.827 33.4168C106.942 33.6923 107.001 33.9877 107.001 34.286C107.001 34.5844 106.942 34.8798 106.827 35.1553C106.712 35.4307 106.544 35.6807 106.333 35.8909L100.91 41.2779C100.481 41.7033 99.9004 41.942 99.2958 41.942C98.6911 41.942 98.1109 41.7033 97.6813 41.2779Z" fill="#0099FF"/>
<path d="M102.112 45.1198C101.9 44.9096 101.732 44.6595 101.617 44.3841C101.502 44.1086 101.443 43.8132 101.443 43.5149C101.443 43.2165 101.502 42.9211 101.617 42.6456C101.732 42.3702 101.9 42.1202 102.112 41.91L109.433 34.6347C109.863 34.2084 110.444 33.9692 111.049 33.9692C111.654 33.9692 112.235 34.2084 112.665 34.6347C112.876 34.8449 113.044 35.095 113.159 35.3704C113.274 35.6459 113.333 35.9413 113.333 36.2397C113.333 36.538 113.274 36.8334 113.159 37.1089C113.044 37.3843 112.876 37.6344 112.665 37.8446L105.343 45.1198C104.913 45.5461 104.333 45.7853 103.727 45.7853C103.122 45.7853 102.541 45.5461 102.112 45.1198Z" fill="#FF6100"/>
</g>
<defs>
<clipPath id="clip0_401_1980">
<rect width="44.7761" height="50" fill="white" transform="translate(20 16)"/>
</clipPath>
<clipPath id="clip1_401_1980">
<rect width="100" height="17.9837" fill="white" transform="translate(97 32)"/>
</clipPath>
</defs>
</svg>
