<svg width="250" height="82" viewBox="0 0 250 82" fill="none" xmlns="http://www.w3.org/2000/svg">
<g clip-path="url(#clip0_401_28)">
<path d="M27.7073 48.5552L25.0918 49.5108L24.9526 57.2908L34.0062 53.9835C30.8983 52.9427 28.6318 51.1084 27.7073 48.5552Z" fill="#FDBD39"/>
<path d="M29.0764 40.3267L20 43.6423L25.0918 49.5131L27.7073 48.5575C26.7849 46.0126 27.3542 43.1395 29.0764 40.3267Z" fill="#F69833"/>
<path d="M44.3479 29.098C32.791 33.3194 25.3392 42.0322 27.7075 48.5554L69.5577 33.2674C67.1894 26.7442 55.9047 24.8766 44.3479 29.098Z" fill="#FECF33"/>
<path d="M52.9149 52.7269C64.4717 48.5055 71.936 39.8322 69.5553 33.2695L27.7051 48.5554C30.0858 55.1201 41.3581 56.9483 52.9149 52.7269Z" fill="#EE6723"/>
<path d="M69.5556 33.2671L27.7075 48.555C28.526 50.8153 31.6526 51.9288 36.036 51.9288C40.3114 51.9288 45.7834 50.8714 51.4881 48.7877C63.0449 44.5663 71.1739 37.7294 69.5556 33.2671Z" fill="#F69833"/>
<path d="M61.2268 29.8955C56.9535 29.8955 51.4795 30.9529 45.7748 33.0366C34.218 37.258 26.0889 44.0928 27.7072 48.5551L69.5574 33.2672C68.7368 31.0069 65.6123 29.8955 61.2268 29.8955Z" fill="#FDBD39"/>
<path d="M58.9147 57.7044C57.6828 57.7044 55.8671 56.593 53.5154 54.3992C50.7337 51.8045 47.549 48.0028 44.5429 43.6962C41.539 39.3897 39.071 35.0852 37.5918 31.5722C35.9818 27.7456 35.7512 25.3939 36.9083 24.5795C37.1763 24.3967 37.4942 24.3032 37.8183 24.3115C38.7593 24.3115 40.5958 25.0116 43.9883 28.3522L44.0631 28.4249L44.0527 28.5288C44.0298 28.7697 44.009 29.0107 43.9903 29.2496L43.953 29.7212L43.6206 29.3867C39.9643 25.7034 38.3563 25.3066 37.8328 25.3066C37.6832 25.3066 37.5648 25.3357 37.4796 25.396C36.9769 25.7491 36.9436 27.4776 38.5059 31.1858C39.958 34.6344 42.3907 38.8744 45.3552 43.1249C48.3218 47.3774 51.4588 51.121 54.1927 53.67C57.1385 56.4185 58.466 56.7156 58.9002 56.7156C59.0498 56.7156 59.1703 56.6844 59.2617 56.62C59.7914 56.2481 59.7914 54.3971 58.0505 50.4043L57.9695 50.2215L58.144 50.1259C58.3185 50.0303 58.4889 49.9369 58.6467 49.8454L58.8566 49.727L58.9542 49.9472C60.1882 52.7767 61.3433 56.3728 59.8288 57.4364C59.5608 57.6193 59.2409 57.7127 58.9147 57.7044ZM58.9147 57.2682V57.4863V57.2682Z" fill="#EE6723"/>
<path d="M53.1954 52.6064L53.1787 52.8225C52.8858 56.4372 52.1172 60.7832 50.1104 60.9598C50.0688 60.964 50.0273 60.964 49.9878 60.964C48.625 60.964 47.3349 59.0112 46.157 55.1617C45.0393 51.5178 44.173 46.6275 43.7181 41.3903C43.261 36.153 43.2672 31.1858 43.7367 27.4028C44.2478 23.2812 45.22 21.1289 46.6286 21.0043C46.6701 21.0001 46.7137 20.998 46.7553 20.998C47.7441 20.998 49.2337 22.1178 50.7585 27.3322L49.7634 27.5233C49.2544 25.7824 48.6998 24.3656 48.1492 23.3892C47.6403 22.4897 47.1438 21.9931 46.7553 21.9931C46.7428 21.9931 46.7303 21.9931 46.7158 21.9952C46.105 22.0492 45.2159 23.5284 44.7215 27.5254C44.2603 31.2399 44.254 36.1343 44.7048 41.303C45.1556 46.4738 46.0074 51.2914 47.1043 54.8687C47.5946 56.4705 48.1326 57.7917 48.6624 58.6871C49.1485 59.5139 49.6201 59.9689 49.9878 59.9689C50.0003 59.9689 50.0127 59.9689 50.0252 59.9668C50.6089 59.9169 51.71 58.3755 52.1733 52.9554L53.1954 52.6064Z" fill="#EE6723"/>
</g>
<g clip-path="url(#clip1_401_28)">
<path fill-rule="evenodd" clip-rule="evenodd" d="M99.5422 47.7546L95.5913 43.3364L107.685 38.9346L109.567 44.1073L99.5422 47.7546Z" fill="#F89920"/>
<path fill-rule="evenodd" clip-rule="evenodd" d="M99.5136 47.6727L99.3281 53.5999L111.422 49.1981L109.54 44.0254L99.5136 47.6727Z" fill="#FFBE22"/>
<path fill-rule="evenodd" clip-rule="evenodd" d="M133.121 35.541C134.847 40.541 129.287 47.1101 120.637 50.2592C111.988 53.4083 103.506 51.9501 101.614 47.0092L133.121 35.541Z" fill="#F0670A"/>
<path fill-rule="evenodd" clip-rule="evenodd" d="M133.122 35.541C131.242 30.5891 122.751 29.1246 114.093 32.2755C105.435 35.4265 99.871 42.0074 101.614 47.0001L133.122 35.541Z" fill="#FFD00E"/>
<path fill-rule="evenodd" clip-rule="evenodd" d="M133.121 35.541C134.197 38.8865 128.16 44.0865 119.538 47.2337C110.915 50.381 102.941 50.261 101.616 47.0083L133.121 35.541Z" fill="#F89920"/>
<path fill-rule="evenodd" clip-rule="evenodd" d="M133.121 35.5413C131.815 32.2721 123.83 32.1558 115.194 35.2994C106.558 38.4431 100.515 43.6631 101.616 47.0085L133.121 35.5413Z" fill="#FFBE22"/>
<path d="M118.586 31.0039C117.764 28.1585 116.827 26.5803 115.763 26.6103C113.705 26.6685 113.013 33.1948 113.679 41.5575C114.352 50.0094 116.097 56.3575 118.276 56.3003C119.574 56.2666 120.305 54.1894 120.562 50.5821C120.567 50.5094 120.485 50.5594 120.489 50.4839C120.489 50.4839 120.478 50.3521 120.43 50.3494L120.154 50.3312C119.926 53.8312 119.243 55.8494 118.263 55.8766C116.474 55.9221 114.745 49.643 114.099 41.5239C113.463 33.5376 114.148 27.0785 115.774 27.033C116.543 27.0112 117.406 28.4648 118.168 31.0857L118.586 30.9948V31.0039Z" fill="#F0670A"/>
<path d="M108.387 28.9729C106.632 30.0529 109.298 36.0502 114.056 42.9602C118.865 49.942 123.551 54.5675 125.408 53.4293C126.444 52.7929 126.153 50.862 124.817 47.9475C124.787 47.8748 124.721 47.8266 124.635 47.8175C124.55 47.8084 124.482 47.8448 124.439 47.9084C124.395 47.972 124.389 48.0539 124.424 48.1239C125.666 50.8329 125.933 52.6057 125.177 53.0693C123.65 54.0057 119.015 49.4293 114.395 42.7202C109.851 36.122 107.215 30.1875 108.6 29.3339C109.336 28.8811 111.083 29.9739 113.395 32.3339C113.421 32.3611 113.568 32.5129 113.601 32.5229C113.674 32.5448 113.638 32.3929 113.694 32.3366C113.734 32.2975 113.758 32.2439 113.758 32.1875C113.758 32.1311 113.737 32.0784 113.697 32.0375C111.228 29.5157 109.375 28.3575 108.377 28.972L108.387 28.9729Z" fill="#F0670A"/>
<path fill-rule="evenodd" clip-rule="evenodd" d="M152.191 43.9611H156.819V46.2729H149.493V36.6366H156.819V38.9493H152.191V40.1066H155.082V42.4202H152.191V43.9611ZM173.203 43.9611H177.444V46.2729H170.505V36.6366H173.205L173.203 43.9611ZM180.143 36.6357H182.843V46.2729H180.143V36.6357ZM185.925 36.6357V46.2729H188.431V40.8748L191.901 46.2729H194.407V36.6348H191.901V42.1129L188.431 36.6493L185.925 36.6357Z" fill="#574751"/>
<path d="M162.215 41.0693H164.146C164.298 41.0693 164.448 41.0394 164.589 40.9812C164.729 40.9231 164.856 40.8379 164.963 40.7305C165.071 40.6231 165.156 40.4956 165.214 40.3553C165.271 40.215 165.301 40.0647 165.301 39.9129C165.301 39.7611 165.272 39.6107 165.214 39.4703C165.156 39.3299 165.071 39.2023 164.964 39.0948C164.856 38.9873 164.729 38.902 164.589 38.8439C164.449 38.7856 164.298 38.7557 164.146 38.7557H162.215V41.0693H162.215ZM164.532 36.6357C165.401 36.6357 166.234 36.9811 166.848 37.5957C167.463 38.2102 167.807 39.0439 167.807 39.9139C167.807 40.7839 167.462 41.6166 166.848 42.232C166.235 42.8475 165.401 43.192 164.532 43.192H162.486V46.2729H159.71V36.6348H164.531L164.532 36.6357Z" fill="#574751"/>
<path fill-rule="evenodd" clip-rule="evenodd" d="M146.409 38.948V36.6362H138.506V38.9489H142.939L138.506 43.9616V46.2753H146.409V43.9616H142.169L146.409 38.948Z" fill="#574751"/>
</g>
<defs>
<clipPath id="clip0_401_28">
<rect width="50" height="39.9659" fill="white" transform="translate(20 21)"/>
</clipPath>
<clipPath id="clip1_401_28">
<rect width="100" height="30.9091" fill="white" transform="translate(95 26)"/>
</clipPath>
</defs>
</svg>
