<svg width="250" height="82" viewBox="0 0 250 82" fill="none" xmlns="http://www.w3.org/2000/svg">
<g clipPath="url(#clip0_401_2764)">
<path d="M21.7016 56.3141V50.1623H27.8534V63.7749H35.3141V46.7592H45V66C49.9445 66 54.778 64.5338 58.8893 61.7868C63.0005 59.0397 66.2048 55.1352 68.097 50.5671C69.9891 45.999 70.4843 40.9723 69.5196 36.1228C68.555 31.2732 66.174 26.8187 62.6776 23.3223C59.1814 19.826 54.7268 17.445 49.8772 16.4804C45.0277 15.5157 40.001 16.0108 35.4329 17.903C30.8648 19.7952 26.9603 22.9995 24.2133 27.1108C21.4662 31.222 20 36.0555 20 41H29.6859C29.6859 37.9712 30.584 35.0103 32.2668 32.4919C33.9495 29.9736 36.3412 28.0107 39.1395 26.8516C41.9378 25.6925 45.017 25.3892 47.9877 25.9801C50.9582 26.571 53.687 28.0296 55.8288 30.1713C57.9704 32.313 59.4289 35.0418 60.0199 38.0124C60.6107 40.983 60.3075 44.0622 59.1484 46.8605C57.9893 49.6588 56.0264 52.0505 53.5081 53.7332C50.9897 55.416 48.0288 56.3141 45 56.3141" fill="#0080FF"/>
</g>
<g clipPath="url(#clip1_401_2764)">
<path fillRule="evenodd" clipRule="evenodd" d="M103.428 49.7539V46.5097C106.892 46.5097 109.554 43.1064 108.233 39.484C107.752 38.1506 106.671 37.0758 105.33 36.5981C101.687 35.2845 98.2632 37.9515 98.2632 41.3748H95C95 35.9015 100.325 31.6224 106.091 33.4137C108.613 34.1899 110.615 36.2001 111.416 38.7079C113.218 44.4597 108.934 49.7539 103.428 49.7539Z" fill="#0069FF"/>
<path fillRule="evenodd" clipRule="evenodd" d="M103.428 46.5296H100.185V43.3053H103.428V46.5296Z" fill="#0069FF"/>
<path fillRule="evenodd" clipRule="evenodd" d="M100.185 49.0175H97.6821V46.5297H100.185V49.0175Z" fill="#0069FF"/>
<path fillRule="evenodd" clipRule="evenodd" d="M97.6831 46.5297H95.5811V44.4598H97.6631V46.5297H97.6831Z" fill="#0069FF"/>
<path fillRule="evenodd" clipRule="evenodd" d="M124.97 37.8719C124.009 37.2151 122.808 36.8767 121.406 36.8767H118.363V46.5097H121.406C122.808 46.5097 124.009 46.1515 124.97 45.4549C125.49 45.0767 125.911 44.5592 126.191 43.9024C126.471 43.2456 126.631 42.4893 126.631 41.6335C126.631 40.7777 126.491 40.0213 126.191 39.3845C125.911 38.7277 125.51 38.2102 124.97 37.8719ZM120.146 38.4889H121.107C122.168 38.4889 123.049 38.6879 123.709 39.1059C124.45 39.5438 124.831 40.3996 124.831 41.6137C124.831 42.8675 124.45 43.7433 123.709 44.2209C123.069 44.6389 122.208 44.8578 121.127 44.8578H120.166V38.4889H120.146Z" fill="#0069FF"/>
<path fillRule="evenodd" clipRule="evenodd" d="M128.774 36.7374C128.474 36.7374 128.233 36.8369 128.033 37.036C127.833 37.235 127.713 37.4738 127.713 37.7724C127.713 38.0709 127.813 38.3098 128.013 38.5287C128.213 38.7277 128.474 38.8272 128.774 38.8272C129.074 38.8272 129.314 38.7277 129.535 38.5287C129.735 38.3297 129.835 38.0709 129.835 37.7724C129.835 37.4738 129.735 37.235 129.535 37.036C129.314 36.8568 129.054 36.7374 128.774 36.7374Z" fill="#0069FF"/>
<path d="M129.614 39.7029H127.893V46.4897H129.614V39.7029Z" fill="#0069FF"/>
<path fillRule="evenodd" clipRule="evenodd" d="M135.839 40.2801C135.318 39.8223 134.738 39.5636 134.117 39.5636C133.176 39.5636 132.376 39.882 131.775 40.5388C131.154 41.1757 130.854 41.9917 130.854 42.967C130.854 43.9223 131.154 44.7383 131.755 45.3951C132.355 46.032 133.156 46.3505 134.097 46.3505C134.758 46.3505 135.318 46.1713 135.799 45.8131V45.9723C135.799 46.5296 135.639 46.9675 135.358 47.266C135.058 47.5645 134.638 47.7238 134.137 47.7238C133.336 47.7238 132.856 47.4053 132.235 46.6092L131.074 47.7238L131.114 47.7635C131.375 48.1218 131.755 48.4602 132.255 48.7786C132.756 49.0971 133.417 49.2762 134.157 49.2762C135.178 49.2762 135.999 48.9577 136.6 48.3408C137.2 47.7238 137.521 46.8878 137.521 45.8728V39.7029H135.839V40.2801ZM135.379 44.2806C135.079 44.619 134.698 44.7782 134.198 44.7782C133.697 44.7782 133.317 44.619 133.037 44.2806C132.736 43.9423 132.596 43.5044 132.596 42.9472C132.596 42.3898 132.736 41.952 133.037 41.6137C133.337 41.2753 133.717 41.1161 134.198 41.1161C134.698 41.1161 135.079 41.2753 135.379 41.6137C135.679 41.952 135.819 42.4098 135.819 42.9472C135.839 43.5044 135.679 43.9423 135.379 44.2806Z" fill="#0069FF"/>
<path d="M140.704 39.7029H138.982V46.4897H140.704V39.7029Z" fill="#0069FF"/>
<path fillRule="evenodd" clipRule="evenodd" d="M139.865 36.7374C139.564 36.7374 139.324 36.8369 139.124 37.036C138.924 37.235 138.804 37.4738 138.804 37.7724C138.804 38.0709 138.904 38.3098 139.104 38.5287C139.304 38.7277 139.564 38.8272 139.865 38.8272C140.165 38.8272 140.405 38.7277 140.625 38.5287C140.826 38.3297 140.926 38.0709 140.926 37.7724C140.926 37.4738 140.826 37.235 140.625 37.036C140.405 36.8568 140.165 36.7374 139.865 36.7374Z" fill="#0069FF"/>
<path fillRule="evenodd" clipRule="evenodd" d="M144.469 37.8718H142.787V39.7029H141.806V41.2553H142.787V44.0616C142.787 44.9373 142.967 45.5742 143.308 45.9325C143.668 46.2907 144.289 46.4897 145.149 46.4897C145.43 46.4897 145.71 46.4897 145.99 46.4698H146.07V44.9174L145.49 44.9572C145.089 44.9572 144.809 44.8776 144.669 44.7383C144.529 44.599 144.469 44.3005 144.469 43.8427V41.2752H146.07V39.7228H144.469V37.8718Z" fill="#0069FF"/>
<path fillRule="evenodd" clipRule="evenodd" d="M154.118 36.8568H155.839V46.4898H154.118V36.8568Z" fill="#0069FF"/>
<path fillRule="evenodd" clipRule="evenodd" d="M173.156 44.0617C172.856 44.4 172.535 44.6985 172.295 44.8577C172.055 45.0169 171.755 45.0767 171.415 45.0767C170.914 45.0767 170.494 44.8976 170.173 44.5194C169.853 44.1412 169.673 43.6636 169.673 43.0864C169.673 42.5092 169.833 42.0316 170.153 41.6534C170.474 41.2752 170.894 41.0961 171.395 41.0961C171.955 41.0961 172.535 41.4344 173.036 42.0316L174.177 40.9568C173.437 40.0015 172.496 39.5636 171.374 39.5636C170.433 39.5636 169.613 39.9019 168.952 40.5786C168.291 41.2553 167.951 42.0912 167.951 43.1063C167.951 44.1213 168.291 44.9772 168.952 45.634C169.613 46.3107 170.433 46.649 171.374 46.649C172.616 46.649 173.617 46.1116 174.297 45.1364L173.156 44.0617Z" fill="#0069FF"/>
<path fillRule="evenodd" clipRule="evenodd" d="M180.203 40.6583C179.963 40.3199 179.622 40.0413 179.222 39.8423C178.821 39.6432 178.341 39.5437 177.8 39.5437C176.84 39.5437 176.059 39.902 175.478 40.5787C174.898 41.2753 174.617 42.1311 174.617 43.1262C174.617 44.1612 174.938 44.9971 175.558 45.6539C176.179 46.2908 177.02 46.6291 178.041 46.6291C179.202 46.6291 180.143 46.1714 180.863 45.2558L180.904 45.2161L179.783 44.1413C179.682 44.2607 179.522 44.4 179.402 44.5394C179.242 44.6986 179.082 44.818 178.901 44.8976C178.641 45.017 178.361 45.0966 178.041 45.0966C177.56 45.0966 177.18 44.9573 176.879 44.6787C176.599 44.4199 176.439 44.0816 176.399 43.6437H180.943L180.964 43.0267C180.964 42.5889 180.904 42.1709 180.783 41.7729C180.623 41.3549 180.443 40.9966 180.203 40.6583ZM176.46 42.2506C176.54 41.9321 176.699 41.6535 176.9 41.4544C177.14 41.2355 177.44 41.1161 177.801 41.1161C178.221 41.1161 178.541 41.2355 178.762 41.4744C178.962 41.6933 179.082 41.952 179.102 42.2705H176.46V42.2506Z" fill="#0069FF"/>
<path fillRule="evenodd" clipRule="evenodd" d="M186.79 40.2204C186.27 39.7825 185.549 39.5636 184.648 39.5636C184.068 39.5636 183.547 39.683 183.067 39.9218C182.626 40.1408 182.186 40.5189 181.905 41.0165L181.926 41.0364L183.027 42.0912C183.487 41.3748 183.988 41.116 184.648 41.116C185.009 41.116 185.309 41.2155 185.529 41.3946C185.749 41.5738 185.869 41.8126 185.869 42.131V42.4694C185.449 42.35 185.028 42.2704 184.608 42.2704C183.747 42.2704 183.067 42.4694 182.546 42.8675C182.026 43.2655 181.766 43.8427 181.766 44.5592C181.766 45.1961 181.986 45.7136 182.426 46.0917C182.867 46.4699 183.427 46.649 184.088 46.649C184.748 46.649 185.349 46.3902 185.91 45.9325V46.4898H187.591V42.131C187.571 41.2951 187.311 40.6583 186.79 40.2204ZM183.747 43.9023C183.947 43.763 184.208 43.7033 184.568 43.7033C184.988 43.7033 185.428 43.783 185.869 43.9422V44.599C185.489 44.9373 184.988 45.1164 184.388 45.1164C184.087 45.1164 183.867 45.0567 183.707 44.9174C183.547 44.798 183.467 44.6388 183.467 44.4198C183.467 44.2009 183.547 44.0218 183.747 43.9023Z" fill="#0069FF"/>
<path fillRule="evenodd" clipRule="evenodd" d="M194.177 40.3398C193.697 39.8024 193.036 39.5437 192.175 39.5437C191.494 39.5437 190.934 39.7428 190.534 40.1209V39.703H188.852V46.4898H190.574V42.7481C190.574 42.2306 190.694 41.8325 190.934 41.534C191.174 41.2355 191.514 41.0962 191.955 41.0962C192.335 41.0962 192.636 41.2156 192.856 41.4743C193.076 41.733 193.176 42.0913 193.176 42.549V46.4699H194.898V42.549C194.898 41.6136 194.658 40.8772 194.177 40.3398Z" fill="#0069FF"/>
<path fillRule="evenodd" clipRule="evenodd" d="M151.957 40.2204C151.437 39.7825 150.716 39.5636 149.815 39.5636C149.235 39.5636 148.714 39.683 148.233 39.9218C147.793 40.1408 147.353 40.5189 147.072 41.0165L147.092 41.0364L148.193 42.0912C148.654 41.3748 149.154 41.116 149.815 41.116C150.175 41.116 150.475 41.2155 150.696 41.3946C150.916 41.5738 151.036 41.8126 151.036 42.131V42.4694C150.616 42.35 150.195 42.2704 149.775 42.2704C148.914 42.2704 148.233 42.4694 147.713 42.8675C147.192 43.2655 146.932 43.8427 146.932 44.5592C146.932 45.1961 147.152 45.7136 147.593 46.0917C148.033 46.4699 148.594 46.649 149.254 46.649C149.915 46.649 150.516 46.3902 151.076 45.9325V46.4898H152.758V42.131C152.738 41.2951 152.477 40.6583 151.957 40.2204ZM148.914 43.9023C149.114 43.763 149.374 43.7033 149.735 43.7033C150.155 43.7033 150.595 43.783 151.036 43.9422V44.599C150.655 44.9373 150.155 45.1164 149.554 45.1164C149.254 45.1164 149.034 45.0567 148.874 44.9174C148.714 44.798 148.633 44.6388 148.633 44.4198C148.633 44.2009 148.714 44.0218 148.914 43.9023Z" fill="#0069FF"/>
<path fillRule="evenodd" clipRule="evenodd" d="M162.045 46.6291C159.303 46.6291 157.061 44.3999 157.061 41.6732C157.061 38.9465 159.303 36.7174 162.045 36.7174C164.788 36.7174 167.03 38.9465 167.03 41.6732C167.03 44.3999 164.808 46.6291 162.045 46.6291ZM162.045 38.4491C160.263 38.4491 158.822 39.882 158.822 41.6534C158.822 43.4248 160.263 44.8578 162.045 44.8578C163.827 44.8578 165.268 43.4248 165.268 41.6534C165.268 39.882 163.827 38.4491 162.045 38.4491Z" fill="#0069FF"/>
</g>
<defs>
<clipPath id="clip0_401_2764">
<rect width="50" height="50" fill="white" transform="translate(20 16)"/>
</clipPath>
<clipPath id="clip1_401_2764">
<rect width="100" height="16.7539" fill="white" transform="translate(95 33)"/>
</clipPath>
</defs>
</svg>
