<svg width="250" height="82" viewBox="0 0 250 82" fill="none" xmlns="http://www.w3.org/2000/svg">
<g clipPath="url(#clip0_401_3080)">
<path d="M52.7643 25.0769C50.8942 27.5769 50.4422 28.4099 48.637 28.4099H21.6826V60.4615H32.2583C34.6442 60.4615 36.9651 59.3077 38.4483 57.3846C40.3834 54.821 40.6405 54.0517 42.5107 54.0517H69.5299V22H58.8893C56.5036 22 54.1838 23.1538 52.7643 25.0769ZM61.1465 45.7825H49.8617C47.4109 45.7825 45.1549 46.8077 43.6718 48.7944C41.7367 51.3594 41.3497 52.1287 39.5443 52.1287H30.0011V36.744H41.2859C43.7355 36.744 45.9926 35.5901 47.4759 33.6671C49.4109 31.1671 49.9267 30.3978 51.667 30.3978H61.1465V45.7825Z" fill="black"/>
</g>
<path d="M147.312 35.1331C145.964 35.1331 144.924 35.6137 143.959 36.6169V35.3669H141.31V47.6669H144.16V40.5331C144.16 38.9 145.132 37.8669 146.608 37.8669C146.876 37.8669 147.111 37.9 147.279 37.9331L149.257 35.3331C148.486 35.2 147.815 35.1331 147.312 35.1331H147.312ZM171.891 35.3669H168.604L165.57 39.3787L162.536 35.3663H159.249L163.886 41.5644L159.249 47.6669H162.603L165.553 43.7756L168.504 47.6669H171.891L167.223 41.5744L171.891 35.3669ZM112.038 32.6C111.065 33.9 110.83 34.3331 109.891 34.3331H95.875V51H101.374C102.615 51 103.822 50.4 104.593 49.4C105.599 48.0669 105.733 47.6669 106.706 47.6669H120.756V31H115.222C113.982 31 112.775 31.6 112.037 32.6H112.038ZM116.396 43.3669H110.528C109.254 43.3669 108.081 43.9 107.309 44.9331C106.303 46.2669 106.102 46.6669 105.163 46.6669H100.201V38.6669H106.069C107.342 38.6669 108.516 38.0669 109.288 37.0669C110.294 35.7669 110.562 35.3669 111.467 35.3669H116.396V43.3669ZM137.454 39.2669C138.695 38.5669 139.566 37.3331 139.566 35.7C139.566 33.3 137.722 31 135.04 31H126.993V47.6669H135.04C137.957 47.6669 139.969 45.6 139.969 43C139.969 41.4669 139.265 40.1331 137.454 39.2669ZM129.842 33.6H134.805C136.046 33.6 136.783 34.7669 136.783 35.8C136.783 37.0669 135.677 37.9331 134.638 37.9331H129.842V33.6ZM134.638 45.0669H129.842V40.5331H134.805C136.079 40.5331 137.119 41.6331 137.119 42.7669C137.119 44.0331 135.811 45.0669 134.638 45.0669Z" fill="black"/>
<path d="M156.399 44.1331C155.93 44.8668 155.024 45.2999 154.018 45.2999C152.443 45.2999 151.135 44.2331 151.135 42.5999H159.652C159.786 42.0999 159.819 41.8668 159.819 41.4331C159.819 37.6999 157.505 35.1331 154.018 35.1331C150.598 35.1331 148.184 37.5668 148.184 41.5331C148.184 45.3999 150.497 47.8999 154.085 47.8999C156.6 47.8999 158.813 46.6668 159.45 44.1331H156.399ZM154.018 37.7331C155.594 37.7331 156.802 38.7331 156.768 40.2331H151.168C151.168 38.7668 152.443 37.7331 154.018 37.7331Z" fill="black"/>
<defs>
<clipPath id="clip0_401_3080">
<rect width="50" height="38.4615" fill="white" transform="translate(20 22)"/>
</clipPath>
</defs>
</svg>
