<svg width="250" height="82" viewBox="0 0 250 82" fill="none" xmlns="http://www.w3.org/2000/svg">
<g clip-path="url(#clip0_401_1314)">
<path d="M37.1875 64.7346V49.7971H52.8123V55.9065C52.8083 58.2493 51.8747 60.4948 50.2167 62.1499C48.5586 63.8049 46.3114 64.7346 43.9688 64.7346H37.1875Z" fill="#88CFB0"/>
<path d="M43.9375 66.0002H35.9688V48.5315H54.0311V55.9065C54.027 58.5823 52.9623 61.1473 51.0702 63.0393C49.1781 64.9313 46.6131 65.9962 43.9375 66.0002ZM38.4844 63.469H43.9375C45.9447 63.469 47.8698 62.6727 49.2905 61.2549C50.7111 59.8371 51.5114 57.9137 51.5156 55.9065V51.0627H38.4844V63.469Z" fill="#2F2F3A"/>
<path d="M53.1875 49.3757V33.532H68.8125V40.532C68.8145 41.6926 68.5878 42.8421 68.145 43.9151C67.7022 44.9881 67.0523 45.9631 66.2323 46.7845C65.4123 47.606 64.4384 48.2576 63.3664 48.7021C62.2942 49.1468 61.145 49.3757 59.9844 49.3757H53.1875Z" fill="#F2C94C"/>
<path d="M59.9063 50.6414H51.9219V32.2664H70V40.5321C70 43.2104 68.937 45.7795 67.0447 47.675C65.152 49.5703 62.5847 50.6371 59.9063 50.6414ZM54.4531 48.1101H59.9063C61.9134 48.106 63.8369 47.3057 65.2547 45.8851C66.6725 44.4643 67.4688 42.5392 67.4688 40.5321V34.7507H54.4531V48.1101Z" fill="#2F2F3A"/>
<path d="M52.7656 33.532H37.2188V49.3757H52.7656V33.532Z" fill="#BD83CE"/>
<path d="M54.0311 50.6414H35.9688V32.2664H54.0311V50.6414ZM38.4061 48.1101H51.4375V34.7507H38.4844L38.4061 48.1101Z" fill="#2F2F3A"/>
<path d="M21.2656 33.1874V26.0938C21.2656 23.7524 22.1957 21.5069 23.8513 19.8513C25.5069 18.1957 27.7524 17.2656 30.0938 17.2656H36.8124V33.1874H21.2656Z" fill="#40BE88"/>
<path d="M38.0781 34.375H20V26.0938C20.0041 23.418 21.0689 20.853 22.961 18.961C24.853 17.0689 27.418 16.0041 30.0938 16H38.0781V34.375ZM22.5312 31.8438H35.625V18.5312H30.0938C28.088 18.5312 26.1645 19.328 24.7463 20.7463C23.328 22.1645 22.5312 24.088 22.5312 26.0938V31.8438Z" fill="#2F2F3A"/>
<path d="M53.1875 33.1874V17.2656H59.9063C62.2477 17.2656 64.493 18.1957 66.1488 19.8513C67.8042 21.5069 68.7344 23.7524 68.7344 26.0938V33.1874H53.1875Z" fill="#FF7474"/>
<path d="M70 34.375H51.9219V16H59.9063C62.582 16.0041 65.147 17.0689 67.0391 18.961C68.9311 20.853 69.9958 23.418 70 26.0938V34.375ZM54.4531 31.8438H67.4688V26.0938C67.4688 24.088 66.672 22.1645 65.2537 20.7463C63.8356 19.328 61.9119 18.5312 59.9063 18.5312H54.4531V31.8438Z" fill="#2F2F3A"/>
<path d="M52.7656 17.2656H37.2188V33.1093H52.7656V17.2656Z" fill="#6776F9"/>
<path d="M54.0311 34.375H35.9688V16H54.0311V34.375ZM38.4061 31.8438H51.4375V18.5312H38.4844L38.4061 31.8438Z" fill="#2F2F3A"/>
<path d="M21.2656 55.9065V49.7971H36.8905V64.7346H30.0938C27.7524 64.7346 25.5069 63.8045 23.8513 62.149C22.1957 60.4934 21.2656 58.2479 21.2656 55.9065Z" fill="#37C2E2"/>
<path d="M38.0781 66.0002H30.0938C27.418 65.9962 24.853 64.9313 22.961 63.0393C21.0689 61.1473 20.0041 58.5823 20 55.9065V48.5315H38.0781V66.0002ZM22.5312 51.0627V55.9065C22.5312 57.9123 23.328 59.8357 24.7463 61.254C26.1645 62.6723 28.088 63.469 30.0938 63.469H35.625V51.0627H22.5312Z" fill="#2F2F3A"/>
<path d="M36.8124 33.532H21.2656V49.3757H36.8124V33.532Z" fill="#F2994A"/>
<path d="M38.0781 50.6414H20V32.2664H38.0781V50.6414ZM22.5312 48.1101H35.625V34.7507H22.5312V48.1101Z" fill="#2F2F3A"/>
</g>
<g clip-path="url(#clip1_401_1314)">
<path d="M119.692 51.8113V45.126H126.685V47.8602C126.684 48.9088 126.266 49.9137 125.524 50.6545C124.782 51.3952 123.776 51.8113 122.727 51.8113H119.692Z" fill="#88CFB0"/>
<path d="M122.713 52.3778H119.147V44.5596H127.231V47.8603C127.229 49.0578 126.752 50.2058 125.906 51.0526C125.059 51.8994 123.911 52.3759 122.713 52.3778ZM120.273 51.2449H122.713C123.612 51.2449 124.473 50.8885 125.109 50.254C125.745 49.6194 126.103 48.7586 126.105 47.8603V45.6924H120.273V51.2449Z" fill="#2F2F3A"/>
<path d="M126.853 44.9373V37.8464H133.846V40.9793C133.847 41.4987 133.745 42.0132 133.547 42.4934C133.349 42.9736 133.058 43.41 132.691 43.7776C132.324 44.1453 131.888 44.4369 131.409 44.6359C130.929 44.8349 130.414 44.9373 129.895 44.9373H126.853Z" fill="#F2C94C"/>
<path d="M129.86 45.5038H126.287V37.28H134.378V40.9794C134.378 42.1781 133.902 43.3279 133.055 44.1762C132.208 45.0244 131.059 45.5019 129.86 45.5038ZM127.419 44.3709H129.86C130.758 44.3691 131.619 44.0109 132.254 43.3751C132.888 42.7393 133.245 41.8777 133.245 40.9794V38.3919H127.419V44.3709Z" fill="#2F2F3A"/>
<path d="M126.664 37.8464H119.706V44.9373H126.664V37.8464Z" fill="#BD83CE"/>
<path d="M127.231 45.5038H119.147V37.28H127.231V45.5038ZM120.238 44.3709H126.07V38.3919H120.273L120.238 44.3709Z" fill="#2F2F3A"/>
<path d="M112.566 37.6923V34.5175C112.566 33.4696 112.983 32.4646 113.724 31.7236C114.465 30.9827 115.47 30.5664 116.517 30.5664H119.524V37.6923H112.566Z" fill="#40BE88"/>
<path d="M120.091 38.2238H112V34.5175C112.002 33.3199 112.478 32.172 113.325 31.3252C114.172 30.4784 115.32 30.0018 116.517 30H120.091V38.2238ZM113.133 37.0909H118.993V31.1329H116.517C115.62 31.1329 114.759 31.4895 114.124 32.1242C113.489 32.7589 113.133 33.6198 113.133 34.5175V37.0909Z" fill="#2F2F3A"/>
<path d="M126.853 37.6923V30.5664H129.86C130.908 30.5664 131.913 30.9827 132.654 31.7236C133.395 32.4646 133.811 33.4696 133.811 34.5175V37.6923H126.853Z" fill="#FF7474"/>
<path d="M134.378 38.2238H126.287V30H129.86C131.058 30.0018 132.206 30.4784 133.052 31.3252C133.899 32.172 134.376 33.3199 134.378 34.5175V38.2238ZM127.419 37.0909H133.245V34.5175C133.245 33.6198 132.888 32.7589 132.253 32.1242C131.619 31.4895 130.758 31.1329 129.86 31.1329H127.419V37.0909Z" fill="#2F2F3A"/>
<path d="M126.664 30.5664H119.706V37.6573H126.664V30.5664Z" fill="#6776F9"/>
<path d="M127.231 38.2238H119.147V30H127.231V38.2238ZM120.238 37.0909H126.07V31.1329H120.273L120.238 37.0909Z" fill="#2F2F3A"/>
<path d="M112.566 47.8602V45.126H119.559V51.8113H116.517C115.47 51.8113 114.465 51.395 113.724 50.6541C112.983 49.9131 112.566 48.9081 112.566 47.8602Z" fill="#37C2E2"/>
<path d="M120.091 52.3778H116.517C115.32 52.3759 114.172 51.8994 113.325 51.0526C112.478 50.2058 112.002 49.0578 112 47.8603V44.5596H120.091V52.3778ZM113.133 45.6924V47.8603C113.133 48.758 113.489 49.6188 114.124 50.2536C114.759 50.8883 115.62 51.2449 116.517 51.2449H118.993V45.6924H113.133Z" fill="#2F2F3A"/>
<path d="M119.524 37.8464H112.566V44.9373H119.524V37.8464Z" fill="#F2994A"/>
<path d="M120.091 45.5038H112V37.28H120.091V45.5038ZM113.133 44.3709H118.993V38.3919H113.133V44.3709Z" fill="#2F2F3A"/>
<path d="M142.591 45.7934V34.1873H146.536C147.523 34.1873 148.367 34.3453 149.068 34.6613C149.781 34.9773 150.323 35.4351 150.696 36.0344C151.068 36.6338 151.255 37.3585 151.255 38.2085C151.255 38.7971 151.139 39.3365 150.909 39.8268C150.69 40.3173 150.372 40.7423 149.956 41.1019C149.55 41.4506 149.063 41.7231 148.493 41.9192C147.923 42.1045 147.287 42.1971 146.586 42.1971C146.213 42.1971 145.819 42.1645 145.402 42.099V45.7934H142.591ZM145.402 36.5575V39.7452C145.786 39.7996 146.136 39.8268 146.454 39.8268C147.068 39.8268 147.539 39.6906 147.868 39.4182C148.208 39.1349 148.378 38.7261 148.378 38.1922C148.378 37.6691 148.213 37.2659 147.884 36.9825C147.567 36.6992 147.101 36.5575 146.487 36.5575H145.402Z" fill="black"/>
<path d="M155.952 46.0386C155.294 46.0386 154.681 45.9241 154.111 45.6953C153.552 45.4665 153.059 45.145 152.631 44.7309C152.215 44.3167 151.891 43.8318 151.661 43.276C151.431 42.7202 151.316 42.1154 151.316 41.4616C151.316 40.8077 151.431 40.2029 151.661 39.6471C151.902 39.0804 152.231 38.59 152.648 38.1759C153.075 37.7509 153.574 37.4239 154.144 37.1951C154.724 36.9553 155.349 36.8354 156.018 36.8354C156.675 36.8354 157.284 36.9499 157.843 37.1787C158.412 37.4076 158.906 37.7345 159.322 38.1595C159.75 38.5737 160.078 39.0586 160.309 39.6144C160.539 40.1702 160.654 40.775 160.654 41.4289C160.654 42.0827 160.533 42.693 160.292 43.2597C160.062 43.8155 159.733 44.3004 159.306 44.7145C158.889 45.1286 158.391 45.4556 157.81 45.6953C157.24 45.9241 156.621 46.0386 155.952 46.0386ZM155.985 43.6357C156.346 43.6357 156.675 43.543 156.971 43.3578C157.267 43.1616 157.497 42.9001 157.662 42.5731C157.837 42.2353 157.925 41.8593 157.925 41.4452C157.925 41.0202 157.837 40.6442 157.662 40.3173C157.497 39.9795 157.267 39.7179 156.971 39.5327C156.675 39.3365 156.346 39.2384 155.985 39.2384C155.623 39.2384 155.294 39.3365 154.998 39.5327C154.703 39.7179 154.467 39.9795 154.292 40.3173C154.127 40.6442 154.045 41.0202 154.045 41.4452C154.045 41.8593 154.127 42.2353 154.292 42.5731C154.467 42.9001 154.703 43.1616 154.998 43.3578C155.294 43.543 155.623 43.6357 155.985 43.6357Z" fill="black"/>
<path d="M161.327 45.7935V33.5662H164.006V45.7935H161.327Z" fill="black"/>
<path d="M166.682 49.161C166.364 49.161 166.063 49.1283 165.778 49.0629C165.493 48.9975 165.225 48.894 164.973 48.7523L165.449 46.709C165.57 46.7635 165.712 46.8125 165.877 46.8561C166.052 46.8997 166.216 46.9214 166.37 46.9214C166.666 46.9214 166.923 46.8289 167.143 46.6435C167.362 46.4692 167.548 46.1914 167.702 45.8099L167.767 45.6628L164.266 37.0808H167.208L169.017 42.8021L170.628 37.0808H173.472L169.987 46.4147C169.636 47.352 169.192 48.044 168.655 48.4907C168.118 48.9376 167.46 49.161 166.682 49.161Z" fill="black"/>
<path d="M176.119 45.7935L173.226 37.0808H176.021L177.402 42.5896L178.98 37.0808H181.347L182.926 42.6223L184.356 37.0808H187.052L184.159 45.7935H181.676L180.131 40.3337L178.569 45.7935H176.119Z" fill="black"/>
<path d="M191.295 46.0386C190.637 46.0386 190.024 45.9241 189.454 45.6953C188.895 45.4665 188.402 45.145 187.974 44.7309C187.558 44.3167 187.235 43.8318 187.004 43.276C186.774 42.7202 186.659 42.1154 186.659 41.4616C186.659 40.8077 186.774 40.2029 187.004 39.6471C187.245 39.0804 187.574 38.59 187.991 38.1759C188.418 37.7509 188.917 37.4239 189.486 37.1951C190.068 36.9553 190.692 36.8354 191.361 36.8354C192.019 36.8354 192.626 36.9499 193.186 37.1787C193.756 37.4076 194.249 37.7345 194.665 38.1595C195.093 38.5737 195.421 39.0586 195.651 39.6144C195.882 40.1702 195.997 40.775 195.997 41.4289C195.997 42.0827 195.876 42.693 195.635 43.2597C195.405 43.8155 195.077 44.3004 194.649 44.7145C194.233 45.1286 193.733 45.4556 193.153 45.6953C192.583 45.9241 191.963 46.0386 191.295 46.0386ZM191.328 43.6357C191.689 43.6357 192.019 43.543 192.314 43.3578C192.61 43.1616 192.84 42.9001 193.005 42.5731C193.18 42.2353 193.268 41.8593 193.268 41.4452C193.268 41.0202 193.18 40.6442 193.005 40.3173C192.84 39.9795 192.61 39.7179 192.314 39.5327C192.019 39.3365 191.689 39.2384 191.328 39.2384C190.966 39.2384 190.638 39.3365 190.342 39.5327C190.046 39.7179 189.81 39.9795 189.635 40.3173C189.47 40.6442 189.388 41.0202 189.388 41.4452C189.388 41.8593 189.47 42.2353 189.635 42.5731C189.81 42.9001 190.046 43.1616 190.342 43.3578C190.638 43.543 190.966 43.6357 191.328 43.6357Z" fill="black"/>
<path d="M196.67 45.7935V37.0807H199.136L199.234 38.4702C199.443 37.9907 199.733 37.6202 200.106 37.3586C200.479 37.0971 200.912 36.9663 201.404 36.9663C201.547 36.9663 201.69 36.9772 201.832 36.999C201.975 37.0208 202.101 37.0589 202.21 37.1135L201.947 39.7616C201.827 39.718 201.701 39.6907 201.569 39.6798C201.448 39.6581 201.322 39.6472 201.191 39.6472C200.578 39.6472 200.117 39.8216 199.81 40.1702C199.503 40.5081 199.35 41.004 199.35 41.6578V45.7935H196.67Z" fill="black"/>
<path d="M202.644 45.7935V33.5662H205.324V40.5625L208.217 37.0807H211.259L207.905 40.9385L211.653 45.7935H208.348L205.324 41.5106V45.7935H202.644Z" fill="black"/>
</g>
<defs>
<clipPath id="clip0_401_1314">
<rect width="50" height="50" fill="white" transform="translate(20 16)"/>
</clipPath>
<clipPath id="clip1_401_1314">
<rect width="100" height="22.3776" fill="white" transform="translate(112 30)"/>
</clipPath>
</defs>
</svg>
