<svg width="250" height="82" viewBox="0 0 250 82" fill="none" xmlns="http://www.w3.org/2000/svg">
<g clip-path="url(#clip0_401_2256)">
<path d="M50.4694 65.5101C62.3605 65.5101 72.0001 56.2047 72.0001 44.7258C72.0001 33.2469 62.3605 23.9413 50.4694 23.9413C38.5782 23.9413 28.9385 33.2469 28.9385 44.7258C28.9385 56.2047 38.5782 65.5101 50.4694 65.5101Z" fill="black"/>
<path d="M44.9126 61.1545C57.4192 61.1545 67.6304 51.3571 67.6304 39.183C67.6304 27.009 57.4192 17.2114 44.9126 17.2114C32.4061 17.2114 22.1948 27.009 22.1948 39.183C22.1948 51.3571 32.4061 61.1545 44.9126 61.1545Z" fill="#FF90E8" stroke="black" stroke-width="1.5625"/>
<path d="M43.2038 50.2677C36.8459 50.2677 33.106 45.1307 33.106 38.7406C33.106 32.0998 37.2198 26.7122 45.0736 26.7122C53.1769 26.7122 55.9193 32.2253 56.044 35.3575H50.1849C50.0603 33.6034 48.5642 30.9722 44.949 30.9722C41.0846 30.9722 38.5912 34.3552 38.5912 38.49C38.5912 42.6248 41.0846 46.0076 44.949 46.0076C48.4397 46.0076 49.9356 43.2512 50.559 40.4948H44.949V38.2394H56.7204V49.7665H51.5562V42.4994C51.1821 45.1307 49.5615 50.2677 43.2038 50.2677Z" fill="black"/>
</g>
<g clip-path="url(#clip1_401_2256)">
<path d="M154.437 34.0002C152.371 34.0002 150.352 35.8711 150.12 38.5742V34.2231H147.153V47.3428H150.156V40.9923C150.156 39.2134 151.417 36.7041 154.437 36.7041V34.0002Z" fill="black"/>
<path d="M185.939 45.2424V36.2538H187.679C189.998 36.2538 191.883 37.7036 191.883 40.6756C191.883 43.6476 189.998 45.2424 187.679 45.2424H185.939ZM182.967 47.3446H188.041C191.158 47.3446 195 45.3149 195 40.6756C195 36.1088 191.158 34.2241 188.041 34.2241H182.967V47.3446Z" fill="black"/>
<path d="M171.595 40.8208C171.595 38.4286 172.827 36.4715 174.857 36.4715C176.814 36.4715 177.901 38.4286 177.901 40.8208C177.901 43.2129 176.814 45.1701 174.857 45.1701C172.827 45.1701 171.595 43.2129 171.595 40.8208ZM168.55 40.9657C168.55 44.8801 170.58 47.6347 173.769 47.6347C176.089 47.6347 177.466 46.1125 178.191 43.6478V47.3448H181.163V34.2243H178.191V37.7038C177.539 35.3841 176.162 34.0068 173.987 34.0068C170.725 34.0068 168.55 36.9789 168.55 40.9657Z" fill="black"/>
<path d="M100.872 47.6347C97.1747 47.6347 95 44.6627 95 40.9657C95 37.1239 97.3921 34.0068 101.959 34.0068C106.671 34.0068 108.265 37.1963 108.338 39.0085H104.931C104.858 37.9937 103.989 36.4715 101.886 36.4715C99.6393 36.4715 98.1895 38.4286 98.1895 40.8208C98.1895 43.2129 99.6393 45.1701 101.886 45.1701C103.916 45.1701 104.786 43.5754 105.148 41.9806H101.886V40.6758H108.731V47.3448H105.728V43.1404C105.511 44.6627 104.568 47.6347 100.872 47.6347Z" fill="black"/>
<path d="M114.82 47.6345C111.993 47.6345 110.253 45.7498 110.253 41.9804V34.2241H113.297V41.9804C113.297 43.9376 114.24 44.88 115.835 44.88C118.952 44.88 120.111 41.038 120.111 38.356V34.2241H123.156V47.3446H120.184V42.4878C119.604 45.1699 118.009 47.6345 114.82 47.6345Z" fill="black"/>
<path d="M141.349 34C138.751 34 137.113 36.5092 136.578 38.8292C136.487 35.7201 134.958 34 132.511 34C130.398 34 128.437 35.8849 127.927 38.8668V34.2232H124.959V47.344H127.965V42.6402C127.965 41.4741 128.452 36.6886 131.478 36.6886C133.438 36.6886 133.642 38.4568 133.642 40.8738V47.344H136.647V42.6402C136.647 41.4741 137.153 36.6886 140.179 36.6886C142.138 36.6886 142.34 38.4568 142.34 40.8738V47.344H145.349V39.5831C145.362 35.8599 144.048 34 141.349 34Z" fill="black"/>
<path d="M160.887 34C156.995 34 154.358 37.0513 154.358 40.8174C154.358 44.9671 156.866 47.6347 160.887 47.6347C164.778 47.6347 167.462 44.5835 167.462 40.8174C167.462 36.6677 164.905 34 160.887 34ZM160.887 45.3123C158.621 45.3123 157.154 43.3944 157.154 40.8174C157.154 38.2404 158.626 36.3224 160.887 36.3224C163.147 36.3224 164.56 38.2404 164.56 40.8174C164.56 43.3944 163.145 45.3123 160.887 45.3123Z" fill="black"/>
</g>
<defs>
<clipPath id="clip0_401_2256">
<rect width="52" height="50" fill="white" transform="translate(20 16)"/>
</clipPath>
<clipPath id="clip1_401_2256">
<rect width="100" height="13.6364" fill="white" transform="translate(95 34)"/>
</clipPath>
</defs>
</svg>
