<svg width="250" height="82" viewBox="0 0 250 82" fill="none" xmlns="http://www.w3.org/2000/svg">
<path d="M57.8925 42.9692C64.1248 42.9692 69.1771 37.9168 69.1771 31.6845C69.1771 25.4522 64.1248 20.3999 57.8925 20.3999C51.6602 20.3999 46.6079 25.4522 46.6079 31.6845C46.6079 37.9168 51.6602 42.9692 57.8925 42.9692Z" fill="#171D26"/>
<path d="M43.2307 20.3538H20.6538V42.9307H43.2307V20.3538Z" fill="white"/>
<path d="M57.8926 47.7461L69.6773 68.5999H46.1157L57.8926 47.7461Z" fill="#FFC550"/>
<path d="M31.9384 68.7614C38.1707 68.7614 43.223 63.7091 43.223 57.4768C43.223 51.2444 38.1707 46.1921 31.9384 46.1921C25.7061 46.1921 20.6538 51.2444 20.6538 57.4768C20.6538 63.7091 25.7061 68.7614 31.9384 68.7614Z" fill="#5263F3"/>
<g clip-path="url(#clip0_401_1018)">
<path d="M128.254 43.4279C130.269 43.4279 131.903 41.7941 131.903 39.7787C131.903 37.7632 130.269 36.1294 128.254 36.1294C126.238 36.1294 124.604 37.7632 124.604 39.7787C124.604 41.7941 126.238 43.4279 128.254 43.4279Z" fill="#171D26"/>
<path d="M123.512 36.1145H116.211V43.4155H123.512V36.1145Z" fill="white"/>
<path d="M128.254 44.9727L130.159 48.3433L132.065 51.7164H128.254H124.445L126.348 48.3433L128.254 44.9727Z" fill="#FFC550"/>
<path d="M119.861 51.7687C121.876 51.7687 123.51 50.1349 123.51 48.1195C123.51 46.104 121.876 44.4702 119.861 44.4702C117.845 44.4702 116.211 46.104 116.211 48.1195C116.211 50.1349 117.845 51.7687 119.861 51.7687Z" fill="#5263F3"/>
<path d="M143.01 41.4006V43.7339C142.71 43.6047 142.386 43.541 142.06 43.5473C140.594 43.5473 139.522 44.7041 139.522 46.4976V51.7215H137.035V41.4006H139.522V42.9279C140.079 41.8956 140.967 41.2364 142.102 41.2364C142.412 41.234 142.72 41.2897 143.01 41.4006Z" fill="#171D26"/>
<path d="M153.426 47.015H145.217C145.403 48.6642 146.642 49.7812 148.189 49.7812C148.733 49.7909 149.268 49.6542 149.741 49.3855C150.213 49.1167 150.604 48.7258 150.873 48.2538L152.978 49.0996C152.152 50.811 150.356 51.9254 148.251 51.9254C144.804 51.9254 142.699 49.5523 142.699 46.5598C142.699 43.5672 144.97 41.1941 148.189 41.1941C151.174 41.1941 153.431 43.3409 153.473 46.4777L153.426 47.015ZM145.441 45.1991H150.744C150.586 44.6365 150.244 44.1433 149.772 43.7987C149.3 43.454 148.726 43.2779 148.142 43.2986C147.548 43.2847 146.964 43.4618 146.478 43.8038C145.992 44.1459 145.628 44.6349 145.441 45.1991Z" fill="#171D26"/>
<path d="M153.809 46.5598C153.809 43.4851 156.264 41.1941 159.381 41.1941C161.62 41.1941 163.55 42.3906 164.396 44.4279L162.157 45.3558C161.937 44.7989 161.553 44.3225 161.055 43.9904C160.557 43.6582 159.969 43.4863 159.371 43.4976C157.575 43.4976 156.296 44.7787 156.296 46.5523C156.296 48.3259 157.575 49.607 159.371 49.607C159.969 49.6183 160.557 49.4464 161.055 49.1142C161.553 48.7821 161.937 48.3057 162.157 47.7488L164.396 48.6792C163.55 50.7215 161.629 51.913 159.381 51.913C156.251 51.9254 153.809 49.6344 153.809 46.5598Z" fill="#171D26"/>
<path d="M165.127 36.2412H167.615V51.7188H165.127V36.2412Z" fill="#171D26"/>
<path d="M179.679 41.4005V51.7189H177.192V50.4751C176.406 51.383 175.252 51.9179 173.764 51.9179C170.978 51.9179 168.667 49.5447 168.667 46.5522C168.667 43.5597 170.978 41.1865 173.764 41.1865C175.257 41.1865 176.406 41.7238 177.192 42.6318V41.388L179.679 41.4005ZM177.264 46.5597C177.264 45.9556 177.085 45.3651 176.749 44.8628C176.414 44.3605 175.937 43.969 175.379 43.7377C174.821 43.5064 174.207 43.4458 173.614 43.5634C173.022 43.6811 172.477 43.9718 172.05 44.3988C171.623 44.8257 171.332 45.3698 171.214 45.9622C171.095 46.5546 171.156 47.1687 171.386 47.7269C171.617 48.2852 172.008 48.7624 172.51 49.0984C173.012 49.4343 173.603 49.6139 174.207 49.6144C174.608 49.616 175.006 49.5381 175.377 49.3851C175.748 49.2321 176.085 49.0071 176.369 48.723C176.652 48.439 176.877 48.1015 177.029 47.7302C177.181 47.3589 177.259 46.961 177.257 46.5597H177.264Z" fill="#171D26"/>
<path d="M181.135 37.5199C181.129 37.2236 181.212 36.9324 181.373 36.6834C181.533 36.4343 181.764 36.2388 182.037 36.1216C182.309 36.0044 182.61 35.971 182.901 36.0254C183.192 36.0799 183.461 36.2198 183.672 36.4274C183.884 36.635 184.029 36.9009 184.089 37.1911C184.148 37.4814 184.121 37.7829 184.008 38.0572C183.896 38.3315 183.705 38.5663 183.459 38.7315C183.213 38.8968 182.923 38.985 182.627 38.9851C182.236 38.9851 181.86 38.8317 181.581 38.5576C181.302 38.2836 181.142 37.911 181.135 37.5199ZM181.361 41.4005H183.848V51.7189H181.361V41.4005Z" fill="#171D26"/>
<path d="M200.326 45.1767V51.7189H197.838V45.3632C197.846 45.1187 197.805 44.875 197.715 44.6472C197.626 44.4193 197.491 44.2121 197.319 44.0382C197.147 43.8642 196.941 43.7272 196.715 43.6356C196.488 43.5439 196.244 43.4994 196 43.505C194.905 43.505 194.184 44.3731 194.184 45.4453V51.7189H191.696V45.3632C191.705 45.1188 191.664 44.8752 191.575 44.6474C191.486 44.4195 191.351 44.2123 191.179 44.0383C191.007 43.8643 190.802 43.7273 190.575 43.6356C190.348 43.5439 190.105 43.4994 189.861 43.505C188.746 43.505 188.045 44.3731 188.045 45.4453V51.7189H185.557V41.4005H188.045V42.413C188.341 42.0385 188.716 41.7348 189.145 41.5239C189.573 41.3131 190.043 41.2004 190.52 41.194C191.101 41.208 191.671 41.3615 192.181 41.6416C192.691 41.9216 193.126 42.3201 193.45 42.8035C193.786 42.3028 194.241 41.8935 194.774 41.6126C195.307 41.3316 195.902 41.1878 196.505 41.194C198.682 41.194 200.326 42.9478 200.326 45.1767Z" fill="#171D26"/>
<path d="M212 41.4005V51.7189H210.308V50.2263C209.42 51.2786 208.07 51.9179 206.428 51.9179C203.662 51.9179 201.269 49.5248 201.269 46.5522C201.269 43.5796 203.662 41.1865 206.428 41.1865C208.079 41.1865 209.413 41.8258 210.308 42.8781V41.3855L212 41.4005ZM210.308 46.5597C210.308 45.833 210.093 45.1226 209.689 44.5184C209.285 43.9142 208.712 43.4433 208.04 43.1652C207.369 42.8871 206.63 42.8144 205.918 42.9561C205.205 43.0979 204.55 43.4478 204.036 43.9616C203.523 44.4755 203.173 45.1302 203.031 45.8429C202.889 46.5556 202.962 47.2943 203.24 47.9657C203.518 48.637 203.989 49.2109 204.593 49.6146C205.197 50.0183 205.908 50.2338 206.634 50.2338C207.117 50.2361 207.596 50.1426 208.043 49.9588C208.49 49.775 208.896 49.5044 209.237 49.1628C209.579 48.8211 209.85 48.4152 210.033 47.9684C210.217 47.5216 210.311 47.0428 210.308 46.5597Z" fill="#171D26"/>
<path d="M213.682 37.1916C213.677 36.9619 213.741 36.7361 213.866 36.5429C213.99 36.3498 214.169 36.1981 214.38 36.1071C214.591 36.0161 214.824 35.9899 215.05 36.032C215.276 36.0741 215.484 36.1824 215.648 36.3433C215.812 36.5041 215.925 36.7102 215.971 36.9351C216.017 37.1601 215.996 37.3938 215.909 37.6065C215.822 37.8192 215.674 38.0012 215.483 38.1293C215.293 38.2574 215.068 38.3258 214.839 38.3259C214.535 38.3266 214.244 38.208 214.028 37.9958C213.811 37.7835 213.687 37.4946 213.682 37.1916ZM213.993 41.4005H215.684V51.7189H213.993V41.4005Z" fill="#171D26"/>
</g>
<defs>
<clipPath id="clip0_401_1018">
<rect width="100" height="16.1692" fill="white" transform="translate(116 36)"/>
</clipPath>
</defs>
</svg>
