<svg width="250" height="82" viewBox="0 0 250 82" fill="none" xmlns="http://www.w3.org/2000/svg">
<g clipPath="url(#clip0_401_554)">
<path d="M43.9414 62.659C44.4095 63.4783 45.5909 63.4783 46.0591 62.659L69.3048 21.9769C69.7693 21.1639 69.1823 20.1523 68.2459 20.1523H21.7545C20.8182 20.1523 20.2311 21.1639 20.6957 21.9769L43.9414 62.659Z" fill="#33125C"/>
<path d="M55.9756 31.5855C55.9756 30.9119 56.5216 30.366 57.1951 30.366H59.6341C60.3077 30.366 60.8536 30.9119 60.8536 31.5855V51.0977C60.8536 51.7712 60.3077 52.3172 59.6341 52.3172H57.1951C56.5216 52.3172 55.9756 51.7712 55.9756 51.0977V31.5855Z" fill="#F81CE5"/>
<path d="M68.1707 38.9023C68.8442 38.9023 69.3902 39.4483 69.3902 40.1219V42.5609C69.3902 43.2344 68.8442 43.7804 68.1707 43.7804H48.6585C47.9849 43.7804 47.439 43.2344 47.439 42.5609V40.1219C47.439 39.4483 47.9849 38.9023 48.6585 38.9023H68.1707Z" fill="#F81CE5"/>
</g>
<g clipPath="url(#clip1_401_554)">
<path d="M156.313 42.2047V40.0574H165.869V42.2047H162.342V51.9998H159.923V42.2047H156.313Z" fill="#302F29"/>
<path d="M168.342 52.165C167.797 52.165 167.307 52.0631 166.872 51.8594C166.437 51.6557 166.093 51.3611 165.839 50.9757C165.586 50.5848 165.459 50.1113 165.459 49.5552C165.459 48.6192 165.809 47.9089 166.508 47.4244C167.208 46.9343 168.311 46.6811 169.82 46.6646L170.886 46.648V46.136C170.886 45.7451 170.77 45.445 170.539 45.2358C170.313 45.021 169.961 44.9164 169.481 44.9219C169.129 44.9274 168.793 45.01 168.474 45.1697C168.16 45.3294 167.945 45.6074 167.83 46.0038H165.823C165.856 45.3872 166.035 44.8806 166.36 44.4842C166.684 44.0823 167.125 43.7849 167.681 43.5922C168.243 43.394 168.879 43.2949 169.589 43.2949C170.464 43.2949 171.166 43.405 171.695 43.6253C172.223 43.84 172.606 44.1511 172.843 44.5585C173.08 44.9605 173.198 45.4395 173.198 45.9956V51.9998H171.183L170.985 50.5297C170.693 51.1464 170.327 51.5731 169.886 51.8099C169.451 52.0466 168.936 52.165 168.342 52.165ZM169.151 50.5793C169.371 50.5793 169.583 50.5407 169.787 50.4637C169.996 50.3811 170.181 50.2737 170.34 50.1416C170.506 50.0039 170.638 49.8497 170.737 49.6791C170.836 49.5084 170.886 49.3322 170.886 49.1505V47.8869L170.018 47.9034C169.616 47.9089 169.242 47.9584 168.895 48.0521C168.548 48.1401 168.267 48.2861 168.053 48.4898C167.843 48.6935 167.739 48.9688 167.739 49.3157C167.739 49.7121 167.877 50.0232 168.152 50.2489C168.427 50.4692 168.76 50.5793 169.151 50.5793Z" fill="#302F29"/>
<path d="M177.728 52.1485C177.1 52.1485 176.602 52.0741 176.233 51.9255C175.864 51.7768 175.592 51.5814 175.415 51.3391C175.239 51.0913 175.126 50.8188 175.077 50.5215C175.027 50.2186 175.002 49.9131 175.002 49.6047V39.7271H177.365V49.3074C177.365 49.6212 177.431 49.8773 177.563 50.0755C177.7 50.2682 177.956 50.3866 178.331 50.4306L178.735 50.4554V51.942C178.57 51.9971 178.402 52.0439 178.232 52.0824C178.061 52.1265 177.893 52.1485 177.728 52.1485Z" fill="#302F29"/>
<path d="M182.527 52.1485C181.9 52.1485 181.401 52.0741 181.032 51.9255C180.663 51.7768 180.391 51.5814 180.215 51.3391C180.039 51.0913 179.926 50.8188 179.876 50.5215C179.827 50.2186 179.802 49.9131 179.802 49.6047V39.7271H182.164V49.3074C182.164 49.6212 182.23 49.8773 182.362 50.0755C182.5 50.2682 182.756 50.3866 183.13 50.4306L183.535 50.4554V51.942C183.37 51.9971 183.202 52.0439 183.031 52.0824C182.86 52.1265 182.692 52.1485 182.527 52.1485Z" fill="#302F29"/>
<path d="M185.753 54.7254C185.17 54.7254 184.757 54.6758 184.514 54.5767C184.278 54.4831 184.159 54.4363 184.159 54.4363V52.9001L185.002 52.9332C185.371 52.9552 185.668 52.9359 185.894 52.8754C186.119 52.8203 186.29 52.746 186.406 52.6524C186.527 52.5588 186.612 52.4597 186.662 52.3551C186.711 52.2559 186.747 52.1761 186.769 52.1155L186.926 51.6448L183.606 43.4602H185.993L188.041 49.0267L190.114 43.4602H192.468L189.007 52.0495C188.71 52.7763 188.396 53.3324 188.066 53.7178C187.735 54.1032 187.377 54.3675 186.992 54.5106C186.612 54.6538 186.199 54.7254 185.753 54.7254Z" fill="#302F29"/>
<path d="M117.238 61.7147C117.575 62.3046 118.425 62.3046 118.762 61.7146L135.499 32.4235C135.834 31.8382 135.411 31.1099 134.737 31.1099H101.263C100.589 31.1099 100.166 31.8382 100.501 32.4235L117.238 61.7147Z" fill="#33125C"/>
<path d="M125.902 39.3414C125.902 38.8565 126.295 38.4634 126.78 38.4634H128.537C129.021 38.4634 129.415 38.8565 129.415 39.3414V53.3902C129.415 53.8752 129.021 54.2683 128.537 54.2683H126.78C126.295 54.2683 125.902 53.8752 125.902 53.3902V39.3414Z" fill="#F81CE5"/>
<path d="M134.683 44.6099C135.168 44.6099 135.561 45.003 135.561 45.4879V47.244C135.561 47.729 135.168 48.1221 134.683 48.1221H120.634C120.149 48.1221 119.756 47.729 119.756 47.244V45.4879C119.756 45.003 120.149 44.6099 120.634 44.6099H134.683Z" fill="#F81CE5"/>
</g>
<defs>
<clipPath id="clip0_401_554">
<rect width="50" height="43.2927" fill="white" transform="translate(20 20)"/>
</clipPath>
<clipPath id="clip1_401_554">
<rect width="93" height="32" fill="white" transform="translate(100 31)"/>
</clipPath>
</defs>
</svg>
