<svg width="250" height="82" viewBox="0 0 250 82" fill="none" xmlns="http://www.w3.org/2000/svg">
<g clip-path="url(#clip0_401_808)">
<path d="M20 18.8535V63.1465C20 64.7224 21.2775 66 22.8535 66H67.1465C68.7224 66 70 64.7225 70 63.1465V18.8535C69.9999 17.2775 68.7224 16 67.1465 16H22.8535C21.2775 16 20 17.2775 20 18.8535ZM42.7956 29.6328H34.9489C34.1609 29.6328 33.5199 30.2737 33.5199 31.0618V38.61H26.9729V31.0618C26.9729 26.6639 30.551 23.0857 34.9489 23.0857H42.7958L42.7956 29.6328ZM63.0271 50.9382C63.0271 55.3361 59.449 58.9143 55.0511 58.9143H47.2042V52.3672H55.0511C55.8391 52.3672 56.4801 51.7263 56.4801 50.9382V43.39H63.0271V50.9382Z" fill="#FF1A03"/>
</g>
<g clip-path="url(#clip1_401_808)">
<path fill-rule="evenodd" clip-rule="evenodd" d="M154.68 42.4458L153.874 42.303C153.074 42.1544 152.389 41.9601 152.389 41.1316C152.389 40.4173 153.114 40.0858 154.017 40.0858C155.36 40.0858 156.543 40.7144 156.674 40.783L157.417 38.783C157.131 38.6344 155.931 37.9715 154.04 37.9715C152.309 37.9715 150.194 38.9087 150.194 41.2287C150.194 43.3144 151.64 43.983 153.034 44.2344L154.006 44.4058C154.943 44.5716 155.457 44.9316 155.457 45.5601C155.457 46.3601 154.726 46.7373 153.617 46.7373C151.846 46.7373 150.806 46.1944 150.503 46.063L149.691 48.023C149.943 48.1544 151.154 48.8573 153.514 48.8573C155.8 48.8573 157.64 47.6916 157.64 45.5201C157.623 43.4973 156.303 42.7316 154.68 42.4458ZM161.68 34.3315L159.509 35.5658V38.1715H158.366V40.303H159.509V44.9144C159.509 46.8801 160.297 48.6458 163.074 48.6458H163.943V46.5144H163.617C162.246 46.5144 161.674 45.703 161.674 44.6058V40.303H164.166V38.1715H161.68V34.3315ZM178.617 40.143C179.463 40.143 180.331 40.5373 180.589 41.4916L182.554 40.7258C182.006 38.7258 180.194 37.9715 178.6 37.9715C175.743 37.9715 174.589 39.8001 174.589 41.5716V45.2573C174.589 47.0287 175.743 48.8573 178.6 48.8573C180.2 48.8573 182.006 48.1087 182.554 46.103L180.589 45.3373C180.326 46.2916 179.463 46.6916 178.617 46.6916C177.143 46.6916 176.754 45.863 176.754 44.9201V41.9144C176.754 40.9716 177.143 40.143 178.617 40.143ZM187.886 42.8801L191.943 38.1773H189.274L185.789 42.2801V34.3315H183.617V48.6516H185.789V45.3201L186.497 44.4916L189.606 48.6516H192.206L187.886 42.8801Z" fill="#25282A"/>
<path fill-rule="evenodd" clip-rule="evenodd" d="M170.234 40.4573H167.977C167.617 40.4573 167.326 40.7601 167.326 41.1316V43.6458H165.103V41.1316C165.098 40.7488 165.167 40.3688 165.309 40.0132C165.451 39.6576 165.661 39.3334 165.928 39.059C166.195 38.7847 166.513 38.5656 166.865 38.4143C167.217 38.263 167.594 38.1825 167.977 38.1772H170.234V40.463V40.4573ZM168.4 46.3658H170.651C171.011 46.3658 171.303 46.0687 171.303 45.703V43.1887H173.526V45.703C173.535 46.4749 173.237 47.219 172.698 47.7718C172.159 48.3246 171.423 48.641 170.651 48.6516H168.4V46.3658Z" fill="#F12815"/>
<path fill-rule="evenodd" clip-rule="evenodd" d="M131.629 38.1715H134.12V40.3087H131.629V44.6116C131.629 45.7087 132.2 46.5201 133.571 46.5201H133.891V48.6516H133.023C130.246 48.6516 129.463 46.8858 129.463 44.9201V40.3087H125.811V44.6116C125.811 45.7087 126.383 46.5201 127.754 46.5201H128.074V48.6516H127.206C124.429 48.6516 123.646 46.8858 123.646 44.9201V40.3087H122.543V38.1715H123.646V35.5658L125.817 34.3315V38.1773H129.463V35.5658L131.629 34.3315V38.1773V38.1715ZM108.223 37.9715C107.537 37.9715 106.84 38.1087 106.217 38.383V34.3315H104.046V48.6516H106.217V40.4687C106.651 40.183 107.28 40.0116 107.891 40.0116C109.257 40.0116 109.891 40.7944 109.891 41.943V48.6516H112.063V41.6401C112.063 39.5258 110.577 37.9715 108.223 37.9715ZM119.211 46.5716C118.8 46.8001 118.28 46.9316 117.76 46.9316C116.143 46.9316 115.531 46.0801 115.531 44.9144V38.1715H113.366V44.9544C113.366 47.5887 114.851 48.8573 117.497 48.8573C118.76 48.8573 120.166 48.5258 121.383 47.9887V38.1715H119.211V46.5716ZM99.9943 42.4458L99.1829 42.303C98.3829 42.1544 97.6971 41.9601 97.6971 41.1316C97.6971 40.4173 98.4229 40.0858 99.3257 40.0858C100.674 40.0858 101.851 40.7144 101.989 40.783L102.72 38.783C102.44 38.6344 101.24 37.9715 99.3486 37.9715C97.6171 37.9715 95.5029 38.9087 95.5029 41.2287C95.5029 43.3144 96.9486 43.983 98.3429 44.2344L99.3143 44.4058C100.251 44.5716 100.766 44.9316 100.766 45.5601C100.766 46.3601 100.034 46.7373 98.9314 46.7373C97.16 46.7373 96.1143 46.1944 95.8171 46.063L95 48.023C95.2571 48.1544 96.4629 48.8573 98.8286 48.8573C101.114 48.8573 102.954 47.6916 102.954 45.5201C102.931 43.4973 101.611 42.7316 99.9943 42.4458ZM140.914 42.623H137.257V41.8573C137.257 41.0058 137.674 40.0973 139.097 40.0973C140.469 40.0973 140.914 40.983 140.914 41.8116V42.623ZM143.086 41.5716C143.086 39.6573 141.663 37.9715 139.109 37.9715C136.211 37.9715 135.097 39.8344 135.097 41.5716V45.0573C135.097 47.4573 136.594 48.8573 139.109 48.8573C141.331 48.8573 142.48 47.5373 142.823 46.743L140.994 45.6116C140.84 46.0801 140.114 46.7316 139.126 46.7316C137.783 46.7316 137.269 45.9658 137.269 45.0001L137.263 44.4287H143.086V41.5716ZM144.474 41.5773V48.6516H146.64V41.7716C146.64 41.1716 146.971 40.143 148.56 40.143C148.811 40.143 149.377 40.2173 149.554 40.2573V38.0858C149.191 38.0113 148.822 37.9749 148.451 37.9773C145.697 37.9773 144.474 39.7544 144.474 41.583" fill="#F12815"/>
</g>
<defs>
<clipPath id="clip0_401_808">
<rect width="50" height="50" fill="white" transform="translate(20 16)"/>
</clipPath>
<clipPath id="clip1_401_808">
<rect width="100" height="14.8571" fill="white" transform="translate(95 34)"/>
</clipPath>
</defs>
</svg>
