<svg width="250" height="82" viewBox="0 0 250 82" fill="none" xmlns="http://www.w3.org/2000/svg">
<g clip-path="url(#clip0_401_2813)">
<path fill-rule="evenodd" clip-rule="evenodd" d="M26.5225 61.6795C26.5225 64.4236 28.2974 66.2034 31.0336 66.2034L44.214 66.2036C52.0767 66.2036 58.5087 63.5355 62.8817 58.8649H26.5225V61.6795ZM44.214 16.0003L31.0336 16C28.2974 16 26.5225 17.78 26.5225 20.5241V23.3388H62.8817C58.5087 18.668 52.0767 16.0003 44.214 16.0003ZM55.7166 48.2551C55.7166 50.4751 57.1584 51.9154 59.3817 51.9154H67.2797C68.1749 49.6874 68.7763 47.2379 69.0561 44.5947H59.3817C57.1584 44.5947 55.7166 46.0348 55.7166 48.2551ZM44.7694 33.9665C44.7694 36.1868 46.2116 37.6268 48.4348 37.6268H69.0561C68.7763 34.9836 68.1749 32.5342 67.2797 30.3062H48.4348C46.2116 30.3062 44.7694 31.7463 44.7694 33.9665ZM48.4323 48.2551C48.4323 46.0348 46.9901 44.5947 44.7669 44.5947H26.5225V51.9154H44.7669C46.9901 51.9154 48.4323 50.4753 48.4323 48.2551ZM37.4851 33.9665C37.4851 31.7463 36.0431 30.3062 33.8198 30.3062H26.5225V37.6268H33.8198C36.0431 37.6268 37.4851 36.1868 37.4851 33.9665Z" fill="#0062FF"/>
</g>
<g clip-path="url(#clip1_401_2813)">
<path fill-rule="evenodd" clip-rule="evenodd" d="M100.525 50.4934C100.525 51.7846 101.353 52.622 102.629 52.622L108.778 52.622C112.446 52.622 115.447 51.3667 117.487 49.169H100.525V50.4934ZM108.778 29.0001L102.629 29C101.353 29 100.525 29.8375 100.525 31.1287V32.4531H117.487C115.447 30.2554 112.446 29.0001 108.778 29.0001ZM114.144 44.1768C114.144 45.2214 114.817 45.8991 115.854 45.8991H119.539C119.956 44.8508 120.237 43.6983 120.367 42.4546H115.854C114.817 42.4546 114.144 43.1322 114.144 44.1768ZM109.037 37.4537C109.037 38.4983 109.71 39.176 110.747 39.176H120.367C120.237 37.9323 119.956 36.7798 119.539 35.7314H110.747C109.71 35.7314 109.037 36.409 109.037 37.4537ZM110.746 44.1768C110.746 43.1322 110.073 42.4546 109.036 42.4546H100.525V45.8991H109.036C110.073 45.8991 110.746 45.2215 110.746 44.1768ZM105.639 37.4537C105.639 36.409 104.966 35.7314 103.929 35.7314H100.525V39.176H103.929C104.966 39.176 105.639 38.4983 105.639 37.4537Z" fill="#0062FF"/>
<path fill-rule="evenodd" clip-rule="evenodd" d="M143.796 40.4554C144.07 39.1074 144.955 38.4219 146.118 38.4219C147.271 38.4219 148.115 39.1381 148.384 40.4554H143.796ZM146.181 36.0867C143.219 36.0867 141.377 38.4864 141.377 41.4218C141.377 44.4618 143.346 46.7166 146.272 46.7166C148.29 46.7166 149.514 45.7703 150.271 44.5787L148.388 43.3583C147.914 44.0145 147.156 44.3611 146.344 44.3611C145.015 44.3611 144.125 43.7302 143.822 42.4686H148.794C148.794 42.4703 148.793 42.4719 148.793 42.4737L150.605 42.4845C150.674 42.1524 150.715 41.8094 150.715 41.4218C150.715 38.8649 149.161 36.0867 146.181 36.0867Z" fill="#0062FF"/>
<path fill-rule="evenodd" clip-rule="evenodd" d="M133.791 44.3544C131.968 44.3544 130.872 43.0323 130.872 41.4015C130.872 39.7708 131.989 38.4488 133.791 38.4488C135.592 38.4488 136.708 39.7708 136.708 41.4015C136.708 43.0323 135.613 44.3544 133.791 44.3544ZM136.51 37.6474C135.782 36.7629 134.749 36.2208 133.466 36.2208C130.6 36.2208 128.538 38.5704 128.538 41.4687C128.538 44.367 130.58 46.7166 133.466 46.7166C134.749 46.7166 135.782 46.1744 136.51 45.2899V46.4581H139.043V32.5433H136.51V37.6474Z" fill="#0062FF"/>
<path fill-rule="evenodd" clip-rule="evenodd" d="M158.461 41.2271C159.148 41.7133 159.584 42.4422 159.584 43.404C159.584 45.348 158.289 46.6967 155.868 46.6967C153.59 46.6967 152.368 45.5154 151.882 44.3224L153.973 43.0867C153.973 43.0867 154.255 44.376 155.831 44.376C156.807 44.376 157.107 43.9396 157.107 43.5541C157.107 43.3756 157.051 43.047 156.356 42.7692C154.962 42.2116 152.265 41.9614 152.265 39.4171C152.265 37.3345 153.878 36.2237 155.868 36.2237C157.729 36.2237 158.924 37.3953 159.378 38.3068L157.332 39.5163C157.332 39.5163 156.938 38.5047 155.887 38.5047C154.836 38.5047 154.742 39.1196 154.742 39.2981C154.742 39.8189 155.267 40.0326 156.394 40.3693C157.061 40.5686 157.746 40.7496 158.463 41.2252C158.462 41.2259 158.461 41.2265 158.461 41.2271ZM199.738 38.9609H197.616V43.0866C197.616 44.376 198.855 44.0982 199.738 44.0982V46.419C199.738 46.419 199.273 46.4983 198.461 46.4983C196.66 46.4983 195.196 45.943 195.196 43.0866V38.9609H193.563V36.5013H195.196V33.7244H197.616V36.5013H199.738V38.9609ZM165.603 44.1974C166.607 44.1974 167.38 43.6909 167.77 42.86L169.869 44.1318C169.046 45.656 167.514 46.7165 165.603 46.7165C162.703 46.7165 160.676 44.372 160.676 41.48C160.676 38.588 162.722 36.2435 165.603 36.2435C167.486 36.2435 169.013 37.2866 169.844 38.7906L167.75 40.0914C167.352 39.2714 166.586 38.7626 165.603 38.7626C164.138 38.7626 163.097 39.9792 163.097 41.48C163.097 42.9808 164.128 44.1974 165.603 44.1974Z" fill="#0062FF"/>
<path fill-rule="evenodd" clip-rule="evenodd" d="M187.857 44.1704C186.28 44.1704 185.332 42.9263 185.332 41.3918C185.332 39.8571 186.298 38.6131 187.857 38.6131C189.417 38.6131 190.383 39.8571 190.383 41.3918C190.383 42.9263 189.435 44.1704 187.857 44.1704ZM188.158 36.1891C190.82 36.1891 192.735 38.5185 192.735 41.3918C192.735 44.2651 190.839 46.5944 188.158 46.5944C186.968 46.5944 186.008 46.0569 185.332 45.1801V50.2599H182.98V36.4651H185.332V37.6033C186.008 36.7266 186.968 36.1891 188.158 36.1891ZM178.459 46.3381V36.4847H180.811V46.3381H178.459ZM174.076 38.1678C174.53 36.9738 175.455 36.2908 176.848 36.2878V39.1255C175.215 38.9585 174.035 39.8361 174.078 41.9091C174.078 41.9076 174.077 41.906 174.076 41.9044V46.3381H171.725V36.4848H174.076V38.1678ZM178.459 35.1697V32.5433H180.889V35.1697H178.459Z" fill="#0062FF"/>
</g>
<defs>
<clipPath id="clip0_401_2813">
<rect width="50" height="50.6849" fill="white" transform="translate(20 16)"/>
</clipPath>
<clipPath id="clip1_401_2813">
<rect width="100" height="23.622" fill="white" transform="translate(100 29)"/>
</clipPath>
</defs>
</svg>
