<svg width="250" height="82" viewBox="0 0 250 82" fill="none" xmlns="http://www.w3.org/2000/svg">
<path fillRule="evenodd" clipRule="evenodd" d="M25.8335 33.5C25.8355 31.7537 26.2034 30.0271 26.9135 28.4317C27.6235 26.8362 28.66 25.4072 29.9562 24.2368C31.2523 23.0665 32.7793 22.1807 34.4387 21.6365C36.0981 21.0924 37.8532 20.902 39.5905 21.0776C41.328 21.2532 43.0095 21.791 44.5265 22.6562C46.0433 23.5213 47.3622 24.6948 48.3978 26.1009C49.4337 27.507 50.1632 29.1144 50.5397 30.8197C50.9162 32.525 50.931 34.2903 50.5835 36.0017C47.3155 32.7903 42.9153 30.9937 38.3335 31C33.7518 30.9937 29.3515 32.7903 26.0835 36.0017C25.9167 35.1782 25.8329 34.3402 25.8335 33.5ZM22.5168 41C21.4047 38.6563 20.8296 36.0942 20.8335 33.5C20.8335 23.835 28.6685 16 38.3335 16C47.9985 16 55.8335 23.835 55.8335 33.5C55.8335 36.1833 55.2285 38.7267 54.1502 41C55.2623 43.3437 55.8373 45.9058 55.8335 48.5C55.8335 58.165 47.9985 66 38.3335 66C28.6685 66 20.8335 58.165 20.8335 48.5C20.8335 45.8167 21.4385 43.2733 22.5168 41ZM50.5835 45.9983C50.9522 47.8138 50.9127 49.6885 50.468 51.4868C50.0232 53.2852 49.1843 54.9622 48.012 56.3965C46.8395 57.8308 45.363 58.9867 43.6892 59.7803C42.0153 60.574 40.186 60.9858 38.3335 60.9858C36.481 60.9858 34.6517 60.574 32.9778 59.7803C31.304 58.9867 29.8275 57.8308 28.6551 56.3965C27.4827 54.9622 26.6438 53.2852 26.1991 51.4868C25.7543 49.6885 25.7149 47.8138 26.0835 45.9983C29.3515 49.2097 33.7518 51.0063 38.3335 51C43.1035 51 47.4268 49.0917 50.5835 45.9983ZM48.3335 41C47.1703 42.5537 45.6607 43.8145 43.9247 44.6825C42.1888 45.5505 40.2743 46.0015 38.3335 46C36.3927 46.0015 34.4783 45.5502 32.7424 44.6823C31.0065 43.8143 29.4969 42.5535 28.3335 41C29.4969 39.4465 31.0065 38.1857 32.7424 37.3177C34.4783 36.4498 36.3927 35.9985 38.3335 36C40.2743 35.9985 42.1888 36.4495 43.9247 37.3175C45.6607 38.1855 47.1703 39.4463 48.3335 41Z" fill="#8D80D1"/>
<g clipPath="url(#clip0_401_1608)">
<path fillRule="evenodd" clipRule="evenodd" d="M77.1085 38.3253C77.1092 37.6941 77.2422 37.07 77.4988 36.4934C77.7555 35.9167 78.1301 35.4002 78.5986 34.9772C79.0671 34.5541 79.619 34.234 80.2188 34.0373C80.8186 33.8406 81.453 33.7718 82.0809 33.8353C82.7089 33.8988 83.3167 34.0931 83.865 34.4058C84.4133 34.7186 84.8899 35.1427 85.2643 35.6509C85.6387 36.1591 85.9024 36.7402 86.0384 37.3565C86.1745 37.9729 86.1799 38.611 86.0543 39.2295C84.8731 38.0688 83.2827 37.4194 81.6266 37.4217C79.9705 37.4194 78.3801 38.0688 77.1989 39.2295C77.1386 38.9319 77.1083 38.629 77.1085 38.3253ZM75.9097 41.0361C75.5077 40.189 75.2999 39.263 75.3013 38.3253C75.3013 34.8319 78.1332 32 81.6266 32C85.1199 32 87.9519 34.8319 87.9519 38.3253C87.9519 39.2952 87.7332 40.2145 87.3434 41.0361C87.7454 41.8833 87.9533 42.8093 87.9519 43.747C87.9519 47.2404 85.1199 50.0723 81.6266 50.0723C78.1332 50.0723 75.3013 47.2404 75.3013 43.747C75.3013 42.7771 75.52 41.8578 75.9097 41.0361ZM86.0543 42.8428C86.1875 43.499 86.1733 44.1766 86.0125 44.8266C85.8518 45.4766 85.5486 46.0827 85.1248 46.6011C84.701 47.1196 84.1674 47.5373 83.5624 47.8242C82.9574 48.1111 82.2961 48.2599 81.6266 48.2599C80.957 48.2599 80.2958 48.1111 79.6908 47.8242C79.0858 47.5373 78.5521 47.1196 78.1284 46.6011C77.7046 46.0827 77.4014 45.4766 77.2406 44.8266C77.0799 44.1766 77.0656 43.499 77.1989 42.8428C78.3801 44.0035 79.9705 44.6529 81.6266 44.6506C83.3507 44.6506 84.9133 43.9608 86.0543 42.8428ZM85.241 41.0361C84.8206 41.5977 84.2749 42.0534 83.6475 42.3672C83.0201 42.6809 82.3281 42.8439 81.6266 42.8434C80.9251 42.8439 80.2331 42.6808 79.6057 42.3671C78.9782 42.0534 78.4326 41.5976 78.0121 41.0361C78.4326 40.4746 78.9782 40.0189 79.6057 39.7052C80.2331 39.3915 80.9251 39.2284 81.6266 39.2289C82.3281 39.2284 83.0201 39.3914 83.6475 39.7051C84.2749 40.0189 84.8206 40.4746 85.241 41.0361Z" fill="#8D80D1"/>
<path d="M104.292 46.5012V37.1904L105.419 37.0024L105.347 36.3229L103.728 36.3663L102.152 36.3229L102.109 37.0024L103.179 37.1904V43.5229L102.774 42.2795L98.1328 36.3229L96.5858 36.3663L95.4147 36.3229L95.3424 37.0024L96.4412 37.2337V45.6048L95.3135 45.7928L95.3858 46.4723L97.0195 46.4289L98.5954 46.4723L98.6388 45.7928L97.5689 45.6048V38.1157L97.9014 39.4458L103.207 46.5012H104.292ZM109.807 45.4602L110.27 46.6169L112.771 46.1108L112.67 45.4313H111.976C111.846 45.1855 111.788 44.9253 111.788 44.347V41.5422C111.788 39.8506 111.109 39.3157 109.085 39.3157L106.077 40.5446V41.759H107.885L108.101 40.4867C108.374 40.3457 108.676 40.2714 108.983 40.2699C109.489 40.2699 109.721 40.5301 109.721 41.412V42.2361L106.511 43.2626C106.121 43.6385 105.86 44.1157 105.86 44.7373C105.86 45.9229 106.815 46.6747 108.145 46.6747L109.807 45.4602ZM108.607 45.4458C108.26 45.4458 107.87 45.1566 107.87 44.4626C107.87 44.1301 107.971 43.7398 108.188 43.5084L109.721 42.9012V44.8964L109.345 45.1566C109.157 45.2723 108.897 45.4458 108.607 45.4458ZM115.224 46.4289L117.682 46.4723L117.754 45.7639L116.223 45.6048V42.5542L116.424 42.3229C116.8 41.8892 117.162 41.5277 117.509 41.3687H118.984V39.3879H117.639L116.107 41.7301L115.948 39.4892L115.167 39.5325L113.273 39.9518L113.345 40.6602L114.198 40.6024V45.6193L113.345 45.7928L113.418 46.4723L115.225 46.4289H115.224ZM121.536 46.4289L123.994 46.4723L124.066 45.7639L122.533 45.6048V42.5542L122.736 42.3229C123.112 41.8892 123.473 41.5277 123.82 41.3687H125.295V39.3879H123.95L122.418 41.7301L122.259 39.4892L121.478 39.5325L119.584 39.9518L119.656 40.6602L120.509 40.6024V45.6193L119.656 45.7928L119.729 46.4723L121.536 46.4289ZM129.786 45.4602L130.248 46.6169L132.75 46.1108L132.648 45.4313H131.954C131.824 45.1855 131.766 44.9253 131.766 44.347V41.5422C131.766 39.8506 131.087 39.3157 129.063 39.3157L126.056 40.5446V41.759H127.863L128.08 40.4867C128.352 40.3457 128.655 40.2714 128.962 40.2699C129.468 40.2699 129.699 40.5301 129.699 41.412V42.2361L126.489 43.2626C126.099 43.6385 125.839 44.1157 125.839 44.7373C125.839 45.9229 126.793 46.6747 128.123 46.6747L129.786 45.4602ZM128.586 45.4458C128.239 45.4458 127.848 45.1566 127.848 44.4626C127.848 44.1301 127.95 43.7398 128.166 43.5084L129.699 42.9012V44.8964L129.323 45.1566C129.135 45.2723 128.875 45.4458 128.586 45.4458ZM138.342 45.6482L138.038 44.9976C137.532 45.2723 137.229 45.359 136.882 45.359C136.491 45.359 136.159 44.9976 136.159 44.4626V40.5879H138.096V39.8072H136.144V37.6819H135.465L134.149 38.7518V39.7494H133.383L132.819 40.3277V40.5879H134.135V44.3904C134.135 45.9229 134.901 46.6747 136.419 46.6747L138.342 45.6482ZM141.518 38.2024L141.706 37.3928L141.605 36.4096L141.142 36.3229L139.769 36.4096L139.595 37.2337L139.697 38.2024L140.174 38.3036L141.518 38.2024ZM140.723 46.4289L142.516 46.4723L142.588 45.7928L141.721 45.6193V39.4892L140.824 39.5325L138.786 39.9373L138.858 40.6169L139.697 40.5735V45.6193L138.858 45.7928L138.93 46.4723L140.723 46.4289ZM147.462 46.2699L149.688 40.3711L150.541 40.1976L150.469 39.5181L149.327 39.547L147.982 39.5181L147.91 40.1976L148.589 40.3711L146.985 45.2578L146.869 44.0867L145.524 40.3711L146.305 40.1976L146.233 39.5181L144.585 39.5614L142.662 39.5181L142.589 40.1976L143.312 40.3711L145.9 46.6747L147.462 46.2699ZM156.68 42.0916C156.68 40.5735 155.9 39.3157 153.876 39.3157C151.215 40.0096 150.406 41.4843 150.406 43.2193C150.406 45.3157 151.924 46.6747 153.919 46.6747C155.076 46.3132 155.9 45.9518 156.666 45.2867L156.348 44.6361C155.929 44.9108 155.22 45.2145 154.541 45.2145C153.297 45.2145 152.574 44.2313 152.488 42.8867H156.68V42.0916ZM152.488 42.1783C152.56 40.8771 152.965 40.2265 153.644 40.2265C154.439 40.2265 154.656 40.9494 154.656 42.0482L152.488 42.1783ZM162.86 46.4289L165.853 46.4723C168.051 46.1687 169.685 45.359 169.685 43.5518C169.685 42.1349 168.629 41.1229 166.591 41.0217C168.123 40.7181 169.135 39.7639 169.135 38.5783C169.135 37.4651 168.297 36.3084 166.489 36.3229L162.86 36.3663L161.039 36.3229L160.966 37.0024L162.094 37.1904V45.6048L160.966 45.7928L161.039 46.4723L162.86 46.4289ZM164.306 37.147L165.304 37.0458C166.432 37.0602 166.894 37.7687 166.894 38.7663C166.894 39.8795 166.258 40.7904 165.246 40.7904H164.306V37.147ZM164.306 45.6482V41.4988H165.448C166.706 41.4988 167.444 42.3807 167.444 43.5807C167.444 44.5494 166.909 45.7349 165.26 45.7349L164.306 45.6482ZM172.357 46.4289L174.511 46.4723L174.583 45.7783L173.456 45.5904V37.1904L174.583 37.0024L174.511 36.3229L172.357 36.3663L170.188 36.3229L170.116 37.0024L171.244 37.1904V45.5904L170.116 45.7783L170.188 46.4723L172.357 46.4289Z" fill="#2B2A45"/>
</g>
<defs>
<clipPath id="clip0_401_1608">
<rect width="100" height="18.0723" fill="white" transform="translate(75 32)"/>
</clipPath>
</defs>
</svg>
