<svg width="250" height="82" viewBox="0 0 250 82" fill="none" xmlns="http://www.w3.org/2000/svg">
<path d="M37.0814 51.9455C35.6442 50.4952 34.5072 48.7755 33.7357 46.8849C32.9641 44.9945 32.573 42.9703 32.5848 40.9285C32.5796 38.8867 32.9815 36.8644 33.767 34.9797C34.5525 33.0951 35.7059 31.386 37.1597 29.9523C37.7824 29.3988 38.2856 28.724 38.6385 27.9692C38.9914 27.2144 39.1865 26.3956 39.2118 25.5628C39.2372 24.73 39.0924 23.9007 38.7861 23.1259C38.4799 22.351 38.0187 21.6468 37.4308 21.0564C36.8429 20.4659 36.1408 20.0017 35.3672 19.6921C34.5937 19.3825 33.7651 19.2341 32.9322 19.2559C32.0993 19.2776 31.2796 19.4692 30.5233 19.8188C29.767 20.1684 29.09 20.6687 28.5338 21.289C23.3094 26.4827 20.3618 33.5388 20.3395 40.9055C20.3172 48.2721 23.2219 55.3462 28.4148 60.5714C28.9692 61.1908 29.6439 61.6908 30.3979 62.0411C31.1519 62.3915 31.9693 62.5843 32.8002 62.6085C33.6312 62.6323 34.4584 62.4867 35.2313 62.1806C36.0043 61.8745 36.7068 61.4142 37.296 60.8279C37.8852 60.2415 38.3488 59.5411 38.6586 58.7697C38.9683 57.9983 39.1177 57.1717 39.0977 56.3404C39.0776 55.5095 38.8885 54.6911 38.5418 53.9357C38.1952 53.1799 37.6983 52.5027 37.0814 51.9455Z" fill="#FFD500"/>
<path d="M37.16 29.9524C40.0898 27.0519 44.0501 25.4315 48.1728 25.4462C52.2954 25.4609 56.244 27.1095 59.1532 30.0307C59.7056 30.6567 60.3804 31.1631 61.1355 31.5188C61.891 31.8744 62.711 32.0718 63.5457 32.0988C64.3801 32.1258 65.2114 31.9819 65.9882 31.6758C66.7648 31.3697 67.4709 30.908 68.0627 30.319C68.6546 29.73 69.1195 29.0262 69.4294 28.2509C69.7389 27.4755 69.8869 26.6451 69.8638 25.8104C69.8406 24.9758 69.6471 24.1548 69.295 23.3977C68.943 22.6407 68.4399 21.9636 67.8165 21.4082C65.2546 18.8134 62.2056 16.7503 58.844 15.3372C55.4828 13.9242 51.8752 13.1892 48.2289 13.1743C44.5826 13.1594 40.9693 13.8651 37.5965 15.2507C34.2236 16.6363 31.1578 18.6745 28.5749 21.2484C27.9499 21.7991 27.4439 22.4715 27.0878 23.2245C26.7316 23.9775 26.5329 24.7953 26.5037 25.6278C26.4746 26.4603 26.6157 27.29 26.9182 28.066C27.2208 28.8421 27.6786 29.5483 28.2635 30.1414C28.8485 30.7344 29.5483 31.2019 30.3201 31.5151C31.092 31.8284 31.9196 31.9808 32.7525 31.9631C33.5852 31.9454 34.4057 31.758 35.1635 31.4123C35.9214 31.0665 36.6008 30.5697 37.16 29.9524Z" fill="#5CAAFF"/>
<path d="M59.1155 52.0238C57.6658 53.4639 55.9461 54.6037 54.0549 55.3782C52.1639 56.1527 50.1386 56.5466 48.0951 56.5374C46.0521 56.5405 44.0291 56.1357 42.1444 55.3473C40.2597 54.5588 38.5512 53.4024 37.1189 51.9456C36.5654 51.3228 35.8906 50.8194 35.1358 50.4666C34.381 50.1139 33.5622 49.9187 32.7294 49.8932C31.8966 49.868 31.0674 50.0129 30.2925 50.319C29.5176 50.6252 28.8135 51.0864 28.223 51.6745C27.6326 52.2622 27.1684 52.9643 26.8588 53.7381C26.5492 54.5115 26.4007 55.3401 26.4225 56.1731C26.4443 57.0058 26.6358 57.8255 26.9854 58.582C27.3351 59.3381 27.8353 60.0149 28.4557 60.5714C31.0219 63.166 34.0748 65.2286 37.4397 66.6411C40.8045 68.0537 44.4151 68.7881 48.0643 68.8027C51.7136 68.8173 55.3298 68.1115 58.706 66.7258C62.0818 65.3401 65.1512 63.302 67.7379 60.7279C68.3094 60.1615 68.7638 59.4884 69.0754 58.7466C69.3866 58.0047 69.5488 57.2092 69.5526 56.4047C69.5563 55.6003 69.4015 54.8027 69.0975 54.0581C68.793 53.3136 68.3451 52.636 67.7788 52.0646C67.2128 51.4928 66.5393 51.0388 65.7978 50.7272C65.056 50.416 64.2601 50.2537 63.4556 50.25C62.6512 50.2462 61.8539 50.4007 61.109 50.7051C60.3645 51.0095 59.6869 51.4575 59.1155 52.0238Z" fill="#E8505D"/>
<path d="M37.1601 29.9524C36.3019 30.8095 35.2085 31.3925 34.0186 31.6273C32.8287 31.862 31.5959 31.7381 30.4765 31.2712C29.3571 30.8043 28.4016 30.0155 27.7312 29.0047C27.0608 27.994 26.7057 26.8069 26.711 25.5941C26.7162 24.3812 27.0816 23.1973 27.7608 22.1924C28.4399 21.1875 29.4022 20.4069 30.5256 19.9498C31.649 19.4926 32.8829 19.3794 34.0707 19.6245C35.2585 19.8696 36.3468 20.462 37.1975 21.3265C38.3308 22.4783 38.9628 24.0314 38.9558 25.6472C38.9488 27.263 38.3033 28.8105 37.1601 29.9524Z" fill="#3E97FF"/>
<path d="M37.0407 60.5714C36.1822 61.4282 35.0886 62.0108 33.8986 62.2448C32.7086 62.4792 31.4758 62.355 30.3566 61.8877C29.2374 61.4203 28.2822 60.6309 27.6122 59.62C26.9422 58.6091 26.5876 57.4217 26.5933 56.2088C26.5991 54.9962 26.9649 53.8122 27.6445 52.8078C28.324 51.803 29.2866 51.0227 30.4102 50.5663C31.5337 50.1095 32.7677 49.9965 33.9554 50.2421C35.1431 50.4877 36.2312 51.0806 37.0815 51.9455C38.2144 53.0976 38.8457 54.651 38.8381 56.2669C38.8304 57.8826 38.1844 59.4299 37.0407 60.5714Z" fill="#CF3D54"/>
<g clipPath="url(#clip0_401_2904)">
<path d="M107.152 45.4279C106.624 44.8952 106.206 44.2636 105.923 43.5694C105.639 42.8751 105.495 42.1317 105.5 41.3818C105.498 40.632 105.646 39.8893 105.934 39.1971C106.223 38.505 106.647 37.8773 107.181 37.3508C107.41 37.1475 107.595 36.8997 107.724 36.6225C107.854 36.3453 107.926 36.0446 107.935 35.7387C107.945 35.4329 107.891 35.1284 107.779 34.8438C107.666 34.5592 107.497 34.3006 107.281 34.0838C107.065 33.8669 106.807 33.6964 106.522 33.5827C106.238 33.469 105.933 33.4145 105.627 33.4225C105.321 33.4305 105.02 33.5009 104.742 33.6293C104.464 33.7576 104.215 33.9414 104.011 34.1692C102.091 36.0766 101.008 38.668 101 41.3734C100.991 44.0788 102.059 46.6767 103.967 48.5957C104.171 48.8232 104.419 49.0069 104.696 49.1355C104.973 49.2641 105.274 49.335 105.579 49.3438C105.884 49.3526 106.188 49.2992 106.472 49.1867C106.756 49.0743 107.015 48.9053 107.231 48.6899C107.448 48.4745 107.618 48.2174 107.732 47.934C107.846 47.6507 107.901 47.3471 107.893 47.0419C107.886 46.7367 107.816 46.4362 107.689 46.1587C107.562 45.8812 107.379 45.6325 107.152 45.4279Z" fill="#FFD500"/>
<path d="M107.181 37.3506C108.258 36.2854 109.713 35.6903 111.228 35.6957C112.743 35.7011 114.195 36.3065 115.264 37.3793C115.467 37.6092 115.715 37.7952 115.992 37.9258C116.27 38.0564 116.571 38.1289 116.878 38.1389C117.185 38.1488 117.49 38.0959 117.776 37.9835C118.061 37.8711 118.32 37.7016 118.538 37.4852C118.755 37.2689 118.926 37.0105 119.04 36.7257C119.154 36.441 119.208 36.136 119.2 35.8294C119.191 35.5229 119.12 35.2214 118.991 34.9434C118.862 34.6653 118.677 34.4167 118.447 34.2127C117.506 33.2598 116.385 32.5021 115.15 31.9831C113.915 31.4642 112.589 31.1943 111.249 31.1888C109.909 31.1833 108.581 31.4425 107.342 31.9514C106.102 32.4602 104.975 33.2088 104.026 34.154C103.797 34.3563 103.611 34.6032 103.48 34.8798C103.349 35.1563 103.276 35.4566 103.265 35.7624C103.254 36.0681 103.306 36.3728 103.417 36.6578C103.529 36.9428 103.697 37.2022 103.912 37.42C104.127 37.6378 104.384 37.8095 104.668 37.9245C104.951 38.0395 105.255 38.0955 105.561 38.089C105.867 38.0825 106.169 38.0137 106.448 37.8867C106.726 37.7597 106.976 37.5773 107.181 37.3506Z" fill="#5CAAFF"/>
<path d="M115.25 45.4566C114.717 45.9854 114.085 46.404 113.39 46.6885C112.695 46.973 111.951 47.1176 111.2 47.1142C110.449 47.1153 109.706 46.9667 109.013 46.6771C108.32 46.3875 107.692 45.9629 107.166 45.4278C106.963 45.1991 106.715 45.0143 106.437 44.8847C106.16 44.7551 105.859 44.6835 105.553 44.6741C105.247 44.6648 104.942 44.718 104.657 44.8305C104.373 44.943 104.114 45.1123 103.897 45.3282C103.68 45.5441 103.509 45.802 103.395 46.0861C103.282 46.3702 103.227 46.6745 103.235 46.9804C103.243 47.2863 103.314 47.5873 103.442 47.865C103.57 48.1427 103.754 48.3914 103.982 48.5957C104.925 49.5485 106.047 50.306 107.284 50.8248C108.521 51.3436 109.847 51.6133 111.189 51.6187C112.53 51.624 113.859 51.3648 115.099 50.8559C116.34 50.347 117.468 49.5985 118.419 48.6531C118.629 48.4452 118.796 48.198 118.91 47.9256C119.024 47.6532 119.084 47.3609 119.085 47.0654C119.087 46.77 119.03 46.4772 118.918 46.2037C118.806 45.9302 118.642 45.6814 118.434 45.4715C118.226 45.2616 117.978 45.0948 117.706 44.9804C117.433 44.866 117.14 44.8065 116.845 44.8051C116.549 44.8037 116.256 44.8605 115.982 44.9723C115.709 45.0841 115.46 45.2486 115.25 45.4566Z" fill="#E8505D"/>
<path d="M107.181 37.3507C106.866 37.6654 106.464 37.8796 106.026 37.9658C105.589 38.052 105.136 38.0065 104.725 37.835C104.313 37.6636 103.962 37.3738 103.716 37.0027C103.469 36.6315 103.339 36.1955 103.341 35.7501C103.343 35.3047 103.477 34.8698 103.727 34.5008C103.976 34.1318 104.33 33.8451 104.743 33.6772C105.156 33.5093 105.609 33.4677 106.046 33.5578C106.482 33.6478 106.882 33.8653 107.195 34.1828C107.611 34.6058 107.843 35.1762 107.841 35.7696C107.838 36.363 107.601 36.9313 107.181 37.3507Z" fill="#3E97FF"/>
<path d="M107.137 48.5956C106.822 48.9102 106.42 49.1242 105.983 49.2102C105.545 49.2963 105.092 49.2506 104.681 49.079C104.27 48.9073 103.919 48.6175 103.672 48.2462C103.426 47.8749 103.296 47.4389 103.298 46.9934C103.3 46.548 103.434 46.1133 103.684 45.7443C103.934 45.3754 104.288 45.0889 104.701 44.9211C105.113 44.7534 105.567 44.712 106.003 44.8022C106.44 44.8924 106.84 45.1101 107.152 45.4277C107.569 45.8509 107.801 46.4213 107.798 47.0147C107.795 47.6081 107.558 48.1764 107.137 48.5956Z" fill="#CF3D54"/>
<path d="M128.46 43.5852C129.108 43.0955 129.195 43.3691 129.742 43.9163C130.016 44.1898 130.765 44.6657 130.275 45.068C129.252 45.9024 128.33 46.2771 127.025 46.2771C124.071 46.2634 121.982 44.0599 122.15 41.1369C122.221 39.8277 122.74 38.5886 123.763 37.7391C124.7 36.9472 125.866 36.6024 127.091 36.6312C127.691 36.6294 128.286 36.7466 128.841 36.9759C129.217 37.1115 129.571 37.3008 129.892 37.5381C130.541 38.0377 130.238 38.33 129.733 38.8334C129.618 38.9484 129.503 39.0645 129.402 39.1795C129.143 39.438 128.97 39.6254 128.625 39.3805C127.962 38.9196 127.125 38.6748 126.333 38.8809C123.783 39.528 123.898 44.0636 127.026 44.0786C127.544 44.0718 128.047 43.8988 128.46 43.5852ZM199.343 46.3334C199.241 46.3338 199.14 46.3141 199.045 46.2752C198.95 46.2364 198.865 46.1792 198.792 46.107C198.72 46.0347 198.662 45.9489 198.623 45.8544C198.584 45.7599 198.564 45.6586 198.565 45.5564L198.608 35.5069C198.608 35.4047 198.627 35.3034 198.667 35.2088C198.705 35.1142 198.762 35.0283 198.835 34.956C198.907 34.8836 198.993 34.8263 199.088 34.7873C199.182 34.7483 199.284 34.7284 199.386 34.7287H200.222C200.324 34.7284 200.426 34.7483 200.521 34.7874C200.615 34.8265 200.701 34.8839 200.773 34.9564C200.846 35.0289 200.903 35.115 200.942 35.2097C200.981 35.3044 201 35.4058 201 35.5082L200.956 45.5576C200.956 45.6598 200.937 45.761 200.898 45.8555C200.859 45.95 200.802 46.0359 200.729 46.1081C200.657 46.1804 200.571 46.2376 200.476 46.2765C200.382 46.3153 200.281 46.3351 200.178 46.3346L199.343 46.3334ZM194.968 45.1679C194.061 46.0173 193.196 46.4633 191.914 46.4633C189.321 46.4483 188.081 44.3035 188.081 41.8988L188.096 37.8104C188.095 37.7082 188.116 37.607 188.154 37.5125C188.193 37.4181 188.251 37.3323 188.323 37.2602C188.395 37.1881 188.482 37.131 188.576 37.0923C188.671 37.0536 188.772 37.034 188.874 37.0347H189.711C189.813 37.0341 189.915 37.0539 190.009 37.0927C190.104 37.1316 190.189 37.1888 190.261 37.2611C190.334 37.3334 190.391 37.4192 190.43 37.5137C190.469 37.6082 190.489 37.7094 190.488 37.8116L190.474 41.9001C190.474 43.2392 191.194 44.2897 192.607 44.2897C194.02 44.2897 194.883 43.1093 194.897 41.7914V40.3312C194.886 40.2745 194.881 40.2166 194.883 40.1588L194.897 37.8403C194.896 37.7382 194.916 37.6369 194.955 37.5424C194.994 37.4479 195.051 37.3621 195.124 37.2898C195.196 37.2176 195.282 37.1604 195.376 37.1215C195.471 37.0826 195.572 37.0629 195.674 37.0634H196.5C196.602 37.0629 196.703 37.0826 196.798 37.1215C196.892 37.1604 196.978 37.2176 197.051 37.2898C197.123 37.3621 197.18 37.4479 197.219 37.5424C197.258 37.6369 197.277 37.7382 197.277 37.8403L197.25 45.5576C197.248 45.7618 197.165 45.9569 197.019 46.1C196.873 46.2431 196.676 46.3225 196.472 46.3208H195.766C195.565 46.3146 195.374 46.2322 195.233 46.0904C195.091 45.9486 195.008 45.7581 195.002 45.5576L194.968 45.1679ZM185.022 37.0634H186.636C186.738 37.0648 186.839 37.0865 186.933 37.1272C187.027 37.1679 187.112 37.2267 187.183 37.3003C187.254 37.374 187.309 37.4609 187.346 37.5562C187.384 37.6514 187.402 37.7531 187.4 37.8553V38.3875C187.398 38.5926 187.316 38.7889 187.171 38.9342C187.026 39.0795 186.83 39.1622 186.624 39.1644H185.007L184.978 45.5139C184.979 45.6162 184.959 45.7174 184.92 45.812C184.881 45.9066 184.824 45.9925 184.752 46.0649C184.679 46.1372 184.593 46.1946 184.499 46.2335C184.404 46.2725 184.303 46.2924 184.201 46.2921H183.366C183.263 46.2924 183.162 46.2725 183.068 46.2336C182.973 46.1946 182.887 46.1372 182.815 46.0649C182.742 45.9926 182.685 45.9067 182.645 45.8121C182.607 45.7175 182.587 45.6162 182.587 45.5139L182.616 36.7323C182.616 34.8174 183.711 33.3047 185.671 33.1323C185.728 33.1323 185.771 33.1185 185.828 33.1185C185.943 33.111 186.059 33.111 186.174 33.1185H186.924C187.027 33.12 187.127 33.1416 187.221 33.1822C187.315 33.2228 187.4 33.2816 187.471 33.3551C187.542 33.4286 187.598 33.5154 187.635 33.6105C187.672 33.7056 187.69 33.8071 187.688 33.9092V34.3989C187.687 34.6047 187.605 34.8017 187.459 34.9473C187.313 35.0929 187.117 35.1755 186.911 35.1771H186.306C185.383 35.1771 184.994 35.8817 184.979 36.7461L185.022 37.0634ZM179.231 37.0347H181C181.204 37.0366 181.399 37.1196 181.542 37.2652C181.686 37.4109 181.765 37.6074 181.764 37.8116V38.3437C181.761 38.548 181.678 38.743 181.533 38.8861C181.387 39.0292 181.19 39.1086 180.986 39.107H179.216L179.202 42.9919C179.202 43.7414 179.562 44.1723 180.311 44.1723H180.671C180.875 44.1746 181.07 44.2578 181.214 44.4037C181.357 44.5496 181.436 44.7462 181.435 44.9505V45.4902C181.432 45.6942 181.349 45.8891 181.203 46.0322C181.058 46.1752 180.861 46.2548 180.657 46.2534H179.979C179.854 46.2559 179.729 46.2509 179.605 46.2384C177.688 46.1135 176.838 44.8718 176.838 42.9993C176.853 40.4798 176.853 37.9753 176.867 35.4557C176.868 35.3545 176.889 35.2545 176.928 35.1613C176.968 35.0682 177.026 34.9838 177.098 34.9129C177.171 34.842 177.256 34.7861 177.35 34.7483C177.444 34.7104 177.544 34.6915 177.646 34.6925H178.467C178.671 34.6944 178.867 34.7774 179.01 34.9231C179.153 35.0687 179.233 35.2652 179.231 35.4694V37.0347ZM153.606 36.9335H155.374C155.579 36.9354 155.774 37.0184 155.917 37.164C156.06 37.3097 156.14 37.5063 156.138 37.7104V38.2451C156.136 38.4491 156.053 38.644 155.907 38.7871C155.761 38.9301 155.565 39.0097 155.361 39.0083H153.586V42.8944C153.586 43.6439 153.946 44.0749 154.694 44.0749H155.056C155.157 44.0758 155.257 44.0967 155.35 44.1363C155.443 44.1759 155.527 44.2334 155.598 44.3055C155.669 44.3777 155.725 44.4631 155.762 44.5568C155.8 44.6505 155.819 44.7508 155.818 44.8519V45.384C155.816 45.5882 155.733 45.7833 155.588 45.9264C155.442 46.0694 155.245 46.1489 155.041 46.1472H154.508C152.418 46.1335 151.208 45.2403 151.208 42.8994C151.223 40.3799 151.223 37.8741 151.237 35.3545C151.239 35.1502 151.323 34.9552 151.469 34.8121C151.615 34.669 151.811 34.5896 152.016 34.5913H152.837C153.041 34.5936 153.237 34.6768 153.379 34.8228C153.522 34.9687 153.602 35.1653 153.6 35.3695L153.606 36.9335ZM143.205 38.0277C144.055 37.2357 144.977 36.7323 146.172 36.7323C148.766 36.7461 150.106 38.8559 150.091 41.2955L150.077 45.384C150.077 45.4863 150.057 45.5876 150.018 45.6822C149.979 45.7768 149.922 45.8627 149.85 45.935C149.777 46.0073 149.691 46.0647 149.597 46.1036C149.502 46.1426 149.401 46.1625 149.298 46.1622H148.463C148.361 46.1625 148.26 46.1426 148.165 46.1036C148.07 46.0647 147.984 46.0073 147.912 45.935C147.84 45.8627 147.782 45.7768 147.743 45.6822C147.704 45.5876 147.684 45.4863 147.685 45.384L147.7 41.3242C147.7 39.9851 146.98 38.9346 145.567 38.9346C144.155 38.9346 143.291 40.1013 143.277 41.4254L143.262 45.384C143.26 45.5882 143.177 45.7833 143.031 45.9264C142.886 46.0694 142.689 46.1489 142.485 46.1472H141.663C141.459 46.1452 141.264 46.0623 141.121 45.9166C140.977 45.7709 140.898 45.5745 140.9 45.3702C140.913 42.9082 140.913 40.4323 140.928 37.9703V37.6392C140.929 37.4353 141.011 37.2399 141.155 37.0958C141.3 36.9519 141.495 36.871 141.7 36.871H142.406C142.606 36.877 142.797 36.9593 142.939 37.1012C143.081 37.243 143.164 37.4337 143.17 37.6342L143.205 38.0277ZM168.878 38.1276C169.728 37.3369 170.65 36.8323 171.846 36.8323C174.44 36.8473 175.778 38.9633 175.765 41.3967L175.75 45.4902C175.75 45.5924 175.731 45.6937 175.691 45.7883C175.653 45.8829 175.595 45.9688 175.523 46.0411C175.451 46.1135 175.365 46.1708 175.27 46.2098C175.176 46.2488 175.074 46.2687 174.972 46.2684H174.137C174.035 46.2687 173.933 46.2488 173.839 46.2098C173.744 46.1708 173.658 46.1135 173.586 46.0412C173.514 45.9689 173.456 45.883 173.417 45.7884C173.378 45.6938 173.358 45.5924 173.358 45.4902L173.373 41.4304C173.373 40.0913 172.652 39.0408 171.241 39.0408C169.829 39.0408 168.965 40.2063 168.95 41.5316L168.929 45.4902C168.927 45.6945 168.844 45.8896 168.698 46.0326C168.552 46.1757 168.355 46.2551 168.151 46.2534H167.329C167.125 46.2511 166.931 46.168 166.788 46.0224C166.645 45.8767 166.566 45.6804 166.567 45.4764L166.596 37.7441C166.596 37.6425 166.617 37.542 166.656 37.4482C166.695 37.3545 166.753 37.2695 166.825 37.1981C166.898 37.1267 166.984 37.0703 167.077 37.0322C167.172 36.994 167.273 36.9749 167.374 36.9759H168.081C168.282 36.9826 168.473 37.066 168.615 37.2091C168.757 37.3522 168.839 37.5441 168.843 37.7454L168.878 38.1276ZM135.361 36.6599C132.551 36.6449 130.563 38.6748 130.548 41.4679C130.535 44.2897 132.493 46.2921 135.332 46.3058C138.171 46.3196 140.158 44.3335 140.172 41.4929C140.187 38.7185 138.156 36.6736 135.361 36.6599ZM158.686 42.4335C158.887 43.7289 160.127 44.261 161.337 44.276C161.943 44.2707 162.542 44.1384 163.094 43.8875C163.183 43.8514 163.27 43.8096 163.353 43.7626C163.642 43.6039 163.901 43.504 164.161 43.7626C164.305 43.9063 164.435 44.0512 164.578 44.1798C164.714 44.3092 164.839 44.4492 164.953 44.5983C165.342 45.0867 165.068 45.2029 164.622 45.5052C163.671 46.1385 162.432 46.4545 161.293 46.4545C158.24 46.4408 156.222 44.5808 156.222 41.5029C156.237 38.5936 158.253 36.6649 161.164 36.6786C164.132 36.6936 165.817 38.4362 165.861 41.4017C165.874 42.2074 165.903 42.4672 165.068 42.4672L158.686 42.4335ZM135.361 38.8334C136.816 38.8334 137.781 40.1013 137.781 41.4979C137.781 42.9519 136.873 44.1211 135.346 44.1211C133.818 44.1211 132.926 42.9406 132.926 41.4866C132.926 40.0326 133.848 38.8334 135.361 38.8334ZM158.75 40.4323L163.533 40.4461C163.359 39.2506 162.366 38.7759 161.228 38.7759C160.091 38.7759 159.103 39.3093 158.75 40.4323Z" fill="black"/>
</g>
<defs>
<clipPath id="clip0_401_2904">
<rect width="100" height="20.6186" fill="white" transform="translate(101 31)"/>
</clipPath>
</defs>
</svg>
