<svg width="250" height="82" viewBox="0 0 250 82" fill="none" xmlns="http://www.w3.org/2000/svg">
<g clip-path="url(#clip0_401_14)">
<mask id="mask0_401_14" style="mask-type:alpha" maskUnits="userSpaceOnUse" x="20" y="16" width="42" height="51">
<path d="M23.7122 16L27.4267 23.9538H20L23.7122 16ZM20 25.2104H27.4267V60.7977H20V25.2104ZM20 62.0542H27.4267V66.3808H20V62.0542ZM33.2137 23.9331L38.3572 18.7686L62 42.5471L38.2382 67L33.1038 62.098L51.7679 42.5817L33.2137 23.9354V23.9331Z" fill="white"/>
</mask>
<g mask="url(#mask0_401_14)">
<path d="M23.7122 16L27.4267 23.9538H20L23.7122 16ZM20 25.2104H27.4267V60.7977H20V25.2104ZM20 62.0542H27.4267V66.3808H20V62.0542ZM33.2137 23.9331L38.3572 18.7686L62 42.5471L38.2382 67L33.1038 62.098L51.7679 42.5817L33.2137 23.9354V23.9331Z" fill="white"/>
<path fill-rule="evenodd" clip-rule="evenodd" d="M20 16H62.0709V67.0023H20V16Z" fill="url(#paint0_linear_401_14)"/>
</g>
</g>
<g clip-path="url(#clip1_401_14)">
<path fill-rule="evenodd" clip-rule="evenodd" d="M106.293 45.041L112.303 37.795H106.391V37.1599H113.218V37.7461L107.224 44.9921H113.185V45.6271H106.292V45.041H106.293ZM118.656 45.7899C118.058 45.7899 117.503 45.6731 116.991 45.4395C116.487 45.212 116.034 44.8853 115.659 44.4789C114.88 43.6284 114.451 42.5144 114.458 41.3607C114.458 40.7636 114.565 40.2023 114.777 39.6753C114.99 39.149 115.281 38.6877 115.651 38.2913C116.022 37.8943 116.469 37.5759 116.966 37.3548C117.482 37.1247 118.043 37.0082 118.608 37.0132C119.207 37.0132 119.761 37.13 120.273 37.3636C120.785 37.5972 121.226 37.911 121.596 38.3074C121.97 38.7097 122.264 39.1797 122.462 39.6921C122.669 40.2176 122.772 40.7746 122.772 41.3607V41.5651C122.776 41.617 122.77 41.6692 122.755 41.7191H115.308C115.368 42.6365 115.753 43.5024 116.394 44.1614C116.693 44.4658 117.04 44.7045 117.431 44.8782C117.828 45.0528 118.256 45.1416 118.689 45.1388C118.982 45.139 119.273 45.098 119.555 45.0169C119.831 44.938 120.097 44.8257 120.347 44.6826C120.588 44.5443 120.808 44.3717 121 44.1702C121.191 43.9687 121.34 43.749 121.449 43.5103L122.168 43.7059C122.048 44.0096 121.871 44.2899 121.637 44.5446C121.403 44.8001 121.131 45.0191 120.82 45.2038C120.51 45.3884 120.17 45.5322 119.8 45.6351C119.428 45.7386 119.043 45.7907 118.656 45.7899ZM121.988 41.0673C121.962 40.5947 121.849 40.1312 121.653 39.7001C121.474 39.3034 121.225 38.942 120.918 38.6329C120.621 38.3356 120.269 38.098 119.882 37.9329C119.484 37.7635 119.056 37.6775 118.624 37.6804C118.192 37.6775 117.764 37.7635 117.366 37.9329C116.571 38.2715 115.94 38.909 115.61 39.7081C115.427 40.14 115.32 40.5999 115.292 41.068H121.988V41.0673ZM128.587 37.8921C127.824 37.914 127.157 38.1395 126.585 38.568C126.014 38.9972 125.614 39.5862 125.385 40.3344V45.6271H124.569V37.1607H125.353V39.2446C125.647 38.6475 126.036 38.1614 126.521 37.7869C127.005 37.4125 127.525 37.1986 128.08 37.1446C128.189 37.1329 128.287 37.1278 128.374 37.1278H128.586V37.8928L128.587 37.8921ZM133.699 45.7899C133.1 45.7899 132.547 45.6731 132.041 45.4395C131.544 45.213 131.096 44.8894 130.726 44.4877C130.351 44.0795 130.058 43.6043 129.86 43.087C129.653 42.5522 129.547 41.9832 129.55 41.4096C129.547 40.8299 129.655 40.255 129.869 39.7162C130.08 39.184 130.372 38.7176 130.742 38.3154C131.113 37.9137 131.559 37.5898 132.056 37.3629C132.571 37.1274 133.132 37.0078 133.699 37.0125C134.286 37.0125 134.83 37.1293 135.331 37.3629C135.832 37.5964 136.271 37.914 136.646 38.3154C137.424 39.1575 137.853 40.2633 137.847 41.4096C137.847 41.9957 137.74 42.5556 137.529 43.087C137.326 43.6037 137.029 44.0785 136.654 44.4877C136.284 44.8895 135.837 45.2133 135.34 45.4403C134.834 45.6738 134.286 45.7906 133.698 45.7906L133.699 45.7899ZM130.367 41.4424C130.367 41.9417 130.454 42.4111 130.628 42.8512C130.802 43.2906 131.039 43.6731 131.338 43.9986C131.637 44.3242 131.989 44.5826 132.392 44.7724C132.795 44.9622 133.224 45.057 133.682 45.057C134.139 45.057 134.569 44.9622 134.972 44.7724C135.375 44.5823 135.736 44.3138 136.034 43.9826C136.674 43.2733 137.024 42.349 137.014 41.3935C137.017 40.9116 136.929 40.4335 136.753 39.9848C136.587 39.5582 136.343 39.1662 136.034 38.8286C135.735 38.502 135.378 38.2341 134.98 38.0388C134.582 37.8432 134.143 37.743 133.699 37.7461C133.241 37.7461 132.811 37.8432 132.408 38.0388C132.008 38.2324 131.65 38.5036 131.355 38.8366C131.056 39.1731 130.815 39.5665 130.636 40.0176C130.456 40.4709 130.364 40.9546 130.367 41.4424ZM146.747 45.6271H145.931V40.9052C145.931 38.8103 145.229 37.7629 143.824 37.7629C143.476 37.7629 143.136 37.8286 142.804 37.9585C142.472 38.0884 142.161 38.2724 141.872 38.5118C141.584 38.7505 141.331 39.03 141.113 39.3505C140.897 39.6676 140.732 40.0165 140.623 40.3848V45.6278H139.806V33.7402H140.623V39.1782C140.957 38.533 141.455 37.9881 142.069 37.5994C142.659 37.2159 143.348 37.0122 144.053 37.0132C144.521 37.0132 144.924 37.1001 145.261 37.2738C145.599 37.4475 145.88 37.6972 146.102 38.0227C146.326 38.3483 146.489 38.7417 146.593 39.203C146.696 39.6643 146.747 40.1833 146.747 40.7578V45.6271ZM152.823 45.7899C152.225 45.7899 151.669 45.6731 151.157 45.4395C150.653 45.2119 150.201 44.8852 149.826 44.4789C149.047 43.6284 148.618 42.5144 148.626 41.3607C148.626 40.7636 148.732 40.2023 148.945 39.6753C149.156 39.149 149.448 38.6877 149.818 38.2913C150.189 37.8944 150.636 37.576 151.132 37.3548C151.649 37.1247 152.209 37.0082 152.775 37.0132C153.373 37.0132 153.928 37.13 154.44 37.3636C154.951 37.5972 155.393 37.911 155.763 38.3074C156.137 38.7097 156.431 39.1797 156.628 39.6921C156.835 40.2176 156.939 40.7746 156.939 41.3607V41.5651C156.943 41.617 156.937 41.6691 156.923 41.7191H149.474C149.535 42.6365 149.92 43.5024 150.561 44.1614C150.86 44.4658 151.206 44.7045 151.597 44.8782C151.993 45.0528 152.422 45.1416 152.855 45.1388C153.148 45.139 153.439 45.098 153.721 45.0169C153.997 44.938 154.263 44.8257 154.512 44.6826C154.754 44.5443 154.974 44.3717 155.166 44.1702C155.356 43.9687 155.507 43.749 155.615 43.5103L156.334 43.7059C156.214 44.0096 156.037 44.2899 155.803 44.5446C155.569 44.8001 155.296 45.0191 154.986 45.2038C154.676 45.3884 154.337 45.5322 153.966 45.6351C153.594 45.7385 153.209 45.7906 152.823 45.7899H152.823ZM156.155 41.0673C156.129 40.5947 156.015 40.1312 155.82 39.7001C155.641 39.3035 155.392 38.942 155.085 38.6329C154.788 38.3355 154.435 38.0979 154.048 37.9329C153.651 37.7635 153.223 37.6775 152.791 37.6804C152.358 37.6775 151.93 37.7635 151.533 37.9329C150.738 38.2717 150.107 38.9092 149.777 39.7081C149.594 40.1399 149.486 40.5998 149.458 41.068H156.155V41.0673ZM158.735 45.6271V37.1607H159.553V45.6278H158.735V45.6271ZM158.735 35.238V33.7402H159.553V35.238H158.735ZM165.545 45.7578C164.985 45.7639 164.432 45.6384 163.929 45.3914C163.447 45.1527 163.017 44.8205 162.664 44.414C162.307 44.0022 162.025 43.5311 161.83 43.022C161.63 42.508 161.527 41.9611 161.528 41.4096C161.528 40.8344 161.623 40.2804 161.814 39.749C161.995 39.2338 162.269 38.7563 162.623 38.3402C162.971 37.9329 163.387 37.6103 163.872 37.3709C164.356 37.1322 164.893 37.0132 165.48 37.0132C166.221 37.0132 166.866 37.2059 167.416 37.5913C167.962 37.9732 168.436 38.4504 168.812 39.0001V37.1585H169.564V45.7892C169.564 46.3651 169.454 46.8695 169.237 47.3038C169.029 47.7251 168.731 48.0951 168.363 48.387C167.998 48.6746 167.574 48.8913 167.089 49.0381C166.604 49.1841 166.096 49.2578 165.562 49.2578C165.118 49.2625 164.674 49.2159 164.239 49.1191C163.877 49.0381 163.528 48.9067 163.202 48.7286C162.907 48.563 162.637 48.3543 162.402 48.1096C162.168 47.8652 161.962 47.5949 161.789 47.3038L162.345 46.9293C162.683 47.5045 163.14 47.9257 163.717 48.1913C164.293 48.457 164.909 48.5899 165.562 48.5899C165.998 48.5899 166.409 48.5308 166.796 48.4111C167.182 48.2914 167.519 48.1154 167.808 47.8819C168.096 47.6483 168.325 47.3578 168.494 47.0103C168.662 46.6636 168.747 46.2563 168.747 45.7892V43.9344C168.401 44.4851 167.924 44.9412 167.358 45.2614C166.809 45.5848 166.183 45.7561 165.546 45.7578H165.545ZM165.742 45.057C166.103 45.0568 166.46 44.988 166.795 44.8541C167.138 44.7184 167.448 44.5417 167.726 44.3242C168.004 44.1074 168.232 43.8629 168.412 43.5921C168.592 43.3205 168.704 43.049 168.747 42.7775V39.9928C168.487 39.3459 168.048 38.7867 167.481 38.3811C167.204 38.1861 166.902 38.0299 166.583 37.9169C166.272 37.8046 165.942 37.7468 165.611 37.7461C165.1 37.7461 164.642 37.8541 164.239 38.0716C163.845 38.2816 163.497 38.5697 163.218 38.9183C162.938 39.271 162.723 39.6706 162.582 40.0987C162.437 40.5261 162.362 40.9743 162.361 41.4257C162.361 41.9147 162.448 42.376 162.623 42.8103C162.796 43.2446 163.036 43.63 163.341 43.9665C163.646 44.3023 164.005 44.5687 164.419 44.7643C164.832 44.9595 165.285 45.0595 165.742 45.057H165.742ZM179.053 45.6271H178.236V40.9052C178.236 38.8103 177.534 37.7629 176.129 37.7629C175.78 37.7629 175.44 37.8286 175.108 37.9585C174.776 38.0884 174.466 38.2724 174.177 38.5118C173.889 38.7505 173.636 39.03 173.418 39.3505C173.202 39.6676 173.037 40.0165 172.928 40.3848V45.6278H172.111V33.7402H172.928V39.1782C173.261 38.533 173.761 37.9881 174.374 37.5994C174.964 37.2159 175.653 37.0122 176.358 37.0132C176.826 37.0132 177.228 37.1001 177.566 37.2738C177.904 37.4475 178.184 37.6972 178.407 38.0227C178.631 38.3483 178.794 38.7417 178.897 39.203C179.001 39.6643 179.053 40.1833 179.053 40.7578V45.6271ZM185.308 45.2198C185.264 45.2417 185.191 45.2826 185.087 45.3424C184.984 45.4023 184.853 45.4592 184.695 45.5132C184.521 45.5718 184.344 45.6205 184.164 45.6592C183.969 45.703 183.756 45.7249 183.528 45.7249C183.299 45.7249 183.084 45.6921 182.882 45.6271C182.688 45.5658 182.507 45.4663 182.352 45.3344C182.199 45.2046 182.077 45.0435 181.992 44.8622C181.901 44.6573 181.856 44.4346 181.861 44.2103V37.8271H180.669V37.1592H181.861V34.2614H182.678V37.1592H184.654V37.8271H182.678V44.0154C182.678 44.3293 182.788 44.5658 183.005 44.7235C183.223 44.8811 183.467 44.96 183.739 44.96C184.077 44.96 184.369 44.9023 184.613 44.7884C184.858 44.6746 185.008 44.6016 185.063 44.5695L185.307 45.2198H185.308Z" fill="black"/>
<mask id="mask1_401_14" style="mask-type:alpha" maskUnits="userSpaceOnUse" x="86" y="32" width="14" height="17">
<path d="M87.1832 32L88.3672 34.5226H86L87.1832 32ZM86 34.9212H88.3672V46.208H86V34.9212ZM86 46.6066H88.3672V47.9788H86V46.6066ZM90.2117 34.5161L91.8511 32.8781L99.3869 40.4197L91.8131 48.1752L90.1766 46.6204L96.1255 40.4307L90.2117 34.5168V34.5161Z" fill="white"/>
</mask>
<g mask="url(#mask1_401_14)">
<path d="M87.1832 32L88.3672 34.5226H86L87.1832 32ZM86 34.9212H88.3672V46.208H86V34.9212ZM86 46.6066H88.3672V47.9788H86V46.6066ZM90.2117 34.5161L91.8511 32.8781L99.3869 40.4197L91.8131 48.1752L90.1766 46.6204L96.1255 40.4307L90.2117 34.5168V34.5161Z" fill="white"/>
<path fill-rule="evenodd" clip-rule="evenodd" d="M86 32H99.4095V48.1759H86V32Z" fill="url(#paint1_linear_401_14)"/>
</g>
</g>
<defs>
<linearGradient id="paint0_linear_401_14" x1="26.5791" y1="67.0023" x2="63.5072" y2="22.6779" gradientUnits="userSpaceOnUse">
<stop stop-color="#EC407A"/>
<stop offset="1" stop-color="#FFA000"/>
</linearGradient>
<linearGradient id="paint1_linear_401_14" x1="88.097" y1="48.1759" x2="99.7985" y2="34.061" gradientUnits="userSpaceOnUse">
<stop stop-color="#EC407A"/>
<stop offset="1" stop-color="#FFA000"/>
</linearGradient>
<clipPath id="clip0_401_14">
<rect width="42" height="51" fill="white" transform="translate(20 16)"/>
</clipPath>
<clipPath id="clip1_401_14">
<rect width="100" height="17.5182" fill="white" transform="translate(86 32)"/>
</clipPath>
</defs>
</svg>
