<svg width="250" height="82" viewBox="0 0 250 82" fill="none" xmlns="http://www.w3.org/2000/svg">
<path d="M59.7095 25.0358L34.7508 18.7723C32.154 18.1206 29.524 19.7112 28.8765 22.325L21.7607 51.0515C21.1132 53.6653 22.6935 56.3125 25.2903 56.9642L50.2489 63.2277C52.8458 63.8794 55.4758 62.2888 56.1233 59.675L63.2391 30.9485C63.8866 28.3347 62.3063 25.6875 59.7095 25.0358Z" fill="white"/>
<path fill-rule="evenodd" clip-rule="evenodd" d="M34.3602 20.3499C32.6289 19.9154 30.8756 20.9758 30.4439 22.7183L23.3281 51.4448C22.8965 53.1873 23.95 54.9521 25.6812 55.3866L50.6398 61.6501C52.3711 62.0846 54.1244 61.0242 54.5561 59.2817L61.6719 30.5552C62.1035 28.8127 61.05 27.0479 59.3188 26.6134L34.3602 20.3499ZM27.3093 21.9317C28.1726 18.4466 31.6793 16.3258 35.1417 17.1947L60.1003 23.4583C63.5628 24.3272 65.6698 27.8568 64.8065 31.3419L57.6907 60.0683C56.8274 63.5534 53.3207 65.6742 49.8583 64.8053L24.8997 58.5417C21.4372 57.6728 19.3302 54.1432 20.1935 50.6581L27.3093 21.9317Z" fill="black"/>
<path d="M56.923 32.7138L33.748 26.8979C33.2227 26.766 32.6907 27.0878 32.5597 27.6166L32.2525 28.8569C32.1215 29.3857 32.4412 29.9212 32.9665 30.053L56.1414 35.8689C56.6667 36.0008 57.1987 35.679 57.3297 35.1502L57.637 33.9099C57.7679 33.3811 57.4483 32.8456 56.923 32.7138Z" fill="#232224"/>
<path d="M55.1612 40.0873L31.9863 34.2714C31.461 34.1396 30.929 34.4613 30.798 34.9901L30.4907 36.2305C30.3598 36.7592 30.6794 37.2947 31.2048 37.4266L54.3797 43.2425C54.905 43.3743 55.437 43.0525 55.568 42.5238L55.8752 41.2834C56.0062 40.7546 55.6865 40.2191 55.1612 40.0873Z" fill="#232224"/>
<path d="M40.8023 43.8474L30.166 41.1782C29.6407 41.0463 29.1087 41.3681 28.9777 41.8968L28.6704 43.1372C28.5395 43.666 28.8591 44.2015 29.3844 44.3333L40.0208 47.0025C40.5461 47.1344 41.0781 46.8126 41.2091 46.2839L41.5163 45.0435C41.6473 44.5147 41.3276 43.9792 40.8023 43.8474Z" fill="#232224"/>
<path d="M133.709 25.0358L108.751 18.7723C106.154 18.1206 103.524 19.7112 102.876 22.325L95.7607 51.0515C95.1132 53.6653 96.6935 56.3125 99.2903 56.9642L124.249 63.2277C126.846 63.8794 129.476 62.2888 130.123 59.675L137.239 30.9485C137.887 28.3347 136.306 25.6875 133.709 25.0358Z" fill="white"/>
<path fill-rule="evenodd" clip-rule="evenodd" d="M108.36 20.3499C106.629 19.9154 104.876 20.9758 104.444 22.7183L97.3281 51.4448C96.8965 53.1873 97.95 54.9521 99.6812 55.3866L124.64 61.6501C126.371 62.0846 128.124 61.0242 128.556 59.2817L135.672 30.5552C136.104 28.8127 135.05 27.0479 133.319 26.6134L108.36 20.3499ZM101.309 21.9317C102.173 18.4466 105.679 16.3258 109.142 17.1947L134.1 23.4583C137.563 24.3272 139.67 27.8568 138.807 31.3419L131.691 60.0683C130.827 63.5534 127.321 65.6742 123.858 64.8053L98.8997 58.5417C95.4372 57.6728 93.3302 54.1432 94.1935 50.6581L101.309 21.9317Z" fill="black"/>
<path d="M130.923 32.7138L107.748 26.8979C107.223 26.766 106.691 27.0878 106.56 27.6166L106.252 28.8569C106.121 29.3857 106.441 29.9212 106.966 30.053L130.141 35.8689C130.667 36.0008 131.199 35.679 131.33 35.1502L131.637 33.9099C131.768 33.3811 131.448 32.8456 130.923 32.7138Z" fill="#232224"/>
<path d="M129.161 40.0873L105.986 34.2714C105.461 34.1396 104.929 34.4613 104.798 34.9901L104.491 36.2305C104.36 36.7592 104.679 37.2947 105.205 37.4266L128.38 43.2425C128.905 43.3743 129.437 43.0525 129.568 42.5238L129.875 41.2834C130.006 40.7546 129.687 40.2191 129.161 40.0873Z" fill="#232224"/>
<path d="M114.802 43.8474L104.166 41.1782C103.641 41.0463 103.109 41.3681 102.978 41.8968L102.67 43.1372C102.539 43.666 102.859 44.2015 103.384 44.3333L114.021 47.0025C114.546 47.1344 115.078 46.8126 115.209 46.2839L115.516 45.0435C115.647 44.5147 115.328 43.9792 114.802 43.8474Z" fill="#232224"/>
</svg>
