<svg width="250" height="82" viewBox="0 0 250 82" fill="none" xmlns="http://www.w3.org/2000/svg">
<g clip-path="url(#clip0_401_937)">
<mask id="mask0_401_937" style="mask-type:alpha" maskUnits="userSpaceOnUse" x="20" y="24" width="50" height="35">
<path d="M20.0112 24.0916H69.8281V58.8901H20.0112V24.0916Z" fill="white"/>
</mask>
<g mask="url(#mask0_401_937)">
<path fill-rule="evenodd" clip-rule="evenodd" d="M40.696 27.9011C42.304 26.2271 44.5421 25.1905 47.0147 25.1905C50.3114 25.1905 53.1685 27.022 54.707 29.7509C56.0726 29.1404 57.5518 28.8252 59.0476 28.826C64.9817 28.826 69.7985 33.6795 69.7985 39.6685C69.7985 45.6575 64.9817 50.511 59.0476 50.511C58.3224 50.511 57.6154 50.4381 56.9231 50.3003C55.5769 52.6996 53.0037 54.3296 50.0733 54.3296C48.8802 54.332 47.7024 54.0614 46.63 53.5384C45.2656 56.7436 42.0879 58.9963 38.3883 58.9963C34.5238 58.9963 31.2454 56.5604 29.9817 53.1355C29.4192 53.2542 28.8459 53.3139 28.2711 53.3135C23.674 53.3135 19.9561 49.5406 19.9561 44.9069C19.9561 41.7934 21.63 39.0828 24.1136 37.6176C23.5867 36.4038 23.3155 35.0946 23.3169 33.7714C23.3169 28.4234 27.6575 24.1011 33.0055 24.1011C36.1374 24.1011 38.9396 25.5937 40.6978 27.9106" fill="#00A1E0"/>
<path fill-rule="evenodd" clip-rule="evenodd" d="M27.2164 42.1869C27.1851 42.2686 27.2276 42.2856 27.2377 42.3001C27.3312 42.3679 27.4263 42.4169 27.5215 42.4721C28.0307 42.7413 28.5105 42.8201 29.0124 42.8201C30.0344 42.8201 30.6699 42.2761 30.6699 41.4006V41.3834C30.6699 40.5739 29.9519 40.279 29.2816 40.0684L29.1939 40.04C28.6866 39.8756 28.2488 39.7323 28.2488 39.399V39.382C28.2488 39.0962 28.5052 38.8856 28.9008 38.8856C29.3404 38.8856 29.8642 39.032 30.1994 39.2171C30.1994 39.2171 30.2986 39.2812 30.3347 39.1854C30.3543 39.1336 30.5252 38.6763 30.5435 38.625C30.5629 38.5713 30.5289 38.5309 30.4939 38.51C30.1093 38.2756 29.5781 38.1162 29.0287 38.1162L28.9267 38.1166C27.9908 38.1166 27.3369 38.6825 27.3369 39.492V39.5094C27.3369 40.3629 28.0585 40.6413 28.7325 40.8336L28.8409 40.8673C29.3318 41.0182 29.7567 41.1494 29.7567 41.4937V41.5109C29.7567 41.8277 29.4801 42.064 29.0369 42.064C28.8646 42.064 28.3153 42.0611 27.7201 41.6849C27.6481 41.643 27.6071 41.6127 27.5516 41.5788C27.5223 41.5611 27.449 41.529 27.4171 41.625L27.2157 42.1854L27.2164 42.1869ZM42.179 42.1854C42.1477 42.2671 42.1902 42.2842 42.2007 42.2986C42.2939 42.3664 42.3893 42.4155 42.4845 42.4706C42.9937 42.7398 43.4735 42.8186 43.9754 42.8186C44.9974 42.8186 45.6329 42.2746 45.6329 41.3992V41.382C45.6329 40.5724 44.9168 40.2776 44.2446 40.0669L44.1569 40.0386C43.6496 39.8741 43.2118 39.7309 43.2118 39.3975V39.3805C43.2118 39.0948 43.4682 38.8842 43.8638 38.8842C44.3034 38.8842 44.8254 39.0305 45.1624 39.2157C45.1624 39.2157 45.2616 39.2798 45.2979 39.184C45.3173 39.1321 45.4884 38.6748 45.5049 38.6235C45.5245 38.5699 45.4902 38.5294 45.4554 38.5085C45.0708 38.2741 44.5397 38.1147 43.9902 38.1147L43.888 38.1151C42.9521 38.1151 42.2983 38.681 42.2983 39.4906V39.508C42.2983 40.3614 43.0199 40.6398 43.6939 40.8321L43.8021 40.8658C44.2948 41.0168 44.7179 41.1479 44.7179 41.4922V41.5094C44.7179 41.8263 44.4413 42.0625 43.9981 42.0625C43.8254 42.0625 43.2746 42.0596 42.6812 41.6834C42.6093 41.6415 42.5671 41.6125 42.5126 41.5774C42.4941 41.5657 42.4078 41.532 42.3783 41.6235L42.1768 42.184L42.179 42.1854ZM52.3966 40.4697C52.3966 40.9642 52.3043 41.3543 52.1237 41.6309C51.9435 41.9038 51.6714 42.0375 51.2922 42.0375C50.9131 42.0375 50.642 41.9049 50.4644 41.6327C50.2855 41.358 50.1952 40.966 50.1952 40.4715C50.1952 39.977 50.286 39.5887 50.4644 39.3158C50.6417 39.0448 50.9113 38.9147 51.2922 38.9147C51.6732 38.9147 51.9442 39.0461 52.1237 39.3158C52.3054 39.5887 52.3966 39.977 52.3966 40.4715V40.4697ZM53.2501 39.5539C53.166 39.2701 53.0358 39.021 52.8618 38.8122C52.6877 38.6034 52.4681 38.4349 52.2061 38.314C51.9461 38.1922 51.6384 38.1309 51.2904 38.1309C50.9424 38.1309 50.6366 38.1926 50.3746 38.314C50.1146 38.4356 49.893 38.6034 49.719 38.8122C49.5453 39.021 49.4149 39.2701 49.3307 39.5539C49.2474 39.836 49.205 40.1437 49.205 40.4715C49.205 40.7994 49.2474 41.1071 49.3307 41.3891C49.4144 41.673 49.545 41.9221 49.719 42.1309C49.8931 42.3397 50.1146 42.5063 50.3746 42.6254C50.6366 42.7441 50.9442 42.8045 51.2904 42.8045C51.6366 42.8045 51.9442 42.7441 52.2043 42.6254C52.4644 42.5067 52.686 42.3397 52.86 42.1309C53.0338 41.9221 53.164 41.673 53.2483 41.3891C53.3314 41.1071 53.3737 40.7994 53.3737 40.4715C53.3737 40.1455 53.3314 39.836 53.2483 39.5539H53.2501ZM60.2629 41.8983C60.2349 41.8153 60.154 41.8466 60.154 41.8466C60.03 41.8941 59.8975 41.938 59.7565 41.96C59.6144 41.9823 59.4562 41.9935 59.2895 41.9935C58.8774 41.9935 58.5477 41.8706 58.3133 41.6272C58.077 41.3836 57.9452 40.9917 57.947 40.4605C57.9483 39.977 58.0651 39.6144 58.2748 39.336C58.4818 39.0613 58.8005 38.9184 59.2217 38.9184C59.5734 38.9184 59.8426 38.9593 60.1246 39.0475C60.1246 39.0475 60.1915 39.0767 60.2235 38.9886C60.2985 38.7816 60.3538 38.6332 60.4342 38.4061C60.4569 38.3411 60.4012 38.3136 60.3809 38.3058C60.2703 38.2625 60.0091 38.1917 59.8113 38.1618C59.6263 38.1336 59.412 38.119 59.1703 38.119C58.8113 38.119 58.4926 38.1803 58.2197 38.3019C57.9468 38.4234 57.716 38.5913 57.5329 38.8001C57.3497 39.0089 57.2105 39.258 57.1171 39.5419C57.0246 39.8239 56.9779 40.1334 56.9779 40.4613C56.9779 41.1682 57.1684 41.7415 57.5457 42.1609C57.923 42.5821 58.4908 42.7946 59.2307 42.7946C59.6684 42.7946 60.1171 42.7061 60.4395 42.5785C60.4395 42.5785 60.501 42.5488 60.4743 42.477L60.2637 41.8983H60.2629ZM61.7563 39.9935C61.7972 39.7188 61.8725 39.4898 61.9908 39.3122C62.1679 39.0411 62.4377 38.8928 62.8168 38.8928C63.1959 38.8928 63.4468 39.0419 63.6263 39.3122C63.7453 39.4908 63.7974 39.7279 63.8168 39.9935L61.7472 39.9931L61.7563 39.9935ZM64.6318 39.3891C64.5591 39.1162 64.379 38.8397 64.2618 38.7133C64.075 38.5136 63.8937 38.3726 63.7124 38.2957C63.4506 38.1844 63.169 38.1273 62.8845 38.1277C62.5237 38.1277 62.1959 38.1887 61.9303 38.3127C61.6648 38.4376 61.4413 38.6076 61.2655 38.8201C61.0899 39.0325 60.9578 39.2834 60.8736 39.571C60.7893 39.8549 60.7468 40.1662 60.7468 40.4922C60.7468 40.8256 60.7909 41.1351 60.8778 41.4153C60.9655 41.6973 61.1067 41.9446 61.2972 42.1497C61.4877 42.3567 61.7312 42.5179 62.0243 42.6314C62.3155 42.744 62.669 42.8025 63.0737 42.8012C63.9089 42.7984 64.3485 42.6125 64.5279 42.5118C64.56 42.4939 64.5902 42.4629 64.5525 42.3737L64.3638 41.8444C64.3349 41.7655 64.2551 41.794 64.2551 41.794C64.0481 41.8713 63.7551 42.0102 63.0682 42.0083C62.6195 42.0076 62.288 41.8752 62.0792 41.6677C61.8668 41.4552 61.7605 41.1457 61.7441 40.7061L64.6378 40.7083C64.6378 40.7083 64.714 40.7076 64.7219 40.6332C64.725 40.6025 64.821 40.0398 64.6356 39.3897L64.6318 39.3891ZM38.6245 39.9935C38.6653 39.7188 38.7408 39.4898 38.8589 39.3122C39.0362 39.0411 39.3058 38.8928 39.6849 38.8928C40.064 38.8928 40.3149 39.0419 40.4944 39.3122C40.6133 39.4908 40.6653 39.7279 40.6849 39.9935L38.6153 39.9931L38.6245 39.9935ZM41.4999 39.3891C41.4274 39.1162 41.2472 38.8397 41.13 38.7133C40.9431 38.5136 40.7618 38.3726 40.5805 38.2957C40.3187 38.1844 40.0371 38.1273 39.7527 38.1277C39.3919 38.1277 39.064 38.1887 38.7985 38.3127C38.5329 38.4376 38.3094 38.6076 38.1336 38.8201C37.9583 39.0325 37.8259 39.2834 37.7417 39.571C37.6576 39.8549 37.6153 40.1662 37.6153 40.4922C37.6153 40.8256 37.6591 41.1351 37.7464 41.4153C37.834 41.6973 37.9754 41.9446 38.164 42.1497C38.3545 42.3567 38.5981 42.5179 38.8911 42.6314C39.1823 42.744 39.534 42.8025 39.9406 42.8012C40.7757 42.7984 41.2153 42.6125 41.3948 42.5118C41.4267 42.4939 41.4571 42.4629 41.4192 42.3737L41.2305 41.8444C41.2014 41.7655 41.1215 41.794 41.1215 41.794C40.9146 41.8713 40.6215 42.0102 39.9347 42.0083C39.4878 42.0076 39.1545 41.8752 38.9457 41.6677C38.7333 41.4552 38.627 41.1457 38.6105 40.7061L41.5043 40.7083C41.5043 40.7083 41.5805 40.7076 41.5884 40.6332C41.5915 40.6025 41.6875 40.0398 41.5019 39.3897L41.4999 39.3891ZM32.379 41.8799C32.2657 41.7895 32.2499 41.7673 32.2124 41.7085C32.1551 41.6201 32.1257 41.4942 32.1257 41.3331C32.1257 41.0803 32.21 40.8972 32.384 40.7745C32.3822 40.7748 32.6331 40.5583 33.2228 40.5657C33.4853 40.5704 33.7472 40.5927 34.0067 40.6325V41.9457H34.0071C34.0071 41.9457 33.6408 42.0246 33.2268 42.0495C32.6389 42.0849 32.3789 41.8803 32.3807 41.8809L32.379 41.8799ZM33.5292 39.847C33.412 39.8384 33.26 39.8342 33.0787 39.8342C32.8314 39.8342 32.5915 39.8649 32.3681 39.9254C32.1428 39.9862 31.9395 40.0803 31.7655 40.2056C31.591 40.3301 31.4475 40.493 31.3461 40.6818C31.2437 40.8723 31.1915 41.0957 31.1915 41.3484C31.1915 41.6049 31.236 41.8265 31.3239 42.0078C31.4101 42.1876 31.5397 42.3431 31.7012 42.4602C31.8618 42.577 32.0602 42.6635 32.2891 42.7147C32.5162 42.7666 32.7726 42.7928 33.0547 42.7928C33.3514 42.7928 33.6463 42.7679 33.932 42.7197C34.1753 42.6777 34.4177 42.6306 34.6591 42.5783C34.7554 42.5561 34.8624 42.527 34.8624 42.527C34.9338 42.5089 34.9283 42.4325 34.9283 42.4325L34.9267 39.7951C34.9267 39.2164 34.7721 38.786 34.467 38.5204C34.1629 38.2549 33.7179 38.1212 33.1409 38.1212C32.9248 38.1212 32.575 38.1505 32.3662 38.1924C32.3662 38.1924 31.7362 38.3147 31.4761 38.5184C31.4761 38.5184 31.419 38.5536 31.4501 38.6332L31.6552 39.1827C31.6807 39.2539 31.7501 39.2296 31.7501 39.2296C31.7501 39.2296 31.7719 39.221 31.7975 39.2058C32.3525 38.9036 33.0558 38.9127 33.0558 38.9127C33.3671 38.9127 33.6089 38.9759 33.7701 39.0995C33.9278 39.2206 34.0082 39.4036 34.0082 39.7882V39.9104C33.7609 39.8745 33.532 39.8538 33.532 39.8538L33.5292 39.847ZM56.7893 38.358C56.7935 38.3483 56.7956 38.3379 56.7957 38.3274C56.7958 38.3169 56.7937 38.3065 56.7897 38.2967C56.7856 38.287 56.7796 38.2782 56.7721 38.2709C56.7646 38.2635 56.7557 38.2578 56.7459 38.2539C56.6966 38.2353 56.451 38.1834 56.2624 38.1717C55.8997 38.149 55.6983 38.2102 55.517 38.2915C55.3378 38.3723 55.1397 38.5021 55.0298 38.6523L55.0294 38.3006C55.0294 38.2523 54.9952 38.2133 54.9464 38.2133H54.2065C54.1585 38.2133 54.1237 38.2523 54.1237 38.3006V42.6047C54.1238 42.6279 54.133 42.6502 54.1495 42.6667C54.1659 42.6831 54.1882 42.6924 54.2115 42.6924H54.9697C54.9929 42.6924 55.0152 42.6831 55.0316 42.6666C55.048 42.6502 55.0572 42.6279 55.0572 42.6047V40.4435C55.0572 40.1541 55.0891 39.8666 55.1527 39.6853C55.2153 39.506 55.3005 39.3629 55.4054 39.2603C55.5055 39.1613 55.628 39.0878 55.7626 39.0461C55.8888 39.0098 56.0195 38.9915 56.1508 38.9915C56.3019 38.9915 56.4677 39.0303 56.4677 39.0303C56.5234 39.0365 56.5543 39.0025 56.5732 38.9523C56.6228 38.8202 56.7637 38.4248 56.7911 38.3461" fill="#FFFFFE"/>
<path fill-rule="evenodd" clip-rule="evenodd" d="M49.7074 36.3715C49.6136 36.3432 49.5183 36.3205 49.4218 36.3037C49.2921 36.2821 49.1607 36.2719 49.0292 36.2733C48.5066 36.2733 48.0947 36.4209 47.8055 36.7125C47.5183 37.0019 47.3229 37.4427 47.2249 38.0228L47.1896 38.2186H46.5337C46.5337 38.2186 46.4537 38.2153 46.4368 38.3026L46.3292 38.9034C46.3216 38.9609 46.3464 38.9968 46.4233 38.9964H47.0618L46.414 42.6123C46.3632 42.9035 46.3052 43.1431 46.2409 43.3246C46.1775 43.5037 46.1156 43.638 46.0394 43.7354C45.9656 43.8297 45.8956 43.8992 45.7749 43.9396C45.6753 43.9731 45.5607 43.9885 45.435 43.9885C45.365 43.9885 45.272 43.9768 45.2033 43.9631C45.1346 43.9495 45.0989 43.9341 45.0475 43.9125C45.0475 43.9125 44.9726 43.8839 44.9431 43.959C44.9191 44.0204 44.7489 44.4883 44.7288 44.5462C44.7083 44.6034 44.737 44.6484 44.7733 44.6614C44.8583 44.6918 44.9215 44.7112 45.0372 44.7385C45.198 44.7764 45.3335 44.7788 45.4605 44.7788C45.7264 44.7788 45.9687 44.7415 46.1696 44.6689C46.3718 44.5959 46.5478 44.4686 46.7035 44.2962C46.8718 44.1103 46.9777 43.9156 47.079 43.6501C47.1792 43.3869 47.2645 43.0601 47.3328 42.6794L47.9837 38.9964H48.9354C48.9354 38.9964 49.0156 38.9993 49.0323 38.9123L49.14 38.3116C49.1475 38.2541 49.1229 38.2182 49.0456 38.2186H48.122C48.1266 38.1977 48.1685 37.8728 48.2746 37.5669C48.3198 37.4363 48.405 37.331 48.4771 37.2587C48.5445 37.1898 48.6275 37.1381 48.7191 37.1081C48.8195 37.0771 48.9241 37.062 49.0292 37.0634C49.1161 37.0634 49.2015 37.0739 49.2665 37.0874C49.3561 37.1065 49.3909 37.1165 49.4143 37.1235C49.5085 37.1523 49.5211 37.1244 49.5396 37.0788L49.7605 36.4722C49.7832 36.407 49.7279 36.3796 49.7074 36.3715ZM36.8 42.62C36.8 42.6684 36.7656 42.7078 36.7172 42.7078H35.9511C35.9026 42.7078 35.8682 42.6684 35.8682 42.62V36.4537C35.8682 36.4056 35.9026 36.3665 35.9511 36.3665H36.7172C36.7656 36.3665 36.8 36.4056 36.8 36.4537V42.62Z" fill="#FFFFFE"/>
</g>
</g>
<g clip-path="url(#clip1_401_937)">
<path fill-rule="evenodd" clip-rule="evenodd" d="M96.1941 45.6741C96.1111 45.8906 96.2237 45.9357 96.2504 45.9741C96.4985 46.1537 96.7504 46.2838 97.0028 46.4299C98.3523 47.1435 99.6242 47.3522 100.954 47.3522C103.663 47.3522 105.347 45.9105 105.347 43.5901V43.5445C105.347 41.3988 103.445 40.6173 101.668 40.059L101.435 39.9838C100.091 39.5478 98.9305 39.1682 98.9305 38.2847V38.2396C98.9305 37.4823 99.6101 36.9241 100.659 36.9241C101.824 36.9241 103.212 37.3119 104.1 37.8027C104.1 37.8027 104.364 37.9726 104.459 37.7187C104.511 37.5813 104.964 36.3692 105.013 36.2333C105.064 36.0911 104.974 35.9838 104.881 35.9284C103.862 35.3071 102.454 34.8847 100.997 34.8847L100.727 34.8857C98.2465 34.8857 96.5135 36.3857 96.5135 38.5313V38.5775C96.5135 40.8396 98.4261 41.5775 100.213 42.0872L100.5 42.1765C101.801 42.5765 102.927 42.9241 102.927 43.8367V43.8823C102.927 44.7221 102.194 45.3483 101.019 45.3483C100.563 45.3483 99.1067 45.3406 97.529 44.3435C97.3383 44.2323 97.2295 44.1522 97.0824 44.0624C97.0048 44.0153 96.8106 43.9304 96.7261 44.1847L96.1921 45.6702L96.1941 45.6741ZM135.852 45.6702C135.769 45.8867 135.882 45.9318 135.91 45.9702C136.157 46.1498 136.41 46.2799 136.662 46.426C138.012 47.1396 139.283 47.3483 140.614 47.3483C143.322 47.3483 145.007 45.9066 145.007 43.5862V43.5406C145.007 41.3949 143.109 40.6134 141.327 40.0551L141.095 39.9799C139.75 39.544 138.59 39.1644 138.59 38.2809V38.2357C138.59 37.4784 139.269 36.9202 140.318 36.9202C141.483 36.9202 142.866 37.308 143.76 37.7988C143.76 37.7988 144.023 37.9687 144.119 37.7148C144.17 37.5775 144.624 36.3653 144.667 36.2294C144.719 36.0872 144.629 35.9799 144.536 35.9245C143.517 35.3032 142.109 34.8809 140.653 34.8809L140.382 34.8818C137.901 34.8818 136.168 36.3818 136.168 38.5275V38.5736C136.168 40.8357 138.081 41.5736 139.867 42.0833L140.154 42.1726C141.46 42.5726 142.581 42.9202 142.581 43.8328V43.8784C142.581 44.7182 141.848 45.3445 140.674 45.3445C140.216 45.3445 138.756 45.3367 137.183 44.3396C136.993 44.2284 136.881 44.1517 136.736 44.0585C136.687 44.0275 136.459 43.9381 136.381 44.1809L135.847 45.6663L135.852 45.6702ZM162.934 41.1226C162.934 42.4333 162.689 43.4673 162.211 44.2003C161.733 44.9236 161.012 45.2779 160.007 45.2779C159.002 45.2779 158.283 44.9265 157.813 44.2051C157.338 43.477 157.099 42.4381 157.099 41.1275C157.099 39.8168 157.34 38.7877 157.813 38.0644C158.282 37.3459 158.997 37.0012 160.007 37.0012C161.016 37.0012 161.735 37.3493 162.211 38.0644C162.692 38.7877 162.934 39.8168 162.934 41.1275V41.1226ZM165.196 38.6954C164.973 37.943 164.628 37.2828 164.167 36.7294C163.705 36.176 163.123 35.7294 162.429 35.409C161.74 35.0862 160.924 34.9236 160.002 34.9236C159.08 34.9236 158.269 35.0872 157.575 35.409C156.885 35.7313 156.298 36.176 155.837 36.7294C155.377 37.2828 155.031 37.943 154.808 38.6954C154.587 39.443 154.475 40.2585 154.475 41.1275C154.475 41.9964 154.587 42.8119 154.808 43.5595C155.03 44.3119 155.376 44.9721 155.837 45.5255C156.298 46.0789 156.885 46.5207 157.575 46.8362C158.269 47.1508 159.084 47.311 160.002 47.311C160.919 47.311 161.735 47.1508 162.424 46.8362C163.114 46.5216 163.701 46.0789 164.162 45.5255C164.623 44.9721 164.968 44.3119 165.191 43.5595C165.412 42.8119 165.524 41.9964 165.524 41.1275C165.524 40.2634 165.412 39.443 165.191 38.6954H165.196ZM183.783 44.909C183.709 44.6891 183.495 44.7721 183.495 44.7721C183.166 44.8978 182.815 45.0144 182.441 45.0726C182.064 45.1318 181.645 45.1614 181.203 45.1614C180.111 45.1614 179.237 44.8357 178.616 44.1906C177.99 43.5449 177.64 42.5061 177.645 41.0983C177.648 39.8168 177.958 38.8556 178.514 38.1178C179.063 37.3896 179.907 37.011 181.024 37.011C181.956 37.011 182.669 37.1192 183.417 37.3532C183.417 37.3532 183.594 37.4304 183.679 37.1969C183.878 36.6483 184.024 36.2551 184.237 35.6532C184.297 35.4809 184.15 35.408 184.096 35.3872C183.803 35.2726 183.111 35.0847 182.586 35.0056C182.096 34.9309 181.528 34.892 180.887 34.892C179.936 34.892 179.091 35.0546 178.368 35.377C177.645 35.6988 177.033 36.144 176.547 36.6974C176.062 37.2508 175.693 37.911 175.446 38.6634C175.2 39.411 175.077 40.2313 175.077 41.1003C175.077 42.9741 175.581 44.4935 176.581 45.6051C177.581 46.7216 179.086 47.2847 181.047 47.2847C182.208 47.2847 183.397 47.0503 184.251 46.7119C184.251 46.7119 184.414 46.6333 184.344 46.443L183.785 44.909H183.783ZM187.742 39.8605C187.85 39.1323 188.049 38.5255 188.363 38.0546C188.832 37.3362 189.547 36.943 190.552 36.943C191.557 36.943 192.222 37.3381 192.698 38.0546C193.014 38.5279 193.151 39.1566 193.203 39.8605L187.717 39.8595L187.742 39.8605ZM195.363 38.2585C195.17 37.5352 194.693 36.8022 194.382 36.4673C193.887 35.9381 193.407 35.5644 192.926 35.3605C192.232 35.0654 191.486 34.914 190.732 34.9153C189.776 34.9153 188.907 35.077 188.203 35.4056C187.499 35.7367 186.907 36.1872 186.441 36.7503C185.975 37.3134 185.625 37.9784 185.402 38.7406C185.179 39.493 185.066 40.3182 185.066 41.1823C185.066 42.0658 185.183 42.8862 185.413 43.6289C185.646 44.3765 186.02 45.0318 186.525 45.5755C187.03 46.1241 187.675 46.5512 188.452 46.8522C189.224 47.1508 190.161 47.3056 191.233 47.3022C193.447 47.2949 194.612 46.8022 195.088 46.5352C195.173 46.4877 195.253 46.4056 195.153 46.1692L194.653 44.7663C194.576 44.5571 194.364 44.6328 194.364 44.6328C193.816 44.8377 193.039 45.2056 191.219 45.2008C190.03 45.1988 189.151 44.8478 188.597 44.2978C188.034 43.7347 187.753 42.9144 187.709 41.7493L195.379 41.7551C195.379 41.7551 195.581 41.7532 195.602 41.5561C195.61 41.4745 195.864 39.9833 195.373 38.26L195.363 38.2585ZM126.431 39.8605C126.539 39.1323 126.739 38.5255 127.052 38.0546C127.522 37.3362 128.237 36.943 129.242 36.943C130.247 36.943 130.912 37.3381 131.387 38.0546C131.702 38.5279 131.84 39.1566 131.892 39.8605L126.407 39.8595L126.431 39.8605ZM134.052 38.2585C133.86 37.5352 133.382 36.8022 133.072 36.4673C132.577 35.9381 132.096 35.5644 131.615 35.3605C130.922 35.0654 130.175 34.914 129.421 34.9153C128.465 34.9153 127.596 35.077 126.892 35.4056C126.188 35.7367 125.596 36.1872 125.13 36.7503C124.665 37.3134 124.314 37.9784 124.091 38.7406C123.868 39.493 123.756 40.3182 123.756 41.1823C123.756 42.0658 123.872 42.8862 124.104 43.6289C124.336 44.3765 124.711 45.0318 125.211 45.5755C125.715 46.1241 126.361 46.5512 127.138 46.8522C127.91 47.1508 128.842 47.3056 129.919 47.3022C132.133 47.2949 133.298 46.8022 133.774 46.5352C133.858 46.4877 133.939 46.4056 133.838 46.1692L133.338 44.7663C133.261 44.5571 133.049 44.6328 133.049 44.6328C132.501 44.8377 131.724 45.2056 129.904 45.2008C128.719 45.1988 127.836 44.8478 127.282 44.2978C126.719 43.7347 126.438 42.9144 126.394 41.7493L134.064 41.7551C134.064 41.7551 134.266 41.7532 134.287 41.5561C134.295 41.4745 134.549 39.9833 134.058 38.26L134.052 38.2585ZM109.878 44.8605C109.577 44.6207 109.535 44.5619 109.436 44.4061C109.284 44.1716 109.206 43.8381 109.206 43.411C109.206 42.7411 109.43 42.2556 109.891 41.9304C109.886 41.9313 110.551 41.3576 112.114 41.377C112.81 41.3895 113.504 41.4486 114.192 41.5542V45.0347H114.193C114.193 45.0347 113.222 45.244 112.125 45.31C110.566 45.4037 109.877 44.8614 109.882 44.8629L109.878 44.8605ZM112.926 39.4721C112.615 39.4493 112.213 39.4381 111.732 39.4381C111.077 39.4381 110.441 39.5197 109.848 39.6799C109.251 39.8411 108.713 40.0906 108.251 40.4226C107.789 40.7525 107.409 41.1844 107.14 41.6847C106.868 42.1896 106.73 42.7818 106.73 43.4517C106.73 44.1313 106.848 44.7187 107.081 45.1993C107.309 45.676 107.653 46.0881 108.081 46.3983C108.507 46.708 109.032 46.9372 109.639 47.0731C110.241 47.2105 110.921 47.2799 111.668 47.2799C112.455 47.2799 113.236 47.2139 113.994 47.0862C114.639 46.9749 115.281 46.85 115.921 46.7114C116.176 46.6527 116.46 46.5755 116.46 46.5755C116.649 46.5275 116.634 46.325 116.634 46.325L116.63 39.3347C116.63 37.8008 116.22 36.66 115.412 35.9561C114.606 35.2522 113.426 34.8978 111.897 34.8978C111.324 34.8978 110.397 34.9755 109.844 35.0867C109.844 35.0867 108.174 35.411 107.484 35.9508C107.484 35.9508 107.333 36.044 107.415 36.2551L107.959 37.7114C108.027 37.9003 108.211 37.8357 108.211 37.8357C108.211 37.8357 108.268 37.8129 108.336 37.7726C109.807 36.9716 111.671 36.9959 111.671 36.9959C112.497 36.9959 113.137 37.1634 113.564 37.4911C113.982 37.8119 114.196 38.2969 114.196 39.3163V39.6401C113.54 39.5449 112.933 39.4901 112.933 39.4901L112.926 39.4721ZM174.577 35.5255C174.588 35.4999 174.594 35.4724 174.594 35.4445C174.594 35.4166 174.588 35.389 174.578 35.3632C174.567 35.3375 174.551 35.3142 174.531 35.2947C174.511 35.2752 174.487 35.2599 174.462 35.2498C174.331 35.2003 173.68 35.0629 173.18 35.0318C172.219 34.9716 171.685 35.1338 171.204 35.3493C170.73 35.5634 170.204 35.9076 169.913 36.3056L169.912 35.3736C169.912 35.2454 169.821 35.142 169.692 35.142H167.731C167.604 35.142 167.512 35.2454 167.512 35.3736V46.7813C167.512 46.8429 167.536 46.902 167.58 46.9456C167.623 46.9892 167.682 47.0137 167.744 47.0139H169.754C169.815 47.0137 169.874 46.9892 169.918 46.9456C169.962 46.902 169.986 46.8429 169.986 46.7813V41.0532C169.986 40.2862 170.07 39.5241 170.239 39.0435C170.405 38.5682 170.631 38.1891 170.909 37.9173C171.174 37.6547 171.498 37.4599 171.855 37.3493C172.19 37.2533 172.536 37.2046 172.884 37.2046C173.285 37.2046 173.724 37.3076 173.724 37.3076C173.872 37.3241 173.954 37.2338 174.004 37.1008C174.135 36.7508 174.509 35.7027 174.581 35.494" fill="#00A1E0"/>
<path fill-rule="evenodd" clip-rule="evenodd" d="M155.806 30.2605C155.558 30.1855 155.305 30.1255 155.05 30.0809C154.706 30.0235 154.357 29.9966 154.009 30.0003C152.624 30.0003 151.532 30.3916 150.766 31.1644C150.005 31.9314 149.487 33.0999 149.227 34.6372L149.133 35.1562H147.395C147.395 35.1562 147.183 35.1474 147.138 35.379L146.853 36.9712C146.833 37.1236 146.898 37.2188 147.102 37.2178H148.794L147.077 46.8018C146.943 47.5736 146.789 48.2086 146.619 48.6897C146.451 49.1644 146.287 49.5202 146.085 49.7785C145.889 50.0285 145.704 50.2125 145.384 50.3198C145.12 50.4086 144.816 50.4494 144.483 50.4494C144.297 50.4494 144.051 50.4183 143.869 50.3819C143.687 50.346 143.592 50.3052 143.456 50.2479C143.456 50.2479 143.257 50.1722 143.179 50.3712C143.115 50.5338 142.664 51.7741 142.611 51.9275C142.557 52.079 142.633 52.1984 142.729 52.2329C142.954 52.3134 143.122 52.3649 143.428 52.4372C143.855 52.5377 144.214 52.544 144.55 52.544C145.255 52.544 145.897 52.445 146.43 52.2528C146.966 52.0591 147.432 51.7217 147.845 51.2649C148.291 50.7722 148.572 50.2562 148.84 49.5523C149.105 48.8547 149.332 47.9887 149.513 46.9795L151.238 37.2178H153.76C153.76 37.2178 153.973 37.2256 154.017 36.995L154.303 35.4028C154.322 35.2503 154.257 35.1552 154.053 35.1562H151.605C151.617 35.1008 151.728 34.2397 152.009 33.429C152.129 33.0829 152.355 32.8037 152.546 32.612C152.724 32.4294 152.944 32.2925 153.187 32.213C153.453 32.1307 153.731 32.0907 154.009 32.0945C154.239 32.0945 154.466 32.1222 154.638 32.1581C154.875 32.2086 154.968 32.2353 155.03 32.2537C155.279 32.33 155.313 32.2562 155.362 32.1353L155.947 30.5275C156.007 30.3547 155.861 30.2819 155.806 30.2605ZM121.596 46.8222C121.596 46.9503 121.505 47.0547 121.376 47.0547H119.346C119.217 47.0547 119.126 46.9503 119.126 46.8222V30.4785C119.126 30.3508 119.217 30.2474 119.346 30.2474H121.376C121.505 30.2474 121.596 30.3508 121.596 30.4785V46.8222Z" fill="#00A1E0"/>
</g>
<defs>
<clipPath id="clip0_401_937">
<rect width="50" height="34.9817" fill="white" transform="translate(20 24)"/>
</clipPath>
<clipPath id="clip1_401_937">
<rect width="100" height="22.8155" fill="white" transform="translate(96 30)"/>
</clipPath>
</defs>
</svg>
