<svg width="250" height="82" viewBox="0 0 250 82" fill="none" xmlns="http://www.w3.org/2000/svg">
<g clipPath="url(#clip0_401_2518)">
<path d="M32.7907 53.3721H20V66.1628H32.7907V53.3721Z" fill="#4ABEA7"/>
<path d="M44.4186 40.5813V27.7906H20V40.5813H32.7907V53.372H70V40.5813H44.4186Z" fill="#4ABEA7"/>
<path d="M69.9999 15H44.4185V27.7907H69.9999V15Z" fill="#4ABEA7"/>
</g>
<g clipPath="url(#clip1_401_2518)">
<path d="M190.22 38.5442C187.155 38.5442 184.735 41.0934 184.735 44.2091C184.735 47.3248 187.155 49.874 190.22 49.874C193.284 49.874 195.704 47.3248 195.704 44.2091C195.704 41.0934 193.284 38.5442 190.22 38.5442ZM190.22 47.0931C188.752 47.0931 187.464 45.8056 187.464 44.2349C187.464 42.6641 188.726 41.3766 190.22 41.3766C191.713 41.3766 192.975 42.6641 192.975 44.2349C192.975 45.8056 191.687 47.0931 190.22 47.0931Z" fill="black"/>
<path d="M162.255 38.7244L162.023 39.9604C162.023 39.9604 161.199 38.5442 158.985 38.5442C156.152 38.5442 153.783 40.5527 153.783 44.1318C153.783 47.5823 156.332 49.8998 158.753 49.8998C161.019 49.8998 162.023 47.9943 162.023 47.9943L162.255 49.6165H164.753V38.7244H162.255ZM159.268 47.0931C157.749 47.0931 156.513 45.8056 156.513 44.2349C156.513 42.6641 157.749 41.3766 159.268 41.3766C160.787 41.3766 162.023 42.6641 162.023 44.2349C162.023 45.8056 160.787 47.0931 159.268 47.0931Z" fill="black"/>
<path d="M169.388 46.1145V41.4796H172.143V38.7244H169.388V35.9949L166.633 36.7416C166.633 36.7416 166.633 45.6253 166.633 46.1403C166.633 46.99 166.633 49.9255 169.954 49.9255C171.448 49.9255 172.143 49.462 172.143 49.462V47.1188C172.143 47.093 169.388 48.2002 169.388 46.1145Z" fill="black"/>
<path d="M209.84 38.5442C207.394 38.5442 206.39 40.3466 206.39 40.3466C206.39 40.3466 205.695 38.5442 203.274 38.5442C201.549 38.5442 200.313 39.3424 199.824 39.9604L199.592 38.7244H197.094V49.7195H199.824V44.2091C199.824 42.7929 200.39 41.3766 201.987 41.3766C203.377 41.3766 203.944 42.2006 203.944 43.5654V49.7195H206.699V43.6426C206.699 42.8959 207.111 41.4024 208.811 41.4024C210.51 41.4024 210.793 42.6384 210.793 43.5396V49.7195H213.548V42.6641C213.548 41.5827 213.111 38.5442 209.84 38.5442Z" fill="black"/>
<path d="M144.179 33.2396V49.7195H147.191V42.8443H152.419V40.1148H147.191V35.9949H155.148V33.2396H144.179Z" fill="black"/>
<path d="M179.636 38.5441C177.859 38.5441 176.907 39.5226 176.572 39.9603V33.2396L173.817 33.9864V49.7195H176.572V43.4365C176.572 42.6898 176.881 41.4023 178.555 41.4023C180.203 41.4023 180.615 42.8185 180.615 43.7713V49.7195H183.37V43.282C183.37 40.7071 181.825 38.5441 179.636 38.5441Z" fill="black"/>
<path d="M119.612 46.8368H114V52.449H119.612V46.8368Z" fill="#4ABEA7"/>
<path d="M124.714 41.2245V35.6123H114V41.2245H119.612V46.8368H135.939V41.2245H124.714Z" fill="#4ABEA7"/>
<path d="M135.939 30H124.714V35.6122H135.939V30Z" fill="#4ABEA7"/>
</g>
<defs>
<clipPath id="clip0_401_2518">
<rect width="50" height="51.1628" fill="white" transform="translate(20 15)"/>
</clipPath>
<clipPath id="clip1_401_2518">
<rect width="100" height="22.449" fill="white" transform="translate(114 30)"/>
</clipPath>
</defs>
</svg>
