<svg width="250" height="82" viewBox="0 0 250 82" fill="none" xmlns="http://www.w3.org/2000/svg">
<g clipPath="url(#clip0_401_1090)">
<path d="M45 66C58.8071 66 70 54.8071 70 41C70 27.1929 58.8071 16 45 16C31.1929 16 20 27.1929 20 41C20 54.8071 31.1929 66 45 66Z" fill="#E0F01F"/>
<path d="M59.5097 52.3293V52.4499L41.9624 52.4562V52.3293C44.4928 50.9004 46.2394 49.4447 47.811 47.9239H55.0162L59.5097 52.3293ZM55.1621 29.4772L50.7142 25.1145H50.585C50.585 25.1145 50.66 33.245 43.1923 40.6396C35.8849 47.8767 27.2915 47.8931 27.2915 47.8931V48.02L31.8227 52.4583C31.8227 52.4583 40.2909 52.5418 47.7715 45.2046C55.2246 37.8919 55.1621 29.4772 55.1621 29.4772Z" fill="black"/>
</g>
<g clipPath="url(#clip1_401_1090)">
<path d="M108.919 37.013C106.534 37.013 105.364 39.1149 105.364 41.9215V48.955H102V34.1128H105.305V37.9634H105.362C106.068 35.5959 107.474 33.6829 109.644 33.6829C111.169 33.6829 111.813 34.2156 111.813 34.2156L110.295 37.2725C110.295 37.271 109.811 37.013 108.919 37.013ZM149.581 39.0504V48.9534H146.304V40.2557C146.304 37.7592 145.521 36.4373 143.521 36.4373C141.449 36.4373 140.447 38.1093 140.447 41.3166V48.9518H137.2V40.2557C137.2 37.8559 136.426 36.4373 134.446 36.4373C132.185 36.4373 131.315 38.4179 131.315 41.3166V48.9518H128.01V34.1128H131.315V37.4736H131.344C131.859 35.1476 133.264 33.712 135.635 33.712C137.986 33.712 139.518 34.9756 140.1 37.2157C140.653 35.0601 142.127 33.712 144.391 33.712C147.549 33.712 149.581 35.6926 149.581 39.0504ZM118.424 33.6829C115.383 33.6829 113.393 35.1107 112.486 37.6886L115.285 38.7065C115.795 37.1512 116.859 36.2653 118.483 36.2653C120.309 36.2653 121.383 37.0698 121.383 38.3043C121.383 39.5663 120.528 39.8304 118.599 40.1421C116.453 40.4875 111.349 40.6011 111.349 44.9062C111.349 47.4287 113.458 49.3264 116.626 49.3264C119.008 49.3264 120.63 48.3531 121.381 46.5414H121.41V48.9534H124.687V39.8258C124.686 35.8323 122.676 33.6829 118.424 33.6829ZM121.468 41.9675C121.468 45.0796 119.928 47.0787 117.467 47.0787C115.727 47.0787 114.683 46.1022 114.683 44.6943C114.683 43.3739 115.757 42.4574 117.814 42.0796C119.92 41.6927 120.981 41.2153 121.468 40.0699V41.9675ZM161.236 33.712C158.73 33.712 157.074 35.0892 156.365 37.1589V34.1128H152.886V54.6664H156.336V45.9088H156.365C157.133 48.1504 158.732 49.3832 161.236 49.3832C165.208 49.3832 168.05 46.1115 168.05 41.4886C168.049 36.8979 165.208 33.712 161.236 33.712ZM160.38 46.6288C157.629 46.6288 156.103 44.6328 156.103 41.533C156.103 38.4332 157.811 36.4373 160.38 36.4373C162.948 36.4373 164.657 38.53 164.657 41.533C164.657 44.5378 162.95 46.6288 160.38 46.6288Z" fill="black"/>
<path d="M202.23 48.8863V48.9789L188.763 48.9836V48.8863C190.705 47.7896 192.045 46.6725 193.251 45.5052H198.781L202.23 48.8863ZM198.893 31.3482L195.479 28H195.38C195.38 28 195.438 34.2399 189.707 39.9149C184.098 45.4691 177.503 45.4816 177.503 45.4816V45.5789L180.981 48.9852C180.981 48.9852 187.48 49.0495 193.221 43.4184C198.941 37.8062 198.893 31.3482 198.893 31.3482Z" fill="black"/>
</g>
<defs>
<clipPath id="clip0_401_1090">
<rect width="50" height="50" fill="white" transform="translate(20 16)"/>
</clipPath>
<clipPath id="clip1_401_1090">
<rect width="100" height="26.6667" fill="white" transform="translate(102 28)"/>
</clipPath>
</defs>
</svg>
