<svg width="250" height="82" viewBox="0 0 250 82" fill="none" xmlns="http://www.w3.org/2000/svg">
<g clip-path="url(#clip0_401_2886)">
<path d="M22.5235 53.3516C22.0157 54.1797 21.4454 55.1407 20.961 55.9063C20.7526 56.2585 20.6906 56.6783 20.7885 57.0757C20.8864 57.4731 21.1363 57.8161 21.4844 58.0313L31.6407 64.2813C31.8172 64.3902 32.0136 64.4629 32.2184 64.4952C32.4233 64.5275 32.6326 64.5186 32.834 64.4692C33.0355 64.4197 33.2251 64.3307 33.3917 64.2072C33.5583 64.0837 33.6987 63.9283 33.8048 63.75C34.211 63.0703 34.7344 62.1875 35.3048 61.2422C39.3282 54.6016 43.3751 55.4141 50.6719 58.8985L60.7422 63.6875C60.931 63.7774 61.1359 63.8284 61.3447 63.8376C61.5537 63.8468 61.7622 63.8141 61.9582 63.7412C62.1541 63.6684 62.3335 63.557 62.4856 63.4135C62.6377 63.2701 62.7595 63.0976 62.8438 62.9063L67.6797 51.9688C67.844 51.5933 67.854 51.1683 67.708 50.7854C67.5618 50.4026 67.2711 50.0925 66.8985 49.9219C64.7735 48.9219 60.5469 46.9297 56.7422 45.0938C43.0547 38.4453 31.4219 38.875 22.5235 53.3516Z" fill="url(#paint0_linear_401_2886)"/>
<path d="M68.0626 28.5312C68.5704 27.7031 69.1407 26.7421 69.6251 25.9765C69.8335 25.6243 69.8954 25.2044 69.7975 24.8071C69.6996 24.4097 69.4498 24.0666 69.1017 23.8515L58.9454 17.6015C58.7676 17.4817 58.5671 17.3999 58.3562 17.3609C58.1454 17.322 57.9289 17.3269 57.72 17.3752C57.5111 17.4236 57.3145 17.5144 57.1423 17.6421C56.97 17.7697 56.8259 17.9314 56.7189 18.1171C56.3126 18.7968 55.7892 19.6796 55.2189 20.6249C51.1954 27.2656 47.1486 26.4531 39.8517 22.9687L29.8126 18.2031C29.6238 18.1132 29.4189 18.0622 29.21 18.0529C29.0012 18.0437 28.7926 18.0765 28.5966 18.1493C28.4007 18.2222 28.2213 18.3336 28.0692 18.477C27.9171 18.6205 27.7953 18.793 27.711 18.9843L22.8751 29.9218C22.7109 30.2973 22.7007 30.7222 22.8469 31.1051C22.993 31.488 23.2837 31.7982 23.6563 31.9687C25.7813 32.9687 30.0079 34.9609 33.8126 36.7968C47.5314 43.4375 59.1642 42.9921 68.0626 28.5312Z" fill="url(#paint1_linear_401_2886)"/>
</g>
<g clip-path="url(#clip1_401_2886)">
<path d="M121.315 46.7418C120.609 47.2075 119.489 47.413 118.319 47.413C114.601 47.413 112.499 45.1743 112.499 41.6107C112.499 38.1665 114.601 35.7555 118.286 35.7555C119.387 35.7555 120.489 35.9629 121.299 36.5383V38.0373C120.489 37.5207 119.595 37.2545 118.286 37.2545C115.634 37.2545 114.049 39.0158 114.049 41.6107C114.049 44.2056 115.685 45.9336 118.372 45.9336C119.391 45.9429 120.398 45.7066 121.307 45.2447L121.315 46.7418Z" fill="#253858"/>
<path d="M122.397 42.9218C122.397 40.3386 123.912 38.4619 126.495 38.4619C129.078 38.4619 130.559 40.3386 130.559 42.9218C130.559 45.505 129.06 47.4228 126.495 47.4228C123.929 47.4228 122.397 45.505 122.397 42.9218ZM123.843 42.9218C123.843 44.5578 124.653 46.0392 126.495 46.0392C128.336 46.0392 129.113 44.5578 129.113 42.9218C129.113 41.2858 128.33 39.8396 126.497 39.8396C124.663 39.8396 123.847 41.2858 123.847 42.9218H123.843Z" fill="#253858"/>
<path d="M139.605 47.2446H138.123V42.045C138.123 40.4951 137.503 39.8063 136.092 39.8063C134.722 39.8063 133.767 40.7182 133.767 42.4579V47.2446H132.286V38.6341H133.767V40.047C134.031 39.558 134.424 39.1513 134.904 38.8716C135.384 38.5919 135.932 38.4501 136.487 38.4619C138.468 38.4619 139.605 39.8317 139.605 42.1996V47.2446Z" fill="#253858"/>
<path d="M143.728 38.6341H145.949V40.004H143.728V47.2447H142.282V40.004H140.886V38.6341H142.282V37.6869C142.282 36.0862 143.178 35.0001 145.021 35.0001C145.359 34.9982 145.695 35.0443 146.019 35.137V36.5069C145.713 36.4486 145.402 36.4198 145.09 36.4208C144.178 36.4208 143.72 36.955 143.72 37.73L143.728 38.6341Z" fill="#253858"/>
<path d="M149.851 47.2955C148.438 47.2955 147.544 46.6243 147.544 45.0392V35.0353H149.025V44.867C149.025 45.6498 149.542 45.9179 150.18 45.9179C150.324 45.9202 150.467 45.9144 150.61 45.9002V47.2271C150.361 47.2805 150.106 47.3035 149.851 47.2955Z" fill="#253858"/>
<path d="M151.865 38.6342H153.346V43.8338C153.346 45.3837 153.967 46.0725 155.377 46.0725C156.747 46.0725 157.702 45.1606 157.702 43.4208V38.6342H159.188V47.2447H157.706V45.8318C157.443 46.3208 157.049 46.7275 156.569 47.0072C156.089 47.2869 155.541 47.4287 154.986 47.4169C153.006 47.4169 151.869 46.0471 151.869 43.6811L151.865 38.6342Z" fill="#253858"/>
<path d="M165.538 47.4169C162.317 47.4169 160.906 45.5578 160.906 42.9159C160.906 40.3152 162.352 38.4561 164.97 38.4561C167.622 38.4561 168.689 40.2995 168.689 42.9159V43.5872H162.405C162.612 45.051 163.559 45.9981 165.591 45.9981C166.484 45.9973 167.37 45.8397 168.209 45.5324V46.9022C167.501 47.278 166.417 47.4169 165.538 47.4169ZM162.387 42.3289H167.191C167.105 40.7281 166.381 39.8142 164.902 39.8142C163.334 39.8044 162.542 40.82 162.387 42.3191V42.3289Z" fill="#253858"/>
<path d="M177.765 47.2446H176.283V42.045C176.283 40.4951 175.663 39.8063 174.252 39.8063C172.882 39.8063 171.927 40.7182 171.927 42.4579V47.2446H170.446V38.6341H171.927V40.047C172.191 39.558 172.584 39.1513 173.064 38.8716C173.544 38.5919 174.092 38.4501 174.647 38.4619C176.628 38.4619 177.765 39.8317 177.765 42.1996V47.2446Z" fill="#253858"/>
<path d="M185.912 47.0196C185.395 47.2955 184.603 47.4109 183.81 47.4109C180.745 47.4109 179.309 45.5518 179.309 42.91C179.309 40.3092 180.738 38.4501 183.81 38.4501C184.516 38.4269 185.217 38.5683 185.859 38.863V40.2329C185.251 39.9466 184.585 39.8052 183.914 39.8199C181.675 39.8199 180.763 41.2329 180.763 42.9021C180.763 44.5714 181.693 46.0039 183.947 46.0039C184.613 46.0215 185.276 45.9167 185.904 45.6947L185.912 47.0196Z" fill="#253858"/>
<path d="M191.714 47.4169C188.493 47.4169 187.082 45.5578 187.082 42.9159C187.082 40.3152 188.528 38.4561 191.147 38.4561C193.798 38.4561 194.865 40.2995 194.865 42.9159V43.5872H188.579C188.787 45.051 189.734 45.9981 191.765 45.9981C192.658 45.9973 193.545 45.8397 194.383 45.5324V46.9022C193.677 47.278 192.593 47.4169 191.714 47.4169ZM188.563 42.3289H193.368C193.282 40.7281 192.558 39.8142 191.078 39.8142C189.511 39.8044 188.718 40.82 188.563 42.3191V42.3289Z" fill="#253858"/>
<path d="M95.4362 44.6927C95.309 44.9002 95.1661 45.1409 95.0448 45.3327C94.9926 45.4209 94.9771 45.5261 95.0016 45.6256C95.0261 45.7251 95.0887 45.8111 95.1759 45.865L97.7199 47.4305C97.7642 47.4578 97.8134 47.476 97.8647 47.4841C97.916 47.4922 97.9684 47.49 98.0189 47.4776C98.0693 47.4652 98.1168 47.4429 98.1586 47.412C98.2003 47.381 98.2355 47.3421 98.262 47.2974C98.3638 47.1272 98.4949 46.9061 98.6378 46.6693C99.6456 45.0059 100.659 45.2094 102.487 46.0822L105.01 47.2818C105.057 47.3043 105.108 47.3171 105.16 47.3194C105.213 47.3217 105.265 47.3135 105.314 47.2952C105.363 47.277 105.408 47.2491 105.446 47.2132C105.484 47.1772 105.515 47.134 105.536 47.0861L106.747 44.3464C106.788 44.2523 106.791 44.1459 106.754 44.0499C106.718 43.9541 106.645 43.8764 106.552 43.8336C106.019 43.5832 104.961 43.0841 104.008 42.6243C100.579 40.9589 97.6652 41.0665 95.4362 44.6927Z" fill="url(#paint2_linear_401_2886)"/>
<path d="M106.843 38.4755C106.97 38.2681 107.113 38.0274 107.234 37.8356C107.287 37.7474 107.302 37.6422 107.278 37.5427C107.253 37.4432 107.19 37.3572 107.103 37.3033L104.559 35.7378C104.515 35.7078 104.464 35.6873 104.412 35.6775C104.359 35.6678 104.305 35.669 104.252 35.6811C104.2 35.6932 104.151 35.716 104.108 35.7479C104.064 35.7799 104.028 35.8204 104.002 35.8669C103.9 36.0372 103.769 36.2583 103.626 36.4951C102.618 38.1585 101.604 37.955 99.7765 37.0822L97.2618 35.8885C97.2145 35.866 97.1632 35.8532 97.1109 35.8509C97.0585 35.8486 97.0063 35.8568 96.9572 35.875C96.9081 35.8933 96.8632 35.9212 96.8251 35.9571C96.787 35.993 96.7565 36.0362 96.7354 36.0842L95.524 38.8239C95.4829 38.9179 95.4803 39.0244 95.5169 39.1203C95.5535 39.2162 95.6264 39.2939 95.7197 39.3366C96.252 39.5871 97.3107 40.0861 98.2637 40.546C101.7 42.2094 104.614 42.0979 106.843 38.4755Z" fill="url(#paint3_linear_401_2886)"/>
</g>
<defs>
<linearGradient id="paint0_linear_401_2886" x1="67.4063" y1="67.5078" x2="36.6797" y2="49.8516" gradientUnits="userSpaceOnUse">
<stop offset="0.18" stop-color="#0052CC"/>
<stop offset="1" stop-color="#2684FF"/>
</linearGradient>
<linearGradient id="paint1_linear_401_2886" x1="-12936.6" y1="36874" x2="-11872.7" y2="38094.8" gradientUnits="userSpaceOnUse">
<stop offset="0.18" stop-color="#0052CC"/>
<stop offset="1" stop-color="#2684FF"/>
</linearGradient>
<linearGradient id="paint2_linear_401_2886" x1="106.679" y1="48.2387" x2="98.9822" y2="43.816" gradientUnits="userSpaceOnUse">
<stop offset="0.18" stop-color="#0052CC"/>
<stop offset="1" stop-color="#2684FF"/>
</linearGradient>
<linearGradient id="paint3_linear_401_2886" x1="95.6003" y1="34.9276" x2="103.299" y2="39.3523" gradientUnits="userSpaceOnUse">
<stop offset="0.18" stop-color="#0052CC"/>
<stop offset="1" stop-color="#2684FF"/>
</linearGradient>
<clipPath id="clip0_401_2886">
<rect width="50" height="47.6562" fill="white" transform="translate(20 17)"/>
</clipPath>
<clipPath id="clip1_401_2886">
<rect width="100" height="12.5245" fill="white" transform="translate(95 35)"/>
</clipPath>
</defs>
</svg>
