<svg width="250" height="82" viewBox="0 0 250 82" fill="none" xmlns="http://www.w3.org/2000/svg">
<g clipPath="url(#clip0_401_471)">
<g clipPath="url(#clip1_401_471)">
<path fillRule="evenodd" clipRule="evenodd" d="M113.925 25.7358C108.373 26.1633 103.999 28.9957 101.836 33.563C100.954 35.4263 100.398 37.6314 100.165 40.1898C99.9971 42.0301 99.9363 50.3823 100.083 51.4248C100.446 54.0129 101.559 54.9513 104.686 55.3064C107.075 55.5777 114.099 55.7661 115.924 55.6078C122.762 55.0144 127.259 51.8953 129.219 46.3865C131.309 40.5132 130.027 33.8061 126.057 29.8353C123.108 26.8869 118.629 25.3734 113.925 25.7358Z" fill="url(#paint0_linear_401_471)"/>
<mask id="mask0_401_471" style="mask-type:alpha" maskUnits="userSpaceOnUse" x="100" y="25" width="31" height="31">
<path fillRule="evenodd" clipRule="evenodd" d="M113.925 25.736C108.373 26.1635 103.999 28.996 101.836 33.5632C100.954 35.4266 100.398 37.6316 100.165 40.19C99.9971 42.0303 99.9363 50.3825 100.083 51.4251C100.446 54.0132 101.559 54.9515 104.686 55.3066C107.075 55.578 114.099 55.7664 115.924 55.608C122.762 55.0146 127.259 51.8955 129.219 46.3867C131.309 40.5135 130.027 33.8063 126.057 29.8356C123.108 26.8871 118.629 25.3736 113.925 25.736Z" fill="url(#paint1_linear_401_471)"/>
</mask>
<g mask="url(#mask0_401_471)">
<g opacity="0.7" filter="url(#filter0_f_401_471)">
<path opacity="0.7" d="M119.918 34.2894C121.71 34.2894 123.164 32.8362 123.164 31.0435C123.164 29.2508 121.71 27.7976 119.918 27.7976C118.125 27.7976 116.672 29.2508 116.672 31.0435C116.672 32.8362 118.125 34.2894 119.918 34.2894Z" fill="#46DEFF"/>
</g>
<g filter="url(#filter1_f_401_471)">
<path d="M103.691 39.3448C105.187 40.3333 108.032 38.6641 110.047 35.6165C112.061 32.5689 112.482 29.297 110.987 28.3084C109.491 27.3199 106.646 28.9891 104.631 32.0367C102.617 35.0843 102.196 38.3562 103.691 39.3448Z" fill="#2C46E1"/>
</g>
<g opacity="0.7" filter="url(#filter2_f_401_471)">
<path opacity="0.7" d="M102.499 33.4717C100.816 36.7145 100.322 39.5086 100.254 39.4734C100.186 39.4383 100.571 36.5872 102.253 33.3443C103.936 30.1015 105.887 28.4691 105.955 28.5042C106.023 28.5394 104.181 30.2288 102.499 33.4717Z" fill="white"/>
</g>
</g>
</g>
<path d="M144.109 50.2116H148.019V34.752H153.432V31.5281H138.71V34.752H144.109V50.2116Z" fill="black"/>
<path d="M158.055 50.4963C159.048 50.4963 159.911 50.3668 160.644 50.1079C161.387 49.8489 162.013 49.5036 162.522 49.0721C163.04 48.6405 163.45 48.1657 163.752 47.6478C164.054 47.1299 164.257 46.6163 164.361 46.107L164.399 45.9646H160.929L160.903 46.0423C160.817 46.3013 160.653 46.5559 160.411 46.8062C160.17 47.0565 159.859 47.2637 159.479 47.4277C159.099 47.5917 158.651 47.6737 158.132 47.6737C157.476 47.6737 156.911 47.5312 156.436 47.2464C155.962 46.9529 155.595 46.5343 155.336 45.9905C155.085 45.4467 154.96 44.7907 154.96 44.0224V42.5593C154.96 41.7652 155.085 41.0963 155.336 40.5525C155.595 40 155.949 39.5814 156.397 39.2965C156.855 39.0117 157.377 38.8692 157.964 38.8692C158.551 38.8692 159.065 39.0074 159.505 39.2836C159.954 39.5598 160.303 39.9741 160.554 40.5265C160.804 41.0704 160.929 41.7479 160.929 42.5593V44.0095L162.729 41.7825H153.083V44.1649H164.516V42.9996C164.516 41.6012 164.244 40.3798 163.7 39.3354C163.165 38.2909 162.401 37.4838 161.408 36.9141C160.424 36.3358 159.255 36.0466 157.9 36.0466C156.544 36.0466 155.366 36.3444 154.365 36.94C153.372 37.527 152.6 38.3643 152.047 39.4519C151.503 40.5309 151.231 41.8084 151.231 43.2844V43.2974C151.231 44.7734 151.503 46.0509 152.047 47.1299C152.6 48.2089 153.385 49.0418 154.404 49.6288C155.422 50.2071 156.639 50.4963 158.055 50.4963Z" fill="black"/>
<path d="M164.84 50.2115H168.816L171.418 45.395H171.496L174.137 50.2115H178.242L173.943 43.1938L178.28 36.3315H174.163L171.703 41.0186H171.625L169.126 36.3315H164.867L169.191 43.2974L164.84 50.2115Z" fill="black"/>
<path d="M184.807 50.4963C185.204 50.4963 185.553 50.479 185.856 50.4445C186.166 50.4186 186.425 50.3884 186.632 50.3539V47.5831C186.52 47.6003 186.4 47.6176 186.27 47.6348C186.14 47.6435 185.99 47.6478 185.817 47.6478C185.247 47.6478 184.815 47.5227 184.522 47.2723C184.237 47.0133 184.095 46.5602 184.095 45.9128V39.18H186.632V36.3315H184.095V32.9392H180.275V36.3315H178.346V39.18H180.275V46.3271C180.275 47.8118 180.647 48.8778 181.389 49.5252C182.131 50.1726 183.27 50.4963 184.807 50.4963Z" fill="black"/>
<path d="M193.923 50.4963C195.115 50.4963 196.164 50.3107 197.07 49.9395C197.985 49.5597 198.701 49.0332 199.219 48.3599C199.737 47.6867 199.996 46.8968 199.996 45.9905V45.9775C199.996 44.959 199.676 44.1476 199.038 43.5434C198.408 42.9392 197.364 42.486 195.905 42.1838L193.548 41.6789C192.849 41.5322 192.361 41.3379 192.085 41.0963C191.809 40.8546 191.671 40.5568 191.671 40.2029V40.1899C191.671 39.8878 191.757 39.6288 191.93 39.4131C192.102 39.1886 192.348 39.016 192.668 38.8952C192.987 38.7743 193.363 38.7139 193.794 38.7139C194.493 38.7139 195.041 38.8822 195.438 39.2188C195.844 39.5468 196.077 39.9612 196.137 40.4618L196.151 40.5654H199.633V40.4359C199.608 39.6246 199.362 38.8865 198.895 38.2219C198.438 37.5572 197.778 37.0307 196.914 36.6423C196.06 36.2452 195.02 36.0466 193.794 36.0466C192.62 36.0466 191.593 36.2279 190.712 36.5904C189.84 36.9444 189.167 37.445 188.692 38.0924C188.218 38.7398 187.981 39.508 187.981 40.3971V40.41C187.981 41.4459 188.317 42.3004 188.99 42.9737C189.673 43.6383 190.687 44.1131 192.033 44.3979L194.39 44.89C195.071 45.0453 195.546 45.2352 195.814 45.4596C196.082 45.6841 196.215 45.9819 196.215 46.353V46.366C196.215 46.6681 196.12 46.927 195.93 47.1428C195.749 47.3586 195.49 47.527 195.153 47.6478C194.817 47.76 194.407 47.8161 193.923 47.8161C193.172 47.8161 192.586 47.6651 192.163 47.3629C191.74 47.0608 191.468 46.6379 191.347 46.0941L191.321 45.9775H187.631L187.644 46.0941C187.747 46.9659 188.05 47.7341 188.55 48.3988C189.059 49.0548 189.763 49.5684 190.661 49.9395C191.559 50.3107 192.646 50.4963 193.923 50.4963Z" fill="black"/>
</g>
<g clipPath="url(#clip2_401_471)">
<path fillRule="evenodd" clipRule="evenodd" d="M43.0189 16.0877C33.8424 16.7944 26.6108 21.4768 23.0354 29.027C21.5766 32.1073 20.6572 35.7525 20.2722 39.9819C19.9953 43.0241 19.8946 56.8312 20.1367 58.5547C20.738 62.8332 22.5775 64.3843 27.7464 64.9714C31.6959 65.4199 43.3075 65.7314 46.3237 65.4696C57.6279 64.4886 65.0623 59.3324 68.3026 50.2258C71.7574 40.5166 69.6389 29.4289 63.0749 22.8648C58.2006 17.9906 50.7965 15.4887 43.0189 16.0877Z" fill="url(#paint2_linear_401_471)"/>
<mask id="mask1_401_471" style="mask-type:alpha" maskUnits="userSpaceOnUse" x="20" y="16" width="50" height="50">
<path fillRule="evenodd" clipRule="evenodd" d="M43.0189 16.0882C33.8424 16.7949 26.6108 21.4773 23.0354 29.0275C21.5766 32.1078 20.6572 35.753 20.2722 39.9824C19.9953 43.0246 19.8946 56.8317 20.1367 58.5552C20.738 62.8337 22.5775 64.3848 27.7464 64.9719C31.6959 65.4204 43.3075 65.7319 46.3237 65.4701C57.6279 64.4891 65.0623 59.3329 68.3026 50.2263C71.7574 40.5171 69.6389 29.4293 63.0749 22.8653C58.2006 17.9911 50.7965 15.4892 43.0189 16.0882Z" fill="url(#paint3_linear_401_471)"/>
</mask>
<g mask="url(#mask1_401_471)">
<g opacity="0.7" filter="url(#filter3_f_401_471)">
<path opacity="0.7" d="M52.9264 30.228C55.8899 30.228 58.2923 27.8257 58.2923 24.8622C58.2923 21.8987 55.8899 19.4963 52.9264 19.4963C49.9629 19.4963 47.5605 21.8987 47.5605 24.8622C47.5605 27.8257 49.9629 30.228 52.9264 30.228Z" fill="#46DEFF"/>
</g>
<g filter="url(#filter4_f_401_471)">
<path d="M26.1021 38.5851C28.5743 40.2192 33.2781 37.4598 36.6083 32.4218C39.9385 27.3838 40.634 21.9749 38.1618 20.3407C35.6897 18.7066 30.9859 21.466 27.6557 26.504C24.3254 31.542 23.6299 36.9509 26.1021 38.5851Z" fill="#2C46E1"/>
</g>
<g opacity="0.7" filter="url(#filter5_f_401_471)">
<path opacity="0.7" d="M24.1308 28.8763C21.3498 34.2371 20.5318 38.856 20.4198 38.7979C20.3077 38.7398 20.9441 34.0266 23.7251 28.6658C26.506 23.305 29.7321 20.6064 29.8442 20.6645C29.9562 20.7226 26.9118 23.5155 24.1308 28.8763Z" fill="white"/>
</g>
</g>
</g>
<defs>
<filter id="filter0_f_401_471" x="110.082" y="21.2074" width="19.672" height="19.672" filterUnits="userSpaceOnUse" colorInterpolationFilters="sRGB">
<feFlood floodOpacity="0" result="BackgroundImageFix"/>
<feBlend mode="normal" in="SourceGraphic" in2="BackgroundImageFix" result="shape"/>
<feGaussianBlur stdDeviation="3.29508" result="effect1_foregroundBlur_401_471"/>
</filter>
<filter id="filter1_f_401_471" x="96.2057" y="21.4338" width="22.2668" height="24.7858" filterUnits="userSpaceOnUse" colorInterpolationFilters="sRGB">
<feFlood floodOpacity="0" result="BackgroundImageFix"/>
<feBlend mode="normal" in="SourceGraphic" in2="BackgroundImageFix" result="shape"/>
<feGaussianBlur stdDeviation="3.29508" result="effect1_foregroundBlur_401_471"/>
</filter>
<filter id="filter2_f_401_471" x="99.0663" y="27.3233" width="8.07062" height="13.3309" filterUnits="userSpaceOnUse" colorInterpolationFilters="sRGB">
<feFlood floodOpacity="0" result="BackgroundImageFix"/>
<feBlend mode="normal" in="SourceGraphic" in2="BackgroundImageFix" result="shape"/>
<feGaussianBlur stdDeviation="0.590164" result="effect1_foregroundBlur_401_471"/>
</filter>
<filter id="filter3_f_401_471" x="36.6662" y="8.60203" width="32.5206" height="32.5203" filterUnits="userSpaceOnUse" colorInterpolationFilters="sRGB">
<feFlood floodOpacity="0" result="BackgroundImageFix"/>
<feBlend mode="normal" in="SourceGraphic" in2="BackgroundImageFix" result="shape"/>
<feGaussianBlur stdDeviation="5.44715" result="effect1_foregroundBlur_401_471"/>
</filter>
<filter id="filter4_f_401_471" x="13.7273" y="8.97605" width="36.8091" height="40.9737" filterUnits="userSpaceOnUse" colorInterpolationFilters="sRGB">
<feFlood floodOpacity="0" result="BackgroundImageFix"/>
<feBlend mode="normal" in="SourceGraphic" in2="BackgroundImageFix" result="shape"/>
<feGaussianBlur stdDeviation="5.44715" result="effect1_foregroundBlur_401_471"/>
</filter>
<filter id="filter5_f_401_471" x="18.4565" y="18.7124" width="13.3419" height="22.0372" filterUnits="userSpaceOnUse" colorInterpolationFilters="sRGB">
<feFlood floodOpacity="0" result="BackgroundImageFix"/>
<feBlend mode="normal" in="SourceGraphic" in2="BackgroundImageFix" result="shape"/>
<feGaussianBlur stdDeviation="0.97561" result="effect1_foregroundBlur_401_471"/>
</filter>
<linearGradient id="paint0_linear_401_471" x1="115.106" y1="25.6829" x2="115.106" y2="55.6656" gradientUnits="userSpaceOnUse">
<stop stopColor="#4058E9"/>
<stop offset="0.296875" stopColor="#5B86FF"/>
<stop offset="0.833333" stopColor="#4B6CFF"/>
<stop offset="1" stopColor="#6DA1FF"/>
</linearGradient>
<linearGradient id="paint1_linear_401_471" x1="115.106" y1="25.6831" x2="115.106" y2="55.6659" gradientUnits="userSpaceOnUse">
<stop stopColor="#4058E9"/>
<stop offset="0.296875" stopColor="#5B86FF"/>
<stop offset="0.833333" stopColor="#4B73FF"/>
<stop offset="1" stopColor="#6DA1FF"/>
</linearGradient>
<linearGradient id="paint2_linear_401_471" x1="44.972" y1="16.0002" x2="44.972" y2="65.5653" gradientUnits="userSpaceOnUse">
<stop stopColor="#4058E9"/>
<stop offset="0.296875" stopColor="#5B86FF"/>
<stop offset="0.833333" stopColor="#4B6CFF"/>
<stop offset="1" stopColor="#6DA1FF"/>
</linearGradient>
<linearGradient id="paint3_linear_401_471" x1="44.972" y1="16.0007" x2="44.972" y2="65.5658" gradientUnits="userSpaceOnUse">
<stop stopColor="#4058E9"/>
<stop offset="0.296875" stopColor="#5B86FF"/>
<stop offset="0.833333" stopColor="#4B73FF"/>
<stop offset="1" stopColor="#6DA1FF"/>
</linearGradient>
<clipPath id="clip0_401_471">
<rect width="100" height="29.5973" fill="white" transform="translate(100 26)"/>
</clipPath>
<clipPath id="clip1_401_471">
<rect width="30.2459" height="30" fill="white" transform="translate(100 25.6826)"/>
</clipPath>
<clipPath id="clip2_401_471">
<rect width="50" height="49.5935" fill="white" transform="translate(20 16)"/>
</clipPath>
</defs>
</svg>
