<svg width="250" height="82" viewBox="0 0 250 82" fill="none" xmlns="http://www.w3.org/2000/svg">
<g clipPath="url(#clip0_401_893)">
<path fillRule="evenodd" clipRule="evenodd" d="M50.9083 49.8434H22.381C21.0655 49.8434 20 48.778 20 47.4625C20 46.147 21.0655 45.0815 22.381 45.0815H50.9083C52.2238 45.0815 53.2893 46.147 53.2893 47.4625C53.2893 48.778 52.2238 49.8434 50.9083 49.8434Z" fill="#93C8A2"/>
<path fillRule="evenodd" clipRule="evenodd" d="M44.7916 64.4284C42.4678 64.4284 40.1725 64.0831 37.9702 63.4004C37.3671 63.2135 36.8629 62.7948 36.5686 62.2362C36.2742 61.6776 36.2137 61.0249 36.4005 60.4218C36.7898 59.1599 38.1267 58.4575 39.3797 58.8504C41.1249 59.3921 42.9452 59.6659 44.7916 59.6659C52.8708 59.6659 59.8856 54.4814 62.2481 46.7611C62.3396 46.4622 62.489 46.1842 62.688 45.9431C62.8869 45.702 63.1315 45.5024 63.4077 45.3559C63.6838 45.2095 63.9862 45.1188 64.2974 45.0893C64.6086 45.0597 64.9225 45.0918 65.2214 45.1837C66.4785 45.5647 67.1856 46.898 66.8011 48.154C63.8225 57.8867 54.9773 64.4284 44.7916 64.4284Z" fill="#43AF79"/>
<path fillRule="evenodd" clipRule="evenodd" d="M67.2026 37.747H38.6764C37.3609 37.747 36.2954 36.6815 36.2954 35.3661C36.2954 34.0506 37.3609 32.9851 38.6764 32.9851H67.2026C68.518 32.9851 69.5835 34.0506 69.5835 35.3661C69.5835 36.6815 68.518 37.747 67.2026 37.747Z" fill="#93C8A2"/>
<path fillRule="evenodd" clipRule="evenodd" d="M25.0595 37.7475C24.6871 37.7476 24.3199 37.6603 23.9874 37.4927C23.6549 37.325 23.3663 37.0817 23.1449 36.7823C22.9234 36.4829 22.7753 36.1357 22.7124 35.7687C22.6495 35.4016 22.6736 35.025 22.7827 34.669C25.7619 24.9368 34.6071 18.3999 44.7916 18.3999C47.1172 18.3999 49.4125 18.7451 51.6131 19.4285C51.9118 19.521 52.1893 19.6715 52.4299 19.8713C52.6704 20.0711 52.8692 20.3163 53.015 20.5929C53.1607 20.8696 53.2506 21.1722 53.2793 21.4836C53.3081 21.795 53.2753 22.109 53.1827 22.4076C53.0905 22.7065 52.9402 22.9842 52.7404 23.2249C52.5406 23.4656 52.2954 23.6645 52.0187 23.8102C51.7419 23.956 51.4391 24.0457 51.1277 24.0743C50.8162 24.1028 50.5022 24.0697 50.2036 23.9767C48.4595 23.441 46.6381 23.1672 44.7916 23.1672C36.7143 23.1672 29.6982 28.3517 27.3357 36.0719C27.1863 36.5591 26.8848 36.9856 26.4752 37.2888C26.0656 37.592 25.5697 37.7559 25.0601 37.7565" fill="#43AF79"/>
<path fillRule="evenodd" clipRule="evenodd" d="M61.3046 26.2925C61.3046 26.924 61.0538 27.5296 60.6072 27.9762C60.1607 28.4227 59.5551 28.6735 58.9237 28.6735C58.2922 28.6735 57.6866 28.4227 57.2401 27.9762C56.7935 27.5296 56.5427 26.924 56.5427 26.2925C56.5427 25.6611 56.7935 25.0555 57.2401 24.609C57.6866 24.1625 58.2922 23.9116 58.9237 23.9116C59.5551 23.9116 60.1607 24.1625 60.6072 24.609C61.0538 25.0555 61.3046 25.6611 61.3046 26.2925ZM33.0397 56.539C33.0397 57.1705 32.7889 57.7761 32.3424 58.2226C31.8959 58.6691 31.2902 58.9199 30.6588 58.9199C30.0273 58.9199 29.4217 58.6691 28.9752 58.2226C28.5287 57.7761 28.2778 57.1705 28.2778 56.539C28.2778 55.9075 28.5287 55.302 28.9752 54.8554C29.4217 54.4089 30.0273 54.158 30.6588 54.158C31.2902 54.158 31.8959 54.4089 32.3424 54.8554C32.7889 55.302 33.0397 55.9075 33.0397 56.539Z" fill="#93C8A2"/>
</g>
<g clipPath="url(#clip1_401_893)">
<path fillRule="evenodd" clipRule="evenodd" d="M135.204 40.4406L133.386 40.0461C132.476 39.8489 131.975 39.2878 131.975 38.4656C131.975 37.4206 132.903 36.6322 134.133 36.6322C135.836 36.6322 136.339 37.885 136.453 38.2695C136.489 38.3972 136.578 38.5056 136.697 38.5653C136.814 38.625 136.944 38.6339 137.069 38.5903L138.028 38.2522C138.143 38.2114 138.238 38.1281 138.294 38.0195C138.349 37.9109 138.362 37.7851 138.328 37.6678C138.081 36.7983 137.172 34.7761 134.092 34.7761C131.811 34.7761 129.886 36.5206 129.886 38.5858C129.886 40.3608 131.051 41.672 133.003 42.097L134.736 42.4747C135.779 42.6942 136.403 43.3303 136.403 44.1747C136.403 45.2525 135.517 45.922 134.089 45.922C132.411 45.922 131.603 44.822 131.406 43.7914C131.393 43.725 131.367 43.6619 131.328 43.6065C131.289 43.551 131.239 43.5044 131.181 43.4697C131.123 43.4351 131.058 43.4131 130.991 43.4054C130.924 43.3976 130.856 43.4042 130.792 43.4247L129.739 43.7608C129.628 43.7945 129.534 43.8679 129.474 43.9668C129.414 44.0657 129.392 44.1833 129.414 44.297C129.742 46.0053 131.145 47.8275 134.108 47.8275C136.612 47.8275 138.501 46.197 138.501 44.0358C138.501 42.2108 137.296 40.8997 135.195 40.4358L135.204 40.4406ZM145.959 42.1025C145.965 42.1386 145.948 42.1664 145.937 42.1775C145.928 42.1889 145.916 42.198 145.903 42.2043C145.89 42.2105 145.876 42.2137 145.861 42.2136H142C141.984 42.2136 141.969 42.2101 141.955 42.2034C141.942 42.1967 141.929 42.1868 141.92 42.1747C141.911 42.1646 141.905 42.1525 141.901 42.1395C141.898 42.1265 141.898 42.1129 141.901 42.0997C142.077 41.2947 142.767 40.4831 143.912 40.4831C145.036 40.4831 145.801 41.0858 145.957 42.0978L145.959 42.1025ZM143.897 38.6803C141.863 38.6803 139.761 40.3803 139.761 43.2275C139.761 44.5997 140.211 45.772 141.063 46.6136C141.853 47.3942 142.933 47.8247 144.102 47.8247C145.844 47.8247 147.255 46.9147 147.877 45.3914C147.927 45.2664 147.924 45.1275 147.871 45.0053C147.844 44.946 147.806 44.8928 147.757 44.849C147.709 44.8052 147.653 44.7718 147.591 44.7508L146.741 44.4564C146.627 44.4173 146.503 44.4226 146.393 44.4712C146.283 44.5197 146.196 44.608 146.148 44.7183C145.781 45.5822 145.092 46.0183 144.101 46.0183C142.901 46.0183 141.987 45.21 141.828 44.0064C141.826 43.9929 141.827 43.9792 141.831 43.9662C141.836 43.9532 141.842 43.9413 141.852 43.9314C141.863 43.9175 141.888 43.8953 141.927 43.8953H147.561C147.814 43.8953 148.025 43.6981 148.039 43.4464C148.045 43.3658 148.047 43.277 148.047 43.1892C148.047 40.4058 146.456 38.6772 143.895 38.6772L143.897 38.6803ZM153.491 45.4358C152.138 45.4358 151.297 44.497 151.297 42.9858C151.297 41.497 152.158 40.5347 153.491 40.5347C154.783 40.5347 155.651 41.5181 155.651 42.9847C155.651 44.4497 154.782 45.4347 153.491 45.4347L153.491 45.4358ZM157.097 38.9358H156.077C155.813 38.9358 155.598 39.1506 155.598 39.4275C155.598 39.4471 155.592 39.4662 155.581 39.4825C155.57 39.4988 155.555 39.5116 155.537 39.5192C155.517 39.5275 155.479 39.5386 155.444 39.5053C154.919 39.0253 154.18 38.7817 153.249 38.7817C150.943 38.7817 149.269 40.5511 149.269 42.9872C149.269 45.4128 150.943 47.1733 153.249 47.1733C154.102 47.1733 154.874 46.8933 155.424 46.385C155.46 46.3517 155.499 46.36 155.519 46.3683C155.532 46.3739 155.58 46.3989 155.58 46.46V46.81C155.58 48.5045 154.838 49.2947 153.249 49.2947C152.241 49.2947 151.449 48.6697 151.235 47.7036C151.207 47.5786 151.132 47.4731 151.024 47.4056C150.916 47.3381 150.785 47.3167 150.66 47.3445L149.659 47.575C149.536 47.6043 149.43 47.6806 149.362 47.7876C149.295 47.8947 149.273 48.0238 149.3 48.1472C149.658 49.9028 151.246 51.0833 153.247 51.0833C154.739 51.0833 155.875 50.6292 156.625 49.7333C157.244 48.9928 157.572 47.9647 157.572 46.7603V39.4222C157.572 39.1583 157.358 38.9445 157.094 38.9445L157.097 38.9358ZM169.216 38.6958C168.088 38.6958 167.171 39.1214 166.562 39.9292C166.552 39.9441 166.538 39.9562 166.522 39.9642C166.505 39.9721 166.487 39.9758 166.469 39.9747C166.456 39.9749 166.442 39.9715 166.431 39.9649C166.419 39.9583 166.409 39.9488 166.402 39.9372C165.892 39.1483 165.011 38.6956 163.986 38.6956C163.17 38.6956 162.386 38.9822 161.834 39.4831C161.82 39.497 161.803 39.5064 161.784 39.5098C161.765 39.5133 161.746 39.5108 161.728 39.5025C161.711 39.4955 161.697 39.4834 161.687 39.4679C161.677 39.4524 161.672 39.4342 161.672 39.4158C161.672 39.152 161.457 38.9381 161.194 38.9381H160.225C159.961 38.9381 159.747 39.152 159.747 39.4158V47.0908C159.747 47.3547 159.962 47.5692 160.226 47.5692H161.246C161.51 47.5692 161.724 47.3536 161.724 47.0897V42.4111C161.724 41.2742 162.418 40.51 163.454 40.51C164.81 40.51 165.012 41.5731 165.012 42.2064V47.0981C165.012 47.362 165.226 47.5758 165.49 47.5758H166.527C166.791 47.5758 167.005 47.3608 167.005 47.097V42.3945C167.005 41.2845 167.711 40.5095 168.719 40.5095C170.075 40.5095 170.277 41.5733 170.277 42.2067V47.0983C170.277 47.3622 170.491 47.5761 170.755 47.5761H171.774C172.038 47.5761 172.252 47.3611 172.252 47.0972V42.0333C172.252 39.7333 170.727 38.7047 169.216 38.7047V38.6958ZM176.108 42.2203C176.092 42.2202 176.077 42.2168 176.064 42.2101C176.05 42.2035 176.038 42.1939 176.028 42.182C176.02 42.1718 176.014 42.1599 176.01 42.1471C176.007 42.1343 176.007 42.121 176.01 42.1081C176.186 41.3025 176.876 40.4914 178.022 40.4914C179.146 40.4914 179.911 41.0942 180.067 42.1053C180.073 42.1414 180.056 42.1692 180.045 42.1803C180.035 42.1906 180.024 42.1989 180.011 42.2046C179.997 42.2103 179.983 42.2134 179.969 42.2136H176.108V42.2203ZM178.005 38.687C175.972 38.687 173.869 40.3881 173.869 43.2342C173.869 44.6081 174.319 45.7795 175.171 46.622C175.959 47.4025 177.037 47.8303 178.209 47.8303C179.948 47.8303 181.359 46.9192 181.984 45.3942C182.034 45.2692 182.032 45.1303 181.976 45.0081C181.921 44.8858 181.821 44.797 181.696 44.7525L180.846 44.4586C180.609 44.3772 180.348 44.492 180.252 44.7203C179.885 45.582 179.196 46.0203 178.204 46.0203C177.004 46.0203 176.091 45.2103 175.932 44.0064C175.93 43.9928 175.931 43.9788 175.935 43.9656C175.939 43.9523 175.945 43.9401 175.954 43.9297C175.966 43.9158 175.991 43.895 176.029 43.895H181.666C181.918 43.895 182.129 43.6978 182.143 43.4458C182.148 43.3653 182.152 43.2764 182.152 43.1875C182.152 40.4042 180.56 38.6736 177.999 38.6736L178.005 38.687ZM188.219 38.7045C187.356 38.7045 186.6 38.9983 186.033 39.5545C186.02 39.5676 186.003 39.5764 185.985 39.5799C185.967 39.5834 185.948 39.5813 185.931 39.5739C185.914 39.5663 185.899 39.5537 185.888 39.5377C185.878 39.5217 185.872 39.503 185.873 39.4839V39.4228C185.873 39.1589 185.658 38.945 185.394 38.945H184.394C184.13 38.945 183.915 39.1589 183.915 39.4228V47.0964C183.915 47.3603 184.129 47.575 184.393 47.575H185.429C185.693 47.575 185.908 47.3597 185.908 47.0958V42.6161C185.908 41.6139 186.362 40.5428 187.639 40.5428C188.786 40.5428 189.368 41.177 189.368 42.4275V47.0942C189.368 47.3581 189.582 47.572 189.846 47.572H190.882C191.146 47.572 191.36 47.3553 191.36 47.0914V42.1528C191.36 40.025 190.155 38.7028 188.219 38.7028L188.219 38.7045ZM196.188 40.7828H197.396C197.66 40.7828 197.874 40.5675 197.874 40.3039V39.4222C197.874 39.1583 197.66 38.9445 197.396 38.9445H196.188C196.175 38.9445 196.163 38.9419 196.151 38.9371C196.139 38.9322 196.128 38.925 196.119 38.916C196.11 38.907 196.103 38.8962 196.098 38.8844C196.093 38.8727 196.091 38.86 196.091 38.8472V36.8156C196.091 36.5517 195.875 36.3372 195.612 36.3372H194.712C194.448 36.3372 194.234 36.5517 194.234 36.8156V37.8656C194.234 38.3572 194.046 38.9442 193.154 38.9442H193C192.736 38.9442 192.522 39.1581 192.522 39.422V40.3025C192.522 40.5664 192.737 40.7803 193 40.7803H194.003C194.057 40.7803 194.1 40.822 194.1 40.8775V45.1192C194.1 46.6858 195.054 47.6581 196.589 47.6581C197.017 47.6581 197.35 47.597 197.51 47.5608C197.727 47.5108 197.879 47.3192 197.879 47.0942V46.2778C197.879 46.2106 197.865 46.1442 197.837 46.0829C197.81 46.0216 197.77 45.9667 197.72 45.9219C197.67 45.877 197.611 45.8432 197.547 45.8225C197.483 45.8018 197.416 45.7948 197.349 45.802C197.241 45.8131 197.136 45.8195 197.053 45.8195C196.356 45.8195 196.095 45.5639 196.095 44.8778V40.8778C196.095 40.8245 196.139 40.7811 196.192 40.7811" fill="#43AF79"/>
<path fillRule="evenodd" clipRule="evenodd" d="M112.424 44.8604H99.1111C98.4972 44.8604 98 44.3632 98 43.7493C98 43.1354 98.4972 42.6382 99.1111 42.6382H112.424C113.038 42.6382 113.535 43.1354 113.535 43.7493C113.535 44.3632 113.038 44.8604 112.424 44.8604Z" fill="#93C8A2"/>
<path fillRule="evenodd" clipRule="evenodd" d="M109.57 51.6666C108.485 51.6666 107.414 51.5055 106.386 51.1869C106.105 51.0997 105.87 50.9042 105.732 50.6436C105.595 50.3829 105.567 50.0783 105.654 49.7969C105.835 49.208 106.459 48.8802 107.044 49.0635C107.858 49.3163 108.708 49.4441 109.57 49.4441C113.34 49.4441 116.613 47.0247 117.716 43.4219C117.759 43.2824 117.828 43.1527 117.921 43.0401C118.014 42.9276 118.128 42.8345 118.257 42.7661C118.386 42.6978 118.527 42.6555 118.672 42.6417C118.817 42.6279 118.964 42.6429 119.103 42.6858C119.69 42.8635 120.02 43.4858 119.841 44.0719C118.451 48.6138 114.323 51.6666 109.57 51.6666Z" fill="#43AF79"/>
<path fillRule="evenodd" clipRule="evenodd" d="M120.028 39.2154H106.716C106.102 39.2154 105.604 38.7182 105.604 38.1043C105.604 37.4904 106.102 36.9932 106.716 36.9932H120.028C120.642 36.9932 121.139 37.4904 121.139 38.1043C121.139 38.7182 120.642 39.2154 120.028 39.2154Z" fill="#93C8A2"/>
<path fillRule="evenodd" clipRule="evenodd" d="M100.361 39.2157C100.187 39.2157 100.016 39.1749 99.8609 39.0967C99.7058 39.0185 99.5711 38.905 99.4678 38.7652C99.3644 38.6255 99.2953 38.4635 99.266 38.2922C99.2366 38.1209 99.2478 37.9452 99.2988 37.779C100.689 33.2373 104.817 30.1868 109.57 30.1868C110.655 30.1868 111.726 30.3479 112.753 30.6668C112.892 30.71 113.022 30.7802 113.134 30.8734C113.246 30.9666 113.339 31.0811 113.407 31.2102C113.475 31.3393 113.517 31.4805 113.531 31.6258C113.544 31.7711 113.529 31.9177 113.485 32.057C113.442 32.1965 113.372 32.3261 113.279 32.4384C113.186 32.5508 113.071 32.6436 112.942 32.7116C112.813 32.7796 112.672 32.8215 112.526 32.8348C112.381 32.8482 112.235 32.8327 112.095 32.7893C111.281 32.5393 110.431 32.4115 109.57 32.4115C105.8 32.4115 102.526 34.8309 101.423 38.4337C101.354 38.6611 101.213 38.8601 101.022 39.0016C100.831 39.1431 100.599 39.2196 100.362 39.2198" fill="#43AF79"/>
<path fillRule="evenodd" clipRule="evenodd" d="M117.276 33.8701C117.276 34.1648 117.159 34.4474 116.95 34.6558C116.742 34.8642 116.459 34.9812 116.165 34.9812C115.87 34.9812 115.587 34.8642 115.379 34.6558C115.171 34.4474 115.054 34.1648 115.054 33.8701C115.054 33.5755 115.171 33.2928 115.379 33.0845C115.587 32.8761 115.87 32.759 116.165 32.759C116.459 32.759 116.742 32.8761 116.95 33.0845C117.159 33.2928 117.276 33.5755 117.276 33.8701ZM104.086 47.9851C104.086 48.2798 103.968 48.5624 103.76 48.7708C103.552 48.9792 103.269 49.0962 102.974 49.0962C102.68 49.0962 102.397 48.9792 102.189 48.7708C101.98 48.5624 101.863 48.2798 101.863 47.9851C101.863 47.6905 101.98 47.4078 102.189 47.1995C102.397 46.9911 102.68 46.874 102.974 46.874C103.269 46.874 103.552 46.9911 103.76 47.1995C103.968 47.4078 104.086 47.6905 104.086 47.9851Z" fill="#93C8A2"/>
</g>
<defs>
<clipPath id="clip0_401_893">
<rect width="50" height="46.4286" fill="white" transform="translate(20 18)"/>
</clipPath>
<clipPath id="clip1_401_893">
<rect width="100" height="21.6667" fill="white" transform="translate(98 30)"/>
</clipPath>
</defs>
</svg>
