<svg width="250" height="82" viewBox="0 0 250 82" fill="none" xmlns="http://www.w3.org/2000/svg">
<g clip-path="url(#clip0_401_81)">
<path fill-rule="evenodd" clip-rule="evenodd" d="M20.1181 40.8541C20.2151 40.6544 20.4049 40.4564 20.5902 40.3614C20.8658 40.2201 21.1259 40.2052 22.9369 40.2277C25.2359 40.2563 25.4129 40.2992 25.7135 40.9007C25.8047 41.0834 26.0029 41.754 26.154 42.3908C26.305 43.0277 27.0699 46.2144 27.8537 49.4724C30.0817 58.7333 30.4805 60.3358 30.689 61.963C30.7498 62.4372 30.7944 62.9136 30.8634 63.5823C30.959 64.5085 31.05 65.279 31.0656 65.2947C31.0811 65.3103 31.1856 64.7329 31.2978 64.0116C31.41 63.2903 31.6127 62.1389 31.7481 61.453C32.1234 59.5519 37.0408 41.1109 37.2519 40.8126C37.3495 40.6748 37.5556 40.4926 37.7101 40.4076C37.9531 40.2738 38.3142 40.2494 40.3975 40.2256C41.9559 40.2078 42.9315 40.2326 43.1659 40.2961C43.5907 40.4112 44.0837 40.8183 44.219 41.1656C44.2716 41.3006 44.5983 42.4732 44.9451 43.7715C45.292 45.0698 46.2677 48.6974 47.1134 51.8329C49.4717 60.5754 49.5135 60.7412 49.8031 62.4878C49.9524 63.3884 50.1008 64.3557 50.133 64.6375C50.165 64.9192 50.2171 65.1497 50.2487 65.1497C50.2803 65.1497 50.3786 64.5986 50.4671 63.9249C50.798 61.4057 51.173 59.5348 53.1232 50.6749C54.2232 45.6777 55.1636 41.4442 55.213 41.2672C55.3537 40.7633 55.6182 40.4943 56.1208 40.3441C56.4608 40.2425 57.0164 40.2085 58.3327 40.2085C59.6515 40.2085 60.1657 40.2401 60.3917 40.3351C60.6981 40.4639 60.9703 40.8588 60.9703 41.1747C60.9703 41.3411 60.4539 43.2948 56.8934 56.5984C56.0083 59.9053 55.0129 63.629 54.6813 64.8732C54.3454 66.1336 54.0024 67.2381 53.9066 67.3673C53.8121 67.4949 53.5995 67.6794 53.434 67.7774C53.1493 67.9461 52.9742 67.9556 50.1226 67.9556C46.9196 67.9556 46.7324 67.9336 46.433 67.5214C46.3519 67.4098 46.0854 66.58 45.8407 65.6774C44.5217 60.8104 41.3819 48.9519 41.2632 48.389C41.1109 47.6664 40.7435 45.2251 40.6449 44.2797C40.6101 43.9467 40.5705 43.6862 40.5569 43.7007C40.5432 43.7151 40.4666 44.2882 40.3866 44.974C40.1586 46.9274 39.9273 48.1046 39.3191 50.4077C36.0562 62.7604 34.9127 67.0183 34.7947 67.253C34.718 67.4055 34.4893 67.626 34.2863 67.7429C33.9232 67.9523 33.8752 67.956 31.2166 67.9851C29.7311 68.0014 28.3061 67.9885 28.0499 67.9564C27.3888 67.8735 27.0992 67.601 26.881 66.8566C26.6105 65.9339 20.1343 41.9933 20.0399 41.5667C19.9718 41.2596 19.9866 41.1249 20.1181 40.8541Z" fill="#005CB9"/>
<path d="M38.3895 15.06C38.219 15.0773 37.5416 15.175 36.8841 15.2771C34.8984 15.5857 32.744 16.2804 30.9133 17.2023C29.5796 17.8739 28.7767 18.3721 27.5861 19.2664C25.3558 20.9416 23.3122 23.2586 21.8032 25.8227C21.386 26.5316 20.6249 28.0911 20.3231 28.8557C20.1225 29.3634 20.0447 29.7075 20.0425 30.0969C20.0408 30.3933 20.0987 30.7783 20.171 30.9525C20.3814 31.4592 20.8576 31.9327 21.4309 32.2055C21.8571 32.4083 22.0862 32.4589 22.5828 32.4592C23.379 32.4599 23.9588 32.2504 24.4905 31.77C24.8318 31.4617 24.9982 31.1912 25.404 30.285C25.988 28.9812 26.5902 27.9057 27.2969 26.9052C27.9389 25.9961 29.8979 23.9955 30.774 23.3545C31.5521 22.7851 32.6938 22.1035 33.5531 21.6954C35.0434 20.9876 37.0362 20.4448 38.8323 20.2573C42.6819 19.8555 46.5961 20.8487 49.7951 23.0392C50.3224 23.4002 51.19 24.1256 51.7863 24.7039C53.4713 26.338 54.6044 27.9902 55.6554 30.3456C56.0342 31.1944 56.2029 31.4664 56.5399 31.7708C56.769 31.9778 57.1649 32.2223 57.4197 32.3141C58.0741 32.5499 59.0756 32.4853 59.6945 32.1674C60.2006 31.9074 60.6619 31.4259 60.8586 30.9525C60.9309 30.7783 60.9888 30.3896 60.9871 30.0887C60.9846 29.6667 60.9097 29.3612 60.659 28.7512C59.8286 26.7308 58.5828 24.6237 57.1896 22.8832C56.7974 22.3933 56.0232 21.5514 55.4692 21.0123C53.1499 18.7554 50.3889 17.0714 47.3839 16.0809C44.9643 15.2833 43.0741 14.9928 40.4439 15.0143C39.4844 15.0221 38.56 15.0427 38.3895 15.06Z" fill="#F18902"/>
</g>
<g clip-path="url(#clip1_401_81)">
<path d="M152.162 21.0216C155.738 20.8983 159.337 21.4371 162.71 22.6359C167.785 24.42 172.32 27.6896 175.638 31.9248C177.098 33.7829 178.321 35.8252 179.279 37.9861C179.449 38.3457 179.58 38.7497 179.489 39.1503C179.377 39.8229 178.789 40.3789 178.112 40.4461C177.409 40.5491 176.682 40.1096 176.431 39.4461C174.526 34.955 171.274 31.0539 167.217 28.3536C164.709 26.6751 161.897 25.4528 158.959 24.7686C155.17 23.8809 151.18 23.8809 147.39 24.7659C141.979 26.0139 137.024 29.1228 133.53 33.4425C132.048 35.2626 130.825 37.2915 129.902 39.45C129.703 39.9516 129.244 40.3449 128.709 40.4329C128.193 40.5327 127.631 40.3542 127.271 39.9692C126.847 39.5436 126.709 38.8633 126.927 38.3045C129.466 32.2938 134.166 27.2444 139.944 24.2388C143.708 22.2658 147.918 21.1652 152.162 21.0216Z" fill="#F49813"/>
<path d="M147.436 39.5291C147.414 39.2169 147.709 38.9834 148.001 38.9759C148.381 38.9657 148.762 38.9689 149.142 38.9743C149.407 38.9834 149.716 39.1598 149.714 39.4572C149.728 42.9498 149.706 46.4436 149.726 49.9383C151.139 48.3646 152.564 46.7996 153.982 45.2308C154.261 44.955 154.482 44.537 154.916 44.5012C155.501 44.4768 156.088 44.4913 156.674 44.4921C156.9 44.4718 157.152 44.679 157.073 44.9205C156.98 45.1068 156.81 45.2347 156.671 45.3826C155.138 46.9171 153.599 48.4461 152.074 49.9871C153.547 51.6718 155 53.3737 156.467 55.0646C156.656 55.3054 156.892 55.5096 157.05 55.7748C157.166 55.9821 156.974 56.2345 156.752 56.2444C156.265 56.2717 155.777 56.2444 155.289 56.2561C155.035 56.2501 154.76 56.2874 154.53 56.1562C154.287 56.0166 154.139 55.767 153.965 55.5568C152.55 53.7724 151.145 51.9809 149.725 50.1996C149.71 51.9562 149.721 53.7122 149.719 55.4678C149.714 55.6704 149.755 55.9146 149.579 56.0625C149.299 56.3336 148.881 56.2384 148.531 56.2561C148.221 56.2455 147.857 56.3136 147.605 56.084C147.464 55.9743 147.428 55.7874 147.433 55.6211C147.437 50.2564 147.432 44.8923 147.436 39.5291Z" fill="#3069B5"/>
<path d="M140.991 44.4624C141.7 44.2338 142.5 44.1904 143.195 44.4917C143.439 44.6064 143.722 44.8508 143.612 45.1521C143.5 45.5304 143.405 45.9131 143.273 46.2847C143.174 46.5516 142.866 46.6507 142.605 46.5986C142.02 46.4979 141.446 46.3043 140.846 46.3238C140.427 46.314 140.04 46.539 139.754 46.8305C139.292 47.2833 139.053 47.9162 138.946 48.5443C138.86 48.9981 138.885 49.4617 138.881 49.9202C138.881 51.8471 138.881 53.7752 138.88 55.702C138.908 56.019 138.58 56.2341 138.295 56.245C137.903 56.2505 137.511 56.2557 137.119 56.2419C136.836 56.2271 136.518 56.0201 136.554 55.7009C136.553 52.1327 136.55 48.5658 136.555 44.9976C136.531 44.6427 136.923 44.4499 137.231 44.4831C137.618 44.5085 138.145 44.363 138.396 44.7522C138.587 45.2037 138.677 45.6912 138.856 46.1468C139.395 45.4064 140.109 44.7538 140.991 44.4624Z" fill="#3069B5"/>
<path d="M101 44.7346C101.109 44.6095 101.236 44.474 101.418 44.487C101.95 44.4818 102.484 44.4701 103.015 44.4948C103.285 44.5026 103.471 44.7402 103.511 44.9917C104.034 47.1219 104.547 49.2555 105.068 51.3865C105.221 52.0447 105.407 52.696 105.506 53.3655C105.609 53.9669 105.629 54.5772 105.727 55.1797C105.861 54.3198 105.982 53.4542 106.213 52.6143C106.894 50.0708 107.575 47.5277 108.256 44.985C108.309 44.6951 108.582 44.4889 108.871 44.4889C109.463 44.474 110.057 44.4842 110.649 44.4842C110.966 44.4694 111.306 44.6552 111.383 44.9811C111.891 46.8352 112.394 48.6928 112.9 50.5486C113.208 51.7505 113.61 52.9319 113.784 54.1652C113.832 54.5048 113.879 54.8452 113.949 55.1825C114.14 53.245 114.638 51.36 115.047 49.4628C115.385 47.9535 115.716 46.4424 116.057 44.9329C116.108 44.6297 116.428 44.4772 116.71 44.4857C117.189 44.4831 117.669 44.4694 118.147 44.4937C118.431 44.5018 118.594 44.8163 118.494 45.07C117.533 48.6213 116.576 52.175 115.614 55.7263C115.563 56.011 115.315 56.2333 115.025 56.238C114.283 56.2623 113.539 56.2439 112.797 56.2478C112.531 56.2642 112.25 56.1215 112.203 55.841C111.538 53.3987 110.887 50.9524 110.229 48.5082C109.991 47.658 109.894 46.7765 109.794 45.9021C109.672 46.6808 109.611 47.4722 109.404 48.2371C108.73 50.7536 108.053 53.2712 107.377 55.7881C107.301 56.1957 106.836 56.2772 106.49 56.2505C105.8 56.238 105.109 56.2666 104.42 56.238C104.174 56.2388 103.985 56.0471 103.941 55.8148C102.972 52.2775 102.006 48.7386 101.037 45.2021C101.003 45.0477 101.007 44.89 101 44.7346Z" fill="#3069B5"/>
<path d="M188.045 44.4941C188.549 44.4854 189.055 44.4835 189.559 44.4941C189.866 44.4983 190.154 44.7084 190.251 45.0019C191.121 47.2796 191.985 49.5618 192.854 51.8409C193.036 52.3033 193.163 52.7857 193.244 53.2755C193.603 51.9237 194.082 50.6083 194.502 49.2743C194.969 47.8317 195.437 46.3888 195.907 44.9459C195.976 44.6947 196.215 44.5234 196.469 44.5022C196.881 44.4718 197.295 44.4983 197.707 44.4874C197.948 44.4902 198.235 44.462 198.419 44.6556C198.538 44.7565 198.512 44.9244 198.463 45.0554C197.072 49.0286 195.685 53.0036 194.297 56.9779C194.055 57.6398 193.87 58.3328 193.481 58.9283C192.924 59.8351 192.02 60.4882 191.027 60.8414C190.68 60.949 190.322 61.1877 189.949 61.0538C189.684 60.9861 189.582 60.7103 189.441 60.5077C189.34 60.3237 189.152 60.1537 189.191 59.9247C189.209 59.6978 189.391 59.5131 189.605 59.4524C190.024 59.3077 190.45 59.1481 190.789 58.852C191.613 58.1535 192.123 57.1206 192.317 56.0694C192.185 55.6027 191.942 55.1735 191.765 54.7215C190.439 51.6347 189.113 48.5465 187.784 45.4607C187.704 45.2588 187.586 45.0663 187.563 44.8473C187.566 44.6067 187.841 44.5011 188.045 44.4941Z" fill="#3069B5"/>
<path d="M126.212 45.9871C125.488 46.1216 124.828 46.5727 124.461 47.2152C123.848 48.257 123.777 49.5141 123.805 50.6957C123.848 51.7652 124.02 52.9061 124.701 53.7709C125.209 54.4211 126.044 54.7478 126.856 54.7353C127.637 54.7603 128.455 54.4954 128.984 53.9007C129.66 53.1601 129.878 52.1323 129.971 51.1632C130.012 50.2113 130.031 49.2422 129.784 48.3127C129.588 47.5273 129.174 46.7422 128.458 46.3191C127.791 45.9096 126.967 45.8712 126.212 45.9871ZM126.517 44.2929C127.826 44.2124 129.198 44.4846 130.278 45.2612C131.244 45.9498 131.901 47.011 132.207 48.1487C132.572 49.5071 132.57 50.9567 132.24 52.322C131.928 53.5807 131.2 54.7673 130.102 55.4826C128.928 56.2627 127.453 56.4654 126.076 56.2991C124.902 56.1543 123.758 55.6386 122.941 54.7724C121.98 53.7646 121.503 52.376 121.404 51.0036C121.284 49.4816 121.516 47.8705 122.362 46.5707C122.987 45.5925 123.981 44.874 125.09 44.5461C125.553 44.4013 126.035 44.334 126.517 44.2929Z" fill="#3069B5"/>
<path d="M165.13 45.9248C164.412 45.9709 163.719 46.3845 163.399 47.0407C162.773 48.2539 162.76 49.6659 162.792 51.0001C162.842 51.8717 162.936 52.7716 163.342 53.5588C163.616 54.0889 164.114 54.5076 164.703 54.6358C165.604 54.853 166.665 54.6692 167.305 53.956C167.923 53.2521 168.126 52.2951 168.22 51.3893C168.286 50.3569 168.29 49.3032 168.034 48.2926C167.858 47.617 167.56 46.9421 167.026 46.4725C166.513 46.0207 165.799 45.8464 165.13 45.9248ZM168.217 39.3792C168.201 39.1054 168.48 38.9305 168.723 38.9095C169.112 38.8883 169.502 38.8984 169.891 38.9028C170.188 38.9 170.52 39.121 170.477 39.4513C170.477 44.8404 170.478 50.2285 170.476 55.6168C170.497 55.895 170.223 56.1109 169.967 56.1277C169.657 56.1441 169.346 56.1441 169.038 56.1226C168.82 56.109 168.609 55.9692 168.535 55.7608C168.419 55.4106 168.358 55.0468 168.269 54.6906C167.84 55.2744 167.286 55.7909 166.598 56.0471C165.616 56.409 164.523 56.4149 163.514 56.1684C162.501 55.9243 161.618 55.2266 161.129 54.3084C160.361 52.9065 160.27 51.2575 160.318 49.6937C160.345 48.3575 160.6 46.948 161.469 45.8876C162.125 44.9889 163.199 44.4733 164.284 44.3383C165.294 44.1904 166.389 44.3605 167.224 44.9733C167.62 45.2519 167.936 45.6255 168.219 46.016C168.211 43.8043 168.213 41.5918 168.217 39.3792Z" fill="#3069B5"/>
<path d="M179.083 45.9922C178.723 46.0657 178.374 46.2104 178.083 46.4362C177.501 46.89 177.212 47.6112 177.057 48.3115C176.833 49.4226 176.836 50.5702 176.952 51.6937C177.06 52.5193 177.267 53.4005 177.872 54.0108C178.364 54.5284 179.106 54.7181 179.801 54.6841C180.547 54.7111 181.325 54.4324 181.806 53.8448C182.409 53.1151 182.579 52.1444 182.667 51.2301C182.723 50.1551 182.723 49.0541 182.422 48.0101C182.231 47.3599 181.883 46.7132 181.295 46.3427C180.647 45.9171 179.828 45.8778 179.083 45.9922ZM178.083 44.5164C179.119 44.2288 180.228 44.212 181.275 44.4518C182.248 44.6777 183.159 45.2245 183.757 46.0343C184.389 46.8646 184.708 47.8941 184.84 48.9198C184.956 49.7109 184.923 50.5122 184.924 51.3092C184.924 52.7474 184.924 54.1859 184.92 55.6239C184.935 55.7991 184.825 55.9544 184.682 56.0455C184.441 56.1942 184.142 56.1285 183.874 56.1454C183.572 56.143 183.176 56.1696 183.012 55.8554C182.851 55.4861 182.818 55.0741 182.716 54.6856C182.311 55.1778 181.892 55.6856 181.307 55.97C180.416 56.4114 179.374 56.3856 178.42 56.1989C177.252 55.9682 176.178 55.2767 175.517 54.2806C174.731 53.1206 174.446 51.6888 174.457 50.3048C174.447 48.9558 174.711 47.5611 175.46 46.4198C176.058 45.4867 177.019 44.8111 178.083 44.5164Z" fill="#3069B5"/>
<path d="M198.957 53.3527C198.365 53.5706 197.992 54.2553 198.143 54.8734C198.297 55.5993 199.14 56.0946 199.843 55.8262C200.492 55.6279 200.901 54.8872 200.7 54.2343C200.523 53.4995 199.653 53.0652 198.957 53.3527ZM199.039 53.0425C199.391 52.9868 199.773 52.9829 200.099 53.1461C200.655 53.3989 201.054 53.9964 200.994 54.6176C201.04 55.3586 200.418 56.021 199.707 56.1404C198.908 56.3106 198.047 55.7304 197.884 54.9315C197.674 54.1274 198.232 53.2224 199.039 53.0425Z" fill="#3069B5"/>
<path d="M199.205 53.9454C199.204 54.1135 199.203 54.2819 199.205 54.4513C199.352 54.4422 199.504 54.4513 199.649 54.4109C199.786 54.3542 199.772 54.1801 199.735 54.0635C199.594 53.9249 199.383 53.961 199.205 53.9454ZM198.76 53.6714C199.185 53.6957 199.662 53.5756 200.045 53.8131C200.353 54.045 200.204 54.5499 199.855 54.6574C199.956 54.9235 200.095 55.1708 200.223 55.4243C200.062 55.4274 199.904 55.4301 199.746 55.4329C199.631 55.1981 199.519 54.9606 199.41 54.7238C199.34 54.722 199.272 54.7212 199.205 54.7199C199.204 54.9567 199.204 55.1934 199.204 55.4301C199.053 55.4282 198.906 55.4262 198.758 55.4251C198.76 54.8401 198.758 54.2552 198.76 53.6714Z" fill="#3069B5"/>
</g>
<defs>
<clipPath id="clip0_401_81">
<rect width="41" height="53" fill="white" transform="translate(20 15)"/>
</clipPath>
<clipPath id="clip1_401_81">
<rect width="100" height="40.0936" fill="white" transform="translate(101 21)"/>
</clipPath>
</defs>
</svg>
