<svg width="250" height="82" viewBox="0 0 250 82" fill="none" xmlns="http://www.w3.org/2000/svg">
<g clip-path="url(#clip0_401_2823)">
<path d="M198.676 49.053C198.603 49.053 198.544 48.9939 198.544 48.921V33.0221C198.544 32.9595 198.588 32.9055 198.649 32.8928L201.426 32.3187C201.508 32.3018 201.585 32.3643 201.585 32.4479V48.921C201.585 48.9939 201.526 49.053 201.453 49.053H198.676Z" fill="#1C4396"/>
<path d="M163.796 49.3893C162.688 49.3893 161.698 49.1201 160.827 48.5816C159.956 48.0431 159.267 47.3067 158.76 46.3723C158.253 45.4379 158 44.3768 158 43.189C158 42.0013 158.253 40.9481 158.76 40.0295C159.267 39.0951 159.956 38.3666 160.827 37.8439C161.698 37.3055 162.688 37.0362 163.796 37.0362C164.683 37.0362 165.459 37.2025 166.124 37.5351C166.659 37.8022 167.111 38.1562 167.482 38.597C167.566 38.6963 167.74 38.6399 167.74 38.5101V32.7362C167.74 32.6736 167.784 32.6196 167.845 32.6069L170.622 32.0328C170.704 32.0159 170.781 32.0784 170.781 32.1621V48.9723C170.781 49.0452 170.722 49.1042 170.649 49.1042H168.181C168.118 49.1042 168.064 49.0597 168.051 48.9978L167.798 47.7141C167.776 47.601 167.628 47.5674 167.554 47.6559C167.2 48.081 166.755 48.4608 166.219 48.7954C165.602 49.1913 164.794 49.3893 163.796 49.3893ZM164.438 46.7286C165.42 46.7286 166.219 46.404 166.837 45.7547C167.471 45.0895 167.787 44.2422 167.787 43.2128C167.787 42.1834 167.471 41.344 166.837 40.6947C166.219 40.0295 165.42 39.6969 164.438 39.6969C163.472 39.6969 162.672 40.0215 162.038 40.6709C161.405 41.3202 161.088 42.1596 161.088 43.189C161.088 44.2184 161.405 45.0658 162.038 45.7309C162.672 46.396 163.472 46.7286 164.438 46.7286Z" fill="#1C4396"/>
<path d="M178.195 49.3911C177.007 49.3911 175.954 49.1377 175.036 48.631C174.117 48.1241 173.396 47.4115 172.874 46.4929C172.351 45.5744 172.09 44.5133 172.09 43.3097C172.09 42.0902 172.343 41.0053 172.85 40.0551C173.373 39.1048 174.085 38.3684 174.988 37.8458C175.907 37.3073 176.984 37.0381 178.219 37.0381C179.375 37.0381 180.396 37.2915 181.283 37.7983C182.17 38.3051 182.859 39.0019 183.35 39.8888C183.857 40.7598 184.11 41.7339 184.11 42.8107C184.11 42.9849 184.102 43.1671 184.087 43.3571C184.087 43.5094 184.081 43.6667 184.071 43.8291C184.067 43.8979 184.01 43.951 183.941 43.951H175.248C175.172 43.951 175.111 44.016 175.119 44.092C175.204 44.9436 175.516 45.6173 176.057 46.1128C176.643 46.6354 177.348 46.8968 178.171 46.8968C178.789 46.8968 179.304 46.7621 179.715 46.4929C180.118 46.2243 180.423 45.8853 180.629 45.476C180.652 45.4301 180.699 45.4002 180.75 45.4002H183.577C183.665 45.4002 183.729 45.4852 183.701 45.569C183.475 46.2478 183.12 46.8725 182.637 47.4431C182.131 48.0449 181.497 48.5201 180.737 48.8685C179.993 49.2169 179.145 49.3911 178.195 49.3911ZM178.219 39.5087C177.474 39.5087 176.817 39.7225 176.247 40.1501C175.712 40.5365 175.358 41.1181 175.186 41.8951C175.168 41.9757 175.23 42.0506 175.313 42.0506H180.882C180.958 42.0506 181.018 41.9864 181.011 41.9107C180.939 41.2 180.658 40.6289 180.167 40.1976C179.644 39.7383 178.995 39.5087 178.219 39.5087Z" fill="#1C4396"/>
<path d="M191.423 49.3911C190.235 49.3911 189.182 49.1377 188.264 48.631C187.345 48.1241 186.624 47.4115 186.102 46.4929C185.579 45.5744 185.318 44.5133 185.318 43.3097C185.318 42.0902 185.571 41.0053 186.078 40.0551C186.601 39.1048 187.313 38.3684 188.216 37.8458C189.135 37.3073 190.212 37.0381 191.447 37.0381C192.603 37.0381 193.625 37.2915 194.511 37.7983C195.398 38.3051 196.087 39.0019 196.578 39.8888C197.085 40.7598 197.338 41.7339 197.338 42.8107C197.338 42.9849 197.33 43.1671 197.315 43.3571C197.315 43.5094 197.31 43.6667 197.299 43.8291C197.295 43.8979 197.238 43.951 197.169 43.951H188.476C188.4 43.951 188.339 44.016 188.347 44.092C188.432 44.9436 188.744 45.6173 189.285 46.1128C189.871 46.6354 190.576 46.8968 191.399 46.8968C192.017 46.8968 192.532 46.7621 192.944 46.4929C193.346 46.2243 193.651 45.8853 193.857 45.476C193.88 45.4301 193.927 45.4002 193.978 45.4002H196.805C196.893 45.4002 196.957 45.4852 196.929 45.569C196.703 46.2478 196.348 46.8725 195.865 47.4431C195.359 48.0449 194.725 48.5201 193.965 48.8685C193.221 49.2169 192.373 49.3911 191.423 49.3911ZM191.447 39.5087C190.703 39.5087 190.045 39.7225 189.475 40.1501C188.94 40.5365 188.586 41.1181 188.414 41.8951C188.396 41.9757 188.459 42.0506 188.541 42.0506H194.11C194.186 42.0506 194.246 41.9864 194.239 41.9107C194.167 41.2 193.886 40.6289 193.395 40.1976C192.872 39.7383 192.223 39.5087 191.447 39.5087Z" fill="#1C4396"/>
<path d="M205.569 49.0565C206.7 49.0565 207.616 48.14 207.616 47.0093C207.616 45.8787 206.7 44.9622 205.569 44.9622C204.438 44.9622 203.522 45.8787 203.522 47.0093C203.522 48.14 204.438 49.0565 205.569 49.0565Z" fill="#2C71F0"/>
</g>
<g clip-path="url(#clip1_401_2823)">
<path d="M101.352 58.1061C101.206 58.1061 101.088 57.9879 101.088 57.8421V26.0442C101.088 25.919 101.176 25.8111 101.298 25.7857L106.852 24.6375C107.016 24.6037 107.169 24.7287 107.169 24.896V57.8421C107.169 57.9879 107.051 58.1061 106.905 58.1061H101.352Z" fill="#1C4396"/>
<path d="M31.5929 58.7787C29.3756 58.7787 27.396 58.2403 25.6539 57.1634C23.9118 56.0864 22.534 54.6135 21.5204 52.7447C20.5068 50.876 20 48.7538 20 46.3781C20 44.0026 20.5068 41.8963 21.5204 40.0592C22.534 38.1903 23.9118 36.7332 25.6539 35.688C27.396 34.6111 29.3756 34.0726 31.5929 34.0726C33.3666 34.0726 34.9187 34.4052 36.249 35.0703C37.3175 35.6046 38.2226 36.3125 38.9641 37.1942C39.1312 37.3928 39.4799 37.2798 39.4799 37.0203V25.4724C39.4799 25.3473 39.5677 25.2393 39.6903 25.214L45.2439 24.0657C45.4077 24.0319 45.5613 24.157 45.5613 24.3242V57.9447C45.5613 58.0905 45.443 58.2086 45.2974 58.2086H40.3619C40.2358 58.2086 40.1274 58.1195 40.1029 57.9957L39.5967 55.4283C39.5522 55.2022 39.2558 55.135 39.1083 55.3119C38.3996 56.1621 37.5097 56.9218 36.439 57.5909C35.2038 58.3828 33.5883 58.7787 31.5929 58.7787ZM32.8757 53.4574C34.8394 53.4574 36.439 52.8081 37.6743 51.5095C38.9413 50.1792 39.5748 48.4845 39.5748 46.4257C39.5748 44.3668 38.9413 42.6881 37.6743 41.3895C36.439 40.0592 34.8394 39.3939 32.8757 39.3939C30.9435 39.3939 29.344 40.0432 28.077 41.3419C26.81 42.6406 26.1765 44.3193 26.1765 46.3781C26.1765 48.437 26.81 50.1316 28.077 51.4619C29.344 52.7922 30.9435 53.4574 32.8757 53.4574Z" fill="#1C4396"/>
<path d="M60.3901 58.7823C58.0146 58.7823 55.9082 58.2755 54.0711 57.262C52.234 56.2484 50.7929 54.823 49.7475 52.9859C48.7023 51.1488 48.1797 49.0267 48.1797 46.6194C48.1797 44.1804 48.6865 42.0107 49.7 40.1103C50.7453 38.2098 52.1707 36.7369 53.9761 35.6917C55.8132 34.6148 57.9671 34.0763 60.4377 34.0763C62.75 34.0763 64.7929 34.5831 66.5666 35.5967C68.3404 36.6103 69.7182 38.0039 70.7003 39.7777C71.7137 41.5197 72.2206 43.4678 72.2206 45.6216C72.2206 45.97 72.2048 46.3344 72.173 46.7144C72.173 47.0188 72.1629 47.3335 72.1426 47.6584C72.134 47.7959 72.0191 47.9022 71.8811 47.9022H54.4965C54.3435 47.9022 54.2222 48.032 54.2374 48.1842C54.4072 49.8874 55.0329 51.2346 56.1142 52.2258C57.2861 53.271 58.6956 53.7936 60.3427 53.7936C61.5779 53.7936 62.6074 53.5244 63.431 52.9859C64.2369 52.4487 64.8459 51.7707 65.2581 50.952C65.3042 50.8603 65.3971 50.8004 65.4998 50.8004H71.1539C71.3304 50.8004 71.4572 50.9704 71.4014 51.1381C70.9494 52.4957 70.2406 53.7451 69.2749 54.8864C68.2613 56.09 66.9943 57.0403 65.4739 57.7371C63.9852 58.4339 62.2907 58.7823 60.3901 58.7823ZM60.4377 39.0175C58.949 39.0175 57.6345 39.4451 56.4942 40.3003C55.4242 41.0732 54.7168 42.2364 54.3719 43.7903C54.3361 43.9515 54.461 44.1013 54.6261 44.1013H65.7635C65.9156 44.1013 66.0368 43.9729 66.0214 43.8216C65.8779 42.4001 65.3153 41.258 64.3336 40.3954C63.2884 39.4768 61.9897 39.0175 60.4377 39.0175Z" fill="#1C4396"/>
<path d="M86.8463 58.7823C84.4707 58.7823 82.3643 58.2755 80.5272 57.262C78.6901 56.2484 77.2489 54.823 76.2037 52.9859C75.1584 51.1488 74.6357 49.0267 74.6357 46.6194C74.6357 44.1804 75.1426 42.0107 76.1562 40.1103C77.2014 38.2098 78.6268 36.7369 80.4323 35.6917C82.2694 34.6148 84.4231 34.0763 86.8939 34.0763C89.206 34.0763 91.2491 34.5831 93.0228 35.5967C94.7966 36.6103 96.1744 38.0039 97.1563 39.7777C98.1699 41.5197 98.6768 43.4678 98.6768 45.6216C98.6768 45.97 98.6608 46.3344 98.6292 46.7144C98.6292 47.0188 98.6191 47.3335 98.5986 47.6584C98.5901 47.7959 98.4752 47.9022 98.3372 47.9022H80.9526C80.7997 47.9022 80.6784 48.032 80.6936 48.1842C80.8634 49.8874 81.4889 51.2346 82.5702 52.2258C83.7423 53.271 85.1517 53.7936 86.7988 53.7936C88.0342 53.7936 89.0636 53.5244 89.887 52.9859C90.693 52.4487 91.302 51.7707 91.7141 50.952C91.7604 50.8603 91.8533 50.8004 91.956 50.8004H97.6099C97.7866 50.8004 97.9133 50.9704 97.8575 51.1381C97.4056 52.4957 96.6966 53.7451 95.731 54.8864C94.7173 56.09 93.4504 57.0403 91.9301 57.7371C90.4414 58.4339 88.7468 58.7823 86.8463 58.7823ZM86.8939 39.0175C85.4052 39.0175 84.0907 39.4451 82.9504 40.3003C81.8802 41.0732 81.1728 42.2364 80.8281 43.7903C80.7923 43.9515 80.917 44.1013 81.0821 44.1013H92.2195C92.3717 44.1013 92.4928 43.9729 92.4776 43.8216C92.334 42.4001 91.7714 41.258 90.7898 40.3954C89.7444 39.4768 88.4459 39.0175 86.8939 39.0175Z" fill="#1C4396"/>
<path d="M115.139 58.1129C117.4 58.1129 119.233 56.2798 119.233 54.0185C119.233 51.7572 117.4 49.9242 115.139 49.9242C112.877 49.9242 111.044 51.7572 111.044 54.0185C111.044 56.2798 112.877 58.1129 115.139 58.1129Z" fill="#2C71F0"/>
</g>
<defs>
<clipPath id="clip0_401_2823">
<rect width="50" height="17.3913" fill="white" transform="translate(158 32)"/>
</clipPath>
<clipPath id="clip1_401_2823">
<rect width="100" height="34.7826" fill="white" transform="translate(20 24)"/>
</clipPath>
</defs>
</svg>
