<svg width="250" height="82" viewBox="0 0 250 82" fill="none" xmlns="http://www.w3.org/2000/svg">
<g clip-path="url(#clip0_401_3133)">
<path fill-rule="evenodd" clip-rule="evenodd" d="M60.2084 52.3296L64.2229 53.102C68.2084 53.8692 71.2502 49.5968 69.2207 46.0823L54.9744 21.4096C52.9449 17.895 47.7237 18.3928 46.3953 22.2275L45.0568 26.0901C45.8244 26.646 46.501 27.3795 47.0294 28.2949L59.2851 49.5196C59.8135 50.4347 60.1105 51.3873 60.2084 52.3296ZM57.7772 51.8619C57.6714 51.4613 57.5092 51.0627 57.2849 50.6745L45.0293 29.4495C44.8049 29.0609 44.5407 28.7209 44.2466 28.4292L41.6548 35.9102L46.3953 49.6716L57.7772 51.8619Z" fill="black"/>
<path d="M24.1244 59.9206C21.1448 59.4515 19.3565 56.3547 20.44 53.54L25.7117 39.8458C27.1425 36.1285 32.2437 35.7294 34.2355 39.1789L43.4609 55.1555C45.4526 58.6049 42.5562 62.8227 38.6213 62.2031L24.1244 59.9206Z" fill="black"/>
<path fill-rule="evenodd" clip-rule="evenodd" d="M46.3949 56.9169L52.5559 57.7378C56.4529 58.2567 59.2499 54.0783 57.2844 50.674L45.0285 29.4489C43.0629 26.0449 38.0451 26.3776 36.5464 30.0114L34.1768 35.7567C34.9789 36.3192 35.6862 37.0732 36.2352 38.0236L45.4606 54.0003C46.0094 54.9511 46.3086 55.9409 46.3949 56.9169ZM44.0133 56.5997C43.9138 56.1133 43.7327 55.6269 43.4602 55.1549L34.235 39.1783C33.9626 38.7066 33.6321 38.3067 33.2606 37.9777L28.8864 48.5832C27.7012 51.4571 29.5589 54.674 32.6403 55.0846L44.0133 56.5997Z" fill="black"/>
</g>
<g clip-path="url(#clip1_401_3133)">
<path d="M129.899 45.7975H133.756C135.752 45.7975 137.128 44.7726 137.128 42.9792C137.128 41.7386 136.4 40.9835 135.537 40.6464C136.09 40.3497 136.642 39.6754 136.642 38.7855C136.642 37.2078 135.361 36.3583 133.649 36.3583H129.899V45.7975ZM131.895 39.9586V37.963H133.46C134.363 37.963 134.768 38.327 134.768 38.9608C134.768 39.5946 134.363 39.9586 133.5 39.9586H131.895ZM131.895 44.0445V41.6712H133.581C134.7 41.6712 135.199 42.1027 135.199 42.8714C135.199 43.64 134.7 44.0445 133.581 44.0445H131.895Z" fill="black"/>
<path d="M142.52 43.4916C142.372 44.0714 141.873 44.3681 141.117 44.3681C140.173 44.3681 139.567 43.7747 139.432 42.8173H144.314C144.327 42.669 144.341 42.4668 144.341 42.2105C144.341 40.6598 143.383 38.8933 140.983 38.8933C138.676 38.8933 137.625 40.6598 137.625 42.3858C137.625 44.0984 138.811 45.9053 141.117 45.9053C142.79 45.9053 144.084 44.9613 144.354 43.4916H142.52ZM140.983 40.2688C141.886 40.2688 142.412 40.8756 142.466 41.6308H139.459C139.62 40.6868 140.133 40.2688 140.983 40.2688Z" fill="black"/>
<path d="M145.852 36.9921V38.5293C145.852 38.8665 145.663 39.0012 145.38 39.0012H144.543V40.5654H145.852V43.3298C145.852 44.9074 146.863 45.7975 148.427 45.7975H149.547V44.0984H148.684C148.077 44.0984 147.726 43.7882 147.726 43.1275V40.5654H149.547V39.0012H147.726V36.9921H145.852Z" fill="black"/>
<path d="M151.166 36.9921V38.5293C151.166 38.8665 150.977 39.0012 150.694 39.0012H149.858V40.5654H151.166V43.3298C151.166 44.9074 152.178 45.7975 153.742 45.7975H154.861V44.0984H153.998C153.391 44.0984 153.041 43.7882 153.041 43.1275V40.5654H154.861V39.0012H153.041V36.9921H151.166Z" fill="black"/>
<path d="M160.031 43.4916C159.882 44.0714 159.383 44.3681 158.628 44.3681C157.684 44.3681 157.077 43.7747 156.942 42.8173H161.824C161.838 42.669 161.851 42.4668 161.851 42.2105C161.851 40.6598 160.893 38.8933 158.493 38.8933C156.187 38.8933 155.135 40.6598 155.135 42.3858C155.135 44.0984 156.322 45.9053 158.628 45.9053C160.3 45.9053 161.595 44.9613 161.865 43.4916H160.031ZM158.493 40.2688C159.397 40.2688 159.923 40.8756 159.977 41.6308H156.969C157.131 40.6868 157.643 40.2688 158.493 40.2688Z" fill="black"/>
<path d="M166.974 40.5654V39.0012H166.205C165.382 39.0012 164.869 39.2844 164.505 40.1339V39.0012H162.617V45.7975H164.505V42.4937C164.505 41.3341 164.924 40.5654 165.854 40.5654H166.974Z" fill="black"/>
<path d="M173.442 45.9053C175.559 45.9053 176.989 44.7995 176.989 43.0331C176.989 39.2979 172.025 40.8891 172.025 38.9203C172.025 38.3674 172.525 37.9899 173.32 37.9899C174.224 37.9899 174.791 38.4753 174.858 39.2169H176.786C176.732 37.4235 175.357 36.2504 173.32 36.2504C171.405 36.2504 170.057 37.3561 170.057 38.9203C170.057 42.6285 174.952 41.2127 174.952 43.06C174.952 43.7747 174.345 44.1523 173.442 44.1523C172.444 44.1523 171.81 43.5455 171.729 42.5881H169.787C169.868 44.5973 171.298 45.9053 173.442 45.9053Z" fill="black"/>
<path d="M178.568 36.9921V38.5293C178.568 38.8665 178.379 39.0012 178.096 39.0012H177.26V40.5654H178.568V43.3298C178.568 44.9074 179.579 45.7975 181.144 45.7975H182.263V44.0984H181.4C180.793 44.0984 180.442 43.7882 180.442 43.1275V40.5654H182.263V39.0012H180.442V36.9921H178.568Z" fill="black"/>
<path d="M185.854 45.9053C186.649 45.9053 187.365 45.5816 187.701 45.0827V45.7975H189.59V39.0012H187.701V39.6754C187.324 39.2035 186.649 38.8933 185.827 38.8933C183.844 38.8933 182.644 40.2822 182.644 42.3993C182.644 44.5164 183.844 45.9053 185.854 45.9053ZM186.151 44.2871C185.153 44.2871 184.492 43.532 184.492 42.3993C184.492 41.2531 185.153 40.498 186.151 40.498C187.162 40.498 187.823 41.2531 187.823 42.3993C187.823 43.532 187.162 44.2871 186.151 44.2871Z" fill="black"/>
<path d="M193.965 45.9053C195.731 45.9053 197.134 44.7726 197.336 43.2624H195.421C195.287 43.8691 194.733 44.2871 194.046 44.2871C193.021 44.2871 192.414 43.505 192.414 42.3993C192.414 41.2937 193.008 40.498 194.018 40.498C194.706 40.498 195.287 40.943 195.394 41.5498H197.282C197.161 39.9721 195.745 38.8933 193.965 38.8933C191.861 38.8933 190.458 40.4171 190.458 42.3993C190.458 44.3816 191.861 45.9053 193.965 45.9053Z" fill="black"/>
<path d="M202.7 45.7975H204.966L202.039 41.6713L204.75 39.0013H202.376L200.016 41.3206V36.0482H198.128V45.7975H200.016V43.6669L200.771 42.9253L202.7 45.7975Z" fill="black"/>
<path fill-rule="evenodd" clip-rule="evenodd" d="M119.682 45.1703L121.148 45.4523C122.603 45.7324 123.714 44.1724 122.973 42.8891L117.771 33.8798C117.03 32.5965 115.123 32.7782 114.638 34.1785L114.149 35.5889C114.43 35.7919 114.677 36.0597 114.87 36.394L119.345 44.1442C119.538 44.4783 119.646 44.8262 119.682 45.1703ZM118.794 44.9995C118.756 44.8532 118.696 44.7077 118.615 44.5659L114.139 36.8156C114.057 36.6737 113.961 36.5496 113.854 36.443L112.907 39.1747L114.638 44.1997L118.794 44.9995Z" fill="black"/>
<path d="M106.506 47.9421C105.418 47.7709 104.765 46.6401 105.161 45.6123L107.086 40.6118C107.608 39.2545 109.471 39.1087 110.198 40.3683L113.567 46.2022C114.294 47.4617 113.237 49.0018 111.8 48.7756L106.506 47.9421Z" fill="black"/>
<path fill-rule="evenodd" clip-rule="evenodd" d="M114.638 46.8454L116.888 47.1451C118.311 47.3346 119.332 45.8088 118.615 44.5658L114.139 36.8155C113.422 35.5725 111.589 35.694 111.042 37.0208L110.177 39.1187C110.47 39.3241 110.728 39.5994 110.928 39.9465L114.297 45.7804C114.498 46.1275 114.607 46.489 114.638 46.8454ZM113.769 46.7295C113.732 46.5519 113.666 46.3743 113.567 46.202L110.198 40.3681C110.099 40.1959 109.978 40.0499 109.842 39.9297L108.245 43.8023C107.812 44.8517 108.491 46.0264 109.616 46.1763L113.769 46.7295Z" fill="black"/>
</g>
<defs>
<clipPath id="clip0_401_3133">
<rect width="50" height="43.2976" fill="white" transform="translate(20 19)"/>
</clipPath>
<clipPath id="clip1_401_3133">
<rect width="100" height="15.8101" fill="white" transform="translate(105 33)"/>
</clipPath>
</defs>
</svg>
