<svg width="250" height="82" viewBox="0 0 250 82" fill="none" xmlns="http://www.w3.org/2000/svg">
<g clip-path="url(#clip0_401_1442)">
<path d="M33.9732 67.0661L34.979 60.6776L32.7386 60.6257H22.0405L29.4751 13.4854C29.4982 13.343 29.5732 13.2104 29.6828 13.1161C29.7925 13.0219 29.9328 12.97 30.079 12.97H48.1175C54.106 12.97 58.2387 14.2161 60.3964 16.6757C61.4079 17.8296 62.0521 19.0354 62.3637 20.3623C62.6906 21.7546 62.6964 23.418 62.3771 25.4469L62.354 25.595V26.895L63.3656 27.468C64.2175 27.92 64.8944 28.4373 65.4137 29.0296C66.279 30.0161 66.8387 31.27 67.0752 32.7565C67.3194 34.2853 67.2387 36.1046 66.8387 38.1642C66.3771 40.5334 65.631 42.5969 64.6233 44.2853C63.6964 45.8411 62.5156 47.1315 61.1137 48.1315C59.7752 49.0815 58.1848 49.8026 56.3867 50.2642C54.6444 50.718 52.6579 50.9469 50.479 50.9469H49.0752C48.0714 50.9469 47.0964 51.3084 46.331 51.9565C45.5637 52.618 45.056 53.5219 44.9002 54.5103L44.7944 55.0853L43.0175 66.345L42.9367 66.7584C42.9156 66.8892 42.879 66.9546 42.8252 66.9988C42.7771 67.0392 42.7079 67.0661 42.6406 67.0661H33.9732Z" fill="#253B80"/>
<path d="M64.3233 25.7441C64.2694 26.0884 64.2079 26.4403 64.1387 26.8018C61.7598 39.0153 53.6214 43.2345 43.2271 43.2345H37.9349C36.6637 43.2345 35.5925 44.1576 35.3945 45.4115L32.6849 62.5961L31.9175 67.4672C31.7887 68.2903 32.4233 69.0326 33.2541 69.0326H42.6406C43.7521 69.0326 44.6964 68.2249 44.8714 67.1288L44.9637 66.6518L46.731 55.4365L46.8444 54.8211C47.0175 53.7211 47.9637 52.9134 49.0752 52.9134H50.479C59.5733 52.9134 66.6925 49.2211 68.7733 38.5365C69.6425 34.073 69.1925 30.3461 66.8925 27.7249C66.1964 26.9345 65.3329 26.2788 64.3233 25.7441Z" fill="#179BD7"/>
<path d="M61.8344 24.752C61.471 24.6463 61.096 24.5501 60.7113 24.4636C60.3248 24.379 59.9287 24.304 59.521 24.2386C58.094 24.0078 56.5306 23.8982 54.8556 23.8982H40.7171C40.369 23.8982 40.0383 23.977 39.7421 24.1193C39.0902 24.4328 38.6056 25.0501 38.4883 25.8059L35.4806 44.8558L35.394 45.4116C35.5921 44.1577 36.6633 43.2347 37.9344 43.2347H43.2267C53.621 43.2347 61.7594 39.0135 64.1383 26.802C64.2094 26.4405 64.269 26.0886 64.3229 25.7443C63.721 25.4251 63.069 25.152 62.3671 24.9193C62.194 24.8617 62.0152 24.8059 61.8344 24.752Z" fill="#222D65"/>
<path d="M38.4884 25.8058C38.6058 25.05 39.0904 24.4327 39.7423 24.1212C40.0404 23.9788 40.3692 23.9 40.7173 23.9H54.8558C56.5308 23.9 58.0942 24.0096 59.5212 24.2404C59.9288 24.3058 60.325 24.3808 60.7115 24.4654C61.0962 24.5519 61.4712 24.6481 61.8346 24.7538C62.0154 24.8077 62.1942 24.8635 62.3692 24.9192C63.0712 25.1519 63.7231 25.4269 64.325 25.7442C65.0327 21.2308 64.3192 18.1577 61.8788 15.375C59.1885 12.3115 54.3327 11 48.1192 11H30.0808C28.8115 11 27.7288 11.9231 27.5327 13.1788L20.0192 60.8038C19.8711 61.7462 20.5981 62.5962 21.5481 62.5962H32.6846L35.4808 44.8558L38.4884 25.8058Z" fill="#253B80"/>
</g>
<g clip-path="url(#clip1_401_1442)">
<path fill-rule="evenodd" clip-rule="evenodd" d="M175.407 39.7446C175.107 41.7123 173.605 41.7123 172.151 41.7123H171.324L171.904 38.0385C171.939 37.8166 172.131 37.653 172.356 37.653H172.735C173.724 37.653 174.659 37.653 175.141 38.2167C175.429 38.5539 175.516 39.0538 175.407 39.7446ZM174.774 34.6111H169.293C168.918 34.6111 168.599 34.8838 168.54 35.2541L166.324 49.31C166.28 49.5872 166.494 49.838 166.775 49.838H169.588C169.85 49.838 170.074 49.6471 170.114 49.3879L170.743 45.4032C170.801 45.0329 171.12 44.7601 171.495 44.7601H173.23C176.84 44.7601 178.924 43.0127 179.469 39.5495C179.714 38.0348 179.479 36.8447 178.77 36.0114C177.99 35.0954 176.609 34.6111 174.774 34.6111Z" fill="#2790C3"/>
<path fill-rule="evenodd" clip-rule="evenodd" d="M136.31 39.7446C136.01 41.7123 134.507 41.7123 133.054 41.7123H132.227L132.807 38.0385C132.842 37.8166 133.033 37.653 133.258 37.653H133.637C134.627 37.653 135.561 37.653 136.043 38.2167C136.332 38.5539 136.419 39.0538 136.31 39.7446ZM135.677 34.6111H130.195C129.821 34.6111 129.502 34.8838 129.443 35.2541L127.226 49.31C127.183 49.5872 127.397 49.838 127.678 49.838H130.295C130.67 49.838 130.989 49.5653 131.047 49.1952L131.646 45.4032C131.704 45.0329 132.023 44.7601 132.398 44.7601H134.132C137.743 44.7601 139.827 43.0127 140.372 39.5495C140.617 38.0348 140.382 36.8447 139.672 36.0114C138.892 35.0954 137.511 34.6111 135.677 34.6111Z" fill="#27346A"/>
<path fill-rule="evenodd" clip-rule="evenodd" d="M148.403 44.7908C148.15 46.2907 146.959 47.2976 145.44 47.2976C144.679 47.2976 144.07 47.0527 143.678 46.589C143.29 46.1293 143.144 45.4745 143.267 44.7452C143.503 43.2589 144.713 42.2195 146.208 42.2195C146.954 42.2195 147.559 42.4668 147.958 42.9347C148.361 43.406 148.518 44.0653 148.403 44.7908ZM152.061 39.6819H149.437C149.211 39.6819 149.02 39.8453 148.985 40.0677L148.87 40.8016L148.686 40.5356C148.118 39.7105 146.851 39.4348 145.586 39.4348C142.686 39.4348 140.209 41.6324 139.727 44.7147C139.476 46.2523 139.832 47.7216 140.704 48.7472C141.505 49.6895 142.648 50.0818 144.009 50.0818C146.347 50.0818 147.644 48.5802 147.644 48.5802L147.526 49.3097C147.483 49.587 147.697 49.8381 147.978 49.8381H150.342C150.716 49.8381 151.035 49.5656 151.094 49.1953L152.513 40.2099C152.557 39.9325 152.342 39.6819 152.061 39.6819Z" fill="#27346A"/>
<path fill-rule="evenodd" clip-rule="evenodd" d="M187.501 44.7908C187.247 46.2907 186.057 47.2976 184.538 47.2976C183.777 47.2976 183.167 47.0527 182.775 46.589C182.387 46.1293 182.241 45.4745 182.364 44.7452C182.601 43.2589 183.81 42.2195 185.306 42.2195C186.051 42.2195 186.656 42.4668 187.056 42.9347C187.458 43.406 187.616 44.0653 187.501 44.7908ZM191.159 39.6819H188.534C188.309 39.6819 188.118 39.8453 188.083 40.0677L187.967 40.8016L187.784 40.5356C187.215 39.7105 185.949 39.4348 184.683 39.4348C181.784 39.4348 179.306 41.6324 178.824 44.7147C178.573 46.2523 178.929 47.7216 179.801 48.7472C180.602 49.6895 181.745 50.0818 183.107 50.0818C185.444 50.0818 186.741 48.5802 186.741 48.5802L186.624 49.3097C186.58 49.587 186.794 49.8381 187.075 49.8381H189.439C189.814 49.8381 190.133 49.5656 190.191 49.1953L191.61 40.2099C191.654 39.9325 191.44 39.6819 191.159 39.6819Z" fill="#2790C3"/>
<mask id="mask0_401_1442" style="mask-type:alpha" maskUnits="userSpaceOnUse" x="98" y="29" width="100" height="25">
<path d="M98.0146 53.3901H197.693V29.2021H98.0146V53.3901Z" fill="white"/>
</mask>
<g mask="url(#mask0_401_1442)">
<path fill-rule="evenodd" clip-rule="evenodd" d="M166.041 39.6819H163.403C163.151 39.6819 162.915 39.807 162.773 40.0157L159.134 45.3759L157.591 40.2251C157.495 39.9029 157.198 39.6819 156.862 39.6819H154.268C153.955 39.6819 153.734 39.9899 153.835 40.2862L156.741 48.8134L154.008 52.6691C153.793 52.9716 154.01 53.3902 154.381 53.3902H157.017C157.267 53.3902 157.5 53.2677 157.643 53.0623L166.417 40.3993C166.627 40.0963 166.41 39.6819 166.041 39.6819Z" fill="#27346A"/>
<path fill-rule="evenodd" clip-rule="evenodd" d="M194.252 34.9971L192.002 49.31C191.959 49.5874 192.173 49.838 192.454 49.838H194.716C195.091 49.838 195.41 49.5653 195.469 49.1952L197.687 35.1393C197.731 34.8619 197.516 34.6111 197.236 34.6111H194.703C194.479 34.6111 194.287 34.7749 194.252 34.9971Z" fill="#2790C3"/>
<path fill-rule="evenodd" clip-rule="evenodd" d="M108.385 52.3936L109.122 47.7211L109.169 47.4621C109.205 47.237 109.32 47.031 109.494 46.8827C109.667 46.7344 109.889 46.6526 110.117 46.6526H110.702C111.678 46.6526 112.574 46.5484 113.366 46.3429C114.211 46.1239 114.962 45.7827 115.6 45.3296C116.275 44.8492 116.842 44.2281 117.286 43.4841C117.754 42.6991 118.098 41.7541 118.308 40.6755C118.493 39.723 118.528 38.8704 118.412 38.1409C118.288 37.3703 117.991 36.7127 117.529 36.186C117.249 35.8669 116.891 35.5905 116.464 35.3643L116.454 35.3589L116.454 35.3466C116.603 34.3959 116.597 33.6028 116.437 32.9201C116.276 32.236 115.949 31.6203 115.439 31.0384C114.381 29.8327 112.456 29.2212 109.719 29.2212H102.201C101.949 29.2212 101.705 29.3111 101.514 29.4745C101.323 29.6378 101.196 29.8647 101.157 30.113L98.0267 49.9635C97.9981 50.1446 98.0501 50.3286 98.1694 50.4675C98.2886 50.6073 98.4621 50.6873 98.6453 50.6873H103.309L103.305 50.7095L102.985 52.7405C102.96 52.8984 103.006 53.0586 103.109 53.1798C103.213 53.3013 103.364 53.3712 103.524 53.3712H107.435C107.655 53.3712 107.868 53.2926 108.034 53.15C108.201 53.0073 108.312 52.8095 108.346 52.5929L108.385 52.3936Z" fill="#27346A"/>
<path fill-rule="evenodd" clip-rule="evenodd" d="M105.705 35.3724C105.754 35.0578 105.956 34.8003 106.228 34.67C106.351 34.6109 106.489 34.5779 106.634 34.5779H112.527C113.225 34.5779 113.876 34.6237 114.471 34.7195C114.641 34.7469 114.807 34.7784 114.967 34.8141C115.128 34.8498 115.284 34.8895 115.435 34.9339C115.511 34.9558 115.585 34.979 115.658 35.0033C115.95 35.1004 116.222 35.2147 116.473 35.3472C116.768 33.4657 116.471 32.1854 115.453 31.0258C114.333 29.7491 112.308 29.2021 109.719 29.2021H102.201C101.672 29.2021 101.221 29.5872 101.138 30.11L98.008 49.9605C97.9462 50.3522 98.249 50.7062 98.6454 50.7062H103.286L105.705 35.3724Z" fill="#27346A"/>
<path fill-rule="evenodd" clip-rule="evenodd" d="M116.473 35.3472C116.45 35.4908 116.425 35.6369 116.396 35.7874C115.405 40.8776 112.013 42.6374 107.68 42.6374H105.474C104.945 42.6374 104.498 43.0227 104.416 43.5455L102.966 52.7377C102.912 53.0801 103.177 53.3901 103.524 53.3901H107.436C107.899 53.3901 108.293 53.0533 108.365 52.5957L108.403 52.3969L109.14 47.7239L109.188 47.4657C109.26 47.0082 109.654 46.6714 110.117 46.6714H110.702C114.492 46.6714 117.459 45.1316 118.327 40.6788C118.689 38.8182 118.502 37.2651 117.543 36.1732C117.254 35.8431 116.893 35.5699 116.473 35.3472Z" fill="#2790C3"/>
<path fill-rule="evenodd" clip-rule="evenodd" d="M115.435 34.9339C115.284 34.8895 115.128 34.8499 114.967 34.8141C114.807 34.7784 114.641 34.7469 114.471 34.7195C113.876 34.6237 113.225 34.5779 112.527 34.5779H106.634C106.489 34.5779 106.351 34.6109 106.228 34.67C105.956 34.8004 105.754 35.0578 105.705 35.3724L104.452 43.3138L104.416 43.5456C104.499 43.0228 104.945 42.6375 105.475 42.6375H107.681C112.013 42.6375 115.405 40.8777 116.396 35.7875C116.425 35.637 116.45 35.4909 116.473 35.3473C116.222 35.2147 115.95 35.1004 115.658 35.0033C115.585 34.9789 115.511 34.9558 115.435 34.9339Z" fill="#1F264F"/>
</g>
</g>
<defs>
<clipPath id="clip0_401_1442">
<rect width="50" height="59.6154" fill="white" transform="translate(20 11)"/>
</clipPath>
<clipPath id="clip1_401_1442">
<rect width="100" height="24.3902" fill="white" transform="translate(98 29)"/>
</clipPath>
</defs>
</svg>
