<svg width="250" height="82" viewBox="0 0 250 82" fill="none" xmlns="http://www.w3.org/2000/svg">
<g clip-path="url(#clip0_401_1240)">
<path d="M48.1842 16.2036C43.2799 15.5738 38.2989 16.4125 33.8711 18.6137C29.4434 20.8148 25.7679 24.2795 23.3093 28.5697C20.8508 32.8599 19.7196 37.7826 20.0589 42.7156C20.3983 47.6485 22.1928 52.3703 25.2157 56.2831C28.2385 60.1965 32.3538 63.1253 37.0413 64.6994C41.7286 66.2735 46.7775 66.4221 51.5494 65.1267C56.3215 63.8314 60.6023 61.15 63.8503 57.4218C67.0983 53.6933 69.1674 49.0858 69.7968 44.1811C70.6404 37.6051 68.8372 30.9634 64.7843 25.7167C60.7311 20.47 54.7602 17.0481 48.1842 16.2036Z" fill="#FF6C37"/>
<path d="M38.0742 42.5798C38.0839 42.5996 38.1003 42.6154 38.1203 42.6244C38.1403 42.6337 38.1629 42.6355 38.1842 42.6298L42.1842 41.7673L40.5017 40.0623L38.1042 42.4598C38.0853 42.4726 38.0718 42.4918 38.0662 42.514C38.0607 42.5362 38.0636 42.5596 38.0742 42.5798Z" fill="white"/>
<path d="M56.8044 25.405C56.2468 25.4056 55.6968 25.5312 55.1942 25.7725C54.6916 26.0139 54.2497 26.3649 53.9009 26.7997C53.552 27.2344 53.3052 27.7419 53.1785 28.2848C53.0515 28.8276 53.048 29.3919 53.1683 29.9363C53.2887 30.4806 53.5294 30.991 53.8727 31.43C54.2163 31.8689 54.6541 32.2252 55.1535 32.4727C55.6532 32.7202 56.2018 32.8524 56.7593 32.8597C57.3166 32.8671 57.8683 32.7493 58.3744 32.515L55.8392 29.98C55.8102 29.951 55.7872 29.9165 55.7715 29.8786C55.7555 29.8406 55.7474 29.7999 55.7474 29.7588C55.7474 29.7177 55.7555 29.677 55.7715 29.639C55.7872 29.6011 55.8102 29.5666 55.8392 29.5375L59.1518 26.2275C58.4866 25.6927 57.6579 25.4023 56.8044 25.405Z" fill="white"/>
<path d="M59.6069 26.6575L56.502 29.75L58.9368 32.185C59.1162 32.059 59.2836 31.9167 59.4368 31.76C60.1043 31.0881 60.4927 30.1886 60.5243 29.2421C60.5557 28.2956 60.2281 27.3723 59.6069 26.6575Z" fill="white"/>
<path d="M53.3939 32.365H53.339C53.2744 32.3644 53.2099 32.3703 53.1465 32.3825H53.1241C53.0544 32.3975 52.9861 32.4175 52.9189 32.4425L52.8666 32.4675C52.8163 32.4885 52.7678 32.5135 52.7215 32.5425L52.6666 32.5775C52.6061 32.6193 52.5491 32.6661 52.4965 32.7175L43.2891 41.9274L44.4291 43.0674L54.1791 34.51C54.2343 34.4616 54.2843 34.408 54.3291 34.35L54.3715 34.295C54.405 34.2461 54.4349 34.1952 54.4616 34.1425C54.4765 34.1125 54.489 34.0825 54.5015 34.0525C54.5183 34.0125 54.5326 33.9716 54.5439 33.93C54.5439 33.9 54.5616 33.87 54.5689 33.84C54.5814 33.778 54.5898 33.7155 54.5939 33.6525V33.57C54.5939 33.525 54.5939 33.48 54.5939 33.435C54.5939 33.39 54.5939 33.375 54.5814 33.345C54.5352 33.1091 54.4201 32.892 54.2506 32.7216C54.0811 32.5513 53.8648 32.4349 53.6291 32.3875H53.5814C53.5198 32.3755 53.457 32.368 53.3939 32.365Z" fill="white"/>
<path d="M40.9316 39.6199L42.8216 41.4999L52.0541 32.2674C52.3547 31.9736 52.7463 31.7911 53.164 31.7499C51.5318 30.4999 49.7515 30.8274 40.9316 39.6199Z" fill="white"/>
<path d="M54.6994 34.8701L54.5869 34.9801L44.8369 43.5351L46.4944 45.1901C50.6043 41.3026 54.252 37.6001 54.6994 34.8701Z" fill="white"/>
<path d="M30.3795 54.9124C30.3845 54.9302 30.3949 54.9459 30.4092 54.9575C30.4235 54.9691 30.4411 54.9761 30.4595 54.9773L34.7094 55.2697L32.327 52.8875L30.3995 54.8125C30.387 54.8255 30.3784 54.8418 30.3749 54.8593C30.3713 54.8773 30.3729 54.8956 30.3795 54.9124Z" fill="white"/>
<path d="M32.7715 52.4451L35.284 54.9576C35.3138 54.9893 35.3537 55.0099 35.3969 55.016C35.4402 55.0218 35.4842 55.0125 35.5215 54.9898C35.5604 54.9707 35.5915 54.9384 35.6092 54.8989C35.6271 54.859 35.6305 54.8143 35.619 54.7724L35.1965 52.9675C35.1691 52.8503 35.1815 52.7276 35.2318 52.6186C35.2821 52.5096 35.3673 52.4204 35.474 52.3648C39.879 50.1576 43.4315 47.8849 46.039 45.6148L44.289 43.865L40.539 44.6725L32.7715 52.4451Z" fill="white"/>
<path d="M43.7521 43.335L42.8121 42.395L41.5121 43.6925C41.5027 43.7038 41.4976 43.718 41.4976 43.7325C41.4976 43.7472 41.5027 43.7613 41.5121 43.7725C41.518 43.7858 41.5288 43.7966 41.5421 43.8025C41.5555 43.8085 41.5705 43.8094 41.5846 43.805L43.7521 43.335Z" fill="white"/>
<path d="M59.694 28.6726C59.6812 28.6332 59.66 28.5971 59.6321 28.5666C59.6042 28.536 59.5702 28.5119 59.5321 28.4957C59.494 28.4794 59.453 28.4715 59.4115 28.4725C59.3702 28.4735 59.3295 28.4833 59.2923 28.5013C59.2551 28.5193 59.2219 28.5451 59.1955 28.5769C59.169 28.6087 59.1495 28.6458 59.1388 28.6857C59.1277 28.7256 59.1254 28.7674 59.1321 28.8082C59.1385 28.8491 59.1536 28.8881 59.1766 28.9226C59.2513 29.0729 59.2809 29.2417 59.2618 29.4084C59.2429 29.5753 59.1757 29.733 59.069 29.8626C59.0341 29.9049 59.0118 29.9564 59.0048 30.0109C58.9978 30.0654 59.0065 30.1208 59.0298 30.1706C59.053 30.2204 59.0902 30.2625 59.1365 30.2921C59.1827 30.3216 59.2368 30.3374 59.2914 30.3376C59.3341 30.3371 59.376 30.3275 59.4144 30.3094C59.4527 30.2912 59.4868 30.265 59.5141 30.2326C59.6911 30.0174 59.8022 29.7558 59.8341 29.4791C59.8658 29.2024 59.8173 28.9223 59.694 28.6726Z" fill="#FF6C37"/>
</g>
<g clip-path="url(#clip1_401_1240)">
<path d="M130.303 45.6363V36.8636C130.303 36.7576 130.349 36.6667 130.424 36.5909C130.515 36.5151 130.621 36.4697 130.743 36.4848H133.212C133.94 36.4545 134.667 36.697 135.227 37.1667C135.727 37.6212 135.985 38.3333 135.985 39.303V39.4242C135.985 40.3939 135.727 41.1212 135.212 41.5757C134.637 42.0454 133.909 42.303 133.167 42.2575H131.409V45.6363C131.409 45.7575 131.349 45.8636 131.243 45.9242C131 46.0606 130.712 46.0606 130.47 45.9242C130.364 45.8636 130.303 45.7575 130.303 45.6363ZM131.394 41.3485H133.167C133.637 41.3788 134.106 41.2121 134.44 40.8788C134.773 40.5 134.94 40 134.894 39.4848V39.3333C134.94 38.8333 134.773 38.3333 134.44 37.9394C134.091 37.6212 133.637 37.4545 133.167 37.4848H131.409L131.394 41.3485Z" fill="#FF6C37"/>
<path d="M139.803 43.2576V39.3333C139.803 38.3485 140.061 37.6364 140.561 37.1818C141.773 36.2727 143.44 36.2727 144.652 37.1818C145.167 37.6364 145.424 38.3636 145.424 39.3333V43.2576C145.424 44.2424 145.167 44.9545 144.652 45.4091C143.44 46.3333 141.773 46.3333 140.561 45.4091C140.061 44.9545 139.803 44.2424 139.803 43.2576ZM140.909 43.2576C140.909 44.4848 141.47 45.1061 142.621 45.1061C143.091 45.1364 143.546 44.9697 143.894 44.6515C144.227 44.2727 144.379 43.7727 144.349 43.2576V39.3182C144.394 38.8182 144.227 38.3182 143.894 37.9242C143.546 37.6061 143.091 37.4394 142.621 37.4697C141.485 37.4697 140.924 38.0758 140.924 39.3182L140.909 43.2576Z" fill="#FF6C37"/>
<path d="M149.303 44.6819C149.303 44.5303 149.364 44.394 149.455 44.2728C149.53 44.1667 149.637 44.091 149.773 44.0758C149.894 44.091 150 44.1516 150.076 44.2425C150.197 44.3485 150.318 44.4697 150.455 44.6061C150.637 44.7728 150.849 44.894 151.076 44.9697C151.379 45.091 151.712 45.1364 152.03 45.1364C152.515 45.1667 152.985 45.0152 153.364 44.7273C153.697 44.4243 153.879 43.9697 153.849 43.5152C153.864 43.0758 153.712 42.6667 153.409 42.3485C153.106 42.0455 152.743 41.8182 152.334 41.6667C151.909 41.5152 151.5 41.3485 151.061 41.1667C150.637 40.9849 150.273 40.7122 149.985 40.3485C149.682 39.9394 149.515 39.4394 149.546 38.9243C149.53 38.5152 149.621 38.1061 149.803 37.7273C149.955 37.4091 150.197 37.1515 150.5 36.9697C150.788 36.8031 151.091 36.6818 151.409 36.5909C151.743 36.5152 152.076 36.4697 152.409 36.4697C152.94 36.4697 153.455 36.5455 153.955 36.697C154.44 36.8637 154.697 37.0758 154.697 37.3334C154.697 37.4697 154.652 37.6061 154.561 37.7273C154.5 37.8485 154.364 37.9394 154.227 37.9394C154.03 37.8788 153.834 37.8031 153.637 37.7122C153.258 37.5455 152.849 37.4546 152.424 37.4697C151.985 37.4546 151.53 37.5606 151.152 37.7879C150.818 38.0152 150.637 38.4091 150.667 38.8182C150.652 39.197 150.803 39.5606 151.091 39.8031C151.409 40.0606 151.773 40.2728 152.167 40.394C152.591 40.5455 153.015 40.7121 153.44 40.9091C153.864 41.1212 154.227 41.4394 154.5 41.8334C154.803 42.3182 154.955 42.8788 154.94 43.4546C154.94 44.3485 154.682 45.0303 154.152 45.4849C153.576 45.9697 152.834 46.2122 152.076 46.1667C151.394 46.1819 150.712 46.0152 150.121 45.6819C149.576 45.3182 149.303 45 149.303 44.6819Z" fill="#FF6C37"/>
<path d="M158.197 36.9697C158.197 36.8485 158.227 36.7273 158.303 36.6364C158.363 36.5303 158.47 36.4849 158.591 36.4849H163.894C164.015 36.4849 164.121 36.5303 164.182 36.6364C164.257 36.7273 164.288 36.8485 164.288 36.9697C164.288 37.0909 164.257 37.2273 164.182 37.3333C164.121 37.4394 164.015 37.4849 163.894 37.4849H161.818V45.6364C161.818 45.7576 161.757 45.8637 161.651 45.9243C161.409 46.0606 161.121 46.0606 160.879 45.9243C160.773 45.8637 160.712 45.7576 160.712 45.6364V37.4849H158.606C158.485 37.4849 158.379 37.4394 158.318 37.3333C158.242 37.2273 158.197 37.1061 158.197 36.9697Z" fill="#FF6C37"/>
<path d="M168.015 45.6363V37.0453C167.97 36.7878 168.152 36.5453 168.409 36.4999C168.47 36.4847 168.53 36.4847 168.576 36.4999C168.924 36.4999 169.212 36.7272 169.455 37.1969L171.5 41.1211L173.561 37.1969C173.818 36.7423 174.106 36.4999 174.44 36.4999C174.697 36.4544 174.94 36.6363 174.985 36.8938C175 36.9393 175 36.9847 174.985 37.0302V45.6211C174.985 45.7423 174.924 45.8484 174.818 45.909C174.576 46.0454 174.288 46.0454 174.046 45.909C173.94 45.8484 173.879 45.7423 173.879 45.6211V38.7878L171.909 42.4848C171.849 42.6666 171.682 42.8029 171.485 42.8029C171.303 42.7878 171.136 42.6666 171.076 42.4848L169.106 38.712V45.6211C169.106 45.7423 169.046 45.8484 168.94 45.909C168.833 45.9848 168.697 46.0302 168.576 46.0302C168.44 46.0302 168.303 45.9999 168.197 45.9241C168.076 45.8787 168 45.7575 168.015 45.6363Z" fill="#FF6C37"/>
<path d="M178.727 45.5758C178.727 45.5455 178.742 45.5 178.757 45.4697L181.424 36.8788C181.5 36.6212 181.727 36.5 182.091 36.5C182.454 36.5 182.682 36.6212 182.757 36.8788L185.439 45.5152V45.5606V45.5909C185.439 45.7273 185.348 45.8485 185.227 45.9091C185.091 46 184.924 46.0455 184.742 46.0303C184.576 46.0455 184.409 45.9545 184.348 45.7879L183.773 43.8788H180.348L179.773 45.7879C179.727 45.9545 179.545 46.0606 179.379 46.0455C179.227 46.0455 179.076 46 178.939 45.9091C178.803 45.8485 178.727 45.7273 178.727 45.5758ZM180.621 42.9697H183.545L182.091 38.0909L180.621 42.9697Z" fill="#FF6C37"/>
<path d="M189.212 45.6364V36.8637C189.212 36.6061 189.394 36.4849 189.757 36.4849C189.924 36.4849 190.091 36.5455 190.227 36.6515C190.379 36.803 190.515 36.9849 190.591 37.1818L193.848 43.5455V36.8637C193.848 36.7424 193.909 36.6364 194.015 36.5909C194.257 36.4546 194.545 36.4546 194.788 36.5909C194.894 36.6515 194.954 36.7576 194.954 36.8637V45.6364C194.954 45.7576 194.894 45.8637 194.788 45.9243C194.666 46 194.545 46.0303 194.409 46.0303C194.106 46.0152 193.833 45.8182 193.727 45.5303L190.303 38.9697V45.6364C190.303 45.7576 190.242 45.8637 190.151 45.9243C189.909 46.0606 189.621 46.0606 189.379 45.9243C189.273 45.8637 189.212 45.7576 189.212 45.6364Z" fill="#FF6C37"/>
<path d="M125.258 43.2272C126.318 34.9241 120.455 27.3332 112.167 26.2726C103.879 25.212 96.2578 31.0757 95.1972 39.3635C94.1366 47.6514 100 55.2575 108.288 56.3332C116.591 57.3938 124.182 51.5302 125.258 43.2272Z" fill="#FF6C37"/>
<path d="M115.697 35.8789L109.303 42.2728L107.5 40.4698C113.788 34.1819 114.409 34.7274 115.697 35.8789Z" fill="white"/>
<path d="M109.303 42.4242C109.258 42.4242 109.227 42.409 109.197 42.3787L107.379 40.5757C107.318 40.5151 107.318 40.4242 107.379 40.3636C113.773 33.9696 114.44 34.5757 115.788 35.7878C115.818 35.8181 115.834 35.8484 115.834 35.8939C115.834 35.9393 115.818 35.9696 115.788 35.9999L109.394 42.3787C109.379 42.409 109.333 42.4242 109.303 42.4242ZM107.712 40.4696L109.303 42.0606L115.47 35.8939C114.349 34.8939 113.591 34.5909 107.712 40.4696Z" fill="#FF6C37"/>
<path d="M111.136 44.1061L109.394 42.3637L115.788 35.9697C117.5 37.697 114.939 40.5 111.136 44.1061Z" fill="white"/>
<path d="M111.137 44.2575C111.091 44.2575 111.061 44.2424 111.031 44.2121L109.288 42.4696C109.258 42.4393 109.258 42.409 109.258 42.3636C109.258 42.3181 109.273 42.2878 109.303 42.2575L115.697 35.8636C115.758 35.803 115.849 35.803 115.909 35.8636C116.303 36.2272 116.515 36.7424 116.5 37.2727C116.47 38.9545 114.561 41.0908 111.258 44.2121C111.212 44.2424 111.167 44.2575 111.137 44.2575ZM109.606 42.3636C110.576 43.3484 110.985 43.7424 111.137 43.8939C113.682 41.4696 116.152 38.9848 116.167 37.2727C116.182 36.8787 116.031 36.4848 115.773 36.1818L109.606 42.3636Z" fill="#FF6C37"/>
<path d="M107.531 40.5151L108.818 41.8029C108.849 41.8333 108.849 41.8636 108.818 41.8939C108.803 41.909 108.803 41.909 108.788 41.909L106.121 42.4848C105.985 42.4999 105.864 42.409 105.834 42.2726C105.818 42.1969 105.849 42.1211 105.894 42.0757L107.44 40.5302C107.47 40.4999 107.515 40.4847 107.531 40.5151Z" fill="white"/>
<path d="M106.076 42.6364C105.848 42.6364 105.682 42.4546 105.682 42.2273C105.682 42.1212 105.727 42.0152 105.803 41.9394L107.348 40.394C107.439 40.3182 107.56 40.3182 107.651 40.394L108.939 41.6819C109.03 41.7576 109.03 41.894 108.939 41.9849C108.909 42.0152 108.879 42.0303 108.833 42.0455L106.166 42.6212C106.136 42.6212 106.106 42.6364 106.076 42.6364ZM107.485 40.6819L106 42.1667C105.97 42.197 105.954 42.2425 105.985 42.2879C106 42.3334 106.045 42.3485 106.091 42.3334L108.591 41.7879L107.485 40.6819Z" fill="#FF6C37"/>
<path d="M119.076 32.3334C118.106 31.394 116.546 31.4243 115.606 32.4092C114.667 33.394 114.697 34.9395 115.682 35.8789C116.485 36.6516 117.697 36.788 118.652 36.2122L116.924 34.4849L119.076 32.3334Z" fill="white"/>
<path d="M117.379 36.7121C115.94 36.7121 114.773 35.5455 114.773 34.1061C114.773 32.6667 115.94 31.5 117.379 31.5C118.046 31.5 118.697 31.7576 119.182 32.2273C119.212 32.2576 119.227 32.2879 119.227 32.3333C119.227 32.3788 119.212 32.4091 119.182 32.4394L117.137 34.4848L118.743 36.0909C118.803 36.1515 118.803 36.2424 118.743 36.303C118.727 36.3182 118.727 36.3182 118.712 36.3333C118.318 36.5758 117.849 36.7121 117.379 36.7121ZM117.379 31.8182C116.106 31.8182 115.076 32.8485 115.091 34.1212C115.091 35.3939 116.121 36.4242 117.394 36.4091C117.743 36.4091 118.091 36.3333 118.409 36.1667L116.818 34.5909C116.788 34.5606 116.773 34.5303 116.773 34.4848C116.773 34.4394 116.788 34.4091 116.818 34.3788L118.849 32.3485C118.44 32 117.924 31.8182 117.379 31.8182Z" fill="#FF6C37"/>
<path d="M119.121 32.3787L119.091 32.3484L116.924 34.4848L118.636 36.1969C118.803 36.0908 118.97 35.9696 119.106 35.8332C120.076 34.8787 120.076 33.3332 119.121 32.3787Z" fill="white"/>
<path d="M118.652 36.3637C118.606 36.3637 118.576 36.3486 118.546 36.3182L116.818 34.591C116.788 34.5607 116.773 34.5304 116.773 34.4849C116.773 34.4395 116.788 34.4092 116.818 34.3789L118.97 32.2273C119.031 32.1667 119.121 32.1667 119.182 32.2273L119.227 32.2577C120.243 33.2728 120.243 34.9092 119.243 35.9395C119.091 36.091 118.924 36.2273 118.743 36.3334C118.697 36.3486 118.667 36.3637 118.652 36.3637ZM117.137 34.4849L118.667 36.0152C118.788 35.9395 118.909 35.8334 119 35.7425C119.864 34.8789 119.909 33.4698 119.076 32.5607L117.137 34.4849Z" fill="#FF6C37"/>
<path d="M115.955 36.1516C115.591 35.788 115 35.788 114.636 36.1516L108.924 41.8638L109.879 42.8183L115.924 37.5153C116.318 37.1819 116.349 36.591 116.015 36.1971C115.985 36.1819 115.97 36.1668 115.955 36.1516Z" fill="white"/>
<path d="M109.864 42.9697C109.818 42.9697 109.788 42.9546 109.758 42.9243L108.803 41.9697C108.743 41.9091 108.743 41.8182 108.803 41.7576L114.515 36.0455C114.94 35.6212 115.621 35.6212 116.046 36.0455C116.47 36.4697 116.47 37.1515 116.046 37.5758C116.031 37.5909 116.015 37.6061 116 37.6212L109.955 42.9243C109.94 42.9546 109.909 42.9697 109.864 42.9697ZM109.137 41.8637L109.879 42.6061L115.818 37.3939C116.152 37.1212 116.182 36.6212 115.909 36.2879C115.637 35.9546 115.137 35.9243 114.803 36.197C114.788 36.2121 114.773 36.2273 114.743 36.2424L109.137 41.8637Z" fill="#FF6C37"/>
<path d="M104.545 48.3636C104.485 48.3939 104.455 48.4545 104.47 48.5151L104.727 49.606C104.788 49.7575 104.697 49.9393 104.53 49.9848C104.409 50.0303 104.273 49.9848 104.197 49.8939L102.53 48.2424L107.97 42.803L109.848 42.8333L111.121 44.106C110.818 44.3636 108.985 46.1363 104.545 48.3636Z" fill="white"/>
<path d="M104.424 50.1365C104.303 50.1365 104.182 50.091 104.106 50.0001L102.455 48.3486C102.424 48.3183 102.409 48.288 102.409 48.2425C102.409 48.1971 102.424 48.1668 102.455 48.1365L107.894 42.6971C107.924 42.6668 107.97 42.6516 108 42.6516L109.879 42.6819C109.924 42.6819 109.955 42.6971 109.985 42.7274L111.258 44.0001C111.288 44.0304 111.303 44.0759 111.303 44.1213C111.303 44.1668 111.288 44.1971 111.243 44.2274L111.136 44.3183C109.53 45.7274 107.349 47.1365 104.636 48.4849L104.894 49.5607C104.939 49.7577 104.849 49.9698 104.667 50.0759C104.576 50.1213 104.5 50.1365 104.424 50.1365ZM102.758 48.2425L104.318 49.788C104.364 49.8637 104.455 49.894 104.53 49.8486C104.606 49.8031 104.636 49.7122 104.591 49.6365L104.333 48.5456C104.303 48.4092 104.364 48.288 104.485 48.2274C107.167 46.8789 109.333 45.4849 110.924 44.1062L109.803 42.9849L108.061 42.9546L102.758 48.2425Z" fill="#FF6C37"/>
<path d="M101.242 49.5455L102.545 48.2424L104.485 50.1818L101.394 49.9697C101.258 49.9546 101.167 49.8333 101.182 49.697C101.182 49.6364 101.197 49.5758 101.242 49.5455Z" fill="white"/>
<path d="M104.485 50.3181L101.379 50.106C101.152 50.0908 101 49.8939 101.015 49.6666C101.03 49.5757 101.061 49.4848 101.136 49.4242L102.439 48.1211C102.5 48.0605 102.591 48.0605 102.652 48.1211L104.591 50.0605C104.636 50.106 104.652 50.1666 104.621 50.2272C104.591 50.2878 104.546 50.3181 104.485 50.3181ZM102.546 48.4545L101.349 49.6514C101.303 49.6817 101.303 49.7575 101.349 49.7878C101.364 49.803 101.379 49.8181 101.409 49.8181L104.091 49.9999L102.546 48.4545Z" fill="#FF6C37"/>
<path d="M107.44 43.5C107.349 43.5 107.288 43.4243 107.288 43.3485C107.288 43.3031 107.303 43.2728 107.334 43.2424L108.803 41.7727C108.864 41.7121 108.955 41.7121 109.015 41.7727L109.97 42.7273C110.015 42.7727 110.031 42.8182 110.015 42.8788C110 42.9243 109.955 42.9697 109.894 42.9849L107.47 43.5C107.455 43.5 107.44 43.5 107.44 43.5ZM108.909 42.0909L107.909 43.0909L109.546 42.7424L108.909 42.0909Z" fill="#FF6C37"/>
<path d="M109.849 42.8334L108.182 43.1971C108.061 43.2274 107.94 43.1516 107.909 43.0304C107.894 42.9546 107.909 42.8789 107.97 42.8183L108.894 41.894L109.849 42.8334Z" fill="white"/>
<path d="M108.152 43.3485C107.94 43.3485 107.773 43.1818 107.773 42.9697C107.773 42.8637 107.818 42.7727 107.879 42.697L108.803 41.7727C108.864 41.7121 108.955 41.7121 109.015 41.7727L109.97 42.7273C110.015 42.7728 110.031 42.8182 110.015 42.8788C110 42.9243 109.955 42.9697 109.894 42.9849L108.227 43.3485C108.197 43.3485 108.167 43.3485 108.152 43.3485ZM108.909 42.0909L108.091 42.9091C108.061 42.9394 108.061 42.9697 108.076 43C108.091 43.0303 108.121 43.0455 108.167 43.0455L109.561 42.7424L108.909 42.0909Z" fill="#FF6C37"/>
<path d="M119.136 33.8334C119.106 33.7425 119 33.6971 118.909 33.7274C118.818 33.7577 118.772 33.8637 118.803 33.9546C118.803 33.9698 118.818 33.9849 118.818 34.0001C118.909 34.1819 118.879 34.4092 118.757 34.5759C118.697 34.6516 118.712 34.7577 118.772 34.8183C118.848 34.8789 118.954 34.8637 119.015 34.788C119.242 34.5001 119.288 34.1365 119.136 33.8334Z" fill="#FF6C37"/>
</g>
<defs>
<clipPath id="clip0_401_1240">
<rect width="50" height="50" fill="white" transform="translate(20 16)"/>
</clipPath>
<clipPath id="clip1_401_1240">
<rect width="100" height="30.6061" fill="white" transform="translate(95 26)"/>
</clipPath>
</defs>
</svg>
