<svg width="250" height="82" viewBox="0 0 250 82" fill="none" xmlns="http://www.w3.org/2000/svg">
<g clip-path="url(#clip0_401_1412)">
<path d="M20 41.0004C20 51.2375 26.1559 60.032 34.9646 63.8986C34.8943 62.1529 34.9521 60.0572 35.3998 58.1578C35.8805 56.1283 38.6166 44.5352 38.6166 44.5352C38.6166 44.5352 37.818 42.9389 37.818 40.5797C37.818 36.8748 39.9652 34.1078 42.6395 34.1078C44.9135 34.1078 46.0121 35.8158 46.0121 37.8611C46.0121 40.1471 44.5541 43.5664 43.8043 46.7334C43.1779 49.3853 45.134 51.5484 47.7502 51.5484C52.4869 51.5484 55.6772 45.4646 55.6772 38.2564C55.6772 32.7771 51.9867 28.676 45.2744 28.676C37.6908 28.676 32.9664 34.3314 32.9664 40.6486C32.9664 42.8268 33.6086 44.3627 34.6145 45.5522C35.077 46.0984 35.1412 46.3182 34.9738 46.9455C34.8539 47.4055 34.5785 48.5129 34.4645 48.9518C34.298 49.585 33.785 49.8113 33.2127 49.5775C29.7197 48.1516 28.093 44.3264 28.093 40.0264C28.093 32.9246 34.0824 24.409 45.9605 24.409C55.5055 24.409 61.7877 31.316 61.7877 38.7303C61.7877 48.5375 56.3354 55.8643 48.2982 55.8643C45.5992 55.8643 43.0604 54.4053 42.1906 52.748C42.1906 52.748 40.7393 58.5082 40.4318 59.6205C39.9018 61.548 38.8643 63.4746 37.9156 64.9762C40.1641 65.6398 42.5393 66.0014 45.001 66.0014C58.8064 66.0014 70.0002 54.8082 70.0002 41.0004C70.0002 27.1932 58.8064 16 45.001 16C31.1941 16 20 27.1932 20 41.0004Z" fill="#CB1F27"/>
</g>
<g clip-path="url(#clip1_401_1412)">
<path d="M133.386 37.8069H136.544V47.726H133.386V37.8069Z" fill="#E60023"/>
<path d="M137.203 37.8069H140.245V39.163H140.303C141.039 38.0974 141.988 37.5164 143.364 37.5164C145.534 37.5164 146.812 39.0662 146.812 41.2748V47.7261H143.654V41.9141C143.654 40.8679 143.131 40.151 142.105 40.151C141.058 40.151 140.361 41.0229 140.361 42.2434V47.7261H137.203V37.8069Z" fill="#E60023"/>
<path d="M136.859 35.1533C136.859 34.1071 136.011 33.259 134.965 33.259C133.918 33.259 133.07 34.1071 133.07 35.1533C133.07 36.1994 133.918 37.0475 134.965 37.0475C136.011 37.0475 136.859 36.1994 136.859 35.1533Z" fill="#E60023"/>
<path d="M169.022 37.6638C168.932 37.6557 168.829 37.6521 168.708 37.6521C167.507 37.6521 166.693 38.1752 165.995 39.3569H165.937V37.8071H162.915V47.7261H166.073V43.2703C166.073 41.2057 167.216 40.2491 169.022 40.416V37.6638Z" fill="#E60023"/>
<path d="M184.519 41.4684C183.26 41.2361 182.136 41.1392 182.136 40.4418C182.136 39.8218 182.737 39.5312 183.511 39.5312C184.383 39.5312 184.984 39.8024 185.1 40.6936H188.006C187.852 38.7369 186.34 37.5164 183.531 37.5164C181.187 37.5164 179.25 38.6013 179.25 40.6936C179.25 43.0183 181.09 43.4833 182.814 43.774C184.131 44.0065 185.332 44.1033 185.332 44.9945C185.332 45.6338 184.732 45.9825 183.783 45.9825C182.83 45.9825 182.2 45.5796 182.007 44.762H178.999C179.22 46.8011 181.009 48.0361 183.802 48.0361C186.398 48.0361 188.316 46.9124 188.316 44.7427C188.316 42.2047 186.263 41.7591 184.519 41.4684Z" fill="#E60023"/>
<path d="M173.921 39.7637C174.948 39.7637 175.684 40.5192 175.8 41.7011H171.887C172.1 40.5192 172.719 39.7637 173.921 39.7637ZM174.096 45.75C172.797 45.75 172.061 44.917 171.867 43.5802H178.997C179.016 41.5655 178.435 39.8411 177.254 38.7563C176.4 37.9814 175.277 37.5164 173.863 37.5164C170.841 37.5164 168.768 39.783 168.768 42.7472C168.768 45.75 170.782 48.0167 174.056 48.0167C175.316 48.0167 176.323 47.6874 177.157 47.1062C178.028 46.5056 178.609 45.6532 178.823 44.7621H175.742C175.471 45.382 174.928 45.75 174.096 45.75Z" fill="#E60023"/>
<path d="M193.878 45.3871C193.732 45.3929 193.535 45.4014 193.354 45.4014C192.677 45.4014 192.25 45.2076 192.25 44.4327V39.783H193.878V37.8069H192.25V34.6685H189.17V37.8069H188.201V39.783H189.17V45.1107C189.17 47.2419 190.487 47.8424 192.328 47.8424C193.03 47.8424 193.561 47.7897 193.878 47.7279V45.3871Z" fill="#E60023"/>
<path d="M152.452 45.3916C152.326 45.3965 152.18 45.4014 152.044 45.4014C151.366 45.4014 150.94 45.2076 150.94 44.4327V39.783H152.452V37.8069H150.94V34.6685H147.86V37.8069H146.833V39.783H147.86V45.1107C147.86 47.2419 149.177 47.8424 151.018 47.8424C151.64 47.8424 152.128 47.8009 152.452 47.7484V45.3916Z" fill="#E60023"/>
<path d="M159.33 41.701C159.214 40.5192 158.477 39.7635 157.451 39.7635C156.25 39.7635 155.63 40.5192 155.416 41.701H159.33ZM152.297 42.7471C152.297 39.783 154.37 37.5164 157.393 37.5164C158.807 37.5164 159.931 37.9813 160.783 38.7562C161.965 39.8411 162.546 41.5653 162.526 43.5802H155.397C155.591 44.9169 156.327 45.75 157.625 45.75C158.458 45.75 159.001 45.3819 159.272 44.7619H162.352C162.139 45.6531 161.558 46.5055 160.686 47.1062C159.853 47.6873 158.846 48.0167 157.586 48.0167C154.312 48.0167 152.297 45.75 152.297 42.7471Z" fill="#E60023"/>
<path d="M127.902 40.3838C129.142 40.3838 129.839 39.6476 129.839 38.5432C129.839 37.439 129.122 36.7609 127.902 36.7609H125.48V40.3838H127.902ZM122.283 33.8743H127.767C129.452 33.8743 130.692 34.3392 131.544 35.1529C132.435 35.9859 132.939 37.1677 132.939 38.5626C132.939 41.2167 131.099 43.096 128.251 43.096H125.48V47.7262H122.283V33.8743Z" fill="#E60023"/>
<path d="M117.948 41.2165C117.948 47.8012 112.61 53.1391 106.025 53.1391C99.4405 53.1391 94.1025 47.8012 94.1025 41.2165C94.1025 34.6318 99.4405 29.2939 106.025 29.2939C112.61 29.2939 117.948 34.6318 117.948 41.2165Z" fill="white"/>
<path d="M106.025 29.2939C99.4405 29.2939 94.1025 34.6319 94.1025 41.2165C94.1025 46.2675 97.2451 50.5855 101.68 52.3226C101.576 51.3793 101.482 49.9286 101.722 48.8988C101.938 47.9683 103.12 42.9725 103.12 42.9725C103.12 42.9725 102.763 42.2583 102.763 41.2024C102.763 39.5445 103.724 38.3069 104.92 38.3069C105.938 38.3069 106.429 39.0705 106.429 39.9863C106.429 41.0093 105.778 42.5387 105.441 43.956C105.161 45.1427 106.037 46.1104 107.207 46.1104C109.326 46.1104 110.955 43.876 110.955 40.6508C110.955 37.7961 108.904 35.8002 105.975 35.8002C102.582 35.8002 100.591 38.3447 100.591 40.9743C100.591 41.999 100.986 43.0978 101.479 43.6951C101.576 43.8132 101.59 43.9166 101.561 44.0371C101.471 44.4137 101.27 45.2235 101.23 45.3893C101.178 45.6075 101.057 45.6538 100.831 45.5486C99.3423 44.8555 98.4113 42.6784 98.4113 40.9298C98.4113 37.1689 101.144 33.7149 106.289 33.7149C110.425 33.7149 113.639 36.6621 113.639 40.6008C113.639 44.7098 111.048 48.0167 107.452 48.0167C106.244 48.0167 105.108 47.389 104.72 46.6477C104.72 46.6477 104.122 48.9241 103.977 49.4819C103.708 50.5175 102.981 51.8155 102.495 52.6075C103.611 52.9528 104.796 53.1391 106.025 53.1391C112.61 53.1391 117.948 47.8011 117.948 41.2165C117.948 34.6319 112.61 29.2939 106.025 29.2939Z" fill="#E60023"/>
</g>
<defs>
<clipPath id="clip0_401_1412">
<rect width="50" height="50" fill="white" transform="translate(20 16)"/>
</clipPath>
<clipPath id="clip1_401_1412">
<rect width="100" height="24.4722" fill="white" transform="translate(94 29)"/>
</clipPath>
</defs>
</svg>
