<svg width="250" height="82" viewBox="0 0 250 82" fill="none" xmlns="http://www.w3.org/2000/svg">
<g clip-path="url(#clip0_401_270)">
<path d="M58.0811 43.9995C56.6686 43.9209 55.2954 43.5043 54.0773 42.7847C52.8592 42.0651 51.8317 41.0636 51.0811 39.8644C51.9865 32.6482 54.6217 30.4049 58.1082 30.4049C61.5946 30.4049 64.2433 33.1076 64.2433 37.1617C64.2433 41.2158 61.5406 43.9185 58.1082 43.9185L58.0811 43.9995ZM58.1082 25.8914C55.6476 25.7917 53.2304 26.56 51.279 28.0618C49.3276 29.5637 47.966 31.7037 47.4325 34.1076C46.2757 31.6841 45.4006 29.1359 44.8244 26.5131H36.2163V37.1887C36.2163 41.0671 34.4595 43.9455 31.0135 43.9455C27.5676 43.9455 25.6081 41.0806 25.6081 37.1887V26.5131H20.6622V37.1887C20.5499 40.1471 21.5696 43.037 23.5135 45.2698C24.4624 46.3029 25.6214 47.1209 26.9128 47.6686C28.2041 48.2164 29.5978 48.4813 31 48.4455C36.9595 48.4455 41.1352 43.8644 41.1352 37.3104V30.0941C42.1472 33.9772 43.8203 37.6571 46.0811 40.9725L43.4325 56.0806H48.4595L50.2027 45.3779C50.7798 45.8748 51.3942 46.3266 52.0406 46.7293C53.7199 47.7899 55.6502 48.3867 57.6352 48.459H58.0946C59.5711 48.4744 61.0356 48.1908 62.3996 47.6254C63.7638 47.0599 64.9994 46.2244 66.0321 45.1689C67.0648 44.1135 67.8733 42.8599 68.409 41.4839C68.9445 40.1078 69.1961 38.6375 69.1487 37.1617C69.1832 35.6912 68.9217 34.2289 68.3796 32.8615C67.8377 31.4941 67.0264 30.2497 65.994 29.2021C64.9615 28.1545 63.729 27.3252 62.3696 26.7634C61.0103 26.2016 59.5519 25.9189 58.0811 25.932" fill="#149E00"/>
</g>
<g clip-path="url(#clip1_401_270)">
<path d="M126.18 46.0599C125.135 46.0017 124.119 45.6934 123.217 45.1609C122.316 44.6285 121.556 43.8874 121 42.9999C121.67 37.6599 123.62 35.9999 126.2 35.9999C128.78 35.9999 130.74 37.9999 130.74 40.9999C130.74 43.9999 128.74 45.9999 126.2 45.9999L126.18 46.0599ZM126.2 32.6599C124.379 32.5862 122.591 33.1547 121.146 34.266C119.702 35.3774 118.695 36.961 118.3 38.7399C117.444 36.9465 116.796 35.0609 116.37 33.1199H110V41.0199C110 43.8899 108.7 46.0199 106.15 46.0199C103.6 46.0199 102.15 43.8999 102.15 41.0199V33.1199H98.4901V41.0199C98.407 43.2091 99.1616 45.3476 100.6 46.9999C101.302 47.7644 102.16 48.3697 103.116 48.7751C104.071 49.1804 105.102 49.3764 106.14 49.3499C110.55 49.3499 113.64 45.9599 113.64 41.1099V35.7699C114.389 38.6434 115.627 41.3665 117.3 43.8199L115.34 54.9999H119.06L120.35 47.0799C120.777 47.4476 121.232 47.7819 121.71 48.0799C122.953 48.8648 124.381 49.3065 125.85 49.3599H126.19C127.283 49.3713 128.366 49.1615 129.376 48.743C130.385 48.3246 131.3 47.7063 132.064 46.9253C132.828 46.1442 133.426 45.2167 133.823 44.1984C134.219 43.1801 134.405 42.0921 134.37 40.9999C134.396 39.9118 134.202 38.8297 133.801 37.8178C133.4 36.8059 132.8 35.885 132.036 35.1098C131.272 34.3346 130.359 33.7209 129.354 33.3052C128.348 32.8895 127.268 32.6803 126.18 32.6899" fill="#4EA52F"/>
<path d="M178.8 34.86V33.18H175.2V48.81H178.85V42.69C178.85 38.92 179.19 36.21 184.25 36.56V33C181.89 32.82 180.05 33.31 178.8 34.87" fill="#4EA52F"/>
<path d="M153.51 33.1699L150.87 44.1099L148.05 33.1699H143.41L140.59 44.1099L137.95 33.1699H134.26L138.31 48.8199H142.69L145.73 37.7099L148.74 48.8199H153.12L157.4 33.1699H153.51Z" fill="#4EA52F"/>
<path d="M165.42 46.07C162.83 46.07 160.89 44.02 160.89 41.07C160.89 38.12 162.89 36.07 165.42 36.07C167.95 36.07 170 38 170 41C170 44 168 46 165.46 46L165.42 46.07ZM165.46 32.65C164.366 32.6346 163.28 32.8411 162.268 33.2571C161.255 33.6731 160.338 34.2899 159.571 35.0702C158.803 35.8506 158.202 36.7784 157.803 37.7975C157.404 38.8167 157.216 39.9061 157.25 41C157.212 42.0976 157.395 43.1917 157.788 44.217C158.182 45.2424 158.778 46.178 159.541 46.9681C160.304 47.7581 161.218 48.3865 162.229 48.8156C163.24 49.2448 164.327 49.4659 165.425 49.4659C166.523 49.4659 167.61 49.2448 168.621 48.8156C169.632 48.3865 170.547 47.7581 171.31 46.9681C172.072 46.178 172.668 45.2424 173.062 44.217C173.456 43.1917 173.639 42.0976 173.6 41C173.627 39.9123 173.435 38.8304 173.035 37.8186C172.635 36.8068 172.036 35.8858 171.272 35.1104C170.509 34.335 169.598 33.7212 168.592 33.3054C167.587 32.8895 166.508 32.6803 165.42 32.69" fill="#4EA52F"/>
<path d="M189.47 41.13H190.31L195.4 48.82H199.51L193.66 40.29C195.067 39.7098 196.27 38.7237 197.114 37.4574C197.958 36.191 198.406 34.7019 198.4 33.18H194.77C194.77 36.55 192.11 37.83 189.47 37.83V27H185.82V48.82H189.46L189.47 41.13Z" fill="#4EA52F"/>
</g>
<defs>
<clipPath id="clip0_401_270">
<rect width="50" height="31.0811" fill="white" transform="translate(20 25)"/>
</clipPath>
<clipPath id="clip1_401_270">
<rect width="102" height="28" fill="white" transform="translate(98 27)"/>
</clipPath>
</defs>
</svg>
