<svg width="213" height="65" viewBox="0 0 213 65" fill="none" xmlns="http://www.w3.org/2000/svg">
<path fillRule="evenodd" clipRule="evenodd" d="M32.5 65C50.4493 65 65 50.4493 65 32.5C65 14.5507 50.4493 0 32.5 0C14.5507 0 0 14.5507 0 32.5C0 50.4493 14.5507 65 32.5 65ZM17.3346 21.0319C17.3346 18.99 18.99 17.3346 21.0319 17.3346C23.0738 17.3346 24.7292 18.99 24.7292 21.0319C24.7292 23.0738 23.0738 24.7292 21.0319 24.7292C18.99 24.7292 17.3346 23.0738 17.3346 21.0319ZM21.0319 15.3346C17.8854 15.3346 15.3346 17.8854 15.3346 21.0319C15.3346 24.1784 17.8854 26.7292 21.0319 26.7292C24.1784 26.7292 26.7292 24.1784 26.7292 21.0319C26.7292 17.8854 24.1784 15.3346 21.0319 15.3346ZM31.2093 20.0319C30.657 20.0319 30.2093 20.4796 30.2093 21.0319C30.2093 21.5842 30.657 22.0319 31.2093 22.0319H31.8895C34.2939 22.0319 36.0334 22.0327 37.2886 22.1357C37.9129 22.1869 38.3724 22.2604 38.7086 22.3556C39.0458 22.4511 39.1972 22.5514 39.2646 22.6152C39.7974 23.1194 40.0335 23.8621 39.8897 24.5814C39.8715 24.6724 39.8058 24.8418 39.5857 25.1144C39.3662 25.3863 39.0335 25.7116 38.5533 26.114C37.5881 26.9228 36.1684 27.928 34.2053 29.3165L27.8412 33.8179L27.7988 33.8479C25.887 35.2002 24.3995 36.2523 23.3636 37.1203C22.8394 37.5596 22.3959 37.9801 22.0597 38.3965C21.7241 38.8121 21.4547 39.2733 21.3506 39.7936C21.0718 41.1879 21.5295 42.6275 22.5623 43.6048C22.9477 43.9695 23.434 44.1905 23.948 44.336C24.4629 44.4818 25.0678 44.569 25.7494 44.6249C27.0963 44.7354 28.9182 44.7354 31.2598 44.7354H31.2601H31.312H32.7751C33.3274 44.7354 33.7751 44.2876 33.7751 43.7354C33.7751 43.1831 33.3274 42.7354 32.7751 42.7354H31.312C28.9076 42.7354 27.1681 42.7345 25.9129 42.6316C25.2886 42.5804 24.8291 42.5069 24.4929 42.4117C24.1557 42.3162 24.0043 42.2158 23.9369 42.1521C23.4041 41.6479 23.1679 40.9051 23.3118 40.1858C23.33 40.0949 23.3957 39.9255 23.6158 39.6528C23.8353 39.381 24.168 39.0556 24.6482 38.6533C25.6134 37.8444 27.0331 36.8392 28.9962 35.4508L35.3603 30.9493L35.4027 30.9193C37.3145 29.567 38.802 28.5149 39.8379 27.6469C40.3621 27.2077 40.8056 26.7872 41.1418 26.3708C41.4773 25.9552 41.7468 25.494 41.8509 24.9736C42.1297 23.5794 41.672 22.1397 40.6392 21.1625C40.2538 20.7977 39.7675 20.5768 39.2535 20.4312C38.7386 20.2854 38.1337 20.1983 37.4521 20.1424C36.1051 20.0319 34.2832 20.0319 31.9414 20.0319H31.8895H31.2093ZM39.2552 42.9525C39.2552 40.9105 40.9105 39.2552 42.9525 39.2552C44.9944 39.2552 46.6497 40.9105 46.6497 42.9525C46.6497 44.9944 44.9944 46.6497 42.9525 46.6497C40.9105 46.6497 39.2552 44.9944 39.2552 42.9525ZM42.9525 37.2552C39.806 37.2552 37.2552 39.806 37.2552 42.9525C37.2552 46.099 39.806 48.6497 42.9525 48.6497C46.099 48.6497 48.6497 46.099 48.6497 42.9525C48.6497 39.806 46.099 37.2552 42.9525 37.2552Z" fill="black"/>
<path d="M118.349 8.72727V56H111.793L87.7646 21.3303H87.326V56H80.1935V8.72727H86.7951L110.847 43.4432H111.286V8.72727H118.349ZM138.517 56.7848C136.27 56.7848 134.239 56.3693 132.423 55.5384C130.607 54.692 129.169 53.4686 128.107 51.8683C127.06 50.2679 126.537 48.3059 126.537 45.9822C126.537 43.9818 126.922 42.3352 127.691 41.0426C128.461 39.75 129.499 38.7267 130.807 37.9727C132.115 37.2186 133.577 36.6493 135.193 36.2646C136.809 35.8799 138.455 35.5875 140.133 35.3874C142.256 35.1412 143.98 34.9412 145.303 34.7873C146.627 34.618 147.588 34.3487 148.188 33.9794C148.789 33.6101 149.089 33.0099 149.089 32.179V32.0174C149.089 30.0015 148.519 28.4396 147.381 27.3317C146.257 26.2237 144.58 25.6697 142.349 25.6697C140.025 25.6697 138.194 26.1852 136.855 27.2163C135.532 28.2319 134.616 29.3629 134.108 30.6094L127.622 29.1321C128.391 26.9777 129.515 25.2389 130.992 23.9155C132.485 22.5767 134.201 21.6072 136.139 21.0071C138.078 20.3916 140.117 20.0838 142.256 20.0838C143.672 20.0838 145.172 20.2531 146.757 20.5916C148.358 20.9148 149.85 21.5149 151.235 22.392C152.636 23.2692 153.782 24.5233 154.675 26.1545C155.567 27.7702 156.013 29.8707 156.013 32.456V56H149.273V51.1527H148.996C148.55 52.0452 147.881 52.9223 146.988 53.7841C146.096 54.6458 144.949 55.3614 143.549 55.9308C142.149 56.5001 140.471 56.7848 138.517 56.7848ZM140.017 51.245C141.925 51.245 143.557 50.868 144.911 50.114C146.28 49.36 147.319 48.3751 148.027 47.1594C148.75 45.9284 149.112 44.6127 149.112 43.2124V38.642C148.866 38.8883 148.389 39.1191 147.681 39.3345C146.988 39.5346 146.196 39.7115 145.303 39.8654C144.411 40.0039 143.541 40.1347 142.695 40.2578C141.849 40.3655 141.141 40.4579 140.571 40.5348C139.233 40.7041 138.009 40.9888 136.901 41.3888C135.809 41.7889 134.931 42.366 134.27 43.12C133.623 43.8587 133.3 44.8435 133.3 46.0746C133.3 47.7827 133.931 49.0753 135.193 49.9524C136.455 50.8142 138.063 51.245 140.017 51.245ZM194.267 20.5455L181.41 56H174.023L161.143 20.5455H168.553L177.532 47.8288H177.901L186.857 20.5455H194.267ZM200.753 56V20.5455H207.654V56H200.753ZM204.238 15.0749C203.038 15.0749 202.007 14.6748 201.145 13.8746C200.299 13.0591 199.876 12.0896 199.876 10.9663C199.876 9.82753 200.299 8.85807 201.145 8.05788C202.007 7.2423 203.038 6.83452 204.238 6.83452C205.439 6.83452 206.462 7.2423 207.308 8.05788C208.17 8.85807 208.601 9.82753 208.601 10.9663C208.601 12.0896 208.17 13.0591 207.308 13.8746C206.462 14.6748 205.439 15.0749 204.238 15.0749Z" fill="black"/>
</svg>
