<svg width="281" height="68" viewBox="0 0 281 68" fill="none" xmlns="http://www.w3.org/2000/svg">
<path d="M22.6667 8.5L45.3333 59.5M8.5 48.1667L34 34M22.1 59.5H45.9C50.6604 59.5 53.0407 59.5 54.8589 58.5736C56.4583 57.7586 57.7586 56.4583 58.5736 54.8589C59.5 53.0407 59.5 50.6604 59.5 45.9V22.1C59.5 17.3396 59.5 14.9593 58.5736 13.1411C57.7586 11.5417 56.4583 10.2414 54.8589 9.42644C53.0407 8.5 50.6604 8.5 45.9 8.5H22.1C17.3396 8.5 14.9593 8.5 13.1411 9.42644C11.5417 10.2414 10.2414 11.5417 9.42644 13.1411C8.5 14.9593 8.5 17.3396 8.5 22.1V45.9C8.5 50.6604 8.5 53.0407 9.42644 54.8589C10.2414 56.4583 11.5417 57.7586 13.1411 58.5736C14.9593 59.5 17.3396 59.5 22.1 59.5Z" stroke="black" strokeWidth="2" strokeLinecap="round" strokeLinejoin="round"/>
<path d="M52.5 22V17M39.5 35V30M50 19.5H55M37 32.5H42M40.5 16L39.7155 17.5689C39.4501 18.0999 39.3173 18.3654 39.14 18.5954C38.9826 18.7996 38.7996 18.9826 38.5954 19.14C38.3654 19.3173 38.0999 19.4501 37.5689 19.7155L36 20.5L37.5689 21.2845C38.0999 21.5499 38.3654 21.6827 38.5954 21.86C38.7996 22.0174 38.9826 22.2004 39.14 22.4046C39.3173 22.6346 39.4501 22.9001 39.7155 23.4311L40.5 25L41.2845 23.4311C41.5499 22.9001 41.6827 22.6346 41.86 22.4046C42.0174 22.2004 42.2004 22.0174 42.4046 21.86C42.6346 21.6827 42.9001 21.5499 43.4311 21.2845L45 20.5L43.4311 19.7155C42.9001 19.4501 42.6346 19.3173 42.4046 19.14C42.2004 18.9826 42.0174 18.7996 41.86 18.5954C41.6827 18.3654 41.5499 18.0999 41.2845 17.5689L40.5 16ZM51 26L50.0489 27.9022C49.7834 28.4332 49.6506 28.6987 49.4733 28.9288C49.3159 29.1329 49.1329 29.3159 48.9288 29.4733C48.6987 29.6506 48.4332 29.7834 47.9023 30.0489L46 31L47.9023 31.9511C48.4332 32.2166 48.6987 32.3494 48.9288 32.5267C49.1329 32.6841 49.3159 32.8671 49.4733 33.0712C49.6506 33.3013 49.7834 33.5668 50.0489 34.0977L51 36L51.9511 34.0978C52.2166 33.5668 52.3494 33.3013 52.5267 33.0712C52.6841 32.8671 52.8671 32.6841 53.0712 32.5267C53.3013 32.3494 53.5668 32.2166 54.0977 31.9511L56 31L54.0977 30.0489C53.5668 29.7834 53.3013 29.6506 53.0712 29.4733C52.8671 29.3159 52.6841 29.1329 52.5267 28.9288C52.3494 28.6987 52.2166 28.4332 51.9511 27.9023L51 26Z" stroke="black" strokeWidth="2" strokeLinecap="round" strokeLinejoin="round"/>
<path d="M102.828 25.1889C102.639 23.508 101.857 22.206 100.484 21.2827C99.1113 20.3475 97.3831 19.88 95.2997 19.88C93.8082 19.88 92.518 20.1167 91.429 20.5902C90.34 21.0518 89.4936 21.6911 88.8899 22.5078C88.2981 23.3127 88.0021 24.2301 88.0021 25.2599C88.0021 26.1241 88.2034 26.8698 88.6058 27.4972C89.0201 28.1245 89.5587 28.6513 90.2216 29.0774C90.8963 29.4917 91.6184 29.8409 92.3878 30.125C93.1572 30.3973 93.897 30.6222 94.6072 30.7997L98.1584 31.723C99.3184 32.0071 100.508 32.3918 101.727 32.8771C102.946 33.3625 104.077 34.0017 105.119 34.7947C106.16 35.5878 107.001 36.5703 107.64 37.7422C108.291 38.9141 108.616 40.3168 108.616 41.9503C108.616 44.0099 108.084 45.8388 107.018 47.4368C105.965 49.0348 104.432 50.2955 102.42 51.2188C100.419 52.142 97.9986 52.6037 95.1577 52.6037C92.4351 52.6037 90.0795 52.1716 88.0909 51.3075C86.1023 50.4434 84.5457 49.2183 83.4212 47.6321C82.2966 46.0341 81.6752 44.1402 81.5568 41.9503H87.0611C87.1676 43.2642 87.5938 44.3591 88.3395 45.2351C89.0971 46.0992 90.0618 46.7443 91.2337 47.1705C92.4174 47.5848 93.7135 47.7919 95.1222 47.7919C96.6728 47.7919 98.0518 47.5492 99.2592 47.0639C100.478 46.5668 101.437 45.8802 102.136 45.0043C102.834 44.1165 103.183 43.0807 103.183 41.897C103.183 40.8198 102.875 39.938 102.26 39.2514C101.656 38.5649 100.834 37.9967 99.7919 37.5469C98.7621 37.0971 97.5961 36.7005 96.294 36.3572L91.9972 35.1854C89.0852 34.3923 86.777 33.2263 85.0724 31.6875C83.3797 30.1487 82.5334 28.1127 82.5334 25.5795C82.5334 23.4844 83.1016 21.6555 84.2379 20.093C85.3743 18.5305 86.9131 17.3172 88.8544 16.4531C90.7957 15.5772 92.9856 15.1392 95.424 15.1392C97.8861 15.1392 100.058 15.5713 101.94 16.4354C103.834 17.2995 105.326 18.4891 106.415 20.0043C107.504 21.5076 108.072 23.2358 108.119 25.1889H102.828ZM127.477 24.7273V28.9886H112.58V24.7273H127.477ZM116.575 18.1932H121.884V43.9922C121.884 45.022 122.038 45.7973 122.346 46.3182C122.654 46.8272 123.05 47.1764 123.536 47.3658C124.033 47.5433 124.571 47.6321 125.151 47.6321C125.578 47.6321 125.95 47.6025 126.27 47.5433C126.59 47.4841 126.838 47.4368 127.016 47.4013L127.975 51.7869C127.667 51.9053 127.229 52.0237 126.661 52.142C126.093 52.2723 125.382 52.3433 124.53 52.3551C123.133 52.3788 121.831 52.1302 120.624 51.6094C119.416 51.0885 118.44 50.2836 117.694 49.1946C116.948 48.1056 116.575 46.7384 116.575 45.093V18.1932ZM141.287 52.6037C139.559 52.6037 137.996 52.2841 136.599 51.6449C135.203 50.9938 134.096 50.0528 133.279 48.8217C132.474 47.5907 132.072 46.0814 132.072 44.294C132.072 42.7552 132.368 41.4886 132.96 40.4943C133.551 39.5 134.35 38.7128 135.357 38.1328C136.363 37.5528 137.487 37.1148 138.73 36.8189C139.973 36.523 141.24 36.2981 142.53 36.1442C144.163 35.9548 145.489 35.8009 146.507 35.6825C147.525 35.5523 148.265 35.3452 148.727 35.0611C149.188 34.777 149.419 34.3153 149.419 33.6761V33.5518C149.419 32.0012 148.981 30.7997 148.105 29.9474C147.241 29.0952 145.951 28.669 144.234 28.669C142.447 28.669 141.038 29.0656 140.009 29.8587C138.991 30.6399 138.286 31.5099 137.896 32.4688L132.906 31.3324C133.498 29.6752 134.362 28.3376 135.499 27.3196C136.647 26.2898 137.967 25.544 139.458 25.0824C140.95 24.6089 142.518 24.3722 144.163 24.3722C145.252 24.3722 146.406 24.5024 147.626 24.7628C148.857 25.0114 150.005 25.473 151.07 26.1477C152.147 26.8224 153.029 27.7872 153.716 29.0419C154.402 30.2848 154.746 31.9006 154.746 33.8892V52H149.561V48.2713H149.348C149.005 48.9579 148.49 49.6326 147.803 50.2955C147.117 50.9583 146.235 51.5088 145.158 51.9467C144.08 52.3847 142.79 52.6037 141.287 52.6037ZM142.441 48.3423C143.909 48.3423 145.164 48.0523 146.205 47.4723C147.259 46.8923 148.058 46.1347 148.602 45.1996C149.159 44.2526 149.437 43.2405 149.437 42.1634V38.6477C149.247 38.8371 148.88 39.0147 148.336 39.1804C147.803 39.3343 147.194 39.4704 146.507 39.5888C145.821 39.6953 145.152 39.7959 144.501 39.8906C143.85 39.9735 143.305 40.0445 142.867 40.1037C141.837 40.2339 140.896 40.4529 140.044 40.7607C139.204 41.0684 138.529 41.5123 138.02 42.0923C137.523 42.6605 137.274 43.4181 137.274 44.3651C137.274 45.679 137.759 46.6733 138.73 47.348C139.701 48.0109 140.938 48.3423 142.441 48.3423ZM161.817 52V24.7273H166.948V29.0597H167.232C167.73 27.5919 168.606 26.4377 169.86 25.5973C171.127 24.745 172.559 24.3189 174.157 24.3189C174.489 24.3189 174.879 24.3307 175.329 24.3544C175.791 24.3781 176.152 24.4077 176.412 24.4432V29.5213C176.199 29.4621 175.82 29.397 175.276 29.326C174.731 29.2431 174.187 29.2017 173.642 29.2017C172.387 29.2017 171.269 29.468 170.286 30.0007C169.316 30.5215 168.546 31.2495 167.978 32.1847C167.41 33.108 167.126 34.1615 167.126 35.3452V52H161.817ZM181.006 52V24.7273H186.102V29.1662H186.44C187.008 27.6629 187.937 26.491 189.227 25.6506C190.518 24.7983 192.062 24.3722 193.862 24.3722C195.684 24.3722 197.211 24.7983 198.442 25.6506C199.685 26.5028 200.603 27.6747 201.195 29.1662H201.479C202.13 27.7102 203.165 26.5502 204.586 25.6861C206.006 24.8101 207.699 24.3722 209.664 24.3722C212.138 24.3722 214.156 25.1475 215.719 26.6982C217.293 28.2488 218.08 30.5866 218.08 33.7116V52H212.771V34.2088C212.771 32.3622 212.268 31.0246 211.262 30.196C210.256 29.3674 209.054 28.9531 207.658 28.9531C205.929 28.9531 204.586 29.4858 203.627 30.5511C202.668 31.6046 202.189 32.96 202.189 34.6172V52H196.898V33.8714C196.898 32.3918 196.436 31.2022 195.513 30.3026C194.589 29.4029 193.388 28.9531 191.908 28.9531C190.902 28.9531 189.973 29.2195 189.121 29.7521C188.28 30.273 187.6 31.0009 187.079 31.9361C186.57 32.8712 186.315 33.9543 186.315 35.1854V52H181.006ZM233.133 52.6037C231.404 52.6037 229.842 52.2841 228.445 51.6449C227.048 50.9938 225.942 50.0528 225.125 48.8217C224.32 47.5907 223.917 46.0814 223.917 44.294C223.917 42.7552 224.213 41.4886 224.805 40.4943C225.397 39.5 226.196 38.7128 227.202 38.1328C228.208 37.5528 229.333 37.1148 230.576 36.8189C231.819 36.523 233.085 36.2981 234.376 36.1442C236.009 35.9548 237.335 35.8009 238.353 35.6825C239.371 35.5523 240.111 35.3452 240.572 35.0611C241.034 34.777 241.265 34.3153 241.265 33.6761V33.5518C241.265 32.0012 240.827 30.7997 239.951 29.9474C239.087 29.0952 237.796 28.669 236.08 28.669C234.293 28.669 232.884 29.0656 231.854 29.8587C230.836 30.6399 230.132 31.5099 229.741 32.4688L224.752 31.3324C225.344 29.6752 226.208 28.3376 227.344 27.3196C228.492 26.2898 229.812 25.544 231.304 25.0824C232.795 24.6089 234.364 24.3722 236.009 24.3722C237.098 24.3722 238.252 24.5024 239.471 24.7628C240.702 25.0114 241.851 25.473 242.916 26.1477C243.993 26.8224 244.875 27.7872 245.562 29.0419C246.248 30.2848 246.591 31.9006 246.591 33.8892V52H241.407V48.2713H241.194C240.85 48.9579 240.336 49.6326 239.649 50.2955C238.962 50.9583 238.081 51.5088 237.003 51.9467C235.926 52.3847 234.636 52.6037 233.133 52.6037ZM234.287 48.3423C235.755 48.3423 237.009 48.0523 238.051 47.4723C239.104 46.8923 239.903 46.1347 240.448 45.1996C241.004 44.2526 241.282 43.2405 241.282 42.1634V38.6477C241.093 38.8371 240.726 39.0147 240.182 39.1804C239.649 39.3343 239.039 39.4704 238.353 39.5888C237.666 39.6953 236.997 39.7959 236.346 39.8906C235.695 39.9735 235.151 40.0445 234.713 40.1037C233.683 40.2339 232.742 40.4529 231.89 40.7607C231.049 41.0684 230.375 41.5123 229.866 42.0923C229.368 42.6605 229.12 43.4181 229.12 44.3651C229.12 45.679 229.605 46.6733 230.576 47.348C231.546 48.0109 232.783 48.3423 234.287 48.3423ZM253.663 62.2273V24.7273H258.847V29.1484H259.291C259.599 28.5803 260.043 27.9233 260.623 27.1776C261.203 26.4318 262.008 25.7808 263.038 25.2244C264.067 24.6562 265.429 24.3722 267.121 24.3722C269.323 24.3722 271.288 24.9285 273.016 26.0412C274.745 27.1539 276.1 28.7578 277.082 30.853C278.077 32.9482 278.574 35.4695 278.574 38.4169C278.574 41.3643 278.083 43.8916 277.1 45.9986C276.118 48.0937 274.768 49.7095 273.052 50.8459C271.335 51.9704 269.376 52.5327 267.175 52.5327C265.518 52.5327 264.162 52.2545 263.109 51.6982C262.067 51.1418 261.25 50.4908 260.658 49.745C260.067 48.9993 259.611 48.3364 259.291 47.7564H258.972V62.2273H253.663ZM258.865 38.3636C258.865 40.2812 259.143 41.9621 259.7 43.4062C260.256 44.8504 261.061 45.9808 262.114 46.7976C263.168 47.6025 264.458 48.005 265.985 48.005C267.571 48.005 268.897 47.5848 269.962 46.7443C271.028 45.892 271.833 44.7379 272.377 43.282C272.933 41.826 273.212 40.1866 273.212 38.3636C273.212 36.5644 272.939 34.9486 272.395 33.5163C271.862 32.084 271.057 30.9536 269.98 30.125C268.915 29.2964 267.583 28.8821 265.985 28.8821C264.446 28.8821 263.144 29.2786 262.079 30.0717C261.025 30.8648 260.226 31.9716 259.682 33.392C259.137 34.8125 258.865 36.4697 258.865 38.3636Z" fill="black"/>
</svg>
