<svg width="361" height="65" viewBox="0 0 361 65" fill="none" xmlns="http://www.w3.org/2000/svg">
<path d="M123.855 31.16C123.855 33.1033 123.397 34.9367 122.48 36.66C121.563 38.3833 120.097 39.795 118.08 40.895C116.063 41.9583 113.478 42.49 110.325 42.49H103.395V58H97.125V19.775H110.325C113.258 19.775 115.733 20.2883 117.75 21.315C119.803 22.305 121.325 23.6617 122.315 25.385C123.342 27.1083 123.855 29.0333 123.855 31.16ZM110.325 37.375C112.708 37.375 114.487 36.8433 115.66 35.78C116.833 34.68 117.42 33.14 117.42 31.16C117.42 26.98 115.055 24.89 110.325 24.89H103.395V37.375H110.325ZM136.105 32.095C137.022 30.555 138.232 29.3633 139.735 28.52C141.275 27.64 143.09 27.2 145.18 27.2V33.69H143.585C141.128 33.69 139.258 34.3133 137.975 35.56C136.728 36.8067 136.105 38.97 136.105 42.05V58H129.835V27.695H136.105V32.095ZM164.088 58.495C161.228 58.495 158.643 57.8533 156.333 56.57C154.023 55.25 152.208 53.4167 150.888 51.07C149.568 48.6867 148.908 45.9367 148.908 42.82C148.908 39.74 149.587 37.0083 150.943 34.625C152.3 32.2417 154.152 30.4083 156.498 29.125C158.845 27.8417 161.467 27.2 164.363 27.2C167.26 27.2 169.882 27.8417 172.228 29.125C174.575 30.4083 176.427 32.2417 177.783 34.625C179.14 37.0083 179.818 39.74 179.818 42.82C179.818 45.9 179.122 48.6317 177.728 51.015C176.335 53.3983 174.428 55.25 172.008 56.57C169.625 57.8533 166.985 58.495 164.088 58.495ZM164.088 53.05C165.702 53.05 167.205 52.665 168.598 51.895C170.028 51.125 171.183 49.97 172.063 48.43C172.943 46.89 173.383 45.02 173.383 42.82C173.383 40.62 172.962 38.7683 172.118 37.265C171.275 35.725 170.157 34.57 168.763 33.8C167.37 33.03 165.867 32.645 164.253 32.645C162.64 32.645 161.137 33.03 159.743 33.8C158.387 34.57 157.305 35.725 156.498 37.265C155.692 38.7683 155.288 40.62 155.288 42.82C155.288 46.0833 156.113 48.6133 157.763 50.41C159.45 52.17 161.558 53.05 164.088 53.05ZM193.332 32.81V49.585C193.332 50.7217 193.588 51.5467 194.102 52.06C194.652 52.5367 195.568 52.775 196.852 52.775H200.702V58H195.752C192.928 58 190.765 57.34 189.262 56.02C187.758 54.7 187.007 52.555 187.007 49.585V32.81H183.432V27.695H187.007V20.16H193.332V27.695H200.702V32.81H193.332ZM234.255 42.105C234.255 43.2417 234.182 44.2683 234.035 45.185H210.88C211.064 47.605 211.962 49.5483 213.575 51.015C215.189 52.4817 217.169 53.215 219.515 53.215C222.889 53.215 225.272 51.8033 226.665 48.98H233.43C232.514 51.7667 230.845 54.0583 228.425 55.855C226.042 57.615 223.072 58.495 219.515 58.495C216.619 58.495 214.015 57.8533 211.705 56.57C209.432 55.25 207.635 53.4167 206.315 51.07C205.032 48.6867 204.39 45.9367 204.39 42.82C204.39 39.7033 205.014 36.9717 206.26 34.625C207.544 32.2417 209.322 30.4083 211.595 29.125C213.905 27.8417 216.545 27.2 219.515 27.2C222.375 27.2 224.924 27.8233 227.16 29.07C229.397 30.3167 231.139 32.0767 232.385 34.35C233.632 36.5867 234.255 39.1717 234.255 42.105ZM227.71 40.125C227.674 37.815 226.849 35.9633 225.235 34.57C223.622 33.1767 221.624 32.48 219.24 32.48C217.077 32.48 215.225 33.1767 213.685 34.57C212.145 35.9267 211.229 37.7783 210.935 40.125H227.71ZM238.336 42.82C238.336 39.7033 238.959 36.9717 240.206 34.625C241.489 32.2417 243.249 30.4083 245.486 29.125C247.722 27.8417 250.289 27.2 253.186 27.2C256.852 27.2 259.877 28.08 262.261 29.84C264.681 31.5633 266.312 34.0383 267.156 37.265H260.391C259.841 35.7617 258.961 34.5883 257.751 33.745C256.541 32.9017 255.019 32.48 253.186 32.48C250.619 32.48 248.566 33.3967 247.026 35.23C245.522 37.0267 244.771 39.5567 244.771 42.82C244.771 46.0833 245.522 48.6317 247.026 50.465C248.566 52.2983 250.619 53.215 253.186 53.215C256.816 53.215 259.217 51.62 260.391 48.43H267.156C266.276 51.51 264.626 53.9667 262.206 55.8C259.786 57.5967 256.779 58.495 253.186 58.495C250.289 58.495 247.722 57.8533 245.486 56.57C243.249 55.25 241.489 53.4167 240.206 51.07C238.959 48.6867 238.336 45.9367 238.336 42.82ZM280.719 32.81V49.585C280.719 50.7217 280.976 51.5467 281.489 52.06C282.039 52.5367 282.956 52.775 284.239 52.775H288.089V58H283.139C280.316 58 278.153 57.34 276.649 56.02C275.146 54.7 274.394 52.555 274.394 49.585V32.81H270.819V27.695H274.394V20.16H280.719V27.695H288.089V32.81H280.719ZM321.643 42.105C321.643 43.2417 321.57 44.2683 321.423 45.185H298.268C298.451 47.605 299.35 49.5483 300.963 51.015C302.576 52.4817 304.556 53.215 306.903 53.215C310.276 53.215 312.66 51.8033 314.053 48.98H320.818C319.901 51.7667 318.233 54.0583 315.813 55.855C313.43 57.615 310.46 58.495 306.903 58.495C304.006 58.495 301.403 57.8533 299.093 56.57C296.82 55.25 295.023 53.4167 293.703 51.07C292.42 48.6867 291.778 45.9367 291.778 42.82C291.778 39.7033 292.401 36.9717 293.648 34.625C294.931 32.2417 296.71 30.4083 298.983 29.125C301.293 27.8417 303.933 27.2 306.903 27.2C309.763 27.2 312.311 27.8233 314.548 29.07C316.785 30.3167 318.526 32.0767 319.773 34.35C321.02 36.5867 321.643 39.1717 321.643 42.105ZM315.098 40.125C315.061 37.815 314.236 35.9633 312.623 34.57C311.01 33.1767 309.011 32.48 306.628 32.48C304.465 32.48 302.613 33.1767 301.073 34.57C299.533 35.9267 298.616 37.7783 298.323 40.125H315.098ZM325.723 42.71C325.723 39.6667 326.347 36.9717 327.593 34.625C328.877 32.2783 330.6 30.4633 332.763 29.18C334.963 27.86 337.402 27.2 340.078 27.2C342.058 27.2 344.002 27.64 345.908 28.52C347.852 29.3633 349.392 30.5 350.528 31.93V17.3H356.853V58H350.528V53.435C349.502 54.9017 348.072 56.1117 346.238 57.065C344.442 58.0183 342.37 58.495 340.023 58.495C337.383 58.495 334.963 57.835 332.763 56.515C330.6 55.1583 328.877 53.2883 327.593 50.905C326.347 48.485 325.723 45.7533 325.723 42.71ZM350.528 42.82C350.528 40.73 350.088 38.915 349.208 37.375C348.365 35.835 347.247 34.6617 345.853 33.855C344.46 33.0483 342.957 32.645 341.343 32.645C339.73 32.645 338.227 33.0483 336.833 33.855C335.44 34.625 334.303 35.78 333.423 37.32C332.58 38.8233 332.158 40.62 332.158 42.71C332.158 44.8 332.58 46.6333 333.423 48.21C334.303 49.7867 335.44 50.9967 336.833 51.84C338.263 52.6467 339.767 53.05 341.343 53.05C342.957 53.05 344.46 52.6467 345.853 51.84C347.247 51.0333 348.365 49.86 349.208 48.32C350.088 46.7433 350.528 44.91 350.528 42.82Z" fill="black"/>
<path d="M78 42.3889V48.8667C78 53.8138 78 56.2874 77.0372 58.1769C76.1903 59.839 74.839 61.1903 73.1769 62.0372C71.2874 63 68.8138 63 63.8667 63H57.3889M45.6111 10H39.1333C34.1862 10 31.7126 10 29.8231 10.9628C28.161 11.8097 26.8097 13.161 25.9628 14.8231C25 16.7126 25 19.1862 25 24.1333V30.6111M64.5341 23.4659L78 10M78 10H60.3333M78 10V27.6667M34.54 53.46L25 63M25 63H42.6667M25 63L25 45.3333" stroke="black" stroke-width="3" stroke-linecap="round" stroke-linejoin="round"/>
<path d="M42.1515 31.6842H42V28.6316C42 24.4168 45.3579 21 49.5 21C53.6421 21 57 24.4168 57 28.6316V31.6842H56.8485M49.5 37.7895V40.8421M60 39.3158C60 45.2165 55.299 50 49.5 50C43.701 50 39 45.2165 39 39.3158C39 33.4151 43.701 28.6316 49.5 28.6316C55.299 28.6316 60 33.4151 60 39.3158Z" stroke="black" stroke-width="2" stroke-linecap="round" stroke-linejoin="round"/>
</svg>
