<svg width="214" height="63" viewBox="0 0 214 63" fill="none" xmlns="http://www.w3.org/2000/svg">
<path d="M56.4 29C56.4 40.1838 47.2666 49.25 36 49.25C24.7334 49.25 15.6 40.1838 15.6 29M56.4 29C56.4 17.8162 47.2666 8.75 36 8.75C24.7334 8.75 15.6 17.8162 15.6 29M56.4 29C56.4 43.9117 44.2221 56 29.2 56C14.1779 56 2 43.9117 2 29M15.6 29C15.6 14.0883 27.7779 2 42.8 2C57.8221 2 70 14.0883 70 29" stroke="black" stroke-width="4" stroke-linecap="round" stroke-linejoin="round"/>
<path d="M102.56 48.385C99.0033 48.385 95.7217 47.56 92.715 45.91C89.745 44.2233 87.38 41.895 85.62 38.925C83.8967 35.9183 83.035 32.545 83.035 28.805C83.035 25.065 83.8967 21.71 85.62 18.74C87.38 15.77 89.745 13.46 92.715 11.81C95.7217 10.1233 99.0033 9.28 102.56 9.28C106.153 9.28 109.435 10.1233 112.405 11.81C115.412 13.46 117.777 15.77 119.5 18.74C121.223 21.71 122.085 25.065 122.085 28.805C122.085 32.545 121.223 35.9183 119.5 38.925C117.777 41.895 115.412 44.2233 112.405 45.91C109.435 47.56 106.153 48.385 102.56 48.385ZM102.56 42.94C105.09 42.94 107.345 42.3717 109.325 41.235C111.305 40.0617 112.845 38.4117 113.945 36.285C115.082 34.1217 115.65 31.6283 115.65 28.805C115.65 25.9817 115.082 23.5067 113.945 21.38C112.845 19.2533 111.305 17.6217 109.325 16.485C107.345 15.3483 105.09 14.78 102.56 14.78C100.03 14.78 97.775 15.3483 95.795 16.485C93.815 17.6217 92.2567 19.2533 91.12 21.38C90.02 23.5067 89.47 25.9817 89.47 28.805C89.47 31.6283 90.02 34.1217 91.12 36.285C92.2567 38.4117 93.815 40.0617 95.795 41.235C97.775 42.3717 100.03 42.94 102.56 42.94ZM134.525 22.15C135.588 20.7567 137.037 19.5833 138.87 18.63C140.703 17.6767 142.775 17.2 145.085 17.2C147.725 17.2 150.127 17.86 152.29 19.18C154.49 20.4633 156.213 22.2783 157.46 24.625C158.707 26.9717 159.33 29.6667 159.33 32.71C159.33 35.7533 158.707 38.485 157.46 40.905C156.213 43.2883 154.49 45.1583 152.29 46.515C150.127 47.835 147.725 48.495 145.085 48.495C142.775 48.495 140.722 48.0367 138.925 47.12C137.128 46.1667 135.662 44.9933 134.525 43.6V62.41H128.255V17.695H134.525V22.15ZM152.95 32.71C152.95 30.62 152.51 28.8233 151.63 27.32C150.787 25.78 149.65 24.625 148.22 23.855C146.827 23.0483 145.323 22.645 143.71 22.645C142.133 22.645 140.63 23.0483 139.2 23.855C137.807 24.6617 136.67 25.835 135.79 27.375C134.947 28.915 134.525 30.73 134.525 32.82C134.525 34.91 134.947 36.7433 135.79 38.32C136.67 39.86 137.807 41.0333 139.2 41.84C140.63 42.6467 142.133 43.05 143.71 43.05C145.323 43.05 146.827 42.6467 148.22 41.84C149.65 40.9967 150.787 39.7867 151.63 38.21C152.51 36.6333 152.95 34.8 152.95 32.71ZM163.44 32.71C163.44 29.6667 164.064 26.9717 165.31 24.625C166.594 22.2783 168.317 20.4633 170.48 19.18C172.68 17.86 175.1 17.2 177.74 17.2C180.124 17.2 182.195 17.6767 183.955 18.63C185.752 19.5467 187.182 20.7017 188.245 22.095V17.695H194.57V48H188.245V43.49C187.182 44.92 185.734 46.1117 183.9 47.065C182.067 48.0183 179.977 48.495 177.63 48.495C175.027 48.495 172.644 47.835 170.48 46.515C168.317 45.1583 166.594 43.2883 165.31 40.905C164.064 38.485 163.44 35.7533 163.44 32.71ZM188.245 32.82C188.245 30.73 187.805 28.915 186.925 27.375C186.082 25.835 184.964 24.6617 183.57 23.855C182.177 23.0483 180.674 22.645 179.06 22.645C177.447 22.645 175.944 23.0483 174.55 23.855C173.157 24.625 172.02 25.78 171.14 27.32C170.297 28.8233 169.875 30.62 169.875 32.71C169.875 34.8 170.297 36.6333 171.14 38.21C172.02 39.7867 173.157 40.9967 174.55 41.84C175.98 42.6467 177.484 43.05 179.06 43.05C180.674 43.05 182.177 42.6467 183.57 41.84C184.964 41.0333 186.082 39.86 186.925 38.32C187.805 36.7433 188.245 34.91 188.245 32.82ZM209.076 7.3V48H202.806V7.3H209.076Z" fill="black"/>
</svg>
