<svg width="277" height="57" viewBox="0 0 277 57" fill="none" xmlns="http://www.w3.org/2000/svg">
<path d="M34 2H2V55L15.3333 31.15H26L34 2Z" stroke="black" stroke-width="3" stroke-linecap="round" stroke-linejoin="round"/>
<path d="M30 17H16" stroke="black" stroke-width="3" stroke-linecap="round" stroke-linejoin="round"/>
<path d="M46.1935 50V2.72727H75.5082V8.86719H53.326V23.2706H73.4077V29.3874H53.326V50H46.1935ZM93.9164 50.7848C91.6697 50.7848 89.6384 50.3693 87.8226 49.5384C86.0068 48.692 84.568 47.4686 83.5062 45.8683C82.4598 44.2679 81.9366 42.3059 81.9366 39.9822C81.9366 37.9818 82.3213 36.3352 83.0907 35.0426C83.8601 33.75 84.8989 32.7267 86.2069 31.9727C87.5149 31.2186 88.9767 30.6493 90.5925 30.2646C92.2083 29.8799 93.8548 29.5875 95.5321 29.3874C97.6557 29.1412 99.3792 28.9412 100.703 28.7873C102.026 28.618 102.988 28.3487 103.588 27.9794C104.188 27.6101 104.488 27.0099 104.488 26.179V26.0174C104.488 24.0015 103.919 22.4396 102.78 21.3317C101.657 20.2237 99.9793 19.6697 97.748 19.6697C95.4244 19.6697 93.5932 20.1852 92.2544 21.2163C90.931 22.2319 90.0154 23.3629 89.5076 24.6094L83.0215 23.1321C83.7909 20.9777 84.9142 19.2389 86.3915 17.9155C87.8842 16.5767 89.6 15.6072 91.5389 15.0071C93.4778 14.3916 95.5167 14.0838 97.6557 14.0838C99.0714 14.0838 100.572 14.2531 102.157 14.5916C103.757 14.9148 105.25 15.5149 106.635 16.392C108.035 17.2692 109.182 18.5233 110.074 20.1545C110.967 21.7702 111.413 23.8707 111.413 26.456V50H104.673V45.1527H104.396C103.95 46.0452 103.28 46.9223 102.388 47.7841C101.495 48.6458 100.349 49.3614 98.9483 49.9308C97.548 50.5001 95.8707 50.7848 93.9164 50.7848ZM95.4167 45.245C97.3249 45.245 98.956 44.868 100.31 44.114C101.68 43.36 102.718 42.3751 103.426 41.1594C104.15 39.9284 104.511 38.6127 104.511 37.2124V32.642C104.265 32.8883 103.788 33.1191 103.08 33.3345C102.388 33.5346 101.595 33.7115 100.703 33.8654C99.8101 34.0039 98.9406 34.1347 98.0943 34.2578C97.2479 34.3655 96.5401 34.4579 95.9707 34.5348C94.6319 34.7041 93.4086 34.9888 92.3006 35.3888C91.208 35.7889 90.3309 36.366 89.6692 37.12C89.0229 37.8587 88.6998 38.8435 88.6998 40.0746C88.6998 41.7827 89.3307 43.0753 90.5925 43.9524C91.8543 44.8142 93.4624 45.245 95.4167 45.245ZM137.155 14.5455V20.0852H117.789V14.5455H137.155ZM122.983 6.05114H129.884V39.5898C129.884 40.9286 130.085 41.9366 130.485 42.6136C130.885 43.2753 131.4 43.7293 132.031 43.9755C132.677 44.2063 133.378 44.3217 134.132 44.3217C134.686 44.3217 135.17 44.2833 135.586 44.2063C136.001 44.1294 136.324 44.0678 136.555 44.0217L137.802 49.723C137.402 49.8769 136.832 50.0308 136.094 50.1847C135.355 50.3539 134.432 50.4463 133.324 50.4616C131.508 50.4924 129.815 50.1693 128.246 49.4922C126.676 48.8151 125.407 47.7687 124.437 46.353C123.468 44.9373 122.983 43.1599 122.983 41.021V6.05114ZM152.453 28.9489V50H145.552V2.72727H152.361V20.316H152.8C153.631 18.4079 154.9 16.8922 156.608 15.7688C158.316 14.6455 160.548 14.0838 163.302 14.0838C165.733 14.0838 167.857 14.5839 169.673 15.5842C171.504 16.5844 172.92 18.0771 173.92 20.0621C174.936 22.0318 175.443 24.494 175.443 27.4485V50H168.542V28.2795C168.542 25.6789 167.872 23.663 166.534 22.2319C165.195 20.7854 163.333 20.0621 160.948 20.0621C159.316 20.0621 157.855 20.4084 156.562 21.1009C155.285 21.7933 154.277 22.8089 153.538 24.1477C152.815 25.4711 152.453 27.0715 152.453 28.9489ZM199.588 50.7156C196.264 50.7156 193.363 49.9538 190.885 48.4304C188.408 46.907 186.484 44.7757 185.115 42.0366C183.745 39.2975 183.061 36.0967 183.061 32.4343C183.061 28.7565 183.745 25.5404 185.115 22.7859C186.484 20.0314 188.408 17.8924 190.885 16.369C193.363 14.8455 196.264 14.0838 199.588 14.0838C202.911 14.0838 205.812 14.8455 208.29 16.369C210.767 17.8924 212.691 20.0314 214.06 22.7859C215.43 25.5404 216.115 28.7565 216.115 32.4343C216.115 36.0967 215.43 39.2975 214.06 42.0366C212.691 44.7757 210.767 46.907 208.29 48.4304C205.812 49.9538 202.911 50.7156 199.588 50.7156ZM199.611 44.9219C201.765 44.9219 203.55 44.3525 204.966 43.2138C206.381 42.075 207.428 40.5593 208.105 38.6665C208.797 36.7738 209.144 34.6887 209.144 32.4112C209.144 30.1491 208.797 28.0717 208.105 26.179C207.428 24.2708 206.381 22.7397 204.966 21.5856C203.55 20.4315 201.765 19.8544 199.611 19.8544C197.441 19.8544 195.64 20.4315 194.209 21.5856C192.794 22.7397 191.74 24.2708 191.047 26.179C190.37 28.0717 190.031 30.1491 190.031 32.4112C190.031 34.6887 190.37 36.7738 191.047 38.6665C191.74 40.5593 192.794 42.075 194.209 43.2138C195.64 44.3525 197.441 44.9219 199.611 44.9219ZM223.818 50V14.5455H230.443V20.316H230.881C231.62 18.3617 232.828 16.8383 234.505 15.7457C236.183 14.6378 238.191 14.0838 240.53 14.0838C242.9 14.0838 244.885 14.6378 246.485 15.7457C248.101 16.8537 249.294 18.3771 250.063 20.316H250.432C251.279 18.4233 252.625 16.9152 254.472 15.7919C256.318 14.6532 258.519 14.0838 261.073 14.0838C264.289 14.0838 266.913 15.0917 268.944 17.1076C270.991 19.1235 272.014 22.1626 272.014 26.2251V50H265.113V26.8714C265.113 24.4709 264.459 22.732 263.151 21.6548C261.843 20.5777 260.281 20.0391 258.465 20.0391C256.218 20.0391 254.472 20.7315 253.225 22.1165C251.979 23.486 251.356 25.248 251.356 27.4023V50H244.477V26.4329C244.477 24.5094 243.877 22.9628 242.677 21.7933C241.476 20.6238 239.914 20.0391 237.991 20.0391C236.683 20.0391 235.475 20.3853 234.367 21.0778C233.274 21.7549 232.39 22.7012 231.712 23.9169C231.051 25.1326 230.72 26.5406 230.72 28.141V50H223.818Z" fill="black"/>
</svg>
