<svg width="801" height="800" viewBox="0 0 801 800" fill="none" xmlns="http://www.w3.org/2000/svg">
<path d="M627.31 418.408C627.154 404.392 623.874 390.552 618.762 377.552C614.818 367.488 610.238 357.688 605.766 347.852C570.177 270.293 532.83 193.554 493.754 117.692C488.258 107.092 482.878 96.4281 477.074 85.9921C471.37 75.8121 464.73 66.0121 456.134 58.0441C442.418 44.9681 424.014 37.1721 405.126 35.9961H396.43C376.986 36.9561 358.006 45.1161 344.054 58.7161C335.774 66.5601 329.366 76.1241 323.814 86.0201C318.086 96.2841 312.782 106.78 307.39 117.212C281.17 168.109 255.721 219.4 231.054 271.068C216.35 301.988 201.77 332.96 187.746 364.184C181.93 377.192 176.67 390.644 174.69 404.844C171.022 428.82 176.282 453.984 189.09 474.572C200.13 492.456 216.702 506.868 236.018 515.192C251.118 521.709 267.53 524.614 283.95 523.676C305.882 522.512 327.03 514.632 345.586 503.132C366.286 490.428 383.99 473.532 400.474 455.844C415.802 472.364 432.206 488.128 451.142 500.484C469.43 512.516 490.282 521.228 512.214 523.3C536.034 525.788 560.714 519.884 580.706 506.624C598.388 494.908 612.081 478.082 619.962 458.388C625.036 445.68 627.534 432.09 627.31 418.408ZM400.574 409.16C394.594 402.12 389.326 394.504 384.034 386.944C375.13 373.884 367.034 360.232 360.522 345.808C355.186 333.84 350.902 321.276 349.23 308.228C348.01 297.876 348.302 287.076 352.102 277.248C355.502 268.032 362.038 260.048 370.318 254.772C390.046 242.04 418.166 243.416 436.042 258.86C445.09 266.568 450.494 277.964 451.854 289.676C453.634 305.244 450.094 320.88 444.658 335.4C434.394 362.344 418.146 386.496 400.574 409.16ZM594.146 442.18C588.874 460.376 576.202 476.272 559.622 485.444C544.926 493.664 527.386 496.48 510.818 493.712C489.718 490.428 470.786 479.232 454.382 466.016C442.326 456.328 431.47 445.256 421.07 433.844C437.49 413.076 452.958 391.348 464.774 367.596C475.086 346.796 482.922 324.26 483.666 300.872C484.086 286.032 481.294 270.92 474.362 257.708C465.286 240.056 449.026 226.496 430.386 219.936C412.974 213.716 393.618 213.16 375.854 218.224C359.102 222.964 343.802 233.032 333.318 246.988C324.09 259.156 318.83 274.116 317.61 289.288C315.734 311.14 321.21 332.94 329.494 353.028C341.81 382.38 359.886 408.948 379.85 433.592C370.848 443.989 361.079 453.696 350.626 462.632C334.418 476.348 315.874 488.288 294.866 492.832C277.882 496.644 259.558 494.748 243.982 486.868C225.738 477.776 211.73 460.652 206.446 440.968C202.406 426.508 203.302 410.896 208.106 396.732C212.102 385.012 217.522 373.844 222.594 362.568C257.802 285.845 294.73 209.923 333.35 134.86C339.11 123.688 344.782 112.464 350.878 101.476C355.854 92.6241 361.642 83.9321 369.822 77.7161C378.667 70.8257 389.608 67.1787 400.818 67.3841C412.338 67.2481 423.79 71.4921 432.602 78.8961C441.306 86.1241 447.186 96.0121 452.466 105.868C464.402 128.288 475.866 150.968 487.334 173.624C520.063 238.403 551.512 303.821 581.662 369.84C586.218 380.096 591.094 390.272 594.162 401.096C597.91 414.444 598.034 428.86 594.146 442.18ZM229.774 584.152C239.63 581.92 250.398 588.42 252.958 598.204C256.138 608.216 249.818 619.856 239.754 622.752C229.922 626.208 218.246 620.2 214.99 610.384C211.902 602.112 215.206 592.128 222.542 587.236C224.729 585.748 227.186 584.7 229.774 584.152ZM296.342 648.78C302.278 642.328 310.642 638.284 319.258 636.996C325.006 636.434 330.807 636.802 336.438 638.084C336.366 647.168 336.422 656.24 336.406 665.328C327.57 663.044 318.002 662.572 309.33 665.764C304.619 667.479 300.374 670.269 296.93 673.912C296.186 674.548 296.366 675.576 296.298 676.46C296.35 701.84 296.258 727.224 296.334 752.6C296.246 753.576 296.482 754.676 296.05 755.592C286.25 755.82 276.438 755.636 266.634 755.672C266.638 716.98 266.602 678.28 266.658 639.588C274.914 639.624 283.174 639.556 291.434 639.604C293.25 639.5 295.186 640.432 295.85 642.204C296.502 644.324 296.294 646.584 296.342 648.78ZM507.654 648.884C515.498 640.768 526.866 636.776 538.022 636.752C549.81 636.456 561.89 639.94 570.998 647.588C577.055 652.339 581.423 658.912 583.458 666.336C586.05 675.38 585.818 684.88 585.786 694.196C585.794 714.692 585.786 735.192 585.794 755.692C575.91 755.676 566.03 755.756 556.146 755.648C556.154 735.164 556.146 714.68 556.154 694.188C556.154 686.576 556.514 678.364 552.466 671.584C549.646 666.72 544.066 664.296 538.686 663.732C528.438 662.092 517.734 666.168 510.67 673.64C509.918 674.392 509.274 675.344 509.358 676.48C509.262 679.648 509.742 682.828 509.47 686C509.082 690.308 509.686 694.616 509.546 698.936C509.419 707.081 509.409 715.227 509.514 723.372C508.954 734.144 509.93 744.952 509.286 755.712C499.442 755.68 489.606 755.704 479.762 755.7C479.758 716.988 479.69 678.284 479.798 639.576C487.41 639.636 495.038 639.576 502.646 639.6C504.614 639.476 506.766 640.576 507.274 642.576C507.738 644.632 507.598 646.772 507.654 648.884ZM218.934 755.696C218.93 716.988 218.874 678.284 218.954 639.58C228.762 639.604 238.566 639.596 248.37 639.588C248.446 678.292 248.39 716.996 248.398 755.692C238.578 755.692 228.758 755.684 218.934 755.696ZM200.666 639.592C192.894 639.576 185.122 639.616 177.342 639.548C175.286 639.536 172.662 639.636 171.658 641.796C170.758 644.016 171.102 646.48 171.022 648.816C164.554 641.932 155.438 637.844 146.086 636.956C131.646 635.66 116.682 639.664 105.086 648.432C95.5338 655.488 88.4738 665.692 84.7778 676.932C82.9978 682.2 82.1058 687.728 81.5378 693.252V701.2C82.3658 717.836 89.7658 734.292 102.674 745.016C112.41 753.264 124.922 757.872 137.598 758.676H144.206C154.254 758 164.174 753.844 171.03 746.356C171.094 748.704 170.762 751.192 171.642 753.44C172.558 755.26 174.718 755.76 176.594 755.688C184.614 755.668 192.646 755.696 200.674 755.652C200.674 716.976 200.698 678.284 200.666 639.592ZM170.114 719.524C164.114 726.708 154.742 730.956 145.382 730.66C135.35 730.736 124.938 726.892 118.438 719.024C112.098 711.512 110.182 701.064 111.622 691.516C112.698 683.788 116.638 676.376 122.862 671.58C128.506 667.124 135.622 664.828 142.746 664.332C153.358 663.404 164.546 668.084 170.93 676.652C171.29 689.268 170.938 701.916 171.098 714.552C170.994 716.216 171.454 718.22 170.114 719.524ZM462.818 672.804C458.25 661.632 450.146 651.92 439.874 645.584C429.294 639 416.606 636.024 404.202 636.868C394.406 637.512 384.834 641.692 378.034 648.836C377.994 627.152 378.034 605.48 378.014 583.796C368.126 583.8 358.23 583.752 348.342 583.824C348.394 641.096 348.258 698.396 348.414 755.664C356.602 755.684 364.798 755.704 372.99 755.684C375.026 755.844 377.222 754.724 377.782 752.664C378.186 750.568 378.038 748.404 378.05 746.28C384.922 753.924 395.018 758.072 405.17 758.684H411.226C427.662 757.86 443.778 750.156 454.094 737.24C468.542 719.524 471.362 693.772 462.818 672.804ZM428.238 721.66C421.614 727.808 412.446 730.756 403.494 730.668C394.154 730.884 384.822 726.592 378.906 719.364C378.174 718.612 377.934 717.596 377.994 716.596C378.002 703.308 378.014 690.024 377.994 676.744C383.674 669.336 392.766 664.72 402.066 664.244C411.494 663.968 421.386 666.736 428.306 673.384C434.898 679.5 438.114 688.672 437.906 697.556C438.098 706.428 434.794 715.54 428.238 721.66ZM706.79 658.436C694.214 642.42 672.714 634.34 652.67 637.336C644.298 638.656 636.366 642.672 630.514 648.832C630.45 627.16 630.514 605.488 630.482 583.808C620.61 583.796 610.746 583.788 600.882 583.816C600.874 641.092 600.882 698.384 600.882 755.668C608.662 755.728 616.462 755.656 624.242 755.728C626.286 755.76 628.842 755.596 629.89 753.508C630.798 751.252 630.458 748.736 630.522 746.364C637.342 753.836 647.218 757.964 657.21 758.692H663.874C680.13 757.808 696.022 750.22 706.318 737.5C714.726 727.356 719.262 714.364 720.014 701.28V693.516C719.082 680.884 714.818 668.34 706.79 658.436ZM683.686 718.324C675.858 728.4 662.046 732.148 649.794 730.192C642.334 728.704 635.098 724.676 630.686 718.388C630.194 713.512 630.638 708.58 630.49 703.68C630.594 694.668 630.266 685.628 630.638 676.632C635.126 670.444 642.31 666.476 649.702 664.836C663.382 662.308 679.286 667.728 686.202 680.36C692.498 692.052 691.87 707.676 683.686 718.324Z" fill="#FF7977"/>
</svg>
