<svg width="250" height="82" viewBox="0 0 250 82" fill="none" xmlns="http://www.w3.org/2000/svg">
<g clip-path="url(#clip0_401_3299)">
<path d="M63.0436 60.3675C42.8037 70 30.2426 61.9408 22.2018 57.0458C21.7043 56.7373 20.8586 57.1179 21.5924 57.9607C24.2711 61.2088 33.0501 69.0376 44.5091 69.0376C55.9761 69.0376 62.7978 62.7807 63.6512 61.6892C64.4988 60.607 63.9001 60.01 63.0434 60.3675H63.0436ZM68.728 57.2283C68.1844 56.5205 65.423 56.3886 63.6851 56.6021C61.9445 56.8094 59.3318 57.8732 59.559 58.5119C59.6755 58.7512 59.9135 58.6438 61.1092 58.5363C62.3082 58.4167 65.667 57.9928 66.3669 58.9077C67.0701 59.829 65.2956 64.2176 64.9716 64.9254C64.6584 65.6331 65.0912 65.8157 65.6793 65.3443C66.2594 64.8731 67.3095 63.6527 68.0142 61.9258C68.7141 60.1894 69.1409 57.7672 68.7278 57.2283H68.728Z" fill="#FF9900"/>
<path fill-rule="evenodd" clip-rule="evenodd" d="M49.4346 40.7125C49.4346 43.2399 49.4984 45.3476 48.221 47.5921C47.1899 49.4172 45.5566 50.5394 43.7318 50.5394C41.2407 50.5394 39.79 48.6415 39.79 45.8404C39.79 40.3109 44.7444 39.3073 49.4346 39.3073V40.7125ZM55.9767 56.5251C55.5478 56.9082 54.9274 56.9357 54.4438 56.6801C52.2905 54.8918 51.9072 54.0616 50.7211 52.3552C47.1626 55.9868 44.6442 57.0725 40.0273 57.0725C34.5709 57.0725 30.3188 53.7056 30.3188 46.9626C30.3188 41.698 33.175 38.112 37.2351 36.3602C40.7572 34.8089 45.6753 34.5352 49.4346 34.1065V33.267C49.4346 31.7249 49.5531 29.9 48.6499 28.5679C47.8559 27.3726 46.3413 26.8799 45.0091 26.8799C42.5365 26.8799 40.3283 28.1481 39.79 30.7759C39.6803 31.36 39.2516 31.9349 38.6677 31.9622L32.3718 31.2871C31.8427 31.1683 31.2588 30.7396 31.4047 29.9273C32.8555 22.2995 39.7442 20 45.9122 20C49.0693 20 53.1935 20.8395 55.6846 23.2302C58.8417 26.1773 58.5405 30.1099 58.5405 34.3892V44.4991C58.5405 47.5375 59.7997 48.8696 60.9858 50.5121C61.4054 51.096 61.4968 51.7988 60.9675 52.2365C59.6445 53.3405 57.2903 55.3936 55.9948 56.5434L55.9765 56.5251" fill="black"/>
<path d="M63.0436 60.3675C42.8037 70 30.2426 61.9408 22.2018 57.0458C21.7043 56.7373 20.8586 57.1179 21.5924 57.9607C24.2711 61.2088 33.0501 69.0376 44.5091 69.0376C55.9761 69.0376 62.7978 62.7807 63.6512 61.6892C64.4988 60.607 63.9001 60.01 63.0434 60.3675H63.0436ZM68.728 57.2283C68.1844 56.5205 65.423 56.3886 63.6851 56.6021C61.9445 56.8094 59.3318 57.8732 59.559 58.5119C59.6755 58.7512 59.9135 58.6438 61.1092 58.5363C62.3082 58.4167 65.667 57.9928 66.3669 58.9077C67.0701 59.829 65.2956 64.2176 64.9716 64.9254C64.6584 65.6331 65.0912 65.8157 65.6793 65.3443C66.2594 64.8731 67.3095 63.6527 68.0142 61.9258C68.7141 60.1894 69.1409 57.7672 68.7278 57.2283H68.728Z" fill="#FF9900"/>
<path fill-rule="evenodd" clip-rule="evenodd" d="M49.4346 40.7125C49.4346 43.2399 49.4984 45.3476 48.221 47.5921C47.1899 49.4172 45.5566 50.5394 43.7318 50.5394C41.2407 50.5394 39.79 48.6415 39.79 45.8404C39.79 40.3109 44.7444 39.3073 49.4346 39.3073V40.7125ZM55.9767 56.5251C55.5478 56.9082 54.9274 56.9357 54.4438 56.6801C52.2905 54.8918 51.9072 54.0616 50.7211 52.3552C47.1626 55.9868 44.6442 57.0725 40.0273 57.0725C34.5709 57.0725 30.3188 53.7056 30.3188 46.9626C30.3188 41.698 33.175 38.112 37.2351 36.3602C40.7572 34.8089 45.6753 34.5352 49.4346 34.1065V33.267C49.4346 31.7249 49.5531 29.9 48.6499 28.5679C47.8559 27.3726 46.3413 26.8799 45.0091 26.8799C42.5365 26.8799 40.3283 28.1481 39.79 30.7759C39.6803 31.36 39.2516 31.9349 38.6677 31.9622L32.3718 31.2871C31.8427 31.1683 31.2588 30.7396 31.4047 29.9273C32.8555 22.2995 39.7442 20 45.9122 20C49.0693 20 53.1935 20.8395 55.6846 23.2302C58.8417 26.1773 58.5405 30.1099 58.5405 34.3892V44.4991C58.5405 47.5375 59.7997 48.8696 60.9858 50.5121C61.4054 51.096 61.4968 51.7988 60.9675 52.2365C59.6445 53.3405 57.2903 55.3936 55.9948 56.5434L55.9765 56.5251" fill="black"/>
</g>
<g clip-path="url(#clip1_401_3299)">
<path d="M168.024 53.5794C162.22 57.8575 153.807 60.1401 146.564 60.1401C136.408 60.1401 127.264 56.3837 120.347 50.136C119.804 49.6448 120.291 48.9751 120.943 49.3577C128.408 53.7011 137.638 56.3141 147.173 56.3141C153.603 56.3141 160.677 54.9837 167.181 52.2229C168.163 51.8054 168.985 52.8663 168.024 53.5794Z" fill="#FF9900"/>
<path d="M170.437 50.8186C169.698 49.8708 165.533 50.3708 163.663 50.5925C163.094 50.6622 163.007 50.1665 163.52 49.8099C166.837 47.4753 172.281 48.1491 172.915 48.9317C173.55 49.7187 172.75 55.1751 169.633 57.7794C169.155 58.1794 168.698 57.9663 168.911 57.4358C169.611 55.688 171.181 51.7708 170.437 50.8186Z" fill="#FF9900"/>
<path d="M163.794 33.3277V31.0582C163.794 30.7147 164.055 30.4843 164.368 30.4843H174.529C174.855 30.4843 175.116 30.719 175.116 31.0582V33.0016C175.111 33.3277 174.837 33.7537 174.35 34.4276L169.085 41.9449C171.042 41.8971 173.107 42.1884 174.881 43.1883C175.281 43.4144 175.39 43.7448 175.42 44.0709V46.4926C175.42 46.823 175.055 47.2099 174.672 47.0099C171.546 45.3709 167.394 45.1926 163.938 47.0273C163.585 47.2187 163.216 46.8361 163.216 46.5056V44.2057C163.216 43.8361 163.22 43.2057 163.59 42.6449L169.69 33.8972H164.381C164.055 33.8972 163.794 33.6668 163.794 33.3277Z" fill="#221F1F"/>
<path d="M126.729 47.4883H123.638C123.342 47.4665 123.108 47.2448 123.086 46.9622V31.0973C123.086 30.7799 123.351 30.5278 123.682 30.5278H126.564C126.864 30.5408 127.103 30.7712 127.125 31.0582V33.1321H127.181C127.934 31.1278 129.347 30.193 131.251 30.193C133.186 30.193 134.394 31.1278 135.264 33.1321C136.012 31.1278 137.712 30.193 139.533 30.193C140.829 30.193 142.246 30.7278 143.112 31.9277C144.09 33.2625 143.89 35.2016 143.89 36.9016L143.885 46.9145C143.885 47.2317 143.62 47.4883 143.29 47.4883H140.203C139.894 47.4665 139.646 47.2188 139.646 46.9145V38.5059C139.646 37.8363 139.707 36.1668 139.56 35.532C139.329 34.4668 138.638 34.1668 137.742 34.1668C136.994 34.1668 136.212 34.6668 135.894 35.4668C135.577 36.2668 135.607 37.6059 135.607 38.5059V46.9145C135.607 47.2317 135.342 47.4883 135.012 47.4883H131.925C131.612 47.4665 131.368 47.2188 131.368 46.9145L131.364 38.5059C131.364 36.7363 131.655 34.132 129.46 34.132C127.238 34.132 127.325 36.6711 127.325 38.5059V46.9145C127.325 47.2317 127.06 47.4883 126.729 47.4883Z" fill="#221F1F"/>
<path d="M183.863 30.193C188.45 30.193 190.933 34.132 190.933 39.1406C190.933 43.9797 188.189 47.8188 183.863 47.8188C179.359 47.8188 176.907 43.8797 176.907 38.9711C176.907 34.032 179.389 30.193 183.863 30.193ZM183.889 33.4321C181.611 33.4321 181.468 36.5363 181.468 38.4711C181.468 40.4102 181.437 44.5492 183.863 44.5492C186.259 44.5492 186.372 41.2102 186.372 39.1754C186.372 37.8363 186.315 36.2363 185.911 34.9668C185.563 33.8625 184.872 33.4321 183.889 33.4321Z" fill="#221F1F"/>
<path d="M196.88 47.4883H193.802C193.493 47.4665 193.246 47.2188 193.246 46.9145L193.241 31.0451C193.267 30.7539 193.524 30.5278 193.837 30.5278H196.702C196.972 30.5408 197.193 30.7234 197.254 30.9712V33.3973H197.311C198.176 31.2278 199.389 30.193 201.524 30.193C202.911 30.193 204.263 30.693 205.132 32.0625C205.941 33.3321 205.941 35.4668 205.941 37.0015V46.9883C205.906 47.2665 205.65 47.4883 205.345 47.4883H202.245C201.963 47.4665 201.728 47.2579 201.698 46.9883V38.3711C201.698 36.6363 201.898 34.0973 199.763 34.0973C199.011 34.0973 198.319 34.6016 197.976 35.3668C197.541 36.3363 197.485 37.3015 197.485 38.3711V46.9145C197.48 47.2317 197.211 47.4883 196.88 47.4883Z" fill="#221F1F"/>
<path d="M115.169 39.9102V39.2406C112.934 39.2406 110.573 39.7189 110.573 42.3536C110.573 43.6884 111.265 44.5927 112.452 44.5927C113.321 44.5927 114.099 44.0579 114.591 43.1884C115.199 42.1188 115.169 41.1145 115.169 39.9102ZM118.286 47.4448C118.082 47.6274 117.786 47.6405 117.556 47.5188C116.53 46.6665 116.347 46.2709 115.782 45.4579C114.086 47.1882 112.886 47.7057 110.687 47.7057C108.087 47.7057 106.061 46.1014 106.061 42.8884C106.061 40.3798 107.421 38.6711 109.356 37.8363C111.034 37.0972 113.378 36.9668 115.169 36.7624V36.3624C115.169 35.6277 115.226 34.7581 114.795 34.1234C114.417 33.5538 113.695 33.319 113.06 33.319C111.882 33.319 110.83 33.9234 110.573 35.1755C110.521 35.4538 110.317 35.7277 110.039 35.7407L107.039 35.419C106.787 35.3625 106.508 35.1581 106.578 34.7712C107.269 31.1365 110.552 30.0408 113.491 30.0408C114.995 30.0408 116.96 30.4408 118.147 31.5799C119.652 32.9842 119.508 34.8581 119.508 36.8972V41.7145C119.508 43.1623 120.108 43.7971 120.673 44.5797C120.873 44.8579 120.917 45.1927 120.665 45.4014C120.034 45.9275 118.912 46.9057 118.295 47.4536L118.286 47.4448Z" fill="#221F1F"/>
<path d="M155.241 39.9102V39.2406C153.007 39.2406 150.646 39.7189 150.646 42.3536C150.646 43.6884 151.337 44.5927 152.524 44.5927C153.394 44.5927 154.172 44.0579 154.663 43.1884C155.272 42.1188 155.241 41.1145 155.241 39.9102ZM158.359 47.4448C158.154 47.6274 157.859 47.6405 157.628 47.5188C156.602 46.6665 156.42 46.2709 155.854 45.4579C154.159 47.1882 152.959 47.7057 150.759 47.7057C148.159 47.7057 146.133 46.1014 146.133 42.8884C146.133 40.3798 147.494 38.6711 149.428 37.8363C151.107 37.0972 153.45 36.9668 155.241 36.7624V36.3624C155.241 35.6277 155.298 34.7581 154.867 34.1234C154.489 33.5538 153.767 33.319 153.133 33.319C151.954 33.319 150.902 33.9234 150.646 35.1755C150.594 35.4538 150.389 35.7277 150.111 35.7407L147.111 35.419C146.859 35.3625 146.581 35.1581 146.65 34.7712C147.341 31.1365 150.624 30.0408 153.563 30.0408C155.067 30.0408 157.033 30.4408 158.22 31.5799C159.724 32.9842 159.58 34.8581 159.58 36.8972V41.7145C159.58 43.1623 160.18 43.7971 160.746 44.5797C160.946 44.8579 160.989 45.1927 160.737 45.4014C160.106 45.9275 158.985 46.9057 158.367 47.4536L158.359 47.4448Z" fill="#221F1F"/>
</g>
<defs>
<clipPath id="clip0_401_3299">
<rect width="50" height="50" fill="white" transform="translate(20 20)"/>
</clipPath>
<clipPath id="clip1_401_3299">
<rect width="100" height="30.1824" fill="white" transform="translate(106 30)"/>
</clipPath>
</defs>
</svg>
