<svg width="250" height="82" viewBox="0 0 250 82" fill="none" xmlns="http://www.w3.org/2000/svg">
<g clip-path="url(#clip0_401_2751)">
<path d="M62.326 25.2419C59.0914 23.7274 55.6331 22.6267 52.0176 22C51.5734 22.8034 51.0547 23.8841 50.6971 24.7437C46.8535 24.1653 43.0453 24.1653 39.2726 24.7437C38.915 23.8841 38.3844 22.8034 37.9365 22C34.3169 22.6267 30.8546 23.7314 27.6202 25.2499C21.0964 35.1161 19.3279 44.7374 20.2122 54.2219C24.5391 57.4558 28.7324 59.4202 32.8549 60.7056C33.8728 59.3037 34.7806 57.8134 35.5627 56.2426C34.0732 55.6761 32.6467 54.9773 31.2987 54.1656C31.6563 53.9006 32.0061 53.6234 32.344 53.3382C40.5656 57.1866 49.4984 57.1866 57.6218 53.3382C57.9636 53.6234 58.3134 53.9006 58.6671 54.1656C57.3152 54.9811 55.8847 55.6802 54.3952 56.2466C55.1773 57.8134 56.0811 59.3077 57.1029 60.7097C61.2294 59.4242 65.4266 57.4598 69.7535 54.2219C70.7911 43.2269 67.9811 33.694 62.326 25.2419ZM36.6827 48.389C34.2147 48.389 32.1908 46.0831 32.1908 43.2752C32.1908 40.4671 34.1715 38.1573 36.6827 38.1573C39.194 38.1573 41.2179 40.4631 41.1747 43.2752C41.1787 46.0831 39.194 48.389 36.6827 48.389ZM53.2831 48.389C50.815 48.389 48.791 46.0831 48.791 43.2752C48.791 40.4671 50.7718 38.1573 53.2831 38.1573C55.7942 38.1573 57.8182 40.4631 57.775 43.2752C57.775 46.0831 55.7942 48.389 53.2831 48.389Z" fill="#5865F2"/>
</g>
<g clip-path="url(#clip1_401_2751)">
<path d="M124.969 32.5749C123.357 31.8375 121.644 31.3 119.857 31C119.632 31.3875 119.382 31.9125 119.207 32.3249C117.306 32.0499 115.418 32.0499 113.543 32.3249C113.368 31.9125 113.106 31.3875 112.893 31C111.093 31.3 109.381 31.8375 107.78 32.5749C104.542 37.3497 103.667 42.0119 104.105 46.6117C106.255 48.1741 108.33 49.1241 110.368 49.7491C110.868 49.0741 111.318 48.3491 111.706 47.5867C110.968 47.3117 110.268 46.9742 109.593 46.5742C109.768 46.4493 109.943 46.3118 110.106 46.1743C114.181 48.0367 118.594 48.0367 122.619 46.1743C122.794 46.3118 122.957 46.4493 123.132 46.5742C122.457 46.9742 121.757 47.3117 121.019 47.5867C121.407 48.3491 121.857 49.0741 122.357 49.7491C124.394 49.1241 126.481 48.1741 128.62 46.6117C129.157 41.287 127.769 36.6623 124.969 32.5749ZM112.268 43.7744C111.043 43.7744 110.043 42.6619 110.043 41.2995C110.043 39.9371 111.018 38.8246 112.268 38.8246C113.506 38.8246 114.518 39.9371 114.493 41.2995C114.493 42.6619 113.506 43.7744 112.268 43.7744ZM120.482 43.7744C119.257 43.7744 118.255 42.6619 118.255 41.2995C118.255 39.9371 119.232 38.8246 120.482 38.8246C121.719 38.8246 122.732 39.9371 122.707 41.2995C122.707 42.6619 121.732 43.7744 120.482 43.7744Z" fill="#5862E3"/>
<path d="M137.282 34.9243H142.596C143.871 34.9243 144.958 35.1243 145.846 35.5243C146.733 35.9243 147.396 36.4743 147.833 37.1867C148.27 37.8992 148.495 38.7116 148.495 39.6366C148.495 40.5366 148.271 41.3491 147.808 42.0865C147.346 42.8115 146.646 43.3989 145.708 43.8239C144.771 44.2489 143.608 44.4614 142.221 44.4614H137.282V34.9243ZM142.158 42.0365C143.021 42.0365 143.683 41.824 144.146 41.3866C144.608 40.9616 144.846 40.3616 144.846 39.6241C144.846 38.9366 144.633 38.3866 144.221 37.9742C143.808 37.5617 143.183 37.3492 142.346 37.3492H140.683V42.0365H142.158Z" fill="#5862E3"/>
<path d="M156.771 44.4495C156.034 44.262 155.371 43.987 154.784 43.612V41.3496C155.234 41.6996 155.821 41.9746 156.571 42.1996C157.321 42.4246 158.046 42.5371 158.746 42.5371C159.071 42.5371 159.321 42.4996 159.483 42.4121C159.646 42.3246 159.733 42.2246 159.733 42.0996C159.733 41.9621 159.683 41.8496 159.596 41.7621C159.508 41.6746 159.333 41.5996 159.071 41.5246L157.434 41.1622C156.496 40.9497 155.834 40.6372 155.434 40.2622C155.034 39.8872 154.846 39.3748 154.846 38.7497C154.846 38.2247 155.021 37.7623 155.359 37.3748C155.709 36.9873 156.196 36.6873 156.834 36.4748C157.471 36.2624 158.209 36.1499 159.071 36.1499C159.833 36.1499 160.533 36.2249 161.171 36.3999C161.808 36.5623 162.333 36.7748 162.746 37.0248V39.1623C162.321 38.9122 161.821 38.7122 161.271 38.5622C160.708 38.4122 160.133 38.3372 159.546 38.3372C158.696 38.3372 158.271 38.4872 158.271 38.7747C158.271 38.9122 158.334 39.0122 158.471 39.0873C158.609 39.1623 158.846 39.2248 159.196 39.2998L160.558 39.5498C161.446 39.6997 162.108 39.9747 162.546 40.3622C162.983 40.7497 163.196 41.3121 163.196 42.0746C163.196 42.8996 162.833 43.562 162.108 44.037C161.383 44.5245 160.358 44.762 159.033 44.762C158.259 44.737 157.509 44.637 156.771 44.4495Z" fill="#5862E3"/>
<path d="M166.572 44.1625C165.797 43.775 165.197 43.2625 164.81 42.6125C164.41 41.9625 164.222 41.225 164.222 40.4C164.222 39.5876 164.422 38.8502 164.835 38.2127C165.247 37.5627 165.847 37.0627 166.635 36.6878C167.422 36.3253 168.372 36.1378 169.472 36.1378C170.834 36.1378 171.959 36.4253 172.859 37.0002V39.4876C172.547 39.2751 172.172 39.0876 171.747 38.9627C171.322 38.8252 170.872 38.7627 170.397 38.7627C169.547 38.7627 168.897 38.9127 168.41 39.2251C167.935 39.5376 167.697 39.9376 167.697 40.4375C167.697 40.925 167.922 41.325 168.397 41.6375C168.859 41.95 169.534 42.1125 170.409 42.1125C170.859 42.1125 171.309 42.05 171.747 41.9125C172.184 41.775 172.572 41.625 172.884 41.425V43.8375C171.884 44.4375 170.722 44.7374 169.409 44.7374C168.297 44.7374 167.36 44.5375 166.572 44.1625Z" fill="#5862E3"/>
<path d="M176.422 44.1625C175.635 43.775 175.035 43.2625 174.623 42.6C174.21 41.9375 173.998 41.2 173.998 40.375C173.998 39.5626 174.21 38.8252 174.623 38.1877C175.035 37.5502 175.635 37.0502 176.41 36.6878C177.185 36.3253 178.122 36.1378 179.199 36.1378C180.274 36.1378 181.211 36.3128 181.986 36.6878C182.761 37.0502 183.361 37.5502 183.773 38.1877C184.186 38.8252 184.386 39.5501 184.386 40.375C184.386 41.1875 184.186 41.9375 183.773 42.6C183.361 43.2625 182.773 43.7875 181.986 44.1625C181.198 44.5375 180.274 44.7374 179.199 44.7374C178.135 44.7374 177.21 44.5375 176.422 44.1625ZM180.561 41.75C180.886 41.4251 181.061 40.975 181.061 40.4375C181.061 39.8876 180.898 39.4626 180.561 39.1376C180.224 38.8127 179.774 38.6502 179.211 38.6502C178.624 38.6502 178.172 38.8127 177.835 39.1376C177.51 39.4626 177.335 39.8876 177.335 40.4375C177.335 40.9875 177.497 41.4251 177.835 41.75C178.172 42.0875 178.624 42.25 179.211 42.25C179.774 42.2375 180.236 42.075 180.561 41.75Z" fill="#5862E3"/>
<path d="M192.748 36.6372V39.5746C192.398 39.3496 191.948 39.2371 191.398 39.2371C190.673 39.2371 190.11 39.4621 189.723 39.8995C189.335 40.337 189.135 41.0245 189.135 41.9495V44.4494H185.798V36.4997H189.073V39.0371C189.248 38.1121 189.548 37.4247 189.948 36.9872C190.348 36.5497 190.873 36.3123 191.51 36.3123C191.985 36.3123 192.398 36.4248 192.748 36.6372Z" fill="#5862E3"/>
<path d="M204 34.6497V44.4616H200.663V42.6742C200.375 43.3492 199.95 43.8617 199.375 44.2117C198.799 44.5617 198.086 44.7367 197.236 44.7367C196.486 44.7367 195.824 44.5492 195.261 44.1867C194.699 43.8242 194.262 43.3117 193.962 42.6742C193.662 42.0243 193.512 41.2993 193.512 40.4994C193.499 39.6619 193.662 38.912 193.999 38.2495C194.324 37.5871 194.799 37.0746 195.399 36.6996C195.999 36.3246 196.686 36.1371 197.461 36.1371C199.049 36.1371 200.113 36.8246 200.663 38.212V34.6497H204ZM200.163 41.6868C200.5 41.3618 200.675 40.9243 200.675 40.3994C200.675 39.8869 200.513 39.4744 200.175 39.162C199.838 38.8495 199.388 38.687 198.824 38.687C198.261 38.687 197.811 38.8495 197.474 39.1745C197.136 39.4994 196.974 39.9119 196.974 40.4369C196.974 40.9618 197.136 41.3743 197.474 41.6993C197.811 42.0243 198.249 42.1868 198.811 42.1868C199.375 42.1868 199.825 42.0243 200.163 41.6868Z" fill="#5862E3"/>
<path d="M151.571 36.9751C152.53 36.9751 153.309 36.2755 153.309 35.4126C153.309 34.5497 152.53 33.8502 151.571 33.8502C150.611 33.8502 149.834 34.5497 149.834 35.4126C149.834 36.2755 150.611 36.9751 151.571 36.9751Z" fill="#5862E3"/>
<path d="M153.309 38.0492C152.246 38.5116 150.921 38.5241 149.834 38.0492V44.4614H153.309V38.0492Z" fill="#5862E3"/>
</g>
<defs>
<clipPath id="clip0_401_2751">
<rect width="50" height="38.7097" fill="white" transform="translate(20 22)"/>
</clipPath>
<clipPath id="clip1_401_2751">
<rect width="100" height="19.3548" fill="white" transform="translate(104 31)"/>
</clipPath>
</defs>
</svg>
