<svg width="250" height="82" viewBox="0 0 250 82" fill="none" xmlns="http://www.w3.org/2000/svg">
<g clip-path="url(#clip0_401_2583)">
<path d="M147.478 35.3848C143.953 35.3848 141.017 36.8799 141.017 41.3908C141.017 44.9645 142.991 47.2149 147.569 47.2149C152.956 47.2149 153.302 43.6659 153.302 43.6659H150.691C150.691 43.6659 150.131 45.5769 147.409 45.5769C145.192 45.5769 143.598 44.0792 143.598 41.9801H153.575V40.6628C153.575 38.5861 152.256 35.3848 147.478 35.3848ZM147.387 37.0683C149.497 37.0683 150.936 38.3611 150.936 40.2988H143.656C143.656 38.2417 145.533 37.0683 147.387 37.0683Z" fill="#E53238"/>
<path d="M153.573 31.0167V44.9496C153.573 45.7404 153.517 46.8509 153.517 46.8509H156.007C156.007 46.8509 156.096 46.0533 156.096 45.3245C156.096 45.3245 157.326 47.249 160.671 47.249C164.194 47.249 166.586 44.8035 166.586 41.2998C166.586 38.0404 164.388 35.4189 160.677 35.4189C157.201 35.4189 156.121 37.2958 156.121 37.2958V31.0167H153.573ZM160.034 37.1422C162.426 37.1422 163.947 38.9175 163.947 41.2998C163.947 43.8545 162.19 45.5257 160.051 45.5257C157.498 45.5257 156.121 43.5324 156.121 41.3226C156.121 39.2635 157.357 37.1422 160.034 37.1422Z" fill="#0064D2"/>
<path d="M172.774 35.3848C167.472 35.3848 167.132 38.2879 167.132 38.7518H169.771C169.771 38.7518 169.909 37.0569 172.592 37.0569C174.335 37.0569 175.686 37.8548 175.686 39.3888V39.9348H172.592C168.485 39.9348 166.313 41.1364 166.313 43.5749C166.313 45.9746 168.319 47.2803 171.031 47.2803C174.726 47.2803 175.916 45.2385 175.916 45.2385C175.916 46.0506 175.979 46.8509 175.979 46.8509H178.325C178.325 46.8509 178.234 45.8589 178.234 45.2243V39.7386C178.234 36.1417 175.333 35.3848 172.774 35.3848ZM175.686 41.5728V42.3008C175.686 43.2504 175.1 45.611 171.651 45.611C169.762 45.611 168.952 44.6683 168.952 43.5749C168.952 41.5856 171.679 41.5728 175.686 41.5728Z" fill="#F5AF02"/>
<path d="M176.813 35.8402H179.782L184.043 44.3764L188.294 35.8402H190.983L183.24 51.0374H180.419L182.653 46.801L176.813 35.8402Z" fill="#86B817"/>
</g>
<g clip-path="url(#clip1_401_2583)">
<path d="M32.9554 29.7694C25.9068 29.7694 20.0332 32.7598 20.0332 41.7815C20.0332 48.9288 23.9828 53.4297 33.1374 53.4297C43.9127 53.4297 44.6035 46.3316 44.6035 46.3316H39.3823C39.3823 46.3316 38.2628 50.1536 32.8189 50.1536C28.3849 50.1536 25.1958 47.1584 25.1958 42.96H45.1495V40.3255C45.1495 36.1721 42.5128 29.7694 32.9554 29.7694ZM32.7734 33.1364C36.994 33.1364 39.8714 35.7221 39.8714 39.5975H25.3113C25.3113 35.4833 29.067 33.1364 32.7734 33.1364Z" fill="#E53238"/>
<path d="M45.1461 21.0333V48.899C45.1461 50.4807 45.0332 52.7017 45.0332 52.7017H50.0131C50.0131 52.7017 50.1919 51.1066 50.1919 49.6488C50.1919 49.6488 52.6523 53.498 59.3423 53.498C66.3871 53.498 71.1724 48.6069 71.1724 41.5996C71.1724 35.0807 66.777 29.8377 59.3536 29.8377C52.4022 29.8377 50.2422 33.5915 50.2422 33.5915V21.0333H45.1461ZM58.0682 33.2843C62.8522 33.2843 65.8943 36.8349 65.8943 41.5996C65.8943 46.7088 62.3808 50.0513 58.1024 50.0513C52.9964 50.0513 50.2422 46.0646 50.2422 41.6451C50.2422 37.5269 52.7136 33.2843 58.0682 33.2843Z" fill="#0064D2"/>
<path d="M83.5481 29.7694C72.9441 29.7694 72.264 35.5757 72.264 36.5035H77.5421C77.5421 36.5035 77.8188 33.1137 83.1841 33.1137C86.6706 33.1137 89.3722 34.7095 89.3722 37.7775V38.8695H83.1841C74.969 38.8695 70.626 41.2728 70.626 46.1496C70.626 50.9491 74.6388 53.5605 80.0617 53.5605C87.4521 53.5605 89.8329 49.4768 89.8329 49.4768C89.8329 51.1011 89.9581 52.7017 89.9581 52.7017H94.6503C94.6503 52.7017 94.4683 50.7177 94.4683 49.4484V38.4771C94.4683 31.2833 88.6658 29.7694 83.5481 29.7694ZM89.3722 42.1456V43.6016C89.3722 45.5006 88.2004 50.2219 81.3015 50.2219C77.5238 50.2219 75.904 48.3365 75.904 46.1496C75.904 42.1712 81.3586 42.1456 89.3722 42.1456Z" fill="#F5AF02"/>
<path d="M91.6265 30.6804H97.5643L106.086 47.7529L114.588 30.6804H119.967L104.48 61.0748H98.8383L103.307 52.6019L91.6265 30.6804Z" fill="#86B817"/>
</g>
<defs>
<clipPath id="clip0_401_2583">
<rect width="50" height="20.054" fill="white" transform="translate(141 31)"/>
</clipPath>
<clipPath id="clip1_401_2583">
<rect width="100" height="40.108" fill="white" transform="translate(20 21)"/>
</clipPath>
</defs>
</svg>
