<svg width="801" height="800" viewBox="0 0 801 800" fill="none" xmlns="http://www.w3.org/2000/svg">
<g clip-path="url(#clip0_1_93)">
<path d="M86.4592 347.309V240.073C86.4592 236.099 86.8557 233.716 93.6112 233.716H184.562C200.451 233.716 209.189 247.222 215.546 272.64L220.708 292.899H236.197C238.974 235.311 241.355 210.287 241.355 210.287C241.355 210.287 202.433 214.655 179.397 214.655H63.0308L0.664307 212.668V229.351L21.719 233.322C36.4146 236.104 39.9823 239.277 41.1833 252.786C41.1833 252.786 42.3773 292.503 42.3773 358.041C42.3773 423.569 41.1833 462.894 41.1833 462.894C41.1833 474.808 36.4146 479.175 21.719 481.964L0.664307 485.938V502.611L63.0308 500.629H167.091C190.525 500.629 244.937 502.611 244.937 502.611C246.124 488.309 254.073 423.569 255.265 416.429H240.569L225.078 451.778C212.764 479.574 194.895 481.563 175.031 481.563H115.848C95.9873 481.563 86.4545 473.618 86.4545 456.542V365.983C86.4545 365.983 129.746 365.983 144.836 367.177C155.959 367.974 162.707 371.15 166.287 386.639L171.055 407.292H188.125L186.938 355.256L189.319 302.833H172.245L166.688 325.867C163.108 340.959 160.73 343.746 145.237 345.329C127.764 347.321 86.4522 346.922 86.4522 346.922V347.316H86.4592V347.309ZM321.985 251.196C316.423 275.82 310.862 294.884 291.4 307.595C279.486 315.535 267.568 318.312 262.808 318.711V333.803H298.155V455.735C298.155 489.897 320.798 506.582 350.979 506.582C374.415 506.582 398.639 496.653 406.982 475.994L398.639 465.27C394.665 472.026 381.963 481.952 366.074 481.952C348.601 481.952 339.068 470.034 339.068 439.855V332.222L397.855 336.594L401.029 309.579L339.071 311.965V251.59L321.985 251.196ZM447.496 438.746L432.404 439.142C433.197 447.878 433.598 459.003 433.598 469.329C433.598 480.053 433.202 489.982 432.404 494.746C432.404 494.746 462.591 505.858 493.173 505.858C534.481 505.858 567.449 485.999 567.449 447.075C567.449 380.358 467.36 390.289 467.36 345.4C467.36 326.736 484.039 319.584 502.31 319.584C516.609 319.584 528.523 324.747 530.906 332.3L540.837 362.087L555.535 361.294C556.729 345.405 557.52 327.135 559.905 312.441C547.192 306.88 520.578 303.697 503.91 303.697C464.976 303.697 433.606 320.778 433.606 358.909C433.606 425.235 531.307 411.731 531.307 460.591C531.307 478.059 520.578 490.374 496.357 490.374C474.12 490.374 462.994 478.859 458.634 467.335L447.496 438.746ZM686.885 484.631C663.89 548.861 635.743 565.501 610.372 565.501C599.662 565.501 594.513 560.739 592.921 553.219L586.975 522.287L570.32 523.08C567.149 541.32 563.978 561.546 559.622 578.193C569.535 585.716 586.177 589.689 599.266 589.689C626.628 589.689 668.251 586.114 706.304 495.728L770.138 345.079C775.296 332.786 777.271 331.597 792.337 325.646L800.664 322.481V308.605L762.998 310.587L722.562 308.605V322.481L732.864 325.646C743.168 328.824 747.934 332.786 747.934 339.924C747.934 343.489 746.74 347.059 744.754 352.604C738.808 367.68 701.936 457.273 692.036 476.308L701.934 472.734C684.487 429.522 657.937 357.361 653.968 345.082C653.175 342.701 652.779 340.719 652.779 338.727C652.779 332.387 657.139 327.231 666.656 325.252L679.74 322.484V308.607L625.419 310.589L582.208 308.607V322.484L589.346 324.86C599.256 328.031 601.637 330.808 607.583 344.683C640.478 420.013 655.95 461.238 676.953 515.161L686.885 484.631Z" fill="#F27224"/>
</g>
<defs>
<clipPath id="clip0_1_93">
<rect width="800" height="800" fill="white" transform="translate(0.666748)"/>
</clipPath>
</defs>
</svg>
