<svg width="100" height="23" viewBox="0 0 100 23" fill="none" xmlns="http://www.w3.org/2000/svg">
<g clipPath="url(#clip0_401_2572)">
<path d="M21.229 14.4125C23.1722 8.71972 20.1324 2.52985 14.4396 0.586681C8.74688 -1.35607 2.55698 1.68382 0.614232 7.37611C-1.32894 13.0689 1.71095 19.2587 7.40369 21.2019C13.0965 23.1447 19.2863 20.1048 21.229 14.4125Z" fill="black"/>
<path d="M1.69948 16.6893C3.39451 15.8805 9.16348 13.0489 10.3004 12.3825C11.2341 11.8383 12.6247 11.0359 12.6247 11.0359L13.2145 12.238L14.1152 18.1624L14.8033 17.7652L15.2606 9.49031C16.6508 8.62142 17.8754 7.7758 19.1572 6.89124C19.6272 6.56689 20.1048 6.23703 20.6006 5.89912C20.4435 5.59552 20.2725 5.29953 20.0883 5.01286C19.5476 5.27328 19.0233 5.52183 18.508 5.76658C17.1005 6.43436 15.756 7.07205 14.3083 7.84101L6.91374 4.10034L6.22564 4.49753L10.906 8.23948L11.6508 9.34934L11.652 9.35142C11.652 9.35142 10.2619 10.1543 9.32354 10.6912C8.17813 11.3425 2.84023 14.9235 1.29297 15.9864C1.42 16.226 1.5555 16.4602 1.69948 16.6893Z" fill="#FFC94C"/>
<path d="M97.7598 8.47037V7.27502H99.8667V18.1663H97.6986V16.9295C96.9257 17.8306 95.8375 18.4255 94.2653 18.4255C91.1688 18.4255 89.1792 15.9577 89.1792 12.7272C89.1792 9.51884 91.1688 7.02856 94.2653 7.02856C95.641 7.02856 96.9167 7.54773 97.7598 8.47037ZM97.6139 10.6079C96.9723 9.65815 95.8868 9.07377 94.6111 9.07377C92.6938 9.07377 91.3736 10.6968 91.3736 12.7272C91.3736 14.7577 92.6459 16.429 94.6111 16.429C95.9243 16.429 96.9861 15.6807 97.6139 14.7111V10.6079Z" fill="black"/>
<path d="M84.8154 4.47096C84.8154 3.63381 85.5008 2.95715 86.3474 2.95715C87.1668 2.95715 87.8613 3.6516 87.8613 4.47096C87.8613 5.31699 87.1842 6.00255 86.3474 6.00255C85.5008 6.00255 84.8154 5.31699 84.8154 4.47096Z" fill="black"/>
<path d="M85.2119 18.1668H87.4647V7.27454H85.2119V18.1668Z" fill="black"/>
<path d="M80.8092 3.23621H83.0127V18.1663H80.8446V16.9294C80.0717 17.8305 78.9842 18.4255 77.4113 18.4255C74.3148 18.4255 72.3252 15.9577 72.3252 12.7272C72.3252 9.5188 74.3148 7.02853 77.4113 7.02853C78.7356 7.02853 79.9669 7.50957 80.8092 8.3679V3.23621ZM80.7606 10.6079C80.1189 9.65811 79.0335 9.0738 77.7571 9.0738C75.8405 9.0738 74.5203 10.6968 74.5203 12.7272C74.5203 14.7576 75.7919 16.4289 77.7571 16.4289C79.0703 16.4289 80.1328 15.6807 80.7606 14.711V10.6079Z" fill="black"/>
<path fillRule="evenodd" clipRule="evenodd" d="M68.6568 17.8914C67.8548 18.2568 66.9622 18.441 65.9785 18.4435C62.7362 18.4402 60.395 16.0515 60.395 12.7178C60.395 9.44924 62.7396 6.99243 65.8502 6.99243C68.9384 6.99243 71.17 9.51701 71.17 12.6276C71.17 12.8897 71.1603 13.1488 71.1409 13.4088L71.1402 13.4151C71.1388 13.4372 71.1374 13.4596 71.1353 13.4817H62.6659C62.8777 15.15 64.3415 16.4174 66.0234 16.4174C66.7356 16.4174 67.3678 16.2776 67.9229 16.0007C68.4827 15.7065 68.9854 15.3427 69.4321 14.868L69.4351 14.8647L70.7804 16.2984C70.1721 16.992 69.4638 17.523 68.6568 17.8914ZM65.8036 8.97583C67.4047 8.97583 68.6504 10.1056 68.8677 11.6206H62.7197C62.8201 10.9838 63.1825 10.3359 63.7144 9.84007C64.2686 9.32306 65.002 8.97583 65.8036 8.97583Z" fill="black"/>
<path d="M50.8343 17.0745V22.2063H48.6299V7.27613H50.7979V8.51301C51.5715 7.61231 52.6589 7.01697 54.2315 7.01697C57.3278 7.01697 59.3179 9.48481 59.3179 12.7152C59.3179 15.9236 57.3278 18.4139 54.2315 18.4139C52.9075 18.4139 51.6761 17.9333 50.8343 17.0745ZM50.883 14.8345C51.5245 15.7843 52.6098 16.3687 53.8861 16.3687C55.8025 16.3687 57.1232 14.7456 57.1232 12.7152C57.1232 10.6852 55.8512 9.0135 53.8861 9.0135C52.5729 9.0135 51.5105 9.76169 50.883 10.7318V14.8345Z" fill="black"/>
<path d="M40.8133 12.5671L36.9714 7.27539H39.6912L42.2534 10.8848L44.8161 7.27539H47.4994L43.641 12.59L47.6782 18.1667H44.9558L42.2246 14.3121L39.4939 18.1667H36.7593L40.8133 12.5671Z" fill="black"/>
<path d="M29.7139 11.777H35.372V9.63987H29.7139V5.75735H35.8615V3.62024H27.2524V18.1667H35.9063V16.0296H29.7139V11.777Z" fill="black"/>
</g>
<defs>
<clipPath id="clip0_401_2572">
<rect width="100" height="22.2222" fill="white"/>
</clipPath>
</defs>
</svg>
