<svg width="250" height="82" viewBox="0 0 250 82" fill="none" xmlns="http://www.w3.org/2000/svg">
<g clip-path="url(#clip0_401_2565)">
<path d="M66.8368 63.8148C65.4737 63.8148 64.6314 62.7493 64.6314 61.4457C64.6314 60.0498 65.5957 59.0767 66.8368 59.0767C68.0659 59.0767 69.0273 60.0498 69.0273 61.4457C69.0273 62.8446 68.0659 63.8148 66.8368 63.8148ZM66.8368 58.8088C65.4409 58.8088 64.2476 59.8593 64.2476 61.4457C64.2476 62.9457 65.3249 64.0736 66.8368 64.0736C68.2147 64.0736 69.4142 63.0291 69.4142 61.4457C69.4142 59.8593 68.2147 58.8088 66.8368 58.8088Z" fill="#072F54"/>
<path d="M66.2174 61.2285V60.2671H66.8662C67.1936 60.2671 67.5805 60.3178 67.5805 60.7166C67.5805 61.1897 67.2234 61.2285 66.8157 61.2285H66.2174ZM68.0598 60.779C68.0598 60.1512 67.6729 59.8833 66.9229 59.8833H65.7412V62.9993H66.2562V61.6659H66.7324L67.5388 62.9993H68.1193L67.2443 61.6302C67.7174 61.5738 68.0598 61.3445 68.0598 60.779Z" fill="#072F54"/>
<path d="M49.0467 35.071L48.0467 32.2406L39.5645 20.9043L41.0883 20.5263L55.7133 33.1692L64.3205 30.7079C65.3324 30.446 66.4812 30.3894 67.3562 30.3954C64.6507 24.5621 59.7014 19.7734 53.1657 17.446C40.246 12.8418 26.0406 19.5918 21.4454 32.5174C20.0228 36.5144 19.6835 40.6395 20.2817 44.5621L40.9008 37.3984L49.0467 35.071Z" fill="#072F54"/>
<path d="M68.2618 32.63C67.5058 33.1211 66.3956 33.7639 65.2944 34.1181L56.6694 36.5794L50.9134 55.0557L49.4194 55.5407L50.6337 41.4307L49.9551 38.4991L41.8719 40.8057L20.5088 45.8355C22.1993 54.0586 28.0207 61.2193 36.5058 64.2431C49.4284 68.8474 63.6277 62.0943 68.223 49.1776C70.2051 43.6093 70.0773 37.7996 68.2618 32.63Z" fill="#072F54"/>
<path d="M49.9548 38.5005L50.6364 41.4291L49.4191 55.5391L50.9131 55.0541L56.6691 36.5808L65.2941 34.1195C66.3953 33.7654 67.5055 33.1166 68.2614 32.6314C67.9964 31.8725 67.6929 31.1255 67.3567 30.3963C66.4817 30.3904 65.3329 30.4499 64.321 30.7058L55.7138 33.1731L41.0858 20.5243L39.565 20.9052L48.0441 32.2416L49.0472 35.0689L40.8983 37.4023L20.2822 44.56C20.3477 44.9886 20.4221 45.4141 20.5084 45.8367L41.8745 40.8069L49.9548 38.5005Z" fill="#FBC108"/>
</g>
<g clip-path="url(#clip1_401_2565)">
<path d="M123.229 44.4125C125.172 38.7197 122.132 32.5299 116.44 30.5867C110.747 28.6439 104.557 31.6838 102.614 37.3761C100.671 43.0689 103.711 49.2587 109.404 51.2019C115.096 53.1447 121.286 50.1048 123.229 44.4125Z" fill="black"/>
<path d="M103.699 46.6893C105.395 45.8805 111.163 43.0489 112.3 42.3825C113.234 41.8383 114.625 41.0359 114.625 41.0359L115.215 42.238L116.115 48.1624L116.803 47.7652L117.261 39.4903C118.651 38.6214 119.875 37.7758 121.157 36.8912C121.627 36.5669 122.105 36.237 122.601 35.8991C122.444 35.5955 122.273 35.2995 122.088 35.0129C121.548 35.2733 121.023 35.5218 120.508 35.7666C119.1 36.4344 117.756 37.072 116.308 37.841L108.914 34.1003L108.226 34.4975L112.906 38.2395L113.651 39.3493L113.652 39.3514C113.652 39.3514 112.262 40.1543 111.324 40.6912C110.178 41.3425 104.84 44.9235 103.293 45.9864C103.42 46.226 103.556 46.4602 103.699 46.6893Z" fill="#FFC94C"/>
<path d="M199.76 38.4704V37.275H201.867V48.1663H199.699V46.9295C198.926 47.8306 197.838 48.4255 196.265 48.4255C193.169 48.4255 191.179 45.9577 191.179 42.7272C191.179 39.5188 193.169 37.0286 196.265 37.0286C197.641 37.0286 198.917 37.5477 199.76 38.4704ZM199.614 40.6079C198.972 39.6581 197.887 39.0738 196.611 39.0738C194.694 39.0738 193.374 40.6968 193.374 42.7272C193.374 44.7577 194.646 46.429 196.611 46.429C197.924 46.429 198.986 45.6807 199.614 44.7111V40.6079Z" fill="black"/>
<path d="M186.815 34.471C186.815 33.6338 187.501 32.9572 188.347 32.9572C189.167 32.9572 189.861 33.6516 189.861 34.471C189.861 35.317 189.184 36.0025 188.347 36.0025C187.501 36.0025 186.815 35.317 186.815 34.471Z" fill="black"/>
<path d="M187.212 48.1668H189.465V37.2745H187.212V48.1668Z" fill="black"/>
<path d="M182.809 33.2362H185.013V48.1663H182.845V46.9294C182.072 47.8305 180.984 48.4255 179.411 48.4255C176.315 48.4255 174.325 45.9577 174.325 42.7272C174.325 39.5188 176.315 37.0285 179.411 37.0285C180.736 37.0285 181.967 37.5096 182.809 38.3679V33.2362ZM182.761 40.6079C182.119 39.6581 181.034 39.0738 179.757 39.0738C177.84 39.0738 176.52 40.6968 176.52 42.7272C176.52 44.7576 177.792 46.4289 179.757 46.4289C181.07 46.4289 182.133 45.6807 182.761 44.711V40.6079Z" fill="black"/>
<path fill-rule="evenodd" clip-rule="evenodd" d="M170.657 47.8914C169.855 48.2568 168.962 48.441 167.978 48.4435C164.736 48.4402 162.395 46.0515 162.395 42.7178C162.395 39.4492 164.74 36.9924 167.85 36.9924C170.938 36.9924 173.17 39.517 173.17 42.6276C173.17 42.8897 173.16 43.1488 173.141 43.4088L173.14 43.4151C173.139 43.4372 173.137 43.4596 173.135 43.4817H164.666C164.878 45.15 166.341 46.4174 168.023 46.4174C168.736 46.4174 169.368 46.2776 169.923 46.0007C170.483 45.7065 170.985 45.3427 171.432 44.868L171.435 44.8647L172.78 46.2984C172.172 46.992 171.464 47.523 170.657 47.8914ZM167.804 38.9758C169.405 38.9758 170.65 40.1056 170.868 41.6206H164.72C164.82 40.9838 165.183 40.3359 165.714 39.8401C166.269 39.3231 167.002 38.9758 167.804 38.9758Z" fill="black"/>
<path d="M152.834 47.0745V52.2063H150.63V37.2761H152.798V38.513C153.571 37.6123 154.659 37.017 156.232 37.017C159.328 37.017 161.318 39.4848 161.318 42.7152C161.318 45.9236 159.328 48.4139 156.232 48.4139C154.907 48.4139 153.676 47.9333 152.834 47.0745ZM152.883 44.8345C153.524 45.7843 154.61 46.3687 155.886 46.3687C157.803 46.3687 159.123 44.7456 159.123 42.7152C159.123 40.6852 157.851 39.0135 155.886 39.0135C154.573 39.0135 153.511 39.7617 152.883 40.7318V44.8345Z" fill="black"/>
<path d="M142.813 42.5671L138.971 37.2754H141.691L144.253 40.8848L146.816 37.2754H149.499L145.641 42.59L149.678 48.1667H146.956L144.225 44.3121L141.494 48.1667H138.759L142.813 42.5671Z" fill="black"/>
<path d="M131.714 41.777H137.372V39.6399H131.714V35.7574H137.861V33.6202H129.252V48.1667H137.906V46.0296H131.714V41.777Z" fill="black"/>
</g>
<defs>
<clipPath id="clip0_401_2565">
<rect width="50" height="50" fill="white" transform="translate(20 16)"/>
</clipPath>
<clipPath id="clip1_401_2565">
<rect width="100" height="22.2222" fill="white" transform="translate(102 30)"/>
</clipPath>
</defs>
</svg>
