<svg width="250" height="82" viewBox="0 0 250 82" fill="none" xmlns="http://www.w3.org/2000/svg">
<path d="M42.5639 52.8567C43.3115 52.8567 43.9843 53.4571 43.9843 54.2825C43.9843 55.0327 43.3863 55.7081 42.5639 55.7081C41.8164 55.7081 41.1436 55.1077 41.1436 54.2825C41.1436 53.4571 41.8164 52.8567 42.5639 52.8567ZM64.5422 44.1532C63.7947 44.1532 63.1219 43.553 63.1219 42.7276C63.1219 41.9774 63.7199 41.302 64.5422 41.302C65.2898 41.302 65.9626 41.9024 65.9626 42.7276C65.9626 43.478 65.2898 44.1532 64.5422 44.1532ZM64.5422 38.3759C62.15 38.3759 60.2064 40.3266 60.2064 42.7276C60.2064 43.1778 60.2811 43.6281 60.4306 44.0782L46.1522 51.7314C45.3299 50.5309 43.9843 49.8556 42.5639 49.8556C40.9193 49.8556 39.4242 50.831 38.6766 52.2566L25.8186 45.5038C24.473 44.7535 23.4264 42.5776 23.576 40.4767C23.6507 39.4263 24.0245 38.6009 24.5478 38.3009C24.9216 38.0758 25.2953 38.1508 25.8186 38.3759C29.2574 40.1766 40.4708 46.1041 40.9193 46.3292C41.6669 46.6292 42.0406 46.7793 43.3115 46.1791L66.3364 34.1741C66.7102 34.0241 67.0839 33.724 67.0839 33.1988C67.0839 32.5235 66.4111 32.2233 66.4111 32.2233C65.0655 31.6231 63.0471 30.6477 61.1035 29.7473C56.9171 27.7965 52.1327 25.5456 50.0396 24.4201C48.2454 23.4447 46.7503 24.2701 46.526 24.4201C37.032 29.2221 23.9497 35.6748 23.2022 36.1249C21.9313 36.8752 21.109 38.4509 21.0343 40.4016C20.8847 43.478 22.4546 46.7043 24.6973 47.8298L38.3028 54.8827C38.6019 56.9836 40.4708 58.6342 42.5639 58.6342C44.9561 58.6342 46.825 56.7585 46.8998 54.3575L61.851 46.2541C62.5986 46.8544 63.5704 47.1544 64.5422 47.1544C66.9344 47.1544 68.8781 45.2037 68.8781 42.8027C68.8781 40.3266 66.9344 38.3759 64.5422 38.3759Z" fill="#4D82F7"/>
<g clip-path="url(#clip0_401_2403)">
<path d="M119.335 47.3217C119.744 47.3217 120.111 47.6499 120.111 48.1011C120.111 48.5112 119.785 48.8804 119.335 48.8804C118.926 48.8804 118.559 48.5522 118.559 48.1011C118.559 47.6499 118.926 47.3217 119.335 47.3217ZM131.35 42.5637C130.941 42.5637 130.573 42.2356 130.573 41.7844C130.573 41.3743 130.9 41.0051 131.35 41.0051C131.758 41.0051 132.126 41.3333 132.126 41.7844C132.126 42.1946 131.758 42.5637 131.35 42.5637ZM131.35 39.4055C130.042 39.4055 128.98 40.4719 128.98 41.7844C128.98 42.0305 129.02 42.2767 129.102 42.5227L121.297 46.7065C120.847 46.0502 120.111 45.6811 119.335 45.6811C118.436 45.6811 117.619 46.2143 117.21 46.9936L110.181 43.3021C109.445 42.8919 108.873 41.7024 108.955 40.5539C108.996 39.9797 109.2 39.5285 109.486 39.3645C109.691 39.2414 109.895 39.2824 110.181 39.4055C112.061 40.3899 118.191 43.6302 118.436 43.7533C118.845 43.9173 119.049 43.9993 119.744 43.6712L132.331 37.1085C132.535 37.0265 132.739 36.8624 132.739 36.5753C132.739 36.2061 132.371 36.0421 132.371 36.0421C131.636 35.7139 130.532 35.1807 129.47 34.6885C127.181 33.6221 124.566 32.3916 123.422 31.7763C122.441 31.2431 121.624 31.6943 121.501 31.7763C116.311 34.4014 109.159 37.9289 108.751 38.1749C108.056 38.5851 107.606 39.4465 107.565 40.5129C107.484 42.1946 108.342 43.9583 109.568 44.5736L117.006 48.4292C117.169 49.5777 118.191 50.48 119.335 50.48C120.643 50.48 121.664 49.4546 121.705 48.1421L129.879 43.7122C130.287 44.0404 130.819 44.2044 131.35 44.2044C132.658 44.2044 133.72 43.138 133.72 41.8255C133.72 40.4719 132.658 39.4055 131.35 39.4055Z" fill="#4D82F7"/>
<path d="M199.96 41.408V34.64L196.84 34.6403V47.36H199.96V44.408L200.529 43.7246L202.888 47.36H206.44L202.843 41.8585L206.248 37.76H202.773L199.96 41.408Z" fill="black"/>
<path d="M191.087 47.5639C194.106 47.5639 195.99 45.7417 195.99 42.5375C195.99 39.395 194.08 37.52 191.087 37.52C188.111 37.52 186.184 39.4038 186.184 42.5375C186.184 45.7329 188.067 47.5639 191.087 47.5639ZM191.087 45.2752C190.013 45.2752 189.353 44.2981 189.353 42.5463C189.353 40.821 190.031 39.8087 191.087 39.8087C192.152 39.8087 192.83 40.821 192.83 42.5463C192.83 44.2981 192.152 45.2752 191.087 45.2752Z" fill="black"/>
<path d="M180.688 47.5713C183.707 47.5713 185.591 45.7492 185.591 42.545C185.591 39.4024 183.681 37.5275 180.688 37.5275C177.713 37.5275 175.785 39.4112 175.785 42.545C175.785 45.7404 177.669 47.5713 180.688 47.5713ZM180.688 45.2826C179.614 45.2826 178.953 44.3055 178.953 42.5538C178.953 40.8285 179.631 39.8162 180.688 39.8162C181.753 39.8162 182.431 40.8285 182.431 42.5538C182.431 44.3055 181.753 45.2826 180.688 45.2826Z" fill="black"/>
<path d="M170.752 47.36C173.472 47.36 175.182 45.9074 175.182 43.6803C175.182 41.9902 173.826 40.6712 172.11 40.592C173.518 40.3984 174.592 39.235 174.592 37.809C174.592 35.846 173.087 34.64 170.587 34.64H164.68V47.36H170.752ZM167.911 36.9287H169.733C170.816 36.9287 171.449 37.4569 171.449 38.3459C171.449 39.2614 170.745 39.816 169.575 39.816H167.911V36.9287ZM167.911 45.0536V41.779H169.812C171.141 41.779 171.898 42.3599 171.898 43.3986C171.898 44.4726 171.159 45.0536 169.83 45.0536H167.911Z" fill="black"/>
<path d="M158.975 35.6085V37.7599H157.672V40.0538H158.975V44.7104C158.975 46.5942 159.945 47.4319 162.436 47.4319C163.043 47.4319 163.517 47.3072 163.816 47.2456V45.0274C163.631 45.0626 163.446 45.0714 163.2 45.0714C162.452 45.0714 162.099 44.7368 162.099 44.0766V40.0538H163.816V37.7599H162.099V35.6085H158.975Z" fill="black"/>
<path d="M153.688 47.36H156.808V37.76H153.688V47.36Z" fill="black"/>
<path d="M156.856 35.4848C156.856 36.3568 156.147 37.0881 155.243 37.0881C154.35 37.0881 153.64 36.3568 153.64 35.4848C153.64 34.6034 154.35 33.8721 155.243 33.8721C156.147 33.8721 156.856 34.6034 156.856 35.4848Z" fill="black"/>
<path d="M152.536 45.2337V40.4374H147.354V42.7414H149.416V44.2774C148.888 44.7297 148.48 44.9553 147.099 44.9553C145.241 44.9553 144.044 43.4324 144.044 40.9148C144.044 38.4413 145.127 37.0065 146.958 37.0065C148.199 37.0065 149.099 37.6931 149.416 38.8198H152.536C152.21 36.2318 150.03 34.4097 146.949 34.4097C143.111 34.4097 140.92 36.8324 140.92 40.952C140.92 45.1245 143.111 47.552 147.028 47.552C150.494 47.552 151.912 46.2657 152.536 45.2337Z" fill="black"/>
</g>
<defs>
<clipPath id="clip0_401_2403">
<rect width="100" height="20" fill="white" transform="translate(107 31)"/>
</clipPath>
</defs>
</svg>
