<svg width="100" height="22" viewBox="0 0 100 22" fill="none" xmlns="http://www.w3.org/2000/svg">
<g clipPath="url(#clip0_401_2381)">
<path d="M40.42 8.2749H43.6977C43.151 4.79001 40.1337 2.36267 36.2071 2.36267C31.561 2.36267 28.0747 5.7785 28.0747 11.4994C28.0747 17.118 31.4042 20.6029 36.302 20.6029C40.6977 20.6029 43.8445 17.7756 43.8445 13.1986V11.0663H36.6402V13.5799H40.7323C40.6805 16.1123 38.9898 17.7151 36.3193 17.7151C33.3467 17.7151 31.3092 15.4878 31.3092 11.4648C31.3092 7.46771 33.3812 5.249 36.2502 5.249C38.3913 5.249 39.856 6.39289 40.42 8.2749Z" fill="#171321"/>
<path d="M46.0113 20.3597H49.1495V7.05038H46.0113V20.3597ZM47.5941 4.93527C48.5912 4.93527 49.4056 4.17124 49.4056 3.23599C49.4056 2.30074 48.5912 1.52808 47.5941 1.52808C46.5969 1.52808 45.7739 2.29067 45.7739 3.23599C45.7739 4.18131 46.5826 4.93527 47.5883 4.93527H47.5941Z" fill="#171321"/>
<path d="M58.5468 7.05039H55.9194V3.85327H52.7813V7.05039H50.8921V9.47773H52.7813V16.882C52.764 19.387 54.5856 20.623 56.9424 20.5496C57.5702 20.5373 58.1928 20.4319 58.7899 20.2374L58.2604 17.7827C57.9606 17.8606 57.6522 17.9017 57.3424 17.905C56.5525 17.905 55.9194 17.6273 55.9194 16.3611V9.47054H58.5468V7.05039Z" fill="#171321"/>
<path d="M60.9756 20.3598H72.0116V17.6633H64.1929V2.60437H60.9756V20.3598Z" fill="#171321"/>
<path d="M78.0232 20.6288C80.1124 20.6288 81.3599 19.6489 81.9325 18.5309H82.0361V20.3597H85.0577V11.4475C85.0577 7.92804 82.1887 6.87048 79.6477 6.87048C76.8477 6.87048 74.698 8.11797 74.0045 10.5453L76.9354 10.9626C77.2462 10.0518 78.1311 9.27192 79.6692 9.27192C81.1268 9.27192 81.9239 10.0172 81.9239 11.3266V11.3784C81.9239 12.2791 80.9786 12.3237 78.6289 12.5741C76.0462 12.8518 73.5757 13.623 73.5757 16.623C73.5671 19.2417 75.4822 20.6288 78.0232 20.6288ZM79.0548 18.3266C77.7455 18.3266 76.8088 17.728 76.8088 16.5755C76.8088 15.3698 77.8577 14.8676 79.2548 14.6676C80.0793 14.5554 81.7268 14.3467 82.1325 14.0187V15.587C82.1412 17.0647 80.9441 18.3223 79.0548 18.3223V18.3266Z" fill="#171321"/>
<path d="M87.3682 20.3598H90.4545V18.2619H90.6358C91.1307 19.2331 92.1624 20.5943 94.4516 20.5943C97.5897 20.5943 99.9394 18.1051 99.9394 13.7195C99.9394 9.28063 97.5207 6.87056 94.443 6.87056C92.0933 6.87056 91.1135 8.28351 90.6358 9.2461H90.5034V2.60437H87.3682V20.3598ZM90.4459 13.7022C90.4459 11.1123 91.5552 9.44466 93.5754 9.44466C95.6646 9.44466 96.7408 11.2216 96.7408 13.7022C96.7408 16.1828 95.6487 18.0187 93.5754 18.0187C91.5725 18.0187 90.4459 16.2849 90.4459 13.7022Z" fill="#171321"/>
<path d="M22.1584 8.6864L22.1281 8.60582L19.0778 0.648987C19.0161 0.492753 18.9061 0.360219 18.7641 0.27057C18.6581 0.20271 18.5376 0.160628 18.4125 0.147697C18.2873 0.134765 18.1608 0.151344 18.0431 0.196105C17.9256 0.240868 17.8199 0.312566 17.7351 0.405455C17.6502 0.498343 17.5881 0.609838 17.554 0.731002L15.4951 7.0346H7.15692L5.09792 0.731002C5.06357 0.610019 5.00144 0.498734 4.91646 0.406023C4.83148 0.313313 4.72602 0.241741 4.60846 0.197016C4.49092 0.152291 4.36456 0.13565 4.23944 0.148421C4.11433 0.161192 3.99393 0.203019 3.88784 0.27057C3.74579 0.360219 3.63592 0.492753 3.57417 0.648987L0.525259 8.60726L0.493604 8.6864C0.0546487 9.83361 0.00057102 11.0924 0.339524 12.273C0.678475 13.4537 1.39208 14.4921 2.37275 15.2317L2.38426 15.2403L2.41015 15.2605L7.05043 18.7382L9.35259 20.4777L10.7512 21.5353C10.9153 21.6593 11.1153 21.7264 11.3209 21.7264C11.5266 21.7264 11.7266 21.6593 11.8907 21.5353L13.2893 20.4777L15.5915 18.7382L20.2648 15.2403L20.2778 15.2303C21.2584 14.491 21.972 13.4528 22.3113 12.2725C22.6504 11.0922 22.5968 9.83356 22.1584 8.6864Z" fill="#E24329"/>
<path d="M22.1584 8.68629L22.1282 8.60571C20.642 8.91068 19.2415 9.54059 18.0274 10.4503L11.3296 15.5151L15.5943 18.7381L20.2677 15.2402L20.2807 15.2302C21.2608 14.4904 21.9739 13.4522 22.3126 12.2719C22.6512 11.0916 22.5971 9.83315 22.1584 8.68629Z" fill="#FC6D26"/>
<path d="M7.05029 18.7382L9.35245 20.4777L10.751 21.5353C10.9151 21.6593 11.1151 21.7264 11.3208 21.7264C11.5265 21.7264 11.7265 21.6593 11.8906 21.5353L13.2891 20.4777L15.5913 18.7382L11.3266 15.5151L7.05029 18.7382Z" fill="#FCA326"/>
<path d="M4.62453 10.4503C3.41081 9.54108 2.01092 8.91165 0.525259 8.60718L0.493604 8.68631C0.0546487 9.83352 0.00057102 11.0923 0.339524 12.273C0.678475 13.4536 1.39208 14.492 2.37275 15.2316L2.38426 15.2402L2.41015 15.2604L7.05043 18.7381L11.3181 15.515L4.62453 10.4503Z" fill="#FC6D26"/>
</g>
<defs>
<clipPath id="clip0_401_2381">
<rect width="100" height="21.7266" fill="white"/>
</clipPath>
</defs>
</svg>
