<svg width="250" height="82" viewBox="0 0 250 82" fill="none" xmlns="http://www.w3.org/2000/svg">
<g clip-path="url(#clip0_401_2360)">
<mask id="mask0_401_2360" style="mask-type:alpha" maskUnits="userSpaceOnUse" x="20" y="19" width="50" height="45">
<path d="M20 19H70V63.5652H20V19Z" fill="white"/>
</mask>
<g mask="url(#mask0_401_2360)">
<path fill-rule="evenodd" clip-rule="evenodd" d="M64.8015 40.8371C64.1327 43.3839 63.0488 45.8679 61.5805 48.2204C60.6429 49.7226 59.587 51.1057 58.4278 52.3579C59.751 46.9593 58.8555 40.3459 55.6097 34.144C55.3815 33.7078 54.8543 33.5634 54.4371 33.8243L44.3293 40.1469C43.9424 40.3891 43.8245 40.8993 44.0663 41.2868L45.5484 43.661C45.7902 44.0485 46.3 44.1662 46.6871 43.9242L53.2381 39.8262C53.4577 40.456 53.6545 41.09 53.8221 41.7285C54.4525 44.128 54.6873 46.4697 54.5199 48.6885C54.2086 52.819 52.5289 56.0374 49.7898 57.7507C48.422 58.6064 46.8327 59.0595 45.1055 59.1088C45.068 59.1081 45.0298 59.1094 44.9923 59.1088C44.9601 59.1088 44.9275 59.1081 44.8953 59.1088C43.1678 59.0597 41.5784 58.6064 40.2101 57.7505C37.4713 56.0374 35.7913 52.819 35.48 48.6885C35.3128 46.4697 35.5476 44.128 36.1778 41.7285C36.8468 39.1817 37.9302 36.6977 39.3989 34.3453C40.8672 31.9928 42.6224 29.9288 44.616 28.2106C46.4941 26.5917 48.4936 25.3539 50.559 24.5318C54.4042 23.0011 58.0301 23.1018 60.7692 24.8151C63.508 26.5283 65.188 29.7466 65.4993 33.8771C65.6667 36.0959 65.4319 38.4376 64.8015 40.8371ZM28.4196 48.2204C26.9511 45.8679 25.8674 43.3839 25.1985 40.8371C24.5683 38.4376 24.3335 36.0959 24.5007 33.8771C24.8122 29.7466 26.4919 26.5283 29.231 24.8151C31.9698 23.1018 35.5959 23.0011 39.4409 24.5318C40.0198 24.7621 40.5926 25.03 41.1599 25.3259C39.1103 27.185 37.2274 29.4191 35.6256 31.9852C31.3839 38.7802 30.0938 46.3278 31.5727 52.3585C30.4136 51.1063 29.3575 49.7228 28.4196 48.2204ZM63.1268 21.0378C57.9303 17.7872 51.0899 18.5598 44.9983 22.3997C38.9077 18.5611 32.069 17.7879 26.8731 21.0381C18.664 26.173 17.667 39.3998 24.6462 50.5807C29.7925 58.8247 37.8378 63.6539 45.0004 63.564C52.1625 63.6535 60.2076 58.8245 65.3537 50.5807C72.3329 39.3998 71.3361 26.173 63.1268 21.0378Z" fill="#1BDBDB"/>
</g>
</g>
<path d="M115.569 31.8777C113.332 30.4789 110.386 30.8086 107.76 32.4648C105.141 30.8099 102.194 30.4789 99.9596 31.8777C96.4247 34.0925 95.9957 39.7966 99 44.6177C101.215 48.1734 104.679 50.256 107.764 50.2173C110.848 50.256 114.312 48.1734 116.527 44.6183C119.53 39.796 119.104 34.0925 115.569 31.8771V31.8777ZM100.626 43.6012C100.006 42.6159 99.5386 41.5421 99.2391 40.4163C98.9728 39.4395 98.871 38.4249 98.9379 37.4145C99.0723 35.6345 99.7951 34.2466 100.975 33.5067C102.154 32.7674 103.712 32.7245 105.372 33.3841C105.624 33.4861 105.871 33.6003 106.111 33.7271C105.189 34.5697 104.387 35.5359 103.728 36.5985C101.904 39.5261 101.346 42.7846 101.983 45.3812C101.476 44.8319 101.021 44.236 100.626 43.6012H100.626ZM116.291 40.4163C115.991 41.5417 115.524 42.6152 114.904 43.6006C114.509 44.2368 114.054 44.8342 113.546 45.3847C114.116 43.0564 113.729 40.2049 112.333 37.5299C112.311 37.4857 112.28 37.4467 112.242 37.4154C112.203 37.3841 112.159 37.3613 112.112 37.3483C112.064 37.3353 112.014 37.3325 111.966 37.34C111.917 37.3476 111.87 37.3654 111.829 37.3922L107.476 40.1192C107.437 40.1439 107.403 40.1763 107.375 40.2144C107.348 40.2525 107.329 40.2955 107.318 40.3412C107.308 40.3868 107.306 40.434 107.314 40.4802C107.322 40.5263 107.338 40.5705 107.363 40.6102L108.002 41.634C108.027 41.6738 108.059 41.7083 108.097 41.7355C108.135 41.7628 108.178 41.7822 108.223 41.7928C108.269 41.8033 108.316 41.8047 108.362 41.797C108.408 41.7892 108.453 41.7724 108.492 41.7475L111.313 39.9809C111.404 40.2551 111.496 40.5251 111.564 40.8041C111.83 41.7807 111.932 42.7954 111.865 43.806C111.731 45.5877 111.007 46.9751 109.829 47.7144C109.221 48.0873 108.524 48.2897 107.811 48.3003H107.72C107.008 48.2899 106.31 48.0876 105.702 47.7144C104.523 46.9751 103.799 45.5877 103.666 43.8054C103.599 42.7954 103.701 41.7807 103.967 40.8041C104.579 38.5449 105.842 36.5172 107.599 34.9756C108.357 34.308 109.221 33.7714 110.154 33.3877C111.81 32.7281 113.371 32.7716 114.551 33.5103C115.73 34.2496 116.452 35.6376 116.587 37.4181C116.655 38.427 116.555 39.4402 116.292 40.4163H116.291Z" fill="#1AD6D6"/>
<path d="M141.617 38.7867C139.172 38.7867 137.196 40.7007 137.196 43.1355C137.196 45.5538 139.172 47.4365 141.617 47.4365C144.079 47.4365 146.055 45.5568 146.055 43.136C146.055 40.702 144.082 38.7873 141.617 38.7873V38.7867ZM141.617 45.1631C140.49 45.1631 139.632 44.2492 139.632 43.1191C139.632 41.989 140.49 41.0614 141.617 41.0614C142.761 41.0614 143.619 41.9915 143.619 43.1222C143.619 44.2516 142.761 45.1666 141.617 45.1666V45.1631ZM151.568 35.4466H147.069C147.021 35.4458 146.972 35.4548 146.927 35.4731C146.882 35.4914 146.841 35.5186 146.807 35.5531C146.773 35.5876 146.746 35.6287 146.728 35.6739C146.709 35.7192 146.701 35.7676 146.702 35.8163V46.8138C146.698 46.8641 146.705 46.9147 146.722 46.9623C146.739 47.0099 146.765 47.0534 146.8 47.0902C146.834 47.127 146.876 47.1562 146.922 47.176C146.969 47.1957 147.019 47.2057 147.069 47.2051H151.568C155.169 47.2051 157.67 44.8042 157.67 41.3114C157.67 37.7974 155.169 35.4466 151.568 35.4466ZM151.675 44.8822H149.213V37.7635H151.675C153.667 37.7635 155.041 39.2578 155.041 41.3065C155.041 43.3215 153.667 44.8822 151.675 44.8822ZM166.626 39.0235H164.934C164.841 39.031 164.753 39.0729 164.688 39.1411C164.624 39.2093 164.586 39.299 164.584 39.3931V39.8962C164.198 39.2578 163.328 38.7879 162.244 38.7879C160.134 38.7879 158.158 40.4495 158.158 43.1034C158.158 45.7429 160.116 47.4347 162.227 47.4347C163.315 47.4347 164.203 46.9654 164.588 46.3269V46.847C164.589 46.9403 164.626 47.0297 164.691 47.0958C164.757 47.162 164.846 47.1995 164.939 47.2003H166.631C166.677 47.2014 166.723 47.193 166.767 47.1756C166.81 47.1582 166.849 47.1322 166.882 47.0991C166.915 47.0661 166.941 47.0267 166.958 46.9834C166.975 46.94 166.984 46.8936 166.982 46.847V39.3931C166.984 39.3452 166.976 39.2975 166.958 39.2528C166.941 39.208 166.915 39.1673 166.882 39.1328C166.849 39.0983 166.809 39.0709 166.765 39.0521C166.721 39.0333 166.674 39.0236 166.626 39.0235H166.626ZM162.691 45.1817C161.57 45.1817 160.729 44.3181 160.729 43.1209C160.729 41.9239 161.571 41.0614 162.691 41.0614C163.811 41.0614 164.653 41.9226 164.653 43.1198C164.653 44.3174 163.813 45.1806 162.691 45.1806V45.1817ZM176.121 35.4466H174.429C174.382 35.4452 174.335 35.4532 174.291 35.4702C174.246 35.4872 174.206 35.5129 174.172 35.5457C174.138 35.5786 174.11 35.6179 174.091 35.6615C174.073 35.705 174.063 35.7519 174.062 35.7994V39.863C173.672 39.2578 172.788 38.7879 171.684 38.7879C169.59 38.7879 167.647 40.4495 167.647 43.1034C167.647 45.7429 169.606 47.4347 171.717 47.4347C172.805 47.4347 173.626 46.9654 174.078 46.3269V46.847C174.078 47.0415 174.235 47.1991 174.429 47.2003H176.121C176.168 47.2015 176.214 47.1932 176.257 47.1757C176.3 47.1584 176.34 47.1324 176.373 47.0994C176.405 47.0663 176.431 47.0269 176.449 46.9835C176.466 46.9401 176.474 46.8937 176.473 46.847V35.8018C176.474 35.7549 176.466 35.7083 176.449 35.6647C176.432 35.6211 176.406 35.5814 176.373 35.5482C176.34 35.5149 176.301 35.4888 176.258 35.4713C176.214 35.4538 176.168 35.4454 176.121 35.4466ZM172.186 45.2023C171.07 45.2023 170.236 44.3301 170.236 43.1198C170.236 41.9099 171.073 41.0378 172.186 41.0378C173.298 41.0378 174.136 41.9099 174.136 43.1198C174.136 44.3301 173.302 45.2023 172.186 45.2023ZM185.614 35.4466H183.925C183.878 35.4452 183.831 35.4532 183.786 35.4702C183.742 35.4872 183.702 35.5128 183.667 35.5457C183.633 35.5785 183.605 35.6178 183.586 35.6614C183.567 35.7049 183.557 35.7518 183.556 35.7994V39.863C183.171 39.2578 182.283 38.7879 181.179 38.7879C179.084 38.7879 177.143 40.4495 177.143 43.1034C177.143 45.7429 179.102 47.4347 181.212 47.4347C182.3 47.4347 183.12 46.9654 183.573 46.3269V46.847C183.574 46.9405 183.611 47.03 183.677 47.0963C183.743 47.1624 183.832 47.1999 183.925 47.2003H185.614C185.66 47.2015 185.706 47.1932 185.75 47.1757C185.793 47.1584 185.832 47.1323 185.865 47.0993C185.898 47.0662 185.923 47.0268 185.941 46.9834C185.958 46.94 185.966 46.8936 185.964 46.847V35.8018C185.966 35.755 185.958 35.7084 185.941 35.6648C185.924 35.6212 185.898 35.5815 185.866 35.5482C185.833 35.515 185.793 35.4888 185.75 35.4713C185.707 35.4538 185.66 35.4454 185.614 35.4466ZM181.679 45.2023C180.563 45.2023 179.729 44.3301 179.729 43.1198C179.729 41.9099 180.566 41.0378 181.679 41.0378C182.791 41.0378 183.629 41.9099 183.629 43.1198C183.629 44.3301 182.797 45.2023 181.682 45.2023H181.679ZM194.875 39.5954L192.351 48.2748C191.864 49.8186 190.777 50.7427 189.086 50.7427C188.316 50.7427 187.616 50.585 187.068 50.2704C186.747 50.0873 186.482 49.9201 186.482 49.6525C186.482 49.4864 186.536 49.4007 186.633 49.2449L187.134 48.4923C187.276 48.2821 187.38 48.2138 187.532 48.2138C187.653 48.2166 187.769 48.2572 187.866 48.3298C188.18 48.5345 188.473 48.7103 188.919 48.7103C189.439 48.7103 189.836 48.543 190.051 47.9215L190.268 47.2009H189.246C188.994 47.2009 188.856 47.0505 188.794 46.8482L186.535 39.5954C186.451 39.3098 186.528 39.0241 186.946 39.0241H188.726C188.943 39.0241 189.095 39.0984 189.19 39.4106L190.859 45.2512L192.419 39.4106C192.468 39.2089 192.603 39.0241 192.87 39.0241H194.558C194.891 39.0235 194.992 39.2578 194.875 39.5954ZM136.558 42.1769V46.8132C136.559 46.8637 136.55 46.9139 136.531 46.9607C136.512 47.0075 136.484 47.05 136.448 47.0857C136.412 47.1215 136.37 47.1497 136.323 47.1686C136.276 47.1875 136.226 47.1969 136.176 47.1961H134.78C134.73 47.197 134.679 47.1877 134.633 47.1688C134.586 47.1498 134.544 47.1216 134.508 47.0859C134.472 47.0502 134.444 47.0076 134.425 46.9607C134.406 46.9139 134.397 46.8637 134.398 46.8132V45.5961C133.511 46.7183 131.97 47.425 130.227 47.425C126.954 47.425 124.395 44.9558 124.395 41.4407C124.395 37.7877 127.157 35.2697 130.646 35.2697C133.222 35.2697 135.281 36.3804 136.196 38.614C136.221 38.6729 136.236 38.7363 136.238 38.8006C136.238 38.9063 136.168 38.986 135.945 39.0633L134.315 39.6927C134.217 39.7337 134.107 39.7356 134.007 39.6981C133.92 39.6464 133.851 39.5678 133.812 39.474C133.227 38.3585 132.185 37.6017 130.583 37.6017C128.505 37.6017 127.016 39.2288 127.016 41.3391C127.016 43.3848 128.283 45.067 130.642 45.067C131.883 45.067 132.873 44.4811 133.334 43.8366H131.861C131.811 43.8374 131.761 43.828 131.714 43.809C131.667 43.7899 131.625 43.7617 131.589 43.7259C131.554 43.6902 131.526 43.6476 131.507 43.6007C131.488 43.5539 131.479 43.5037 131.479 43.4532V42.1932C131.479 42.1427 131.488 42.0926 131.507 42.0458C131.526 41.999 131.554 41.9565 131.59 41.9208C131.625 41.8851 131.668 41.8569 131.714 41.838C131.761 41.819 131.811 41.8096 131.861 41.8103H136.175C136.225 41.8077 136.274 41.8153 136.321 41.8326C136.367 41.8499 136.409 41.8765 136.445 41.9109C136.481 41.9452 136.509 41.9865 136.529 42.0323C136.548 42.078 136.558 42.1273 136.558 42.1769H136.558Z" fill="#1AD6D6"/>
<path d="M194.921 37.307V37.1947C194.921 37.1868 194.924 37.179 194.928 37.173C194.935 37.1679 194.942 37.1652 194.949 37.1651H195.661C195.67 37.1651 195.677 37.1681 195.682 37.173C195.687 37.179 195.69 37.1868 195.69 37.1947V37.307C195.69 37.3146 195.687 37.3219 195.682 37.3276C195.679 37.3302 195.677 37.3322 195.673 37.3336C195.67 37.3349 195.666 37.3355 195.661 37.3354H195.402V38.0403C195.402 38.0479 195.398 38.0551 195.393 38.0605C195.387 38.0658 195.38 38.069 195.372 38.0693H195.237C195.234 38.0693 195.23 38.0685 195.228 38.067C195.224 38.0656 195.221 38.0635 195.219 38.0608C195.216 38.0582 195.213 38.055 195.211 38.0515C195.211 38.048 195.21 38.0441 195.21 38.0403V37.3354H194.949C194.945 37.3357 194.942 37.3351 194.938 37.3338C194.935 37.3325 194.931 37.3304 194.928 37.3277C194.926 37.325 194.924 37.3218 194.922 37.3182C194.921 37.3146 194.92 37.3108 194.92 37.307H194.921ZM196.167 37.1905L196.361 37.6435L196.557 37.1905C196.56 37.1825 196.565 37.1757 196.572 37.1711C196.581 37.1668 196.59 37.1647 196.599 37.1651H196.825C196.828 37.1648 196.833 37.1654 196.836 37.1667C196.839 37.168 196.843 37.17 196.845 37.1726C196.848 37.1752 196.85 37.1784 196.852 37.1819C196.853 37.1854 196.853 37.1891 196.853 37.1929V38.0409C196.853 38.0446 196.853 38.0483 196.852 38.0518C196.851 38.0552 196.849 38.0584 196.846 38.0611C196.844 38.0638 196.84 38.0659 196.837 38.0673C196.834 38.0687 196.83 38.0694 196.827 38.0693H196.7C196.696 38.0695 196.692 38.0689 196.688 38.0675C196.685 38.0662 196.681 38.0641 196.678 38.0614C196.676 38.0588 196.674 38.0556 196.672 38.052C196.671 38.0485 196.67 38.0447 196.67 38.0409V37.4007L196.461 37.8657C196.458 37.8747 196.453 37.8826 196.445 37.8887C196.437 37.8931 196.428 37.8952 196.42 37.8947H196.316C196.307 37.8951 196.298 37.893 196.291 37.8887C196.283 37.8831 196.278 37.8753 196.275 37.8663L196.067 37.4013V38.0415C196.067 38.0489 196.063 38.0559 196.059 38.0614C196.053 38.0662 196.046 38.0689 196.039 38.0693H195.91C195.906 38.0692 195.903 38.0685 195.9 38.0672C195.896 38.0658 195.894 38.0639 195.891 38.0614C195.888 38.0588 195.886 38.0556 195.885 38.052C195.884 38.0485 195.883 38.0447 195.884 38.0409V37.1929C195.883 37.1891 195.884 37.1854 195.886 37.1819C195.886 37.1784 195.889 37.1752 195.892 37.1726C195.895 37.17 195.897 37.168 195.901 37.1667C195.904 37.1654 195.908 37.1648 195.911 37.1651H196.131C196.139 37.1651 196.149 37.1669 196.156 37.1711C196.161 37.1766 196.165 37.1832 196.167 37.1905Z" fill="#1AD6D6"/>
<defs>
<clipPath id="clip0_401_2360">
<rect width="50" height="44.5652" fill="white" transform="translate(20 19)"/>
</clipPath>
</defs>
</svg>
