<svg width="250" height="82" viewBox="0 0 250 82" fill="none" xmlns="http://www.w3.org/2000/svg">
<g clip-path="url(#clip0_401_2320)">
<path d="M55.9648 18.866V62.0235C55.9648 66.8564 59.2956 69.5436 62.8308 69.5436C66.1005 69.5436 69.6967 67.2549 69.6967 62.0235V19.1929C69.6967 14.7689 66.4274 12 62.8308 12C59.2342 12 55.9648 15.055 55.9648 18.866Z" fill="#F8AB00"/>
<path d="M37.9824 40.7717V62.0235C37.9824 66.8564 41.3133 69.5435 44.8484 69.5435C48.118 69.5435 51.7144 67.2549 51.7144 62.0235V41.0987C51.7144 36.6746 48.4449 33.9058 44.8484 33.9058C41.252 33.9058 37.9824 36.9607 37.9824 40.7717Z" fill="#E37300"/>
<path d="M33.732 62.6777C33.732 66.4682 30.6566 69.5436 26.866 69.5436C23.0754 69.5436 20 66.4682 20 62.6777C20 58.8871 23.0754 55.8118 26.866 55.8118C30.6566 55.8118 33.732 58.8871 33.732 62.6777Z" fill="#E37300"/>
</g>
<g clip-path="url(#clip1_401_2320)">
<path d="M162.169 38.5608L163.559 42.2114H160.865L162.169 38.5608ZM161.647 37.3439L158.605 45.3405H159.735L160.517 43.1675H163.907L164.69 45.3405H165.82L162.778 37.3439H161.648H161.647ZM178.074 45.3405H179.117V37.3439H178.074V45.3405ZM167.38 40.6466C167.728 40.125 168.423 39.6905 169.118 39.6905C170.509 39.6905 171.205 40.6466 171.205 42.0375V45.4273H170.162V42.2111C170.162 41.081 169.554 40.6469 168.771 40.6469C167.902 40.6469 167.293 41.5162 167.293 42.2983V45.3405H166.251V39.7777H167.293L167.38 40.6469L167.38 40.6466ZM172.074 43.6891C172.074 42.4723 173.204 41.777 174.508 41.777C175.29 41.777 175.812 41.951 175.986 42.125V41.951C175.986 41.0817 175.29 40.6469 174.595 40.6469C173.987 40.6469 173.465 40.9077 173.291 41.4293L172.338 40.9942C172.512 40.4726 173.207 39.6902 174.601 39.6902C175.905 39.6902 177.035 40.4726 177.035 42.0371V45.3402H176.079V44.554H175.992C175.731 44.9885 175.123 45.5101 174.167 45.5101C173.037 45.5101 172.081 44.8148 172.081 43.6848L172.074 43.6891ZM175.992 42.9895C175.992 42.9895 175.558 42.6415 174.688 42.6415C173.645 42.6415 173.21 43.2496 173.21 43.6844C173.21 44.2925 173.818 44.5537 174.34 44.5537C175.123 44.5537 175.992 43.8584 175.992 42.9895" fill="#757575"/>
<path fill-rule="evenodd" clip-rule="evenodd" d="M180.592 47.7737L181.809 44.9021L179.636 39.8609H180.679L182.33 43.6852L183.981 39.8609H185.024L181.635 47.7737H180.592H180.592ZM195.889 41.6899C195.628 40.994 195.02 40.5598 194.412 40.5598C193.542 40.5598 192.76 41.3423 192.76 42.472C192.76 43.6017 193.543 44.3842 194.412 44.3842C195.02 44.3842 195.629 43.9497 195.889 43.3413L196.759 43.8629C196.324 44.819 195.455 45.4271 194.412 45.4271C192.934 45.4271 191.717 44.123 191.717 42.472C191.717 40.7335 192.934 39.5166 194.412 39.5166C195.455 39.5166 196.324 40.1247 196.759 41.0808L195.889 41.6889L195.889 41.6899Z" fill="#757575"/>
<path d="M199.627 45.5142C201.018 45.5142 201.713 44.7317 201.713 43.7757C201.713 41.6895 198.671 42.4716 198.671 41.2554C198.671 40.8209 199.019 40.5601 199.627 40.5601C200.235 40.5601 200.844 40.8209 201.105 41.2554L201.713 40.6473C201.365 40.2128 200.409 39.6044 199.54 39.6044C198.236 39.6044 197.541 40.3868 197.541 41.3429C197.541 43.3419 200.67 42.6469 200.67 43.6898C200.67 44.2115 200.322 44.5591 199.627 44.5591C198.932 44.5591 198.584 44.1246 198.237 43.6898L197.454 44.298C197.976 44.8196 198.758 45.5148 199.627 45.5148V45.5142ZM189.718 45.3402H190.761V39.7777H189.718V45.3405V45.3402Z" fill="#757575"/>
<path fill-rule="evenodd" clip-rule="evenodd" d="M190.153 37.0831C190.588 37.0831 190.849 37.4311 190.849 37.7784C190.849 38.2129 190.501 38.4737 190.153 38.4737C189.806 38.4737 189.458 38.1257 189.458 37.7784C189.458 37.4311 189.806 37.0831 190.153 37.0831ZM188.676 44.4716L188.85 45.2541H187.807C186.851 45.2541 186.416 44.5588 186.416 43.5156V40.821H185.374V39.7781H186.416V38.1267H187.459V39.7781H188.676V40.821H187.459V43.6926C187.459 44.475 188.067 44.475 188.676 44.475L188.676 44.4716Z" fill="#757575"/>
<path d="M124.616 40.5597V41.8638H127.658C127.572 42.5591 127.31 43.0807 126.963 43.428C126.529 43.8624 125.833 44.3841 124.616 44.3841C122.791 44.3841 121.313 42.9064 121.313 40.9942C121.313 39.1689 122.791 37.6043 124.616 37.6043C125.659 37.6043 126.355 38.0388 126.88 38.4736L127.749 37.6043C126.966 36.9091 126.01 36.3003 124.62 36.3003C122.1 36.3003 119.926 38.3864 119.926 40.907C119.926 43.4276 122.096 45.5135 124.616 45.5135C126.007 45.5135 127.05 45.079 127.833 44.2094C128.702 43.3401 128.963 42.2104 128.963 41.254C128.963 40.9932 128.963 40.6459 128.876 40.4716H124.619L124.616 40.5597ZM132.352 39.5202C130.701 39.5202 129.397 40.7371 129.397 42.4756C129.397 44.2141 130.701 45.4307 132.352 45.4307C134.003 45.4307 135.307 44.1266 135.307 42.4756C135.307 40.7371 134.003 39.5202 132.352 39.5202ZM132.352 44.3006C131.483 44.3006 130.701 43.5182 130.701 42.4753C130.701 41.4324 131.483 40.6499 132.352 40.6499C133.221 40.6499 134.003 41.3452 134.003 42.4753C134.003 43.6053 133.221 44.3006 132.352 44.3006ZM146.607 40.1283C146.259 39.7803 145.737 39.433 144.955 39.433C143.478 39.433 142.174 40.7371 142.174 42.3885C142.174 44.0398 143.478 45.3435 144.955 45.3435C145.651 45.3435 146.259 44.9955 146.52 44.6483H146.606V45.0827C146.606 46.2128 145.998 46.8212 145.042 46.8212C144.26 46.8212 143.738 46.2131 143.564 45.7783L142.434 46.2128C142.782 46.9952 143.651 47.9513 145.042 47.9513C146.606 47.9513 147.913 47.082 147.913 44.8222V39.4337H146.697V40.129L146.607 40.1283ZM145.129 44.3006C144.26 44.3006 143.565 43.5182 143.565 42.4753C143.565 41.4324 144.26 40.6499 145.129 40.6499C145.998 40.6499 146.693 41.4324 146.693 42.4753C146.693 43.5182 145.998 44.3006 145.129 44.3006ZM138.784 39.5202C137.132 39.5202 135.828 40.7371 135.828 42.4756C135.828 44.2141 137.132 45.4307 138.784 45.4307C140.435 45.4307 141.739 44.1266 141.739 42.4756C141.826 40.7371 140.435 39.5202 138.784 39.5202ZM138.784 44.3006C137.914 44.3006 137.132 43.5182 137.132 42.4753C137.132 41.4324 137.915 40.6499 138.784 40.6499C139.653 40.6499 140.435 41.3452 140.435 42.4753C140.435 43.6053 139.653 44.3006 138.784 44.3006ZM148.866 36.3878H150.171V45.4273H148.866V36.3878ZM153.734 44.2972C153.039 44.2972 152.604 43.9493 152.256 43.428L156.255 41.7766L156.081 41.4287C155.82 40.7334 155.038 39.5165 153.56 39.5165C151.996 39.5165 150.779 40.7334 150.779 42.4719C150.779 44.1233 152.083 45.427 153.734 45.427C155.125 45.427 155.907 44.5577 156.255 44.1229L155.212 43.4276C154.864 43.9493 154.429 44.2969 153.734 44.2969V44.2972ZM153.647 40.6466C154.169 40.6466 154.603 40.9074 154.777 41.3418L152.083 42.4719C152.083 41.1678 152.952 40.6466 153.647 40.6466H153.647Z" fill="#757575"/>
<path d="M112.132 34.9031V46.7174C112.132 48.0394 113.045 48.776 114.012 48.776C114.907 48.776 115.891 48.1495 115.891 46.7174V34.9926C115.891 33.7807 114.996 33.0236 114.012 33.0236C113.027 33.0236 112.132 33.8586 112.132 34.9031Z" fill="#F9AB00"/>
<path d="M107.209 40.8997V46.7173C107.209 48.0393 108.122 48.7759 109.089 48.7759C109.984 48.7759 110.969 48.1494 110.969 46.7173V40.9892C110.969 39.7773 110.074 39.0201 109.089 39.0201C108.104 39.0201 107.209 39.8552 107.209 40.8997Z" fill="#E37400"/>
<path d="M104.167 48.776C105.205 48.776 106.046 47.9344 106.046 46.8964C106.046 45.8584 105.205 45.0168 104.167 45.0168C103.129 45.0168 102.287 45.8584 102.287 46.8964C102.287 47.9344 103.129 48.776 104.167 48.776Z" fill="#E37400"/>
</g>
<defs>
<clipPath id="clip0_401_2320">
<rect width="50" height="57.5758" fill="white" transform="translate(20 12)"/>
</clipPath>
<clipPath id="clip1_401_2320">
<rect width="100" height="15.8784" fill="white" transform="translate(102 33)"/>
</clipPath>
</defs>
</svg>
