<svg width="250" height="82" viewBox="0 0 250 82" fill="none" xmlns="http://www.w3.org/2000/svg">
<g clip-path="url(#clip0_401_2292)">
<path d="M20.8066 59.0968L44.1937 22H58.7099V27.1613L38.5486 59.0968" fill="#FBBC04"/>
<path d="M58.7095 59.0968H44.1934V22H58.7095V59.0968Z" fill="#1A73E8"/>
<path d="M69.1933 48.6129C69.1933 54.4031 64.4998 59.0968 58.7095 59.0968V38.129C64.4998 38.129 69.1933 42.8226 69.1933 48.6129Z" fill="#34A853"/>
<path d="M58.7098 59.0968C52.9195 59.0968 48.2261 54.4031 48.2261 48.6129C48.2261 42.8226 52.9195 38.129 58.7098 38.129V59.0968Z" fill="#0D652D"/>
<path d="M66.774 30.0645C66.774 34.5176 63.1643 38.129 58.7095 38.129V22C63.1643 22 66.774 25.6113 66.774 30.0645Z" fill="#1A73E8"/>
<path d="M58.7099 38.129C54.255 38.129 50.6455 34.5176 50.6455 30.0645C50.6455 25.6113 54.255 22 58.7099 22V38.129Z" fill="#174EA6"/>
<path d="M21.6128 29.2581C21.6128 25.25 24.8628 22 28.8709 22C32.8789 22 36.1289 25.25 36.1289 29.2581C36.1289 33.2661 32.8789 36.5161 28.8709 36.5161C24.8628 36.5161 21.6128 33.2661 21.6128 29.2581Z" fill="#EA4335"/>
</g>
<g clip-path="url(#clip1_401_2292)">
<path d="M177.732 41.3306V45.2534H176.556V36.1045H181.897V37.2284H177.732V40.2312H181.489V41.3306H177.732Z" fill="#5F6368"/>
<path d="M182.43 42.1229C182.43 41.1606 182.732 40.364 183.337 39.7334C183.951 39.1028 184.722 38.7878 185.65 38.7878C186.579 38.7878 187.345 39.1028 187.95 39.7334C188.564 40.364 188.87 41.1606 188.87 42.1229C188.87 43.094 188.564 43.8906 187.95 44.5123C187.345 45.1429 186.579 45.4579 185.65 45.4579C184.722 45.4579 183.951 45.1429 183.337 44.5123C182.732 43.8818 182.43 43.0851 182.43 42.1229ZM183.606 42.1229C183.606 42.7956 183.802 43.3406 184.194 43.7579C184.585 44.1756 185.071 44.384 185.65 44.384C186.23 44.384 186.715 44.1756 187.107 43.7579C187.499 43.3406 187.695 42.7956 187.695 42.1229C187.695 41.4584 187.499 40.9173 187.107 40.5001C186.706 40.074 186.221 39.8612 185.65 39.8612C185.079 39.8612 184.594 40.074 184.194 40.5001C183.802 40.9173 183.606 41.4584 183.606 42.1229Z" fill="#5F6368"/>
<path d="M189.87 38.9923H190.994V39.8606H191.045C191.224 39.5545 191.499 39.299 191.87 39.0945C192.24 38.8895 192.625 38.7878 193.026 38.7878C193.793 38.7878 194.382 39.0067 194.795 39.4456C195.209 39.884 195.415 40.5084 195.415 41.3179V45.2534H194.24V41.394C194.214 40.3718 193.699 39.8606 192.694 39.8606C192.225 39.8606 191.833 40.0506 191.518 40.4295C191.202 40.809 191.045 41.2623 191.045 41.7901V45.2534H189.87V38.9923Z" fill="#5F6368"/>
<path d="M199.032 45.3557C198.521 45.3557 198.097 45.1979 197.761 44.8823C197.424 44.5673 197.252 44.129 197.243 43.5668V40.0657H196.145V38.9929H197.243V37.0757H198.419V38.9929H199.952V40.0657H198.419V43.1834C198.419 43.6007 198.5 43.8846 198.662 44.0334C198.823 44.1829 199.007 44.2562 199.211 44.2562C199.305 44.2562 199.396 44.2462 199.486 44.2251C199.576 44.204 199.658 44.1757 199.735 44.1412L200.106 45.189C199.799 45.2996 199.441 45.3557 199.032 45.3557Z" fill="#5F6368"/>
<path d="M205.724 43.5156C205.724 44.0606 205.485 44.5212 205.008 44.8956C204.531 45.2701 203.93 45.4579 203.207 45.4579C202.576 45.4579 202.022 45.2934 201.545 44.9656C201.068 44.6384 200.727 44.2056 200.523 43.669L201.57 43.2218C201.724 43.5968 201.947 43.8884 202.241 44.0973C202.535 44.3056 202.857 44.4101 203.207 44.4101C203.582 44.4101 203.895 44.3295 204.146 44.1673C204.397 44.0056 204.522 43.814 204.522 43.5923C204.522 43.1918 204.216 42.8984 203.603 42.7106L202.529 42.4423C201.311 42.1356 200.702 41.5479 200.702 40.679C200.702 40.1084 200.934 39.6501 201.398 39.3056C201.862 38.9606 202.457 38.7878 203.181 38.7878C203.735 38.7878 204.235 38.9201 204.682 39.184C205.13 39.4484 205.442 39.8012 205.621 40.2445L204.574 40.679C204.454 40.4151 204.261 40.2084 203.992 40.059C203.724 39.9106 203.423 39.8356 203.091 39.8356C202.785 39.8356 202.51 39.9123 202.267 40.0656C202.024 40.219 201.903 40.4062 201.903 40.6279C201.903 40.9856 202.24 41.2412 202.912 41.3945L203.859 41.6373C205.102 41.944 205.724 42.5701 205.724 43.5156Z" fill="#5F6368"/>
<path d="M136.271 45.4544C133.408 45.4544 131 43.1339 131 40.2828C131 37.4322 133.408 35.1111 136.271 35.1111C137.855 35.1111 138.982 35.7294 139.832 36.5366L138.829 37.5328C138.222 36.9655 137.398 36.5239 136.271 36.5239C134.18 36.5239 132.546 38.2016 132.546 40.2828C132.546 42.3644 134.18 44.0422 136.271 44.0422C137.626 44.0422 138.399 43.4994 138.894 43.0078C139.299 42.6039 139.566 42.0239 139.666 41.2289H136.271V39.8161H141.048C141.098 40.0683 141.123 40.3716 141.123 40.6994C141.123 41.7589 140.832 43.0705 139.894 44.0044C138.982 44.95 137.817 45.4544 136.271 45.4544Z" fill="#5F6368"/>
<path d="M148.513 42.1244C148.513 44.0417 147.032 45.4544 145.215 45.4544C143.399 45.4544 141.918 44.0417 141.918 42.1244C141.918 40.1944 143.399 38.7944 145.215 38.7944C147.032 38.7944 148.513 40.1944 148.513 42.1244ZM147.07 42.1244C147.07 40.9261 146.21 40.1061 145.215 40.1061C144.22 40.1061 143.361 40.9261 143.361 42.1244C143.361 43.31 144.22 44.1428 145.215 44.1428C146.21 44.1428 147.07 43.31 147.07 42.1244Z" fill="#5F6368"/>
<path d="M155.904 42.1244C155.904 44.0417 154.422 45.4544 152.606 45.4544C150.79 45.4544 149.309 44.0417 149.309 42.1244C149.309 40.1944 150.79 38.7944 152.606 38.7944C154.422 38.7944 155.904 40.1944 155.904 42.1244ZM154.46 42.1244C154.46 40.9261 153.601 40.1061 152.606 40.1061C151.611 40.1061 150.752 40.9261 150.752 42.1244C150.752 43.31 151.611 44.1428 152.606 44.1428C153.601 44.1428 154.46 43.31 154.46 42.1244Z" fill="#5F6368"/>
<path d="M163.108 38.9961V44.9756C163.108 47.4356 161.652 48.4444 159.928 48.4444C158.307 48.4444 157.331 47.3594 156.964 46.4767L158.243 45.9467C158.471 46.4889 159.028 47.1322 159.928 47.1322C161.031 47.1322 161.715 46.4517 161.715 45.1772V44.6978H161.664C161.335 45.1017 160.701 45.4544 159.903 45.4544C158.231 45.4544 156.697 44.0044 156.697 42.1372C156.697 40.2578 158.231 38.7944 159.903 38.7944C160.701 38.7944 161.335 39.1478 161.664 39.5389H161.715V38.9961H163.108ZM161.816 42.1372C161.816 40.9644 161.031 40.1061 160.03 40.1061C159.016 40.1061 158.167 40.9644 158.167 42.1372C158.167 43.2978 159.016 44.1428 160.03 44.1428C161.031 44.1428 161.816 43.2978 161.816 42.1372Z" fill="#5F6368"/>
<path d="M165.685 45.2523H164.215V35.4645H165.685V45.2523Z" fill="#5F6368"/>
<path d="M171.462 43.2217L172.603 43.9784C172.236 44.5212 171.349 45.4539 169.816 45.4539C167.916 45.4539 166.543 43.9917 166.543 42.125C166.543 40.1445 167.927 38.795 169.651 38.795C171.387 38.795 172.236 40.1695 172.515 40.9134L172.666 41.2917L168.194 43.1334C168.536 43.8017 169.068 44.1428 169.816 44.1428C170.563 44.1428 171.083 43.7767 171.462 43.2217ZM167.953 42.0234L170.944 40.7878C170.779 40.3717 170.285 40.0812 169.701 40.0812C168.954 40.0812 167.916 40.7367 167.953 42.0234Z" fill="#5F6368"/>
<path d="M106.278 46.7778L114.333 34H119.333V35.7778L112.389 46.7778" fill="#FBBC04"/>
<path d="M119.333 46.7778H114.333V34H119.333V46.7778Z" fill="#1A73E8"/>
<path d="M122.945 43.1667C122.945 45.1611 121.328 46.7778 119.333 46.7778V39.5555C121.328 39.5555 122.945 41.1722 122.945 43.1667Z" fill="#34A853"/>
<path d="M119.333 46.7778C117.339 46.7778 115.722 45.1611 115.722 43.1667C115.722 41.1722 117.339 39.5555 119.333 39.5555V46.7778Z" fill="#0D652D"/>
<path d="M122.111 36.7778C122.111 38.3117 120.868 39.5556 119.333 39.5556V34C120.868 34 122.111 35.2439 122.111 36.7778Z" fill="#1A73E8"/>
<path d="M119.333 39.5556C117.799 39.5556 116.556 38.3117 116.556 36.7778C116.556 35.2439 117.799 34 119.333 34V39.5556Z" fill="#174EA6"/>
<path d="M106.556 36.5C106.556 35.1194 107.675 34 109.056 34C110.436 34 111.556 35.1194 111.556 36.5C111.556 37.8805 110.436 39 109.056 39C107.675 39 106.556 37.8805 106.556 36.5Z" fill="#EA4335"/>
</g>
<defs>
<clipPath id="clip0_401_2292">
<rect width="50" height="37.0968" fill="white" transform="translate(20 22)"/>
</clipPath>
<clipPath id="clip1_401_2292">
<rect width="100" height="14.4444" fill="white" transform="translate(106 34)"/>
</clipPath>
</defs>
</svg>
