<svg width="250" height="82" viewBox="0 0 250 82" fill="none" xmlns="http://www.w3.org/2000/svg">
<g clip-path="url(#clip0_401_2347)">
<path d="M70 41.1665C70 39.4443 69.8333 37.6665 69.5556 35.9999H45.5V45.8332H59.2778C58.7222 48.9999 56.8889 51.7777 54.1667 53.5554L62.3889 59.9443C67.2222 55.4443 70 48.8888 70 41.1665Z" fill="#4280EF"/>
<path d="M45.4999 66.0556C52.3888 66.0556 58.1666 63.7778 62.3888 59.8889L54.1666 53.5556C51.8888 55.1111 48.9444 56 45.4999 56C38.8333 56 33.2222 51.5 31.1666 45.5L22.7222 52C27.0555 60.6111 35.8333 66.0556 45.4999 66.0556Z" fill="#34A353"/>
<path d="M31.1664 45.4444C30.1109 42.2778 30.1109 38.8333 31.1664 35.6666L22.722 29.1111C19.1109 36.3333 19.1109 44.8333 22.722 52L31.1664 45.4444Z" fill="#F6B704"/>
<path d="M45.4999 25.1667C49.1111 25.1111 52.6666 26.5 55.2777 29L62.5555 21.6667C57.9444 17.3333 51.8333 15 45.4999 15.0555C35.8333 15.0555 27.0555 20.5 22.7222 29.1111L31.1666 35.6667C33.2222 29.6111 38.8333 25.1667 45.4999 25.1667Z" fill="#E54335"/>
</g>
<g clip-path="url(#clip1_401_2347)">
<path d="M119.315 25.0029H120.205C123.292 25.07 126.329 26.3117 128.51 28.5096C127.705 29.3318 126.883 30.1204 126.094 30.9425C124.869 29.8351 123.393 28.9794 121.782 28.6774C119.399 28.1741 116.832 28.6271 114.836 29.9862C112.654 31.4123 111.178 33.8284 110.859 36.4123C110.507 38.9627 111.228 41.6472 112.889 43.6271C114.483 45.5566 116.916 46.7647 119.433 46.8486C121.782 46.9828 124.232 46.2613 125.943 44.617C127.285 43.4593 127.906 41.6976 128.107 39.9862C125.322 39.9862 122.537 40.0029 119.752 39.9862V36.5298H131.48C132.084 40.2378 131.211 44.4157 128.393 47.0667C126.513 48.9459 123.913 50.0533 121.262 50.2714C118.695 50.5231 116.044 50.0365 113.762 48.7949C111.027 47.3351 108.846 44.8687 107.772 41.966C106.765 39.2982 106.748 36.2781 107.688 33.5935C108.544 31.1439 110.188 28.9794 112.302 27.4694C114.332 25.9761 116.799 25.1539 119.315 25.0029Z" fill="#3780FF"/>
<path d="M186.597 25.8754H190.188V49.8351C188.996 49.8351 187.788 49.8519 186.597 49.8183C186.614 41.8485 186.597 33.8619 186.597 25.8754Z" fill="#38B137"/>
<path d="M139.466 34.1807C141.681 33.7612 144.08 34.231 145.909 35.5565C147.57 36.731 148.728 38.5767 149.08 40.5901C149.533 42.9223 148.963 45.4726 147.453 47.3183C145.825 49.382 143.157 50.4894 140.557 50.3216C138.174 50.1874 135.859 48.9961 134.449 47.0498C132.855 44.9022 132.47 41.9492 133.342 39.4324C134.215 36.731 136.681 34.6673 139.466 34.1807ZM139.97 37.3686C139.064 37.6035 138.225 38.1237 137.621 38.8619C135.993 40.8082 136.094 43.9794 137.889 45.7914C138.913 46.8317 140.456 47.3183 141.882 47.033C143.208 46.7981 144.366 45.9089 145.003 44.7344C146.11 42.7377 145.792 39.9861 144.097 38.4257C143.006 37.419 141.413 36.9995 139.97 37.3686Z" fill="#FA3913"/>
<path d="M157.251 34.1807C159.785 33.6941 162.553 34.3988 164.449 36.1774C167.537 38.9458 167.872 44.1304 165.238 47.3183C163.644 49.3317 161.06 50.4391 158.51 50.3217C156.077 50.2545 153.678 49.0465 152.235 47.0498C150.607 44.8519 150.255 41.8317 151.178 39.2646C152.1 36.6472 154.517 34.6505 157.251 34.1807ZM157.755 37.3686C156.849 37.6035 156.01 38.1237 155.406 38.8451C153.795 40.7579 153.862 43.8787 155.59 45.7076C156.614 46.7982 158.208 47.3351 159.684 47.0331C160.993 46.7814 162.168 45.9089 162.805 44.7344C163.896 42.721 163.577 39.9693 161.866 38.4089C160.775 37.4022 159.181 36.9995 157.755 37.3686Z" fill="#FCBD06"/>
<path d="M172.336 35.1539C174.265 33.9458 176.832 33.6103 178.913 34.6505C179.567 34.9358 180.104 35.4224 180.624 35.9089C180.641 35.4559 180.624 34.9861 180.641 34.5163C181.765 34.5331 182.889 34.5163 184.03 34.5331V49.3318C184.013 51.5633 183.443 53.9291 181.832 55.5566C180.07 57.3519 177.369 57.9056 174.936 57.5364C172.336 57.1505 170.07 55.2546 169.064 52.8552C170.07 52.3687 171.127 51.9828 172.168 51.5297C172.755 52.9056 173.946 54.0801 175.44 54.3485C176.933 54.617 178.661 54.2479 179.634 53.0063C180.674 51.7311 180.674 49.9861 180.624 48.4257C179.852 49.1807 178.963 49.8519 177.889 50.1036C175.557 50.7579 172.99 49.9526 171.195 48.3754C169.382 46.7982 168.309 44.3653 168.409 41.9492C168.46 39.2143 170.003 36.5801 172.336 35.1539ZM175.809 37.3016C174.785 37.4693 173.829 38.0398 173.174 38.8284C171.597 40.7076 171.597 43.7109 173.191 45.5566C174.097 46.6472 175.557 47.2512 176.966 47.1002C178.292 46.966 179.517 46.1271 180.171 44.9693C181.278 43.0063 181.094 40.3385 179.601 38.6271C178.678 37.57 177.201 37.0499 175.809 37.3016Z" fill="#3780FF"/>
<path d="M194.5 36.0096C196.513 34.1304 199.617 33.4928 202.201 34.4827C204.651 35.4056 206.211 37.7378 207 40.1371C203.359 41.6472 199.735 43.1405 196.094 44.6505C196.597 45.6069 197.369 46.4794 198.409 46.8317C199.869 47.3519 201.614 47.1673 202.839 46.1941C203.326 45.825 203.711 45.3384 204.081 44.8686C205.003 45.4894 205.926 46.0935 206.849 46.7143C205.54 48.6774 203.342 50.0532 200.977 50.2713C198.359 50.5901 195.574 49.5834 193.879 47.5364C191.094 44.3149 191.362 38.9123 194.5 36.0096ZM196.295 39.1136C195.725 39.9358 195.49 40.9425 195.507 41.9324C197.94 40.9257 200.373 39.919 202.805 38.8955C202.403 37.9559 201.43 37.3854 200.44 37.2344C198.846 36.9492 197.185 37.8049 196.295 39.1136Z" fill="#FA3913"/>
</g>
<defs>
<clipPath id="clip0_401_2347">
<rect width="50" height="51.1111" fill="white" transform="translate(20 15)"/>
</clipPath>
<clipPath id="clip1_401_2347">
<rect width="100" height="32.64" fill="white" transform="translate(107 25)"/>
</clipPath>
</defs>
</svg>
