<svg width="250" height="82" viewBox="0 0 250 82" fill="none" xmlns="http://www.w3.org/2000/svg">
<g clip-path="url(#clip0_401_2334)">
<path d="M37.048 23.7429C37.53 22.4779 38.1926 21.3132 39.1766 20.3695C43.1123 16.5341 49.6183 17.498 52.289 22.3172C54.297 25.9719 56.4255 29.5462 58.4938 33.1606C61.9476 39.1646 65.4416 45.1687 68.8553 51.1927C71.7267 56.2329 68.6143 62.5984 62.9115 63.4618C59.4175 63.9839 56.1444 62.3775 54.3372 59.245C51.3051 53.9638 48.2528 48.6827 45.2207 43.4217C45.1605 43.3012 45.0802 43.2008 44.9998 43.1004C44.6785 42.8393 44.538 42.4578 44.3372 42.1164C42.9918 39.747 41.6063 37.3976 40.2609 35.0482C39.3974 33.5221 38.4938 32.016 37.6304 30.4899C36.8472 29.1245 36.4858 27.6385 36.526 26.0723C36.5862 25.2691 36.6866 24.4658 37.048 23.7429Z" fill="#3C8BD9"/>
<path d="M37.0482 23.743C36.8675 24.4659 36.7069 25.1888 36.6667 25.9519C36.6065 27.6386 37.0281 29.2049 37.8715 30.6708C40.0803 34.4659 42.2891 38.2812 44.4779 42.0964C44.6787 42.4378 44.8393 42.7792 45.0401 43.1005C43.8353 45.1888 42.6305 47.2571 41.4056 49.3454C39.7189 52.2571 38.0322 55.1888 36.3253 58.1005C36.245 58.1005 36.2249 58.0603 36.2048 58C36.1848 57.8394 36.245 57.6988 36.2852 57.5382C37.1085 54.5262 36.4257 51.8555 34.3575 49.5663C33.0924 48.1808 31.486 47.3976 29.6386 47.1366C27.2289 46.7952 25.1004 47.4177 23.1928 48.9237C22.8514 49.1848 22.6305 49.5663 22.2289 49.7671C22.1486 49.7671 22.1085 49.727 22.0884 49.6667C23.0522 48.0001 23.996 46.3334 24.9599 44.6667C28.9358 37.7591 32.9117 30.8515 36.9077 23.9639C36.9478 23.8836 37.0081 23.8234 37.0482 23.743Z" fill="#FABC04"/>
<path d="M22.1685 49.7269C22.55 49.3855 22.9114 49.024 23.313 48.7028C28.1926 44.8473 35.5219 47.6385 36.5861 53.7429C36.8472 55.2088 36.7066 56.6144 36.2649 58.02C36.2448 58.1405 36.2247 58.2409 36.1845 58.3614C36.0038 58.6827 35.8432 59.024 35.6424 59.3453C33.8552 62.2971 31.2247 63.763 27.7709 63.5421C23.8151 63.261 20.7026 60.2891 20.1604 56.3534C19.8994 54.4457 20.2809 52.6586 21.2649 51.012C21.4657 50.6505 21.7066 50.3293 21.9275 49.9678C22.0279 49.8875 21.9878 49.7269 22.1685 49.7269Z" fill="#34A852"/>
<path d="M22.1688 49.7269C22.0885 49.8072 22.0885 49.9478 21.9479 49.9679C21.9279 49.8273 22.0082 49.747 22.0885 49.6466L22.1688 49.7269Z" fill="#FABC04"/>
<path d="M36.1846 58.3614C36.1043 58.2208 36.1846 58.1204 36.265 58.02C36.285 58.0401 36.3252 58.0803 36.3453 58.1003L36.1846 58.3614Z" fill="#E1C025"/>
</g>
<g clip-path="url(#clip1_401_2334)">
<path d="M130.048 23.7429C130.53 22.4779 131.193 21.3132 132.177 20.3695C136.112 16.5341 142.618 17.498 145.289 22.3172C147.297 25.9719 149.426 29.5462 151.494 33.1606C154.948 39.1646 158.442 45.1687 161.855 51.1927C164.727 56.2329 161.614 62.5984 155.911 63.4618C152.418 63.9839 149.144 62.3775 147.337 59.245C144.305 53.9638 141.253 48.6827 138.221 43.4217C138.16 43.3012 138.08 43.2008 138 43.1004C137.679 42.8393 137.538 42.4578 137.337 42.1164C135.992 39.747 134.606 37.3976 133.261 35.0482C132.397 33.5221 131.494 32.016 130.63 30.4899C129.847 29.1245 129.486 27.6385 129.526 26.0723C129.586 25.2691 129.687 24.4658 130.048 23.7429Z" fill="#3C8BD9"/>
<path d="M130.048 23.743C129.867 24.4659 129.707 25.1888 129.667 25.9519C129.606 27.6386 130.028 29.2049 130.872 30.6708C133.08 34.4659 135.289 38.2812 137.478 42.0964C137.679 42.4378 137.839 42.7792 138.04 43.1005C136.835 45.1888 135.63 47.2571 134.406 49.3454C132.719 52.2571 131.032 55.1888 129.325 58.1005C129.245 58.1005 129.225 58.0603 129.205 58C129.185 57.8394 129.245 57.6988 129.285 57.5382C130.108 54.5262 129.426 51.8555 127.357 49.5663C126.092 48.1808 124.486 47.3976 122.639 47.1366C120.229 46.7952 118.1 47.4177 116.193 48.9237C115.851 49.1848 115.631 49.5663 115.229 49.7671C115.149 49.7671 115.108 49.727 115.088 49.6667C116.052 48.0001 116.996 46.3334 117.96 44.6667C121.936 37.7591 125.912 30.8515 129.908 23.9639C129.948 23.8836 130.008 23.8234 130.048 23.743Z" fill="#FABC04"/>
<path d="M115.168 49.7269C115.55 49.3855 115.911 49.024 116.313 48.7028C121.193 44.8473 128.522 47.6385 129.586 53.7429C129.847 55.2088 129.707 56.6144 129.265 58.02C129.245 58.1405 129.225 58.2409 129.185 58.3614C129.004 58.6827 128.843 59.024 128.642 59.3453C126.855 62.2971 124.225 63.763 120.771 63.5421C116.815 63.261 113.703 60.2891 113.16 56.3534C112.899 54.4457 113.281 52.6586 114.265 51.012C114.466 50.6505 114.707 50.3293 114.928 49.9678C115.028 49.8875 114.988 49.7269 115.168 49.7269Z" fill="#34A852"/>
<path d="M115.169 49.7269C115.089 49.8072 115.089 49.9478 114.948 49.9679C114.928 49.8273 115.008 49.747 115.089 49.6466L115.169 49.7269Z" fill="#FABC04"/>
<path d="M129.185 58.3614C129.104 58.2208 129.185 58.1204 129.265 58.02C129.285 58.0401 129.325 58.0803 129.345 58.1003L129.185 58.3614Z" fill="#E1C025"/>
</g>
<defs>
<clipPath id="clip0_401_2334">
<rect width="50" height="45.5823" fill="white" transform="translate(20 18)"/>
</clipPath>
<clipPath id="clip1_401_2334">
<rect width="50" height="45.5823" fill="white" transform="translate(113 18)"/>
</clipPath>
</defs>
</svg>
