<svg width="100" height="25" viewBox="0 0 100 25" fill="none" xmlns="http://www.w3.org/2000/svg">
<g clip-path="url(#clip0_401_1416)">
<path d="M39.3857 8.80688H42.5437V18.726H39.3857V8.80688Z" fill="#E60023"/>
<path d="M43.2031 8.8069H46.2448V10.163H46.3028C47.0391 9.09744 47.9883 8.51636 49.364 8.51636C51.5337 8.51636 52.8123 10.0662 52.8123 12.2748V18.7261H49.6545V12.9141C49.6545 11.8679 49.1314 11.151 48.1046 11.151C47.0585 11.151 46.361 12.0229 46.361 13.2434V18.7261H43.2031V8.8069Z" fill="#E60023"/>
<path d="M42.8588 6.15329C42.8588 5.10706 42.0107 4.25903 40.9645 4.25903C39.9184 4.25903 39.0703 5.10706 39.0703 6.15329C39.0703 7.19942 39.9184 8.04747 40.9645 8.04747C42.0107 8.04747 42.8588 7.19942 42.8588 6.15329Z" fill="#E60023"/>
<path d="M75.022 8.66383C74.9319 8.6557 74.8286 8.6521 74.7077 8.6521C73.5065 8.6521 72.6929 9.17517 71.9954 10.3569H71.9373V8.80706H68.915V18.7261H72.0729V14.2703C72.0729 12.2057 73.2163 11.2491 75.022 11.416V8.66383Z" fill="#E60023"/>
<path d="M90.5193 12.4684C89.2597 12.2361 88.1361 12.1392 88.1361 11.4418C88.1361 10.8218 88.7366 10.5312 89.5114 10.5312C90.3832 10.5312 90.9837 10.8024 91.1002 11.6936H94.0064C93.8515 9.73692 92.3402 8.51636 89.531 8.51636C87.187 8.51636 85.2495 9.60127 85.2495 11.6936C85.2495 14.0183 87.09 14.4833 88.814 14.774C90.1315 15.0065 91.3324 15.1033 91.3324 15.9945C91.3324 16.6338 90.7319 16.9825 89.7827 16.9825C88.8304 16.9825 88.2003 16.5796 88.0071 15.762H84.9985C85.2198 17.8011 87.0095 19.0361 89.8023 19.0361C92.3981 19.0361 94.316 17.9124 94.316 15.7427C94.316 13.2047 92.2628 12.7591 90.5193 12.4684Z" fill="#E60023"/>
<path d="M79.9212 10.7637C80.9478 10.7637 81.6835 11.5192 81.8 12.7011H77.8867C78.0998 11.5192 78.7195 10.7637 79.9212 10.7637ZM80.0956 16.75C78.7969 16.75 78.0611 15.917 77.8673 14.5802H84.9971C85.0158 12.5655 84.4349 10.8411 83.2535 9.75631C82.4005 8.98141 81.277 8.51636 79.8626 8.51636C76.8405 8.51636 74.7676 10.783 74.7676 13.7472C74.7676 16.75 76.7824 19.0167 80.0565 19.0167C81.3161 19.0167 82.3231 18.6874 83.1565 18.1062C84.0283 17.5056 84.6093 16.6532 84.8227 15.7621H81.7422C81.4709 16.382 80.9283 16.75 80.0956 16.75Z" fill="#E60023"/>
<path d="M99.8783 16.3871C99.7321 16.3929 99.535 16.4014 99.3544 16.4014C98.6765 16.4014 98.2504 16.2076 98.2504 15.4327V10.783H99.8783V8.80693H98.2504V5.66846H95.1699V8.80693H94.2012V10.783H95.1699V16.1107C95.1699 18.2419 96.4873 18.8424 98.3278 18.8424C99.0299 18.8424 99.5608 18.7897 99.8783 18.7279V16.3871Z" fill="#E60023"/>
<path d="M58.4516 16.3916C58.3256 16.3965 58.1802 16.4014 58.0443 16.4014C57.3664 16.4014 56.94 16.2076 56.94 15.4327V10.783H58.4516V8.80694H56.94V5.66846H53.8597V8.80694H52.8325V10.783H53.8597V16.1107C53.8597 18.2419 55.1771 18.8424 57.0176 18.8424C57.6403 18.8424 58.1279 18.8009 58.4516 18.7484V16.3916Z" fill="#E60023"/>
<path d="M65.33 12.701C65.2137 11.5192 64.4774 10.7635 63.4506 10.7635C62.2495 10.7635 61.6296 11.5192 61.4164 12.701H65.33ZM58.2974 13.7471C58.2974 10.783 60.3703 8.51636 63.3926 8.51636C64.8067 8.51636 65.9305 8.98125 66.7829 9.75623C67.9647 10.8411 68.5458 12.5653 68.5265 14.5802H61.3972C61.5908 15.9169 62.327 16.75 63.6251 16.75C64.458 16.75 65.0006 16.3819 65.2717 15.7619H68.3521C68.139 16.6531 67.5579 17.5055 66.686 18.1062C65.853 18.6873 64.8456 19.0167 63.5863 19.0167C60.3121 19.0167 58.2974 16.75 58.2974 13.7471Z" fill="#E60023"/>
<path d="M33.9016 11.3838C35.1415 11.3838 35.8389 10.6476 35.8389 9.54317C35.8389 8.43895 35.122 7.7609 33.9016 7.7609H31.4797V11.3838H33.9016ZM28.2827 4.87427H33.7665C35.4519 4.87427 36.6919 5.33919 37.5442 6.15291C38.4355 6.98588 38.9392 8.16772 38.9392 9.56256C38.9392 12.2167 37.0987 14.096 34.2508 14.096H31.4797V18.7262H28.2827V4.87427Z" fill="#E60023"/>
<path d="M23.9477 12.2165C23.9477 18.8012 18.6097 24.1391 12.0251 24.1391C5.4405 24.1391 0.102539 18.8012 0.102539 12.2165C0.102539 5.63181 5.4405 0.293945 12.0251 0.293945C18.6097 0.293945 23.9477 5.63181 23.9477 12.2165Z" fill="white"/>
<path d="M12.0252 0.293945C5.4405 0.293945 0.102539 5.63191 0.102539 12.2165C0.102539 17.2675 3.24513 21.5855 7.68024 23.3226C7.57606 22.3793 7.48184 20.9286 7.72157 19.8988C7.93821 18.9683 9.11961 13.9725 9.11961 13.9725C9.11961 13.9725 8.763 13.2583 8.763 12.2024C8.763 10.5445 9.7239 9.30686 10.9204 9.30686C11.9376 9.30686 12.4288 10.0705 12.4288 10.9863C12.4288 12.0093 11.7775 13.5387 11.4415 14.956C11.1606 16.1427 12.0366 17.1104 13.207 17.1104C15.326 17.1104 16.9549 14.876 16.9549 11.6508C16.9549 8.79607 14.9037 6.8002 11.9748 6.8002C8.58239 6.8002 6.5912 9.3447 6.5912 11.9743C6.5912 12.999 6.98595 14.0978 7.47852 14.6951C7.57595 14.8132 7.59022 14.9166 7.5612 15.0371C7.4707 15.4137 7.26957 16.2235 7.23008 16.3893C7.17809 16.6075 7.05729 16.6538 6.83133 16.5486C5.34228 15.8555 4.41128 13.6784 4.41128 11.9298C4.41128 8.16886 7.14388 4.71488 12.289 4.71488C16.4249 4.71488 19.6391 7.6621 19.6391 11.6008C19.6391 15.7098 17.0483 19.0167 13.4523 19.0167C12.2442 19.0167 11.1084 18.389 10.7196 17.6477C10.7196 17.6477 10.1218 19.9241 9.97684 20.4819C9.70772 21.5175 8.98106 22.8155 8.49505 23.6075C9.61054 23.9528 10.7961 24.1391 12.0252 24.1391C18.6098 24.1391 23.9478 18.8011 23.9478 12.2165C23.9478 5.63191 18.6098 0.293945 12.0252 0.293945Z" fill="#E60023"/>
</g>
<defs>
<clipPath id="clip0_401_1416">
<rect width="100" height="24.4722" fill="white"/>
</clipPath>
</defs>
</svg>
