<svg width="250" height="82" viewBox="0 0 250 82" fill="none" xmlns="http://www.w3.org/2000/svg">
<path d="M63.7038 23.1981C63.6646 22.9129 63.4148 22.7551 63.2084 22.7378C63.0023 22.7206 58.6418 22.3974 58.6418 22.3974C58.6418 22.3974 55.6134 19.3908 55.281 19.058C54.9485 18.7255 54.2989 18.8266 54.0468 18.9008C54.0097 18.9118 53.3851 19.1045 52.352 19.4242C51.3404 16.5132 49.5551 13.8381 46.4142 13.8381C46.3274 13.8381 46.2382 13.8416 46.1489 13.8467C45.2557 12.6653 44.1491 12.1521 43.1934 12.1521C35.8767 12.1521 32.3812 21.2986 31.2852 25.9466C28.4421 26.8276 26.4224 27.4539 26.1644 27.5349C24.5775 28.0327 24.5273 28.0827 24.3189 29.5781C24.1621 30.7102 20.0098 62.822 20.0098 62.822L52.3655 68.8843L69.897 65.0917C69.897 65.0917 63.7427 23.4832 63.704 23.1981H63.7038ZM50.5637 19.9773L47.8259 20.8247C47.8269 20.6317 47.8279 20.4419 47.8279 20.2343C47.8279 18.4251 47.5767 16.9684 47.1738 15.8136C48.7922 16.0168 49.8701 17.8582 50.5637 19.9773ZM45.1662 16.1724C45.6162 17.2998 45.9087 18.9178 45.9087 21.1012C45.9087 21.2129 45.9078 21.3151 45.9068 21.4184C44.1263 21.9699 42.1915 22.5686 40.2525 23.1694C41.3412 18.9674 43.382 16.9379 45.1662 16.1724ZM42.9924 14.1146C43.3082 14.1146 43.6263 14.2218 43.9308 14.4314C41.5859 15.5348 39.0725 18.3138 38.0111 23.8634L33.5416 25.2477C34.7849 21.0147 37.7369 14.1146 42.9922 14.1146H42.9924Z" fill="#95BF46"/>
<path d="M63.2085 22.7378C63.0025 22.7207 58.642 22.3974 58.642 22.3974C58.642 22.3974 55.6135 19.3909 55.2812 19.0581C55.1568 18.9343 54.989 18.8708 54.8136 18.8435L52.3672 68.884L69.8971 65.0918C69.8971 65.0918 63.7426 23.4833 63.7039 23.1981C63.6647 22.913 63.4149 22.7552 63.2085 22.7378Z" fill="#5E8E3E"/>
<path d="M46.4143 32.4248L44.2526 38.855C44.2526 38.855 42.3587 37.8442 40.037 37.8442C36.6335 37.8442 36.4622 39.9801 36.4622 40.5183C36.4622 43.4552 44.1177 44.5804 44.1177 51.4594C44.1177 56.8716 40.685 60.3566 36.0566 60.3566C30.5025 60.3566 27.6621 56.8999 27.6621 56.8999L29.1493 51.9863C29.1493 51.9863 32.0689 54.4929 34.5325 54.4929C36.1423 54.4929 36.7971 53.2255 36.7971 52.2994C36.7971 48.4685 30.5165 48.2976 30.5165 42.0028C30.5165 36.7047 34.3193 31.5776 41.9954 31.5776C44.9532 31.5776 46.4143 32.4248 46.4143 32.4248Z" fill="white"/>
<g clip-path="url(#clip0_401_829)">
<path d="M121.57 32.3737C121.551 32.2327 121.428 32.1546 121.325 32.146C121.224 32.1375 119.237 32.1073 119.237 32.1073C119.237 32.1073 117.576 30.4938 117.412 30.3297C117.248 30.1656 116.927 30.2151 116.802 30.2523C116.801 30.2531 116.49 30.3491 115.968 30.5109C115.88 30.2275 115.752 29.8791 115.568 29.5291C114.977 28.4003 114.11 27.8034 113.064 27.8018C113.062 27.8018 113.061 27.8018 113.06 27.8018C112.987 27.8018 112.915 27.8088 112.842 27.815C112.811 27.7778 112.78 27.7414 112.748 27.7058C112.292 27.2181 111.707 26.9804 111.007 27.0013C109.655 27.04 108.308 28.0163 107.217 29.7506C106.449 30.9708 105.864 32.5038 105.698 33.6907C104.146 34.1714 103.061 34.5074 103.037 34.5152C102.253 34.7614 102.228 34.7854 102.126 35.524C102.05 36.0822 100 51.9355 100 51.9355L117.181 54.907L124.628 53.0558C124.628 53.0558 121.589 32.5146 121.57 32.3737ZM115.108 30.7772C114.712 30.8995 114.262 31.0389 113.774 31.1899C113.764 30.5055 113.683 29.5531 113.364 28.7301C114.39 28.9245 114.895 30.085 115.108 30.7772ZM112.875 31.4686C111.975 31.7473 110.993 32.0516 110.007 32.3567C110.284 31.2952 110.81 30.2383 111.456 29.5454C111.696 29.2876 112.032 29.0003 112.43 28.8362C112.803 29.6166 112.885 30.7215 112.875 31.4686ZM111.034 27.9009C111.351 27.894 111.618 27.9636 111.847 28.1138C111.481 28.3035 111.128 28.5761 110.797 28.9314C109.938 29.8528 109.28 31.2828 109.017 32.6625C108.199 32.9156 107.399 33.1642 106.661 33.3918C107.127 31.2201 108.947 27.9613 111.034 27.9009Z" fill="#95BF47"/>
<path d="M121.326 32.1468C121.225 32.1383 119.238 32.1081 119.238 32.1081C119.238 32.1081 117.577 30.4946 117.412 30.3304C117.351 30.2693 117.268 30.2375 117.182 30.2244L117.182 54.9062L124.628 53.0558C124.628 53.0558 121.59 32.5153 121.571 32.3744C121.551 32.2335 121.428 32.1553 121.326 32.1468Z" fill="#5E8E3E"/>
<path d="M113.054 35.9755L112.189 39.211C112.189 39.211 111.225 38.772 110.081 38.844C108.404 38.9501 108.386 40.0077 108.403 40.2732C108.495 41.7203 112.302 42.0362 112.515 45.4257C112.683 48.0922 111.101 49.9163 108.821 50.0603C106.084 50.233 104.577 48.6187 104.577 48.6187L105.157 46.152C105.157 46.152 106.674 47.2963 107.888 47.2197C108.681 47.1693 108.964 46.5244 108.935 46.0683C108.816 44.1808 105.716 44.2923 105.52 41.1907C105.355 38.5808 107.069 35.936 110.852 35.6975C112.309 35.6038 113.054 35.9755 113.054 35.9755Z" fill="white"/>
<path d="M134.434 42.7507C133.577 42.2861 133.137 41.8944 133.137 41.3561C133.137 40.6711 133.748 40.2311 134.703 40.2311C135.814 40.2311 136.806 40.6957 136.806 40.6957L137.589 38.2982C137.589 38.2982 136.869 37.7354 134.751 37.7354C131.804 37.7354 129.761 39.4232 129.761 41.7961C129.761 43.1415 130.715 44.169 131.988 44.9023C133.015 45.489 133.382 45.9053 133.382 46.5165C133.382 47.1524 132.868 47.6661 131.915 47.6661C130.493 47.6661 129.151 46.932 129.151 46.932L128.319 49.3294C128.319 49.3294 129.56 50.1611 131.646 50.1611C134.679 50.1611 136.856 48.669 136.856 45.9782C136.856 44.536 135.755 43.5086 134.434 42.7507Z" fill="black"/>
<path d="M146.518 37.7113C145.025 37.7113 143.851 38.4209 142.947 39.4967L142.898 39.4721L144.194 32.6968H140.818L137.541 49.9412H140.916L142.041 44.0466C142.481 41.8205 143.631 40.4512 144.708 40.4512C145.465 40.4512 145.76 40.965 145.76 41.6991C145.76 42.1637 145.71 42.7266 145.613 43.1912L144.341 49.942H147.717L149.038 42.9708C149.185 42.2366 149.283 41.3566 149.283 40.7692C149.281 38.8609 148.279 37.7113 146.518 37.7113Z" fill="black"/>
<path d="M156.913 37.7114C152.852 37.7114 150.162 41.3806 150.162 45.4651C150.162 48.0822 151.776 50.1856 154.81 50.1856C158.797 50.1856 161.487 46.6147 161.487 42.4318C161.487 40.0106 160.068 37.7114 156.913 37.7114ZM155.25 47.5938C154.1 47.5938 153.61 46.6155 153.61 45.3922C153.61 43.4601 154.614 40.3047 156.448 40.3047C157.647 40.3047 158.037 41.3322 158.037 42.3351C158.037 44.4138 157.036 47.5938 155.25 47.5938Z" fill="black"/>
<path d="M170.122 37.7114C167.843 37.7114 166.55 39.7172 166.55 39.7172H166.502L166.698 37.9072H163.714C163.567 39.1305 163.297 40.9889 163.029 42.3835L160.681 54.7355H164.056L164.985 49.7455H165.059C165.059 49.7455 165.752 50.1856 167.041 50.1856C171.003 50.1856 173.596 46.1256 173.596 42.0157C173.596 39.7418 172.592 37.7114 170.122 37.7114ZM166.893 47.6422C166.017 47.6422 165.498 47.153 165.498 47.153L166.061 43.9977C166.453 41.8943 167.553 40.4998 168.728 40.4998C169.755 40.4998 170.073 41.4535 170.073 42.3589C170.073 44.5359 168.776 47.6422 166.893 47.6422Z" fill="black"/>
<path d="M178.414 32.8682C177.338 32.8682 176.482 33.7244 176.482 34.8248C176.482 35.8277 177.118 36.5127 178.072 36.5127H178.121C179.173 36.5127 180.077 35.8031 180.102 34.5561C180.102 33.5777 179.441 32.8682 178.414 32.8682Z" fill="black"/>
<path d="M173.693 49.9413H177.068L179.368 37.981H175.968L173.693 49.9413Z" fill="black"/>
<path d="M187.954 37.9563H185.606L185.728 37.3934C185.923 36.2438 186.609 35.2164 187.734 35.2164C188.334 35.2164 188.81 35.3876 188.81 35.3876L189.47 32.746C189.47 32.746 188.883 32.4526 187.635 32.4526C186.436 32.4526 185.239 32.7951 184.333 33.5776C183.183 34.556 182.645 35.9743 182.376 37.3934L182.279 37.9563H180.713L180.224 40.5005H181.79L180.004 49.942H183.38L185.166 40.5005H187.49L187.954 37.9563Z" fill="black"/>
<path d="M196.074 37.981C196.074 37.981 193.964 43.2973 193.017 46.1993H192.967C192.903 45.2647 192.136 37.981 192.136 37.981H188.589L190.62 48.963C190.669 49.2072 190.645 49.3547 190.547 49.5259C190.154 50.2839 189.494 51.018 188.712 51.5563C188.076 52.0209 187.367 52.3142 186.804 52.51L187.734 55.3721C188.419 55.2254 189.837 54.6625 191.035 53.5375C192.577 52.0946 193.995 49.8684 195.462 46.8351L199.596 37.9802H196.074V37.981Z" fill="black"/>
</g>
<defs>
<clipPath id="clip0_401_829">
<rect width="100" height="28.3721" fill="white" transform="translate(100 27)"/>
</clipPath>
</defs>
</svg>
