<svg width="250" height="82" viewBox="0 0 250 82" fill="none" xmlns="http://www.w3.org/2000/svg">
<g clip-path="url(#clip0_401_291)">
<path d="M137.972 47.4256C138.337 48.3948 138.843 49.2234 139.489 49.9116C140.135 50.5998 140.9 51.1265 141.785 51.4917C142.67 51.8568 143.632 52.0394 144.671 52.0394C145.683 52.0394 146.631 51.8498 147.516 51.4705C148.4 51.0912 149.173 50.5576 149.833 49.8694C150.493 49.1812 151.006 48.3596 151.371 47.4045C151.736 46.4495 151.919 45.3821 151.919 44.2023V26H156.343V55.4944H151.961V52.7556C150.978 53.7949 149.819 54.5955 148.485 55.1574C147.15 55.7191 145.711 56 144.166 56C142.593 56 141.125 55.7261 139.763 55.1783C138.4 54.6306 137.22 53.8512 136.223 52.8399C135.226 51.8286 134.44 50.6139 133.864 49.1953C133.288 47.7767 133 46.1967 133 44.455V26H137.424V44.2023C137.424 45.3821 137.607 46.4565 137.972 47.4256Z" fill="#010202"/>
<path d="M163.969 26V36.7444C164.952 35.7612 166.09 34.9818 167.382 34.4059C168.674 33.83 170.079 33.5421 171.595 33.5421C173.168 33.5421 174.643 33.837 176.02 34.4269C177.396 35.0168 178.59 35.8174 179.601 36.8286C180.612 37.8399 181.413 39.0337 182.003 40.4101C182.593 41.7866 182.887 43.2472 182.887 44.7922C182.887 46.337 182.593 47.7907 182.003 49.153C181.413 50.5154 180.612 51.7023 179.601 52.7134C178.59 53.7247 177.396 54.5253 176.02 55.1151C174.643 55.705 173.168 55.9999 171.595 55.9999C170.078 55.9999 168.667 55.712 167.361 55.1361C166.055 54.5603 164.91 53.7808 163.927 52.7977V55.4943H159.713V26H163.969ZM164.453 47.6994C164.833 48.5984 165.359 49.3849 166.034 50.0591C166.708 50.7332 167.494 51.267 168.393 51.6602C169.292 52.0535 170.261 52.2501 171.3 52.2501C172.312 52.2501 173.267 52.0535 174.166 51.6602C175.064 51.267 175.844 50.7333 176.504 50.0591C177.164 49.385 177.691 48.5984 178.084 47.6994C178.477 46.8006 178.674 45.8315 178.674 44.7922C178.674 43.7528 178.477 42.7767 178.084 41.8638C177.691 40.9508 177.164 40.1573 176.504 39.4832C175.844 38.8091 175.065 38.2823 174.166 37.9032C173.267 37.524 172.312 37.3342 171.3 37.3342C170.289 37.3342 169.334 37.5239 168.435 37.9032C167.536 38.2824 166.75 38.8091 166.076 39.4832C165.402 40.1573 164.868 40.9508 164.475 41.8638C164.081 42.7767 163.885 43.7528 163.885 44.7922C163.885 45.8315 164.074 46.8006 164.453 47.6994Z" fill="#010202"/>
<path d="M185.288 40.4523C185.85 39.104 186.623 37.9173 187.606 36.892C188.589 35.8667 189.755 35.0591 191.103 34.4692C192.451 33.8794 193.912 33.5845 195.485 33.5845C197.03 33.5845 198.463 33.8654 199.783 34.4271C201.103 34.9889 202.241 35.7684 203.196 36.7657C204.151 37.7628 204.895 38.9426 205.429 40.3049C205.963 41.6673 206.229 43.1491 206.229 44.7502V46.1407H188.743C188.884 47.0115 189.165 47.8191 189.586 48.5634C190.008 49.3077 190.534 49.9538 191.166 50.5016C191.798 51.0494 192.514 51.4778 193.315 51.7867C194.116 52.0956 194.965 52.2502 195.864 52.2502C198.42 52.2502 200.485 51.1968 202.058 49.09L205.134 51.3653C204.067 52.7979 202.746 53.9215 201.173 54.7361C199.6 55.5506 197.831 55.958 195.864 55.958C194.263 55.958 192.767 55.677 191.377 55.1153C189.987 54.5535 188.779 53.7669 187.753 52.7556C186.728 51.7443 185.921 50.5576 185.331 49.1953C184.741 47.833 184.446 46.3511 184.446 44.7501C184.446 43.2333 184.727 41.8007 185.288 40.4523ZM191.208 38.788C190.014 39.7852 189.221 41.1124 188.828 42.7697H201.932C201.567 41.1124 200.787 39.7852 199.593 38.788C198.399 37.7908 197.002 37.2922 195.401 37.2922C193.8 37.2922 192.402 37.7908 191.208 38.788Z" fill="#010202"/>
<path d="M214.193 39.2724C213.294 40.2555 212.845 41.5897 212.845 43.2752V55.4944H208.589V34.0056H212.802V36.6601C213.336 35.7893 214.031 35.1011 214.888 34.5955C215.745 34.0898 216.763 33.8369 217.943 33.8369H219.418V37.7976H217.648C216.243 37.7977 215.092 38.2892 214.193 39.2724Z" fill="#010202"/>
</g>
<g clip-path="url(#clip1_401_291)">
<path d="M24.9719 47.4256C25.3371 48.3948 25.8427 49.2234 26.4888 49.9116C27.1349 50.5998 27.9003 51.1265 28.7851 51.4917C29.67 51.8568 30.632 52.0394 31.6714 52.0394C32.6827 52.0394 33.6307 51.8498 34.5155 51.4705C35.4004 51.0912 36.1728 50.5576 36.8329 49.8694C37.493 49.1812 38.0057 48.3596 38.3709 47.4045C38.736 46.4495 38.9186 45.3821 38.9186 44.2023V26H43.3427V55.4944H38.9607V52.7556C37.9776 53.7949 36.8188 54.5955 35.4846 55.1574C34.1502 55.7191 32.7107 56 31.1658 56C29.5927 56 28.125 55.7261 26.7626 55.1783C25.4003 54.6306 24.2204 53.8512 23.2233 52.8399C22.2262 51.8286 21.4396 50.6139 20.8638 49.1953C20.2879 47.7767 20 46.1967 20 44.455V26H24.4242V44.2023C24.4242 45.3821 24.6067 46.4565 24.9719 47.4256Z" fill="#010202"/>
<path d="M50.969 26V36.7444C51.9521 35.7612 53.0898 34.9818 54.3819 34.4059C55.674 33.83 57.0786 33.5421 58.5954 33.5421C60.1685 33.5421 61.643 33.837 63.0195 34.4269C64.3959 35.0168 65.5896 35.8174 66.6009 36.8286C67.6122 37.8399 68.4128 39.0337 69.0027 40.4101C69.5926 41.7866 69.8875 43.2472 69.8875 44.7922C69.8875 46.337 69.5926 47.7907 69.0027 49.153C68.4128 50.5154 67.6122 51.7023 66.6009 52.7134C65.5896 53.7247 64.3959 54.5253 63.0195 55.1151C61.643 55.705 60.1684 55.9999 58.5954 55.9999C57.0785 55.9999 55.667 55.712 54.3608 55.1361C53.0547 54.5603 51.91 53.7808 50.9268 52.7977V55.4943H46.7134V26H50.969ZM51.4535 47.6994C51.8327 48.5984 52.3594 49.3849 53.0336 50.0591C53.7078 50.7332 54.4943 51.267 55.3931 51.6602C56.2921 52.0535 57.2611 52.2501 58.3005 52.2501C59.3118 52.2501 60.2667 52.0535 61.1656 51.6602C62.0644 51.267 62.8439 50.7333 63.5041 50.0591C64.1642 49.385 64.6909 48.5984 65.0841 47.6994C65.4774 46.8006 65.674 45.8315 65.674 44.7922C65.674 43.7528 65.4774 42.7767 65.0841 41.8638C64.6909 40.9508 64.1642 40.1573 63.5041 39.4832C62.844 38.8091 62.0645 38.2823 61.1656 37.9032C60.2666 37.524 59.3117 37.3342 58.3005 37.3342C57.2893 37.3342 56.3342 37.5239 55.4354 37.9032C54.5365 38.2824 53.75 38.8091 53.0757 39.4832C52.4017 40.1573 51.8679 40.9508 51.4747 41.8638C51.0814 42.7767 50.8848 43.7528 50.8848 44.7922C50.8847 45.8315 51.0743 46.8006 51.4535 47.6994Z" fill="#010202"/>
<path d="M72.2883 40.4523C72.8501 39.104 73.6227 37.9173 74.6057 36.892C75.5888 35.8667 76.7546 35.0591 78.103 34.4692C79.4513 33.8794 80.912 33.5845 82.485 33.5845C84.0299 33.5845 85.4625 33.8654 86.7828 34.4271C88.103 34.9889 89.2406 35.7684 90.1957 36.7657C91.1507 37.7628 91.8952 38.9426 92.4288 40.3049C92.9625 41.6673 93.2293 43.1491 93.2293 44.7502V46.1407H75.7434C75.8839 47.0115 76.1648 47.8191 76.5862 48.5634C77.0076 49.3077 77.5342 49.9538 78.1662 50.5016C78.7982 51.0494 79.5145 51.4778 80.3151 51.7867C81.1157 52.0956 81.9653 52.2502 82.8642 52.2502C85.4205 52.2502 87.4851 51.1968 89.0581 49.09L92.1339 51.3653C91.0665 52.7979 89.7464 53.9215 88.1734 54.7361C86.6002 55.5506 84.8306 55.958 82.8643 55.958C81.2632 55.958 79.7674 55.677 78.377 55.1153C76.9865 54.5535 75.7787 53.7669 74.7534 52.7556C73.7281 51.7443 72.9206 50.5576 72.3307 49.1953C71.7408 47.833 71.4458 46.3511 71.4458 44.7501C71.4456 43.2333 71.7266 41.8007 72.2883 40.4523ZM78.2083 38.788C77.0145 39.7852 76.221 41.1124 75.8277 42.7697H88.9317C88.5665 41.1124 87.787 39.7852 86.5932 38.788C85.3993 37.7908 84.0019 37.2922 82.4008 37.2922C80.7996 37.2922 79.4021 37.7908 78.2083 38.788Z" fill="#010202"/>
<path d="M101.193 39.2724C100.294 40.2555 99.8445 41.5897 99.8445 43.2752V55.4944H95.5889V34.0056H99.8023V36.6601C100.336 35.7893 101.031 35.1011 101.888 34.5955C102.745 34.0898 103.763 33.8369 104.943 33.8369H106.418V37.7976H104.648C103.243 37.7977 102.092 38.2892 101.193 39.2724Z" fill="#010202"/>
</g>
<defs>
<clipPath id="clip0_401_291">
<rect width="86.4175" height="30" fill="white" transform="translate(133 26)"/>
</clipPath>
<clipPath id="clip1_401_291">
<rect width="86.4175" height="30" fill="white" transform="translate(20 26)"/>
</clipPath>
</defs>
</svg>
